<svg width="1792" height="1792" viewBox="0 0 1792 1792" xmlns="http://www.w3.org/2000/svg"><path d="M1901 851q19 19 19 45t-19 45l-294 294q-9 10-22.5 10t-22.5-10l-45-45q-10-9-10-22.5t10-22.5l185-185h-294v224q0 14-9 23t-23 9h-64q-14 0-23-9t-9-23v-224h-131q-12 119-67 226t-139 183.5-196.5 121.5-234.5 45q-180 0-330.5-91t-234.5-247-74-337q8-162 94-300t226.5-219.5 302.5-85.5q166-4 310.5 71.5t235.5 208.5 107 296h131v-224q0-14 9-23t23-9h64q14 0 23 9t9 23v224h294l-185-185q-10-9-10-22.5t10-22.5l45-45q9-10 22.5-10t22.5 10zm-1389 557q104 0 198.5-40.5t163.5-109.5 109.5-163.5 40.5-198.5-40.5-198.5-109.5-163.5-163.5-109.5-198.5-40.5-198.5 40.5-163.5 109.5-109.5 163.5-40.5 198.5 40.5 198.5 109.5 163.5 163.5 109.5 198.5 40.5z"/></svg>