<svg width="1792" height="1792" viewBox="0 0 1792 1792" xmlns="http://www.w3.org/2000/svg"><path d="M1280 32q0-14 9-23t23-9h416q26 0 45 19t19 45v416q0 14-9 23t-23 9h-64q-14 0-23-9t-9-23v-262l-419 420q87 104 129.5 236.5t30.5 276.5q-22 250-200.5 431t-428.5 206q-163 17-314-39.5t-256.5-162-162-256.5-39.5-314q25-250 206-428.5t431-200.5q144-12 276.5 30.5t236.5 129.5l419-419h-261q-14 0-23-9t-9-23v-64zm-576 1632q117 0 223.5-45.5t184-123 123-184 45.5-223.5-45.5-223.5-123-184-184-123-223.5-45.5-223.5 45.5-184 123-123 184-45.5 223.5 45.5 223.5 123 184 184 123 223.5 45.5z"/></svg>