<svg width="1792" height="1792" viewBox="64 -256 1792 1792"><g transform="scale(1 -1) translate(0 -1280)"><path d="M640 960q0 -80 -56 -136t-136 -56t-136 56t-56 136t56 136t136 56t136 -56t56 -136zM1664 576v-448h-1408v192l320 320l160 -160l512 512zM1760 1280h-1600q-13 0 -22.5 -9.5t-9.5 -22.5v-1216q0 -13 9.5 -22.5t22.5 -9.5h1600q13 0 22.5 9.5t9.5 22.5v1216 q0 13 -9.5 22.5t-22.5 9.5zM1920 1248v-1216q0 -66 -47 -113t-113 -47h-1600q-66 0 -113 47t-47 113v1216q0 66 47 113t113 47h1600q66 0 113 -47t47 -113z" fill="white" /></g></svg>