<svg width="1792" height="1792" viewBox="-64 -256 1792 1792"><g transform="scale(1 -1) translate(0 -1280)"><path d="M768 576v-384q0 -80 -56 -136t-136 -56h-384q-80 0 -136 56t-56 136v704q0 104 40.5 198.5t109.5 163.5t163.5 109.5t198.5 40.5h64q26 0 45 -19t19 -45v-128q0 -26 -19 -45t-45 -19h-64q-106 0 -181 -75t-75 -181v-32q0 -40 28 -68t68 -28h224q80 0 136 -56t56 -136z M1664 576v-384q0 -80 -56 -136t-136 -56h-384q-80 0 -136 56t-56 136v704q0 104 40.5 198.5t109.5 163.5t163.5 109.5t198.5 40.5h64q26 0 45 -19t19 -45v-128q0 -26 -19 -45t-45 -19h-64q-106 0 -181 -75t-75 -181v-32q0 -40 28 -68t68 -28h224q80 0 136 -56t56 -136z" fill="white" /></g></svg>