<svg width="1792" height="1792" viewBox="0 -256 1792 1792"><g transform="scale(1 -1) translate(0 -1280)"><path d="M736 96q0 -12 -10 -24l-319 -319q-10 -9 -23 -9q-12 0 -23 9l-320 320q-15 16 -7 35q8 20 30 20h192v1376q0 14 9 23t23 9h192q14 0 23 -9t9 -23v-1376h192q14 0 23 -9t9 -23zM1792 -32v-192q0 -14 -9 -23t-23 -9h-832q-14 0 -23 9t-9 23v192q0 14 9 23t23 9h832 q14 0 23 -9t9 -23zM1600 480v-192q0 -14 -9 -23t-23 -9h-640q-14 0 -23 9t-9 23v192q0 14 9 23t23 9h640q14 0 23 -9t9 -23zM1408 992v-192q0 -14 -9 -23t-23 -9h-448q-14 0 -23 9t-9 23v192q0 14 9 23t23 9h448q14 0 23 -9t9 -23zM1216 1504v-192q0 -14 -9 -23t-23 -9h-256 q-14 0 -23 9t-9 23v192q0 14 9 23t23 9h256q14 0 23 -9t9 -23z" fill="white" /></g></svg>