<svg height="0" width="0" style="position:absolute;margin-left: -100%;">
<path id="fa-american-sign-language-interpreting" d="M776 960q-59-2-84-55-17-34-48-53.5t-68-19.5q-53 0-90.5 37.5t-37.5 90.5q0 56 36 89l10 8q34 31 82 31 37 0 68-19.5t48-53.5q25-53 84-55zm568-128q0-56-36-89l-10-8q-34-31-82-31-37 0-68 19.5t-48 53.5q-25 53-84 55 59 2 84 55 17 34 48 53.5t68 19.5q53 0 90.5-37.5t37.5-90.5zm-426-221q-17 35-55 48t-73-4q-62-31-134-31-51 0-99 17 3 0 9.5-.5t9.5-.5q92 0 170.5 50t118.5 133q17 36 3.5 73.5t-49.5 54.5q-18 9-39 9 21 0 39 9 36 17 49.5 54.5t-3.5 73.5q-40 83-118.5 133t-170.5 50h-6q-16-2-44-4l-290-27-239 120q-14 7-29 7-40 0-57-35l-160-320q-11-23-4-47.5t29-37.5l209-119 148-267q17-155 91.5-291.5t195.5-236.5q31-25 70.5-21.5t64.5 34.5 21.5 70-34.5 65q-70 59-117 128 123-84 267-101 40-5 71.5 19t35.5 64q5 40-19 71.5t-64 35.5q-84 10-159 55 46-10 99-10 115 0 218 50 36 18 49 55.5t-5 73.5zm963-160l160 320q11 23 4 47.5t-29 37.5l-209 119-148 267q-17 155-91.5 291.5t-195.5 236.5q-26 22-61 22-45 0-74-35-25-31-21.5-70t34.5-65q70-59 117-128-123 84-267 101-4 1-12 1-36 0-63.5-24t-31.5-60q-5-40 19-71.5t64-35.5q84-10 159-55-46 10-99 10-115 0-218-50-36-18-49-55.5t5-73.5q17-35 55-48t73 4q62 31 134 31 51 0 99-17-3 0-9.5.5t-9.5.5q-92 0-170.5-50t-118.5-133q-17-36-3.5-73.5t49.5-54.5q18-9 39-9-21 0-39-9-36-17-49.5-54.5t3.5-73.5q40-83 118.5-133t170.5-50h7q14 2 42 4l291 27 239-120q14-7 29-7 40 0 57 35z"/>
<path id="fa-assistive-listening-systems" d="M128 1728q0 26-19 45t-45 19-45-19-19-45 19-45 45-19 45 19 19 45zm192-192q0 26-19 45t-45 19-45-19-19-45 19-45 45-19 45 19 19 45zm45-365l256 256-90 90-256-256zm339-19q0 26-19 45t-45 19-45-19-19-45 19-45 45-19 45 19 19 45zm707-320q0 59-11.5 108.5t-37.5 93.5-44 67.5-53 64.5q-31 35-45.5 54t-33.5 50-26.5 64-7.5 74q0 159-112.5 271.5t-271.5 112.5q-26 0-45-19t-19-45 19-45 45-19q106 0 181-75t75-181q0-57 11.5-105.5t37-91 43.5-66.5 52-63q40-46 59.5-72t37.5-74.5 18-103.5q0-185-131.5-316.5t-316.5-131.5-316.5 131.5-131.5 316.5q0 26-19 45t-45 19-45-19-19-45q0-117 45.5-223.5t123-184 184-123 223.5-45.5 223.5 45.5 184 123 123 184 45.5 223.5zm-515 128q0 26-19 45t-45 19-45-19-19-45 19-45 45-19 45 19 19 45zm288-128q0 26-19 45t-45 19-45-19-19-45q0-93-65.5-158.5t-158.5-65.5q-92 0-158 65.5t-66 158.5q0 26-19 45t-45 19-45-19-19-45q0-146 103-249t249-103 249 103 103 249zm394-289q10 25-1 49t-36 34q-9 4-23 4-19 0-35.5-11t-23.5-30q-68-178-224-295-21-16-25-42t12-47q17-21 43-25t47 12q183 137 266 351zm210-81q9 25-1.5 49t-35.5 34q-11 4-23 4-44 0-60-41-92-238-297-393-22-16-25.5-42t12.5-47q16-22 42-25.5t47 12.5q235 175 341 449z"/>
<path id="fa-audio-description" d="M248 994h171l-1-265zm1026-99q0-87-50.5-140t-146.5-53h-54v388h52q91 0 145-57t54-138zm-574-377l1 756q0 14-9.5 24t-23.5 10h-216q-14 0-23.5-10t-9.5-24v-62h-291l-55 81q-10 15-28 15h-267q-21 0-30.5-18t3.5-35l556-757q9-14 27-14h332q14 0 24 10t10 24zm827 377q0 193-125.5 303t-324.5 110h-270q-14 0-24-10t-10-24v-756q0-14 10-24t24-10h268q200 0 326 109t126 302zm156 1q0 11-.5 29t-8 71.5-21.5 102-44.5 108-73.5 102.5h-51q38-45 66.5-104.5t41.5-112 21-98 9-72.5l1-27q0-8-.5-22.5t-7.5-60-20-91.5-41-111.5-66-124.5h43q41 47 72 107t45.5 111.5 23 96 10.5 70.5zm184 0q0 11-.5 29t-8 71.5-21.5 102-45 108-74 102.5h-51q38-45 66.5-104.5t41.5-112 21-98 9-72.5l1-27q0-8-.5-22.5t-7.5-60-19.5-91.5-40.5-111.5-66-124.5h43q41 47 72 107t45.5 111.5 23 96 10.5 70.5zm181 0q0 11-.5 29t-8 71.5-21.5 102-44.5 108-73.5 102.5h-51q38-45 66-104.5t41-112 21-98 9-72.5l1-27q0-8-.5-22.5t-7.5-60-19.5-91.5-40.5-111.5-66-124.5h43q41 47 72 107t45.5 111.5 23 96 9.5 70.5z"/>
<path id="fa-blind" d="M558 311q-64 0-110-45.5t-46-110.5q0-64 46-109.5t110-45.5 109.5 45.5 45.5 109.5q0 65-45.5 110.5t-109.5 45.5zm551 642q0 50-30 67.5t-63.5 6.5-47.5-34l-367-438q-7-12-14-15.5t-11-1.5l-3 3q-7 8 4 21l122 139 1 354-161 457q-67 192-92 234-16 26-28 32-50 26-103 1-29-13-41.5-43t-9.5-57q2-17 197-618l5-416-85 164 35 222q4 24-1 42t-14 27.5-19 16-17 7.5l-7 2q-19 3-34.5-3t-24-16-14-22-7.5-19.5-2-9.5l-46-299 211-381q23-34 113-34 75 0 107 40l424 521q7 5 14 17l3 3-1 1q7 13 7 29zm-403 150q43 113 88.5 225t69.5 168l24 55q36 93 42 125 11 70-36 97-35 22-66 16t-51-22-29-35h-1q-6-16-8-25l-124-351zm824 592q31 49 31 57 0 5-3 7-9 5-14.5-.5t-15.5-26-16-30.5q-114-172-423-661 3 1 7-1t7-4l3-2q11-9 11-17z"/>
<path id="fa-braille" d="M0 1184q-66 0-113 47t-47 113 47 113 113 47 113-47 47-113-47-113-113-47zm512 0q-66 0-113 47t-47 113 47 113 113 47 113-47 47-113-47-113-113-47zm0-512q-66 0-113 47t-47 113 47 113 113 47 113-47 47-113-47-113-113-47zm768 512q-66 0-113 47t-47 113 47 113 113 47 113-47 47-113-47-113-113-47zm512 0q-66 0-113 47t-47 113 47 113 113 47 113-47 47-113-47-113-113-47zm-512-512q-66 0-113 47t-47 113 47 113 113 47 113-47 47-113-47-113-113-47zm512 0q-66 0-113 47t-47 113 47 113 113 47 113-47 47-113-47-113-113-47zm0-512q-66 0-113 47t-47 113 47 113 113 47 113-47 47-113-47-113-113-47zm-1600 1184q0 80-56 136t-136 56-136-56-56-136 56-136 136-56 136 56 56 136zm512 0q0 80-56 136t-136 56-136-56-56-136 56-136 136-56 136 56 56 136zm-512-512q0 80-56 136t-136 56-136-56-56-136 56-136 136-56 136 56 56 136zm512 0q0 80-56 136t-136 56-136-56-56-136 56-136 136-56 136 56 56 136zm-512-512q0 80-56 136t-136 56-136-56-56-136 56-136 136-56 136 56 56 136zm1280 1024q0 80-56 136t-136 56-136-56-56-136 56-136 136-56 136 56 56 136zm-768-1024q0 80-56 136t-136 56-136-56-56-136 56-136 136-56 136 56 56 136zm1280 1024q0 80-56 136t-136 56-136-56-56-136 56-136 136-56 136 56 56 136zm-512-512q0 80-56 136t-136 56-136-56-56-136 56-136 136-56 136 56 56 136zm512 0q0 80-56 136t-136 56-136-56-56-136 56-136 136-56 136 56 56 136zm-512-512q0 80-56 136t-136 56-136-56-56-136 56-136 136-56 136 56 56 136zm512 0q0 80-56 136t-136 56-136-56-56-136 56-136 136-56 136 56 56 136z"/>
<path id="fa-deaf" d="M1056 832q0 26 19 45t45 19 45-19 19-45q0-146-103-249t-249-103-249 103-103 249q0 26 19 45t45 19 45-19 19-45q0-93 66-158.5t158-65.5 158 65.5 66 158.5zm-221-576q-117 0-223.5 45.5t-184 123-123 184-45.5 223.5q0 26 19 45t45 19 45-19 19-45q0-185 131.5-316.5t316.5-131.5 316.5 131.5 131.5 316.5q0 55-18 103.5t-37.5 74.5-59.5 72q-34 39-52 63t-43.5 66.5-37 91-11.5 105.5q0 106-75 181t-181 75q-26 0-45 19t-19 45 19 45 45 19q159 0 271.5-112.5t112.5-271.5q0-41 7.5-74t26.5-64 33.5-50 45.5-54q35-41 53-64.5t44-67.5 37.5-93.5 11.5-108.5q0-117-45.5-223.5t-123-184-184-123-223.5-45.5zm-244 719l226 226-579 579q-12 12-29 12t-29-12l-168-168q-12-12-12-29t12-29zm1021-963l168 168q12 12 12 29t-12 30l-233 233-26 25-71 71q-66-153-195-258l91-91 207-207q13-12 30-12t29 12z"/>
<path id="fa-envira" d="M896 816q-104-196-160-278-139-202-347-318-34-19-70-36-89-40-94-32t34 38l39 31q62 43 112.5 93.5t94.5 116.5 70.5 113 70.5 131q9 17 13 25 44 84 84 153t98 154 115.5 150 131 123.5 148.5 90.5q153 66 154 60 1-3-49-37-53-36-81-57-77-58-179-211t-185-310zm-347 543q-76-60-132.5-125t-98-143.5-71-154.5-58.5-186-52-209-60.5-252-76.5-289q273 0 497.5 36t379 92 271 144.5 185.5 172.5 110 198.5 56 199.5 12.5 198.5-9.5 173-20 143.5-13 107l323 327h-104l-281-285q-22 2-91.5 14t-121.5 19-138 6-160.5-17-167.5-59-179-111z"/>
<path id="fa-gitlab" d="M104 706l792 1015-868-630q-18-13-25-34.5t0-42.5l101-308zm462 0h660l-330 1015zm-198-612l198 612h-462l198-612q8-23 33-23t33 23zm1320 612l101 308q7 21 0 42.5t-25 34.5l-868 630 792-1015zm0 0h-462l198-612q8-23 33-23t33 23z"/>
<path id="fa-glide" d="M994 515q0 27-13 94-11 50-31.5 150t-30.5 150q-2 11-4.5 12.5t-13.5 2.5q-20 2-31 2-58 0-84-49.5t-26-113.5q0-88 35-174t103-124q28-14 51-14 28 0 36.5 16.5t8.5 47.5zm486 424q0-14-39-75.5t-52-66.5q-21-8-34-8-91 0-226 77l-2-2q3-22 27.5-135t24.5-178q0-233-242-233-24 0-68 6-94 17-168.5 89.5t-111.5 166.5-37 189q0 146 80.5 225t227.5 79q25 0 25 3t-1 5q-4 34-26 117-14 52-51.5 101t-82.5 49q-42 0-42-47 0-24 10.5-47.5t25-39.5 29.5-28.5 26-20 11-8.5q0-3-7-10-24-22-58.5-36.5t-65.5-14.5q-35 0-63.5 34t-41 75-12.5 75q0 88 51.5 142t138.5 54q82 0 155-53t117.5-126 65.5-153q6-22 15.5-66.5t14.5-66.5q3-12 14-18 118-60 227-60 48 0 127 18 1 1 4 1 5 0 9.5-4.5t4.5-8.5zm184-523v960q0 119-84.5 203.5t-203.5 84.5h-960q-119 0-203.5-84.5t-84.5-203.5v-960q0-119 84.5-203.5t203.5-84.5h960q119 0 203.5 84.5t84.5 203.5z"/>
<path id="fa-glide-g" d="M872.5 305q0-24-2-38.5t-8.5-30-21-23-37.5-7.5q-39 0-78 23-105 58-159 190.5t-54 269.5q0 44 8.5 85.5t26.5 80.5 52.5 62.5 81.5 23.5q4 0 18 .5t20 0 16-3 15-8.5 7-16q16-77 48-231.5t48-231.5q19-91 19-146zm754 656q0 7-7.5 13.5t-15.5 6.5l-6-1q-22-3-62-11t-72-12.5-63-4.5q-167 0-351 93-15 8-21 27-10 36-24.5 105.5t-22.5 100.5q-23 91-70 179.5t-112.5 164.5-154.5 123-185 47q-135 0-214.5-83.5t-79.5-219.5q0-53 19.5-117t63-116.5 97.5-52.5q38 0 120 33.5t83 61.5q0 1-16.5 12.5t-39.5 31-46 44.5-39 61-16 74q0 33 16.5 53t48.5 20q45 0 85-31.5t66.5-78 48-105.5 32.5-107 16-90v-9q0-2-3.5-3.5t-8.5-1.5h-10l-10 .5-6 .5q-227 0-352-122.5t-125-348.5q0-108 34.5-221t96-210 156-167.5 204.5-89.5q52-9 106-9 374 0 374 360 0 98-38 273t-43 211l3 3q101-57 182.5-88t167.5-31q22 0 53 13 19 7 80 102.5t61 116.5z"/>
<path id="fa-instagram" d="M1490 1426v-648h-135q20 63 20 131 0 126-64 232.5t-174 168.5-240 62q-197 0-337-135.5t-140-327.5q0-68 20-131h-141v648q0 26 17.5 43.5t43.5 17.5h1069q25 0 43-17.5t18-43.5zm-284-533q0-124-90.5-211.5t-218.5-87.5q-127 0-217.5 87.5t-90.5 211.5 90.5 211.5 217.5 87.5q128 0 218.5-87.5t90.5-211.5zm284-360v-165q0-28-20-48.5t-49-20.5h-174q-29 0-49 20.5t-20 48.5v165q0 29 20 49t49 20h174q29 0 49-20t20-49zm174-208v1142q0 81-58 139t-139 58h-1142q-81 0-139-58t-58-139v-1142q0-81 58-139t139-58h1142q81 0 139 58t58 139z"/>
<path id="fa-low-vision" d="M335 1356q-2 0-6-2-86-57-168.5-145t-139.5-180q-21-30-21-69 0-9 2-19t4-18 7-18 8.5-16 10.5-17 10-15 12-15.5 11-14.5q184-251 452-365-110-198-110-211 0-19 17-29 116-64 128-64 18 0 28 16l124 229q92-19 192-19 266 0 497.5 137.5t378.5 369.5q20 31 20 69t-20 69q-91 142-218.5 253.5t-278.5 175.5q110 198 110 211 0 20-17 29-116 64-127 64-19 0-29-16l-124-229-64-119-444-820 7-7q-58 24-99 47 3 5 127 234t243 449 119 223q0 7-9 9-13 3-72 3-57 0-60-7l-456-841q-39 28-82 68 24 43 214 393.5t190 354.5q0 10-11 10-14 0-82.5-22t-72.5-28l-106-197-224-413q-44 53-78 106 2 3 18 25t23 34l176 327q0 10-10 10zm830-102l49 91q273-111 450-385-180-277-459-389 67 64 103 148.5t36 176.5q0 106-47 200.5t-132 157.5zm-317-614q0 20 14 34t34 14q86 0 147 61t61 147q0 20 14 34t34 14 34-14 14-34q0-126-89-215t-215-89q-20 0-34 14t-14 34zm366-65l-9-4 7 7z"/>
<path id="fa-pied-piper" d="M1174 1020q0 64-38 109t-91 45q-43 0-70-15v-277q28-17 70-17 53 0 91 45.5t38 109.5zm-343-428q0 64-38 109.5t-91 45.5q-43 0-70-15v-277q28-17 70-17 53 0 91 45t38 109zm562 431q0-134-88-229t-213-95q-20 0-39 3-23 78-78 136-87 95-211 101v636l211-41v-206q51 19 117 19 125 0 213-95t88-229zm-343-427q0-134-88.5-229t-213.5-95q-74 0-141 36h-186v840l211-41v-206q55 19 116 19 125 0 213.5-95t88.5-229zm614-180v960q0 119-84.5 203.5t-203.5 84.5h-960q-119 0-203.5-84.5t-84.5-203.5v-960q0-119 84.5-203.5t203.5-84.5h960q119 0 203.5 84.5t84.5 203.5z"/>
<path id="fa-question-circle-o" d="M1008 1200v160q0 14-9 23t-23 9h-160q-14 0-23-9t-9-23v-160q0-14 9-23t23-9h160q14 0 23 9t9 23zm256-496q0 50-15 90t-45.5 69-52 44-59.5 36q-32 18-46.5 28t-26 24-11.5 29v32q0 14-9 23t-23 9h-160q-14 0-23-9t-9-23v-68q0-35 10.5-64.5t24-47.5 39-35.5 41-25.5 44.5-21q53-25 75-43t22-49q0-42-43.5-71.5t-95.5-29.5q-56 0-95 27-29 20-80 83-9 12-25 12-11 0-19-6l-108-82q-10-7-12-20t5-23q122-192 349-192 129 0 238.5 89.5t109.5 214.5zm-368-448q-130 0-248.5 51t-204 136.5-136.5 204-51 248.5 51 248.5 136.5 204 204 136.5 248.5 51 248.5-51 204-136.5 136.5-204 51-248.5-51-248.5-136.5-204-204-136.5-248.5-51zm768 640q0 209-103 385.5t-279.5 279.5-385.5 103-385.5-103-279.5-279.5-103-385.5 103-385.5 279.5-279.5 385.5-103 385.5 103 279.5 279.5 103 385.5z"/>
<path id="fa-sign-language" d="M895 673q32 0 59 18l222 148q61 40 110 97l146 170q40 46 29 106l-72 413q-6 32-29.5 53.5t-55.5 25.5l-527 56-352 32h-9q-39 0-67.5-28t-28.5-68q0-37 27-64t65-32l260-32h-448q-41 0-69.5-30t-26.5-71q2-39 32-65t69-26l442-1-521-64q-41-5-66-37t-19-73q6-35 34.5-57.5t65.5-22.5h10l481 60-351-94q-38-10-62-41.5t-18-68.5q6-36 33-58.5t62-22.5q6 0 20 2l448 96 217 37q1 0 3 .5t3 .5q23 0 30.5-23t-12.5-36l-186-125q-35-23-42-63.5t18-73.5q27-38 76-38zm-70 202l186 125-218-37-5-2-36-38-238-262q-1-1-2.5-3.5t-2.5-3.5q-24-31-18.5-70t37.5-64q31-23 68-17.5t64 33.5l142 147-4 4-5 4q-32 45-23 99t55 85zm887-454l15 266q4 73-11 147l-48 219q-12 59-67 87l-106 54q2-62-39-109l-146-170q-53-61-117-103l-222-148q-34-23-76-23-51 0-88 37l-235-312q-25-33-18-73.5t41-63.5q33-22 71.5-14t62.5 40l266 352-262-455q-21-35-10.5-75t47.5-59q35-18 72.5-6t57.5 46l241 420-136-337q-15-35-4.5-74t44.5-56q37-19 76-6t56 51l193 415 101 196q8 15 23 17.5t27-7.5 11-26l-12-224q-2-41 26-71t69-31q39 0 67 28.5t30 67.5z"/>
<path id="fa-snapchat" d="M1407 1148q0-22-22-27-67-15-118-59t-80-108q-7-19-7-25 0-15 19.5-26t43-17 43-20.5 19.5-36.5q0-19-18.5-31.5t-38.5-12.5q-12 0-32 8t-31 8q-4 0-12-2 5-95 5-114 0-79-17-114-36-78-103-121.5t-152-43.5q-199 0-275 165-17 35-17 114 0 19 5 114-4 2-14 2-12 0-32-7.5t-30-7.5q-21 0-38.5 12t-17.5 32q0 21 19.5 35.5t43 20.5 43 17 19.5 26q0 6-7 25-64 138-198 167-22 5-22 27 0 46 137 68 2 5 6 26t11.5 30.5 23.5 9.5q12 0 37.5-4.5t39.5-4.5q35 0 67 15t54 32.5 57.5 32.5 76.5 15q43 0 79-15t57.5-32.5 53.5-32.5 67-15q14 0 39.5 4t38.5 4q16 0 23-10t11-30 6-25q137-22 137-68zm257-252q0 209-103 385.5t-279.5 279.5-385.5 103-385.5-103-279.5-279.5-103-385.5 103-385.5 279.5-279.5 385.5-103 385.5 103 279.5 279.5 103 385.5z"/>
<path id="fa-snapchat-ghost" d="M912 128q134-1 240.5 68.5t163.5 192.5q27 58 27 179 0 47-9 191 14 7 28 7 18 0 51-13.5t51-13.5q29 0 56 18t27 46q0 32-31.5 54t-69 31.5-69 29-31.5 47.5q0 15 12 43 37 82 102.5 150t144.5 101q28 12 80 23 28 6 28 35 0 70-219 103-7 11-11 39t-14 46.5-33 18.5q-20 0-62-6.5t-64-6.5q-37 0-62 5-32 5-63 22.5t-58 38-58 40.5-76 33.5-99 13.5q-52 0-96.5-13.5t-75-33.5-57.5-40.5-58-38-62-22.5q-26-5-63-5-24 0-65.5 7.5t-58.5 7.5q-25 0-35-18.5t-14-47.5-11-40q-219-33-219-103 0-29 28-35 52-11 80-23 78-32 144.5-101t102.5-150q12-28 12-43 0-28-31.5-47.5t-69.5-29.5-69.5-31.5-31.5-52.5q0-27 26-45.5t55-18.5q15 0 48 13t53 13q18 0 32-7-9-142-9-190 0-122 27-180 64-137 172-198t264-63z"/>
<path id="fa-snapchat-square" d="M1408 1148q0-22-22-27-67-14-118-58t-80-109q-7-14-7-25 0-15 19.5-26t42.5-17 42.5-20.5 19.5-36.5q0-19-18.5-31.5t-38.5-12.5q-11 0-31 8t-32 8q-4 0-12-2 5-63 5-115 0-78-17-114-36-78-102.5-121.5t-152.5-43.5q-198 0-275 165-18 38-18 115 0 38 6 114-10 2-15 2-11 0-31.5-8t-30.5-8q-20 0-37.5 12.5t-17.5 32.5q0 21 19.5 35.5t42.5 20.5 42.5 17 19.5 26q0 11-7 25-64 138-198 167-22 5-22 27 0 47 138 69 2 5 6 26t11 30.5 23 9.5q13 0 38.5-5t38.5-5q35 0 67.5 15t54.5 32.5 57.5 32.5 76.5 15q43 0 79-15t57.5-32.5 54-32.5 67.5-15q13 0 39 4.5t39 4.5q15 0 22.5-9.5t11.5-31 5-24.5q138-22 138-69zm256-732v960q0 119-84.5 203.5t-203.5 84.5h-960q-119 0-203.5-84.5t-84.5-203.5v-960q0-119 84.5-203.5t203.5-84.5h960q119 0 203.5 84.5t84.5 203.5z"/>
<path id="fa-universal-access" d="M1374 657q-6-26-28.5-39.5t-48.5-7.5q-261 62-401 62t-401-62q-26-6-48.5 7.5t-28.5 39.5 7.5 48.5 39.5 28.5q194 46 303 58-2 158-15.5 269t-26.5 155.5-41 115.5l-9 21q-10 25 1 49t36 34q9 4 23 4 44 0 60-41l8-20q54-139 71-259h42q17 120 71 259l8 20q16 41 60 41 14 0 23-4 25-10 36-34t1-49l-9-21q-28-71-41-115.5t-26.5-155.5-15.5-269q109-12 303-58 26-6 39.5-28.5t7.5-48.5zm-350-145q0-53-37.5-90.5t-90.5-37.5-90.5 37.5-37.5 90.5 37.5 90.5 90.5 37.5 90.5-37.5 37.5-90.5zm576 384q0 143-55.5 273.5t-150 225-225 150-273.5 55.5-273.5-55.5-225-150-150-225-55.5-273.5 55.5-273.5 150-225 225-150 273.5-55.5 273.5 55.5 225 150 150 225 55.5 273.5zm-704-768q-156 0-298 61t-245 164-164 245-61 298 61 298 164 245 245 164 298 61 298-61 245-164 164-245 61-298-61-298-164-245-245-164-298-61zm896 768q0 182-71 348t-191 286-286 191-348 71-348-71-286-191-191-286-71-348 71-348 191-286 286-191 348-71 348 71 286 191 191 286 71 348z"/>
<path id="fa-viadeo" d="M1306 1106q0 215-147 374-148 161-378 161-232 0-378-161-147-159-147-374 0-147 68-270.5t189-196.5 268-73q96 0 182 31-32 62-39 126-66-28-143-28-167 0-280.5 123t-113.5 291q0 170 112.5 288.5t281.5 118.5 281-118.5 112-288.5q0-89-32-166 66-13 123-49 41 98 41 212zm-204-189q0 192-79.5 345t-238.5 253l-14 1q-29 0-62-5 83-32 146.5-102.5t99.5-154.5 58.5-189 30-192.5 7.5-178.5q0-69-3-103 55 160 55 326zm-55-328v2q-73-214-206-440 88 59 142.5 186.5t63.5 251.5zm244 203q-83 0-160-75 218-120 290-247 19-37 21-56-42 94-139.5 166.5t-204.5 97.5q-35-54-35-113 0-37 17-79t43-68q46-44 157-74 59-16 106-58.5t74-100.5q74 105 74 253 0 109-24 170-32 77-88.5 130.5t-130.5 53.5z"/>
<path id="fa-viadeo-square" d="M1178 1041q0-78-28-147-41 25-85 34 22 50 22 114 0 117-77 198.5t-193 81.5-193.5-81.5-77.5-198.5q0-115 78-199.5t193-84.5q53 0 98 19 4-43 27-87-60-21-125-21-154 0-257.5 108.5t-103.5 263.5 103.5 261 257.5 106 257.5-106.5 103.5-260.5zm-178-355q2 24 2 71 0 63-5 123t-20.5 132.5-40.5 130-68.5 106-100.5 70.5q21 3 42 3h10q219-139 219-411 0-116-38-225zm0 0q-4-80-44-171.5t-98-130.5q92 156 142 302zm335-105q0-102-51-174-41 86-124 109-69 19-109 53.5t-40 99.5q0 40 24 77 74-17 140.5-67t95.5-115q-4 52-74.5 111.5t-138.5 97.5q52 52 110 52 51 0 90-37t60-90q17-43 17-117zm329-165v960q0 119-84.5 203.5t-203.5 84.5h-960q-119 0-203.5-84.5t-84.5-203.5v-960q0-119 84.5-203.5t203.5-84.5h960q119 0 203.5 84.5t84.5 203.5z"/>
<path id="fa-volume-control-phone" d="M809 1689q0-11-13-58t-31-107-20-69q-1-4-5-26.5t-8.5-36-13.5-21.5q-15-14-51-14-23 0-70 5.5t-71 5.5q-34 0-47-11-6-5-11-15.5t-7.5-20-6.5-24-5-18.5q-37-128-37-255t37-255q1-4 5-18.5t6.5-24 7.5-20 11-15.5q13-11 47-11 24 0 71 5.5t70 5.5q36 0 51-14 9-8 13.5-21.5t8.5-36 5-26.5q2-9 20-69t31-107 13-58q0-22-43.5-52.5t-75.5-42.5q-20-8-45-8-34 0-98 18-57 17-96.5 40.5t-71 66-46 70-45.5 94.5q-6 12-9 19-49 107-68 216t-19 244 19 244 68 216q56 122 83 161 63 91 179 127l6 2q64 18 98 18 25 0 45-8 32-12 75.5-42.5t43.5-52.5zm159-913q-26 0-45-19t-19-45.5 19-45.5q37-37 37-90 0-52-37-91-19-19-19-45t19-45 45-19 45 19q75 75 75 181t-75 181q-21 19-45 19zm181 181q-27 0-45-19-19-19-19-45t19-45q112-114 112-272t-112-272q-19-19-19-45t19-45 45-19 45 19q150 150 150 362t-150 362q-18 19-45 19zm181 181q-27 0-45-19-19-19-19-45t19-45q90-91 138.5-208t48.5-245-48.5-245-138.5-208q-19-19-19-45t19-45 45-19 45 19q109 109 167 249t58 294-58 294-167 249q-18 19-45 19z"/>
<path id="fa-wheelchair-alt" d="M1566 813q34 35 29 82l-44 551q-4 42-34.5 70t-71.5 28q-6 0-9-1-44-3-72.5-36.5t-25.5-77.5l35-429-143 8q55 113 55 240 0 216-148 372l-137-137q91-101 91-235 0-145-102.5-248t-247.5-103q-134 0-236 92l-137-138q120-114 284-141l264-300-149-87-181 161q-33 30-77 27.5t-73-35.5-26.5-77 34.5-73l239-213q26-23 60-26.5t64 14.5l488 283q36 21 48 68 17 67-26 117l-205 232 371-20q49-3 83 32zm-198-457q-74 0-126-52t-52-126 52-126 126-52 126.5 52 52.5 126-52.5 126-126.5 52zm-627 1242q106 0 196-61l139 139q-146 116-335 116-148 0-273.5-73t-198.5-198-73-273q0-188 116-336l139 139q-60 88-60 197 0 145 102.5 247.5t247.5 102.5z"/>
<path id="fa-wpbeginner" d="M384 832h160v-224h-160v224zm837 332v-92q-104 36-243 38-135 1-259.5-46.5t-220.5-122.5l1 96q88 80 212 128.5t272 47.5q129 0 238-49zm-581-332h640v-224h-640v224zm1152-32q0 187-99 352 89 102 89 229 0 157-129.5 268t-313.5 111q-122 0-225-52.5t-161-140.5q-19 1-57 1t-57-1q-58 88-161 140.5t-225 52.5q-184 0-313.5-111t-129.5-268q0-127 89-229-99-165-99-352 0-209 120-385.5t326.5-279.5 449.5-103 449.5 103 326.5 279.5 120 385.5z"/>
<path id="fa-wpforms" d="M643 911v128h-252v-128h252zm0-255v127h-252v-127h252zm758 511v128h-341v-128h341zm0-256v128h-672v-128h672zm0-255v127h-672v-127h672zm135 860v-1240q0-8-6-14t-14-6h-32l-378 256-210-171-210 171-378-256h-32q-8 0-14 6t-6 14v1240q0 8 6 14t14 6h1240q8 0 14-6t6-14zm-855-1110l185-150h-406zm430 0l221-150h-406zm553-130v1240q0 62-43 105t-105 43h-1240q-62 0-105-43t-43-105v-1240q0-62 43-105t105-43h1240q62 0 105 43t43 105z"/>
</svg>
