<?xml version="1.0" encoding="utf-8"?>
<svg width="1792" height="1792" viewBox="0 0 1792 1792" xmlns="http://www.w3.org/2000/svg"><path d="M1265 1238q0-57-5.5-107t-21-100.5-39.5-86-64-58-91-22.5q-6 4-33.5 20.5t-42.5 24.5-40.5 20-49 17-46.5 5-46.5-5-49-17-40.5-20-42.5-24.5-33.5-20.5q-51 0-91 22.5t-64 58-39.5 86-21 100.5-5.5 107q0 73 42 121.5t103 48.5h576q61 0 103-48.5t42-121.5zm-173-594q0-108-76.5-184t-183.5-76-183.5 76-76.5 184q0 107 76.5 183t183.5 76 183.5-76 76.5-183zm636 540v192q0 14-9 23t-23 9h-96v224q0 66-47 113t-113 47h-1216q-66 0-113-47t-47-113v-1472q0-66 47-113t113-47h1216q66 0 113 47t47 113v224h96q14 0 23 9t9 23v192q0 14-9 23t-23 9h-96v128h96q14 0 23 9t9 23v192q0 14-9 23t-23 9h-96v128h96q14 0 23 9t9 23z"/></svg>