<svg width="1792" height="1792" viewBox="0 -256 1792 1792"><g transform="scale(1 -1) translate(0 -1280)"><path d="M1792 192v-128q0 -26 -19 -45t-45 -19h-1664q-26 0 -45 19t-19 45v128q0 26 19 45t45 19h1664q26 0 45 -19t19 -45zM1792 576v-128q0 -26 -19 -45t-45 -19h-1280q-26 0 -45 19t-19 45v128q0 26 19 45t45 19h1280q26 0 45 -19t19 -45zM1792 960v-128q0 -26 -19 -45 t-45 -19h-1536q-26 0 -45 19t-19 45v128q0 26 19 45t45 19h1536q26 0 45 -19t19 -45zM1792 1344v-128q0 -26 -19 -45t-45 -19h-1152q-26 0 -45 19t-19 45v128q0 26 19 45t45 19h1152q26 0 45 -19t19 -45z" fill="black" /></g></svg>