<svg width="2048" height="2048" viewBox="-128 -384 2048 2048" xmlns="http://www.w3.org/2000/svg"><g transform="scale(1 -1) translate(0 -1280)"><path d="M1792 192v-128q0 -26 -19 -45t-45 -19h-1664q-26 0 -45 19t-19 45v128q0 26 19 45t45 19h1664q26 0 45 -19t19 -45zM1408 576v-128q0 -26 -19 -45t-45 -19h-896q-26 0 -45 19t-19 45v128q0 26 19 45t45 19h896q26 0 45 -19t19 -45zM1664 960v-128q0 -26 -19 -45t-45 -19 h-1408q-26 0 -45 19t-19 45v128q0 26 19 45t45 19h1408q26 0 45 -19t19 -45zM1280 1344v-128q0 -26 -19 -45t-45 -19h-640q-26 0 -45 19t-19 45v128q0 26 19 45t45 19h640q26 0 45 -19t19 -45z" fill="black" /></g></svg>