<?xml version="1.0" encoding="UTF-8"?>
<svg xmlns="http://www.w3.org/2000/svg" xmlns:xlink="http://www.w3.org/1999/xlink" width="2048" height="2048" viewBox="0 0 2048 2048" version="1.1">
<g>
<path d="M 1920 1472 L 1920 1600 C 1920 1617.332031 1913.667969 1632.332031 1901 1645 C 1888.332031 1657.667969 1873.332031 1664 1856 1664 L 192 1664 C 174.667969 1664 159.667969 1657.667969 147 1645 C 134.332031 1632.332031 128 1617.332031 128 1600 L 128 1472 C 128 1454.667969 134.332031 1439.667969 147 1427 C 159.667969 1414.332031 174.667969 1408 192 1408 L 1856 1408 C 1873.332031 1408 1888.332031 1414.332031 1901 1427 C 1913.667969 1439.667969 1920 1454.667969 1920 1472 Z M 1920 1088 L 1920 1216 C 1920 1233.332031 1913.667969 1248.332031 1901 1261 C 1888.332031 1273.667969 1873.332031 1280 1856 1280 L 192 1280 C 174.667969 1280 159.667969 1273.667969 147 1261 C 134.332031 1248.332031 128 1233.332031 128 1216 L 128 1088 C 128 1070.667969 134.332031 1055.667969 147 1043 C 159.667969 1030.332031 174.667969 1024 192 1024 L 1856 1024 C 1873.332031 1024 1888.332031 1030.332031 1901 1043 C 1913.667969 1055.667969 1920 1070.667969 1920 1088 Z M 1920 704 L 1920 832 C 1920 849.332031 1913.667969 864.332031 1901 877 C 1888.332031 889.667969 1873.332031 896 1856 896 L 192 896 C 174.667969 896 159.667969 889.667969 147 877 C 134.332031 864.332031 128 849.332031 128 832 L 128 704 C 128 686.667969 134.332031 671.667969 147 659 C 159.667969 646.332031 174.667969 640 192 640 L 1856 640 C 1873.332031 640 1888.332031 646.332031 1901 659 C 1913.667969 671.667969 1920 686.667969 1920 704 Z M 1920 320 L 1920 448 C 1920 465.332031 1913.667969 480.332031 1901 493 C 1888.332031 505.667969 1873.332031 512 1856 512 L 192 512 C 174.667969 512 159.667969 505.667969 147 493 C 134.332031 480.332031 128 465.332031 128 448 L 128 320 C 128 302.667969 134.332031 287.667969 147 275 C 159.667969 262.332031 174.667969 256 192 256 L 1856 256 C 1873.332031 256 1888.332031 262.332031 1901 275 C 1913.667969 287.667969 1920 302.667969 1920 320 Z M 1920 320 "/>
</g>
</svg>
