<?xml version="1.0" encoding="UTF-8"?>
<svg xmlns="http://www.w3.org/2000/svg" xmlns:xlink="http://www.w3.org/1999/xlink" width="2048" height="2048" viewBox="0 0 2048 2048" version="1.1">
<g>
<path d="M 1088 384 C 1088 366.667969 1081.667969 351.667969 1069 339 C 1056.332031 326.332031 1041.332031 320 1024 320 C 1006.667969 320 991.667969 326.332031 979 339 C 966.332031 351.667969 960 366.667969 960 384 C 960 401.332031 966.332031 416.332031 979 429 C 991.667969 441.667969 1006.667969 448 1024 448 C 1041.332031 448 1056.332031 441.667969 1069 429 C 1081.667969 416.332031 1088 401.332031 1088 384 Z M 1920 1312 L 1920 1664 C 1920 1678.667969 1913.332031 1688.667969 1900 1694 C 1894.667969 1695.332031 1890.667969 1696 1888 1696 C 1879.332031 1696 1871.667969 1693 1865 1687 L 1772 1594 C 1692.667969 1689.332031 1586.5 1764.832031 1453.5 1820.5 C 1320.5 1876.167969 1177.332031 1904 1024 1904 C 870.667969 1904 727.5 1876.167969 594.5 1820.5 C 461.5 1764.832031 355.332031 1689.332031 276 1594 L 183 1687 C 177 1693 169.332031 1696 160 1696 C 157.332031 1696 153.332031 1695.332031 148 1694 C 134.667969 1688.667969 128 1678.667969 128 1664 L 128 1312 C 128 1302.667969 131 1295 137 1289 C 143 1283 150.667969 1280 160 1280 L 512 1280 C 526.667969 1280 536.667969 1286.667969 542 1300 C 547.332031 1312.667969 545 1324.332031 535 1335 L 435 1435 C 479.667969 1495.667969 542.832031 1546.832031 624.5 1588.5 C 706.167969 1630.167969 796.667969 1657.667969 896 1671 L 896 1024 L 704 1024 C 686.667969 1024 671.667969 1017.667969 659 1005 C 646.332031 992.332031 640 977.332031 640 960 L 640 832 C 640 814.667969 646.332031 799.667969 659 787 C 671.667969 774.332031 686.667969 768 704 768 L 896 768 L 896 605 C 857.332031 582.332031 826.332031 551.5 803 512.5 C 779.667969 473.5 768 430.667969 768 384 C 768 313.332031 793 253 843 203 C 893 153 953.332031 128 1024 128 C 1094.667969 128 1155 153 1205 203 C 1255 253 1280 313.332031 1280 384 C 1280 430.667969 1268.332031 473.5 1245 512.5 C 1221.667969 551.5 1190.667969 582.332031 1152 605 L 1152 768 L 1344 768 C 1361.332031 768 1376.332031 774.332031 1389 787 C 1401.667969 799.667969 1408 814.667969 1408 832 L 1408 960 C 1408 977.332031 1401.667969 992.332031 1389 1005 C 1376.332031 1017.667969 1361.332031 1024 1344 1024 L 1152 1024 L 1152 1671 C 1251.332031 1657.667969 1341.832031 1630.167969 1423.5 1588.5 C 1505.167969 1546.832031 1568.332031 1495.667969 1613 1435 L 1513 1335 C 1503 1324.332031 1500.667969 1312.667969 1506 1300 C 1511.332031 1286.667969 1521.332031 1280 1536 1280 L 1888 1280 C 1897.332031 1280 1905 1283 1911 1289 C 1917 1295 1920 1302.667969 1920 1312 Z M 1920 1312 "/>
</g>
</svg>
