<svg width="2048" height="2048" viewBox="-320 -384 2048 2048" xmlns="http://www.w3.org/2000/svg"><g transform="scale(1 -1) translate(0 -1280)"><path d="M493 1053q16 0 27.5 11.5t11.5 27.5t-11.5 27.5t-27.5 11.5t-27 -11.5t-11 -27.5t11 -27.5t27 -11.5zM915 1053q16 0 27 11.5t11 27.5t-11 27.5t-27 11.5t-27.5 -11.5t-11.5 -27.5t11.5 -27.5t27.5 -11.5zM103 869q42 0 72 -30t30 -72v-430q0 -43 -29.5 -73t-72.5 -30 t-73 30t-30 73v430q0 42 30 72t73 30zM1163 850v-666q0 -46 -32 -78t-77 -32h-75v-227q0 -43 -30 -73t-73 -30t-73 30t-30 73v227h-138v-227q0 -43 -30 -73t-73 -30q-42 0 -72 30t-30 73l-1 227h-74q-46 0 -78 32t-32 78v666h918zM931 1255q107 -55 171 -153.5t64 -215.5 h-925q0 117 64 215.5t172 153.5l-71 131q-7 13 5 20q13 6 20 -6l72 -132q95 42 201 42t201 -42l72 132q7 12 20 6q12 -7 5 -20zM1408 767v-430q0 -43 -30 -73t-73 -30q-42 0 -72 30t-30 73v430q0 43 30 72.5t72 29.5q43 0 73 -29.5t30 -72.5z" fill="black" /></g></svg>