<?xml version="1.0" encoding="UTF-8"?>
<svg xmlns="http://www.w3.org/2000/svg" xmlns:xlink="http://www.w3.org/1999/xlink" width="2048" height="2048" viewBox="0 0 2048 2048" version="1.1">
<g>
<path d="M 813 611 C 823.667969 611 832.832031 607.167969 840.5 599.5 C 848.167969 591.832031 852 582.667969 852 572 C 852 561.332031 848.167969 552.167969 840.5 544.5 C 832.832031 536.832031 823.667969 533 813 533 C 802.332031 533 793.332031 536.832031 786 544.5 C 778.667969 552.167969 775 561.332031 775 572 C 775 582.667969 778.667969 591.832031 786 599.5 C 793.332031 607.167969 802.332031 611 813 611 Z M 1235 611 C 1245.667969 611 1254.667969 607.167969 1262 599.5 C 1269.332031 591.832031 1273 582.667969 1273 572 C 1273 561.332031 1269.332031 552.167969 1262 544.5 C 1254.667969 536.832031 1245.667969 533 1235 533 C 1224.332031 533 1215.167969 536.832031 1207.5 544.5 C 1199.832031 552.167969 1196 561.332031 1196 572 C 1196 582.667969 1199.832031 591.832031 1207.5 599.5 C 1215.167969 607.167969 1224.332031 611 1235 611 Z M 423 795 C 451 795 475 805 495 825 C 515 845 525 869 525 897 L 525 1327 C 525 1355.667969 515.167969 1380 495.5 1400 C 475.832031 1420 451.667969 1430 423 1430 C 394.332031 1430 370 1420 350 1400 C 330 1380 320 1355.667969 320 1327 L 320 897 C 320 869 330 845 350 825 C 370 805 394.332031 795 423 795 Z M 1483 814 L 1483 1480 C 1483 1510.667969 1472.332031 1536.667969 1451 1558 C 1429.667969 1579.332031 1404 1590 1374 1590 L 1299 1590 L 1299 1817 C 1299 1845.667969 1289 1870 1269 1890 C 1249 1910 1224.667969 1920 1196 1920 C 1167.332031 1920 1143 1910 1123 1890 C 1103 1870 1093 1845.667969 1093 1817 L 1093 1590 L 955 1590 L 955 1817 C 955 1845.667969 945 1870 925 1890 C 905 1910 880.667969 1920 852 1920 C 824 1920 800 1910 780 1890 C 760 1870 750 1845.667969 750 1817 L 749 1590 L 675 1590 C 644.332031 1590 618.332031 1579.332031 597 1558 C 575.667969 1536.667969 565 1510.667969 565 1480 L 565 814 Z M 1251 409 C 1322.332031 445.667969 1379.332031 496.832031 1422 562.5 C 1464.667969 628.167969 1486 700 1486 778 L 561 778 C 561 700 582.332031 628.167969 625 562.5 C 667.667969 496.832031 725 445.667969 797 409 L 726 278 C 721.332031 269.332031 723 262.667969 731 258 C 739.667969 254 746.332031 256 751 264 L 823 396 C 886.332031 368 953.332031 354 1024 354 C 1094.667969 354 1161.667969 368 1225 396 L 1297 264 C 1301.667969 256 1308.332031 254 1317 258 C 1325 262.667969 1326.667969 269.332031 1322 278 Z M 1728 897 L 1728 1327 C 1728 1355.667969 1718 1380 1698 1400 C 1678 1420 1653.667969 1430 1625 1430 C 1597 1430 1573 1420 1553 1400 C 1533 1380 1523 1355.667969 1523 1327 L 1523 897 C 1523 868.332031 1533 844.167969 1553 824.5 C 1573 804.832031 1597 795 1625 795 C 1653.667969 795 1678 804.832031 1698 824.5 C 1718 844.167969 1728 868.332031 1728 897 Z M 1728 897 "/>
</g>
</svg>
