<?xml version="1.0" encoding="UTF-8"?>
<svg xmlns="http://www.w3.org/2000/svg" xmlns:xlink="http://www.w3.org/1999/xlink" width="2048" height="2048" viewBox="0 0 2048 2048" version="1.1">
<g>
<path d="M 1299 1088 C 1299 1096.667969 1295.667969 1104.332031 1289 1111 L 823 1577 C 816.332031 1583.667969 808.667969 1587 800 1587 C 791.332031 1587 783.667969 1583.667969 777 1577 L 727 1527 C 720.332031 1520.332031 717 1512.667969 717 1504 C 717 1495.332031 720.332031 1487.667969 727 1481 L 1120 1088 L 727 695 C 720.332031 688.332031 717 680.667969 717 672 C 717 663.332031 720.332031 655.667969 727 649 L 777 599 C 783.667969 592.332031 791.332031 589 800 589 C 808.667969 589 816.332031 592.332031 823 599 L 1289 1065 C 1295.667969 1071.667969 1299 1079.332031 1299 1088 Z M 1299 1088 "/>
</g>
</svg>
