<?xml version="1.0" encoding="UTF-8"?>
<svg xmlns="http://www.w3.org/2000/svg" xmlns:xlink="http://www.w3.org/1999/xlink" width="2048" height="2048" viewBox="0 0 2048 2048" version="1.1">
<g>
<path d="M 1139 1504 C 1139 1512.667969 1135.667969 1520.332031 1129 1527 L 1079 1577 C 1072.332031 1583.667969 1064.667969 1587 1056 1587 C 1047.332031 1587 1039.667969 1583.667969 1033 1577 L 567 1111 C 560.332031 1104.332031 557 1096.667969 557 1088 C 557 1079.332031 560.332031 1071.667969 567 1065 L 1033 599 C 1039.667969 592.332031 1047.332031 589 1056 589 C 1064.667969 589 1072.332031 592.332031 1079 599 L 1129 649 C 1135.667969 655.667969 1139 663.332031 1139 672 C 1139 680.667969 1135.667969 688.332031 1129 695 L 736 1088 L 1129 1481 C 1135.667969 1487.667969 1139 1495.332031 1139 1504 Z M 1523 1504 C 1523 1512.667969 1519.667969 1520.332031 1513 1527 L 1463 1577 C 1456.332031 1583.667969 1448.667969 1587 1440 1587 C 1431.332031 1587 1423.667969 1583.667969 1417 1577 L 951 1111 C 944.332031 1104.332031 941 1096.667969 941 1088 C 941 1079.332031 944.332031 1071.667969 951 1065 L 1417 599 C 1423.667969 592.332031 1431.332031 589 1440 589 C 1448.667969 589 1456.332031 592.332031 1463 599 L 1513 649 C 1519.667969 655.667969 1523 663.332031 1523 672 C 1523 680.667969 1519.667969 688.332031 1513 695 L 1120 1088 L 1513 1481 C 1519.667969 1487.667969 1523 1495.332031 1523 1504 Z M 1523 1504 "/>
</g>
</svg>
