<?xml version="1.0" encoding="UTF-8"?>
<svg xmlns="http://www.w3.org/2000/svg" xmlns:xlink="http://www.w3.org/1999/xlink" width="2048" height="2048" viewBox="0 0 2048 2048" version="1.1">
<g>
<path d="M 1216 960 C 1216 942.667969 1209.667969 927.667969 1197 915 C 1184.332031 902.332031 1169.332031 896 1152 896 L 896 896 C 878.667969 896 863.667969 902.332031 851 915 C 838.332031 927.667969 832 942.667969 832 960 C 832 977.332031 838.332031 992.332031 851 1005 C 863.667969 1017.667969 878.667969 1024 896 1024 L 1152 1024 C 1169.332031 1024 1184.332031 1017.667969 1197 1005 C 1209.667969 992.332031 1216 977.332031 1216 960 Z M 1792 768 L 1792 1728 C 1792 1745.332031 1785.667969 1760.332031 1773 1773 C 1760.332031 1785.667969 1745.332031 1792 1728 1792 L 320 1792 C 302.667969 1792 287.667969 1785.667969 275 1773 C 262.332031 1760.332031 256 1745.332031 256 1728 L 256 768 C 256 750.667969 262.332031 735.667969 275 723 C 287.667969 710.332031 302.667969 704 320 704 L 1728 704 C 1745.332031 704 1760.332031 710.332031 1773 723 C 1785.667969 735.667969 1792 750.667969 1792 768 Z M 1856 320 L 1856 576 C 1856 593.332031 1849.667969 608.332031 1837 621 C 1824.332031 633.667969 1809.332031 640 1792 640 L 256 640 C 238.667969 640 223.667969 633.667969 211 621 C 198.332031 608.332031 192 593.332031 192 576 L 192 320 C 192 302.667969 198.332031 287.667969 211 275 C 223.667969 262.332031 238.667969 256 256 256 L 1792 256 C 1809.332031 256 1824.332031 262.332031 1837 275 C 1849.667969 287.667969 1856 302.667969 1856 320 Z M 1856 320 "/>
</g>
</svg>
