<svg width="2048" height="2048" viewBox="-256 -384 2048 2048" xmlns="http://www.w3.org/2000/svg"><g transform="scale(1 -1) translate(0 -1280)"><path d="M1280 576v128q0 26 -19 45t-45 19h-502l189 189q19 19 19 45t-19 45l-91 91q-18 18 -45 18t-45 -18l-362 -362l-91 -91q-18 -18 -18 -45t18 -45l91 -91l362 -362q18 -18 45 -18t45 18l91 91q18 18 18 45t-18 45l-189 189h502q26 0 45 19t19 45zM1536 640 q0 -209 -103 -385.5t-279.5 -279.5t-385.5 -103t-385.5 103t-279.5 279.5t-103 385.5t103 385.5t279.5 279.5t385.5 103t385.5 -103t279.5 -279.5t103 -385.5z" fill="black" /></g></svg>