<?xml version="1.0" encoding="UTF-8"?>
<svg xmlns="http://www.w3.org/2000/svg" xmlns:xlink="http://www.w3.org/1999/xlink" width="2048" height="2048" viewBox="0 0 2048 2048" version="1.1">
<g>
<path d="M 1540 1025 C 1540 1007 1534 992 1522 980 L 1431 889 C 1419 877 1404 871 1386 871 C 1368 871 1353 877 1341 889 L 1152 1078 L 1152 576 C 1152 558.667969 1145.667969 543.667969 1133 531 C 1120.332031 518.332031 1105.332031 512 1088 512 L 960 512 C 942.667969 512 927.667969 518.332031 915 531 C 902.332031 543.667969 896 558.667969 896 576 L 896 1078 L 707 889 C 694.332031 876.332031 679.332031 870 662 870 C 644.667969 870 629.667969 876.332031 617 889 L 526 980 C 514 992 508 1007 508 1025 C 508 1043 514 1058 526 1070 L 979 1523 C 991 1535 1006 1541 1024 1541 C 1042 1541 1057 1535 1069 1523 L 1522 1070 C 1534 1058 1540 1043 1540 1025 Z M 1792 1024 C 1792 1163.332031 1757.667969 1291.832031 1689 1409.5 C 1620.332031 1527.167969 1527.167969 1620.332031 1409.5 1689 C 1291.832031 1757.667969 1163.332031 1792 1024 1792 C 884.667969 1792 756.167969 1757.667969 638.5 1689 C 520.832031 1620.332031 427.667969 1527.167969 359 1409.5 C 290.332031 1291.832031 256 1163.332031 256 1024 C 256 884.667969 290.332031 756.167969 359 638.5 C 427.667969 520.832031 520.832031 427.667969 638.5 359 C 756.167969 290.332031 884.667969 256 1024 256 C 1163.332031 256 1291.832031 290.332031 1409.5 359 C 1527.167969 427.667969 1620.332031 520.832031 1689 638.5 C 1757.667969 756.167969 1792 884.667969 1792 1024 Z M 1792 1024 "/>
</g>
</svg>
