<svg width="2048" height="2048" viewBox="-256 -384 2048 2048" xmlns="http://www.w3.org/2000/svg"><g transform="scale(1 -1) translate(0 -1280)"><path d="M1284 641q0 27 -18 45l-362 362l-91 91q-18 18 -45 18t-45 -18l-91 -91l-362 -362q-18 -18 -18 -45t18 -45l91 -91q18 -18 45 -18t45 18l189 189v-502q0 -26 19 -45t45 -19h128q26 0 45 19t19 45v502l189 -189q19 -19 45 -19t45 19l91 91q18 18 18 45zM1536 640 q0 -209 -103 -385.5t-279.5 -279.5t-385.5 -103t-385.5 103t-279.5 279.5t-103 385.5t103 385.5t279.5 279.5t385.5 103t385.5 -103t279.5 -279.5t103 -385.5z" fill="black" /></g></svg>