<?xml version="1.0" encoding="UTF-8"?>
<svg xmlns="http://www.w3.org/2000/svg" xmlns:xlink="http://www.w3.org/1999/xlink" width="2048" height="2048" viewBox="0 0 2048 2048" version="1.1">
<g>
<path d="M 1920 1024 C 1920 1041.332031 1913.667969 1056.332031 1901 1069 L 1645 1325 C 1632.332031 1337.667969 1617.332031 1344 1600 1344 C 1582.667969 1344 1567.667969 1337.667969 1555 1325 C 1542.332031 1312.332031 1536 1297.332031 1536 1280 L 1536 1152 L 512 1152 L 512 1280 C 512 1297.332031 505.667969 1312.332031 493 1325 C 480.332031 1337.667969 465.332031 1344 448 1344 C 430.667969 1344 415.667969 1337.667969 403 1325 L 147 1069 C 134.332031 1056.332031 128 1041.332031 128 1024 C 128 1006.667969 134.332031 991.667969 147 979 L 403 723 C 415.667969 710.332031 430.667969 704 448 704 C 465.332031 704 480.332031 710.332031 493 723 C 505.667969 735.667969 512 750.667969 512 768 L 512 896 L 1536 896 L 1536 768 C 1536 750.667969 1542.332031 735.667969 1555 723 C 1567.667969 710.332031 1582.667969 704 1600 704 C 1617.332031 704 1632.332031 710.332031 1645 723 L 1901 979 C 1913.667969 991.667969 1920 1006.667969 1920 1024 Z M 1920 1024 "/>
</g>
</svg>
