<?xml version="1.0" encoding="UTF-8"?>
<svg xmlns="http://www.w3.org/2000/svg" xmlns:xlink="http://www.w3.org/1999/xlink" width="2048" height="2048" viewBox="0 0 2048 2048" version="1.1">
<g>
<path d="M 1536 1088 L 1536 960 C 1536 942.667969 1529.667969 927.667969 1517 915 C 1504.332031 902.332031 1489.332031 896 1472 896 L 970 896 L 1159 707 C 1171.667969 694.332031 1178 679.332031 1178 662 C 1178 644.667969 1171.667969 629.667969 1159 617 L 1068 526 C 1056 514 1041 508 1023 508 C 1005 508 990 514 978 526 L 525 979 C 513 991 507 1006 507 1024 C 507 1042 513 1057 525 1069 L 978 1522 C 990 1534 1005 1540 1023 1540 C 1041 1540 1056 1534 1068 1522 L 1159 1431 C 1171 1419 1177 1404 1177 1386 C 1177 1368 1171 1353 1159 1341 L 970 1152 L 1472 1152 C 1489.332031 1152 1504.332031 1145.667969 1517 1133 C 1529.667969 1120.332031 1536 1105.332031 1536 1088 Z M 1792 1024 C 1792 1163.332031 1757.667969 1291.832031 1689 1409.5 C 1620.332031 1527.167969 1527.167969 1620.332031 1409.5 1689 C 1291.832031 1757.667969 1163.332031 1792 1024 1792 C 884.667969 1792 756.167969 1757.667969 638.5 1689 C 520.832031 1620.332031 427.667969 1527.167969 359 1409.5 C 290.332031 1291.832031 256 1163.332031 256 1024 C 256 884.667969 290.332031 756.167969 359 638.5 C 427.667969 520.832031 520.832031 427.667969 638.5 359 C 756.167969 290.332031 884.667969 256 1024 256 C 1163.332031 256 1291.832031 290.332031 1409.5 359 C 1527.167969 427.667969 1620.332031 520.832031 1689 638.5 C 1757.667969 756.167969 1792 884.667969 1792 1024 Z M 1792 1024 "/>
</g>
</svg>
