<?xml version="1.0" encoding="UTF-8"?>
<svg xmlns="http://www.w3.org/2000/svg" xmlns:xlink="http://www.w3.org/1999/xlink" width="2048" height="2048" viewBox="0 0 2048 2048" version="1.1">
<g>
<path d="M 1803 1099 C 1803 1133 1790.667969 1163 1766 1189 L 1691 1264 C 1665.667969 1289.332031 1635.332031 1302 1600 1302 C 1564 1302 1534 1289.332031 1510 1264 L 1216 971 L 1216 1675 C 1216 1709.667969 1203.5 1737.832031 1178.5 1759.5 C 1153.5 1781.167969 1123.332031 1792 1088 1792 L 960 1792 C 924.667969 1792 894.5 1781.167969 869.5 1759.5 C 844.5 1737.832031 832 1709.667969 832 1675 L 832 971 L 538 1264 C 514 1289.332031 484 1302 448 1302 C 412 1302 382 1289.332031 358 1264 L 283 1189 C 257.667969 1163.667969 245 1133.667969 245 1099 C 245 1063.667969 257.667969 1033.332031 283 1008 L 934 357 C 957.332031 332.332031 987.332031 320 1024 320 C 1060 320 1090.332031 332.332031 1115 357 L 1766 1008 C 1790.667969 1034 1803 1064.332031 1803 1099 Z M 1803 1099 "/>
</g>
</svg>
