<?xml version="1.0" encoding="utf-8"?>
<svg width="1792" height="1792" viewBox="0 0 1792 1792" xmlns="http://www.w3.org/2000/svg"><path d="M128 1728q0 26-19 45t-45 19-45-19-19-45 19-45 45-19 45 19 19 45zm192-192q0 26-19 45t-45 19-45-19-19-45 19-45 45-19 45 19 19 45zm45-365l256 256-90 90-256-256zm339-19q0 26-19 45t-45 19-45-19-19-45 19-45 45-19 45 19 19 45zm707-320q0 59-11.5 108.5t-37.5 93.5-44 67.5-53 64.5q-31 35-45.5 54t-33.5 50-26.5 64-7.5 74q0 159-112.5 271.5t-271.5 112.5q-26 0-45-19t-19-45 19-45 45-19q106 0 181-75t75-181q0-57 11.5-105.5t37-91 43.5-66.5 52-63q40-46 59.5-72t37.5-74.5 18-103.5q0-185-131.5-316.5t-316.5-131.5-316.5 131.5-131.5 316.5q0 26-19 45t-45 19-45-19-19-45q0-117 45.5-223.5t123-184 184-123 223.5-45.5 223.5 45.5 184 123 123 184 45.5 223.5zm-515 128q0 26-19 45t-45 19-45-19-19-45 19-45 45-19 45 19 19 45zm288-128q0 26-19 45t-45 19-45-19-19-45q0-93-65.5-158.5t-158.5-65.5q-92 0-158 65.5t-66 158.5q0 26-19 45t-45 19-45-19-19-45q0-146 103-249t249-103 249 103 103 249zm394-289q10 25-1 49t-36 34q-9 4-23 4-19 0-35.5-11t-23.5-30q-68-178-224-295-21-16-25-42t12-47q17-21 43-25t47 12q183 137 266 351zm210-81q9 25-1.5 49t-35.5 34q-11 4-23 4-44 0-60-41-92-238-297-393-22-16-25.5-42t12.5-47q16-22 42-25.5t47 12.5q235 175 341 449z"/></svg>