<?xml version="1.0" encoding="UTF-8"?>
<svg xmlns="http://www.w3.org/2000/svg" xmlns:xlink="http://www.w3.org/1999/xlink" width="2048" height="2048" viewBox="0 0 2048 2048" version="1.1">
<g>
<path d="M 1811 269 C 1823.667969 256.332031 1834.332031 252 1843 256 C 1851.667969 260 1856 270.667969 1856 288 L 1856 1760 C 1856 1777.332031 1851.667969 1788 1843 1792 C 1834.332031 1796 1823.667969 1791.667969 1811 1779 L 1101 1069 C 1095.667969 1063 1091.332031 1056.667969 1088 1050 L 1088 1760 C 1088 1777.332031 1083.667969 1788 1075 1792 C 1066.332031 1796 1055.667969 1791.667969 1043 1779 L 333 1069 C 320.332031 1056.332031 314 1041.332031 314 1024 C 314 1006.667969 320.332031 991.667969 333 979 L 1043 269 C 1055.667969 256.332031 1066.332031 252 1075 256 C 1083.667969 260 1088 270.667969 1088 288 L 1088 998 C 1091.332031 990.667969 1095.667969 984.332031 1101 979 Z M 1811 269 "/>
</g>
</svg>
