<svg width="2048" height="2048" viewBox="-256 -384 2048 2048" xmlns="http://www.w3.org/2000/svg"><g transform="scale(1 -1) translate(0 -1280)"><path d="M1312 643q0 161 -87 295l-754 -753q137 -89 297 -89q111 0 211.5 43.5t173.5 116.5t116 174.5t43 212.5zM313 344l755 754q-135 91 -300 91q-148 0 -273 -73t-198 -199t-73 -274q0 -162 89 -299zM1536 643q0 -157 -61 -300t-163.5 -246t-245 -164t-298.5 -61t-298.5 61 t-245 164t-163.5 246t-61 300t61 299.5t163.5 245.5t245 164t298.5 61t298.5 -61t245 -164t163.5 -245.5t61 -299.5z" fill="black" /></g></svg>