<svg width="1792" height="1792" viewBox="0 -256 1792 1792"><g transform="scale(1 -1) translate(0 -1280)"><path d="M63 0h-63v1408h63v-1408zM126 1h-32v1407h32v-1407zM220 1h-31v1407h31v-1407zM377 1h-31v1407h31v-1407zM534 1h-62v1407h62v-1407zM660 1h-31v1407h31v-1407zM723 1h-31v1407h31v-1407zM786 1h-31v1407h31v-1407zM943 1h-63v1407h63v-1407zM1100 1h-63v1407h63v-1407z M1226 1h-63v1407h63v-1407zM1352 1h-63v1407h63v-1407zM1446 1h-63v1407h63v-1407zM1635 1h-94v1407h94v-1407zM1698 1h-32v1407h32v-1407zM1792 0h-63v1408h63v-1408z" fill="black" /></g></svg>