<?xml version="1.0" encoding="UTF-8"?>
<svg xmlns="http://www.w3.org/2000/svg" xmlns:xlink="http://www.w3.org/1999/xlink" width="2048" height="2048" viewBox="0 0 2048 2048" version="1.1">
<g>
<path d="M 191 1664 L 128 1664 L 128 256 L 191 256 Z M 254 1663 L 222 1663 L 222 256 L 254 256 Z M 348 1663 L 317 1663 L 317 256 L 348 256 Z M 505 1663 L 474 1663 L 474 256 L 505 256 Z M 662 1663 L 600 1663 L 600 256 L 662 256 Z M 788 1663 L 757 1663 L 757 256 L 788 256 Z M 851 1663 L 820 1663 L 820 256 L 851 256 Z M 914 1663 L 883 1663 L 883 256 L 914 256 Z M 1071 1663 L 1008 1663 L 1008 256 L 1071 256 Z M 1228 1663 L 1165 1663 L 1165 256 L 1228 256 Z M 1354 1663 L 1291 1663 L 1291 256 L 1354 256 Z M 1480 1663 L 1417 1663 L 1417 256 L 1480 256 Z M 1574 1663 L 1511 1663 L 1511 256 L 1574 256 Z M 1763 1663 L 1669 1663 L 1669 256 L 1763 256 Z M 1826 1663 L 1794 1663 L 1794 256 L 1826 256 Z M 1920 1664 L 1857 1664 L 1857 256 L 1920 256 Z M 1920 1664 "/>
</g>
</svg>
