<?xml version="1.0" encoding="utf-8"?>
<svg width="1792" height="1792" viewBox="0 0 1792 1792" xmlns="http://www.w3.org/2000/svg"><path d="M1664 1088v192q0 169-128 286v194q0 14-9 23t-23 9h-64q-14 0-23-9t-9-23v-118q-63 22-128 22h-768q-65 0-128-22v110q0 17-9.5 28.5t-22.5 11.5h-64q-13 0-22.5-11.5t-9.5-28.5v-186q-128-117-128-286v-192h1536zm-960-416q0 14-9 23t-23 9-23-9-9-23 9-23 23-9 23 9 9 23zm64-64q0 14-9 23t-23 9-23-9-9-23 9-23 23-9 23 9 9 23zm-64-64q0 14-9 23t-23 9-23-9-9-23 9-23 23-9 23 9 9 23zm128 0q0 14-9 23t-23 9-23-9-9-23 9-23 23-9 23 9 9 23zm-64-64q0 14-9 23t-23 9-23-9-9-23 9-23 23-9 23 9 9 23zm-64-64q0 14-9 23t-23 9-23-9-9-23 9-23 23-9 23 9 9 23zm1088 512v64q0 14-9 23t-23 9h-1728q-14 0-23-9t-9-23v-64q0-14 9-23t23-9h96v-640q0-106 75-181t181-75q108 0 184 78 46-19 98-12t93 39l22-22q11-11 22 0l42 42q11 11 0 22l-314 314q-11 11-22 0l-42-42q-11-11 0-22l22-22q-36-46-40.5-104t23.5-108q-37-35-88-35-53 0-90.5 37.5t-37.5 90.5v640h1504q14 0 23 9t9 23zm-896-448q0 14-9 23t-23 9-23-9-9-23 9-23 23-9 23 9 9 23zm-64-64q0 14-9 23t-23 9-23-9-9-23 9-23 23-9 23 9 9 23zm-64-64q0 14-9 23t-23 9-23-9-9-23 9-23 23-9 23 9 9 23zm192 64q0 14-9 23t-23 9-23-9-9-23 9-23 23-9 23 9 9 23zm-64-64q0 14-9 23t-23 9-23-9-9-23 9-23 23-9 23 9 9 23zm-64-64q0 14-9 23t-23 9-23-9-9-23 9-23 23-9 23 9 9 23zm192 64q0 14-9 23t-23 9-23-9-9-23 9-23 23-9 23 9 9 23zm-64-64q0 14-9 23t-23 9-23-9-9-23 9-23 23-9 23 9 9 23zm128 0q0 14-9 23t-23 9-23-9-9-23 9-23 23-9 23 9 9 23z"/></svg>