<?xml version="1.0" encoding="UTF-8"?>
<svg xmlns="http://www.w3.org/2000/svg" xmlns:xlink="http://www.w3.org/1999/xlink" width="2048" height="2048" viewBox="0 0 2048 2048" version="1.1">
<g>
<path d="M 832 1024 L 832 640 L 576 640 L 576 896 C 576 931.332031 588.5 961.5 613.5 986.5 C 638.5 1011.5 668.667969 1024 704 1024 Z M 1856 1472 L 1856 1664 L 704 1664 L 704 1472 L 832 1280 L 704 1280 C 598 1280 507.5 1242.5 432.5 1167.5 C 357.5 1092.5 320 1002 320 896 L 320 576 L 256 512 L 288 384 L 768 384 L 800 256 L 1760 256 L 1792 448 L 1728 480 L 1728 1280 Z M 1856 1472 "/>
</g>
</svg>
