<?xml version="1.0" encoding="UTF-8"?>
<svg xmlns="http://www.w3.org/2000/svg" xmlns:xlink="http://www.w3.org/1999/xlink" width="2048" height="2048" viewBox="0 0 2048 2048" version="1.1">
<g>
<path d="M 1040 1824 C 1040 1813.332031 1034.667969 1808 1024 1808 C 984.667969 1808 950.832031 1793.832031 922.5 1765.5 C 894.167969 1737.167969 880 1703.332031 880 1664 C 880 1653.332031 874.667969 1648 864 1648 C 853.332031 1648 848 1653.332031 848 1664 C 848 1712.667969 865.167969 1754.167969 899.5 1788.5 C 933.832031 1822.832031 975.332031 1840 1024 1840 C 1034.667969 1840 1040 1834.667969 1040 1824 Z M 1856 1536 C 1856 1570.667969 1843.332031 1600.667969 1818 1626 C 1792.667969 1651.332031 1762.667969 1664 1728 1664 L 1280 1664 C 1280 1734.667969 1255 1795 1205 1845 C 1155 1895 1094.667969 1920 1024 1920 C 953.332031 1920 893 1895 843 1845 C 793 1795 768 1734.667969 768 1664 L 320 1664 C 285.332031 1664 255.332031 1651.332031 230 1626 C 204.667969 1600.667969 192 1570.667969 192 1536 C 318.667969 1428.667969 414.332031 1296.167969 479 1138.5 C 543.667969 980.832031 576 814.667969 576 640 C 576 530 608 442.667969 672 378 C 736 313.332031 824 274.332031 936 261 C 930.667969 249 928 236.667969 928 224 C 928 197.332031 937.332031 174.667969 956 156 C 974.667969 137.332031 997.332031 128 1024 128 C 1050.667969 128 1073.332031 137.332031 1092 156 C 1110.667969 174.667969 1120 197.332031 1120 224 C 1120 236.667969 1117.332031 249 1112 261 C 1224 274.332031 1312 313.332031 1376 378 C 1440 442.667969 1472 530 1472 640 C 1472 814.667969 1504.332031 980.832031 1569 1138.5 C 1633.667969 1296.167969 1729.332031 1428.667969 1856 1536 Z M 1856 1536 "/>
</g>
</svg>
