<?xml version="1.0" encoding="UTF-8"?>
<svg xmlns="http://www.w3.org/2000/svg" xmlns:xlink="http://www.w3.org/1999/xlink" width="2048" height="2048" viewBox="0 0 2048 2048" version="1.1">
<g>
<path d="M 1135 987 C 1140.332031 1029 1123.5 1062.667969 1084.5 1088 C 1045.5 1113.332031 1008.332031 1115.332031 973 1094 C 947 1082.667969 929.167969 1063.332031 919.5 1036 C 909.832031 1008.667969 909.667969 981.332031 919 954 C 928.332031 926.667969 945.667969 907.332031 971 896 C 995 884 1019.167969 880 1043.5 884 C 1067.832031 888 1089.167969 899.832031 1107.5 919.5 C 1125.832031 939.167969 1135 961.667969 1135 987 Z M 1246 966 C 1236.667969 894.667969 1199 840 1133 802 C 1067 764 1001.332031 759.667969 936 789 C 894 807.667969 860.5 837.167969 835.5 877.5 C 810.5 917.832031 799 961 801 1007 C 803.667969 1067.667969 829.5 1119.332031 878.5 1162 C 927.5 1204.667969 982.667969 1223.332031 1044 1218 C 1104.667969 1212.667969 1155.332031 1184.667969 1196 1134 C 1236.667969 1083.332031 1253.332031 1027.332031 1246 966 Z M 1485 424 C 1471.667969 406 1453 391.167969 1429 379.5 C 1405 367.832031 1385.667969 360.5 1371 357.5 C 1356.332031 354.5 1332.667969 350.332031 1300 345 C 1106 313.667969 917.332031 314.332031 734 347 C 705.332031 351.667969 683.332031 355.667969 668 359 C 652.667969 362.332031 634.332031 369.667969 613 381 C 591.667969 392.332031 575 406.667969 563 424 C 583 442.667969 608.332031 457.832031 639 469.5 C 669.667969 481.167969 694.167969 488.5 712.5 491.5 C 730.832031 494.5 760 498.332031 800 503 C 952 522.332031 1101.332031 522.667969 1248 504 C 1290 498.667969 1319.832031 494.667969 1337.5 492 C 1355.167969 489.332031 1379.332031 482.167969 1410 470.5 C 1440.667969 458.832031 1465.667969 443.332031 1485 424 Z M 1542 1459 C 1536.667969 1476.332031 1531.5 1501.832031 1526.5 1535.5 C 1521.5 1569.167969 1516.832031 1597.167969 1512.5 1619.5 C 1508.167969 1641.832031 1498.667969 1665.167969 1484 1689.5 C 1469.332031 1713.832031 1450 1732.667969 1426 1746 C 1368.667969 1778 1305.5 1801.832031 1236.5 1817.5 C 1167.5 1833.167969 1100.167969 1840.5 1034.5 1839.5 C 968.832031 1838.5 901.667969 1832.332031 833 1821 C 802.332031 1815.667969 775.167969 1809.667969 751.5 1803 C 727.832031 1796.332031 702.332031 1787.332031 675 1776 C 647.667969 1764.667969 623.332031 1750.167969 602 1732.5 C 580.667969 1714.832031 563.332031 1694.332031 550 1671 C 533.332031 1607 514.332031 1509.667969 493 1379 L 499 1363 L 517 1354 C 665.667969 1452.667969 834.5 1502 1023.5 1502 C 1212.5 1502 1381.667969 1452.667969 1531 1354 C 1545 1358 1553 1365.667969 1555 1377 C 1557 1388.332031 1555.332031 1403.332031 1550 1422 C 1544.667969 1440.667969 1542 1453 1542 1459 Z M 1723 498 C 1705.667969 609.332031 1668.667969 827.667969 1612 1153 C 1608.667969 1173 1599.667969 1191.667969 1585 1209 C 1570.332031 1226.332031 1555.832031 1239.667969 1541.5 1249 C 1527.167969 1258.332031 1509 1268.667969 1487 1280 C 1319 1364 1115.667969 1393.332031 877 1368 C 711.667969 1350 580.332031 1303.667969 483 1229 C 473 1221 464.5 1212.167969 457.5 1202.5 C 450.5 1192.832031 444.832031 1181.167969 440.5 1167.5 C 436.167969 1153.832031 433.167969 1142.5 431.5 1133.5 C 429.832031 1124.5 427.832031 1111.332031 425.5 1094 C 423.167969 1076.667969 421.332031 1065 420 1059 C 414 1025.667969 405.167969 975.667969 393.5 909 C 381.832031 842.332031 372.5 788.5 365.5 747.5 C 358.5 706.5 350.667969 657.332031 342 600 C 333.332031 542.667969 326 490 320 442 C 322 424.667969 327.832031 408.5 337.5 393.5 C 347.167969 378.5 357.667969 366 369 356 C 380.332031 346 395.332031 336 414 326 C 432.667969 316 448 308.5 460 303.5 C 472 298.5 488 292.332031 508 285 C 591.332031 254.332031 695.667969 233 821 221 C 1073.667969 196.332031 1299 213 1497 271 C 1600.332031 301.667969 1672 342.332031 1712 393 C 1722.667969 406.332031 1728.167969 423.332031 1728.5 444 C 1728.832031 464.667969 1727 482.667969 1723 498 Z M 1723 498 "/>
</g>
</svg>
