<svg width="2048" height="2048" viewBox="-256 -384 2048 2048" xmlns="http://www.w3.org/2000/svg"><g transform="scale(1 -1) translate(0 -1280)"><path d="M848 666q0 43 -41 66t-77 1q-43 -20 -42.5 -72.5t43.5 -70.5q39 -23 81 4t36 72zM928 682q8 -66 -36 -121t-110 -61t-119 40t-56 113q-2 49 25.5 93t72.5 64q70 31 141.5 -10t81.5 -118zM1100 1073q-20 -21 -53.5 -34t-53 -16t-63.5 -8q-155 -20 -324 0q-44 6 -63 9.5 t-52.5 16t-54.5 32.5q13 19 36 31t40 15.5t47 8.5q198 35 408 1q33 -5 51 -8.5t43 -16t39 -31.5zM1142 327q0 7 5.5 26.5t3 32t-17.5 16.5q-161 -106 -365 -106t-366 106l-12 -6l-5 -12q26 -154 41 -210q47 -81 204 -108q249 -46 428 53q34 19 49 51.5t22.5 85.5t12.5 71z M1272 1020q9 53 -8 75q-43 55 -155 88q-216 63 -487 36q-132 -12 -226 -46q-38 -15 -59.5 -25t-47 -34t-29.5 -54q8 -68 19 -138t29 -171t24 -137q1 -5 5 -31t7 -36t12 -27t22 -28q105 -80 284 -100q259 -28 440 63q24 13 39.5 23t31 29t19.5 40q48 267 80 473zM1536 1120 v-960q0 -119 -84.5 -203.5t-203.5 -84.5h-960q-119 0 -203.5 84.5t-84.5 203.5v960q0 119 84.5 203.5t203.5 84.5h960q119 0 203.5 -84.5t84.5 -203.5z" fill="black" /></g></svg>