<svg width="2048" height="2048" viewBox="-320 -384 2048 2048" xmlns="http://www.w3.org/2000/svg"><g transform="scale(1 -1) translate(0 -1280)"><path d="M815 677q8 -63 -50.5 -101t-111.5 -6q-39 17 -53.5 58t-0.5 82t52 58q36 18 72.5 12t64 -35.5t27.5 -67.5zM926 698q-14 107 -113 164t-197 13q-63 -28 -100.5 -88.5t-34.5 -129.5q4 -91 77.5 -155t165.5 -56q91 8 152 84t50 168zM1165 1240q-20 27 -56 44.5t-58 22 t-71 12.5q-291 47 -566 -2q-43 -7 -66 -12t-55 -22t-50 -43q30 -28 76 -45.5t73.5 -22t87.5 -11.5q228 -29 448 -1q63 8 89.5 12t72.5 21.5t75 46.5zM1222 205q-8 -26 -15.5 -76.5t-14 -84t-28.5 -70t-58 -56.5q-86 -48 -189.5 -71.5t-202 -22t-201.5 18.5q-46 8 -81.5 18 t-76.5 27t-73 43.5t-52 61.5q-25 96 -57 292l6 16l18 9q223 -148 506.5 -148t507.5 148q21 -6 24 -23t-5 -45t-8 -37zM1403 1166q-26 -167 -111 -655q-5 -30 -27 -56t-43.5 -40t-54.5 -31q-252 -126 -610 -88q-248 27 -394 139q-15 12 -25.5 26.5t-17 35t-9 34t-6 39.5 t-5.5 35q-9 50 -26.5 150t-28 161.5t-23.5 147.5t-22 158q3 26 17.5 48.5t31.5 37.5t45 30t46 22.5t48 18.5q125 46 313 64q379 37 676 -50q155 -46 215 -122q16 -20 16.5 -51t-5.5 -54z" fill="black" /></g></svg>