<?xml version="1.0" encoding="UTF-8"?>
<svg xmlns="http://www.w3.org/2000/svg" xmlns:xlink="http://www.w3.org/1999/xlink" width="2048" height="2048" viewBox="0 0 2048 2048" version="1.1">
<g>
<path d="M 875 1649 C 925.667969 1670.332031 972.332031 1681 1015 1681 C 1102.332031 1681 1174.332031 1667.332031 1231 1640 C 1287.667969 1612.667969 1328.332031 1575 1353 1527 C 1378.332031 1480.332031 1391 1420 1391 1346 C 1391 1270 1377.332031 1210 1350 1166 C 1311.332031 1103.332031 1264.332031 1061.332031 1209 1040 C 1155.667969 1018.667969 1073.332031 1008 962 1008 C 912.667969 1008 879 1011.332031 861 1018 L 861 1162 L 860 1335 L 863 1605 C 863 1615 867 1629.667969 875 1649 Z M 861 903 C 889.667969 907.667969 926 910 970 910 C 1086.667969 910 1174.667969 888.332031 1234 845 C 1293.332031 801.667969 1323 727 1323 621 C 1323 546.332031 1294.667969 484 1238 434 C 1182 384 1097 359 983 359 C 948.332031 359 905 363.332031 853 372 C 853 401.332031 853.667969 427 855 449 C 859.667969 530.332031 861.667969 623.332031 861 728 L 860 826 C 860 854.667969 860.332031 880.332031 861 903 Z M 320 1792 L 322 1698 C 352 1692 374.667969 1688 390 1686 C 441.332031 1678 482.332031 1667.667969 513 1655 C 524.332031 1637 531.332031 1620 534 1604 C 540 1560 543 1495.332031 543 1410 L 541 913 C 537.667969 742.332031 534.667969 607.667969 532 509 C 531.332031 451 527.667969 414.667969 521 400 C 520.332031 397.332031 516.332031 393.332031 509 388 C 497 380 474 375 440 373 C 420 371.667969 382 367.332031 326 360 L 322 277 L 582 271 L 962 258 L 1007 257 C 1010.332031 257 1015 256.832031 1021 256.5 C 1027 256.167969 1031.667969 256 1035 256 C 1035.667969 256 1042.832031 256.167969 1056.5 256.5 C 1070.167969 256.832031 1083.667969 257 1097 257 L 1171 257 C 1229.667969 257 1293.332031 266 1362 284 C 1390.667969 292.667969 1422.667969 305.667969 1458 323 C 1496 342.332031 1530 367.667969 1560 399 C 1589.332031 430.332031 1611 465 1625 503 C 1639 541 1646 581.667969 1646 625 C 1646 671.667969 1635.332031 714.332031 1614 753 C 1592.667969 791.667969 1561 826.667969 1519 858 C 1501.667969 871.332031 1451.667969 897 1369 935 C 1487 962.332031 1576 1011 1636 1081 C 1697.332031 1151.667969 1728 1230.332031 1728 1317 C 1728 1367.667969 1718.332031 1421.332031 1699 1478 C 1685 1519.332031 1661.332031 1558.332031 1628 1595 C 1584 1643 1537.332031 1679 1488 1703 C 1439.332031 1727 1371.667969 1747 1285 1763 C 1230.332031 1773 1164.332031 1776.667969 1087 1774 L 890 1770 C 834 1768.667969 734.667969 1772.332031 592 1781 C 570 1783 479.332031 1786.667969 320 1792 Z M 320 1792 "/>
</g>
</svg>
