<svg width="2048" height="2048" viewBox="-320 -384 2048 2048" xmlns="http://www.w3.org/2000/svg"><g transform="scale(1 -1) translate(0 -1280)"><path d="M555 15q76 -32 140 -32q131 0 216 41t122 113q38 70 38 181q0 114 -41 180q-58 94 -141 126q-80 32 -247 32q-74 0 -101 -10v-144l-1 -173l3 -270q0 -15 12 -44zM541 761q43 -7 109 -7q175 0 264 65t89 224q0 112 -85 187q-84 75 -255 75q-52 0 -130 -13q0 -44 2 -77 q7 -122 6 -279l-1 -98q0 -43 1 -77zM0 -128l2 94q45 9 68 12q77 12 123 31q17 27 21 51q9 66 9 194l-2 497q-5 256 -9 404q-1 87 -11 109q-1 4 -12 12q-18 12 -69 15q-30 2 -114 13l-4 83l260 6l380 13l45 1q5 0 14 0.5t14 0.5q1 0 21.5 -0.5t40.5 -0.5h74q88 0 191 -27 q43 -13 96 -39q57 -29 102 -76q44 -47 65 -104t21 -122q0 -70 -32 -128t-95 -105q-26 -20 -150 -77q177 -41 267 -146q92 -106 92 -236q0 -76 -29 -161q-21 -62 -71 -117q-66 -72 -140 -108q-73 -36 -203 -60q-82 -15 -198 -11l-197 4q-84 2 -298 -11q-33 -3 -272 -11z" fill="black" /></g></svg>