<?xml version="1.0" encoding="UTF-8"?>
<svg xmlns="http://www.w3.org/2000/svg" xmlns:xlink="http://www.w3.org/1999/xlink" width="2048" height="2048" viewBox="0 0 2048 2048" version="1.1">
<g>
<path d="M 1461 694 C 1473 707.332031 1475.332031 722 1468 738 L 928 1895 C 919.332031 1911.667969 905.332031 1920 886 1920 C 883.332031 1920 878.667969 1919.332031 872 1918 C 860.667969 1914.667969 852.167969 1908.332031 846.5 1899 C 840.832031 1889.667969 839.332031 1879.667969 842 1869 L 1039 1061 L 633 1162 C 630.332031 1162.667969 626.332031 1163 621 1163 C 609 1163 598.667969 1159.332031 590 1152 C 578 1142 573.667969 1129 577 1113 L 778 288 C 780.667969 278.667969 786 271 794 265 C 802 259 811.332031 256 822 256 L 1150 256 C 1162.667969 256 1173.332031 260.167969 1182 268.5 C 1190.667969 276.832031 1195 286.667969 1195 298 C 1195 303.332031 1193.332031 309.332031 1190 316 L 1019 779 L 1415 681 C 1420.332031 679.667969 1424.332031 679 1427 679 C 1439.667969 679 1451 684 1461 694 Z M 1461 694 "/>
</g>
</svg>
