<?xml version="1.0" encoding="UTF-8"?>
<svg xmlns="http://www.w3.org/2000/svg" xmlns:xlink="http://www.w3.org/1999/xlink" width="2048" height="2048" viewBox="0 0 2048 2048" version="1.1">
<g>
<path d="M 1831 606 C 1857.667969 644 1863.667969 687 1849 735 L 1574 1641 C 1561.332031 1683.667969 1535.832031 1719.5 1497.5 1748.5 C 1459.167969 1777.5 1418.332031 1792 1375 1792 L 452 1792 C 400.667969 1792 351.167969 1774.167969 303.5 1738.5 C 255.832031 1702.832031 222.667969 1659 204 1607 C 188 1562.332031 187.332031 1520 202 1480 C 202 1477.332031 203 1468.332031 205 1453 C 207 1437.667969 208.332031 1425.332031 209 1416 C 209.667969 1410.667969 208.667969 1403.5 206 1394.5 C 203.332031 1385.5 202.332031 1379 203 1375 C 204.332031 1367.667969 207 1360.667969 211 1354 C 215 1347.332031 220.5 1339.5 227.5 1330.5 C 234.5 1321.5 240 1313.667969 244 1307 C 259.332031 1281.667969 274.332031 1251.167969 289 1215.5 C 303.667969 1179.832031 313.667969 1149.332031 319 1124 C 321 1117.332031 321.167969 1107.332031 319.5 1094 C 317.832031 1080.667969 317.667969 1071.332031 319 1066 C 321 1058.667969 326.667969 1049.332031 336 1038 C 345.332031 1026.667969 351 1019 353 1015 C 367 991 381 960.332031 395 923 C 409 885.667969 417.332031 855.667969 420 833 C 420.667969 827 419.832031 816.332031 417.5 801 C 415.167969 785.667969 415.332031 776.332031 418 773 C 420.667969 764.332031 428 754.167969 440 742.5 C 452 730.832031 459.332031 723.332031 462 720 C 474.667969 702.667969 488.832031 674.5 504.5 635.5 C 520.167969 596.5 529.332031 564.332031 532 539 C 532.667969 533.667969 531.667969 525.167969 529 513.5 C 526.332031 501.832031 525.667969 493 527 487 C 528.332031 481.667969 531.332031 475.667969 536 469 C 540.667969 462.332031 546.667969 454.667969 554 446 C 561.332031 437.332031 567 430.332031 571 425 C 576.332031 417 581.832031 406.832031 587.5 394.5 C 593.167969 382.167969 598.167969 370.5 602.5 359.5 C 606.832031 348.5 612.167969 336.5 618.5 323.5 C 624.832031 310.5 631.332031 299.832031 638 291.5 C 644.667969 283.167969 653.5 275.332031 664.5 268 C 675.5 260.667969 687.5 256.832031 700.5 256.5 C 713.5 256.167969 729.332031 258 748 262 L 747 265 C 772.332031 259 789.332031 256 798 256 L 1559 256 C 1608.332031 256 1646.332031 274.667969 1673 312 C 1699.667969 349.332031 1705.667969 392.667969 1691 442 L 1417 1348 C 1393 1427.332031 1369.167969 1478.5 1345.5 1501.5 C 1321.832031 1524.5 1279 1536 1217 1536 L 348 1536 C 330 1536 317.332031 1541 310 1551 C 302.667969 1561.667969 302.332031 1576 309 1594 C 325 1640.667969 373 1664 453 1664 L 1376 1664 C 1395.332031 1664 1414 1658.832031 1432 1648.5 C 1450 1638.167969 1461.667969 1624.332031 1467 1607 L 1767 620 C 1771.667969 605.332031 1773.332031 586.332031 1772 563 C 1797.332031 573 1817 587.332031 1831 606 Z M 767 608 C 764.332031 616.667969 765 624.167969 769 630.5 C 773 636.832031 779.667969 640 789 640 L 1397 640 C 1405.667969 640 1414.167969 636.832031 1422.5 630.5 C 1430.832031 624.167969 1436.332031 616.667969 1439 608 L 1460 544 C 1462.667969 535.332031 1462 527.832031 1458 521.5 C 1454 515.167969 1447.332031 512 1438 512 L 830 512 C 821.332031 512 812.832031 515.167969 804.5 521.5 C 796.167969 527.832031 790.667969 535.332031 788 544 Z M 684 864 C 681.332031 872.667969 682 880.167969 686 886.5 C 690 892.832031 696.667969 896 706 896 L 1314 896 C 1322.667969 896 1331.167969 892.832031 1339.5 886.5 C 1347.832031 880.167969 1353.332031 872.667969 1356 864 L 1377 800 C 1379.667969 791.332031 1379 783.832031 1375 777.5 C 1371 771.167969 1364.332031 768 1355 768 L 747 768 C 738.332031 768 729.832031 771.167969 721.5 777.5 C 713.167969 783.832031 707.667969 791.332031 705 800 Z M 684 864 "/>
</g>
</svg>
