<?xml version="1.0" encoding="utf-8"?>
<svg width="2304" height="1792" viewBox="0 0 2304 1792" xmlns="http://www.w3.org/2000/svg"><path d="M256 1184q-66 0-113 47t-47 113 47 113 113 47 113-47 47-113-47-113-113-47zm512 0q-66 0-113 47t-47 113 47 113 113 47 113-47 47-113-47-113-113-47zm0-512q-66 0-113 47t-47 113 47 113 113 47 113-47 47-113-47-113-113-47zm768 512q-66 0-113 47t-47 113 47 113 113 47 113-47 47-113-47-113-113-47zm512 0q-66 0-113 47t-47 113 47 113 113 47 113-47 47-113-47-113-113-47zm-512-512q-66 0-113 47t-47 113 47 113 113 47 113-47 47-113-47-113-113-47zm512 0q-66 0-113 47t-47 113 47 113 113 47 113-47 47-113-47-113-113-47zm0-512q-66 0-113 47t-47 113 47 113 113 47 113-47 47-113-47-113-113-47zm-1600 1184q0 80-56 136t-136 56-136-56-56-136 56-136 136-56 136 56 56 136zm512 0q0 80-56 136t-136 56-136-56-56-136 56-136 136-56 136 56 56 136zm-512-512q0 80-56 136t-136 56-136-56-56-136 56-136 136-56 136 56 56 136zm512 0q0 80-56 136t-136 56-136-56-56-136 56-136 136-56 136 56 56 136zm-512-512q0 80-56 136t-136 56-136-56-56-136 56-136 136-56 136 56 56 136zm1280 1024q0 80-56 136t-136 56-136-56-56-136 56-136 136-56 136 56 56 136zm-768-1024q0 80-56 136t-136 56-136-56-56-136 56-136 136-56 136 56 56 136zm1280 1024q0 80-56 136t-136 56-136-56-56-136 56-136 136-56 136 56 56 136zm-512-512q0 80-56 136t-136 56-136-56-56-136 56-136 136-56 136 56 56 136zm512 0q0 80-56 136t-136 56-136-56-56-136 56-136 136-56 136 56 56 136zm-512-512q0 80-56 136t-136 56-136-56-56-136 56-136 136-56 136 56 56 136zm512 0q0 80-56 136t-136 56-136-56-56-136 56-136 136-56 136 56 56 136z"/></svg>