<svg width="2048" height="2048" viewBox="-384 -384 2048 2048" xmlns="http://www.w3.org/2000/svg"><g transform="scale(1 -1) translate(0 -1280)"><path d="M1167 896q18 -182 -131 -258q117 -28 175 -103t45 -214q-7 -71 -32.5 -125t-64.5 -89t-97 -58.5t-121.5 -34.5t-145.5 -15v-255h-154v251q-80 0 -122 1v-252h-154v255q-18 0 -54 0.5t-55 0.5h-200l31 183h111q50 0 58 51v402h16q-6 1 -16 1v287q-13 68 -89 68h-111v164 l212 -1q64 0 97 1v252h154v-247q82 2 122 2v245h154v-252q79 -7 140 -22.5t113 -45t82.5 -78t36.5 -114.5zM952 351q0 36 -15 64t-37 46t-57.5 30.5t-65.5 18.5t-74 9t-69 3t-64.5 -1t-47.5 -1v-338q8 0 37 -0.5t48 -0.5t53 1.5t58.5 4t57 8.5t55.5 14t47.5 21t39.5 30 t24.5 40t9.5 51zM881 827q0 33 -12.5 58.5t-30.5 42t-48 28t-55 16.5t-61.5 8t-58 2.5t-54 -1t-39.5 -0.5v-307q5 0 34.5 -0.5t46.5 0t50 2t55 5.5t51.5 11t48.5 18.5t37 27t27 38.5t9 51z" fill="black" /></g></svg>