<svg width="2048" height="2048" viewBox="-192 -384 2048 2048" xmlns="http://www.w3.org/2000/svg"><g transform="scale(1 -1) translate(0 -1280)"><path d="M1632 576q0 -26 -19 -45t-45 -19h-224q0 -171 -67 -290l208 -209q19 -19 19 -45t-19 -45q-18 -19 -45 -19t-45 19l-198 197q-5 -5 -15 -13t-42 -28.5t-65 -36.5t-82 -29t-97 -13v896h-128v-896q-51 0 -101.5 13.5t-87 33t-66 39t-43.5 32.5l-15 14l-183 -207 q-20 -21 -48 -21q-24 0 -43 16q-19 18 -20.5 44.5t15.5 46.5l202 227q-58 114 -58 274h-224q-26 0 -45 19t-19 45t19 45t45 19h224v294l-173 173q-19 19 -19 45t19 45t45 19t45 -19l173 -173h844l173 173q19 19 45 19t45 -19t19 -45t-19 -45l-173 -173v-294h224q26 0 45 -19 t19 -45zM1152 1152h-640q0 133 93.5 226.5t226.5 93.5t226.5 -93.5t93.5 -226.5z" fill="black" /></g></svg>