<?xml version="1.0" encoding="UTF-8"?>
<svg xmlns="http://www.w3.org/2000/svg" xmlns:xlink="http://www.w3.org/1999/xlink" width="2048" height="2048" viewBox="0 0 2048 2048" version="1.1">
<g>
<path d="M 1280 1024 C 1280 1094.667969 1255 1155 1205 1205 C 1155 1255 1094.667969 1280 1024 1280 C 953.332031 1280 893 1255 843 1205 C 793 1155 768 1094.667969 768 1024 C 768 953.332031 793 893 843 843 C 893 793 953.332031 768 1024 768 C 1094.667969 768 1155 793 1205 843 C 1255 893 1280 953.332031 1280 1024 Z M 1408 1024 C 1408 918 1370.5 827.5 1295.5 752.5 C 1220.5 677.5 1130 640 1024 640 C 918 640 827.5 677.5 752.5 752.5 C 677.5 827.5 640 918 640 1024 C 640 1130 677.5 1220.5 752.5 1295.5 C 827.5 1370.5 918 1408 1024 1408 C 1130 1408 1220.5 1370.5 1295.5 1295.5 C 1370.5 1220.5 1408 1130 1408 1024 Z M 1536 1024 C 1536 1165.332031 1486 1286 1386 1386 C 1286 1486 1165.332031 1536 1024 1536 C 882.667969 1536 762 1486 662 1386 C 562 1286 512 1165.332031 512 1024 C 512 882.667969 562 762 662 662 C 762 562 882.667969 512 1024 512 C 1165.332031 512 1286 562 1386 662 C 1486 762 1536 882.667969 1536 1024 Z M 1664 1024 C 1664 937.332031 1647 854.5 1613 775.5 C 1579 696.5 1533.5 628.5 1476.5 571.5 C 1419.5 514.5 1351.5 469 1272.5 435 C 1193.5 401 1110.667969 384 1024 384 C 937.332031 384 854.5 401 775.5 435 C 696.5 469 628.5 514.5 571.5 571.5 C 514.5 628.5 469 696.5 435 775.5 C 401 854.5 384 937.332031 384 1024 C 384 1110.667969 401 1193.5 435 1272.5 C 469 1351.5 514.5 1419.5 571.5 1476.5 C 628.5 1533.5 696.5 1579 775.5 1613 C 854.5 1647 937.332031 1664 1024 1664 C 1110.667969 1664 1193.5 1647 1272.5 1613 C 1351.5 1579 1419.5 1533.5 1476.5 1476.5 C 1533.5 1419.5 1579 1351.5 1613 1272.5 C 1647 1193.5 1664 1110.667969 1664 1024 Z M 1792 1024 C 1792 1163.332031 1757.667969 1291.832031 1689 1409.5 C 1620.332031 1527.167969 1527.167969 1620.332031 1409.5 1689 C 1291.832031 1757.667969 1163.332031 1792 1024 1792 C 884.667969 1792 756.167969 1757.667969 638.5 1689 C 520.832031 1620.332031 427.667969 1527.167969 359 1409.5 C 290.332031 1291.832031 256 1163.332031 256 1024 C 256 884.667969 290.332031 756.167969 359 638.5 C 427.667969 520.832031 520.832031 427.667969 638.5 359 C 756.167969 290.332031 884.667969 256 1024 256 C 1163.332031 256 1291.832031 290.332031 1409.5 359 C 1527.167969 427.667969 1620.332031 520.832031 1689 638.5 C 1757.667969 756.167969 1792 884.667969 1792 1024 Z M 1792 1024 "/>
</g>
</svg>
