<svg width="2048" height="2048" viewBox="-128 -384 2048 2048" xmlns="http://www.w3.org/2000/svg"><g transform="scale(1 -1) translate(0 -1280)"><path d="M1664 896q53 0 90.5 -37.5t37.5 -90.5t-37.5 -90.5t-90.5 -37.5v-384q0 -52 -38 -90t-90 -38q-417 347 -812 380q-58 -19 -91 -66t-31 -100.5t40 -92.5q-20 -33 -23 -65.5t6 -58t33.5 -55t48 -50t61.5 -50.5q-29 -58 -111.5 -83t-168.5 -11.5t-132 55.5q-7 23 -29.5 87.5 t-32 94.5t-23 89t-15 101t3.5 98.5t22 110.5h-122q-66 0 -113 47t-47 113v192q0 66 47 113t113 47h480q435 0 896 384q52 0 90 -38t38 -90v-384zM1536 292v954q-394 -302 -768 -343v-270q377 -42 768 -341z" fill="black" /></g></svg>