<svg width="2048" height="2048" viewBox="-192 -384 2048 2048" xmlns="http://www.w3.org/2000/svg"><g transform="scale(1 -1) translate(0 -1280)"><path d="M128 -128h1408v1024h-1408v-1024zM512 1088v288q0 14 -9 23t-23 9h-64q-14 0 -23 -9t-9 -23v-288q0 -14 9 -23t23 -9h64q14 0 23 9t9 23zM1280 1088v288q0 14 -9 23t-23 9h-64q-14 0 -23 -9t-9 -23v-288q0 -14 9 -23t23 -9h64q14 0 23 9t9 23zM1664 1152v-1280 q0 -52 -38 -90t-90 -38h-1408q-52 0 -90 38t-38 90v1280q0 52 38 90t90 38h128v96q0 66 47 113t113 47h64q66 0 113 -47t47 -113v-96h384v96q0 66 47 113t113 47h64q66 0 113 -47t47 -113v-96h128q52 0 90 -38t38 -90z" fill="black" /></g></svg>