<?xml version="1.0" encoding="UTF-8"?>
<svg xmlns="http://www.w3.org/2000/svg" xmlns:xlink="http://www.w3.org/1999/xlink" width="2048" height="2048" viewBox="0 0 2048 2048" version="1.1">
<g>
<path d="M 320 1792 L 608 1792 L 608 1504 L 320 1504 Z M 672 1792 L 992 1792 L 992 1504 L 672 1504 Z M 320 1440 L 608 1440 L 608 1120 L 320 1120 Z M 672 1440 L 992 1440 L 992 1120 L 672 1120 Z M 320 1056 L 608 1056 L 608 768 L 320 768 Z M 1056 1792 L 1376 1792 L 1376 1504 L 1056 1504 Z M 672 1056 L 992 1056 L 992 768 L 672 768 Z M 1440 1792 L 1728 1792 L 1728 1504 L 1440 1504 Z M 1056 1440 L 1376 1440 L 1376 1120 L 1056 1120 Z M 704 576 L 704 288 C 704 279.332031 700.832031 271.832031 694.5 265.5 C 688.167969 259.167969 680.667969 256 672 256 L 608 256 C 599.332031 256 591.832031 259.167969 585.5 265.5 C 579.167969 271.832031 576 279.332031 576 288 L 576 576 C 576 584.667969 579.167969 592.167969 585.5 598.5 C 591.832031 604.832031 599.332031 608 608 608 L 672 608 C 680.667969 608 688.167969 604.832031 694.5 598.5 C 700.832031 592.167969 704 584.667969 704 576 Z M 1440 1440 L 1728 1440 L 1728 1120 L 1440 1120 Z M 1056 1056 L 1376 1056 L 1376 768 L 1056 768 Z M 1440 1056 L 1728 1056 L 1728 768 L 1440 768 Z M 1472 576 L 1472 288 C 1472 279.332031 1468.832031 271.832031 1462.5 265.5 C 1456.167969 259.167969 1448.667969 256 1440 256 L 1376 256 C 1367.332031 256 1359.832031 259.167969 1353.5 265.5 C 1347.167969 271.832031 1344 279.332031 1344 288 L 1344 576 C 1344 584.667969 1347.167969 592.167969 1353.5 598.5 C 1359.832031 604.832031 1367.332031 608 1376 608 L 1440 608 C 1448.667969 608 1456.167969 604.832031 1462.5 598.5 C 1468.832031 592.167969 1472 584.667969 1472 576 Z M 1856 512 L 1856 1792 C 1856 1826.667969 1843.332031 1856.667969 1818 1882 C 1792.667969 1907.332031 1762.667969 1920 1728 1920 L 320 1920 C 285.332031 1920 255.332031 1907.332031 230 1882 C 204.667969 1856.667969 192 1826.667969 192 1792 L 192 512 C 192 477.332031 204.667969 447.332031 230 422 C 255.332031 396.667969 285.332031 384 320 384 L 448 384 L 448 288 C 448 244 463.667969 206.332031 495 175 C 526.332031 143.667969 564 128 608 128 L 672 128 C 716 128 753.667969 143.667969 785 175 C 816.332031 206.332031 832 244 832 288 L 832 384 L 1216 384 L 1216 288 C 1216 244 1231.667969 206.332031 1263 175 C 1294.332031 143.667969 1332 128 1376 128 L 1440 128 C 1484 128 1521.667969 143.667969 1553 175 C 1584.332031 206.332031 1600 244 1600 288 L 1600 384 L 1728 384 C 1762.667969 384 1792.667969 396.667969 1818 422 C 1843.332031 447.332031 1856 477.332031 1856 512 Z M 1856 512 "/>
</g>
</svg>
