<?xml version="1.0" encoding="UTF-8"?>
<svg xmlns="http://www.w3.org/2000/svg" xmlns:xlink="http://www.w3.org/1999/xlink" width="2048" height="2048" viewBox="0 0 2048 2048" version="1.1">
<g>
<path d="M 320 1792 L 1728 1792 L 1728 768 L 320 768 Z M 704 576 L 704 288 C 704 278.667969 701 271 695 265 C 689 259 681.332031 256 672 256 L 608 256 C 598.667969 256 591 259 585 265 C 579 271 576 278.667969 576 288 L 576 576 C 576 585.332031 579 593 585 599 C 591 605 598.667969 608 608 608 L 672 608 C 681.332031 608 689 605 695 599 C 701 593 704 585.332031 704 576 Z M 1472 576 L 1472 288 C 1472 278.667969 1469 271 1463 265 C 1457 259 1449.332031 256 1440 256 L 1376 256 C 1366.667969 256 1359 259 1353 265 C 1347 271 1344 278.667969 1344 288 L 1344 576 C 1344 585.332031 1347 593 1353 599 C 1359 605 1366.667969 608 1376 608 L 1440 608 C 1449.332031 608 1457 605 1463 599 C 1469 593 1472 585.332031 1472 576 Z M 1856 512 L 1856 1792 C 1856 1826.667969 1843.332031 1856.667969 1818 1882 C 1792.667969 1907.332031 1762.667969 1920 1728 1920 L 320 1920 C 285.332031 1920 255.332031 1907.332031 230 1882 C 204.667969 1856.667969 192 1826.667969 192 1792 L 192 512 C 192 477.332031 204.667969 447.332031 230 422 C 255.332031 396.667969 285.332031 384 320 384 L 448 384 L 448 288 C 448 244 463.667969 206.332031 495 175 C 526.332031 143.667969 564 128 608 128 L 672 128 C 716 128 753.667969 143.667969 785 175 C 816.332031 206.332031 832 244 832 288 L 832 384 L 1216 384 L 1216 288 C 1216 244 1231.667969 206.332031 1263 175 C 1294.332031 143.667969 1332 128 1376 128 L 1440 128 C 1484 128 1521.667969 143.667969 1553 175 C 1584.332031 206.332031 1600 244 1600 288 L 1600 384 L 1728 384 C 1762.667969 384 1792.667969 396.667969 1818 422 C 1843.332031 447.332031 1856 477.332031 1856 512 Z M 1856 512 "/>
</g>
</svg>
