<?xml version="1.0" encoding="UTF-8"?>
<svg xmlns="http://www.w3.org/2000/svg" xmlns:xlink="http://www.w3.org/1999/xlink" width="2048" height="2048" viewBox="0 0 2048 2048" version="1.1">
<g>
<path d="M 1024 800 C 1103.332031 800 1171.167969 828.167969 1227.5 884.5 C 1283.832031 940.832031 1312 1008.667969 1312 1088 C 1312 1167.332031 1283.832031 1235.167969 1227.5 1291.5 C 1171.167969 1347.832031 1103.332031 1376 1024 1376 C 944.667969 1376 876.832031 1347.832031 820.5 1291.5 C 764.167969 1235.167969 736 1167.332031 736 1088 C 736 1008.667969 764.167969 940.832031 820.5 884.5 C 876.832031 828.167969 944.667969 800 1024 800 Z M 1728 384 C 1798.667969 384 1859 409 1909 459 C 1959 509 1984 569.332031 1984 640 L 1984 1536 C 1984 1606.667969 1959 1667 1909 1717 C 1859 1767 1798.667969 1792 1728 1792 L 320 1792 C 249.332031 1792 189 1767 139 1717 C 89 1667 64 1606.667969 64 1536 L 64 640 C 64 569.332031 89 509 139 459 C 189 409 249.332031 384 320 384 L 544 384 L 595 248 C 607.667969 215.332031 630.832031 187.167969 664.5 163.5 C 698.167969 139.832031 732.667969 128 768 128 L 1280 128 C 1315.332031 128 1349.832031 139.832031 1383.5 163.5 C 1417.167969 187.167969 1440.332031 215.332031 1453 248 L 1504 384 Z M 1024 1536 C 1147.332031 1536 1252.832031 1492.167969 1340.5 1404.5 C 1428.167969 1316.832031 1472 1211.332031 1472 1088 C 1472 964.667969 1428.167969 859.167969 1340.5 771.5 C 1252.832031 683.832031 1147.332031 640 1024 640 C 900.667969 640 795.167969 683.832031 707.5 771.5 C 619.832031 859.167969 576 964.667969 576 1088 C 576 1211.332031 619.832031 1316.832031 707.5 1404.5 C 795.167969 1492.167969 900.667969 1536 1024 1536 Z M 1024 1536 "/>
</g>
</svg>
