<svg width="2048" height="2048" viewBox="-64 -384 2048 2048" xmlns="http://www.w3.org/2000/svg"><g transform="scale(1 -1) translate(0 -1280)"><path d="M960 864q119 0 203.5 -84.5t84.5 -203.5t-84.5 -203.5t-203.5 -84.5t-203.5 84.5t-84.5 203.5t84.5 203.5t203.5 84.5zM1664 1280q106 0 181 -75t75 -181v-896q0 -106 -75 -181t-181 -75h-1408q-106 0 -181 75t-75 181v896q0 106 75 181t181 75h224l51 136 q19 49 69.5 84.5t103.5 35.5h512q53 0 103.5 -35.5t69.5 -84.5l51 -136h224zM960 128q185 0 316.5 131.5t131.5 316.5t-131.5 316.5t-316.5 131.5t-316.5 -131.5t-131.5 -316.5t131.5 -316.5t316.5 -131.5z" fill="black" /></g></svg>