<?xml version="1.0" encoding="UTF-8"?>
<svg xmlns="http://www.w3.org/2000/svg" xmlns:xlink="http://www.w3.org/1999/xlink" width="2048" height="2048" viewBox="0 0 2048 2048" version="1.1">
<g>
<path d="M 1344 576 L 1344 1472 C 1344 1489.332031 1337.667969 1504.332031 1325 1517 C 1312.332031 1529.667969 1297.332031 1536 1280 1536 C 1262.667969 1536 1247.667969 1529.667969 1235 1517 L 787 1069 C 774.332031 1056.332031 768 1041.332031 768 1024 C 768 1006.667969 774.332031 991.667969 787 979 L 1235 531 C 1247.667969 518.332031 1262.667969 512 1280 512 C 1297.332031 512 1312.332031 518.332031 1325 531 C 1337.667969 543.667969 1344 558.667969 1344 576 Z M 1344 576 "/>
</g>
</svg>
