<svg width="1792" height="1792" viewBox="-128 -256 1792 1792"><g transform="scale(1 -1) translate(0 -1280)"><path d="M1088 640q0 -33 -27 -52l-448 -320q-31 -23 -66 -5q-35 17 -35 57v640q0 40 35 57q35 18 66 -5l448 -320q27 -19 27 -52zM1280 160v960q0 14 -9 23t-23 9h-960q-14 0 -23 -9t-9 -23v-960q0 -14 9 -23t23 -9h960q14 0 23 9t9 23zM1536 1120v-960q0 -119 -84.5 -203.5 t-203.5 -84.5h-960q-119 0 -203.5 84.5t-84.5 203.5v960q0 119 84.5 203.5t203.5 84.5h960q119 0 203.5 -84.5t84.5 -203.5z" fill="black" /></g></svg>