<?xml version="1.0" encoding="UTF-8"?>
<svg xmlns="http://www.w3.org/2000/svg" xmlns:xlink="http://www.w3.org/1999/xlink" width="2048" height="2048" viewBox="0 0 2048 2048" version="1.1">
<g>
<path d="M 1536 1344 C 1536 1361.332031 1529.667969 1376.332031 1517 1389 C 1504.332031 1401.667969 1489.332031 1408 1472 1408 L 576 1408 C 558.667969 1408 543.667969 1401.667969 531 1389 C 518.332031 1376.332031 512 1361.332031 512 1344 C 512 1326.667969 518.332031 1311.667969 531 1299 L 979 851 C 991.667969 838.332031 1006.667969 832 1024 832 C 1041.332031 832 1056.332031 838.332031 1069 851 L 1517 1299 C 1529.667969 1311.667969 1536 1326.667969 1536 1344 Z M 1536 1344 "/>
</g>
</svg>
