<?xml version="1.0" encoding="UTF-8"?>
<svg xmlns="http://www.w3.org/2000/svg" xmlns:xlink="http://www.w3.org/1999/xlink" width="2048" height="2048" viewBox="0 0 2048 2048" version="1.1">
<g>
<path d="M 1401 1245 C 1389.667969 1268.332031 1370.667969 1280 1344 1280 L 704 1280 C 677.332031 1280 658.332031 1268.332031 647 1245 C 635 1221.667969 636.667969 1199.667969 652 1179 L 972 731 C 984.667969 713 1002 704 1024 704 C 1046 704 1063.332031 713 1076 731 L 1396 1179 C 1411.332031 1199.667969 1413 1221.667969 1401 1245 Z M 1536 1504 L 1536 544 C 1536 535.332031 1532.832031 527.832031 1526.5 521.5 C 1520.167969 515.167969 1512.667969 512 1504 512 L 544 512 C 535.332031 512 527.832031 515.167969 521.5 521.5 C 515.167969 527.832031 512 535.332031 512 544 L 512 1504 C 512 1512.667969 515.167969 1520.167969 521.5 1526.5 C 527.832031 1532.832031 535.332031 1536 544 1536 L 1504 1536 C 1512.667969 1536 1520.167969 1532.832031 1526.5 1526.5 C 1532.832031 1520.167969 1536 1512.667969 1536 1504 Z M 1792 544 L 1792 1504 C 1792 1583.332031 1763.832031 1651.167969 1707.5 1707.5 C 1651.167969 1763.832031 1583.332031 1792 1504 1792 L 544 1792 C 464.667969 1792 396.832031 1763.832031 340.5 1707.5 C 284.167969 1651.167969 256 1583.332031 256 1504 L 256 544 C 256 464.667969 284.167969 396.832031 340.5 340.5 C 396.832031 284.167969 464.667969 256 544 256 L 1504 256 C 1583.332031 256 1651.167969 284.167969 1707.5 340.5 C 1763.832031 396.832031 1792 464.667969 1792 544 Z M 1792 544 "/>
</g>
</svg>
