<svg width="2048" height="2048" viewBox="-256 -384 2048 2048" xmlns="http://www.w3.org/2000/svg"><g transform="scale(1 -1) translate(0 -1280)"><path d="M1145 419q-17 -35 -57 -35h-640q-40 0 -57 35q-18 35 5 66l320 448q19 27 52 27t52 -27l320 -448q23 -31 5 -66zM1280 160v960q0 13 -9.5 22.5t-22.5 9.5h-960q-13 0 -22.5 -9.5t-9.5 -22.5v-960q0 -13 9.5 -22.5t22.5 -9.5h960q13 0 22.5 9.5t9.5 22.5zM1536 1120v-960 q0 -119 -84.5 -203.5t-203.5 -84.5h-960q-119 0 -203.5 84.5t-84.5 203.5v960q0 119 84.5 203.5t203.5 84.5h960q119 0 203.5 -84.5t84.5 -203.5z" fill="black" /></g></svg>