<?xml version="1.0" encoding="UTF-8"?>
<svg xmlns="http://www.w3.org/2000/svg" xmlns:xlink="http://www.w3.org/1999/xlink" width="2048" height="2048" viewBox="0 0 2048 2048" version="1.1">
<g>
<path d="M 1344 1024 C 1344 1046 1335 1063.332031 1317 1076 L 869 1396 C 848.332031 1411.332031 826.332031 1413 803 1401 C 779.667969 1389.667969 768 1370.667969 768 1344 L 768 704 C 768 677.332031 779.667969 658.332031 803 647 C 826.332031 635 848.332031 636.667969 869 652 L 1317 972 C 1335 984.667969 1344 1002 1344 1024 Z M 1536 1504 L 1536 544 C 1536 534.667969 1533 527 1527 521 C 1521 515 1513.332031 512 1504 512 L 544 512 C 534.667969 512 527 515 521 521 C 515 527 512 534.667969 512 544 L 512 1504 C 512 1513.332031 515 1521 521 1527 C 527 1533 534.667969 1536 544 1536 L 1504 1536 C 1513.332031 1536 1521 1533 1527 1527 C 1533 1521 1536 1513.332031 1536 1504 Z M 1792 544 L 1792 1504 C 1792 1583.332031 1763.832031 1651.167969 1707.5 1707.5 C 1651.167969 1763.832031 1583.332031 1792 1504 1792 L 544 1792 C 464.667969 1792 396.832031 1763.832031 340.5 1707.5 C 284.167969 1651.167969 256 1583.332031 256 1504 L 256 544 C 256 464.667969 284.167969 396.832031 340.5 340.5 C 396.832031 284.167969 464.667969 256 544 256 L 1504 256 C 1583.332031 256 1651.167969 284.167969 1707.5 340.5 C 1763.832031 396.832031 1792 464.667969 1792 544 Z M 1792 544 "/>
</g>
</svg>
