<?xml version="1.0" encoding="utf-8"?>
<svg width="2304" height="1792" viewBox="0 0 2304 1792" xmlns="http://www.w3.org/2000/svg"><path d="M1119 341q-128-85-281-85-103 0-197.5 40.5t-162.5 108.5-108.5 162-40.5 197q0 104 40.5 198t108.5 162 162 108.5 198 40.5q153 0 281-85-131-107-178-265.5t.5-316.5 177.5-265zm33 24q-126 99-172 249.5t-.5 300.5 172.5 249q127-99 172.5-249t-.5-300.5-172-249.5zm33-24q130 107 177.5 265.5t.5 317-178 264.5q128 85 281 85 104 0 198-40.5t162-108.5 108.5-162 40.5-198q0-103-40.5-197t-108.5-162-162.5-108.5-197.5-40.5q-153 0-281 85zm741 722h7v-3h-17v3h7v17h3v-17zm29 17h4v-20h-5l-6 13-6-13h-5v20h3v-15l6 13h4l5-13v15zm-8 440v2h-5v-3h5v1zm0 9h3l-4-5h2l1-1q1-1 1-3t-1-3l-1-1h-9v13h3v-5h1zm-1262-68q0-19 11-31t30-12q18 0 29 12.5t11 30.5q0 19-11 31t-29 12q-19 0-30-12t-11-31zm473-44q30 0 35 32h-70q5-32 35-32zm356 44q0-19 11-31t29-12 29.5 12.5 11.5 30.5q0 19-11 31t-30 12q-18 0-29-12t-11-31zm272 0q0-18 11.5-30.5t29.5-12.5 29.5 12.5 11.5 30.5q0 19-11.5 31t-29.5 12-29.5-12.5-11.5-30.5zm158 72q-2 0-4-1-1 0-3-2t-2-3q-1-2-1-4 0-3 1-4 0-2 2-4l1-1q2 0 2-1 2-1 4-1 3 0 4 1l4 2 2 4v1q1 2 1 3l-1 1v3l-1 1-1 2q-2 2-4 2-1 1-4 1zm-1345-4h30v-85q0-24-14.5-38.5t-39.5-15.5q-32 0-47 24-14-24-45-24-24 0-39 20v-16h-30v135h30v-75q0-36 33-36 30 0 30 36v75h29v-75q0-36 33-36 30 0 30 36v75zm166 0h29v-135h-29v16q-17-20-43-20-29 0-48 20t-19 51 19 51 48 20q28 0 43-20v17zm178-41q0-34-47-40l-14-2q-23-4-23-14 0-15 25-15 23 0 43 11l12-24q-22-14-55-14-26 0-41 12t-15 32q0 33 47 39l13 2q24 4 24 14 0 17-31 17-25 0-45-14l-13 23q25 17 58 17 29 0 45.5-12t16.5-32zm130 34l-8-25q-13 7-26 7-19 0-19-22v-61h48v-27h-48v-41h-30v41h-28v27h28v61q0 50 47 50 21 0 36-10zm86-132q-29 0-48 20t-19 51q0 32 19.5 51.5t49.5 19.5q33 0 55-19l-14-22q-18 15-39 15-34 0-41-33h101v-12q0-32-18-51.5t-46-19.5zm159 0q-23 0-35 20v-16h-30v135h30v-76q0-35 29-35 10 0 18 4l9-28q-9-4-21-4zm30 71q0 31 19.5 51t52.5 20q29 0 48-16l-14-24q-18 13-35 12-18 0-29.5-12t-11.5-31 11.5-31 29.5-12q19 0 35 12l14-24q-20-16-48-16-33 0-52.5 20t-19.5 51zm245 68h30v-135h-30v16q-15-20-42-20-29 0-48.5 20t-19.5 51 19.5 51 48.5 20q28 0 42-20v17zm133-139q-23 0-35 20v-16h-29v135h29v-76q0-35 29-35 10 0 18 4l9-28q-8-4-21-4zm140 139h29v-190h-29v71q-15-20-43-20t-47.5 20.5-19.5 50.5 19.5 50.5 47.5 20.5q29 0 43-20v17zm78-20l-2 1h-3q-2 1-4 3-3 1-3 4-1 2-1 6 0 3 1 5 0 2 3 4 2 2 4 3t5 1q4 0 6-1 0-1 2-2l2-1q1-1 3-4 1-2 1-5 0-4-1-6-1-1-3-4 0-1-2-2l-2-1q-1 0-3-.5t-3-.5zm360-1253v1280q0 52-38 90t-90 38h-2048q-52 0-90-38t-38-90v-1280q0-52 38-90t90-38h2048q52 0 90 38t38 90z"/></svg>