<?xml version="1.0" encoding="UTF-8"?>
<svg xmlns="http://www.w3.org/2000/svg" xmlns:xlink="http://www.w3.org/1999/xlink" width="2048" height="2048" viewBox="0 0 2048 2048" version="1.1">
<g>
<path d="M 631 1399 L 375 1655 C 368.332031 1661 360.667969 1664 352 1664 C 344 1664 336.332031 1661 329 1655 C 323 1648.332031 320 1640.667969 320 1632 C 320 1623.332031 323 1615.667969 329 1609 L 585 1353 C 591.667969 1347 599.332031 1344 608 1344 C 616.667969 1344 624.332031 1347 631 1353 C 637 1359.667969 640 1367.332031 640 1376 C 640 1384.667969 637 1392.332031 631 1399 Z M 800 1440 L 800 1760 C 800 1769.332031 797 1777 791 1783 C 785 1789 777.332031 1792 768 1792 C 758.667969 1792 751 1789 745 1783 C 739 1777 736 1769.332031 736 1760 L 736 1440 C 736 1430.667969 739 1423 745 1417 C 751 1411 758.667969 1408 768 1408 C 777.332031 1408 785 1411 791 1417 C 797 1423 800 1430.667969 800 1440 Z M 576 1216 C 576 1225.332031 573 1233 567 1239 C 561 1245 553.332031 1248 544 1248 L 224 1248 C 214.667969 1248 207 1245 201 1239 C 195 1233 192 1225.332031 192 1216 C 192 1206.667969 195 1199 201 1193 C 207 1187 214.667969 1184 224 1184 L 544 1184 C 553.332031 1184 561 1187 567 1193 C 573 1199 576 1206.667969 576 1216 Z M 1840 1344 C 1840 1424 1811.667969 1491.667969 1755 1547 L 1608 1693 C 1552.667969 1748.332031 1485 1776 1405 1776 C 1324.332031 1776 1256.332031 1747.667969 1201 1691 L 867 1356 C 853 1342 839 1323.332031 825 1300 L 1064 1282 L 1337 1556 C 1355 1574 1377.667969 1583.167969 1405 1583.5 C 1432.332031 1583.832031 1455 1575 1473 1557 L 1620 1411 C 1638.667969 1392.332031 1648 1370 1648 1344 C 1648 1317.332031 1638.667969 1294.667969 1620 1276 L 1346 1001 L 1364 762 C 1387.332031 776 1406 790 1420 804 L 1756 1140 C 1812 1197.332031 1840 1265.332031 1840 1344 Z M 1223 620 L 984 638 L 711 364 C 692.332031 345.332031 669.667969 336 643 336 C 617 336 594.332031 345 575 363 L 428 509 C 409.332031 527.667969 400 550 400 576 C 400 602.667969 409.332031 625.332031 428 644 L 702 918 L 684 1158 C 660.667969 1144 642 1130 628 1116 L 292 780 C 236 722.667969 208 654.667969 208 576 C 208 496 236.332031 428.332031 293 373 L 440 227 C 495.332031 171.667969 563 144 643 144 C 723.667969 144 791.667969 172.332031 847 229 L 1181 564 C 1195 578 1209 596.667969 1223 620 Z M 1856 704 C 1856 713.332031 1853 721 1847 727 C 1841 733 1833.332031 736 1824 736 L 1504 736 C 1494.667969 736 1487 733 1481 727 C 1475 721 1472 713.332031 1472 704 C 1472 694.667969 1475 687 1481 681 C 1487 675 1494.667969 672 1504 672 L 1824 672 C 1833.332031 672 1841 675 1847 681 C 1853 687 1856 694.667969 1856 704 Z M 1312 160 L 1312 480 C 1312 489.332031 1309 497 1303 503 C 1297 509 1289.332031 512 1280 512 C 1270.667969 512 1263 509 1257 503 C 1251 497 1248 489.332031 1248 480 L 1248 160 C 1248 150.667969 1251 143 1257 137 C 1263 131 1270.667969 128 1280 128 C 1289.332031 128 1297 131 1303 137 C 1309 143 1312 150.667969 1312 160 Z M 1719 311 L 1463 567 C 1455.667969 573 1448 576 1440 576 C 1432 576 1424.332031 573 1417 567 C 1411 560.332031 1408 552.667969 1408 544 C 1408 535.332031 1411 527.667969 1417 521 L 1673 265 C 1679.667969 259 1687.332031 256 1696 256 C 1704.667969 256 1712.332031 259 1719 265 C 1725 271.667969 1728 279.332031 1728 288 C 1728 296.667969 1725 304.332031 1719 311 Z M 1719 311 "/>
</g>
</svg>
