<?xml version="1.0" encoding="UTF-8"?>
<svg xmlns="http://www.w3.org/2000/svg" xmlns:xlink="http://www.w3.org/1999/xlink" width="2048" height="2048" viewBox="0 0 2048 2048" version="1.1">
<g>
<path d="M 1427 941 L 1005 1363 C 992.332031 1375.667969 977.332031 1382 960 1382 C 942.667969 1382 927.667969 1375.667969 915 1363 L 621 1069 C 608.332031 1056.332031 602 1041.332031 602 1024 C 602 1006.667969 608.332031 991.667969 621 979 L 723 877 C 735.667969 864.332031 750.667969 858 768 858 C 785.332031 858 800.332031 864.332031 813 877 L 960 1024 L 1235 749 C 1247.667969 736.332031 1262.667969 730 1280 730 C 1297.332031 730 1312.332031 736.332031 1325 749 L 1427 851 C 1439.667969 863.667969 1446 878.667969 1446 896 C 1446 913.332031 1439.667969 928.332031 1427 941 Z M 1568 1024 C 1568 925.332031 1543.667969 834.332031 1495 751 C 1446.332031 667.667969 1380.332031 601.667969 1297 553 C 1213.667969 504.332031 1122.667969 480 1024 480 C 925.332031 480 834.332031 504.332031 751 553 C 667.667969 601.667969 601.667969 667.667969 553 751 C 504.332031 834.332031 480 925.332031 480 1024 C 480 1122.667969 504.332031 1213.667969 553 1297 C 601.667969 1380.332031 667.667969 1446.332031 751 1495 C 834.332031 1543.667969 925.332031 1568 1024 1568 C 1122.667969 1568 1213.667969 1543.667969 1297 1495 C 1380.332031 1446.332031 1446.332031 1380.332031 1495 1297 C 1543.667969 1213.667969 1568 1122.667969 1568 1024 Z M 1792 1024 C 1792 1163.332031 1757.667969 1291.832031 1689 1409.5 C 1620.332031 1527.167969 1527.167969 1620.332031 1409.5 1689 C 1291.832031 1757.667969 1163.332031 1792 1024 1792 C 884.667969 1792 756.167969 1757.667969 638.5 1689 C 520.832031 1620.332031 427.667969 1527.167969 359 1409.5 C 290.332031 1291.832031 256 1163.332031 256 1024 C 256 884.667969 290.332031 756.167969 359 638.5 C 427.667969 520.832031 520.832031 427.667969 638.5 359 C 756.167969 290.332031 884.667969 256 1024 256 C 1163.332031 256 1291.832031 290.332031 1409.5 359 C 1527.167969 427.667969 1620.332031 520.832031 1689 638.5 C 1757.667969 756.167969 1792 884.667969 1792 1024 Z M 1792 1024 "/>
</g>
</svg>
