<svg width="2048" height="2048" viewBox="-192 -384 2048 2048" xmlns="http://www.w3.org/2000/svg"><g transform="scale(1 -1) translate(0 -1280)"><path d="M1408 606v-318q0 -119 -84.5 -203.5t-203.5 -84.5h-832q-119 0 -203.5 84.5t-84.5 203.5v832q0 119 84.5 203.5t203.5 84.5h832q63 0 117 -25q15 -7 18 -23q3 -17 -9 -29l-49 -49q-10 -10 -23 -10q-3 0 -9 2q-23 6 -45 6h-832q-66 0 -113 -47t-47 -113v-832 q0 -66 47 -113t113 -47h832q66 0 113 47t47 113v254q0 13 9 22l64 64q10 10 23 10q6 0 12 -3q20 -8 20 -29zM1639 1095l-814 -814q-24 -24 -57 -24t-57 24l-430 430q-24 24 -24 57t24 57l110 110q24 24 57 24t57 -24l263 -263l647 647q24 24 57 24t57 -24l110 -110 q24 -24 24 -57t-24 -57z" fill="black" /></g></svg>