<?xml version="1.0" encoding="UTF-8"?>
<svg xmlns="http://www.w3.org/2000/svg" xmlns:xlink="http://www.w3.org/1999/xlink" width="2048" height="2048" viewBox="0 0 2048 2048" version="1.1">
<g>
<path d="M 1600 1058 L 1600 1376 C 1600 1455.332031 1571.832031 1523.167969 1515.5 1579.5 C 1459.167969 1635.832031 1391.332031 1664 1312 1664 L 480 1664 C 400.667969 1664 332.832031 1635.832031 276.5 1579.5 C 220.167969 1523.167969 192 1455.332031 192 1376 L 192 544 C 192 464.667969 220.167969 396.832031 276.5 340.5 C 332.832031 284.167969 400.667969 256 480 256 L 1312 256 C 1354 256 1393 264.332031 1429 281 C 1439 285.667969 1445 293.332031 1447 304 C 1449 315.332031 1446 325 1438 333 L 1389 382 C 1382.332031 388.667969 1374.667969 392 1366 392 C 1364 392 1361 391.332031 1357 390 C 1341.667969 386 1326.667969 384 1312 384 L 480 384 C 436 384 398.332031 399.667969 367 431 C 335.667969 462.332031 320 500 320 544 L 320 1376 C 320 1420 335.667969 1457.667969 367 1489 C 398.332031 1520.332031 436 1536 480 1536 L 1312 1536 C 1356 1536 1393.667969 1520.332031 1425 1489 C 1456.332031 1457.667969 1472 1420 1472 1376 L 1472 1122 C 1472 1113.332031 1475 1106 1481 1100 L 1545 1036 C 1551.667969 1029.332031 1559.332031 1026 1568 1026 C 1572 1026 1576 1027 1580 1029 C 1593.332031 1034.332031 1600 1044 1600 1058 Z M 1831 569 L 1017 1383 C 1001 1399 982 1407 960 1407 C 938 1407 919 1399 903 1383 L 473 953 C 457 937 449 918 449 896 C 449 874 457 855 473 839 L 583 729 C 599 713 618 705 640 705 C 662 705 681 713 697 729 L 960 992 L 1607 345 C 1623 329 1642 321 1664 321 C 1686 321 1705 329 1721 345 L 1831 455 C 1847 471 1855 490 1855 512 C 1855 534 1847 553 1831 569 Z M 1831 569 "/>
</g>
</svg>
