<svg width="2048" height="2048" viewBox="-256 -384 2048 2048" xmlns="http://www.w3.org/2000/svg"><g transform="scale(1 -1) translate(0 -1280)"><path d="M685 237l614 614q19 19 19 45t-19 45l-102 102q-19 19 -45 19t-45 -19l-467 -467l-211 211q-19 19 -45 19t-45 -19l-102 -102q-19 -19 -19 -45t19 -45l358 -358q19 -19 45 -19t45 19zM1536 1120v-960q0 -119 -84.5 -203.5t-203.5 -84.5h-960q-119 0 -203.5 84.5 t-84.5 203.5v960q0 119 84.5 203.5t203.5 84.5h960q119 0 203.5 -84.5t84.5 -203.5z" fill="black" /></g></svg>