<?xml version="1.0" encoding="UTF-8"?>
<svg xmlns="http://www.w3.org/2000/svg" xmlns:xlink="http://www.w3.org/1999/xlink" width="2048" height="2048" viewBox="0 0 2048 2048" version="1.1">
<g>
<path d="M 941 1427 L 1555 813 C 1567.667969 800.332031 1574 785.332031 1574 768 C 1574 750.667969 1567.667969 735.667969 1555 723 L 1453 621 C 1440.332031 608.332031 1425.332031 602 1408 602 C 1390.667969 602 1375.667969 608.332031 1363 621 L 896 1088 L 685 877 C 672.332031 864.332031 657.332031 858 640 858 C 622.667969 858 607.667969 864.332031 595 877 L 493 979 C 480.332031 991.667969 474 1006.667969 474 1024 C 474 1041.332031 480.332031 1056.332031 493 1069 L 851 1427 C 863.667969 1439.667969 878.667969 1446 896 1446 C 913.332031 1446 928.332031 1439.667969 941 1427 Z M 1792 544 L 1792 1504 C 1792 1583.332031 1763.832031 1651.167969 1707.5 1707.5 C 1651.167969 1763.832031 1583.332031 1792 1504 1792 L 544 1792 C 464.667969 1792 396.832031 1763.832031 340.5 1707.5 C 284.167969 1651.167969 256 1583.332031 256 1504 L 256 544 C 256 464.667969 284.167969 396.832031 340.5 340.5 C 396.832031 284.167969 464.667969 256 544 256 L 1504 256 C 1583.332031 256 1651.167969 284.167969 1707.5 340.5 C 1763.832031 396.832031 1792 464.667969 1792 544 Z M 1792 544 "/>
</g>
</svg>
