<?xml version="1.0" encoding="UTF-8"?>
<svg xmlns="http://www.w3.org/2000/svg" xmlns:xlink="http://www.w3.org/1999/xlink" width="2048" height="2048" viewBox="0 0 2048 2048" version="1.1">
<g>
<path d="M 1799 694 C 1799 720.667969 1789.667969 743.332031 1771 762 L 911 1622 C 892.332031 1640.667969 869.667969 1650 843 1650 C 816.332031 1650 793.667969 1640.667969 775 1622 L 277 1124 C 258.332031 1105.332031 249 1082.667969 249 1056 C 249 1029.332031 258.332031 1006.667969 277 988 L 413 852 C 431.667969 833.332031 454.332031 824 481 824 C 507.667969 824 530.332031 833.332031 549 852 L 843 1147 L 1499 490 C 1517.667969 471.332031 1540.332031 462 1567 462 C 1593.667969 462 1616.332031 471.332031 1635 490 L 1771 626 C 1789.667969 644.667969 1799 667.332031 1799 694 Z M 1799 694 "/>
</g>
</svg>
