<?xml version="1.0" encoding="UTF-8"?>
<svg xmlns="http://www.w3.org/2000/svg" xmlns:xlink="http://www.w3.org/1999/xlink" width="2048" height="2048" viewBox="0 0 2048 2048" version="1.1">
<g>
<path d="M 1540 862 C 1540 843.332031 1534 828 1522 816 L 1431 726 C 1418.332031 713.332031 1403.332031 707 1386 707 C 1368.667969 707 1353.667969 713.332031 1341 726 L 933 1133 L 707 907 C 694.332031 894.332031 679.332031 888 662 888 C 644.667969 888 629.667969 894.332031 617 907 L 526 997 C 514 1009 508 1024.332031 508 1043 C 508 1061 514 1076 526 1088 L 888 1450 C 900.667969 1462.667969 915.667969 1469 933 1469 C 951 1469 966.332031 1462.667969 979 1450 L 1522 907 C 1534 895 1540 880 1540 862 Z M 1792 1024 C 1792 1163.332031 1757.667969 1291.832031 1689 1409.5 C 1620.332031 1527.167969 1527.167969 1620.332031 1409.5 1689 C 1291.832031 1757.667969 1163.332031 1792 1024 1792 C 884.667969 1792 756.167969 1757.667969 638.5 1689 C 520.832031 1620.332031 427.667969 1527.167969 359 1409.5 C 290.332031 1291.832031 256 1163.332031 256 1024 C 256 884.667969 290.332031 756.167969 359 638.5 C 427.667969 520.832031 520.832031 427.667969 638.5 359 C 756.167969 290.332031 884.667969 256 1024 256 C 1163.332031 256 1291.832031 290.332031 1409.5 359 C 1527.167969 427.667969 1620.332031 520.832031 1689 638.5 C 1757.667969 756.167969 1792 884.667969 1792 1024 Z M 1792 1024 "/>
</g>
</svg>
