<?xml version="1.0" encoding="UTF-8"?>
<svg xmlns="http://www.w3.org/2000/svg" xmlns:xlink="http://www.w3.org/1999/xlink" width="2048" height="2048" viewBox="0 0 2048 2048" version="1.1">
<g>
<path d="M 1803 1344 C 1803 1379.332031 1790.667969 1409.332031 1766 1434 L 1691 1509 C 1665.667969 1534.332031 1635.332031 1547 1600 1547 C 1564 1547 1534 1534.332031 1510 1509 L 1024 1024 L 538 1509 C 514 1534.332031 484 1547 448 1547 C 412 1547 382 1534.332031 358 1509 L 283 1434 C 257.667969 1410 245 1380 245 1344 C 245 1308.667969 257.667969 1278.332031 283 1253 L 934 602 C 958.667969 577.332031 988.667969 565 1024 565 C 1058.667969 565 1089 577.332031 1115 602 L 1765 1253 C 1790.332031 1278.332031 1803 1308.667969 1803 1344 Z M 1803 1344 "/>
</g>
</svg>
