<?xml version="1.0" encoding="UTF-8"?>
<svg xmlns="http://www.w3.org/2000/svg" xmlns:xlink="http://www.w3.org/1999/xlink" width="2048" height="2048" viewBox="0 0 2048 2048" version="1.1">
<g>
<path d="M 1069 1427 L 1523 973 C 1535.667969 960.332031 1542 945.332031 1542 928 C 1542 910.667969 1535.667969 895.667969 1523 883 L 1421 781 C 1408.332031 768.332031 1393.332031 762 1376 762 C 1358.667969 762 1343.667969 768.332031 1331 781 L 1024 1088 L 717 781 C 704.332031 768.332031 689.332031 762 672 762 C 654.667969 762 639.667969 768.332031 627 781 L 525 883 C 512.332031 895.667969 506 910.667969 506 928 C 506 945.332031 512.332031 960.332031 525 973 L 979 1427 C 991.667969 1439.667969 1006.667969 1446 1024 1446 C 1041.332031 1446 1056.332031 1439.667969 1069 1427 Z M 1792 1024 C 1792 1163.332031 1757.667969 1291.832031 1689 1409.5 C 1620.332031 1527.167969 1527.167969 1620.332031 1409.5 1689 C 1291.832031 1757.667969 1163.332031 1792 1024 1792 C 884.667969 1792 756.167969 1757.667969 638.5 1689 C 520.832031 1620.332031 427.667969 1527.167969 359 1409.5 C 290.332031 1291.832031 256 1163.332031 256 1024 C 256 884.667969 290.332031 756.167969 359 638.5 C 427.667969 520.832031 520.832031 427.667969 638.5 359 C 756.167969 290.332031 884.667969 256 1024 256 C 1163.332031 256 1291.832031 290.332031 1409.5 359 C 1527.167969 427.667969 1620.332031 520.832031 1689 638.5 C 1757.667969 756.167969 1792 884.667969 1792 1024 Z M 1792 1024 "/>
</g>
</svg>
