<?xml version="1.0" encoding="UTF-8"?>
<svg xmlns="http://www.w3.org/2000/svg" xmlns:xlink="http://www.w3.org/1999/xlink" width="2048" height="2048" viewBox="0 0 2048 2048" version="1.1">
<g>
<path d="M 1547 960 C 1547 994.667969 1534.667969 1025 1510 1051 L 858 1702 C 833.332031 1726.667969 803.332031 1739 768 1739 C 732.667969 1739 702.667969 1726.667969 678 1702 L 602 1627 C 577.332031 1601 565 1570.667969 565 1536 C 565 1500.667969 577.332031 1470.667969 602 1446 L 1088 960 L 602 475 C 577.332031 449 565 418.667969 565 384 C 565 348.667969 577.332031 318.667969 602 294 L 678 219 C 702 193.667969 732 181 768 181 C 804 181 834 193.667969 858 219 L 1510 870 C 1534.667969 894.667969 1547 924.667969 1547 960 Z M 1547 960 "/>
</g>
</svg>
