<?xml version="1.0" encoding="UTF-8"?>
<svg xmlns="http://www.w3.org/2000/svg" xmlns:xlink="http://www.w3.org/1999/xlink" width="2048" height="2048" viewBox="0 0 2048 2048" version="1.1">
<g>
<path d="M 1803 832 C 1803 867.332031 1790.667969 897.332031 1766 922 L 1115 1573 C 1089.667969 1598.332031 1059.332031 1611 1024 1611 C 988 1611 958 1598.332031 934 1573 L 283 922 C 257.667969 898 245 868 245 832 C 245 796.667969 257.667969 766.332031 283 741 L 357 666 C 383 641.332031 413.332031 629 448 629 C 483.332031 629 513.332031 641.332031 538 666 L 1024 1152 L 1510 666 C 1534.667969 641.332031 1564.667969 629 1600 629 C 1634.667969 629 1665 641.332031 1691 666 L 1766 741 C 1790.667969 767 1803 797.332031 1803 832 Z M 1803 832 "/>
</g>
</svg>
