<?xml version="1.0" encoding="UTF-8"?>
<svg xmlns="http://www.w3.org/2000/svg" xmlns:xlink="http://www.w3.org/1999/xlink" width="2048" height="2048" viewBox="0 0 2048 2048" version="1.1">
<g>
<path d="M 1421 1267 L 1523 1165 C 1535.667969 1152.332031 1542 1137.332031 1542 1120 C 1542 1102.667969 1535.667969 1087.667969 1523 1075 L 1069 621 C 1056.332031 608.332031 1041.332031 602 1024 602 C 1006.667969 602 991.667969 608.332031 979 621 L 525 1075 C 512.332031 1087.667969 506 1102.667969 506 1120 C 506 1137.332031 512.332031 1152.332031 525 1165 L 627 1267 C 639.667969 1279.667969 654.667969 1286 672 1286 C 689.332031 1286 704.332031 1279.667969 717 1267 L 1024 960 L 1331 1267 C 1343.667969 1279.667969 1358.667969 1286 1376 1286 C 1393.332031 1286 1408.332031 1279.667969 1421 1267 Z M 1792 1024 C 1792 1163.332031 1757.667969 1291.832031 1689 1409.5 C 1620.332031 1527.167969 1527.167969 1620.332031 1409.5 1689 C 1291.832031 1757.667969 1163.332031 1792 1024 1792 C 884.667969 1792 756.167969 1757.667969 638.5 1689 C 520.832031 1620.332031 427.667969 1527.167969 359 1409.5 C 290.332031 1291.832031 256 1163.332031 256 1024 C 256 884.667969 290.332031 756.167969 359 638.5 C 427.667969 520.832031 520.832031 427.667969 638.5 359 C 756.167969 290.332031 884.667969 256 1024 256 C 1163.332031 256 1291.832031 290.332031 1409.5 359 C 1527.167969 427.667969 1620.332031 520.832031 1689 638.5 C 1757.667969 756.167969 1792 884.667969 1792 1024 Z M 1792 1024 "/>
</g>
</svg>
