<svg width="2048" height="2048" viewBox="-128 -384 2048 2048" xmlns="http://www.w3.org/2000/svg"><g transform="scale(1 -1) translate(0 -1280)"><path d="M768 -128h896v640h-416q-40 0 -68 28t-28 68v416h-384v-1152zM1024 1312v64q0 13 -9.5 22.5t-22.5 9.5h-704q-13 0 -22.5 -9.5t-9.5 -22.5v-64q0 -13 9.5 -22.5t22.5 -9.5h704q13 0 22.5 9.5t9.5 22.5zM1280 640h299l-299 299v-299zM1792 512v-672q0 -40 -28 -68t-68 -28 h-960q-40 0 -68 28t-28 68v160h-544q-40 0 -68 28t-28 68v1344q0 40 28 68t68 28h1088q40 0 68 -28t28 -68v-328q21 -13 36 -28l408 -408q28 -28 48 -76t20 -88z" fill="black" /></g></svg>