<?xml version="1.0" encoding="UTF-8"?>
<svg xmlns="http://www.w3.org/2000/svg" xmlns:xlink="http://www.w3.org/1999/xlink" width="2048" height="2048" viewBox="0 0 2048 2048" version="1.1">
<g>
<path d="M 1344 992 C 1344 982.667969 1341 975 1335 969 L 983 617 C 977 611 969.332031 608 960 608 C 950.667969 608 943 611 937 617 L 586 968 C 579.332031 976 576 984 576 992 C 576 1001.332031 579 1009 585 1015 C 591 1021 598.667969 1024 608 1024 L 832 1024 L 832 1376 C 832 1384.667969 835.167969 1392.167969 841.5 1398.5 C 847.832031 1404.832031 855.332031 1408 864 1408 L 1056 1408 C 1064.667969 1408 1072.167969 1404.832031 1078.5 1398.5 C 1084.832031 1392.167969 1088 1384.667969 1088 1376 L 1088 1024 L 1312 1024 C 1320.667969 1024 1328.167969 1020.832031 1334.5 1014.5 C 1340.832031 1008.167969 1344 1000.667969 1344 992 Z M 1984 1280 C 1984 1386 1946.5 1476.5 1871.5 1551.5 C 1796.5 1626.5 1706 1664 1600 1664 L 512 1664 C 388.667969 1664 283.167969 1620.167969 195.5 1532.5 C 107.832031 1444.832031 64 1339.332031 64 1216 C 64 1129.332031 87.332031 1049.332031 134 976 C 180.667969 902.667969 243.332031 847.667969 322 811 C 320.667969 791 320 776.667969 320 768 C 320 626.667969 370 506 470 406 C 570 306 690.667969 256 832 256 C 936 256 1031.167969 285 1117.5 343 C 1203.832031 401 1266.667969 478 1306 574 C 1353.332031 532.667969 1408.667969 512 1472 512 C 1542.667969 512 1603 537 1653 587 C 1703 637 1728 697.332031 1728 768 C 1728 818.667969 1714.332031 864.667969 1687 906 C 1773.667969 926.667969 1844.832031 971.832031 1900.5 1041.5 C 1956.167969 1111.167969 1984 1190.667969 1984 1280 Z M 1984 1280 "/>
</g>
</svg>
