<?xml version="1.0" encoding="UTF-8"?>
<svg xmlns="http://www.w3.org/2000/svg" xmlns:xlink="http://www.w3.org/1999/xlink" width="2048" height="2048" viewBox="0 0 2048 2048" version="1.1">
<g>
<path d="M 681 1527 L 631 1577 C 624.332031 1583.667969 616.667969 1587 608 1587 C 599.332031 1587 591.667969 1583.667969 585 1577 L 119 1111 C 112.332031 1104.332031 109 1096.667969 109 1088 C 109 1079.332031 112.332031 1071.667969 119 1065 L 585 599 C 591.667969 592.332031 599.332031 589 608 589 C 616.667969 589 624.332031 592.332031 631 599 L 681 649 C 687.667969 655.667969 691 663.332031 691 672 C 691 680.667969 687.667969 688.332031 681 695 L 288 1088 L 681 1481 C 687.667969 1487.667969 691 1495.332031 691 1504 C 691 1512.667969 687.667969 1520.332031 681 1527 Z M 1272 460 L 899 1751 C 896.332031 1759.667969 891.167969 1766.167969 883.5 1770.5 C 875.832031 1774.832031 868 1775.667969 860 1773 L 798 1756 C 789.332031 1753.332031 782.832031 1748.167969 778.5 1740.5 C 774.167969 1732.832031 773.332031 1724.667969 776 1716 L 1149 425 C 1151.667969 416.332031 1156.832031 409.832031 1164.5 405.5 C 1172.167969 401.167969 1180 400.332031 1188 403 L 1250 420 C 1258.667969 422.667969 1265.167969 427.832031 1269.5 435.5 C 1273.832031 443.167969 1274.667969 451.332031 1272 460 Z M 1929 1111 L 1463 1577 C 1456.332031 1583.667969 1448.667969 1587 1440 1587 C 1431.332031 1587 1423.667969 1583.667969 1417 1577 L 1367 1527 C 1360.332031 1520.332031 1357 1512.667969 1357 1504 C 1357 1495.332031 1360.332031 1487.667969 1367 1481 L 1760 1088 L 1367 695 C 1360.332031 688.332031 1357 680.667969 1357 672 C 1357 663.332031 1360.332031 655.667969 1367 649 L 1417 599 C 1423.667969 592.332031 1431.332031 589 1440 589 C 1448.667969 589 1456.332031 592.332031 1463 599 L 1929 1065 C 1935.667969 1071.667969 1939 1079.332031 1939 1088 C 1939 1096.667969 1935.667969 1104.332031 1929 1111 Z M 1929 1111 "/>
</g>
</svg>
