<?xml version="1.0" encoding="UTF-8"?>
<svg xmlns="http://www.w3.org/2000/svg" xmlns:xlink="http://www.w3.org/1999/xlink" width="2048" height="2048" viewBox="0 0 2048 2048" version="1.1">
<g>
<path d="M 800 1600 C 800 1573.332031 790.667969 1550.667969 772 1532 C 753.332031 1513.332031 730.667969 1504 704 1504 C 677.332031 1504 654.667969 1513.332031 636 1532 C 617.332031 1550.667969 608 1573.332031 608 1600 C 608 1626.667969 617.332031 1649.332031 636 1668 C 654.667969 1686.667969 677.332031 1696 704 1696 C 730.667969 1696 753.332031 1686.667969 772 1668 C 790.667969 1649.332031 800 1626.667969 800 1600 Z M 800 448 C 800 421.332031 790.667969 398.667969 772 380 C 753.332031 361.332031 730.667969 352 704 352 C 677.332031 352 654.667969 361.332031 636 380 C 617.332031 398.667969 608 421.332031 608 448 C 608 474.667969 617.332031 497.332031 636 516 C 654.667969 534.667969 677.332031 544 704 544 C 730.667969 544 753.332031 534.667969 772 516 C 790.667969 497.332031 800 474.667969 800 448 Z M 1440 576 C 1440 549.332031 1430.667969 526.667969 1412 508 C 1393.332031 489.332031 1370.667969 480 1344 480 C 1317.332031 480 1294.667969 489.332031 1276 508 C 1257.332031 526.667969 1248 549.332031 1248 576 C 1248 602.667969 1257.332031 625.332031 1276 644 C 1294.667969 662.667969 1317.332031 672 1344 672 C 1370.667969 672 1393.332031 662.667969 1412 644 C 1430.667969 625.332031 1440 602.667969 1440 576 Z M 1536 576 C 1536 610.667969 1527.332031 642.832031 1510 672.5 C 1492.667969 702.167969 1469.332031 725.332031 1440 742 C 1438.667969 933.332031 1363.332031 1071.332031 1214 1156 C 1168.667969 1181.332031 1101 1208.332031 1011 1237 C 925.667969 1263.667969 869.167969 1287.332031 841.5 1308 C 813.832031 1328.667969 800 1362 800 1408 L 800 1434 C 829.332031 1450.667969 852.667969 1473.832031 870 1503.5 C 887.332031 1533.167969 896 1565.332031 896 1600 C 896 1653.332031 877.332031 1698.667969 840 1736 C 802.667969 1773.332031 757.332031 1792 704 1792 C 650.667969 1792 605.332031 1773.332031 568 1736 C 530.667969 1698.667969 512 1653.332031 512 1600 C 512 1565.332031 520.667969 1533.167969 538 1503.5 C 555.332031 1473.832031 578.667969 1450.667969 608 1434 L 608 614 C 578.667969 597.332031 555.332031 574.167969 538 544.5 C 520.667969 514.832031 512 482.667969 512 448 C 512 394.667969 530.667969 349.332031 568 312 C 605.332031 274.667969 650.667969 256 704 256 C 757.332031 256 802.667969 274.667969 840 312 C 877.332031 349.332031 896 394.667969 896 448 C 896 482.667969 887.332031 514.832031 870 544.5 C 852.667969 574.167969 829.332031 597.332031 800 614 L 800 1111 C 836 1093.667969 887.332031 1074.667969 954 1054 C 990.667969 1042.667969 1019.832031 1032.832031 1041.5 1024.5 C 1063.167969 1016.167969 1086.667969 1005.832031 1112 993.5 C 1137.332031 981.167969 1157 968 1171 954 C 1185 940 1198.5 923 1211.5 903 C 1224.5 883 1233.832031 859.832031 1239.5 833.5 C 1245.167969 807.167969 1248 776.667969 1248 742 C 1218.667969 725.332031 1195.332031 702.167969 1178 672.5 C 1160.667969 642.832031 1152 610.667969 1152 576 C 1152 522.667969 1170.667969 477.332031 1208 440 C 1245.332031 402.667969 1290.667969 384 1344 384 C 1397.332031 384 1442.667969 402.667969 1480 440 C 1517.332031 477.332031 1536 522.667969 1536 576 Z M 1536 576 "/>
</g>
</svg>
