<svg width="2048" height="2048" viewBox="-64 -384 2048 2048" xmlns="http://www.w3.org/2000/svg"><g transform="scale(1 -1) translate(0 -1280)"><path d="M617 137l-50 -50q-10 -10 -23 -10t-23 10l-466 466q-10 10 -10 23t10 23l466 466q10 10 23 10t23 -10l50 -50q10 -10 10 -23t-10 -23l-393 -393l393 -393q10 -10 10 -23t-10 -23zM1208 1204l-373 -1291q-4 -13 -15.5 -19.5t-23.5 -2.5l-62 17q-13 4 -19.5 15.5t-2.5 24.5 l373 1291q4 13 15.5 19.5t23.5 2.5l62 -17q13 -4 19.5 -15.5t2.5 -24.5zM1865 553l-466 -466q-10 -10 -23 -10t-23 10l-50 50q-10 10 -10 23t10 23l393 393l-393 393q-10 10 -10 23t10 23l50 50q10 10 23 10t23 -10l466 -466q10 -10 10 -23t-10 -23z" fill="black" /></g></svg>