<?xml version="1.0" encoding="utf-8"?>
<svg width="1792" height="1792" viewBox="0 0 1792 1792" xmlns="http://www.w3.org/2000/svg"><path d="M1584 1290l-218-111q-74 120-196.5 189t-263.5 69q-147 0-271-72t-196-196-72-270q0-110 42.5-209.5t115-172 172-115 209.5-42.5q131 0 247.5 60.5t192.5 168.5l215-125q-110-169-286.5-265t-378.5-96q-161 0-308 63t-253 169-169 253-63 308 63 308 169 253 253 169 308 63q213 0 397.5-107t290.5-292zm-554-397l693 352q-116 253-334.5 400t-492.5 147q-182 0-348-71t-286-191-191-286-71-348 71-348 191-286 286-191 348-71q260 0 470.5 133.5t335.5 366.5zm513 3h-39v160h-96v-352h136q32 0 54.5 20t28.5 48 1 56-27.5 48-57.5 20z"/></svg>