<?xml version="1.0" encoding="UTF-8"?>
<svg xmlns="http://www.w3.org/2000/svg" xmlns:xlink="http://www.w3.org/1999/xlink" width="2048" height="2048" viewBox="0 0 2048 2048" version="1.1">
<g>
<path d="M 1728 768 C 1728 714.667969 1709.332031 669.332031 1672 632 C 1634.667969 594.667969 1589.332031 576 1536 576 L 1472 576 L 1472 960 L 1536 960 C 1589.332031 960 1634.667969 941.332031 1672 904 C 1709.332031 866.667969 1728 821.332031 1728 768 Z M 64 1536 L 1856 1536 C 1856 1606.667969 1831 1667 1781 1717 C 1731 1767 1670.667969 1792 1600 1792 L 320 1792 C 249.332031 1792 189 1767 139 1717 C 89 1667 64 1606.667969 64 1536 Z M 1920 768 C 1920 874 1882.5 964.5 1807.5 1039.5 C 1732.5 1114.5 1642 1152 1536 1152 L 1472 1152 L 1472 1184 C 1472 1245.332031 1450 1298 1406 1342 C 1362 1386 1309.332031 1408 1248 1408 L 544 1408 C 482.667969 1408 430 1386 386 1342 C 342 1298 320 1245.332031 320 1184 L 320 448 C 320 430.667969 326.332031 415.667969 339 403 C 351.667969 390.332031 366.667969 384 384 384 L 1536 384 C 1642 384 1732.5 421.5 1807.5 496.5 C 1882.5 571.5 1920 662 1920 768 Z M 1920 768 "/>
</g>
</svg>
