<svg width="2048" height="2048" viewBox="-256 -384 2048 2048" xmlns="http://www.w3.org/2000/svg"><g transform="scale(1 -1) translate(0 -1280)"><path d="M1024 640q0 106 -75 181t-181 75t-181 -75t-75 -181t75 -181t181 -75t181 75t75 181zM1536 749v-222q0 -12 -8 -23t-20 -13l-185 -28q-19 -54 -39 -91q35 -50 107 -138q10 -12 10 -25t-9 -23q-27 -37 -99 -108t-94 -71q-12 0 -26 9l-138 108q-44 -23 -91 -38 q-16 -136 -29 -186q-7 -28 -36 -28h-222q-14 0 -24.5 8.5t-11.5 21.5l-28 184q-49 16 -90 37l-141 -107q-10 -9 -25 -9q-14 0 -25 11q-126 114 -165 168q-7 10 -7 23q0 12 8 23q15 21 51 66.5t54 70.5q-27 50 -41 99l-183 27q-13 2 -21 12.5t-8 23.5v222q0 12 8 23t19 13 l186 28q14 46 39 92q-40 57 -107 138q-10 12 -10 24q0 10 9 23q26 36 98.5 107.5t94.5 71.5q13 0 26 -10l138 -107q44 23 91 38q16 136 29 186q7 28 36 28h222q14 0 24.5 -8.5t11.5 -21.5l28 -184q49 -16 90 -37l142 107q9 9 24 9q13 0 25 -10q129 -119 165 -170q7 -8 7 -22 q0 -12 -8 -23q-15 -21 -51 -66.5t-54 -70.5q26 -50 41 -98l183 -28q13 -2 21 -12.5t8 -23.5z" fill="black" /></g></svg>