<?xml version="1.0" encoding="UTF-8"?>
<svg xmlns="http://www.w3.org/2000/svg" xmlns:xlink="http://www.w3.org/1999/xlink" width="2048" height="2048" viewBox="0 0 2048 2048" version="1.1">
<g>
<path d="M 1280 1024 C 1280 953.332031 1255 893 1205 843 C 1155 793 1094.667969 768 1024 768 C 953.332031 768 893 793 843 843 C 793 893 768 953.332031 768 1024 C 768 1094.667969 793 1155 843 1205 C 893 1255 953.332031 1280 1024 1280 C 1094.667969 1280 1155 1255 1205 1205 C 1255 1155 1280 1094.667969 1280 1024 Z M 1792 915 L 1792 1137 C 1792 1145 1789.332031 1152.667969 1784 1160 C 1778.667969 1167.332031 1772 1171.667969 1764 1173 L 1579 1201 C 1566.332031 1237 1553.332031 1267.332031 1540 1292 C 1563.332031 1325.332031 1599 1371.332031 1647 1430 C 1653.667969 1438 1657 1446.332031 1657 1455 C 1657 1463.667969 1654 1471.332031 1648 1478 C 1630 1502.667969 1597 1538.667969 1549 1586 C 1501 1633.332031 1469.667969 1657 1455 1657 C 1447 1657 1438.332031 1654 1429 1648 L 1291 1540 C 1261.667969 1555.332031 1231.332031 1568 1200 1578 C 1189.332031 1668.667969 1179.667969 1730.667969 1171 1764 C 1166.332031 1782.667969 1154.332031 1792 1135 1792 L 913 1792 C 903.667969 1792 895.5 1789.167969 888.5 1783.5 C 881.5 1777.832031 877.667969 1770.667969 877 1762 L 849 1578 C 816.332031 1567.332031 786.332031 1555 759 1541 L 618 1648 C 611.332031 1654 603 1657 593 1657 C 583.667969 1657 575.332031 1653.332031 568 1646 C 484 1570 429 1514 403 1478 C 398.332031 1471.332031 396 1463.667969 396 1455 C 396 1447 398.667969 1439.332031 404 1432 C 414 1418 431 1395.832031 455 1365.5 C 479 1335.167969 497 1311.667969 509 1295 C 491 1261.667969 477.332031 1228.667969 468 1196 L 285 1169 C 276.332031 1167.667969 269.332031 1163.5 264 1156.5 C 258.667969 1149.5 256 1141.667969 256 1133 L 256 911 C 256 903 258.667969 895.332031 264 888 C 269.332031 880.667969 275.667969 876.332031 283 875 L 469 847 C 478.332031 816.332031 491.332031 785.667969 508 755 C 481.332031 717 445.667969 671 401 617 C 394.332031 609 391 601 391 593 C 391 586.332031 394 578.667969 400 570 C 417.332031 546 450.167969 510.167969 498.5 462.5 C 546.832031 414.832031 578.332031 391 593 391 C 601.667969 391 610.332031 394.332031 619 401 L 757 508 C 786.332031 492.667969 816.667969 480 848 470 C 858.667969 379.332031 868.332031 317.332031 877 284 C 881.667969 265.332031 893.667969 256 913 256 L 1135 256 C 1144.332031 256 1152.5 258.832031 1159.5 264.5 C 1166.5 270.167969 1170.332031 277.332031 1171 286 L 1199 470 C 1231.667969 480.667969 1261.667969 493 1289 507 L 1431 400 C 1437 394 1445 391 1455 391 C 1463.667969 391 1472 394.332031 1480 401 C 1566 480.332031 1621 537 1645 571 C 1649.667969 576.332031 1652 583.667969 1652 593 C 1652 601 1649.332031 608.667969 1644 616 C 1634 630 1617 652.167969 1593 682.5 C 1569 712.832031 1551 736.332031 1539 753 C 1556.332031 786.332031 1570 819 1580 851 L 1763 879 C 1771.667969 880.332031 1778.667969 884.5 1784 891.5 C 1789.332031 898.5 1792 906.332031 1792 915 Z M 1792 915 "/>
</g>
</svg>
