<?xml version="1.0" encoding="UTF-8"?>
<svg xmlns="http://www.w3.org/2000/svg" xmlns:xlink="http://www.w3.org/1999/xlink" width="2048" height="2048" viewBox="0 0 2048 2048" version="1.1">
<g>
<path d="M 352 1664 L 960 1664 L 960 512 L 320 512 L 320 1632 C 320 1640.667969 323.167969 1648.167969 329.5 1654.5 C 335.832031 1660.832031 343.332031 1664 352 1664 Z M 1728 1632 L 1728 512 L 1088 512 L 1088 1664 L 1696 1664 C 1704.667969 1664 1712.167969 1660.832031 1718.5 1654.5 C 1724.832031 1648.167969 1728 1640.667969 1728 1632 Z M 1856 416 L 1856 1632 C 1856 1676 1840.332031 1713.667969 1809 1745 C 1777.667969 1776.332031 1740 1792 1696 1792 L 352 1792 C 308 1792 270.332031 1776.332031 239 1745 C 207.667969 1713.667969 192 1676 192 1632 L 192 416 C 192 372 207.667969 334.332031 239 303 C 270.332031 271.667969 308 256 352 256 L 1696 256 C 1740 256 1777.667969 271.667969 1809 303 C 1840.332031 334.332031 1856 372 1856 416 Z M 1856 416 "/>
</g>
</svg>
