<svg width="2048" height="2048" viewBox="-128 -384 2048 2048" xmlns="http://www.w3.org/2000/svg"><g transform="scale(1 -1) translate(0 -1280)"><path d="M1792 640q0 -174 -120 -321.5t-326 -233t-450 -85.5q-70 0 -145 8q-198 -175 -460 -242q-49 -14 -114 -22q-17 -2 -30.5 9t-17.5 29v1q-3 4 -0.5 12t2 10t4.5 9.5l6 9t7 8.5t8 9q7 8 31 34.5t34.5 38t31 39.5t32.5 51t27 59t26 76q-157 89 -247.5 220t-90.5 281 q0 130 71 248.5t191 204.5t286 136.5t348 50.5q244 0 450 -85.5t326 -233t120 -321.5z" fill="black" /></g></svg>