<svg width="2048" height="2048" viewBox="-128 -384 2048 2048" xmlns="http://www.w3.org/2000/svg"><g transform="scale(1 -1) translate(0 -1280)"><path d="M704 1152q-153 0 -286 -52t-211.5 -141t-78.5 -191q0 -82 53 -158t149 -132l97 -56l-35 -84q34 20 62 39l44 31l53 -10q78 -14 153 -14q153 0 286 52t211.5 141t78.5 191t-78.5 191t-211.5 141t-286 52zM704 1280q191 0 353.5 -68.5t256.5 -186.5t94 -257t-94 -257 t-256.5 -186.5t-353.5 -68.5q-86 0 -176 16q-124 -88 -278 -128q-36 -9 -86 -16h-3q-11 0 -20.5 8t-11.5 21q-1 3 -1 6.5t0.5 6.5t2 6l2.5 5t3.5 5.5t4 5t4.5 5t4 4.5q5 6 23 25t26 29.5t22.5 29t25 38.5t20.5 44q-124 72 -195 177t-71 224q0 139 94 257t256.5 186.5 t353.5 68.5zM1526 111q10 -24 20.5 -44t25 -38.5t22.5 -29t26 -29.5t23 -25q1 -1 4 -4.5t4.5 -5t4 -5t3.5 -5.5l2.5 -5t2 -6t0.5 -6.5t-1 -6.5q-3 -14 -13 -22t-22 -7q-50 7 -86 16q-154 40 -278 128q-90 -16 -176 -16q-271 0 -472 132q58 -4 88 -4q161 0 309 45t264 129 q125 92 192 212t67 254q0 77 -23 152q129 -71 204 -178t75 -230q0 -120 -71 -224.5t-195 -176.5z" fill="black" /></g></svg>