<svg width="2048" height="2048" viewBox="-128 -384 2048 2048" xmlns="http://www.w3.org/2000/svg"><g transform="scale(1 -1) translate(0 -1280)"><path d="M896 1152q-204 0 -381.5 -69.5t-282 -187.5t-104.5 -255q0 -112 71.5 -213.5t201.5 -175.5l87 -50l-27 -96q-24 -91 -70 -172q152 63 275 171l43 38l57 -6q69 -8 130 -8q204 0 381.5 69.5t282 187.5t104.5 255t-104.5 255t-282 187.5t-381.5 69.5zM1792 640 q0 -174 -120 -321.5t-326 -233t-450 -85.5q-70 0 -145 8q-198 -175 -460 -242q-49 -14 -114 -22h-5q-15 0 -27 10.5t-16 27.5v1q-3 4 -0.5 12t2 10t4.5 9.5l6 9t7 8.5t8 9q7 8 31 34.5t34.5 38t31 39.5t32.5 51t27 59t26 76q-157 89 -247.5 220t-90.5 281q0 174 120 321.5 t326 233t450 85.5t450 -85.5t326 -233t120 -321.5z" fill="black" /></g></svg>