<?xml version="1.0" encoding="UTF-8"?>
<svg xmlns="http://www.w3.org/2000/svg" xmlns:xlink="http://www.w3.org/1999/xlink" width="2048" height="2048" viewBox="0 0 2048 2048" version="1.1">
<g>
<path d="M 749 1408 L 1344 1408 L 1344 813 Z M 704 1363 L 1299 768 L 704 768 Z M 1856 1440 L 1856 1632 C 1856 1641.332031 1853 1649 1847 1655 C 1841 1661 1833.332031 1664 1824 1664 L 1600 1664 L 1600 1888 C 1600 1897.332031 1597 1905 1591 1911 C 1585 1917 1577.332031 1920 1568 1920 L 1376 1920 C 1366.667969 1920 1359 1917 1353 1911 C 1347 1905 1344 1897.332031 1344 1888 L 1344 1664 L 480 1664 C 470.667969 1664 463 1661 457 1655 C 451 1649 448 1641.332031 448 1632 L 448 768 L 224 768 C 214.667969 768 207 765 201 759 C 195 753 192 745.332031 192 736 L 192 544 C 192 534.667969 195 527 201 521 C 207 515 214.667969 512 224 512 L 448 512 L 448 288 C 448 278.667969 451 271 457 265 C 463 259 470.667969 256 480 256 L 672 256 C 681.332031 256 689 259 695 265 C 701 271 704 278.667969 704 288 L 704 512 L 1555 512 L 1801 265 C 1807.667969 259 1815.332031 256 1824 256 C 1832.667969 256 1840.332031 259 1847 265 C 1853 271.667969 1856 279.332031 1856 288 C 1856 296.667969 1853 304.332031 1847 311 L 1600 557 L 1600 1408 L 1824 1408 C 1833.332031 1408 1841 1411 1847 1417 C 1853 1423 1856 1430.667969 1856 1440 Z M 1856 1440 "/>
</g>
</svg>
