<?xml version="1.0" encoding="UTF-8"?>
<svg xmlns="http://www.w3.org/2000/svg" xmlns:xlink="http://www.w3.org/1999/xlink" width="2048" height="2048" viewBox="0 0 2048 2048" version="1.1">
<g>
<path d="M 1856 1120 L 1856 288 C 1856 279.332031 1852.832031 271.832031 1846.5 265.5 C 1840.167969 259.167969 1832.667969 256 1824 256 L 224 256 C 215.332031 256 207.832031 259.167969 201.5 265.5 C 195.167969 271.832031 192 279.332031 192 288 L 192 1120 C 192 1128.667969 195.167969 1136.167969 201.5 1142.5 C 207.832031 1148.832031 215.332031 1152 224 1152 L 1824 1152 C 1832.667969 1152 1840.167969 1148.832031 1846.5 1142.5 C 1852.832031 1136.167969 1856 1128.667969 1856 1120 Z M 1984 288 L 1984 1376 C 1984 1420 1968.332031 1457.667969 1937 1489 C 1905.667969 1520.332031 1868 1536 1824 1536 L 1280 1536 C 1280 1560.667969 1285.332031 1586.5 1296 1613.5 C 1306.667969 1640.5 1317.332031 1664.167969 1328 1684.5 C 1338.667969 1704.832031 1344 1719.332031 1344 1728 C 1344 1745.332031 1337.667969 1760.332031 1325 1773 C 1312.332031 1785.667969 1297.332031 1792 1280 1792 L 768 1792 C 750.667969 1792 735.667969 1785.667969 723 1773 C 710.332031 1760.332031 704 1745.332031 704 1728 C 704 1718.667969 709.332031 1704 720 1684 C 730.667969 1664 741.332031 1640.667969 752 1614 C 762.667969 1587.332031 768 1561.332031 768 1536 L 224 1536 C 180 1536 142.332031 1520.332031 111 1489 C 79.667969 1457.667969 64 1420 64 1376 L 64 288 C 64 244 79.667969 206.332031 111 175 C 142.332031 143.667969 180 128 224 128 L 1824 128 C 1868 128 1905.667969 143.667969 1937 175 C 1968.332031 206.332031 1984 244 1984 288 Z M 1984 288 "/>
</g>
</svg>
