<svg width="2048" height="2048" viewBox="-256 -384 2048 2048" xmlns="http://www.w3.org/2000/svg"><g transform="scale(1 -1) translate(0 -1280)"><path d="M1024 640q0 -106 -75 -181t-181 -75t-181 75t-75 181t75 181t181 75t181 -75t75 -181zM768 1184q-148 0 -273 -73t-198 -198t-73 -273t73 -273t198 -198t273 -73t273 73t198 198t73 273t-73 273t-198 198t-273 73zM1536 640q0 -209 -103 -385.5t-279.5 -279.5 t-385.5 -103t-385.5 103t-279.5 279.5t-103 385.5t103 385.5t279.5 279.5t385.5 103t385.5 -103t279.5 -279.5t103 -385.5z" fill="black" /></g></svg>