<svg width="2048" height="2048" viewBox="-192 -384 2048 2048" xmlns="http://www.w3.org/2000/svg"><g transform="scale(1 -1) translate(0 -1280)"><path d="M1280 192q0 26 -19 45t-45 19t-45 -19t-19 -45t19 -45t45 -19t45 19t19 45zM1536 192q0 26 -19 45t-45 19t-45 -19t-19 -45t19 -45t45 -19t45 19t19 45zM1664 416v-320q0 -40 -28 -68t-68 -28h-1472q-40 0 -68 28t-28 68v320q0 40 28 68t68 28h465l135 -136 q58 -56 136 -56t136 56l136 136h464q40 0 68 -28t28 -68zM1339 985q17 -41 -14 -70l-448 -448q-18 -19 -45 -19t-45 19l-448 448q-31 29 -14 70q17 39 59 39h256v448q0 26 19 45t45 19h256q26 0 45 -19t19 -45v-448h256q42 0 59 -39z" fill="black" /></g></svg>