<?xml version="1.0" encoding="utf-8"?>
<svg width="1792" height="1792" viewBox="0 0 1792 1792" xmlns="http://www.w3.org/2000/svg"><path d="M1341 784q29-44-6.5-129.5t-121.5-142.5q-58-39-125.5-53.5t-118-4.5-68.5 37q-12 23-4.5 28t42.5 10q23 3 38.5 5t44.5 9.5 56 17.5q36 13 67.5 31.5t53 37 40 38.5 30.5 38 22 34.5 16.5 28.5 12 18.5 10.5 6 11-9.5zm363 574q-52 127-148.5 220t-214.5 141.5-253 60.5-266-13.5-251-91-210-161.5-141.5-235.5-46.5-303.5q1-41 8.5-84.5t12.5-64 24-80.5 23-73q-51 208 1 397t173 318 291 206 346 83 349-74.5 289-244.5q20-27 18-14 0 4-4 14zm-239-449q0 104-40.5 199t-108.5 164-162 109.5-198 40.5-198-40.5-162-109.5-108.5-164-40.5-199 40.5-199 108.5-164 162-109.5 198-40.5 198 40.5 162 109.5 108.5 164 40.5 199zm287-288q-65-147-180.5-251t-253-153.5-292-53.5-301 36.5-275.5 129-220 211.5-131 297-10 373q-49-161-51.5-311.5t35.5-272.5 109-227 165.5-180.5 207-126 232-71 242.5-9 236 54 216 124.5 178 197q33 50 62 121t31 112zm-62 342q12-244-136.5-416t-396.5-240q-8 0-10-5t24-8q125 4 230 50t173 120 116 168.5 58.5 199-1 208-61.5 197.5-122.5 167-185 117.5-248.5 46.5q108-30 201.5-80t174-123 129.5-176.5 55-225.5z"/></svg>