<svg width="2048" height="2048" viewBox="-128 -384 2048 2048" xmlns="http://www.w3.org/2000/svg"><g transform="scale(1 -1) translate(0 -1280)"><path d="M1664 32v768q-32 -36 -69 -66q-268 -206 -426 -338q-51 -43 -83 -67t-86.5 -48.5t-102.5 -24.5h-1h-1q-48 0 -102.5 24.5t-86.5 48.5t-83 67q-158 132 -426 338q-37 30 -69 66v-768q0 -13 9.5 -22.5t22.5 -9.5h1472q13 0 22.5 9.5t9.5 22.5zM1664 1083v11v13.5t-0.5 13 t-3 12.5t-5.5 9t-9 7.5t-14 2.5h-1472q-13 0 -22.5 -9.5t-9.5 -22.5q0 -168 147 -284q193 -152 401 -317q6 -5 35 -29.5t46 -37.5t44.5 -31.5t50.5 -27.5t43 -9h1h1q20 0 43 9t50.5 27.5t44.5 31.5t46 37.5t35 29.5q208 165 401 317q54 43 100.5 115.5t46.5 131.5z M1792 1120v-1088q0 -66 -47 -113t-113 -47h-1472q-66 0 -113 47t-47 113v1088q0 66 47 113t113 47h1472q66 0 113 -47t47 -113z" fill="black" /></g></svg>