<svg width="2048" height="2048" viewBox="-128 -384 2048 2048" xmlns="http://www.w3.org/2000/svg"><g transform="scale(1 -1) translate(0 -1280)"><path d="M1792 826v-794q0 -66 -47 -113t-113 -47h-1472q-66 0 -113 47t-47 113v794q44 -49 101 -87q362 -246 497 -345q57 -42 92.5 -65.5t94.5 -48t110 -24.5h1h1q51 0 110 24.5t94.5 48t92.5 65.5q170 123 498 345q57 39 100 87zM1792 1120q0 -79 -49 -151t-122 -123 q-376 -261 -468 -325q-10 -7 -42.5 -30.5t-54 -38t-52 -32.5t-57.5 -27t-50 -9h-1h-1q-23 0 -50 9t-57.5 27t-52 32.5t-54 38t-42.5 30.5q-91 64 -262 182.5t-205 142.5q-62 42 -117 115.5t-55 136.5q0 78 41.5 130t118.5 52h1472q65 0 112.5 -47t47.5 -113z" fill="black" /></g></svg>