<?xml version="1.0" encoding="utf-8"?>
<svg width="1792" height="1792" viewBox="0 0 1792 1792" xmlns="http://www.w3.org/2000/svg"><path d="M1474 913l39 51q8 11 6.5 23.5t-11.5 20.5q-43 34-126.5 98.5t-146.5 113-67 51.5q-39 32-60 48t-60.5 41-76.5 36.5-74 11.5h-2q-37 0-74-11.5t-76-36.5-61-41.5-60-47.5q-5-4-65-50.5t-143.5-111-122.5-94.5q-11-8-12.5-20.5t6.5-23.5l37-52q8-11 21.5-13t24.5 7q94 73 306 236 5 4 43.5 35t60.5 46.5 56.5 32.5 58.5 17h2q24 0 58.5-17t56.5-32.5 60.5-46.5 43.5-35q258-198 313-242 11-8 24-6.5t21 12.5zm190 719v-928q-90-83-159-139-91-74-389-304-3-2-43-35t-61-48-56-32.5-59-17.5h-2q-24 0-59 17.5t-56 32.5-61 48-43 35q-215 166-315.5 245.5t-129.5 104-82 74.5q-14 12-21 19v928q0 13 9.5 22.5t22.5 9.5h1472q13 0 22.5-9.5t9.5-22.5zm128-928v928q0 66-47 113t-113 47h-1472q-66 0-113-47t-47-113v-928q0-56 41-94 123-114 350-290.5t233-181.5q36-30 59-47.5t61.5-42 76-36.5 74.5-12h2q37 0 74.5 12t76 36.5 61.5 42 59 47.5q43 36 156 122t226 177 201 173q41 38 41 94z"/></svg>