<?xml version="1.0" encoding="utf-8"?>
<svg width="1792" height="1792" viewBox="0 0 1792 1792" xmlns="http://www.w3.org/2000/svg"><path d="M1792 654v978q0 66-47 113t-113 47h-1472q-66 0-113-47t-47-113v-978q0-15 11-24 8-7 39-34.5t41.5-36 45.5-37.5 70-55.5 96-73 143.5-107 192.5-140.5q5-4 52.5-40t71.5-52.5 64-35 69-18.5 69 18.5 65 35.5 71 52 52 40q110 80 192.5 140.5t143.5 107 96 73 70 55.5 45.5 37.5 41.5 36 39 34.5q11 9 11 24zm-564 585q263-191 345-252 11-8 12.5-20.5t-6.5-23.5l-38-52q-8-11-21-12.5t-24 6.5q-231 169-343 250-5 3-52 39t-71.5 52.5-64.5 35-69 18.5-69-18.5-64.5-35-71.5-52.5-52-39q-186-134-343-250-11-8-24-6.5t-21 12.5l-38 52q-8 11-6.5 23.5t12.5 20.5q82 61 345 252 10 8 50 38t65 47 64 39.5 77.5 33.5 75.5 11 75.5-11 79-34.5 64.5-39.5 65-47.5 48-36.5z"/></svg>