<?xml version="1.0" encoding="utf-8"?>
<svg width="1792" height="1792" viewBox="0 0 1792 1792" xmlns="http://www.w3.org/2000/svg"><path d="M896 816q-104-196-160-278-139-202-347-318-34-19-70-36-89-40-94-32t34 38l39 31q62 43 112.5 93.5t94.5 116.5 70.5 113 70.5 131q9 17 13 25 44 84 84 153t98 154 115.5 150 131 123.5 148.5 90.5q153 66 154 60 1-3-49-37-53-36-81-57-77-58-179-211t-185-310zm-347 543q-76-60-132.5-125t-98-143.5-71-154.5-58.5-186-52-209-60.5-252-76.5-289q273 0 497.5 36t379 92 271 144.5 185.5 172.5 110 198.5 56 199.5 12.5 198.5-9.5 173-20 143.5-13 107l323 327h-104l-281-285q-22 2-91.5 14t-121.5 19-138 6-160.5-17-167.5-59-179-111z"/></svg>