<?xml version="1.0" encoding="UTF-8"?>
<svg xmlns="http://www.w3.org/2000/svg" xmlns:xlink="http://www.w3.org/1999/xlink" width="2048" height="2048" viewBox="0 0 2048 2048" version="1.1">
<g>
<path d="M 1488 1435 L 1523 1594 C 1525 1602 1524 1609.5 1520 1616.5 C 1516 1623.5 1510.332031 1628.332031 1503 1631 L 1498 1632 C 1495.332031 1633.332031 1491.832031 1634.5 1487.5 1635.5 C 1483.167969 1636.5 1477.832031 1638 1471.5 1640 C 1465.167969 1642 1458 1643.832031 1450 1645.5 C 1442 1647.167969 1433.5 1648.832031 1424.5 1650.5 C 1415.5 1652.167969 1405.5 1653.832031 1394.5 1655.5 C 1383.5 1657.167969 1372.332031 1658.667969 1361 1660 C 1349.667969 1661.332031 1337.5 1662.332031 1324.5 1663 C 1311.5 1663.667969 1298.667969 1664 1286 1664 C 1130 1664 993.667969 1620.5 877 1533.5 C 760.332031 1446.5 681 1329.332031 639 1182 L 544 1182 C 535.332031 1182 527.832031 1178.832031 521.5 1172.5 C 515.167969 1166.167969 512 1158.667969 512 1150 L 512 1037 C 512 1028.332031 515.167969 1020.832031 521.5 1014.5 C 527.832031 1008.167969 535.332031 1005 544 1005 L 610 1005 C 608.667969 967 609 932 611 900 L 544 900 C 534.667969 900 527 897 521 891 C 515 885 512 877.332031 512 868 L 512 754 C 512 744.667969 515 737 521 731 C 527 725 534.667969 722 544 722 L 642 722 C 686.667969 582 767.832031 469.332031 885.5 384 C 1003.167969 298.667969 1136.667969 256 1286 256 C 1354 256 1418.667969 263.667969 1480 279 C 1487.332031 281 1494 286 1500 294 C 1504 301.332031 1505 309.332031 1503 318 L 1460 477 C 1458 485.667969 1453.332031 492.167969 1446 496.5 C 1438.667969 500.832031 1430.667969 501.667969 1422 499 L 1418 498 C 1415.332031 497.332031 1411.5 496.5 1406.5 495.5 L 1389 492 C 1389 492 1381.5 490.832031 1366.5 488.5 C 1351.5 486.167969 1342.832031 485.167969 1340.5 485.5 C 1338.167969 485.832031 1328.5 485 1311.5 483 C 1294.5 481 1284.667969 480.667969 1282 482 C 1198 482 1122.667969 503.332031 1056 546 C 989.332031 588.667969 939.332031 647.332031 906 722 L 1374 722 C 1384.667969 722 1393 726 1399 734 C 1405.667969 742 1408 750.667969 1406 760 L 1382 874 C 1378.667969 891.332031 1368 900 1350 900 L 862 900 C 860 924.667969 860 959.667969 862 1005 L 1321 1005 C 1331 1005 1339.332031 1009 1346 1017 C 1352 1025 1354 1034 1352 1044 L 1328 1156 C 1326.667969 1163.332031 1323 1169.5 1317 1174.5 C 1311 1179.5 1304.332031 1182 1297 1182 L 910 1182 C 942 1260 991.832031 1321.832031 1059.5 1367.5 C 1127.167969 1413.167969 1203.332031 1436 1288 1436 C 1300 1436 1312 1435.5 1324 1434.5 C 1336 1433.5 1347.167969 1432.332031 1357.5 1431 C 1367.832031 1429.667969 1377.667969 1428.167969 1387 1426.5 C 1396.332031 1424.832031 1404.5 1423.167969 1411.5 1421.5 C 1418.5 1419.832031 1424.667969 1418.332031 1430 1417 L 1442 1414 L 1447 1412 C 1455.667969 1408.667969 1464.332031 1409.332031 1473 1414 C 1481 1418.667969 1486 1425.667969 1488 1435 Z M 1488 1435 "/>
</g>
</svg>
