<svg width="2048" height="2048" viewBox="-512 -384 2048 2048" xmlns="http://www.w3.org/2000/svg"><g transform="scale(1 -1) translate(0 -1280)"><path d="M976 229l35 -159q3 -12 -3 -22.5t-17 -14.5l-5 -1q-4 -2 -10.5 -3.5t-16 -4.5t-21.5 -5.5t-25.5 -5t-30 -5t-33.5 -4.5t-36.5 -3t-38.5 -1q-234 0 -409 130.5t-238 351.5h-95q-13 0 -22.5 9.5t-9.5 22.5v113q0 13 9.5 22.5t22.5 9.5h66q-2 57 1 105h-67q-14 0 -23 9 t-9 23v114q0 14 9 23t23 9h98q67 210 243.5 338t400.5 128q102 0 194 -23q11 -3 20 -15q6 -11 3 -24l-43 -159q-3 -13 -14 -19.5t-24 -2.5l-4 1q-4 1 -11.5 2.5l-17.5 3.5t-22.5 3.5t-26 3t-29 2.5t-29.5 1q-126 0 -226 -64t-150 -176h468q16 0 25 -12q10 -12 7 -26 l-24 -114q-5 -26 -32 -26h-488q-3 -37 0 -105h459q15 0 25 -12q9 -12 6 -27l-24 -112q-2 -11 -11 -18.5t-20 -7.5h-387q48 -117 149.5 -185.5t228.5 -68.5q18 0 36 1.5t33.5 3.5t29.5 4.5t24.5 5t18.5 4.5l12 3l5 2q13 5 26 -2q12 -7 15 -21z" fill="black" /></g></svg>