<svg width="2048" height="2048" viewBox="-256 -384 2048 2048" xmlns="http://www.w3.org/2000/svg"><g transform="scale(1 -1) translate(0 -1280)"><path d="M768 1408q209 0 385.5 -103t279.5 -279.5t103 -385.5t-103 -385.5t-279.5 -279.5t-385.5 -103t-385.5 103t-279.5 279.5t-103 385.5t103 385.5t279.5 279.5t385.5 103zM896 161v190q0 14 -9 23.5t-22 9.5h-192q-13 0 -23 -10t-10 -23v-190q0 -13 10 -23t23 -10h192 q13 0 22 9.5t9 23.5zM894 505l18 621q0 12 -10 18q-10 8 -24 8h-220q-14 0 -24 -8q-10 -6 -10 -18l17 -621q0 -10 10 -17.5t24 -7.5h185q14 0 23.5 7.5t10.5 17.5z" fill="black" /></g></svg>