<?xml version="1.0" encoding="UTF-8"?>
<svg xmlns="http://www.w3.org/2000/svg" xmlns:xlink="http://www.w3.org/1999/xlink" width="2048" height="2048" viewBox="0 0 2048 2048" version="1.1">
<g>
<path d="M 1152 1503 L 1152 1313 C 1152 1303.667969 1148.832031 1295.832031 1142.5 1289.5 C 1136.167969 1283.167969 1128.667969 1280 1120 1280 L 928 1280 C 919.332031 1280 911.832031 1283.167969 905.5 1289.5 C 899.167969 1295.832031 896 1303.667969 896 1313 L 896 1503 C 896 1512.332031 899.167969 1520.167969 905.5 1526.5 C 911.832031 1532.832031 919.332031 1536 928 1536 L 1120 1536 C 1128.667969 1536 1136.167969 1532.832031 1142.5 1526.5 C 1148.832031 1520.167969 1152 1512.332031 1152 1503 Z M 1150 1129 L 1168 670 C 1168 662 1164.667969 655.667969 1158 651 C 1149.332031 643.667969 1141.332031 640 1134 640 L 914 640 C 906.667969 640 898.667969 643.667969 890 651 C 883.332031 655.667969 880 662.667969 880 672 L 897 1129 C 897 1135.667969 900.332031 1141.167969 907 1145.5 C 913.667969 1149.832031 921.667969 1152 931 1152 L 1116 1152 C 1125.332031 1152 1133.167969 1149.832031 1139.5 1145.5 C 1145.832031 1141.167969 1149.332031 1135.667969 1150 1129 Z M 1136 195 L 1904 1603 C 1927.332031 1645 1926.667969 1687 1902 1729 C 1890.667969 1748.332031 1875.167969 1763.667969 1855.5 1775 C 1835.832031 1786.332031 1814.667969 1792 1792 1792 L 256 1792 C 233.332031 1792 212.167969 1786.332031 192.5 1775 C 172.832031 1763.667969 157.332031 1748.332031 146 1729 C 121.332031 1687 120.667969 1645 144 1603 L 912 195 C 923.332031 174.332031 939 158 959 146 C 979 134 1000.667969 128 1024 128 C 1047.332031 128 1069 134 1089 146 C 1109 158 1124.667969 174.332031 1136 195 Z M 1136 195 "/>
</g>
</svg>
