<?xml version="1.0" encoding="UTF-8"?>
<svg xmlns="http://www.w3.org/2000/svg" xmlns:xlink="http://www.w3.org/1999/xlink" width="2048" height="2048" viewBox="0 0 2048 2048" version="1.1">
<g>
<path d="M 1024 256 C 1163.332031 256 1291.832031 290.332031 1409.5 359 C 1527.167969 427.667969 1620.332031 520.832031 1689 638.5 C 1757.667969 756.167969 1792 884.667969 1792 1024 C 1792 1163.332031 1757.667969 1291.832031 1689 1409.5 C 1620.332031 1527.167969 1527.167969 1620.332031 1409.5 1689 C 1291.832031 1757.667969 1163.332031 1792 1024 1792 C 884.667969 1792 756.167969 1757.667969 638.5 1689 C 520.832031 1620.332031 427.667969 1527.167969 359 1409.5 C 290.332031 1291.832031 256 1163.332031 256 1024 C 256 884.667969 290.332031 756.167969 359 638.5 C 427.667969 520.832031 520.832031 427.667969 638.5 359 C 756.167969 290.332031 884.667969 256 1024 256 Z M 1152 1503 L 1152 1313 C 1152 1303.667969 1149 1295.832031 1143 1289.5 C 1137 1283.167969 1129.667969 1280 1121 1280 L 929 1280 C 920.332031 1280 912.667969 1283.332031 906 1290 C 899.332031 1296.667969 896 1304.332031 896 1313 L 896 1503 C 896 1511.667969 899.332031 1519.332031 906 1526 C 912.667969 1532.667969 920.332031 1536 929 1536 L 1121 1536 C 1129.667969 1536 1137 1532.832031 1143 1526.5 C 1149 1520.167969 1152 1512.332031 1152 1503 Z M 1150 1159 L 1168 538 C 1168 530 1164.667969 524 1158 520 C 1151.332031 514.667969 1143.332031 512 1134 512 L 914 512 C 904.667969 512 896.667969 514.667969 890 520 C 883.332031 524 880 530 880 538 L 897 1159 C 897 1165.667969 900.332031 1171.5 907 1176.5 C 913.667969 1181.5 921.667969 1184 931 1184 L 1116 1184 C 1125.332031 1184 1133.167969 1181.5 1139.5 1176.5 C 1145.832031 1171.5 1149.332031 1165.667969 1150 1159 Z M 1150 1159 "/>
</g>
</svg>
