<svg width="2048" height="2048" viewBox="-128 -384 2048 2048" xmlns="http://www.w3.org/2000/svg"><g transform="scale(1 -1) translate(0 -1280)"><path d="M1024 161v190q0 14 -9.5 23.5t-22.5 9.5h-192q-13 0 -22.5 -9.5t-9.5 -23.5v-190q0 -14 9.5 -23.5t22.5 -9.5h192q13 0 22.5 9.5t9.5 23.5zM1022 535l18 459q0 12 -10 19q-13 11 -24 11h-220q-11 0 -24 -11q-10 -7 -10 -21l17 -457q0 -10 10 -16.5t24 -6.5h185 q14 0 23.5 6.5t10.5 16.5zM1008 1469l768 -1408q35 -63 -2 -126q-17 -29 -46.5 -46t-63.5 -17h-1536q-34 0 -63.5 17t-46.5 46q-37 63 -2 126l768 1408q17 31 47 49t65 18t65 -18t47 -49z" fill="black" /></g></svg>