<?xml version="1.0" encoding="UTF-8"?>
<svg xmlns="http://www.w3.org/2000/svg" xmlns:xlink="http://www.w3.org/1999/xlink" width="2048" height="2048" viewBox="0 0 2048 2048" version="1.1">
<g>
<path d="M 1216 1376 L 1216 1600 C 1216 1617.332031 1209.667969 1632.332031 1197 1645 C 1184.332031 1657.667969 1169.332031 1664 1152 1664 L 896 1664 C 878.667969 1664 863.667969 1657.667969 851 1645 C 838.332031 1632.332031 832 1617.332031 832 1600 L 832 1376 C 832 1358.667969 838.332031 1343.667969 851 1331 C 863.667969 1318.332031 878.667969 1312 896 1312 L 1152 1312 C 1169.332031 1312 1184.332031 1318.332031 1197 1331 C 1209.667969 1343.667969 1216 1358.667969 1216 1376 Z M 1246 320 L 1218 1088 C 1217.332031 1105.332031 1210.5 1120.332031 1197.5 1133 C 1184.5 1145.667969 1169.332031 1152 1152 1152 L 896 1152 C 878.667969 1152 863.5 1145.667969 850.5 1133 C 837.5 1120.332031 830.667969 1105.332031 830 1088 L 802 320 C 801.332031 302.667969 807.167969 287.667969 819.5 275 C 831.832031 262.332031 846.667969 256 864 256 L 1184 256 C 1201.332031 256 1216.167969 262.332031 1228.5 275 C 1240.832031 287.667969 1246.667969 302.667969 1246 320 Z M 1246 320 "/>
</g>
</svg>
