<?xml version="1.0" encoding="UTF-8"?>
<svg xmlns="http://www.w3.org/2000/svg" xmlns:xlink="http://www.w3.org/1999/xlink" width="2048" height="2048" viewBox="0 0 2048 2048" version="1.1">
<g>
<path d="M 683 1463 L 761 1322 C 703 1280 657.667969 1227 625 1163 C 592.332031 1099 576 1031.332031 576 960 C 576 879.332031 596.332031 804.332031 637 735 C 484.332031 813 357.332031 930.667969 256 1088 C 367.332031 1260 509.667969 1385 683 1463 Z M 1072 704 C 1072 690.667969 1067.332031 679.332031 1058 670 C 1048.667969 660.667969 1037.332031 656 1024 656 C 940.667969 656 869.167969 685.832031 809.5 745.5 C 749.832031 805.167969 720 876.667969 720 960 C 720 973.332031 724.667969 984.667969 734 994 C 743.332031 1003.332031 754.667969 1008 768 1008 C 781.332031 1008 792.667969 1003.332031 802 994 C 811.332031 984.667969 816 973.332031 816 960 C 816 902.667969 836.332031 853.667969 877 813 C 917.667969 772.332031 966.667969 752 1024 752 C 1037.332031 752 1048.667969 747.332031 1058 738 C 1067.332031 728.667969 1072 717.332031 1072 704 Z M 1435 513 C 1435 517.667969 1434.667969 520.667969 1434 522 C 1364 647.332031 1259 836 1119 1088 C 979 1340 873.667969 1529 803 1655 L 754 1744 C 747.332031 1754.667969 738 1760 726 1760 C 718 1760 673.332031 1736.667969 592 1690 C 581.332031 1683.332031 576 1674 576 1662 C 576 1654 590.667969 1625 620 1575 C 524.667969 1531.667969 436.832031 1474 356.5 1402 C 276.167969 1330 206.667969 1248.332031 148 1157 C 134.667969 1136.332031 128 1113.332031 128 1088 C 128 1062.667969 134.667969 1039.667969 148 1019 C 250 862.332031 376.667969 738.667969 528 648 C 679.332031 557.332031 844.667969 512 1024 512 C 1083.332031 512 1143.332031 517.667969 1204 529 L 1258 432 C 1264.667969 421.332031 1274 416 1286 416 C 1289.332031 416 1295.332031 418 1304 422 C 1312.667969 426 1323 431.167969 1335 437.5 C 1347 443.832031 1358 450 1368 456 C 1378 462 1388.5 468.167969 1399.5 474.5 C 1410.5 480.832031 1417 484.667969 1419 486 C 1429.667969 492.667969 1435 501.667969 1435 513 Z M 1472 960 C 1472 1052.667969 1445.667969 1137.167969 1393 1213.5 C 1340.332031 1289.832031 1270.667969 1344.667969 1184 1378 L 1464 876 C 1469.332031 906 1472 934 1472 960 Z M 1920 1088 C 1920 1111.332031 1913.332031 1134.332031 1900 1157 C 1874 1199.667969 1837.667969 1248 1791 1302 C 1691 1416.667969 1575.167969 1505.667969 1443.5 1569 C 1311.832031 1632.332031 1172 1664 1024 1664 L 1098 1532 C 1239.332031 1520 1370.167969 1474.332031 1490.5 1395 C 1610.832031 1315.667969 1711.332031 1213.332031 1792 1088 C 1715.332031 968.667969 1621.332031 870.667969 1510 794 L 1573 682 C 1636.332031 724.667969 1697.167969 775.667969 1755.5 835 C 1813.832031 894.332031 1862 955.667969 1900 1019 C 1913.332031 1041.667969 1920 1064.667969 1920 1088 Z M 1920 1088 "/>
</g>
</svg>
