<svg width="2048" height="2048" viewBox="-128 -384 2048 2048" xmlns="http://www.w3.org/2000/svg"><g transform="scale(1 -1) translate(0 -1280)"><path d="M1664 576q-152 236 -381 353q61 -104 61 -225q0 -185 -131.5 -316.5t-316.5 -131.5t-316.5 131.5t-131.5 316.5q0 121 61 225q-229 -117 -381 -353q133 -205 333.5 -326.5t434.5 -121.5t434.5 121.5t333.5 326.5zM944 960q0 20 -14 34t-34 14q-125 0 -214.5 -89.5 t-89.5 -214.5q0 -20 14 -34t34 -14t34 14t14 34q0 86 61 147t147 61q20 0 34 14t14 34zM1792 576q0 -34 -20 -69q-140 -230 -376.5 -368.5t-499.5 -138.5t-499.5 139t-376.5 368q-20 35 -20 69t20 69q140 229 376.5 368t499.5 139t499.5 -139t376.5 -368q20 -35 20 -69z" fill="black" /></g></svg>