<?xml version="1.0" encoding="UTF-8"?>
<svg xmlns="http://www.w3.org/2000/svg" xmlns:xlink="http://www.w3.org/1999/xlink" width="2048" height="2048" viewBox="0 0 2048 2048" version="1.1">
<g>
<path d="M 1792 1088 C 1690.667969 930.667969 1563.667969 813 1411 735 C 1451.667969 804.332031 1472 879.332031 1472 960 C 1472 1083.332031 1428.167969 1188.832031 1340.5 1276.5 C 1252.832031 1364.167969 1147.332031 1408 1024 1408 C 900.667969 1408 795.167969 1364.167969 707.5 1276.5 C 619.832031 1188.832031 576 1083.332031 576 960 C 576 879.332031 596.332031 804.332031 637 735 C 484.332031 813 357.332031 930.667969 256 1088 C 344.667969 1224.667969 455.832031 1333.5 589.5 1414.5 C 723.167969 1495.5 868 1536 1024 1536 C 1180 1536 1324.832031 1495.5 1458.5 1414.5 C 1592.167969 1333.5 1703.332031 1224.667969 1792 1088 Z M 1072 704 C 1072 690.667969 1067.332031 679.332031 1058 670 C 1048.667969 660.667969 1037.332031 656 1024 656 C 940.667969 656 869.167969 685.832031 809.5 745.5 C 749.832031 805.167969 720 876.667969 720 960 C 720 973.332031 724.667969 984.667969 734 994 C 743.332031 1003.332031 754.667969 1008 768 1008 C 781.332031 1008 792.667969 1003.332031 802 994 C 811.332031 984.667969 816 973.332031 816 960 C 816 902.667969 836.332031 853.667969 877 813 C 917.667969 772.332031 966.667969 752 1024 752 C 1037.332031 752 1048.667969 747.332031 1058 738 C 1067.332031 728.667969 1072 717.332031 1072 704 Z M 1920 1088 C 1920 1110.667969 1913.332031 1133.667969 1900 1157 C 1806.667969 1310.332031 1681.167969 1433.167969 1523.5 1525.5 C 1365.832031 1617.832031 1199.332031 1664 1024 1664 C 848.667969 1664 682.167969 1617.667969 524.5 1525 C 366.832031 1432.332031 241.332031 1309.667969 148 1157 C 134.667969 1133.667969 128 1110.667969 128 1088 C 128 1065.332031 134.667969 1042.332031 148 1019 C 241.332031 866.332031 366.832031 743.667969 524.5 651 C 682.167969 558.332031 848.667969 512 1024 512 C 1199.332031 512 1365.832031 558.332031 1523.5 651 C 1681.167969 743.667969 1806.667969 866.332031 1900 1019 C 1913.332031 1042.332031 1920 1065.332031 1920 1088 Z M 1920 1088 "/>
</g>
</svg>
