<?xml version="1.0" encoding="UTF-8"?>
<svg xmlns="http://www.w3.org/2000/svg" xmlns:xlink="http://www.w3.org/1999/xlink" width="2048" height="2048" viewBox="0 0 2048 2048" version="1.1">
<g>
<path d="M 173 1779 C 160.332031 1791.667969 149.667969 1796 141 1792 C 132.332031 1788 128 1777.332031 128 1760 L 128 288 C 128 270.667969 132.332031 260 141 256 C 149.667969 252 160.332031 256.332031 173 269 L 883 979 C 888.332031 984.332031 892.667969 990.667969 896 998 L 896 288 C 896 270.667969 900.332031 260 909 256 C 917.667969 252 928.332031 256.332031 941 269 L 1651 979 C 1656.332031 984.332031 1660.667969 990.667969 1664 998 L 1664 320 C 1664 302.667969 1670.332031 287.667969 1683 275 C 1695.667969 262.332031 1710.667969 256 1728 256 L 1856 256 C 1873.332031 256 1888.332031 262.332031 1901 275 C 1913.667969 287.667969 1920 302.667969 1920 320 L 1920 1728 C 1920 1745.332031 1913.667969 1760.332031 1901 1773 C 1888.332031 1785.667969 1873.332031 1792 1856 1792 L 1728 1792 C 1710.667969 1792 1695.667969 1785.667969 1683 1773 C 1670.332031 1760.332031 1664 1745.332031 1664 1728 L 1664 1050 C 1660.667969 1056.667969 1656.332031 1063 1651 1069 L 941 1779 C 928.332031 1791.667969 917.667969 1796 909 1792 C 900.332031 1788 896 1777.332031 896 1760 L 896 1050 C 892.667969 1056.667969 888.332031 1063 883 1069 Z M 173 1779 "/>
</g>
</svg>
