<?xml version="1.0" encoding="UTF-8"?>
<svg xmlns="http://www.w3.org/2000/svg" xmlns:xlink="http://www.w3.org/1999/xlink" width="2048" height="2048" viewBox="0 0 2048 2048" version="1.1">
<g>
<path d="M 1875 269 C 1887.667969 256.332031 1898.332031 252 1907 256 C 1915.667969 260 1920 270.667969 1920 288 L 1920 1760 C 1920 1777.332031 1915.667969 1788 1907 1792 C 1898.332031 1796 1887.667969 1791.667969 1875 1779 L 1165 1069 C 1159 1063 1154.667969 1056.667969 1152 1050 L 1152 1760 C 1152 1777.332031 1147.667969 1788 1139 1792 C 1130.332031 1796 1119.667969 1791.667969 1107 1779 L 397 1069 C 391 1063 386.667969 1056.667969 384 1050 L 384 1728 C 384 1745.332031 377.667969 1760.332031 365 1773 C 352.332031 1785.667969 337.332031 1792 320 1792 L 192 1792 C 174.667969 1792 159.667969 1785.667969 147 1773 C 134.332031 1760.332031 128 1745.332031 128 1728 L 128 320 C 128 302.667969 134.332031 287.667969 147 275 C 159.667969 262.332031 174.667969 256 192 256 L 320 256 C 337.332031 256 352.332031 262.332031 365 275 C 377.667969 287.667969 384 302.667969 384 320 L 384 998 C 386.667969 990.667969 391 984.332031 397 979 L 1107 269 C 1119.667969 256.332031 1130.332031 252 1139 256 C 1147.667969 260 1152 270.667969 1152 288 L 1152 998 C 1154.667969 990.667969 1159 984.332031 1165 979 Z M 1875 269 "/>
</g>
</svg>
