<svg width="2048" height="2048" viewBox="-384 -384 2048 2048" xmlns="http://www.w3.org/2000/svg"><g transform="scale(1 -1) translate(0 -1280)"><path d="M1280 480q0 -40 -28 -68t-68 -28q-51 0 -80 43l-227 341h-45v-132l247 -411q9 -15 9 -33q0 -26 -19 -45t-45 -19h-192v-272q0 -46 -33 -79t-79 -33h-160q-46 0 -79 33t-33 79v272h-192q-26 0 -45 19t-19 45q0 18 9 33l247 411v132h-45l-227 -341q-29 -43 -80 -43 q-40 0 -68 28t-28 68q0 29 16 53l256 384q73 107 176 107h384q103 0 176 -107l256 -384q16 -24 16 -53zM864 1280q0 -93 -65.5 -158.5t-158.5 -65.5t-158.5 65.5t-65.5 158.5t65.5 158.5t158.5 65.5t158.5 -65.5t65.5 -158.5z" fill="black" /></g></svg>