<?xml version="1.0" encoding="UTF-8"?>
<svg xmlns="http://www.w3.org/2000/svg" xmlns:xlink="http://www.w3.org/1999/xlink" width="2048" height="2048" viewBox="0 0 2048 2048" version="1.1">
<g>
<path d="M 1408 1504 L 1408 1440 C 1408 1430.667969 1405 1423 1399 1417 C 1393 1411 1385.332031 1408 1376 1408 L 672 1408 C 662.667969 1408 655 1411 649 1417 C 643 1423 640 1430.667969 640 1440 L 640 1504 C 640 1513.332031 643 1521 649 1527 C 655 1533 662.667969 1536 672 1536 L 1376 1536 C 1385.332031 1536 1393 1533 1399 1527 C 1405 1521 1408 1513.332031 1408 1504 Z M 1408 1248 L 1408 1184 C 1408 1174.667969 1405 1167 1399 1161 C 1393 1155 1385.332031 1152 1376 1152 L 672 1152 C 662.667969 1152 655 1155 649 1161 C 643 1167 640 1174.667969 640 1184 L 640 1248 C 640 1257.332031 643 1265 649 1271 C 655 1277 662.667969 1280 672 1280 L 1376 1280 C 1385.332031 1280 1393 1277 1399 1271 C 1405 1265 1408 1257.332031 1408 1248 Z M 1664 896 L 1664 1696 C 1664 1722.667969 1654.667969 1745.332031 1636 1764 C 1617.332031 1782.667969 1594.667969 1792 1568 1792 L 480 1792 C 453.332031 1792 430.667969 1782.667969 412 1764 C 393.332031 1745.332031 384 1722.667969 384 1696 L 384 352 C 384 325.332031 393.332031 302.667969 412 284 C 430.667969 265.332031 453.332031 256 480 256 L 1024 256 L 1024 800 C 1024 826.667969 1033.332031 849.332031 1052 868 C 1070.667969 886.667969 1093.332031 896 1120 896 Z M 1661 768 L 1152 768 L 1152 259 C 1206.667969 269 1250.667969 290.667969 1284 324 L 1596 636 C 1629.332031 669.332031 1651 713.332031 1661 768 Z M 1661 768 "/>
</g>
</svg>
