<?xml version="1.0" encoding="UTF-8"?>
<svg xmlns="http://www.w3.org/2000/svg" xmlns:xlink="http://www.w3.org/1999/xlink" width="2048" height="2048" viewBox="0 0 2048 2048" version="1.1">
<g>
<path d="M 1408 1312 L 1408 1376 C 1408 1385.332031 1405 1393 1399 1399 C 1393 1405 1385.332031 1408 1376 1408 L 672 1408 C 662.667969 1408 655 1405 649 1399 C 643 1393 640 1385.332031 640 1376 L 640 1312 C 640 1302.667969 643 1295 649 1289 C 655 1283 662.667969 1280 672 1280 L 1376 1280 C 1385.332031 1280 1393 1283 1399 1289 C 1405 1295 1408 1302.667969 1408 1312 Z M 1408 1056 L 1408 1120 C 1408 1129.332031 1405 1137 1399 1143 C 1393 1149 1385.332031 1152 1376 1152 L 672 1152 C 662.667969 1152 655 1149 649 1143 C 643 1137 640 1129.332031 640 1120 L 640 1056 C 640 1046.667969 643 1039 649 1033 C 655 1027 662.667969 1024 672 1024 L 1376 1024 C 1385.332031 1024 1393 1027 1399 1033 C 1405 1039 1408 1046.667969 1408 1056 Z M 512 1664 L 1536 1664 L 1536 896 L 1120 896 C 1093.332031 896 1070.667969 886.667969 1052 868 C 1033.332031 849.332031 1024 826.667969 1024 800 L 1024 384 L 512 384 Z M 1152 768 L 1528 768 C 1521.332031 748.667969 1514 735 1506 727 L 1193 414 C 1185 406 1171.332031 398.667969 1152 392 Z M 1664 800 L 1664 1696 C 1664 1722.667969 1654.667969 1745.332031 1636 1764 C 1617.332031 1782.667969 1594.667969 1792 1568 1792 L 480 1792 C 453.332031 1792 430.667969 1782.667969 412 1764 C 393.332031 1745.332031 384 1722.667969 384 1696 L 384 352 C 384 325.332031 393.332031 302.667969 412 284 C 430.667969 265.332031 453.332031 256 480 256 L 1120 256 C 1146.667969 256 1176 262.667969 1208 276 C 1240 289.332031 1265.332031 305.332031 1284 324 L 1596 636 C 1614.667969 654.667969 1630.667969 680 1644 712 C 1657.332031 744 1664 773.332031 1664 800 Z M 1664 800 "/>
</g>
</svg>
