<svg width="2048" height="2048" viewBox="-384 -384 2048 2048" xmlns="http://www.w3.org/2000/svg"><g transform="scale(1 -1) translate(0 -1280)"><path d="M1024 160v64q0 14 -9 23t-23 9h-704q-14 0 -23 -9t-9 -23v-64q0 -14 9 -23t23 -9h704q14 0 23 9t9 23zM1024 416v64q0 14 -9 23t-23 9h-704q-14 0 -23 -9t-9 -23v-64q0 -14 9 -23t23 -9h704q14 0 23 9t9 23zM1280 768v-800q0 -40 -28 -68t-68 -28h-1088q-40 0 -68 28 t-28 68v1344q0 40 28 68t68 28h544v-544q0 -40 28 -68t68 -28h544zM1277 896h-509v509q82 -15 132 -65l312 -312q50 -50 65 -132z" fill="black" /></g></svg>