<?xml version="1.0" encoding="UTF-8"?>
<svg xmlns="http://www.w3.org/2000/svg" xmlns:xlink="http://www.w3.org/1999/xlink" width="2048" height="2048" viewBox="0 0 2048 2048" version="1.1">
<g>
<path d="M 1728 1824 L 1728 1888 C 1728 1896.667969 1724.832031 1904.167969 1718.5 1910.5 C 1712.167969 1916.832031 1704.667969 1920 1696 1920 L 352 1920 C 343.332031 1920 335.832031 1916.832031 329.5 1910.5 C 323.167969 1904.167969 320 1896.667969 320 1888 L 320 1824 C 320 1815.332031 323.167969 1807.832031 329.5 1801.5 C 335.832031 1795.167969 343.332031 1792 352 1792 L 1696 1792 C 1704.667969 1792 1712.167969 1795.167969 1718.5 1801.5 C 1724.832031 1807.832031 1728 1815.332031 1728 1824 Z M 1472 768 C 1472 820 1463.832031 868 1447.5 912 C 1431.167969 956 1409.832031 993.5 1383.5 1024.5 C 1357.167969 1055.5 1328 1084.832031 1296 1112.5 C 1264 1140.167969 1232 1166 1200 1190 C 1168 1214 1138.832031 1238 1112.5 1262 C 1086.167969 1286 1064.832031 1313.167969 1048.5 1343.5 C 1032.167969 1373.832031 1024 1406 1024 1440 C 1024 1504 1046.332031 1578.667969 1091 1664 L 1087 1663 L 1088 1664 C 1028 1636.667969 974.667969 1609 928 1581 C 881.332031 1553 835.167969 1519.667969 789.5 1481 C 743.832031 1442.332031 706 1401.5 676 1358.5 C 646 1315.5 621.832031 1265.332031 603.5 1208 C 585.167969 1150.667969 576 1089.332031 576 1024 C 576 972 584.167969 924 600.5 880 C 616.832031 836 638.167969 798.5 664.5 767.5 C 690.832031 736.5 720 707.167969 752 679.5 C 784 651.832031 816 626 848 602 C 880 578 909.167969 554 935.5 530 C 961.832031 506 983.167969 478.832031 999.5 448.5 C 1015.832031 418.167969 1024 386 1024 352 C 1024 289.332031 1002 214.667969 958 128 L 961 129 L 960 128 C 1020 155.332031 1073.332031 183 1120 211 C 1166.667969 239 1212.832031 272.332031 1258.5 311 C 1304.167969 349.667969 1342 390.5 1372 433.5 C 1402 476.5 1426.167969 526.667969 1444.5 584 C 1462.832031 641.332031 1472 702.667969 1472 768 Z M 1472 768 "/>
</g>
</svg>
