<svg width="2048" height="2048" viewBox="-320 -384 2048 2048" xmlns="http://www.w3.org/2000/svg"><g transform="scale(1 -1) translate(0 -1280)"><path d="M512 1344q0 26 -19 45t-45 19t-45 -19t-19 -45t19 -45t45 -19t45 19t19 45zM1408 1376v-320q0 -16 -12 -25q-8 -7 -20 -7q-4 0 -7 1l-448 96q-11 2 -18 11t-7 20h-256v-102q111 -23 183.5 -111t72.5 -203v-800q0 -26 -19 -45t-45 -19h-512q-26 0 -45 19t-19 45v800 q0 106 62.5 190.5t161.5 114.5v111h-32q-59 0 -115 -23.5t-91.5 -53t-66 -66.5t-40.5 -53.5t-14 -24.5q-17 -35 -57 -35q-16 0 -29 7q-23 12 -31.5 37t3.5 49q5 10 14.5 26t37.5 53.5t60.5 70t85 67t108.5 52.5q-25 42 -25 86q0 66 47 113t113 47t113 -47t47 -113 q0 -33 -14 -64h302q0 11 7 20t18 11l448 96q3 1 7 1q12 0 20 -7q12 -9 12 -25z" fill="black" /></g></svg>