<?xml version="1.0" encoding="utf-8"?>
<svg width="1792" height="1792" viewBox="0 0 1792 1792" xmlns="http://www.w3.org/2000/svg"><path d="M1450 896q0 45-5 76l-236-14 224 78q-19 73-58 141l-214-103 177 158q-44 61-107 108l-157-178 103 215q-61 37-140 59l-79-228 14 240q-38 6-76 6t-76-6l14-238-78 226q-74-19-140-59l103-215-157 178q-59-43-108-108l178-158-214 104q-39-69-58-141l224-79-237 14q-5-42-5-76 0-35 5-77l238 14-225-79q19-73 58-140l214 104-177-159q46-61 107-108l158 178-103-215q67-39 140-58l77 224-13-236q36-6 75-6 38 0 76 6l-14 237 78-225q74 19 140 59l-103 214 158-178q61 47 107 108l-177 159 213-104q37 62 58 141l-224 78 237-14q5 31 5 77zm30 0q0-160-78.5-295.5t-213-214-292.5-78.5q-119 0-227 46.5t-186.5 125-124.5 187.5-46 229q0 119 46 228t124.5 187.5 186.5 125 227 46.5q158 0 292.5-78.5t213-214 78.5-294.5zm73-383v766l-657 383-657-383v-766l657-383zm-657 1206l708-412v-823l-708-411-708 411v823zm768-1271v896l-768 448-768-448v-896l768-448z"/></svg>