<?xml version="1.0" encoding="UTF-8"?>
<svg xmlns="http://www.w3.org/2000/svg" xmlns:xlink="http://www.w3.org/1999/xlink" width="2048" height="2048" viewBox="0 0 2048 2048" version="1.1">
<g>
<path d="M 448 384 C 448 432 426.667969 468.667969 384 494 L 384 1760 C 384 1768.667969 380.832031 1776.167969 374.5 1782.5 C 368.167969 1788.832031 360.667969 1792 352 1792 L 288 1792 C 279.332031 1792 271.832031 1788.832031 265.5 1782.5 C 259.167969 1776.167969 256 1768.667969 256 1760 L 256 494 C 213.332031 468.667969 192 432 192 384 C 192 348.667969 204.5 318.5 229.5 293.5 C 254.5 268.5 284.667969 256 320 256 C 355.332031 256 385.5 268.5 410.5 293.5 C 435.5 318.5 448 348.667969 448 384 Z M 1920 448 L 1920 1211 C 1920 1227.667969 1915.832031 1240.5 1907.5 1249.5 C 1899.167969 1258.5 1886 1267.667969 1868 1277 C 1724.667969 1354.332031 1601.667969 1393 1499 1393 C 1458.332031 1393 1417.167969 1385.667969 1375.5 1371 C 1333.832031 1356.332031 1297.667969 1340.332031 1267 1323 C 1236.332031 1305.667969 1197.832031 1289.667969 1151.5 1275 C 1105.167969 1260.332031 1057.667969 1253 1009 1253 C 881 1253 726.332031 1301.667969 545 1399 C 533.667969 1405 522.667969 1408 512 1408 C 494.667969 1408 479.667969 1401.667969 467 1389 C 454.332031 1376.332031 448 1361.332031 448 1344 L 448 602 C 448 580.667969 458.332031 562.332031 479 547 C 493 537.667969 519.332031 523.332031 558 504 C 715.332031 424 855.667969 384 979 384 C 1050.332031 384 1117 393.667969 1179 413 C 1241 432.332031 1314 461.667969 1398 501 C 1423.332031 513.667969 1452.667969 520 1486 520 C 1522 520 1561.167969 513 1603.5 499 C 1645.832031 485 1682.5 469.332031 1713.5 452 C 1744.5 434.667969 1773.832031 419 1801.5 405 C 1829.167969 391 1847.332031 384 1856 384 C 1873.332031 384 1888.332031 390.332031 1901 403 C 1913.667969 415.667969 1920 430.667969 1920 448 Z M 1920 448 "/>
</g>
</svg>
