<?xml version="1.0" encoding="UTF-8"?>
<svg xmlns="http://www.w3.org/2000/svg" xmlns:xlink="http://www.w3.org/1999/xlink" width="2048" height="2048" viewBox="0 0 2048 2048" version="1.1">
<g>
<path d="M 1792 1173 L 1792 557 C 1679.332031 617.667969 1577.332031 648 1486 648 C 1431.332031 648 1383 637.332031 1341 616 C 1274.332031 583.332031 1213 557.832031 1157 539.5 C 1101 521.167969 1041.667969 512 979 512 C 863.667969 512 729.332031 554.332031 576 639 L 576 1238 C 739.332031 1162.667969 883.667969 1125 1009 1125 C 1045.667969 1125 1080.167969 1127.5 1112.5 1132.5 C 1144.832031 1137.5 1177.5 1146.167969 1210.5 1158.5 C 1243.5 1170.832031 1269.167969 1181.167969 1287.5 1189.5 C 1305.832031 1197.832031 1333.332031 1211 1370 1229 L 1398 1243 C 1427.332031 1257.667969 1461 1265 1499 1265 C 1579 1265 1676.667969 1234.332031 1792 1173 Z M 448 384 C 448 407.332031 442.167969 428.667969 430.5 448 C 418.832031 467.332031 403.332031 482.667969 384 494 L 384 1760 C 384 1769.332031 381 1777 375 1783 C 369 1789 361.332031 1792 352 1792 L 288 1792 C 278.667969 1792 271 1789 265 1783 C 259 1777 256 1769.332031 256 1760 L 256 494 C 236.667969 482.667969 221.167969 467.332031 209.5 448 C 197.832031 428.667969 192 407.332031 192 384 C 192 348.667969 204.5 318.5 229.5 293.5 C 254.5 268.5 284.667969 256 320 256 C 355.332031 256 385.5 268.5 410.5 293.5 C 435.5 318.5 448 348.667969 448 384 Z M 1920 448 L 1920 1211 C 1920 1237 1908.332031 1256 1885 1268 C 1878.332031 1271.332031 1872.667969 1274.332031 1868 1277 C 1722.667969 1354.332031 1599.667969 1393 1499 1393 C 1440.332031 1393 1387.667969 1381.332031 1341 1358 L 1313 1344 C 1270.332031 1322 1237.332031 1306 1214 1296 C 1190.667969 1286 1160.332031 1276.332031 1123 1267 C 1085.667969 1257.667969 1047.667969 1253 1009 1253 C 941 1253 862.5 1267.667969 773.5 1297 C 684.5 1326.332031 608.332031 1360.332031 545 1399 C 535 1405 524 1408 512 1408 C 501.332031 1408 490.667969 1405.332031 480 1400 C 458.667969 1387.332031 448 1368.667969 448 1344 L 448 602 C 448 578.667969 458.332031 560.332031 479 547 C 502.332031 533 528.5 518.832031 557.5 504.5 C 586.5 490.167969 624.5 472.832031 671.5 452.5 C 718.5 432.167969 769.332031 415.667969 824 403 C 878.667969 390.332031 930.332031 384 979 384 C 1053.667969 384 1123.332031 394.332031 1188 415 C 1252.667969 435.667969 1322.332031 464.332031 1397 501 C 1422.332031 513.667969 1452 520 1486 520 C 1567.332031 520 1670.667969 482.667969 1796 408 C 1810.667969 400 1821 394.332031 1827 391 C 1847.667969 380.332031 1868.332031 381 1889 393 C 1909.667969 406.332031 1920 424.667969 1920 448 Z M 1920 448 "/>
</g>
</svg>
