<?xml version="1.0" encoding="UTF-8"?>
<svg xmlns="http://www.w3.org/2000/svg" xmlns:xlink="http://www.w3.org/1999/xlink" width="2048" height="2048" viewBox="0 0 2048 2048" version="1.1">
<g>
<path d="M 960 1128 L 960 936 C 839.332031 946.667969 711.332031 985.667969 576 1053 L 576 1238 C 712.667969 1174 840.667969 1137.332031 960 1128 Z M 960 710 L 960 513 C 845.332031 518.332031 717.332031 560.332031 576 639 L 576 828 C 719.332031 754 847.332031 714.667969 960 710 Z M 1792 1173 L 1792 989 C 1635.332031 1066.332031 1507.332031 1090 1408 1060 L 1408 836 C 1394.667969 832 1381.667969 827 1369 821 C 1365.667969 819 1354.667969 813.332031 1336 804 C 1317.332031 794.667969 1305.832031 789 1301.5 787 C 1297.167969 785 1286.667969 780 1270 772 C 1253.332031 764 1241.832031 758.832031 1235.5 756.5 C 1229.167969 754.167969 1218.332031 749.832031 1203 743.5 C 1187.667969 737.167969 1175.667969 733 1167 731 C 1158.332031 729 1146.667969 726.167969 1132 722.5 C 1117.332031 718.832031 1104.167969 716.332031 1092.5 715 C 1080.832031 713.667969 1067.667969 712.332031 1053 711 C 1038.332031 709.667969 1023.667969 709 1009 709 C 993.667969 709 977.332031 710 960 712 L 960 934 L 979 934 C 1047 934 1111.167969 943.667969 1171.5 963 C 1231.832031 982.332031 1297.667969 1009.667969 1369 1045 C 1381.667969 1051 1394.667969 1056 1408 1060 L 1408 1248 C 1436 1259.332031 1466.332031 1265 1499 1265 C 1579 1265 1676.667969 1234.332031 1792 1173 Z M 1792 746 L 1792 557 C 1679.332031 617.667969 1577.332031 648 1486 648 C 1456 648 1430 645.332031 1408 640 L 1408 836 C 1506.667969 864 1634.667969 834 1792 746 Z M 448 384 C 448 407.332031 442.167969 428.667969 430.5 448 C 418.832031 467.332031 403.332031 482.667969 384 494 L 384 1760 C 384 1769.332031 381 1777 375 1783 C 369 1789 361.332031 1792 352 1792 L 288 1792 C 278.667969 1792 271 1789 265 1783 C 259 1777 256 1769.332031 256 1760 L 256 494 C 236.667969 482.667969 221.167969 467.332031 209.5 448 C 197.832031 428.667969 192 407.332031 192 384 C 192 348.667969 204.5 318.5 229.5 293.5 C 254.5 268.5 284.667969 256 320 256 C 355.332031 256 385.5 268.5 410.5 293.5 C 435.5 318.5 448 348.667969 448 384 Z M 1920 448 L 1920 1211 C 1920 1237 1908.332031 1256 1885 1268 C 1878.332031 1271.332031 1872.667969 1274.332031 1868 1277 C 1722.667969 1354.332031 1599.667969 1393 1499 1393 C 1440.332031 1393 1387.667969 1381.332031 1341 1358 L 1313 1344 C 1270.332031 1322 1237.332031 1306 1214 1296 C 1190.667969 1286 1160.332031 1276.332031 1123 1267 C 1085.667969 1257.667969 1047.667969 1253 1009 1253 C 941 1253 862.5 1267.667969 773.5 1297 C 684.5 1326.332031 608.332031 1360.332031 545 1399 C 535 1405 524 1408 512 1408 C 501.332031 1408 490.667969 1405.332031 480 1400 C 458.667969 1387.332031 448 1368.667969 448 1344 L 448 602 C 448 578.667969 458.332031 560.332031 479 547 C 502.332031 533 528.5 518.832031 557.5 504.5 C 586.5 490.167969 624.5 472.832031 671.5 452.5 C 718.5 432.167969 769.332031 415.667969 824 403 C 878.667969 390.332031 930.332031 384 979 384 C 1053.667969 384 1123.332031 394.332031 1188 415 C 1252.667969 435.667969 1322.332031 464.332031 1397 501 C 1422.332031 513.667969 1452 520 1486 520 C 1567.332031 520 1670.667969 482.667969 1796 408 C 1810.667969 400 1821 394.332031 1827 391 C 1847.667969 380.332031 1868.332031 381 1889 393 C 1909.667969 406.332031 1920 424.667969 1920 448 Z M 1920 448 "/>
</g>
</svg>
