<?xml version="1.0" encoding="UTF-8"?>
<svg xmlns="http://www.w3.org/2000/svg" xmlns:xlink="http://www.w3.org/1999/xlink" width="2048" height="2048" viewBox="0 0 2048 2048" version="1.1">
<g>
<path d="M 1719 1576 C 1756.332031 1635.332031 1763.5 1686.167969 1740.5 1728.5 C 1717.5 1770.832031 1670.667969 1792 1600 1792 L 448 1792 C 377.332031 1792 330.5 1770.832031 307.5 1728.5 C 284.5 1686.167969 291.667969 1635.332031 329 1576 L 832 783 L 832 384 L 768 384 C 750.667969 384 735.667969 377.667969 723 365 C 710.332031 352.332031 704 337.332031 704 320 C 704 302.667969 710.332031 287.667969 723 275 C 735.667969 262.332031 750.667969 256 768 256 L 1280 256 C 1297.332031 256 1312.332031 262.332031 1325 275 C 1337.667969 287.667969 1344 302.667969 1344 320 C 1344 337.332031 1337.667969 352.332031 1325 365 C 1312.332031 377.667969 1297.332031 384 1280 384 L 1216 384 L 1216 783 Z M 940 851 L 668 1280 L 1380 1280 L 1108 851 L 1088 820 L 1088 384 L 960 384 L 960 820 Z M 940 851 "/>
</g>
</svg>
