<?xml version="1.0" encoding="UTF-8"?>
<svg xmlns="http://www.w3.org/2000/svg" xmlns:xlink="http://www.w3.org/1999/xlink" width="2048" height="2048" viewBox="0 0 2048 2048" version="1.1">
<g>
<path d="M 1504 256 C 1583.332031 256 1651.167969 284.167969 1707.5 340.5 C 1763.832031 396.832031 1792 464.667969 1792 544 L 1792 1504 C 1792 1583.332031 1763.832031 1651.167969 1707.5 1707.5 C 1651.167969 1763.832031 1583.332031 1792 1504 1792 L 544 1792 C 464.667969 1792 396.832031 1763.832031 340.5 1707.5 C 284.167969 1651.167969 256 1583.332031 256 1504 L 256 544 C 256 464.667969 284.167969 396.832031 340.5 340.5 C 396.832031 284.167969 464.667969 256 544 256 Z M 954 1024 C 954 965.332031 933.332031 915.332031 892 874 C 850.667969 832.667969 800.667969 812 742 812 C 683.332031 812 633.332031 832.667969 592 874 C 550.667969 915.332031 530 965.332031 530 1024 C 530 1082.667969 550.667969 1132.667969 592 1174 C 633.332031 1215.332031 683.332031 1236 742 1236 C 800.667969 1236 850.667969 1215.332031 892 1174 C 933.332031 1132.667969 954 1082.667969 954 1024 Z M 1518 1024 C 1518 965.332031 1497.332031 915.332031 1456 874 C 1414.667969 832.667969 1364.667969 812 1306 812 C 1247.332031 812 1197.332031 832.667969 1156 874 C 1114.667969 915.332031 1094 965.332031 1094 1024 C 1094 1082.667969 1114.667969 1132.667969 1156 1174 C 1197.332031 1215.332031 1247.332031 1236 1306 1236 C 1364.667969 1236 1414.667969 1215.332031 1456 1174 C 1497.332031 1132.667969 1518 1082.667969 1518 1024 Z M 1518 1024 "/>
</g>
</svg>
