<?xml version="1.0" encoding="UTF-8"?>
<svg xmlns="http://www.w3.org/2000/svg" xmlns:xlink="http://www.w3.org/1999/xlink" width="2048" height="2048" viewBox="0 0 2048 2048" version="1.1">
<g>
<path d="M 1943 1080 C 1943 1100.667969 1932.667969 1122.667969 1912 1146 L 1576 1542 C 1547.332031 1576 1507.167969 1604.832031 1455.5 1628.5 C 1403.832031 1652.167969 1356 1664 1312 1664 L 224 1664 C 201.332031 1664 181.167969 1659.667969 163.5 1651 C 145.832031 1642.332031 137 1628 137 1608 C 137 1587.332031 147.332031 1565.332031 168 1542 L 504 1146 C 532.667969 1112 572.832031 1083.167969 624.5 1059.5 C 676.167969 1035.832031 724 1024 768 1024 L 1856 1024 C 1878.667969 1024 1898.832031 1028.332031 1916.5 1037 C 1934.167969 1045.667969 1943 1060 1943 1080 Z M 1600 736 L 1600 896 L 768 896 C 705.332031 896 639.667969 911.832031 571 943.5 C 502.332031 975.167969 447.667969 1015 407 1063 L 70 1459 L 65 1465 C 65 1462.332031 64.832031 1458.167969 64.5 1452.5 C 64.167969 1446.832031 64 1442.667969 64 1440 L 64 480 C 64 418.667969 86 366 130 322 C 174 278 226.667969 256 288 256 L 608 256 C 669.332031 256 722 278 766 322 C 810 366 832 418.667969 832 480 L 832 512 L 1376 512 C 1437.332031 512 1490 534 1534 578 C 1578 622 1600 674.667969 1600 736 Z M 1600 736 "/>
</g>
</svg>
