<svg width="2048" height="2048" viewBox="-64 -384 2048 2048" xmlns="http://www.w3.org/2000/svg"><g transform="scale(1 -1) translate(0 -1280)"><path d="M1781 605q0 35 -53 35h-1088q-40 0 -85.5 -21.5t-71.5 -52.5l-294 -363q-18 -24 -18 -40q0 -35 53 -35h1088q40 0 86 22t71 53l294 363q18 22 18 39zM640 768h768v160q0 40 -28 68t-68 28h-576q-40 0 -68 28t-28 68v64q0 40 -28 68t-68 28h-320q-40 0 -68 -28t-28 -68 v-853l256 315q44 53 116 87.5t140 34.5zM1909 605q0 -62 -46 -120l-295 -363q-43 -53 -116 -87.5t-140 -34.5h-1088q-92 0 -158 66t-66 158v960q0 92 66 158t158 66h320q92 0 158 -66t66 -158v-32h544q92 0 158 -66t66 -158v-160h192q54 0 99 -24.5t67 -70.5q15 -32 15 -68z " fill="black" /></g></svg>