<?xml version="1.0" encoding="UTF-8"?>
<svg xmlns="http://www.w3.org/2000/svg" xmlns:xlink="http://www.w3.org/1999/xlink" width="2048" height="2048" viewBox="0 0 2048 2048" version="1.1">
<g>
<path d="M 1845 1059 C 1845 1035.667969 1827.332031 1024 1792 1024 L 704 1024 C 677.332031 1024 648.832031 1031.167969 618.5 1045.5 C 588.167969 1059.832031 564.332031 1077.332031 547 1098 L 253 1461 C 241 1477 235 1490.332031 235 1501 C 235 1524.332031 252.667969 1536 288 1536 L 1376 1536 C 1402.667969 1536 1431.332031 1528.667969 1462 1514 C 1492.667969 1499.332031 1516.332031 1481.667969 1533 1461 L 1827 1098 C 1839 1083.332031 1845 1070.332031 1845 1059 Z M 704 896 L 1472 896 L 1472 736 C 1472 709.332031 1462.667969 686.667969 1444 668 C 1425.332031 649.332031 1402.667969 640 1376 640 L 800 640 C 773.332031 640 750.667969 630.667969 732 612 C 713.332031 593.332031 704 570.667969 704 544 L 704 480 C 704 453.332031 694.667969 430.667969 676 412 C 657.332031 393.332031 634.667969 384 608 384 L 288 384 C 261.332031 384 238.667969 393.332031 220 412 C 201.332031 430.667969 192 453.332031 192 480 L 192 1333 L 448 1018 C 477.332031 982.667969 516 953.5 564 930.5 C 612 907.5 658.667969 896 704 896 Z M 1973 1059 C 1973 1100.332031 1957.667969 1140.332031 1927 1179 L 1632 1542 C 1603.332031 1577.332031 1564.667969 1606.5 1516 1629.5 C 1467.332031 1652.5 1420.667969 1664 1376 1664 L 288 1664 C 226.667969 1664 174 1642 130 1598 C 86 1554 64 1501.332031 64 1440 L 64 480 C 64 418.667969 86 366 130 322 C 174 278 226.667969 256 288 256 L 608 256 C 669.332031 256 722 278 766 322 C 810 366 832 418.667969 832 480 L 832 512 L 1376 512 C 1437.332031 512 1490 534 1534 578 C 1578 622 1600 674.667969 1600 736 L 1600 896 L 1792 896 C 1828 896 1861 904.167969 1891 920.5 C 1921 936.832031 1943.332031 960.332031 1958 991 C 1968 1012.332031 1973 1035 1973 1059 Z M 1973 1059 "/>
</g>
</svg>
