<?xml version="1.0" encoding="UTF-8"?>
<svg xmlns="http://www.w3.org/2000/svg" xmlns:xlink="http://www.w3.org/1999/xlink" width="2048" height="2048" viewBox="0 0 2048 2048" version="1.1">
<g>
<path d="M 1728 1440 L 1728 736 C 1728 709.332031 1718.667969 686.667969 1700 668 C 1681.332031 649.332031 1658.667969 640 1632 640 L 928 640 C 901.332031 640 878.667969 630.667969 860 612 C 841.332031 593.332031 832 570.667969 832 544 L 832 480 C 832 453.332031 822.667969 430.667969 804 412 C 785.332031 393.332031 762.667969 384 736 384 L 416 384 C 389.332031 384 366.667969 393.332031 348 412 C 329.332031 430.667969 320 453.332031 320 480 L 320 1440 C 320 1466.667969 329.332031 1489.332031 348 1508 C 366.667969 1526.667969 389.332031 1536 416 1536 L 1632 1536 C 1658.667969 1536 1681.332031 1526.667969 1700 1508 C 1718.667969 1489.332031 1728 1466.667969 1728 1440 Z M 1856 736 L 1856 1440 C 1856 1501.332031 1834 1554 1790 1598 C 1746 1642 1693.332031 1664 1632 1664 L 416 1664 C 354.667969 1664 302 1642 258 1598 C 214 1554 192 1501.332031 192 1440 L 192 480 C 192 418.667969 214 366 258 322 C 302 278 354.667969 256 416 256 L 736 256 C 797.332031 256 850 278 894 322 C 938 366 960 418.667969 960 480 L 960 512 L 1632 512 C 1693.332031 512 1746 534 1790 578 C 1834 622 1856 674.667969 1856 736 Z M 1856 736 "/>
</g>
</svg>
