<?xml version="1.0" encoding="utf-8"?>
<svg width="1792" height="1792" viewBox="0 0 1792 1792" xmlns="http://www.w3.org/2000/svg"><path d="M640 1008v-224q0-16-16-16h-96q-16 0-16 16v224q0 16 16 16h96q16 0 16-16zm512 0v-224q0-16-16-16h-96q-16 0-16 16v224q0 16 16 16h96q16 0 16-16zm512 32v752h-640v-320q0-80-56-136t-136-56-136 56-56 136v320h-640v-752q0-16 16-16h96q16 0 16 16v112h128v-624q0-16 16-16h96q16 0 16 16v112h128v-112q0-16 16-16h96q16 0 16 16v112h128v-112q0-6 2.5-9.5t8.5-5 9.5-2 11.5 0 9 .5v-391q-32-15-32-50 0-23 16.5-39t38.5-16 38.5 16 16.5 39q0 35-32 50v17q45-10 83-10 21 0 59.5 7.5t54.5 7.5q17 0 47-7.5t37-7.5q16 0 16 16v210q0 15-35 21.5t-62 6.5q-18 0-54.5-7.5t-55.5-7.5q-40 0-90 12v133q1 0 9-.5t11.5 0 9.5 2 8.5 5 2.5 9.5v112h128v-112q0-16 16-16h96q16 0 16 16v112h128v-112q0-16 16-16h96q16 0 16 16v624h128v-112q0-16 16-16h96q16 0 16 16z"/></svg>