<?xml version="1.0" encoding="UTF-8"?>
<svg xmlns="http://www.w3.org/2000/svg" xmlns:xlink="http://www.w3.org/1999/xlink" width="2048" height="2048" viewBox="0 0 2048 2048" version="1.1">
<g>
<path d="M 1675 1152 L 1088 1739 C 1053.332031 1774.332031 1010.832031 1792 960.5 1792 C 910.167969 1792 867.332031 1774.332031 832 1739 L 245 1152 C 209.667969 1116.667969 192 1074 192 1024 C 192 974 209.667969 931.332031 245 896 L 832 309 C 867.332031 273.667969 910 256 960 256 C 1010 256 1052.667969 273.667969 1088 309 L 1353 574 L 955 973 L 767 785 C 739 757 706 743 668 743 C 628.667969 743 595.332031 756.667969 568 784 L 448 905 C 420 931.667969 406 964.667969 406 1004 C 406 1042.667969 420 1076 448 1104 L 854 1512 C 874 1530.667969 896.332031 1543 921 1549 L 927 1553 L 955 1553 C 995 1553 1028 1539.332031 1054 1512 L 1673 893 L 1675 896 C 1710.332031 931.332031 1728 974 1728 1024 C 1728 1074 1710.332031 1116.667969 1675 1152 Z M 1598 526 L 1718 646 C 1727.332031 656 1732 668 1732 682 C 1732 696 1727.332031 708 1718 718 L 988 1448 C 976.667969 1458 964.332031 1463 951 1463 C 948.332031 1463 946.332031 1462.667969 945 1462 C 933 1460.667969 923 1456 915 1448 L 508 1040 C 498.667969 1030 494 1018 494 1004 C 494 990 498.667969 978.332031 508 969 L 629 849 C 637.667969 839 649.332031 834 664 834 C 678.667969 834 690.667969 839 700 849 L 952 1101 L 1526 526 C 1536 516 1548 511 1562 511 C 1576 511 1588 516 1598 526 Z M 1598 526 "/>
</g>
</svg>
