<svg width="2048" height="2048" viewBox="-192 -384 2048 2048" xmlns="http://www.w3.org/2000/svg"><g transform="scale(1 -1) translate(0 -1280)"><path d="M1483 512l-587 -587q-52 -53 -127.5 -53t-128.5 53l-587 587q-53 53 -53 128t53 128l587 587q53 53 128 53t128 -53l265 -265l-398 -399l-188 188q-42 42 -99 42q-59 0 -100 -41l-120 -121q-42 -40 -42 -99q0 -58 42 -100l406 -408q30 -28 67 -37l6 -4h28q60 0 99 41 l619 619l2 -3q53 -53 53 -128t-53 -128zM1406 1138l120 -120q14 -15 14 -36t-14 -36l-730 -730q-17 -15 -37 -15v0q-4 0 -6 1q-18 2 -30 14l-407 408q-14 15 -14 36t14 35l121 120q13 15 35 15t36 -15l252 -252l574 575q15 15 36 15t36 -15z" fill="black" /></g></svg>