<?xml version="1.0" encoding="UTF-8"?>
<svg xmlns="http://www.w3.org/2000/svg" xmlns:xlink="http://www.w3.org/1999/xlink" width="2048" height="2048" viewBox="0 0 2048 2048" version="1.1">
<g>
<path d="M 896 1216 L 896 1088 C 896 1078.667969 893 1071 887 1065 C 881 1059 873.332031 1056 864 1056 L 672 1056 L 672 864 C 672 854.667969 669 847 663 841 C 657 835 649.332031 832 640 832 L 512 832 C 502.667969 832 495 835 489 841 C 483 847 480 854.667969 480 864 L 480 1056 L 288 1056 C 278.667969 1056 271 1059 265 1065 C 259 1071 256 1078.667969 256 1088 L 256 1216 C 256 1225.332031 259 1233 265 1239 C 271 1245 278.667969 1248 288 1248 L 480 1248 L 480 1440 C 480 1449.332031 483 1457 489 1463 C 495 1469 502.667969 1472 512 1472 L 640 1472 C 649.332031 1472 657 1469 663 1463 C 669 1457 672 1449.332031 672 1440 L 672 1248 L 864 1248 C 873.332031 1248 881 1245 887 1239 C 893 1233 896 1225.332031 896 1216 Z M 1472 1280 C 1472 1244.667969 1459.5 1214.5 1434.5 1189.5 C 1409.5 1164.5 1379.332031 1152 1344 1152 C 1308.667969 1152 1278.5 1164.5 1253.5 1189.5 C 1228.5 1214.5 1216 1244.667969 1216 1280 C 1216 1315.332031 1228.5 1345.5 1253.5 1370.5 C 1278.5 1395.5 1308.667969 1408 1344 1408 C 1379.332031 1408 1409.5 1395.5 1434.5 1370.5 C 1459.5 1345.5 1472 1315.332031 1472 1280 Z M 1728 1024 C 1728 988.667969 1715.5 958.5 1690.5 933.5 C 1665.5 908.5 1635.332031 896 1600 896 C 1564.667969 896 1534.5 908.5 1509.5 933.5 C 1484.5 958.5 1472 988.667969 1472 1024 C 1472 1059.332031 1484.5 1089.5 1509.5 1114.5 C 1534.5 1139.5 1564.667969 1152 1600 1152 C 1635.332031 1152 1665.5 1139.5 1690.5 1114.5 C 1715.5 1089.5 1728 1059.332031 1728 1024 Z M 1984 1152 C 1984 1293.332031 1934 1414 1834 1514 C 1734 1614 1613.332031 1664 1472 1664 C 1344 1664 1231.332031 1621.332031 1134 1536 L 914 1536 C 816.667969 1621.332031 704 1664 576 1664 C 434.667969 1664 314 1614 214 1514 C 114 1414 64 1293.332031 64 1152 C 64 1010.667969 114 890 214 790 C 314 690 434.667969 640 576 640 L 1472 640 C 1613.332031 640 1734 690 1834 790 C 1934 890 1984 1010.667969 1984 1152 Z M 1984 1152 "/>
</g>
</svg>
