<svg width="2048" height="2048" viewBox="-64 -384 2048 2048" xmlns="http://www.w3.org/2000/svg"><g transform="scale(1 -1) translate(0 -1280)"><path d="M832 448v128q0 14 -9 23t-23 9h-192v192q0 14 -9 23t-23 9h-128q-14 0 -23 -9t-9 -23v-192h-192q-14 0 -23 -9t-9 -23v-128q0 -14 9 -23t23 -9h192v-192q0 -14 9 -23t23 -9h128q14 0 23 9t9 23v192h192q14 0 23 9t9 23zM1408 384q0 53 -37.5 90.5t-90.5 37.5t-90.5 -37.5 t-37.5 -90.5t37.5 -90.5t90.5 -37.5t90.5 37.5t37.5 90.5zM1664 640q0 53 -37.5 90.5t-90.5 37.5t-90.5 -37.5t-37.5 -90.5t37.5 -90.5t90.5 -37.5t90.5 37.5t37.5 90.5zM1920 512q0 -212 -150 -362t-362 -150q-192 0 -338 128h-220q-146 -128 -338 -128q-212 0 -362 150 t-150 362t150 362t362 150h896q212 0 362 -150t150 -362z" fill="black" /></g></svg>