<svg width="2048" height="2048" viewBox="-128 -384 2048 2048" xmlns="http://www.w3.org/2000/svg"><g transform="scale(1 -1) translate(0 -1280)"><path d="M1771 0q0 -53 -37 -90l-107 -108q-39 -37 -91 -37q-53 0 -90 37l-363 364q-38 36 -38 90q0 53 43 96l-256 256l-126 -126q-14 -14 -34 -14t-34 14q2 -2 12.5 -12t12.5 -13t10 -11.5t10 -13.5t6 -13.5t5.5 -16.5t1.5 -18q0 -38 -28 -68q-3 -3 -16.5 -18t-19 -20.5 t-18.5 -16.5t-22 -15.5t-22 -9t-26 -4.5q-40 0 -68 28l-408 408q-28 28 -28 68q0 13 4.5 26t9 22t15.5 22t16.5 18.5t20.5 19t18 16.5q30 28 68 28q10 0 18 -1.5t16.5 -5.5t13.5 -6t13.5 -10t11.5 -10t13 -12.5t12 -12.5q-14 14 -14 34t14 34l348 348q14 14 34 14t34 -14 q-2 2 -12.5 12t-12.5 13t-10 11.5t-10 13.5t-6 13.5t-5.5 16.5t-1.5 18q0 38 28 68q3 3 16.5 18t19 20.5t18.5 16.5t22 15.5t22 9t26 4.5q40 0 68 -28l408 -408q28 -28 28 -68q0 -13 -4.5 -26t-9 -22t-15.5 -22t-16.5 -18.5t-20.5 -19t-18 -16.5q-30 -28 -68 -28 q-10 0 -18 1.5t-16.5 5.5t-13.5 6t-13.5 10t-11.5 10t-13 12.5t-12 12.5q14 -14 14 -34t-14 -34l-126 -126l256 -256q43 43 96 43q52 0 91 -37l363 -363q37 -39 37 -91z" fill="black" /></g></svg>