<?xml version="1.0" encoding="UTF-8"?>
<svg xmlns="http://www.w3.org/2000/svg" xmlns:xlink="http://www.w3.org/1999/xlink" width="2048" height="2048" viewBox="0 0 2048 2048" version="1.1">
<g>
<path d="M 1899 1664 C 1899 1699.332031 1886.667969 1729.332031 1862 1754 L 1755 1862 C 1729 1886.667969 1698.667969 1899 1664 1899 C 1628.667969 1899 1598.667969 1886.667969 1574 1862 L 1211 1498 C 1185.667969 1474 1173 1444 1173 1408 C 1173 1372.667969 1187.332031 1340.667969 1216 1312 L 960 1056 L 834 1182 C 824.667969 1191.332031 813.332031 1196 800 1196 C 786.667969 1196 775.332031 1191.332031 766 1182 C 767.332031 1183.332031 771.5 1187.332031 778.5 1194 C 785.5 1200.667969 789.667969 1205 791 1207 C 792.332031 1209 795.667969 1212.832031 801 1218.5 C 806.332031 1224.167969 809.667969 1228.667969 811 1232 C 812.332031 1235.332031 814.332031 1239.832031 817 1245.5 C 819.667969 1251.167969 821.5 1256.667969 822.5 1262 C 823.5 1267.332031 824 1273.332031 824 1280 C 824 1305.332031 814.667969 1328 796 1348 C 794 1350 788.5 1356 779.5 1366 C 770.5 1376 764.167969 1382.832031 760.5 1386.5 C 756.832031 1390.167969 750.667969 1395.667969 742 1403 C 733.332031 1410.332031 726 1415.5 720 1418.5 C 714 1421.5 706.667969 1424.5 698 1427.5 C 689.332031 1430.5 680.667969 1432 672 1432 C 645.332031 1432 622.667969 1422.667969 604 1404 L 196 996 C 177.332031 977.332031 168 954.667969 168 928 C 168 919.332031 169.5 910.667969 172.5 902 C 175.5 893.332031 178.5 886 181.5 880 C 184.5 874 189.667969 866.667969 197 858 C 204.332031 849.332031 209.832031 843.167969 213.5 839.5 C 217.167969 835.832031 224 829.5 234 820.5 C 244 811.5 250 806 252 804 C 272 785.332031 294.667969 776 320 776 C 326.667969 776 332.667969 776.5 338 777.5 C 343.332031 778.5 348.832031 780.332031 354.5 783 C 360.167969 785.667969 364.667969 787.667969 368 789 C 371.332031 790.332031 375.832031 793.667969 381.5 799 C 387.167969 804.332031 391 807.667969 393 809 C 395 810.332031 399.332031 814.5 406 821.5 C 412.667969 828.5 416.667969 832.667969 418 834 C 408.667969 824.667969 404 813.332031 404 800 C 404 786.667969 408.667969 775.332031 418 766 L 766 418 C 775.332031 408.667969 786.667969 404 800 404 C 813.332031 404 824.667969 408.667969 834 418 C 832.667969 416.667969 828.5 412.667969 821.5 406 C 814.5 399.332031 810.332031 395 809 393 C 807.667969 391 804.332031 387.167969 799 381.5 C 793.667969 375.832031 790.332031 371.332031 789 368 C 787.667969 364.667969 785.667969 360.167969 783 354.5 C 780.332031 348.832031 778.5 343.332031 777.5 338 C 776.5 332.667969 776 326.667969 776 320 C 776 294.667969 785.332031 272 804 252 C 806 250 811.5 244 820.5 234 C 829.5 224 835.832031 217.167969 839.5 213.5 C 843.167969 209.832031 849.332031 204.332031 858 197 C 866.667969 189.667969 874 184.5 880 181.5 C 886 178.5 893.332031 175.5 902 172.5 C 910.667969 169.5 919.332031 168 928 168 C 954.667969 168 977.332031 177.332031 996 196 L 1404 604 C 1422.667969 622.667969 1432 645.332031 1432 672 C 1432 680.667969 1430.5 689.332031 1427.5 698 C 1424.5 706.667969 1421.5 714 1418.5 720 C 1415.5 726 1410.332031 733.332031 1403 742 C 1395.667969 750.667969 1390.167969 756.832031 1386.5 760.5 C 1382.832031 764.167969 1376 770.5 1366 779.5 C 1356 788.5 1350 794 1348 796 C 1328 814.667969 1305.332031 824 1280 824 C 1273.332031 824 1267.332031 823.5 1262 822.5 C 1256.667969 821.5 1251.167969 819.667969 1245.5 817 C 1239.832031 814.332031 1235.332031 812.332031 1232 811 C 1228.667969 809.667969 1224.167969 806.332031 1218.5 801 C 1212.832031 795.667969 1209 792.332031 1207 791 C 1205 789.667969 1200.667969 785.5 1194 778.5 C 1187.332031 771.5 1183.332031 767.332031 1182 766 C 1191.332031 775.332031 1196 786.667969 1196 800 C 1196 813.332031 1191.332031 824.667969 1182 834 L 1056 960 L 1312 1216 C 1340.667969 1187.332031 1372.667969 1173 1408 1173 C 1442.667969 1173 1473 1185.332031 1499 1210 L 1862 1573 C 1886.667969 1599 1899 1629.332031 1899 1664 Z M 1899 1664 "/>
</g>
</svg>
