<?xml version="1.0" encoding="UTF-8"?>
<svg xmlns="http://www.w3.org/2000/svg" xmlns:xlink="http://www.w3.org/1999/xlink" width="2048" height="2048" viewBox="0 0 2048 2048" version="1.1">
<g>
<path d="M 1532 1265 L 1532 1632 C 1532 1641.332031 1529 1649 1523 1655 C 1517 1661 1509.332031 1664 1500 1664 L 544 1664 C 534.667969 1664 527 1661 521 1655 C 515 1649 512 1641.332031 512 1632 L 512 1482 C 512 1473.332031 515.167969 1465.832031 521.5 1459.5 C 527.832031 1453.167969 535.332031 1450 544 1450 L 641 1450 L 641 1067 L 546 1067 C 536.667969 1067 529 1063.832031 523 1057.5 C 517 1051.167969 514 1043.667969 514 1035 L 514 904 C 514 894.667969 517 887 523 881 C 529 875 536.667969 872 546 872 L 641 872 L 641 649 C 641 535 682.167969 441 764.5 367 C 846.832031 293 951.667969 256 1079 256 C 1202.332031 256 1314 297.667969 1414 381 C 1420 386.332031 1423.332031 393.167969 1424 401.5 C 1424.667969 409.832031 1422.332031 417.332031 1417 424 L 1314 551 C 1308 558.332031 1300.667969 562.332031 1292 563 C 1283.332031 564.332031 1275.667969 562 1269 556 C 1265.667969 552.667969 1257 546.332031 1243 537 C 1229 527.667969 1206 517 1174 505 C 1142 493 1111 487 1081 487 C 1024.332031 487 978.667969 502.667969 944 534 C 909.332031 565.332031 892 606.332031 892 657 L 892 872 L 1197 872 C 1205.667969 872 1213.167969 875 1219.5 881 C 1225.832031 887 1229 894.667969 1229 904 L 1229 1035 C 1229 1043.667969 1225.832031 1051.167969 1219.5 1057.5 C 1213.167969 1063.832031 1205.667969 1067 1197 1067 L 892 1067 L 892 1446 L 1306 1446 L 1306 1265 C 1306 1256.332031 1309 1248.832031 1315 1242.5 C 1321 1236.167969 1328.667969 1233 1338 1233 L 1500 1233 C 1509.332031 1233 1517 1236.167969 1523 1242.5 C 1529 1248.832031 1532 1256.332031 1532 1265 Z M 1532 1265 "/>
</g>
</svg>
