<?xml version="1.0" encoding="UTF-8"?>
<svg xmlns="http://www.w3.org/2000/svg" xmlns:xlink="http://www.w3.org/1999/xlink" width="2048" height="2048" viewBox="0 0 2048 2048" version="1.1">
<g>
<path d="M 1184 1484 L 1184 768 L 864 768 L 864 1484 C 864 1500.667969 870 1513.5 882 1522.5 C 894 1531.5 909.332031 1536 928 1536 L 1120 1536 C 1138.667969 1536 1154 1531.5 1166 1522.5 C 1178 1513.5 1184 1500.667969 1184 1484 Z M 728 640 L 923 640 L 797 479 C 779.667969 458.332031 756.667969 448 728 448 C 701.332031 448 678.667969 457.332031 660 476 C 641.332031 494.667969 632 517.332031 632 544 C 632 570.667969 641.332031 593.332031 660 612 C 678.667969 630.667969 701.332031 640 728 640 Z M 1416 544 C 1416 517.332031 1406.667969 494.667969 1388 476 C 1369.332031 457.332031 1346.667969 448 1320 448 C 1291.332031 448 1268.332031 458.332031 1251 479 L 1126 640 L 1320 640 C 1346.667969 640 1369.332031 630.667969 1388 612 C 1406.667969 593.332031 1416 570.667969 1416 544 Z M 1792 800 L 1792 1120 C 1792 1129.332031 1789 1137 1783 1143 C 1777 1149 1769.332031 1152 1760 1152 L 1664 1152 L 1664 1568 C 1664 1594.667969 1654.667969 1617.332031 1636 1636 C 1617.332031 1654.667969 1594.667969 1664 1568 1664 L 480 1664 C 453.332031 1664 430.667969 1654.667969 412 1636 C 393.332031 1617.332031 384 1594.667969 384 1568 L 384 1152 L 288 1152 C 278.667969 1152 271 1149 265 1143 C 259 1137 256 1129.332031 256 1120 L 256 800 C 256 790.667969 259 783 265 777 C 271 771 278.667969 768 288 768 L 728 768 C 666 768 613.167969 746.167969 569.5 702.5 C 525.832031 658.832031 504 606 504 544 C 504 482 525.832031 429.167969 569.5 385.5 C 613.167969 341.832031 666 320 728 320 C 799.332031 320 855.332031 345.667969 896 397 L 1024 562 L 1152 397 C 1192.667969 345.667969 1248.667969 320 1320 320 C 1382 320 1434.832031 341.832031 1478.5 385.5 C 1522.167969 429.167969 1544 482 1544 544 C 1544 606 1522.167969 658.832031 1478.5 702.5 C 1434.832031 746.167969 1382 768 1320 768 L 1760 768 C 1769.332031 768 1777 771 1783 777 C 1789 783 1792 790.667969 1792 800 Z M 1792 800 "/>
</g>
</svg>
