<?xml version="1.0" encoding="UTF-8"?>
<svg xmlns="http://www.w3.org/2000/svg" xmlns:xlink="http://www.w3.org/1999/xlink" width="2048" height="2048" viewBox="0 0 2048 2048" version="1.1">
<g>
<path d="M 1792 1024 C 1792 1191.332031 1743.167969 1341.832031 1645.5 1475.5 C 1547.832031 1609.167969 1421.667969 1701.667969 1267 1753 C 1249 1756.332031 1235.832031 1754 1227.5 1746 C 1219.167969 1738 1215 1728 1215 1716 L 1215 1505 C 1215 1440.332031 1197.667969 1393 1163 1363 C 1201 1359 1235.167969 1353 1265.5 1345 C 1295.832031 1337 1327.167969 1324 1359.5 1306 C 1391.832031 1288 1418.832031 1265.832031 1440.5 1239.5 C 1462.167969 1213.167969 1479.832031 1178.167969 1493.5 1134.5 C 1507.167969 1090.832031 1514 1040.667969 1514 984 C 1514 903.332031 1487.667969 834.667969 1435 778 C 1459.667969 717.332031 1457 649.332031 1427 574 C 1408.332031 568 1381.332031 571.667969 1346 585 C 1310.667969 598.332031 1280 613 1254 629 L 1216 653 C 1154 635.667969 1090 627 1024 627 C 958 627 894 635.667969 832 653 C 821.332031 645.667969 807.167969 636.667969 789.5 626 C 771.832031 615.332031 744 602.5 706 587.5 C 668 572.5 639.332031 568 620 574 C 590.667969 649.332031 588.332031 717.332031 613 778 C 560.332031 834.667969 534 903.332031 534 984 C 534 1040.667969 540.832031 1090.667969 554.5 1134 C 568.167969 1177.332031 585.667969 1212.332031 607 1239 C 628.332031 1265.667969 655.167969 1288 687.5 1306 C 719.832031 1324 751.167969 1337 781.5 1345 C 811.832031 1353 846 1359 884 1363 C 857.332031 1387 841 1421.332031 835 1466 C 821 1472.667969 806 1477.667969 790 1481 C 774 1484.332031 755 1486 733 1486 C 711 1486 689.167969 1478.832031 667.5 1464.5 C 645.832031 1450.167969 627.332031 1429.332031 612 1402 C 599.332031 1380.667969 583.167969 1363.332031 563.5 1350 C 543.832031 1336.667969 527.332031 1328.667969 514 1326 L 494 1323 C 480 1323 470.332031 1324.5 465 1327.5 C 459.667969 1330.5 458 1334.332031 460 1339 C 462 1343.667969 465 1348.332031 469 1353 C 473 1357.667969 477.332031 1361.667969 482 1365 L 489 1370 C 503.667969 1376.667969 518.167969 1389.332031 532.5 1408 C 546.832031 1426.667969 557.332031 1443.667969 564 1459 L 574 1482 C 582.667969 1507.332031 597.332031 1527.832031 618 1543.5 C 638.667969 1559.167969 661 1569.167969 685 1573.5 C 709 1577.832031 732.167969 1580.167969 754.5 1580.5 C 776.832031 1580.832031 795.332031 1579.667969 810 1577 L 833 1573 C 833 1598.332031 833.167969 1628 833.5 1662 C 833.832031 1696 834 1714 834 1716 C 834 1728 829.667969 1738 821 1746 C 812.332031 1754 799 1756.332031 781 1753 C 626.332031 1701.667969 500.167969 1609.167969 402.5 1475.5 C 304.832031 1341.832031 256 1191.332031 256 1024 C 256 884.667969 290.332031 756.167969 359 638.5 C 427.667969 520.832031 520.832031 427.667969 638.5 359 C 756.167969 290.332031 884.667969 256 1024 256 C 1163.332031 256 1291.832031 290.332031 1409.5 359 C 1527.167969 427.667969 1620.332031 520.832031 1689 638.5 C 1757.667969 756.167969 1792 884.667969 1792 1024 Z M 1792 1024 "/>
</g>
</svg>
