<?xml version="1.0" encoding="UTF-8"?>
<svg xmlns="http://www.w3.org/2000/svg" xmlns:xlink="http://www.w3.org/1999/xlink" width="2048" height="2048" viewBox="0 0 2048 2048" version="1.1">
<g>
<path d="M 650 1480 C 644.667969 1486 638 1485 630 1477 C 621.332031 1469.667969 620 1463.332031 626 1458 C 631.332031 1452 638 1453 646 1461 C 654 1468.332031 655.332031 1474.667969 650 1480 Z M 608 1419 C 614 1427 614 1433.332031 608 1438 C 602.667969 1442 597 1439.667969 591 1431 C 585 1422.332031 585 1416.332031 591 1413 C 597 1408.332031 602.667969 1410.332031 608 1419 Z M 547 1359 C 543.667969 1363.667969 539.332031 1364.332031 534 1361 C 527.332031 1357.667969 525 1353.667969 527 1349 C 529 1345.667969 533.332031 1345 540 1347 C 546.667969 1350.332031 549 1354.332031 547 1359 Z M 578 1393 C 574 1397.667969 568.667969 1396.667969 562 1390 C 556 1382.667969 555.332031 1377.332031 560 1374 C 564 1370 569.332031 1371 576 1377 C 582 1384.332031 582.667969 1389.667969 578 1393 Z M 707 1505 C 704.332031 1513 698 1515 688 1511 C 676.667969 1508.332031 672.332031 1503.332031 675 1496 C 677.667969 1488.667969 684 1486.332031 694 1489 C 704.667969 1492.332031 709 1497.667969 707 1505 Z M 770 1510 C 770 1517.332031 764.667969 1521 754 1521 C 742.667969 1522.332031 737 1518.667969 737 1510 C 737 1502.667969 742.332031 1499 753 1499 C 764.332031 1497.667969 770 1501.332031 770 1510 Z M 828 1500 C 829.332031 1506.667969 824.667969 1511.332031 814 1514 C 803.332031 1516.667969 797.332031 1514 796 1506 C 794.667969 1498 799.332031 1493 810 1491 C 820.667969 1489.667969 826.667969 1492.667969 828 1500 Z M 1792 544 L 1792 1504 C 1792 1583.332031 1763.832031 1651.167969 1707.5 1707.5 C 1651.167969 1763.832031 1583.332031 1792 1504 1792 L 1280 1792 C 1269.332031 1792 1261.167969 1791.667969 1255.5 1791 C 1249.832031 1790.332031 1243.332031 1788.667969 1236 1786 C 1228.667969 1783.332031 1223.332031 1778.5 1220 1771.5 C 1216.667969 1764.5 1215 1755.332031 1215 1744 L 1215 1505 C 1215 1440.332031 1197.667969 1393 1163 1363 C 1201 1359 1235.167969 1353 1265.5 1345 C 1295.832031 1337 1327.167969 1324 1359.5 1306 C 1391.832031 1288 1418.832031 1265.832031 1440.5 1239.5 C 1462.167969 1213.167969 1479.832031 1178.167969 1493.5 1134.5 C 1507.167969 1090.832031 1514 1040.667969 1514 984 C 1514 903.332031 1487.667969 834.667969 1435 778 C 1459.667969 717.332031 1457 649.332031 1427 574 C 1408.332031 568 1381.332031 571.667969 1346 585 C 1310.667969 598.332031 1280 613 1254 629 L 1216 653 C 1154 635.667969 1090 627 1024 627 C 958 627 894 635.667969 832 653 C 821.332031 645.667969 807.167969 636.667969 789.5 626 C 771.832031 615.332031 744 602.5 706 587.5 C 668 572.5 639.332031 568 620 574 C 590.667969 649.332031 588.332031 717.332031 613 778 C 560.332031 834.667969 534 903.332031 534 984 C 534 1040.667969 540.832031 1090.667969 554.5 1134 C 568.167969 1177.332031 585.667969 1212.332031 607 1239 C 628.332031 1265.667969 655.167969 1288 687.5 1306 C 719.832031 1324 751.167969 1337 781.5 1345 C 811.832031 1353 846 1359 884 1363 C 857.332031 1387 841 1421.332031 835 1466 C 821 1472.667969 806 1477.667969 790 1481 C 774 1484.332031 755 1486 733 1486 C 711 1486 689.167969 1478.832031 667.5 1464.5 C 645.832031 1450.167969 627.332031 1429.332031 612 1402 C 599.332031 1380.667969 583.167969 1363.332031 563.5 1350 C 543.832031 1336.667969 527.332031 1328.667969 514 1326 L 494 1323 C 480 1323 470.332031 1324.5 465 1327.5 C 459.667969 1330.5 458 1334.332031 460 1339 C 462 1343.667969 465 1348.332031 469 1353 C 473 1357.667969 477.332031 1361.667969 482 1365 L 489 1370 C 503.667969 1376.667969 518.167969 1389.332031 532.5 1408 C 546.832031 1426.667969 557.332031 1443.667969 564 1459 L 574 1482 C 582.667969 1507.332031 597.332031 1527.832031 618 1543.5 C 638.667969 1559.167969 661 1569.167969 685 1573.5 C 709 1577.832031 732.167969 1580.167969 754.5 1580.5 C 776.832031 1580.832031 795.332031 1579.667969 810 1577 L 833 1573 C 833 1598.332031 833.167969 1632.667969 833.5 1676 C 833.832031 1719.332031 834 1742 834 1744 C 834 1758.667969 830.332031 1769.832031 823 1777.5 C 815.667969 1785.167969 808.332031 1789.5 801 1790.5 C 793.667969 1791.5 782.667969 1792 768 1792 L 544 1792 C 464.667969 1792 396.832031 1763.832031 340.5 1707.5 C 284.167969 1651.167969 256 1583.332031 256 1504 L 256 544 C 256 464.667969 284.167969 396.832031 340.5 340.5 C 396.832031 284.167969 464.667969 256 544 256 L 1504 256 C 1583.332031 256 1651.167969 284.167969 1707.5 340.5 C 1763.832031 396.832031 1792 464.667969 1792 544 Z M 1792 544 "/>
</g>
</svg>
