<svg width="2048" height="2048" viewBox="-256 -384 2048 2048" xmlns="http://www.w3.org/2000/svg"><g transform="scale(1 -1) translate(0 -1280)"><path d="M394 184q-8 -9 -20 3q-13 11 -4 19q8 9 20 -3q12 -11 4 -19zM352 245q9 -12 0 -19q-8 -6 -17 7t0 18q9 7 17 -6zM291 305q-5 -7 -13 -2q-10 5 -7 12q3 5 13 2q10 -5 7 -12zM322 271q-6 -7 -16 3q-9 11 -2 16q6 6 16 -3q9 -11 2 -16zM451 159q-4 -12 -19 -6q-17 4 -13 15 t19 7q16 -5 13 -16zM514 154q0 -11 -16 -11q-17 -2 -17 11q0 11 16 11q17 2 17 -11zM572 164q2 -10 -14 -14t-18 8t14 15q16 2 18 -9zM1536 1120v-960q0 -119 -84.5 -203.5t-203.5 -84.5h-224q-16 0 -24.5 1t-19.5 5t-16 14.5t-5 27.5v239q0 97 -52 142q57 6 102.5 18t94 39 t81 66.5t53 105t20.5 150.5q0 121 -79 206q37 91 -8 204q-28 9 -81 -11t-92 -44l-38 -24q-93 26 -192 26t-192 -26q-16 11 -42.5 27t-83.5 38.5t-86 13.5q-44 -113 -7 -204q-79 -85 -79 -206q0 -85 20.5 -150t52.5 -105t80.5 -67t94 -39t102.5 -18q-40 -36 -49 -103 q-21 -10 -45 -15t-57 -5t-65.5 21.5t-55.5 62.5q-19 32 -48.5 52t-49.5 24l-20 3q-21 0 -29 -4.5t-5 -11.5t9 -14t13 -12l7 -5q22 -10 43.5 -38t31.5 -51l10 -23q13 -38 44 -61.5t67 -30t69.5 -7t55.5 3.5l23 4q0 -38 0.5 -103t0.5 -68q0 -22 -11 -33.5t-22 -13t-33 -1.5 h-224q-119 0 -203.5 84.5t-84.5 203.5v960q0 119 84.5 203.5t203.5 84.5h960q119 0 203.5 -84.5t84.5 -203.5z" fill="black" /></g></svg>