<?xml version="1.0" encoding="UTF-8"?>
<svg xmlns="http://www.w3.org/2000/svg" xmlns:xlink="http://www.w3.org/1999/xlink" width="2048" height="2048" viewBox="0 0 2048 2048" version="1.1">
<g>
<path d="M 1029 1430 L 1379 957 C 1389.667969 942.332031 1397.832031 922.667969 1403.5 898 C 1409.167969 873.332031 1407.167969 845 1397.5 813 C 1387.832031 781 1367.332031 754.667969 1336 734 C 1309.332031 716.667969 1281.667969 708.167969 1253 708.5 C 1224.332031 708.832031 1199.832031 714.667969 1179.5 726 C 1159.167969 737.332031 1141 752.332031 1125 771 C 1101 797.667969 1069 811 1029 811 C 989.667969 811 958 797.667969 934 771 C 918 752.332031 899.832031 737.332031 879.5 726 C 859.167969 714.667969 834.667969 708.832031 806 708.5 C 777.332031 708.167969 749.332031 716.667969 722 734 C 691.332031 754.667969 671.167969 781 661.5 813 C 651.832031 845 649.832031 873.332031 655.5 898 C 661.167969 922.667969 669.332031 942.332031 680 957 Z M 1792 1024 C 1792 1163.332031 1757.667969 1291.832031 1689 1409.5 C 1620.332031 1527.167969 1527.167969 1620.332031 1409.5 1689 C 1291.832031 1757.667969 1163.332031 1792 1024 1792 C 884.667969 1792 756.167969 1757.667969 638.5 1689 C 520.832031 1620.332031 427.667969 1527.167969 359 1409.5 C 290.332031 1291.832031 256 1163.332031 256 1024 C 256 884.667969 290.332031 756.167969 359 638.5 C 427.667969 520.832031 520.832031 427.667969 638.5 359 C 756.167969 290.332031 884.667969 256 1024 256 C 1163.332031 256 1291.832031 290.332031 1409.5 359 C 1527.167969 427.667969 1620.332031 520.832031 1689 638.5 C 1757.667969 756.167969 1792 884.667969 1792 1024 Z M 1792 1024 "/>
</g>
</svg>
