<?xml version="1.0" encoding="UTF-8"?>
<svg xmlns="http://www.w3.org/2000/svg" xmlns:xlink="http://www.w3.org/1999/xlink" width="2048" height="2048" viewBox="0 0 2048 2048" version="1.1">
<g>
<path d="M 1827 314 C 1827 337.332031 1812.667969 363.332031 1784 392 L 1152 1024 L 1152 1792 L 1472 1792 C 1489.332031 1792 1504.332031 1798.332031 1517 1811 C 1529.667969 1823.667969 1536 1838.667969 1536 1856 C 1536 1873.332031 1529.667969 1888.332031 1517 1901 C 1504.332031 1913.667969 1489.332031 1920 1472 1920 L 576 1920 C 558.667969 1920 543.667969 1913.667969 531 1901 C 518.332031 1888.332031 512 1873.332031 512 1856 C 512 1838.667969 518.332031 1823.667969 531 1811 C 543.667969 1798.332031 558.667969 1792 576 1792 L 896 1792 L 896 1024 L 264 392 C 235.332031 363.332031 221 337.332031 221 314 C 221 298.667969 227 286.5 239 277.5 C 251 268.5 263.667969 262.667969 277 260 C 290.332031 257.332031 304.667969 256 320 256 L 1728 256 C 1743.332031 256 1757.667969 257.332031 1771 260 C 1784.332031 262.667969 1797 268.5 1809 277.5 C 1821 286.5 1827 298.667969 1827 314 Z M 1827 314 "/>
</g>
</svg>
