<?xml version="1.0" encoding="utf-8"?>
<svg width="1792" height="1792" viewBox="0 0 1792 1792" xmlns="http://www.w3.org/2000/svg"><path d="M872.5 305q0-24-2-38.5t-8.5-30-21-23-37.5-7.5q-39 0-78 23-105 58-159 190.5t-54 269.5q0 44 8.5 85.5t26.5 80.5 52.5 62.5 81.5 23.5q4 0 18 .5t20 0 16-3 15-8.5 7-16q16-77 48-231.5t48-231.5q19-91 19-146zm754 656q0 7-7.5 13.5t-15.5 6.5l-6-1q-22-3-62-11t-72-12.5-63-4.5q-167 0-351 93-15 8-21 27-10 36-24.5 105.5t-22.5 100.5q-23 91-70 179.5t-112.5 164.5-154.5 123-185 47q-135 0-214.5-83.5t-79.5-219.5q0-53 19.5-117t63-116.5 97.5-52.5q38 0 120 33.5t83 61.5q0 1-16.5 12.5t-39.5 31-46 44.5-39 61-16 74q0 33 16.5 53t48.5 20q45 0 85-31.5t66.5-78 48-105.5 32.5-107 16-90v-9q0-2-3.5-3.5t-8.5-1.5h-10l-10 .5-6 .5q-227 0-352-122.5t-125-348.5q0-108 34.5-221t96-210 156-167.5 204.5-89.5q52-9 106-9 374 0 374 360 0 98-38 273t-43 211l3 3q101-57 182.5-88t167.5-31q22 0 53 13 19 7 80 102.5t61 116.5z"/></svg>