<?xml version="1.0" encoding="UTF-8"?>
<svg xmlns="http://www.w3.org/2000/svg" xmlns:xlink="http://www.w3.org/1999/xlink" width="2048" height="2048" viewBox="0 0 2048 2048" version="1.1">
<g>
<path d="M 1024 256 C 1163.332031 256 1291.832031 290.332031 1409.5 359 C 1527.167969 427.667969 1620.332031 520.832031 1689 638.5 C 1757.667969 756.167969 1792 884.667969 1792 1024 C 1792 1163.332031 1757.667969 1291.832031 1689 1409.5 C 1620.332031 1527.167969 1527.167969 1620.332031 1409.5 1689 C 1291.832031 1757.667969 1163.332031 1792 1024 1792 C 884.667969 1792 756.167969 1757.667969 638.5 1689 C 520.832031 1620.332031 427.667969 1527.167969 359 1409.5 C 290.332031 1291.832031 256 1163.332031 256 1024 C 256 884.667969 290.332031 756.167969 359 638.5 C 427.667969 520.832031 520.832031 427.667969 638.5 359 C 756.167969 290.332031 884.667969 256 1024 256 Z M 1298 777 C 1296.667969 777.667969 1293.5 780.832031 1288.5 786.5 C 1283.5 792.167969 1279 795.332031 1275 796 C 1276.332031 796 1277.832031 794.332031 1279.5 791 C 1281.167969 787.667969 1282.832031 784 1284.5 780 C 1286.167969 776 1287.332031 773.667969 1288 773 C 1292 768.332031 1299.332031 763.332031 1310 758 C 1319.332031 754 1336.667969 750 1362 746 C 1384.667969 740.667969 1401.667969 744.332031 1413 757 C 1411.667969 755.667969 1414.832031 751.332031 1422.5 744 C 1430.167969 736.667969 1435 732.667969 1437 732 C 1439 730.667969 1444 729.167969 1452 727.5 C 1460 725.832031 1465 723.332031 1467 720 L 1469 698 C 1461 698.667969 1455.167969 696.332031 1451.5 691 C 1447.832031 685.667969 1445.667969 678.667969 1445 670 C 1445 671.332031 1443 674 1439 678 C 1439 673.332031 1437.5 670.667969 1434.5 670 C 1431.5 669.332031 1427.667969 669.667969 1423 671 C 1418.332031 672.332031 1415.332031 672.667969 1414 672 C 1407.332031 670 1402.332031 667.5 1399 664.5 C 1395.667969 661.5 1393 656 1391 648 C 1389 640 1387.667969 635 1387 633 C 1385.667969 629.667969 1382.5 626.167969 1377.5 622.5 C 1372.5 618.832031 1369.332031 615.332031 1368 612 C 1367.332031 610.667969 1366.5 608.832031 1365.5 606.5 C 1364.5 604.167969 1363.5 602 1362.5 600 C 1361.5 598 1360.167969 596.167969 1358.5 594.5 C 1356.832031 592.832031 1355 592 1353 592 C 1351 592 1348.667969 593.667969 1346 597 C 1343.332031 600.332031 1340.832031 603.667969 1338.5 607 C 1336.167969 610.332031 1334.667969 612 1334 612 C 1332 610.667969 1330 610.167969 1328 610.5 C 1326 610.832031 1324.5 611.167969 1323.5 611.5 C 1322.5 611.832031 1321 612.832031 1319 614.5 C 1317 616.167969 1315.332031 617.332031 1314 618 C 1312 619.332031 1309.167969 620.332031 1305.5 621 C 1301.832031 621.667969 1299 622.332031 1297 623 C 1307 619.667969 1306.667969 616 1296 612 C 1289.332031 609.332031 1284 608.332031 1280 609 C 1286 606.332031 1288.5 602.332031 1287.5 597 C 1286.5 591.667969 1283.667969 587 1279 583 L 1284 583 C 1283.332031 580.332031 1280.5 577.5 1275.5 574.5 C 1270.5 571.5 1264.667969 568.667969 1258 566 C 1251.332031 563.332031 1247 561.332031 1245 560 C 1239.667969 556.667969 1228.332031 553.5 1211 550.5 C 1193.667969 547.5 1182.667969 547.332031 1178 550 C 1174.667969 554 1173.167969 557.5 1173.5 560.5 C 1173.832031 563.5 1175.167969 568.167969 1177.5 574.5 C 1179.832031 580.832031 1181 585 1181 587 C 1181.667969 591 1179.832031 595.332031 1175.5 600 C 1171.167969 604.667969 1169 608.667969 1169 612 C 1169 616.667969 1173.667969 621.832031 1183 627.5 C 1192.332031 633.167969 1195.667969 640.332031 1193 649 C 1191 654.332031 1185.667969 659.667969 1177 665 C 1168.332031 670.332031 1163 674.332031 1161 677 C 1157.667969 682.332031 1157.167969 688.5 1159.5 695.5 C 1161.832031 702.5 1165.332031 708 1170 712 C 1171.332031 713.332031 1171.832031 714.667969 1171.5 716 C 1171.167969 717.332031 1170 718.832031 1168 720.5 C 1166 722.167969 1164.167969 723.5 1162.5 724.5 C 1160.832031 725.5 1158.667969 726.667969 1156 728 L 1153 730 C 1145.667969 733.332031 1138.832031 731.332031 1132.5 724 C 1126.167969 716.667969 1121.667969 708 1119 698 C 1114.332031 681.332031 1109 671.332031 1103 668 C 1087.667969 662.667969 1078 663 1074 669 C 1070.667969 660.332031 1057 651.667969 1033 643 C 1016.332031 637 997 635.667969 975 639 C 979 638.332031 979 633.332031 975 624 C 970.332031 614 964 610 956 612 C 958 608 959.332031 602.167969 960 594.5 C 960.667969 586.832031 961 582.332031 961 581 C 963 572.332031 967 564.667969 973 558 C 973.667969 557.332031 976 554.5 980 549.5 C 984 544.5 987.167969 540 989.5 536 C 991.832031 532 992 530 990 530 C 1013.332031 532.667969 1030 529 1040 519 C 1043.332031 515.667969 1047.167969 510 1051.5 502 C 1055.832031 494 1059.332031 488.332031 1062 485 C 1068 481 1072.667969 479.167969 1076 479.5 C 1079.332031 479.832031 1084.167969 481.667969 1090.5 485 C 1096.832031 488.332031 1101.667969 490 1105 490 C 1114.332031 490.667969 1119.5 487 1120.5 479 C 1121.5 471 1119 464.332031 1113 459 C 1121 459.667969 1122 454 1116 442 C 1112.667969 437.332031 1110 434.332031 1108 433 C 1100 430.332031 1091 432 1081 438 C 1075.667969 440.667969 1076.332031 443.332031 1083 446 C 1082.332031 445.332031 1079.167969 448.832031 1073.5 456.5 C 1067.832031 464.167969 1062.332031 470 1057 474 C 1051.667969 478 1046.332031 476.332031 1041 469 C 1040.332031 468.332031 1038.5 463.832031 1035.5 455.5 C 1032.5 447.167969 1029.332031 442.667969 1026 442 C 1020.667969 442 1015.332031 447 1010 457 C 1012 451.667969 1008.332031 446.667969 999 442 C 989.667969 437.332031 981.667969 434.667969 975 434 C 987.667969 426 985 417 967 407 C 962.332031 404.332031 955.5 402.667969 946.5 402 C 937.5 401.332031 931 402.667969 927 406 C 923.667969 410.667969 921.832031 414.5 921.5 417.5 C 921.167969 420.5 922.832031 423.167969 926.5 425.5 C 930.167969 427.832031 933.667969 429.667969 937 431 C 940.332031 432.332031 944.167969 433.667969 948.5 435 C 952.832031 436.332031 955.667969 437.332031 957 438 C 966.332031 444.667969 969 449.332031 965 452 C 963.667969 452.667969 960.832031 453.832031 956.5 455.5 C 952.167969 457.167969 948.332031 458.667969 945 460 C 941.667969 461.332031 939.667969 462.667969 939 464 C 937 466.667969 937 471.332031 939 478 C 941 484.667969 940.332031 489.332031 937 492 C 933.667969 488.667969 930.667969 482.832031 928 474.5 C 925.332031 466.167969 923 460.667969 921 458 C 925.667969 464 917.332031 466 896 464 L 886 463 C 883.332031 463 878 463.667969 870 465 C 862 466.332031 855.167969 466.667969 849.5 466 C 843.832031 465.332031 839.332031 462.667969 836 458 C 833.332031 452.667969 833.332031 446 836 438 C 836.667969 435.332031 838 434.667969 840 436 C 837.332031 434 833.667969 430.832031 829 426.5 C 824.332031 422.167969 821 419.332031 819 418 C 788.332031 428 757 441.667969 725 459 C 729 459.667969 733 459.332031 737 458 C 740.332031 456.667969 744.667969 454.5 750 451.5 C 755.332031 448.5 758.667969 446.667969 760 446 C 782.667969 436.667969 796.667969 434.332031 802 439 L 807 434 C 816.332031 444.667969 823 453 827 459 C 822.332031 456.332031 812.332031 456 797 458 C 783.667969 462 776.332031 466 775 470 C 779.667969 478 781.332031 484 780 488 C 777.332031 486 773.5 482.667969 768.5 478 C 763.5 473.332031 758.667969 469.667969 754 467 C 749.332031 464.332031 744.332031 462.667969 739 462 C 728.332031 462 721 462.332031 717 463 C 619.667969 516.332031 541.332031 590.332031 482 685 C 486.667969 689.667969 490.667969 692.332031 494 693 C 496.667969 693.667969 498.332031 696.667969 499 702 C 499.667969 707.332031 500.5 711 501.5 713 C 502.5 715 506.332031 714 513 710 C 519 715.332031 520 721.667969 516 729 C 516.667969 728.332031 531.332031 737.332031 560 756 C 572.667969 767.332031 579.667969 774.332031 581 777 C 583 784.332031 579.667969 790.332031 571 795 C 570.332031 793.667969 567.332031 790.667969 562 786 C 556.667969 781.332031 553.667969 780 553 782 C 551 785.332031 551.167969 791.5 553.5 800.5 C 555.832031 809.5 559.332031 813.667969 564 813 C 559.332031 813 556.167969 818.332031 554.5 829 C 552.832031 839.667969 552 851.5 552 864.5 C 552 877.5 551.667969 885.332031 551 888 L 553 889 C 551 897 552.832031 908.5 558.5 923.5 C 564.167969 938.5 571.332031 945 580 943 C 571.332031 945 578 959.332031 600 986 C 604 991.332031 606.667969 994.332031 608 995 C 610 996.332031 614 998.832031 620 1002.5 C 626 1006.167969 631 1009.5 635 1012.5 C 639 1015.5 642.332031 1019 645 1023 C 647.667969 1026.332031 651 1033.832031 655 1045.5 C 659 1057.167969 663.667969 1065 669 1069 C 667.667969 1073 670.832031 1079.667969 678.5 1089 C 686.167969 1098.332031 689.667969 1106 689 1112 C 688.332031 1112 687.5 1112.332031 686.5 1113 C 685.5 1113.667969 684.667969 1114 684 1114 C 686 1118.667969 691.167969 1123.332031 699.5 1128 C 707.832031 1132.667969 713 1137 715 1141 C 715.667969 1143 716.332031 1146.332031 717 1151 C 717.667969 1155.667969 718.667969 1159.332031 720 1162 C 721.332031 1164.667969 724 1165.332031 728 1164 C 729.332031 1150.667969 721.332031 1130 704 1102 C 694 1085.332031 688.332031 1075.667969 687 1073 C 685 1069.667969 683.167969 1064.5 681.5 1057.5 C 679.832031 1050.5 678.332031 1045.667969 677 1043 C 678.332031 1043 680.332031 1043.5 683 1044.5 C 685.667969 1045.5 688.5 1046.667969 691.5 1048 C 694.5 1049.332031 697 1050.667969 699 1052 C 701 1053.332031 701.667969 1054.332031 701 1055 C 699 1059.667969 699.667969 1065.5 703 1072.5 C 706.332031 1079.5 710.332031 1085.667969 715 1091 C 719.667969 1096.332031 725.332031 1102.667969 732 1110 C 738.667969 1117.332031 742.667969 1121.667969 744 1123 C 748 1127 752.667969 1133.5 758 1142.5 C 763.332031 1151.5 763.332031 1156 758 1156 C 764 1156 770.667969 1159.332031 778 1166 C 785.332031 1172.667969 791 1179.332031 795 1186 C 798.332031 1191.332031 801 1200 803 1212 C 805 1224 806.667969 1232 808 1236 C 809.332031 1240.667969 812.167969 1245.167969 816.5 1249.5 C 820.832031 1253.832031 825 1257 829 1259 L 845 1267 C 845 1267 849.332031 1269.332031 858 1274 C 861.332031 1275.332031 867.5 1278.832031 876.5 1284.5 C 885.5 1290.167969 892.667969 1294 898 1296 C 904.667969 1298.667969 910 1300 914 1300 C 918 1300 922.832031 1299.167969 928.5 1297.5 C 934.167969 1295.832031 938.667969 1294.667969 942 1294 C 952 1292.667969 961.667969 1297.667969 971 1309 C 980.332031 1320.332031 987.332031 1327.332031 992 1330 C 1016 1342.667969 1034.332031 1346.332031 1047 1341 C 1045.667969 1341.667969 1045.832031 1344.167969 1047.5 1348.5 C 1049.167969 1352.832031 1051.832031 1358 1055.5 1364 C 1059.167969 1370 1062.167969 1374.832031 1064.5 1378.5 C 1066.832031 1382.167969 1068.667969 1385 1070 1387 C 1073.332031 1391 1079.332031 1396 1088 1402 C 1096.667969 1408 1102.667969 1413 1106 1417 C 1110 1414.332031 1112.332031 1411.332031 1113 1408 C 1111 1413.332031 1113.332031 1420 1120 1428 C 1126.667969 1436 1132.667969 1439.332031 1138 1438 C 1147.332031 1436 1152 1425.332031 1152 1406 C 1131.332031 1416 1115 1410 1103 1388 C 1103 1387.332031 1102.167969 1385.5 1100.5 1382.5 C 1098.832031 1379.5 1097.5 1376.667969 1096.5 1374 C 1095.5 1371.332031 1094.667969 1368.5 1094 1365.5 C 1093.332031 1362.5 1093.332031 1360 1094 1358 C 1094.667969 1356 1096.332031 1355 1099 1355 C 1105 1355 1108.332031 1353.832031 1109 1351.5 C 1109.667969 1349.167969 1109 1345 1107 1339 C 1105 1333 1103.667969 1328.667969 1103 1326 C 1102.332031 1320.667969 1098.667969 1314 1092 1306 C 1085.332031 1298 1081.332031 1293 1080 1291 C 1076.667969 1297 1071.332031 1299.667969 1064 1299 C 1056.667969 1298.332031 1051.332031 1295.332031 1048 1290 C 1048 1290.667969 1047.5 1292.5 1046.5 1295.5 C 1045.5 1298.5 1045 1300.667969 1045 1302 C 1036.332031 1302 1031.332031 1301.667969 1030 1301 C 1030.667969 1299 1031.5 1293.167969 1032.5 1283.5 C 1033.5 1273.832031 1034.667969 1266.332031 1036 1261 C 1036.667969 1258.332031 1038.5 1254.332031 1041.5 1249 C 1044.5 1243.667969 1047 1238.832031 1049 1234.5 C 1051 1230.167969 1052.332031 1226 1053 1222 C 1053.667969 1218 1052.167969 1214.832031 1048.5 1212.5 C 1044.832031 1210.167969 1039 1209.332031 1031 1210 C 1018.332031 1210.667969 1009.667969 1217.332031 1005 1230 C 1004.332031 1232 1003.332031 1235.5 1002 1240.5 C 1000.667969 1245.5 999 1249.332031 997 1252 C 995 1254.667969 992 1257 988 1259 C 983.332031 1261 975.332031 1261.667969 964 1261 C 952.667969 1260.332031 944.667969 1258.667969 940 1256 C 931.332031 1250.667969 923.832031 1241 917.5 1227 C 911.167969 1213 908 1200.667969 908 1190 C 908 1183.332031 908.832031 1174.5 910.5 1163.5 C 912.167969 1152.5 913.167969 1144.167969 913.5 1138.5 C 913.832031 1132.832031 912 1124.667969 908 1114 C 910 1112.667969 913 1109.5 917 1104.5 C 921 1099.5 924.332031 1096 927 1094 C 928.332031 1093.332031 929.832031 1092.832031 931.5 1092.5 C 933.167969 1092.167969 934.667969 1092.167969 936 1092.5 C 937.332031 1092.832031 938.667969 1092.332031 940 1091 C 941.332031 1089.667969 942.332031 1087.667969 943 1085 C 942.332031 1084.332031 941 1083.332031 939 1082 C 937 1080 935.667969 1079 935 1079 C 939.667969 1081 949.167969 1080.5 963.5 1077.5 C 977.832031 1074.5 987 1075 991 1079 C 1001 1086.332031 1008.332031 1085.667969 1013 1077 C 1013 1076.332031 1012.167969 1073.167969 1010.5 1067.5 C 1008.832031 1061.832031 1008.667969 1057.332031 1010 1054 C 1013.332031 1072 1023 1075 1039 1063 C 1041 1065 1046.167969 1066.667969 1054.5 1068 C 1062.832031 1069.332031 1068.667969 1071 1072 1073 C 1074 1074.332031 1076.332031 1076.167969 1079 1078.5 C 1081.667969 1080.832031 1083.5 1082.332031 1084.5 1083 C 1085.5 1083.667969 1087.167969 1083.5 1089.5 1082.5 C 1091.832031 1081.5 1094.667969 1079.332031 1098 1076 C 1104.667969 1085.332031 1108.667969 1093.332031 1110 1100 C 1117.332031 1126.667969 1123.667969 1141.332031 1129 1144 C 1133.667969 1146 1137.332031 1146.667969 1140 1146 C 1142.667969 1145.332031 1144.167969 1142.167969 1144.5 1136.5 C 1144.832031 1130.832031 1144.832031 1126.167969 1144.5 1122.5 C 1144.167969 1118.832031 1143.667969 1114.667969 1143 1110 L 1142 1102 L 1142 1084 L 1141 1076 C 1131 1074 1124.832031 1070 1122.5 1064 C 1120.167969 1058 1120.667969 1051.832031 1124 1045.5 C 1127.332031 1039.167969 1132.332031 1033 1139 1027 C 1139.667969 1026.332031 1142.332031 1025.167969 1147 1023.5 C 1151.667969 1021.832031 1156.832031 1019.667969 1162.5 1017 C 1168.167969 1014.332031 1172.332031 1011.667969 1175 1009 C 1189 996.332031 1194 984.667969 1190 974 C 1194.667969 974 1198.332031 971 1201 965 C 1200.332031 965 1198.667969 964 1196 962 C 1193.332031 960 1190.832031 958.332031 1188.5 957 C 1186.167969 955.667969 1184.667969 955 1184 955 C 1190 951.667969 1190.667969 946.332031 1186 939 C 1189.332031 937 1191.832031 933.332031 1193.5 928 C 1195.167969 922.667969 1197.667969 919.332031 1201 918 C 1207 926 1214 926.667969 1222 920 C 1226.667969 914.667969 1227 909.332031 1223 904 C 1226.332031 899.332031 1233.167969 895.832031 1243.5 893.5 C 1253.832031 891.167969 1260 888 1262 884 C 1266.667969 885.332031 1269.332031 884.667969 1270 882 C 1270.667969 879.332031 1271 875.332031 1271 870 C 1271 864.667969 1272 860.667969 1274 858 C 1276.667969 854.667969 1281.667969 851.667969 1289 849 C 1296.332031 846.332031 1300.667969 844.667969 1302 844 L 1319 833 C 1321 830.332031 1321 829 1319 829 C 1331 830.332031 1341.332031 826.667969 1350 818 C 1356.667969 810.667969 1354.667969 804 1344 798 C 1346 794 1345 790.832031 1341 788.5 C 1337 786.167969 1332 784.332031 1326 783 C 1328 782.332031 1331.832031 782.167969 1337.5 782.5 C 1343.167969 782.832031 1346.667969 782.332031 1348 781 C 1358 774.332031 1355.667969 769 1341 765 C 1329.667969 761.667969 1315.332031 765.667969 1298 777 Z M 1135 1654 C 1272.332031 1630 1389.332031 1567 1486 1465 C 1484 1463 1479.832031 1461.5 1473.5 1460.5 C 1467.167969 1459.5 1463 1458.332031 1461 1457 C 1449 1452.332031 1441 1449.667969 1437 1449 C 1437.667969 1444.332031 1436.832031 1440 1434.5 1436 C 1432.167969 1432 1429.5 1429 1426.5 1427 C 1423.5 1425 1419.332031 1422.332031 1414 1419 C 1408.667969 1415.667969 1405 1413.332031 1403 1412 C 1401.667969 1410.667969 1399.332031 1408.667969 1396 1406 C 1392.667969 1403.332031 1390.332031 1401.5 1389 1400.5 C 1387.667969 1399.5 1385.167969 1398 1381.5 1396 C 1377.832031 1394 1375 1393.332031 1373 1394 C 1371 1394.667969 1367.667969 1395 1363 1395 L 1360 1396 C 1358 1396.667969 1356.167969 1397.5 1354.5 1398.5 C 1352.832031 1399.5 1351 1400.5 1349 1401.5 C 1347 1402.5 1345.667969 1403.5 1345 1404.5 C 1344.332031 1405.5 1344.332031 1406.332031 1345 1407 C 1331 1395.667969 1319 1388.332031 1309 1385 C 1305.667969 1384.332031 1302 1382.5 1298 1379.5 C 1294 1376.5 1290.5 1374.167969 1287.5 1372.5 C 1284.5 1370.832031 1281.167969 1370.332031 1277.5 1371 C 1273.832031 1371.667969 1270 1374 1266 1378 C 1262.667969 1381.332031 1260.667969 1386.332031 1260 1393 C 1259.332031 1399.667969 1258.667969 1404 1258 1406 C 1253.332031 1402.667969 1253.332031 1396.832031 1258 1388.5 C 1262.667969 1380.167969 1263.332031 1374 1260 1370 C 1258 1366 1254.5 1364.5 1249.5 1365.5 C 1244.5 1366.5 1240.5 1368 1237.5 1370 C 1234.5 1372 1230.667969 1374.832031 1226 1378.5 C 1221.332031 1382.167969 1218.332031 1384.332031 1217 1385 C 1215.667969 1385.667969 1212.832031 1387.5 1208.5 1390.5 C 1204.167969 1393.5 1201.332031 1396 1200 1398 C 1198 1400.667969 1196 1404.667969 1194 1410 C 1192 1415.332031 1190.332031 1419 1189 1421 C 1187.667969 1418.332031 1183.832031 1416.167969 1177.5 1414.5 C 1171.167969 1412.832031 1168 1411 1168 1409 C 1169.332031 1415.667969 1170.667969 1427.332031 1172 1444 C 1173.332031 1460.667969 1175 1473.332031 1177 1482 C 1181.667969 1502.667969 1177.667969 1518.667969 1165 1530 C 1147 1546.667969 1137.332031 1560 1136 1570 C 1133.332031 1584.667969 1137.332031 1593.332031 1148 1596 C 1148 1600.667969 1145.332031 1607.5 1140 1616.5 C 1134.667969 1625.5 1132.332031 1632.667969 1133 1638 C 1133 1642 1133.667969 1647.332031 1135 1654 Z M 1135 1654 "/>
</g>
</svg>
