<svg width="2048" height="2048" viewBox="-192 -384 2048 2048" xmlns="http://www.w3.org/2000/svg"><g transform="scale(1 -1) translate(0 -1280)"><path d="M876 71q0 21 -4.5 40.5t-9.5 36t-17.5 34.5t-21 30.5t-26.5 29.5t-27.5 25.5t-32 25.5t-31 23t-33 23t-30.5 21q-17 2 -50 2q-54 0 -106 -7t-108 -25t-98 -46t-69 -75t-27 -107q0 -68 35.5 -121.5t93 -84t120.5 -45.5t127 -15q59 0 112.5 12.5t100.5 39t74.5 73.5 t27.5 110zM756 933q0 60 -16.5 127.5t-47 130.5t-84 104t-119.5 41q-93 0 -144 -69t-51 -165q0 -47 11.5 -99t35.5 -104t56 -93.5t78 -67.5t97 -26q97 0 140.5 60.5t43.5 160.5zM625 1408h437l-135 -79h-135q71 -45 110 -126t39 -169q0 -74 -23 -131.5t-56 -92.5t-66 -64.5 t-56 -61t-23 -67.5q0 -26 16.5 -51t43 -48t58.5 -48t64 -55.5t58.5 -66t43 -85t16.5 -106.5q0 -160 -140 -282q-152 -131 -420 -131q-59 0 -119.5 10t-122 33.5t-108.5 58t-77 89t-30 121.5q0 61 37 135q32 64 96 110.5t145 71t155 36t150 13.5q-64 83 -64 149q0 12 2 23.5 t5 19.5t8 21.5t7 21.5q-40 -5 -70 -5q-149 0 -255.5 98t-106.5 246q0 140 95 250.5t234 141.5q94 20 187 20zM1664 1152v-128h-256v-256h-128v256h-256v128h256v256h128v-256h256z" fill="black" /></g></svg>