<svg width="2048" height="2048" viewBox="-256 -384 2048 2048" xmlns="http://www.w3.org/2000/svg"><g transform="scale(1 -1) translate(0 -1280)"><path d="M678 -57q0 -38 -10 -71h-380q-95 0 -171.5 56.5t-103.5 147.5q24 45 69 77.5t100 49.5t107 24t107 7q32 0 49 -2q6 -4 30.5 -21t33 -23t31 -23t32 -25.5t27.5 -25.5t26.5 -29.5t21 -30.5t17.5 -34.5t9.5 -36t4.5 -40.5zM385 294q-234 -7 -385 -85v433q103 -118 273 -118 q32 0 70 5q-21 -61 -21 -86q0 -67 63 -149zM558 805q0 -100 -43.5 -160.5t-140.5 -60.5q-51 0 -97 26t-78 67.5t-56 93.5t-35.5 104t-11.5 99q0 96 51.5 165t144.5 69q66 0 119 -41t84 -104t47 -130t16 -128zM1536 896v-736q0 -119 -84.5 -203.5t-203.5 -84.5h-468 q39 73 39 157q0 66 -22 122.5t-55.5 93t-72 71t-72 59.5t-55.5 54.5t-22 59.5q0 36 23 68t56 61.5t65.5 64.5t55.5 93t23 131t-26.5 145.5t-75.5 118.5q-6 6 -14 11t-12.5 7.5t-10 9.5t-10.5 17h135l135 64h-437q-138 0 -244.5 -38.5t-182.5 -133.5q0 126 81 213t207 87h960 q119 0 203.5 -84.5t84.5 -203.5v-96h-256v256h-128v-256h-256v-128h256v-256h128v256h256z" fill="black" /></g></svg>