<?xml version="1.0" encoding="utf-8"?>
<svg width="2048" height="1792" viewBox="0 0 2048 1792" xmlns="http://www.w3.org/2000/svg"><path d="M1418 476q-15-17-35-8.5t-26 28.5 5 38q14 17 40 14.5t34-20.5-18-52zm-396 246q-8 8-19.5 8t-18.5-8q-8-8-8-19t8-18q7-8 18.5-8t19.5 8q7 7 7 18t-7 19zm165 74l-35 35q-12 13-29.5 13t-30.5-13l-38-38q-12-13-12-30t12-30l35-35q12-12 29.5-12t30.5 12l38 39q12 12 12 29.5t-12 29.5zm-109-130q-7 8-18.5 8t-19.5-8q-7-8-7-19t7-19q8-8 19-8t19 8 8 19-8 19zm403-98q-34 64-107.5 85.5t-127.5-16.5q-38-28-61-66.5t-21-87.5 39-92 75.5-53 70.5 5 70 51q2 2 13 12.5t14.5 13.5 13 13.5 12.5 15.5 10 15.5 8.5 18 4 18.5 1 21-5 22-9.5 24zm201 482q3-20-8.5-34.5t-27.5-21.5-33-17-23-20q-40-71-84-98.5t-113-11.5q19-13 40-18.5t33-4.5l12 1q2-45-34-90 6-20 6.5-40.5t-2.5-30.5l-3-10q43-24 71-65t34-91q10-84-43-150.5t-137-76.5q-60-7-114 18.5t-82 74.5q-30 51-33.5 101t14.5 87 43.5 64 56.5 42q-45-4-88-36t-57-88q-28-108 32-222-16-21-29-32-50 0-89 19 19-24 42-37t36-14l13-1q0-50-13-78-10-21-32.5-28.5t-47 3.5-37.5 40q2-4 4-7-7 28-6.5 75.5t19 117 48.5 122.5q-25 14-47 36-35 16-85.5 70.5t-84.5 101.5l-33 46q-90 34-181 125.5t-75 162.5q1 16 11 27-15 12-30 30-21 25-21 54t21.5 40 63.5-6q41-19 77-49.5t55-60.5q-2-2-6.5-5t-20.5-7.5-33-3.5q23-5 51-12.5t40-10 27.5-6 26-4 23.5-.5q14 7 22-34 7-37 7-90 0-102-40-150 106 103 101 219-1 29-15 50t-27 27l-13 6q-4 7-19 32t-26 45.5-26.5 52-25 61-17 63-6.5 66.5 10 63q-35-54-37-80-22 24-34.5 39t-33.5 42-30.5 46-16.5 41-.5 38 25.5 27q45 25 144-64t190.5-221.5 122.5-228.5q86-52 145-115.5t86-119.5q47 93 154 178 104 83 167 80 39-2 46-43zm239-154q0 182-71 348t-191 286-286.5 191-348.5 71-348.5-71-286.5-191-191-286-71-348 71-348 191-286 286.5-191 348.5-71 348.5 71 286.5 191 191 286 71 348z"/></svg>