<svg width="2048" height="2048" viewBox="-256 -384 2048 2048" xmlns="http://www.w3.org/2000/svg"><g transform="scale(1 -1) translate(0 -1280)"><path d="M1280 192v896q0 26 -19 45t-45 19h-128q-26 0 -45 -19t-19 -45v-320h-512v320q0 26 -19 45t-45 19h-128q-26 0 -45 -19t-19 -45v-896q0 -26 19 -45t45 -19h128q26 0 45 19t19 45v320h512v-320q0 -26 19 -45t45 -19h128q26 0 45 19t19 45zM1536 1120v-960 q0 -119 -84.5 -203.5t-203.5 -84.5h-960q-119 0 -203.5 84.5t-84.5 203.5v960q0 119 84.5 203.5t203.5 84.5h960q119 0 203.5 -84.5t84.5 -203.5z" fill="black" /></g></svg>