<?xml version="1.0" encoding="utf-8"?>
<svg width="2048" height="1792" viewBox="0 0 2048 1792" xmlns="http://www.w3.org/2000/svg"><path d="M459 1792q-77 0-137.5-47.5t-79.5-122.5l-101-401q-13-57-13-108 0-45-5-67l-116-477q-7-27-7-57 0-93 62-161t155-78q17-85 82.5-139t152.5-54q83 0 148 51.5t85 132.5l83 348 103-428q20-81 85-132.5t148-51.5q89 0 155.5 57.5t80.5 144.5q92 10 152 79t60 162q0 24-7 59l-123 512q10-7 37.5-28.5t38.5-29.5 35-23 41-20.5 41.5-11 49.5-5.5q105 0 180 74t75 179q0 62-28.5 118t-78.5 94l-507 380q-68 51-153 51h-694zm645-1664q-38 0-68.5 24t-39.5 62l-164 682h-127l-145-602q-9-38-39.5-62t-68.5-24q-48 0-80 33t-32 80q0 15 3 28l132 547h-26l-99-408q-9-37-40-62.5t-69-25.5q-47 0-80 33t-33 79q0 14 3 26l116 478q7 28 9 86t10 88l100 401q8 32 34 52.5t59 20.5h694q42 0 76-26l507-379q56-43 56-110 0-52-37.5-88.5t-89.5-36.5q-43 0-77 26l-307 230v-227q0-4 32-138t68-282 39-161q4-18 4-29 0-47-32-81t-79-34q-39 0-69.5 24t-39.5 62l-116 482h-26l150-624q3-14 3-28 0-48-31.5-82t-79.5-34z"/></svg>