<?xml version="1.0" encoding="UTF-8"?>
<svg xmlns="http://www.w3.org/2000/svg" xmlns:xlink="http://www.w3.org/1999/xlink" width="2048" height="2048" viewBox="0 0 2048 2048" version="1.1">
<g>
<path d="M 384 1472 C 384 1454.667969 377.667969 1439.667969 365 1427 C 352.332031 1414.332031 337.332031 1408 320 1408 C 302.667969 1408 287.667969 1414.332031 275 1427 C 262.332031 1439.667969 256 1454.667969 256 1472 C 256 1489.332031 262.332031 1504.332031 275 1517 C 287.667969 1529.667969 302.667969 1536 320 1536 C 337.332031 1536 352.332031 1529.667969 365 1517 C 377.667969 1504.332031 384 1489.332031 384 1472 Z M 1792 896 C 1792 862 1779 832.167969 1753 806.5 C 1727 780.832031 1697.332031 768 1664 768 L 1088 768 C 1088 754.667969 1093 738.5 1103 719.5 C 1113 700.5 1124 682.167969 1136 664.5 C 1148 646.832031 1159 624.167969 1169 596.5 C 1179 568.832031 1184 540.667969 1184 512 C 1184 467.332031 1169.167969 434.832031 1139.5 414.5 C 1109.832031 394.167969 1071.332031 384 1024 384 C 1008 384 978 430.332031 934 523 C 918 552.332031 905.667969 574 897 588 C 870.332031 630.667969 833 679 785 733 C 737.667969 787 704 822.332031 684 839 C 638 877 591.332031 896 544 896 L 512 896 L 512 1536 L 544 1536 C 592 1536 647.667969 1546.667969 711 1568 C 774.332031 1589.332031 838.832031 1610.667969 904.5 1632 C 970.167969 1653.332031 1030 1664 1084 1664 C 1210 1664 1273 1608.332031 1273 1497 C 1273 1479.667969 1271.332031 1461 1268 1441 C 1288 1430.332031 1303.832031 1412.832031 1315.5 1388.5 C 1327.167969 1364.167969 1333 1339.667969 1333 1315 C 1333 1290.332031 1327 1267.332031 1315 1246 C 1350.332031 1212.667969 1368 1173 1368 1127 C 1368 1110.332031 1364.667969 1091.832031 1358 1071.5 C 1351.332031 1051.167969 1343 1035.332031 1333 1024 L 1664 1024 C 1698.667969 1024 1728.667969 1011.332031 1754 986 C 1779.332031 960.667969 1792 930.667969 1792 896 Z M 1920 895 C 1920 965 1894.832031 1025.332031 1844.5 1076 C 1794.167969 1126.667969 1734 1152 1664 1152 L 1495 1152 C 1492.332031 1193.332031 1480 1233 1458 1271 C 1460 1285 1461 1299.332031 1461 1314 C 1461 1381.332031 1441 1440.667969 1401 1492 C 1401.667969 1584.667969 1373.332031 1657.832031 1316 1711.5 C 1258.667969 1765.167969 1183 1792 1089 1792 C 1000.332031 1792 893 1769 767 1723 C 657.667969 1683.667969 583.332031 1664 544 1664 L 256 1664 C 220.667969 1664 190.5 1651.5 165.5 1626.5 C 140.5 1601.5 128 1571.332031 128 1536 L 128 896 C 128 860.667969 140.5 830.5 165.5 805.5 C 190.5 780.5 220.667969 768 256 768 L 544 768 C 550.667969 768 557.832031 766.5 565.5 763.5 C 573.167969 760.5 581 755.832031 589 749.5 C 597 743.167969 604.5 737.167969 611.5 731.5 C 618.5 725.832031 626.5 718.332031 635.5 709 C 644.5 699.667969 651.332031 692.5 656 687.5 C 660.667969 682.5 667 675.332031 675 666 C 683 656.667969 687.667969 651 689 649 C 732.332031 599.667969 765.667969 556.667969 789 520 C 797.667969 506 808.667969 485.332031 822 458 C 835.332031 430.667969 847.667969 406.667969 859 386 C 870.332031 365.332031 883.832031 344.332031 899.5 323 C 915.167969 301.667969 933.5 285.167969 954.5 273.5 C 975.5 261.832031 998.667969 256 1024 256 C 1107.332031 256 1176.167969 278.332031 1230.5 323 C 1284.832031 367.667969 1312 430.667969 1312 512 C 1312 557.332031 1304.667969 600 1290 640 L 1664 640 C 1733.332031 640 1793.332031 665.332031 1844 716 C 1894.667969 766.667969 1920 826.332031 1920 895 Z M 1920 895 "/>
</g>
</svg>
