<?xml version="1.0" encoding="utf-8"?>
<svg width="2304" height="1792" viewBox="0 0 2304 1792" xmlns="http://www.w3.org/2000/svg"><path d="M192 1152q40 0 56-32t0-64-56-32-56 32 0 64 56 32zm1473-58q-10-13-38.5-50t-41.5-54-38-49-42.5-53-40.5-47-45-49l-125 140q-83 94-208.5 92t-205.5-98q-57-69-56.5-158t58.5-157l177-206q-22-11-51-16.5t-47.5-6-56.5.5-49 1q-92 0-158 66l-158 158h-155v544q5 0 21-.5t22 0 19.5 2 20.5 4.5 17.5 8.5 18.5 13.5l297 292q115 111 227 111 78 0 125-47 57 20 112.5-8t72.5-85q74 6 127-44 20-18 36-45.5t14-50.5q10 10 43 10 43 0 77-21t49.5-53 12-71.5-30.5-73.5zm159 58h96v-512h-93l-157-180q-66-76-169-76h-167q-89 0-146 67l-209 243q-28 33-28 75t27 75q43 51 110 52t111-49l193-218q25-23 53.5-21.5t47 27 8.5 56.5q16 19 56 63t60 68q29 36 82.5 105.5t64.5 84.5q52 66 60 140zm288 0q40 0 56-32t0-64-56-32-56 32 0 64 56 32zm192-576v640q0 26-19 45t-45 19h-434q-27 65-82 106.5t-125 51.5q-33 48-80.5 81.5t-102.5 45.5q-42 53-104.5 81.5t-128.5 24.5q-60 34-126 39.5t-127.5-14-117-53.5-103.5-81l-287-282h-358q-26 0-45-19t-19-45v-672q0-26 19-45t45-19h421q14-14 47-48t47.5-48 44-40 50.5-37.5 51-25.5 62-19.5 68-5.5h117q99 0 181 56 82-56 181-56h167q35 0 67 6t56.5 14.5 51.5 26.5 44.5 31 43 39.5 39 42 41 48 41.5 48.5h355q26 0 45 19t19 45z"/></svg>