<svg width="2048" height="2048" viewBox="-256 -384 2048 2048" xmlns="http://www.w3.org/2000/svg"><g transform="scale(1 -1) translate(0 -1280)"><path d="M1280 -64q0 26 -19 45t-45 19t-45 -19t-19 -45t19 -45t45 -19t45 19t19 45zM1408 700q0 189 -167 189q-26 0 -56 -5q-16 30 -52.5 47.5t-73.5 17.5t-69 -18q-50 53 -119 53q-25 0 -55.5 -10t-47.5 -25v331q0 52 -38 90t-90 38q-51 0 -89.5 -39t-38.5 -89v-576 q-20 0 -48.5 15t-55 33t-68 33t-84.5 15q-67 0 -97.5 -44.5t-30.5 -115.5q0 -24 139 -90q44 -24 65 -37q64 -40 145 -112q81 -71 106 -101q57 -69 57 -140v-32h640v32q0 72 32 167t64 193.5t32 179.5zM1536 705q0 -133 -69 -322q-59 -164 -59 -223v-288q0 -53 -37.5 -90.5 t-90.5 -37.5h-640q-53 0 -90.5 37.5t-37.5 90.5v288q0 10 -4.5 21.5t-14 23.5t-18 22.5t-22.5 24t-21.5 20.5t-21.5 19t-17 14q-74 65 -129 100q-21 13 -62 33t-72 37t-63 40.5t-49.5 55t-17.5 69.5q0 125 67 206.5t189 81.5q68 0 128 -22v374q0 104 76 180t179 76 q105 0 181 -75.5t76 -180.5v-169q62 -4 119 -37q21 3 43 3q101 0 178 -60q139 1 219.5 -85t80.5 -227z" fill="black" /></g></svg>