<svg width="2048" height="2048" viewBox="-256 -384 2048 2048" xmlns="http://www.w3.org/2000/svg"><g transform="scale(1 -1) translate(0 -1280)"><path d="M1408 576q0 84 -32 183t-64 194t-32 167v32h-640v-32q0 -35 -12 -67.5t-37 -62.5t-46 -50t-54 -49q-9 -8 -14 -12q-81 -72 -145 -112q-22 -14 -68 -38q-3 -1 -22.5 -10.5t-36 -18.5t-35.5 -20t-30.5 -21.5t-11.5 -18.5q0 -71 30.5 -115.5t97.5 -44.5q43 0 84.5 15t68 33 t55 33t48.5 15v-576q0 -50 38.5 -89t89.5 -39q52 0 90 38t38 90v331q46 -35 103 -35q69 0 119 53q32 -18 69 -18t73.5 17.5t52.5 47.5q24 -4 56 -4q85 0 126 48.5t41 135.5zM1280 1344q0 26 -19 45t-45 19t-45 -19t-19 -45t19 -45t45 -19t45 19t19 45zM1536 580 q0 -142 -77.5 -230t-217.5 -87l-5 1q-76 -61 -178 -61q-22 0 -43 3q-54 -30 -119 -37v-169q0 -105 -76 -180.5t-181 -75.5q-103 0 -179 76t-76 180v374q-54 -22 -128 -22q-121 0 -188.5 81.5t-67.5 206.5q0 38 17.5 69.5t49.5 55t63 40.5t72 37t62 33q55 35 129 100 q3 2 17 14t21.5 19t21.5 20.5t22.5 24t18 22.5t14 23.5t4.5 21.5v288q0 53 37.5 90.5t90.5 37.5h640q53 0 90.5 -37.5t37.5 -90.5v-288q0 -59 59 -223q69 -190 69 -317z" fill="black" /></g></svg>