<?xml version="1.0" encoding="UTF-8"?>
<svg xmlns="http://www.w3.org/2000/svg" xmlns:xlink="http://www.w3.org/1999/xlink" width="2048" height="2048" viewBox="0 0 2048 2048" version="1.1">
<g>
<path d="M 1296 1344 C 1296 1366 1288.167969 1384.832031 1272.5 1400.5 C 1256.832031 1416.167969 1238 1424 1216 1424 C 1194 1424 1175.167969 1416.167969 1159.5 1400.5 C 1143.832031 1384.832031 1136 1366 1136 1344 C 1136 1322 1143.832031 1303.167969 1159.5 1287.5 C 1175.167969 1271.832031 1194 1264 1216 1264 C 1238 1264 1256.832031 1271.832031 1272.5 1287.5 C 1288.167969 1303.167969 1296 1322 1296 1344 Z M 1552 1344 C 1552 1366 1544.167969 1384.832031 1528.5 1400.5 C 1512.832031 1416.167969 1494 1424 1472 1424 C 1450 1424 1431.167969 1416.167969 1415.5 1400.5 C 1399.832031 1384.832031 1392 1366 1392 1344 C 1392 1322 1399.832031 1303.167969 1415.5 1287.5 C 1431.167969 1271.832031 1450 1264 1472 1264 C 1494 1264 1512.832031 1271.832031 1528.5 1287.5 C 1544.167969 1303.167969 1552 1322 1552 1344 Z M 1664 1504 L 1664 1184 C 1664 1175.332031 1660.832031 1167.832031 1654.5 1161.5 C 1648.167969 1155.167969 1640.667969 1152 1632 1152 L 416 1152 C 407.332031 1152 399.832031 1155.167969 393.5 1161.5 C 387.167969 1167.832031 384 1175.332031 384 1184 L 384 1504 C 384 1512.667969 387.167969 1520.167969 393.5 1526.5 C 399.832031 1532.832031 407.332031 1536 416 1536 L 1632 1536 C 1640.667969 1536 1648.167969 1532.832031 1654.5 1526.5 C 1660.832031 1520.167969 1664 1512.667969 1664 1504 Z M 434 1024 L 1614 1024 L 1457 542 C 1454.332031 533.332031 1449 526.167969 1441 520.5 C 1433 514.832031 1424.332031 512 1415 512 L 633 512 C 623.667969 512 615 514.832031 607 520.5 C 599 526.167969 593.667969 533.332031 591 542 Z M 1792 1184 L 1792 1504 C 1792 1548 1776.332031 1585.667969 1745 1617 C 1713.667969 1648.332031 1676 1664 1632 1664 L 416 1664 C 372 1664 334.332031 1648.332031 303 1617 C 271.667969 1585.667969 256 1548 256 1504 L 256 1184 C 256 1167.332031 261.332031 1142.332031 272 1109 L 469 503 C 480.332031 467.667969 501.332031 439 532 417 C 562.667969 395 596.332031 384 633 384 L 1415 384 C 1451.667969 384 1485.332031 395 1516 417 C 1546.667969 439 1567.667969 467.667969 1579 503 L 1776 1109 C 1786.667969 1142.332031 1792 1167.332031 1792 1184 Z M 1792 1184 "/>
</g>
</svg>
