<?xml version="1.0" encoding="UTF-8"?>
<svg xmlns="http://www.w3.org/2000/svg" xmlns:xlink="http://www.w3.org/1999/xlink" width="2048" height="2048" viewBox="0 0 2048 2048" version="1.1">
<g>
<path d="M 1856 1014 C 1856 1124.667969 1836 1229.332031 1796 1328 L 1776 1377 L 1591 1410 C 1576.332031 1465.332031 1546.167969 1510.832031 1500.5 1546.5 C 1454.832031 1582.167969 1402.667969 1600 1344 1600 L 1344 1632 C 1344 1641.332031 1341 1649 1335 1655 C 1329 1661 1321.332031 1664 1312 1664 L 1248 1664 C 1238.667969 1664 1231 1661 1225 1655 C 1219 1649 1216 1641.332031 1216 1632 L 1216 1056 C 1216 1046.667969 1219 1039 1225 1033 C 1231 1027 1238.667969 1024 1248 1024 L 1312 1024 C 1321.332031 1024 1329 1027 1335 1033 C 1341 1039 1344 1046.667969 1344 1056 L 1344 1088 C 1391.332031 1088 1434.667969 1099.832031 1474 1123.5 C 1513.332031 1147.167969 1544.332031 1179 1567 1219 L 1635 1207 C 1654.332031 1143.667969 1664 1079.332031 1664 1014 C 1664 915.332031 1634.667969 822.332031 1576 735 C 1517.332031 647.667969 1438.5 578 1339.5 526 C 1240.5 474 1135.332031 448 1024 448 C 912.667969 448 807.5 474 708.5 526 C 609.5 578 530.667969 647.667969 472 735 C 413.332031 822.332031 384 915.332031 384 1014 C 384 1079.332031 393.667969 1143.667969 413 1207 L 481 1219 C 503.667969 1179 534.667969 1147.167969 574 1123.5 C 613.332031 1099.832031 656.667969 1088 704 1088 L 704 1056 C 704 1046.667969 707 1039 713 1033 C 719 1027 726.667969 1024 736 1024 L 800 1024 C 809.332031 1024 817 1027 823 1033 C 829 1039 832 1046.667969 832 1056 L 832 1632 C 832 1641.332031 829 1649 823 1655 C 817 1661 809.332031 1664 800 1664 L 736 1664 C 726.667969 1664 719 1661 713 1655 C 707 1649 704 1641.332031 704 1632 L 704 1600 C 645.332031 1600 593.167969 1582.167969 547.5 1546.5 C 501.832031 1510.832031 471.667969 1465.332031 457 1410 L 272 1377 L 252 1328 C 212 1229.332031 192 1124.667969 192 1014 C 192 913.332031 214.332031 816.332031 259 723 C 303.667969 629.667969 363.332031 548.832031 438 480.5 C 512.667969 412.167969 601.332031 357.667969 704 317 C 806.667969 276.332031 913.332031 256 1024 256 C 1134.667969 256 1241.332031 276.332031 1344 317 C 1446.667969 357.667969 1535.332031 412.167969 1610 480.5 C 1684.667969 548.832031 1744.332031 629.667969 1789 723 C 1833.667969 816.332031 1856 913.332031 1856 1014 Z M 1856 1014 "/>
</g>
</svg>
