<svg width="2048" height="2048" viewBox="-192 -384 2048 2048" xmlns="http://www.w3.org/2000/svg"><g transform="scale(1 -1) translate(0 -1280)"><path d="M1664 650q0 -166 -60 -314l-20 -49l-185 -33q-22 -83 -90.5 -136.5t-156.5 -53.5v-32q0 -14 -9 -23t-23 -9h-64q-14 0 -23 9t-9 23v576q0 14 9 23t23 9h64q14 0 23 -9t9 -23v-32q71 0 130 -35.5t93 -95.5l68 12q29 95 29 193q0 148 -88 279t-236.5 209t-315.5 78 t-315.5 -78t-236.5 -209t-88 -279q0 -98 29 -193l68 -12q34 60 93 95.5t130 35.5v32q0 14 9 23t23 9h64q14 0 23 -9t9 -23v-576q0 -14 -9 -23t-23 -9h-64q-14 0 -23 9t-9 23v32q-88 0 -156.5 53.5t-90.5 136.5l-185 33l-20 49q-60 148 -60 314q0 151 67 291t179 242.5 t266 163.5t320 61t320 -61t266 -163.5t179 -242.5t67 -291z" fill="black" /></g></svg>