<?xml version="1.0" encoding="UTF-8"?>
<svg xmlns="http://www.w3.org/2000/svg" xmlns:xlink="http://www.w3.org/1999/xlink" width="2048" height="2048" viewBox="0 0 2048 2048" version="1.1">
<g>
<path d="M 1792 724 C 1792 670 1784.832031 622.332031 1770.5 581 C 1756.167969 539.667969 1737.832031 506.832031 1715.5 482.5 C 1693.167969 458.167969 1666 438.332031 1634 423 C 1602 407.667969 1570.667969 397.332031 1540 392 C 1509.332031 386.667969 1476.667969 384 1442 384 C 1407.332031 384 1370 392.5 1330 409.5 C 1290 426.5 1253.167969 447.832031 1219.5 473.5 C 1185.832031 499.167969 1157 523.167969 1133 545.5 C 1109 567.832031 1089 588.332031 1073 607 C 1061 621.667969 1044.667969 629 1024 629 C 1003.332031 629 987 621.667969 975 607 C 959 588.332031 939 567.832031 915 545.5 C 891 523.167969 862.167969 499.167969 828.5 473.5 C 794.832031 447.832031 758 426.5 718 409.5 C 678 392.5 640.667969 384 606 384 C 571.332031 384 538.667969 386.667969 508 392 C 477.332031 397.332031 446 407.667969 414 423 C 382 438.332031 354.832031 458.167969 332.5 482.5 C 310.167969 506.832031 291.832031 539.667969 277.5 581 C 263.167969 622.332031 256 670 256 724 C 256 836 318.332031 954.332031 443 1079 L 1024 1639 L 1604 1080 C 1729.332031 954.667969 1792 836 1792 724 Z M 1920 724 C 1920 871.332031 1843.667969 1021.332031 1691 1174 L 1068 1774 C 1056 1786 1041.332031 1792 1024 1792 C 1006.667969 1792 992 1786 980 1774 L 356 1172 C 349.332031 1166.667969 340.167969 1158 328.5 1146 C 316.832031 1134 298.332031 1112.167969 273 1080.5 C 247.667969 1048.832031 225 1016.332031 205 983 C 185 949.667969 167.167969 909.332031 151.5 862 C 135.832031 814.667969 128 768.667969 128 724 C 128 577.332031 170.332031 462.667969 255 380 C 339.667969 297.332031 456.667969 256 606 256 C 647.332031 256 689.5 263.167969 732.5 277.5 C 775.5 291.832031 815.5 311.167969 852.5 335.5 C 889.5 359.832031 921.332031 382.667969 948 404 C 974.667969 425.332031 1000 448 1024 472 C 1048 448 1073.332031 425.332031 1100 404 C 1126.667969 382.667969 1158.5 359.832031 1195.5 335.5 C 1232.5 311.167969 1272.5 291.832031 1315.5 277.5 C 1358.5 263.167969 1400.667969 256 1442 256 C 1591.332031 256 1708.332031 297.332031 1793 380 C 1877.667969 462.667969 1920 577.332031 1920 724 Z M 1920 724 "/>
</g>
</svg>
