<?xml version="1.0" encoding="UTF-8"?>
<svg xmlns="http://www.w3.org/2000/svg" xmlns:xlink="http://www.w3.org/1999/xlink" width="2048" height="2048" viewBox="0 0 2048 2048" version="1.1">
<g>
<path d="M 1600 1120 L 1600 1600 C 1600 1617.332031 1593.667969 1632.332031 1581 1645 C 1568.332031 1657.667969 1553.332031 1664 1536 1664 L 1152 1664 L 1152 1280 L 896 1280 L 896 1664 L 512 1664 C 494.667969 1664 479.667969 1657.667969 467 1645 C 454.332031 1632.332031 448 1617.332031 448 1600 L 448 1120 C 448 1119.332031 448.167969 1118.332031 448.5 1117 C 448.832031 1115.667969 449 1114.667969 449 1114 L 1024 640 L 1599 1114 C 1599.667969 1115.332031 1600 1117.332031 1600 1120 Z M 1823 1051 L 1761 1125 C 1755.667969 1131 1748.667969 1134.667969 1740 1136 L 1737 1136 C 1728.332031 1136 1721.332031 1133.667969 1716 1129 L 1024 552 L 332 1129 C 324 1134.332031 316 1136.667969 308 1136 C 299.332031 1134.667969 292.332031 1131 287 1125 L 225 1051 C 219.667969 1044.332031 217.332031 1036.5 218 1027.5 C 218.667969 1018.5 222.332031 1011.332031 229 1006 L 948 407 C 969.332031 389.667969 994.667969 381 1024 381 C 1053.332031 381 1078.667969 389.667969 1100 407 L 1344 611 L 1344 416 C 1344 406.667969 1347 399 1353 393 C 1359 387 1366.667969 384 1376 384 L 1568 384 C 1577.332031 384 1585 387 1591 393 C 1597 399 1600 406.667969 1600 416 L 1600 824 L 1819 1006 C 1825.667969 1011.332031 1829.332031 1018.5 1830 1027.5 C 1830.667969 1036.5 1828.332031 1044.332031 1823 1051 Z M 1823 1051 "/>
</g>
</svg>
