<?xml version="1.0" encoding="utf-8"?>
<svg width="1792" height="1792" viewBox="0 0 1792 1792" xmlns="http://www.w3.org/2000/svg"><path d="M1050 797v182q0 4 .5 15t0 15l-1.5 12-3.5 11.5-6.5 7.5-11 5.5-16 1.5v-309q9 0 16 1t11 5 6.5 5.5 3.5 9.5 1 10.5v27.5zm316 96v121q0 1 .5 12.5t0 15.5-2.5 11.5-7.5 10.5-13.5 3q-9 0-14-9-4-10-4-165v-24.5l1.5-8.5 3.5-7 5-5.5 8-1.5q6 0 10 1.5t6.5 4.5 4 6 2 8.5.5 8v18.5zm-1058 236h122v-472h-122v472zm434 0h106v-472h-159l-28 221q-20-148-32-221h-158v472h107v-312l45 312h76l43-319v319zm425-305q0-67-5-90-3-16-11-28.5t-17-20.5-25-14-26.5-8.5-31-4-29-1.5h-132.5v472h56q169 1 197-24.5t25-180.5q-1-62-1-100zm317 197v-133q0-29-2-45t-9.5-33.5-24.5-25-46-7.5q-46 0-77 34v-154h-117v472h110l7-30q30 36 77 36 50 0 66-30.5t16-83.5zm180-733v1216q0 66-47 113t-113 47h-1216q-66 0-113-47t-47-113v-1216q0-66 47-113t113-47h1216q66 0 113 47t47 113z"/></svg>