<?xml version="1.0" encoding="UTF-8"?>
<svg xmlns="http://www.w3.org/2000/svg" xmlns:xlink="http://www.w3.org/1999/xlink" width="2048" height="2048" viewBox="0 0 2048 2048" version="1.1">
<g>
<path d="M 480 960 C 480 969.332031 477 977 471 983 L 183 1271 C 177 1277 169.332031 1280 160 1280 C 151.332031 1280 143.832031 1276.832031 137.5 1270.5 C 131.167969 1264.167969 128 1256.667969 128 1248 L 128 672 C 128 663.332031 131.167969 655.832031 137.5 649.5 C 143.832031 643.167969 151.332031 640 160 640 C 169.332031 640 177 643 183 649 L 471 937 C 477 943 480 950.667969 480 960 Z M 1920 1440 L 1920 1632 C 1920 1640.667969 1916.832031 1648.167969 1910.5 1654.5 C 1904.167969 1660.832031 1896.667969 1664 1888 1664 L 160 1664 C 151.332031 1664 143.832031 1660.832031 137.5 1654.5 C 131.167969 1648.167969 128 1640.667969 128 1632 L 128 1440 C 128 1431.332031 131.167969 1423.832031 137.5 1417.5 C 143.832031 1411.167969 151.332031 1408 160 1408 L 1888 1408 C 1896.667969 1408 1904.167969 1411.167969 1910.5 1417.5 C 1916.832031 1423.832031 1920 1431.332031 1920 1440 Z M 1920 1056 L 1920 1248 C 1920 1256.667969 1916.832031 1264.167969 1910.5 1270.5 C 1904.167969 1276.832031 1896.667969 1280 1888 1280 L 800 1280 C 791.332031 1280 783.832031 1276.832031 777.5 1270.5 C 771.167969 1264.167969 768 1256.667969 768 1248 L 768 1056 C 768 1047.332031 771.167969 1039.832031 777.5 1033.5 C 783.832031 1027.167969 791.332031 1024 800 1024 L 1888 1024 C 1896.667969 1024 1904.167969 1027.167969 1910.5 1033.5 C 1916.832031 1039.832031 1920 1047.332031 1920 1056 Z M 1920 672 L 1920 864 C 1920 872.667969 1916.832031 880.167969 1910.5 886.5 C 1904.167969 892.832031 1896.667969 896 1888 896 L 800 896 C 791.332031 896 783.832031 892.832031 777.5 886.5 C 771.167969 880.167969 768 872.667969 768 864 L 768 672 C 768 663.332031 771.167969 655.832031 777.5 649.5 C 783.832031 643.167969 791.332031 640 800 640 L 1888 640 C 1896.667969 640 1904.167969 643.167969 1910.5 649.5 C 1916.832031 655.832031 1920 663.332031 1920 672 Z M 1920 288 L 1920 480 C 1920 488.667969 1916.832031 496.167969 1910.5 502.5 C 1904.167969 508.832031 1896.667969 512 1888 512 L 160 512 C 151.332031 512 143.832031 508.832031 137.5 502.5 C 131.167969 496.167969 128 488.667969 128 480 L 128 288 C 128 279.332031 131.167969 271.832031 137.5 265.5 C 143.832031 259.167969 151.332031 256 160 256 L 1888 256 C 1896.667969 256 1904.167969 259.167969 1910.5 265.5 C 1916.832031 271.832031 1920 279.332031 1920 288 Z M 1920 288 "/>
</g>
</svg>
