<?xml version="1.0" encoding="UTF-8"?>
<svg xmlns="http://www.w3.org/2000/svg" xmlns:xlink="http://www.w3.org/1999/xlink" width="2048" height="2048" viewBox="0 0 2048 2048" version="1.1">
<g>
<path d="M 1280 1504 L 1280 1344 C 1280 1334.667969 1277 1327 1271 1321 C 1265 1315 1257.332031 1312 1248 1312 L 1152 1312 L 1152 800 C 1152 790.667969 1149 783 1143 777 C 1137 771 1129.332031 768 1120 768 L 800 768 C 790.667969 768 783 771 777 777 C 771 783 768 790.667969 768 800 L 768 960 C 768 969.332031 771 977 777 983 C 783 989 790.667969 992 800 992 L 896 992 L 896 1312 L 800 1312 C 790.667969 1312 783 1315 777 1321 C 771 1327 768 1334.667969 768 1344 L 768 1504 C 768 1513.332031 771 1521 777 1527 C 783 1533 790.667969 1536 800 1536 L 1248 1536 C 1257.332031 1536 1265 1533 1271 1527 C 1277 1521 1280 1513.332031 1280 1504 Z M 1152 608 L 1152 448 C 1152 438.667969 1149 431 1143 425 C 1137 419 1129.332031 416 1120 416 L 928 416 C 918.667969 416 911 419 905 425 C 899 431 896 438.667969 896 448 L 896 608 C 896 617.332031 899 625 905 631 C 911 637 918.667969 640 928 640 L 1120 640 C 1129.332031 640 1137 637 1143 631 C 1149 625 1152 617.332031 1152 608 Z M 1792 1024 C 1792 1163.332031 1757.667969 1291.832031 1689 1409.5 C 1620.332031 1527.167969 1527.167969 1620.332031 1409.5 1689 C 1291.832031 1757.667969 1163.332031 1792 1024 1792 C 884.667969 1792 756.167969 1757.667969 638.5 1689 C 520.832031 1620.332031 427.667969 1527.167969 359 1409.5 C 290.332031 1291.832031 256 1163.332031 256 1024 C 256 884.667969 290.332031 756.167969 359 638.5 C 427.667969 520.832031 520.832031 427.667969 638.5 359 C 756.167969 290.332031 884.667969 256 1024 256 C 1163.332031 256 1291.832031 290.332031 1409.5 359 C 1527.167969 427.667969 1620.332031 520.832031 1689 638.5 C 1757.667969 756.167969 1792 884.667969 1792 1024 Z M 1792 1024 "/>
</g>
</svg>
