<?xml version="1.0" encoding="UTF-8"?>
<svg xmlns="http://www.w3.org/2000/svg" xmlns:xlink="http://www.w3.org/1999/xlink" width="2048" height="2048" viewBox="0 0 2048 2048" version="1.1">
<g>
<path d="M 1344 1472 L 1344 1600 C 1344 1617.332031 1337.667969 1632.332031 1325 1645 C 1312.332031 1657.667969 1297.332031 1664 1280 1664 L 768 1664 C 750.667969 1664 735.667969 1657.667969 723 1645 C 710.332031 1632.332031 704 1617.332031 704 1600 L 704 1472 C 704 1454.667969 710.332031 1439.667969 723 1427 C 735.667969 1414.332031 750.667969 1408 768 1408 L 832 1408 L 832 1024 L 768 1024 C 750.667969 1024 735.667969 1017.667969 723 1005 C 710.332031 992.332031 704 977.332031 704 960 L 704 832 C 704 814.667969 710.332031 799.667969 723 787 C 735.667969 774.332031 750.667969 768 768 768 L 1152 768 C 1169.332031 768 1184.332031 774.332031 1197 787 C 1209.667969 799.667969 1216 814.667969 1216 832 L 1216 1408 L 1280 1408 C 1297.332031 1408 1312.332031 1414.332031 1325 1427 C 1337.667969 1439.667969 1344 1454.667969 1344 1472 Z M 1216 320 L 1216 512 C 1216 529.332031 1209.667969 544.332031 1197 557 C 1184.332031 569.667969 1169.332031 576 1152 576 L 896 576 C 878.667969 576 863.667969 569.667969 851 557 C 838.332031 544.332031 832 529.332031 832 512 L 832 320 C 832 302.667969 838.332031 287.667969 851 275 C 863.667969 262.332031 878.667969 256 896 256 L 1152 256 C 1169.332031 256 1184.332031 262.332031 1197 275 C 1209.667969 287.667969 1216 302.667969 1216 320 Z M 1216 320 "/>
</g>
</svg>
