<svg width="2048" height="2048" viewBox="-575 -384 2048 2048" xmlns="http://www.w3.org/2000/svg"><g transform="scale(1 -1) translate(0 -1280)"><path d="M898 1066v-102q0 -14 -9 -23t-23 -9h-168q-23 -144 -129 -234t-276 -110q167 -178 459 -536q14 -16 4 -34q-8 -18 -29 -18h-195q-16 0 -25 12q-306 367 -498 571q-9 9 -9 22v127q0 13 9.5 22.5t22.5 9.5h112q132 0 212.5 43t102.5 125h-427q-14 0 -23 9t-9 23v102 q0 14 9 23t23 9h413q-57 113 -268 113h-145q-13 0 -22.5 9.5t-9.5 22.5v133q0 14 9 23t23 9h832q14 0 23 -9t9 -23v-102q0 -14 -9 -23t-23 -9h-233q47 -61 64 -144h171q14 0 23 -9t9 -23z" fill="black" /></g></svg>