<?xml version="1.0" encoding="UTF-8"?>
<svg xmlns="http://www.w3.org/2000/svg" xmlns:xlink="http://www.w3.org/1999/xlink" width="2048" height="2048" viewBox="0 0 2048 2048" version="1.1">
<g>
<path d="M 1618 1554 L 1618 906 L 1483 906 C 1496.332031 948 1503 991.667969 1503 1037 C 1503 1121 1481.667969 1198.5 1439 1269.5 C 1396.332031 1340.5 1338.332031 1396.667969 1265 1438 C 1191.667969 1479.332031 1111.667969 1500 1025 1500 C 893.667969 1500 781.332031 1454.832031 688 1364.5 C 594.667969 1274.167969 548 1165 548 1037 C 548 991.667969 554.667969 948 568 906 L 427 906 L 427 1554 C 427 1571.332031 432.832031 1585.832031 444.5 1597.5 C 456.167969 1609.167969 470.667969 1615 488 1615 L 1557 1615 C 1573.667969 1615 1588 1609.167969 1600 1597.5 C 1612 1585.832031 1618 1571.332031 1618 1554 Z M 1334 1021 C 1334 938.332031 1303.832031 867.832031 1243.5 809.5 C 1183.167969 751.167969 1110.332031 722 1025 722 C 940.332031 722 867.832031 751.167969 807.5 809.5 C 747.167969 867.832031 717 938.332031 717 1021 C 717 1103.667969 747.167969 1174.167969 807.5 1232.5 C 867.832031 1290.832031 940.332031 1320 1025 1320 C 1110.332031 1320 1183.167969 1290.832031 1243.5 1232.5 C 1303.832031 1174.167969 1334 1103.667969 1334 1021 Z M 1618 661 L 1618 496 C 1618 477.332031 1611.332031 461.167969 1598 447.5 C 1584.667969 433.832031 1568.332031 427 1549 427 L 1375 427 C 1355.667969 427 1339.332031 433.832031 1326 447.5 C 1312.667969 461.167969 1306 477.332031 1306 496 L 1306 661 C 1306 680.332031 1312.667969 696.667969 1326 710 C 1339.332031 723.332031 1355.667969 730 1375 730 L 1549 730 C 1568.332031 730 1584.667969 723.332031 1598 710 C 1611.332031 696.667969 1618 680.332031 1618 661 Z M 1792 453 L 1792 1595 C 1792 1649 1772.667969 1695.332031 1734 1734 C 1695.332031 1772.667969 1649 1792 1595 1792 L 453 1792 C 399 1792 352.667969 1772.667969 314 1734 C 275.332031 1695.332031 256 1649 256 1595 L 256 453 C 256 399 275.332031 352.667969 314 314 C 352.667969 275.332031 399 256 453 256 L 1595 256 C 1649 256 1695.332031 275.332031 1734 314 C 1772.667969 352.667969 1792 399 1792 453 Z M 1792 453 "/>
</g>
</svg>
