<?xml version="1.0" encoding="UTF-8"?>
<svg xmlns="http://www.w3.org/2000/svg" xmlns:xlink="http://www.w3.org/1999/xlink" width="2048" height="2048" viewBox="0 0 2048 2048" version="1.1">
<g>
<path d="M 448 1296 L 448 1392 C 448 1402.667969 442.667969 1408 432 1408 L 336 1408 C 325.332031 1408 320 1402.667969 320 1392 L 320 1296 C 320 1285.332031 325.332031 1280 336 1280 L 432 1280 C 442.667969 1280 448 1285.332031 448 1296 Z M 576 1040 L 576 1136 C 576 1146.667969 570.667969 1152 560 1152 L 336 1152 C 325.332031 1152 320 1146.667969 320 1136 L 320 1040 C 320 1029.332031 325.332031 1024 336 1024 L 560 1024 C 570.667969 1024 576 1029.332031 576 1040 Z M 448 784 L 448 880 C 448 890.667969 442.667969 896 432 896 L 336 896 C 325.332031 896 320 890.667969 320 880 L 320 784 C 320 773.332031 325.332031 768 336 768 L 432 768 C 442.667969 768 448 773.332031 448 784 Z M 1472 1296 L 1472 1392 C 1472 1402.667969 1466.667969 1408 1456 1408 L 592 1408 C 581.332031 1408 576 1402.667969 576 1392 L 576 1296 C 576 1285.332031 581.332031 1280 592 1280 L 1456 1280 C 1466.667969 1280 1472 1285.332031 1472 1296 Z M 832 1040 L 832 1136 C 832 1146.667969 826.667969 1152 816 1152 L 720 1152 C 709.332031 1152 704 1146.667969 704 1136 L 704 1040 C 704 1029.332031 709.332031 1024 720 1024 L 816 1024 C 826.667969 1024 832 1029.332031 832 1040 Z M 704 784 L 704 880 C 704 890.667969 698.667969 896 688 896 L 592 896 C 581.332031 896 576 890.667969 576 880 L 576 784 C 576 773.332031 581.332031 768 592 768 L 688 768 C 698.667969 768 704 773.332031 704 784 Z M 1088 1040 L 1088 1136 C 1088 1146.667969 1082.667969 1152 1072 1152 L 976 1152 C 965.332031 1152 960 1146.667969 960 1136 L 960 1040 C 960 1029.332031 965.332031 1024 976 1024 L 1072 1024 C 1082.667969 1024 1088 1029.332031 1088 1040 Z M 960 784 L 960 880 C 960 890.667969 954.667969 896 944 896 L 848 896 C 837.332031 896 832 890.667969 832 880 L 832 784 C 832 773.332031 837.332031 768 848 768 L 944 768 C 954.667969 768 960 773.332031 960 784 Z M 1344 1040 L 1344 1136 C 1344 1146.667969 1338.667969 1152 1328 1152 L 1232 1152 C 1221.332031 1152 1216 1146.667969 1216 1136 L 1216 1040 C 1216 1029.332031 1221.332031 1024 1232 1024 L 1328 1024 C 1338.667969 1024 1344 1029.332031 1344 1040 Z M 1728 1296 L 1728 1392 C 1728 1402.667969 1722.667969 1408 1712 1408 L 1616 1408 C 1605.332031 1408 1600 1402.667969 1600 1392 L 1600 1296 C 1600 1285.332031 1605.332031 1280 1616 1280 L 1712 1280 C 1722.667969 1280 1728 1285.332031 1728 1296 Z M 1216 784 L 1216 880 C 1216 890.667969 1210.667969 896 1200 896 L 1104 896 C 1093.332031 896 1088 890.667969 1088 880 L 1088 784 C 1088 773.332031 1093.332031 768 1104 768 L 1200 768 C 1210.667969 768 1216 773.332031 1216 784 Z M 1472 784 L 1472 880 C 1472 890.667969 1466.667969 896 1456 896 L 1360 896 C 1349.332031 896 1344 890.667969 1344 880 L 1344 784 C 1344 773.332031 1349.332031 768 1360 768 L 1456 768 C 1466.667969 768 1472 773.332031 1472 784 Z M 1728 784 L 1728 1136 C 1728 1146.667969 1722.667969 1152 1712 1152 L 1488 1152 C 1477.332031 1152 1472 1146.667969 1472 1136 L 1472 1040 C 1472 1029.332031 1477.332031 1024 1488 1024 L 1600 1024 L 1600 784 C 1600 773.332031 1605.332031 768 1616 768 L 1712 768 C 1722.667969 768 1728 773.332031 1728 784 Z M 1856 1536 L 1856 640 L 192 640 L 192 1536 Z M 1984 640 L 1984 1536 C 1984 1571.332031 1971.5 1601.5 1946.5 1626.5 C 1921.5 1651.5 1891.332031 1664 1856 1664 L 192 1664 C 156.667969 1664 126.5 1651.5 101.5 1626.5 C 76.5 1601.5 64 1571.332031 64 1536 L 64 640 C 64 604.667969 76.5 574.5 101.5 549.5 C 126.5 524.5 156.667969 512 192 512 L 1856 512 C 1891.332031 512 1921.5 524.5 1946.5 549.5 C 1971.5 574.5 1984 604.667969 1984 640 Z M 1984 640 "/>
</g>
</svg>
