<?xml version="1.0" encoding="UTF-8"?>
<svg xmlns="http://www.w3.org/2000/svg" xmlns:xlink="http://www.w3.org/1999/xlink" width="2048" height="2048" viewBox="0 0 2048 2048" version="1.1">
<g>
<path d="M 1408 832 C 1408 814.667969 1401.667969 799.667969 1389 787 C 1376.332031 774.332031 1361.332031 768 1344 768 C 1229.332031 768 1123.332031 784.5 1026 817.5 C 928.667969 850.5 842.167969 895.167969 766.5 951.5 C 690.832031 1007.832031 612.332031 1081 531 1171 C 518.332031 1185 512 1200 512 1216 C 512 1233.332031 518.332031 1248.332031 531 1261 C 543.667969 1273.667969 558.667969 1280 576 1280 C 592 1280 607 1273.667969 621 1261 C 639 1245 663.667969 1221.332031 695 1190 C 726.332031 1158.667969 748.667969 1136.667969 762 1124 C 853.332031 1041.332031 942.832031 982.667969 1030.5 948 C 1118.167969 913.332031 1222.667969 896 1344 896 C 1361.332031 896 1376.332031 889.667969 1389 877 C 1401.667969 864.332031 1408 849.332031 1408 832 Z M 1920 634 C 1920 697.332031 1913.332031 761.667969 1900 827 C 1869.332031 976.332031 1807.832031 1104 1715.5 1210 C 1623.167969 1316 1504 1405.332031 1358 1478 C 1215.332031 1550 1069.332031 1586 920 1586 C 821.332031 1586 726 1570.332031 634 1539 C 624 1535.667969 594.667969 1521.667969 546 1497 C 497.332031 1472.332031 465.332031 1460 450 1460 C 439.332031 1460 426.167969 1470.667969 410.5 1492 C 394.832031 1513.332031 379.832031 1536.667969 365.5 1562 C 351.167969 1587.332031 333.667969 1610.667969 313 1632 C 292.332031 1653.332031 272.332031 1664 253 1664 C 233 1664 216 1660.332031 202 1653 C 188 1645.667969 177.667969 1637.667969 171 1629 C 164.332031 1620.332031 155.332031 1606.332031 144 1587 C 142.667969 1584.332031 140.667969 1580.667969 138 1576 C 135.332031 1571.332031 133.5 1568 132.5 1566 C 131.5 1564 130.5 1560.832031 129.5 1556.5 C 128.5 1552.167969 128 1547.667969 128 1543 C 128 1519.667969 138.332031 1495.167969 159 1469.5 C 179.667969 1443.832031 202.332031 1422 227 1404 C 251.667969 1386 274.332031 1367.332031 295 1348 C 315.667969 1328.667969 326 1312.667969 326 1300 C 326 1297.332031 321.332031 1284.667969 312 1262 C 302.667969 1239.332031 297.332031 1224.667969 296 1218 C 290 1184 287 1149.332031 287 1114 C 287 1037.332031 301.5 964 330.5 894 C 359.5 824 399.167969 762.5 449.5 709.5 C 499.832031 656.5 556.667969 610.167969 620 570.5 C 683.332031 530.832031 751.332031 499 824 475 C 860.667969 463 909 454.5 969 449.5 C 1029 444.5 1088.832031 441.5 1148.5 440.5 C 1208.167969 439.5 1267.667969 437.5 1327 434.5 C 1386.332031 431.5 1440.832031 423.5 1490.5 410.5 C 1540.167969 397.5 1578 378.667969 1604 354 L 1633.5 324.5 C 1633.5 324.5 1643.332031 315.167969 1663 296.5 C 1682.667969 277.832031 1691.667969 271.167969 1690 276.5 C 1688.332031 281.832031 1700.5 276.5 1726.5 260.5 C 1752.5 244.5 1767 243 1770 256 C 1796 256 1819.5 271.332031 1840.5 302 C 1861.5 332.667969 1877.332031 370 1888 414 C 1898.667969 458 1906.667969 499.332031 1912 538 C 1917.332031 576.667969 1920 608.667969 1920 634 Z M 1920 634 "/>
</g>
</svg>
