<svg width="2048" height="2048" viewBox="-128 -384 2048 2048" xmlns="http://www.w3.org/2000/svg"><g transform="scale(1 -1) translate(0 -1280)"><path d="M1280 832q0 26 -19 45t-45 19q-172 0 -318 -49.5t-259.5 -134t-235.5 -219.5q-19 -21 -19 -45q0 -26 19 -45t45 -19q24 0 45 19q27 24 74 71t67 66q137 124 268.5 176t313.5 52q26 0 45 19t19 45zM1792 1030q0 -95 -20 -193q-46 -224 -184.5 -383t-357.5 -268 q-214 -108 -438 -108q-148 0 -286 47q-15 5 -88 42t-96 37q-16 0 -39.5 -32t-45 -70t-52.5 -70t-60 -32q-30 0 -51 11t-31 24t-27 42q-2 4 -6 11t-5.5 10t-3 9.5t-1.5 13.5q0 35 31 73.5t68 65.5t68 56t31 48q0 4 -14 38t-16 44q-9 51 -9 104q0 115 43.5 220t119 184.5 t170.5 139t204 95.5q55 18 145 25.5t179.5 9t178.5 6t163.5 24t113.5 56.5l29.5 29.5t29.5 28t27 20t36.5 16t43.5 4.5q39 0 70.5 -46t47.5 -112t24 -124t8 -96z" fill="black" /></g></svg>