<?xml version="1.0" encoding="UTF-8"?>
<svg xmlns="http://www.w3.org/2000/svg" xmlns:xlink="http://www.w3.org/1999/xlink" width="2048" height="2048" viewBox="0 0 2048 2048" version="1.1">
<g>
<path d="M 1663 954 C 1663 924.667969 1660.667969 886.832031 1656 840.5 C 1651.332031 794.167969 1645.332031 762 1638 744 C 1630 724 1624.332031 709.332031 1621 700 C 1617.667969 690.667969 1614.667969 678.5 1612 663.5 C 1609.332031 648.5 1608 632.332031 1608 615 C 1608 599.667969 1609.667969 576.832031 1613 546.5 C 1616.332031 516.167969 1618 493.667969 1618 479 C 1618 454.332031 1614.667969 436 1608 424 C 1605.332031 423.332031 1601 423 1595 423 C 1582.332031 423 1563 424.5 1537 427.5 C 1511 430.5 1491.332031 432 1478 432 C 1438 432 1379.332031 424 1302 408 C 1224.667969 392 1166.332031 384 1127 384 C 1098.332031 384 1066.832031 387.832031 1032.5 395.5 C 998.167969 403.167969 969.832031 411 947.5 419 C 925.167969 427 895.332031 438.332031 858 453 C 766.667969 489 699.332031 523.332031 656 556 C 592 604.667969 538.832031 667.832031 496.5 745.5 C 454.167969 823.167969 424.832031 901.832031 408.5 981.5 C 392.167969 1061.167969 384 1144 384 1230 C 384 1256.667969 388.167969 1296.667969 396.5 1350 C 404.832031 1403.332031 409 1443.667969 409 1471 C 409 1486.332031 405.332031 1508.5 398 1537.5 C 390.667969 1566.5 387 1588.332031 387 1603 C 387 1617.667969 391 1629.832031 399 1639.5 C 407 1649.167969 418.332031 1654 433 1654 C 449 1654 473.167969 1650.332031 505.5 1643 C 537.832031 1635.667969 562.332031 1632 579 1632 C 617 1632 673.5 1637.167969 748.5 1647.5 C 823.5 1657.832031 880 1663 918 1663 C 1038.667969 1663 1133.332031 1651 1202 1627 C 1288 1597 1366.5 1546.167969 1437.5 1474.5 C 1508.5 1402.832031 1563.832031 1321 1603.5 1229 C 1643.167969 1137 1663 1045.332031 1663 954 Z M 1791 952 C 1791 1062 1767.667969 1171.167969 1721 1279.5 C 1674.332031 1387.832031 1609 1483.832031 1525 1567.5 C 1441 1651.167969 1347.332031 1711.332031 1244 1748 C 1161.332031 1777.332031 1052.667969 1792 918 1792 C 880 1792 823.332031 1787.167969 748 1777.5 C 672.667969 1767.832031 616.332031 1763 579 1763 C 563 1763 538.832031 1767.832031 506.5 1777.5 C 474.167969 1787.167969 449.667969 1792 433 1792 C 384.332031 1792 343.167969 1773.5 309.5 1736.5 C 275.832031 1699.5 259 1656.667969 259 1608 C 259 1592 262.667969 1569.332031 270 1540 C 277.332031 1510.667969 281 1488.332031 281 1473 C 281 1446.332031 276.832031 1406.167969 268.5 1352.5 C 260.167969 1298.832031 256 1258.332031 256 1231 C 256 1157 262 1084.5 274 1013.5 C 286 942.5 304.167969 872.667969 328.5 804 C 352.832031 735.332031 386.332031 670.667969 429 610 C 471.667969 549.332031 521.667969 497.332031 579 454 C 631 414.667969 708.332031 374.667969 811 334 C 940.332031 282 1045.667969 256 1127 256 C 1167 256 1225.5 264 1302.5 280 C 1379.5 296 1437.332031 304 1476 304 C 1488.667969 304 1507.667969 302.332031 1533 299 C 1558.332031 295.667969 1577.667969 294 1591 294 C 1645 294 1684.332031 310.832031 1709 344.5 C 1733.667969 378.167969 1746 423 1746 479 C 1746 494.332031 1744.332031 517 1741 547 C 1737.667969 577 1736 599.667969 1736 615 C 1736 621.667969 1736.332031 627.832031 1737 633.5 C 1737.667969 639.167969 1738.667969 644.832031 1740 650.5 C 1741.332031 656.167969 1742.667969 660.667969 1744 664 C 1745.332031 667.332031 1747.5 672.667969 1750.5 680 C 1753.5 687.332031 1755.667969 693 1757 697 C 1767.667969 723.667969 1776 763.167969 1782 815.5 C 1788 867.832031 1791 913.332031 1791 952 Z M 1791 952 "/>
</g>
</svg>
