<?xml version="1.0" encoding="UTF-8"?>
<svg xmlns="http://www.w3.org/2000/svg" xmlns:xlink="http://www.w3.org/1999/xlink" width="2048" height="2048" viewBox="0 0 2048 2048" version="1.1">
<g>
<path d="M 544 384 L 1248 384 C 1256.667969 384 1264.167969 387.167969 1270.5 393.5 C 1276.832031 399.832031 1280 407.667969 1280 417 L 1280 1280 L 1472 1280 C 1498.667969 1280 1518 1292.332031 1530 1317 C 1542 1341.667969 1539 1364.667969 1521 1386 L 1201 1770 C 1189 1784.667969 1172.667969 1792 1152 1792 C 1131.332031 1792 1115 1784.667969 1103 1770 L 783 1386 C 765.667969 1365.332031 762.667969 1342.332031 774 1317 C 786 1292.332031 805.332031 1280 832 1280 L 1024 1280 L 1024 640 L 704 640 C 694.667969 640 686.332031 636.332031 679 629 L 519 437 C 510.332031 427.667969 509 416.332031 515 403 C 521 390.332031 530.667969 384 544 384 Z M 544 384 "/>
</g>
</svg>
