<svg width="2048" height="2048" viewBox="-512 -384 2048 2048" xmlns="http://www.w3.org/2000/svg"><g transform="scale(1 -1) translate(0 -1280)"><path d="M736 960q0 -13 -9.5 -22.5t-22.5 -9.5t-22.5 9.5t-9.5 22.5q0 46 -54 71t-106 25q-13 0 -22.5 9.5t-9.5 22.5t9.5 22.5t22.5 9.5q50 0 99.5 -16t87 -54t37.5 -90zM896 960q0 72 -34.5 134t-90 101.5t-123 62t-136.5 22.5t-136.5 -22.5t-123 -62t-90 -101.5t-34.5 -134 q0 -101 68 -180q10 -11 30.5 -33t30.5 -33q128 -153 141 -298h228q13 145 141 298q10 11 30.5 33t30.5 33q68 79 68 180zM1024 960q0 -155 -103 -268q-45 -49 -74.5 -87t-59.5 -95.5t-34 -107.5q47 -28 47 -82q0 -37 -25 -64q25 -27 25 -64q0 -52 -45 -81q13 -23 13 -47 q0 -46 -31.5 -71t-77.5 -25q-20 -44 -60 -70t-87 -26t-87 26t-60 70q-46 0 -77.5 25t-31.5 71q0 24 13 47q-45 29 -45 81q0 37 25 64q-25 27 -25 64q0 54 47 82q-4 50 -34 107.5t-59.5 95.5t-74.5 87q-103 113 -103 268q0 99 44.5 184.5t117 142t164 89t186.5 32.5 t186.5 -32.5t164 -89t117 -142t44.5 -184.5z" fill="black" /></g></svg>