<?xml version="1.0" encoding="UTF-8"?>
<svg xmlns="http://www.w3.org/2000/svg" xmlns:xlink="http://www.w3.org/1999/xlink" width="2048" height="2048" viewBox="0 0 2048 2048" version="1.1">
<g>
<path d="M 1248 704 C 1248 712.667969 1244.832031 720.167969 1238.5 726.5 C 1232.167969 732.832031 1224.667969 736 1216 736 C 1207.332031 736 1199.832031 732.832031 1193.5 726.5 C 1187.167969 720.167969 1184 712.667969 1184 704 C 1184 673.332031 1166 649.667969 1130 633 C 1094 616.332031 1058.667969 608 1024 608 C 1015.332031 608 1007.832031 604.832031 1001.5 598.5 C 995.167969 592.167969 992 584.667969 992 576 C 992 567.332031 995.167969 559.832031 1001.5 553.5 C 1007.832031 547.167969 1015.332031 544 1024 544 C 1057.332031 544 1090.5 549.332031 1123.5 560 C 1156.5 570.667969 1185.5 588.667969 1210.5 614 C 1235.5 639.332031 1248 669.332031 1248 704 Z M 1408 704 C 1408 656 1396.5 611.332031 1373.5 570 C 1350.5 528.667969 1320.5 494.832031 1283.5 468.5 C 1246.5 442.167969 1205.5 421.5 1160.5 406.5 C 1115.5 391.5 1070 384 1024 384 C 978 384 932.5 391.5 887.5 406.5 C 842.5 421.5 801.5 442.167969 764.5 468.5 C 727.5 494.832031 697.5 528.667969 674.5 570 C 651.5 611.332031 640 656 640 704 C 640 771.332031 662.667969 831.332031 708 884 C 714.667969 891.332031 724.832031 902.332031 738.5 917 C 752.167969 931.667969 762.332031 942.667969 769 950 C 854.332031 1052 901.332031 1151.332031 910 1248 L 1138 1248 C 1146.667969 1151.332031 1193.667969 1052 1279 950 C 1285.667969 942.667969 1295.832031 931.667969 1309.5 917 C 1323.167969 902.332031 1333.332031 891.332031 1340 884 C 1385.332031 831.332031 1408 771.332031 1408 704 Z M 1536 704 C 1536 807.332031 1501.667969 896.667969 1433 972 C 1403 1004.667969 1378.167969 1033.667969 1358.5 1059 C 1338.832031 1084.332031 1319 1116.167969 1299 1154.5 C 1279 1192.832031 1267.667969 1228.667969 1265 1262 C 1296.332031 1280.667969 1312 1308 1312 1344 C 1312 1368.667969 1303.667969 1390 1287 1408 C 1303.667969 1426 1312 1447.332031 1312 1472 C 1312 1506.667969 1297 1533.667969 1267 1553 C 1275.667969 1568.332031 1280 1584 1280 1600 C 1280 1630.667969 1269.5 1654.332031 1248.5 1671 C 1227.5 1687.667969 1201.667969 1696 1171 1696 C 1157.667969 1725.332031 1137.667969 1748.667969 1111 1766 C 1084.332031 1783.332031 1055.332031 1792 1024 1792 C 992.667969 1792 963.667969 1783.332031 937 1766 C 910.332031 1748.667969 890.332031 1725.332031 877 1696 C 846.332031 1696 820.5 1687.667969 799.5 1671 C 778.5 1654.332031 768 1630.667969 768 1600 C 768 1584 772.332031 1568.332031 781 1553 C 751 1533.667969 736 1506.667969 736 1472 C 736 1447.332031 744.332031 1426 761 1408 C 744.332031 1390 736 1368.667969 736 1344 C 736 1308 751.667969 1280.667969 783 1262 C 780.332031 1228.667969 769 1192.832031 749 1154.5 C 729 1116.167969 709.167969 1084.332031 689.5 1059 C 669.832031 1033.667969 645 1004.667969 615 972 C 546.332031 896.667969 512 807.332031 512 704 C 512 638 526.832031 576.5 556.5 519.5 C 586.167969 462.5 625.167969 415.167969 673.5 377.5 C 721.832031 339.832031 776.5 310.167969 837.5 288.5 C 898.5 266.832031 960.667969 256 1024 256 C 1087.332031 256 1149.5 266.832031 1210.5 288.5 C 1271.5 310.167969 1326.167969 339.832031 1374.5 377.5 C 1422.832031 415.167969 1461.832031 462.5 1491.5 519.5 C 1521.167969 576.5 1536 638 1536 704 Z M 1536 704 "/>
</g>
</svg>
