<?xml version="1.0" encoding="UTF-8"?>
<svg xmlns="http://www.w3.org/2000/svg" xmlns:xlink="http://www.w3.org/1999/xlink" width="2048" height="2048" viewBox="0 0 2048 2048" version="1.1">
<g>
<path d="M 1648 1344 C 1648 1317.332031 1638.667969 1294.667969 1620 1276 L 1412 1068 C 1393.332031 1049.332031 1370.667969 1040 1344 1040 C 1316 1040 1292 1050.667969 1272 1072 C 1274 1074 1280.332031 1080.167969 1291 1090.5 C 1301.667969 1100.832031 1308.832031 1108 1312.5 1112 C 1316.167969 1116 1321.167969 1122.332031 1327.5 1131 C 1333.832031 1139.667969 1338.167969 1148.167969 1340.5 1156.5 C 1342.832031 1164.832031 1344 1174 1344 1184 C 1344 1210.667969 1334.667969 1233.332031 1316 1252 C 1297.332031 1270.667969 1274.667969 1280 1248 1280 C 1238 1280 1228.832031 1278.832031 1220.5 1276.5 C 1212.167969 1274.167969 1203.667969 1269.832031 1195 1263.5 C 1186.332031 1257.167969 1180 1252.167969 1176 1248.5 C 1172 1244.832031 1164.832031 1237.667969 1154.5 1227 C 1144.167969 1216.332031 1138 1210 1136 1208 C 1114 1228.667969 1103 1253 1103 1281 C 1103 1307.667969 1112.332031 1330.332031 1131 1349 L 1337 1556 C 1355 1574 1377.667969 1583 1405 1583 C 1431.667969 1583 1454.332031 1574.332031 1473 1557 L 1620 1411 C 1638.667969 1392.332031 1648 1370 1648 1344 Z M 945 639 C 945 612.332031 935.667969 589.667969 917 571 L 711 364 C 692.332031 345.332031 669.667969 336 643 336 C 617 336 594.332031 345 575 363 L 428 509 C 409.332031 527.667969 400 550 400 576 C 400 602.667969 409.332031 625.332031 428 644 L 636 852 C 654 870 676.667969 879 704 879 C 732 879 756 868.667969 776 848 C 774 846 767.667969 839.832031 757 829.5 C 746.332031 819.167969 739.167969 812 735.5 808 C 731.832031 804 726.832031 797.667969 720.5 789 C 714.167969 780.332031 709.832031 771.832031 707.5 763.5 C 705.167969 755.167969 704 746 704 736 C 704 709.332031 713.332031 686.667969 732 668 C 750.667969 649.332031 773.332031 640 800 640 C 810 640 819.167969 641.167969 827.5 643.5 C 835.832031 645.832031 844.332031 650.167969 853 656.5 C 861.667969 662.832031 868 667.832031 872 671.5 C 876 675.167969 883.167969 682.332031 893.5 693 C 903.832031 703.667969 910 710 912 712 C 934 691.332031 945 667 945 639 Z M 1840 1344 C 1840 1424 1811.667969 1491.667969 1755 1547 L 1608 1693 C 1552.667969 1748.332031 1485 1776 1405 1776 C 1324.332031 1776 1256.332031 1747.667969 1201 1691 L 995 1484 C 939.667969 1428.667969 912 1361 912 1281 C 912 1199 941.332031 1129.332031 1000 1072 L 912 984 C 854.667969 1042.667969 785.332031 1072 704 1072 C 624 1072 556 1044 500 988 L 292 780 C 236 724 208 656 208 576 C 208 496 236.332031 428.332031 293 373 L 440 227 C 495.332031 171.667969 563 144 643 144 C 723.667969 144 791.667969 172.332031 847 229 L 1053 436 C 1108.332031 491.332031 1136 559 1136 639 C 1136 721 1106.667969 790.667969 1048 848 L 1136 936 C 1193.332031 877.332031 1262.667969 848 1344 848 C 1424 848 1492 876 1548 932 L 1756 1140 C 1812 1196 1840 1264 1840 1344 Z M 1840 1344 "/>
</g>
</svg>
