<svg width="2048" height="2048" viewBox="-192 -384 2048 2048" xmlns="http://www.w3.org/2000/svg"><g transform="scale(1 -1) translate(0 -1280)"><path d="M1456 320q0 40 -28 68l-208 208q-28 28 -68 28q-42 0 -72 -32q3 -3 19 -18.5t21.5 -21.5t15 -19t13 -25.5t3.5 -27.5q0 -40 -28 -68t-68 -28q-15 0 -27.5 3.5t-25.5 13t-19 15t-21.5 21.5t-18.5 19q-33 -31 -33 -73q0 -40 28 -68l206 -207q27 -27 68 -27q40 0 68 26 l147 146q28 28 28 67zM753 1025q0 40 -28 68l-206 207q-28 28 -68 28q-39 0 -68 -27l-147 -146q-28 -28 -28 -67q0 -40 28 -68l208 -208q27 -27 68 -27q42 0 72 31q-3 3 -19 18.5t-21.5 21.5t-15 19t-13 25.5t-3.5 27.5q0 40 28 68t68 28q15 0 27.5 -3.5t25.5 -13t19 -15 t21.5 -21.5t18.5 -19q33 31 33 73zM1648 320q0 -120 -85 -203l-147 -146q-83 -83 -203 -83q-121 0 -204 85l-206 207q-83 83 -83 203q0 123 88 209l-88 88q-86 -88 -208 -88q-120 0 -204 84l-208 208q-84 84 -84 204t85 203l147 146q83 83 203 83q121 0 204 -85l206 -207 q83 -83 83 -203q0 -123 -88 -209l88 -88q86 88 208 88q120 0 204 -84l208 -208q84 -84 84 -204z" fill="black" /></g></svg>