<?xml version="1.0" encoding="UTF-8"?>
<svg xmlns="http://www.w3.org/2000/svg" xmlns:xlink="http://www.w3.org/1999/xlink" width="2048" height="2048" viewBox="0 0 2048 2048" version="1.1">
<g>
<path d="M 493 1542 L 724 1542 L 724 848 L 493 848 Z M 739 634 C 738.332031 599.332031 726.332031 570.667969 703 548 C 679.667969 525.332031 648.667969 514 610 514 C 571.332031 514 539.832031 525.332031 515.5 548 C 491.167969 570.667969 479 599.332031 479 634 C 479 668 490.832031 696.5 514.5 719.5 C 538.167969 742.5 569 754 607 754 L 608 754 C 647.332031 754 679 742.5 703 719.5 C 727 696.5 739 668 739 634 Z M 1324 1542 L 1555 1542 L 1555 1144 C 1555 1041.332031 1530.667969 963.667969 1482 911 C 1433.332031 858.332031 1369 832 1289 832 C 1198.332031 832 1128.667969 871 1080 949 L 1082 949 L 1082 848 L 851 848 C 853 892 853 1123.332031 851 1542 L 1082 1542 L 1082 1154 C 1082 1128.667969 1084.332031 1110 1089 1098 C 1099 1074.667969 1114 1054.832031 1134 1038.5 C 1154 1022.167969 1178.667969 1014 1208 1014 C 1285.332031 1014 1324 1066.332031 1324 1171 Z M 1792 544 L 1792 1504 C 1792 1583.332031 1763.832031 1651.167969 1707.5 1707.5 C 1651.167969 1763.832031 1583.332031 1792 1504 1792 L 544 1792 C 464.667969 1792 396.832031 1763.832031 340.5 1707.5 C 284.167969 1651.167969 256 1583.332031 256 1504 L 256 544 C 256 464.667969 284.167969 396.832031 340.5 340.5 C 396.832031 284.167969 464.667969 256 544 256 L 1504 256 C 1583.332031 256 1651.167969 284.167969 1707.5 340.5 C 1763.832031 396.832031 1792 464.667969 1792 544 Z M 1792 544 "/>
</g>
</svg>
