<?xml version="1.0" encoding="utf-8"?>
<svg width="1792" height="1792" viewBox="0 0 1792 1792" xmlns="http://www.w3.org/2000/svg"><path d="M458 1535l202 214-34-236-216-213zm226 226l274-218-11-245-300 215zm-311-638l227 213-48-327-245-204zm250 224l317-214-14-324-352 200zm348 11l95 80-2-239-103-79q0 1 1 8.5t0 12-5 7.5l-78 52 85 70q7 6 7 88zm-705-752l256 200-68-465-279-173zm1035 663l15-234-230 164 2 240zm-756-455l373-194-19-441-423 163zm853 365l20-233-226-142-2 105 144 95q6 4 4 9l-7 119zm191-139l30-222-179 128-20 228zm-188 167l-71-49-8 117q0 5-4 8l-234 187q-7 5-14 0l-98-83 7 161q0 5-4 8l-293 234q-4 2-6 2-8-2-8-3l-228-242q-4-4-59-277-2-7 5-11l61-37q-94-86-95-92l-72-351q-2-7 6-12l94-45q-133-100-135-108l-96-466q-2-10 7-13l433-135q5 0 8 1l317 153q6 4 6 9l20 463q0 7-6 10l-118 61 126 85q5 2 5 8l5 123 121-74q5-4 11 0l84 56 3-110q0-6 5-9l206-126q6-3 11 0l245 135q4 4 5 7t-6.5 60-17.5 124.5-10 70.5q0 5-4 7l-191 153q-6 5-13 0z"/></svg>