<?xml version="1.0" encoding="UTF-8"?>
<svg xmlns="http://www.w3.org/2000/svg" xmlns:xlink="http://www.w3.org/1999/xlink" width="2048" height="2048" viewBox="0 0 2048 2048" version="1.1">
<g>
<path d="M 919 539 C 911.667969 539.667969 906.5 543.167969 903.5 549.5 C 900.5 555.832031 897.667969 559 895 559 C 891.667969 559.667969 890 558 890 554 C 890 546 896.332031 541 909 539 Z M 1006 553 C 1003.332031 553.667969 999.5 551.5 994.5 546.5 C 989.5 541.5 983.667969 540 977 542 C 993 534.667969 1003.667969 535.332031 1009 544 C 1011 548 1010 551 1006 553 Z M 655 980 C 652.332031 979.332031 650.332031 980.332031 649 983 C 647.667969 985.667969 646.167969 989.832031 644.5 995.5 C 642.832031 1001.167969 641 1005.667969 639 1009 C 637 1012.332031 633.667969 1016.667969 629 1022 C 624.332031 1028.667969 624 1032.667969 628 1034 C 630.667969 1034.667969 634.832031 1032.332031 640.5 1027 C 646.167969 1021.667969 650.332031 1015.667969 653 1009 C 653.667969 1007 654.332031 1004.667969 655 1002 C 655.667969 999.332031 656.332031 997.332031 657 996 C 657.667969 994.667969 658.167969 993.167969 658.5 991.5 C 658.832031 989.832031 659 988.5 659 987.5 L 659 984.5 C 659 984.5 658.667969 983.667969 658 982 C 657.332031 980.332031 656.332031 979.667969 655 980 Z M 1510 1339 C 1510 1327 1491.667969 1313 1455 1297 C 1457.667969 1287 1460.167969 1277.832031 1462.5 1269.5 C 1464.832031 1261.167969 1466.5 1252.5 1467.5 1243.5 C 1468.5 1234.5 1469.5 1227.332031 1470.5 1222 C 1471.5 1216.667969 1471.667969 1209.167969 1471 1199.5 C 1470.332031 1189.832031 1470 1183.332031 1470 1180 C 1470 1176.667969 1468.832031 1169.332031 1466.5 1158 C 1464.167969 1146.667969 1462.832031 1139.832031 1462.5 1137.5 C 1462.167969 1135.167969 1460.5 1126.832031 1457.5 1112.5 C 1454.5 1098.167969 1452.667969 1089.332031 1452 1086 C 1445.332031 1054 1429.667969 1019.667969 1405 983 C 1380.332031 946.332031 1356.332031 921.332031 1333 908 C 1349 921.332031 1368 949 1390 991 C 1448 1099 1466 1191.667969 1444 1269 C 1436.667969 1295.667969 1420 1309.667969 1394 1311 C 1373.332031 1313.667969 1360.5 1307.5 1355.5 1292.5 C 1350.5 1277.5 1347.832031 1249.667969 1347.5 1209 C 1347.167969 1168.332031 1343.332031 1132.667969 1336 1102 C 1330 1076 1323.5 1053 1316.5 1033 C 1309.5 1013 1303 997.832031 1297 987.5 C 1291 977.167969 1285.832031 969 1281.5 963 C 1277.167969 957 1272.832031 952 1268.5 948 C 1264.167969 944 1261.667969 941.667969 1261 941 C 1251.667969 899.667969 1241.332031 865.332031 1230 838 C 1218.667969 810.667969 1208.832031 792 1200.5 782 C 1192.167969 772 1184.332031 761 1177 749 C 1169.667969 737 1164.667969 723.667969 1162 709 C 1159.332031 695 1161.332031 677.167969 1168 655.5 C 1174.667969 633.832031 1176.167969 617.332031 1172.5 606 C 1168.832031 594.667969 1154 586.332031 1128 581 C 1118 579 1103.167969 573 1083.5 563 C 1063.832031 553 1052 547.667969 1048 547 C 1042.667969 546.332031 1039 537.667969 1037 521 C 1035 504.332031 1037.667969 487.332031 1045 470 C 1052.332031 452.667969 1064.332031 443.667969 1081 443 C 1105.667969 441 1122.667969 451 1132 473 C 1141.332031 495 1142.667969 514.332031 1136 531 C 1128.667969 543.667969 1128 552.5 1134 557.5 C 1140 562.5 1150 562.667969 1164 558 C 1172.667969 555.332031 1177 543.332031 1177 522 L 1177 485 C 1173.667969 465 1169.167969 448.332031 1163.5 435 C 1157.832031 421.667969 1150.832031 411.5 1142.5 404.5 C 1134.167969 397.5 1126.332031 392.5 1119 389.5 C 1111.667969 386.5 1102.667969 384 1092 382 C 1020.667969 387.332031 991 432 1003 516 C 1003 526 1002.667969 531 1002 531 C 996 525 986.167969 521.5 972.5 520.5 C 958.832031 519.5 947.832031 519.667969 939.5 521 C 931.167969 522.332031 926 520.667969 924 516 C 924.667969 478 919.332031 448 908 426 C 896.667969 404 881.667969 392.667969 863 392 C 845 391.332031 831.167969 400.5 821.5 419.5 C 811.832031 438.5 806.332031 458.332031 805 479 C 804.332031 489 805.5 501.332031 808.5 516 C 811.5 530.667969 815.832031 543.167969 821.5 553.5 C 827.167969 563.832031 832.332031 568.332031 837 567 C 843.667969 565 849 560.332031 853 553 C 855.667969 547 853.332031 544.332031 846 545 C 841.332031 545 836.167969 540.167969 830.5 530.5 C 824.832031 520.832031 821.667969 509.667969 821 497 C 820.332031 482.332031 823.332031 470 830 460 C 836.667969 450 848 445.332031 864 446 C 875.332031 446 884.332031 453 891 467 C 897.667969 481 900.832031 494 900.5 506 C 900.167969 518 899.667969 525.332031 899 528 C 884.332031 538 874 547.667969 868 557 C 862.667969 565 853.5 572.832031 840.5 580.5 C 827.5 588.167969 820.667969 592.332031 820 593 C 811.332031 602.332031 806.167969 611.332031 804.5 620 C 802.832031 628.667969 805.332031 634.667969 812 638 C 821.332031 643.332031 829.667969 649.832031 837 657.5 C 844.332031 665.167969 849.667969 671.5 853 676.5 C 856.332031 681.5 862.5 685.832031 871.5 689.5 C 880.5 693.167969 892.332031 695.332031 907 696 C 938.332031 697.332031 972.332031 692.332031 1009 681 C 1010.332031 680.332031 1018 678 1032 674 C 1046 670 1057.5 666.5 1066.5 663.5 C 1075.5 660.5 1085.332031 656.167969 1096 650.5 C 1106.667969 644.832031 1113.667969 639 1117 633 C 1123 623.667969 1129.667969 621 1137 625 C 1140.332031 627 1142.5 629.832031 1143.5 633.5 C 1144.5 637.167969 1143.5 641.167969 1140.5 645.5 C 1137.5 649.832031 1132 653 1124 655 C 1110.667969 659 1091.832031 666.167969 1067.5 676.5 C 1043.167969 686.832031 1028 693.332031 1022 696 C 992.667969 708.667969 969.332031 716.332031 952 719 C 935.332031 722.332031 909 721.667969 873 717 C 866.332031 715.667969 863.332031 716.332031 864 719 C 864.667969 721.667969 870.332031 728 881 738 C 897.667969 753.332031 920 760.667969 948 760 C 959.332031 759.332031 971.332031 757 984 753 C 996.667969 749 1008.667969 744.332031 1020 739 C 1031.332031 733.667969 1042.5 727.832031 1053.5 721.5 C 1064.5 715.167969 1074.5 709.5 1083.5 704.5 C 1092.5 699.5 1100.667969 695.5 1108 692.5 C 1115.332031 689.5 1121.167969 688.667969 1125.5 690 C 1129.832031 691.332031 1132.667969 695 1134 701 C 1134 702.332031 1133.667969 703.832031 1133 705.5 C 1132.332031 707.167969 1131 708.832031 1129 710.5 C 1127 712.167969 1125 713.667969 1123 715 C 1121 716.332031 1118.167969 718 1114.5 720 C 1110.832031 722 1107.832031 723.5 1105.5 724.5 C 1103.167969 725.5 1099.832031 727.167969 1095.5 729.5 C 1091.167969 731.832031 1088 733.332031 1086 734 C 1067.332031 743.332031 1044.832031 758 1018.5 778 C 992.167969 798 970 812.332031 952 821 C 934 829.667969 917.667969 830 903 822 C 889 814.667969 868 790.332031 840 749 C 825.332031 728.332031 817 721 815 727 C 814.332031 729 814 732.332031 814 737 C 814 753.667969 809 772.5 799 793.5 C 789 814.5 779.167969 833 769.5 849 C 759.832031 865 752.832031 884.332031 748.5 907 C 744.167969 929.667969 748 950.667969 760 970 C 744.667969 974 723.832031 1004 697.5 1060 C 671.167969 1116 655.332031 1163 650 1201 C 648.667969 1213 648.167969 1236 648.5 1270 C 648.832031 1304 647 1323.667969 643 1329 C 637.667969 1345 628 1346 614 1332 C 592.667969 1311.332031 580.667969 1280 578 1238 C 576.667969 1219.332031 578 1200.667969 582 1182 C 584.667969 1169.332031 584.332031 1163.332031 581 1164 L 577 1169 C 553 1212.332031 556.332031 1267.667969 587 1335 C 590.332031 1343 598.667969 1352.332031 612 1363 C 625.332031 1373.667969 633.332031 1380.332031 636 1383 C 649.332031 1398.332031 684 1428.5 740 1473.5 C 796 1518.5 827 1544 833 1550 C 843.667969 1560 849.5 1572.667969 850.5 1588 C 851.5 1603.332031 846.832031 1617.667969 836.5 1631 C 826.167969 1644.332031 811 1652 791 1654 C 796.332031 1664 806 1678.832031 820 1698.5 C 834 1718.167969 843.332031 1736.167969 848 1752.5 C 852.667969 1768.832031 855 1792.332031 855 1823 C 885.667969 1807 888 1776.332031 862 1731 C 859.332031 1725.667969 855.832031 1720.332031 851.5 1715 C 847.167969 1709.667969 844 1705.667969 842 1703 C 840 1700.332031 839.332031 1698.332031 840 1697 C 842 1693.667969 846.332031 1690.5 853 1687.5 C 859.667969 1684.5 866.332031 1685.332031 873 1690 C 903.667969 1724.667969 959 1736.667969 1039 1726 C 1127.667969 1716 1186.667969 1687 1216 1639 C 1231.332031 1613.667969 1242.667969 1603.667969 1250 1609 C 1258 1613 1261.332031 1630.332031 1260 1661 C 1259.332031 1677.667969 1251.667969 1708.332031 1237 1753 C 1231 1768.332031 1229 1780.832031 1231 1790.5 C 1233 1800.167969 1241 1805.332031 1255 1806 C 1257 1793.332031 1261.832031 1767.667969 1269.5 1729 C 1277.167969 1690.332031 1281.667969 1660.332031 1283 1639 C 1284.332031 1625 1282.167969 1600.5 1276.5 1565.5 C 1270.832031 1530.5 1268.332031 1498.167969 1269 1468.5 C 1269.667969 1438.832031 1277.332031 1415.332031 1292 1398 C 1302 1386 1319 1380 1343 1380 C 1343.667969 1355.332031 1355.167969 1337.667969 1377.5 1327 C 1399.832031 1316.332031 1424 1312.832031 1450 1316.5 C 1476 1320.167969 1496 1327.667969 1510 1339 Z M 882 512 C 884 500.667969 883.167969 490.667969 879.5 482 C 875.832031 473.332031 872 468.332031 868 467 C 862 465.667969 859 468 859 474 C 860.332031 477.332031 862 479.332031 864 480 C 870.667969 480 873 485 871 495 C 869 508.332031 871.667969 515 879 515 C 881 515 882 514 882 512 Z M 1301 709 C 1299.667969 703.667969 1297.5 699.832031 1294.5 697.5 C 1291.5 695.167969 1287.167969 693.5 1281.5 692.5 C 1275.832031 691.5 1271 689.667969 1267 687 C 1263.667969 685 1260.5 682.332031 1257.5 679 C 1254.5 675.667969 1252.167969 673 1250.5 671 C 1248.832031 669 1247 666.832031 1245 664.5 C 1243 662.167969 1241.667969 660.832031 1241 660.5 C 1240.332031 660.167969 1239 660.667969 1237 662 C 1227.667969 672.667969 1230 687.167969 1244 705.5 C 1258 723.832031 1271 734.332031 1283 737 C 1289 737.667969 1293.832031 735 1297.5 729 C 1301.167969 723 1302.332031 716.332031 1301 709 Z M 1123 496 C 1123 488.667969 1121.332031 482.167969 1118 476.5 C 1114.667969 470.832031 1111 466.667969 1107 464 C 1103 461.332031 1100 460.332031 1098 461 C 1088.667969 461.667969 1086.332031 464 1091 468 L 1095 470 C 1104.332031 472.667969 1110.332031 483 1113 501 C 1113 503 1115.667969 502.332031 1121 499 Z M 1177 263 C 1177 261.667969 1176.167969 260 1174.5 258 C 1172.832031 256 1169.832031 253.667969 1165.5 251 C 1161.167969 248.332031 1158 246.332031 1156 245 C 1146 235 1138 230 1132 230 C 1126 230.667969 1122.167969 233.167969 1120.5 237.5 C 1118.832031 241.832031 1118.5 246.167969 1119.5 250.5 C 1120.5 254.832031 1120.332031 259 1119 263 C 1118.332031 265.667969 1116.332031 269.167969 1113 273.5 C 1109.667969 277.832031 1107.667969 280.832031 1107 282.5 C 1106.332031 284.167969 1107.332031 287 1110 291 C 1112.667969 293 1115.332031 293 1118 291 C 1120.667969 289 1124.332031 286 1129 282 C 1133.667969 278 1138.667969 275 1144 273 C 1144.667969 272.332031 1147.667969 272 1153 272 C 1158.332031 272 1163.332031 271.332031 1168 270 C 1172.667969 268.667969 1175.667969 266.332031 1177 263 Z M 1742 1604 C 1755.332031 1612 1765.667969 1620.167969 1773 1628.5 C 1780.332031 1636.832031 1784.332031 1644.832031 1785 1652.5 C 1785.667969 1660.167969 1784.832031 1667.667969 1782.5 1675 C 1780.167969 1682.332031 1775 1689.667969 1767 1697 C 1759 1704.332031 1751.167969 1710.832031 1743.5 1716.5 C 1735.832031 1722.167969 1725.832031 1728.332031 1713.5 1735 C 1701.167969 1741.667969 1690.667969 1747.167969 1682 1751.5 C 1673.332031 1755.832031 1662.667969 1761 1650 1767 C 1637.332031 1773 1628.332031 1777.332031 1623 1780 C 1597.667969 1792.667969 1569.167969 1811.332031 1537.5 1836 C 1505.832031 1860.667969 1480.667969 1882 1462 1900 C 1450.667969 1910.667969 1428 1917.167969 1394 1919.5 C 1360 1921.832031 1330.332031 1917 1305 1905 C 1293 1899 1283.167969 1891.167969 1275.5 1881.5 C 1267.832031 1871.832031 1262.332031 1863.332031 1259 1856 C 1255.667969 1848.667969 1248.332031 1842.167969 1237 1836.5 C 1225.667969 1830.832031 1210 1827.667969 1190 1827 C 1160.667969 1826.332031 1117.332031 1826 1060 1826 C 1047.332031 1826 1028.332031 1826.5 1003 1827.5 C 977.667969 1828.5 958.332031 1829.332031 945 1830 C 915.667969 1830.667969 889.167969 1835.667969 865.5 1845 C 841.832031 1854.332031 824 1864.332031 812 1875 C 800 1885.667969 785.5 1895.167969 768.5 1903.5 C 751.5 1911.832031 733.667969 1915.667969 715 1915 C 695.667969 1914.332031 658.667969 1904 604 1884 C 549.332031 1864 500.667969 1849.667969 458 1841 C 445.332031 1838.332031 428.332031 1835.167969 407 1831.5 C 385.667969 1827.832031 369 1824.832031 357 1822.5 C 345 1820.167969 331.832031 1817 317.5 1813 C 303.167969 1809 292 1804.167969 284 1798.5 C 276 1792.832031 270.332031 1786.332031 267 1779 C 260.332031 1763.667969 262.667969 1741.5 274 1712.5 C 285.332031 1683.5 291.332031 1665.332031 292 1658 C 292.667969 1647.332031 291.332031 1634 288 1618 C 284.667969 1602 281.332031 1587.832031 278 1575.5 C 274.667969 1563.167969 273.167969 1551 273.5 1539 C 273.832031 1527 277.332031 1518 284 1512 C 293.332031 1504 312.332031 1499.332031 341 1498 C 369.667969 1496.667969 389.667969 1492.667969 401 1486 C 421 1474 435 1462.332031 443 1451 C 451 1439.667969 455 1422.667969 455 1400 C 469 1448.667969 458.332031 1484 423 1506 C 401.667969 1519.332031 374 1524.332031 340 1521 C 317.332031 1519 303 1522.332031 297 1531 C 288.332031 1541 290 1560 302 1588 C 303.332031 1592 306 1598 310 1606 C 314 1614 316.832031 1620 318.5 1624 C 320.167969 1628 321.667969 1633.667969 323 1641 C 324.332031 1648.332031 324.667969 1655.667969 324 1663 C 324 1673 318.332031 1689.332031 307 1712 C 295.667969 1734.667969 291 1750.667969 293 1760 C 295 1771.332031 307.332031 1780 330 1786 C 343.332031 1790 371.5 1796.167969 414.5 1804.5 C 457.5 1812.832031 490.667969 1819.667969 514 1825 C 530 1829 554.667969 1836.332031 588 1847 C 621.332031 1857.667969 648.832031 1865.332031 670.5 1870 C 692.167969 1874.667969 710.667969 1876 726 1874 C 754.667969 1870 776.167969 1860.667969 790.5 1846 C 804.832031 1831.332031 812.5 1815.332031 813.5 1798 C 814.5 1780.667969 812 1761.167969 806 1739.5 C 800 1717.832031 793.667969 1700.5 787 1687.5 C 780.332031 1674.5 773.667969 1662.332031 767 1651 C 686.332031 1524.332031 630 1443.667969 598 1409 C 552.667969 1359.667969 515 1346.332031 485 1369 C 477.667969 1375 472.667969 1370 470 1354 C 468 1343.332031 467.332031 1330.667969 468 1316 C 468.667969 1296.667969 472 1279.332031 478 1264 C 484 1248.667969 492 1233 502 1217 C 512 1201 519.332031 1187 524 1175 C 529.332031 1161 538.167969 1137 550.5 1103 C 562.832031 1069 572.667969 1043 580 1025 C 587.332031 1007 597.332031 986.667969 610 964 C 622.667969 941.332031 635.667969 923.332031 649 910 C 722.332031 814.667969 763.667969 749.667969 773 715 C 765 640.332031 759.667969 537 757 405 C 755.667969 345 763.667969 294.5 781 253.5 C 798.332031 212.5 833.667969 177.667969 887 149 C 913 135 947.667969 128 991 128 C 1026.332031 127.332031 1061.667969 131.832031 1097 141.5 C 1132.332031 151.167969 1162 165 1186 183 C 1224 211 1254.5 251.5 1277.5 304.5 C 1300.5 357.5 1310.332031 406.667969 1307 452 C 1303.667969 515.332031 1313.667969 586.667969 1337 666 C 1359.667969 741.332031 1404 814 1470 884 C 1506.667969 923.332031 1539.832031 977.667969 1569.5 1047 C 1599.167969 1116.332031 1619 1180 1629 1238 C 1634.332031 1270.667969 1636 1298.832031 1634 1322.5 C 1632 1346.167969 1628 1364.667969 1622 1378 C 1616 1391.332031 1609.332031 1398.667969 1602 1400 C 1595.332031 1401.332031 1587.5 1407.667969 1578.5 1419 C 1569.5 1430.332031 1560.5 1442.167969 1551.5 1454.5 C 1542.5 1466.832031 1529 1478 1511 1488 C 1493 1498 1472.667969 1502.667969 1450 1502 C 1438 1501.332031 1427.5 1499.667969 1418.5 1497 C 1409.5 1494.332031 1402 1489.832031 1396 1483.5 C 1390 1477.167969 1385.5 1472 1382.5 1468 C 1379.5 1464 1375.667969 1457.167969 1371 1447.5 C 1366.332031 1437.832031 1363.332031 1431.332031 1362 1428 C 1347.332031 1403.332031 1333.667969 1393.332031 1321 1398 C 1308.332031 1402.667969 1299 1419 1293 1447 C 1287 1475 1289.332031 1507.332031 1300 1544 C 1313.332031 1590.667969 1313.667969 1655.667969 1301 1739 C 1294.332031 1782.332031 1300.332031 1815.832031 1319 1839.5 C 1337.667969 1863.167969 1362 1874.167969 1392 1872.5 C 1422 1870.832031 1450.332031 1859 1477 1837 C 1516.332031 1804.332031 1546.167969 1782.167969 1566.5 1770.5 C 1586.832031 1758.832031 1621.332031 1744.667969 1670 1728 C 1705.332031 1716 1731 1703.832031 1747 1691.5 C 1763 1679.167969 1769.167969 1667.667969 1765.5 1657 C 1761.832031 1646.332031 1753.5 1636.832031 1740.5 1628.5 C 1727.5 1620.167969 1710.332031 1612.332031 1689 1605 C 1667 1597.667969 1650.5 1581.667969 1639.5 1557 C 1628.5 1532.332031 1623.5 1508.167969 1624.5 1484.5 C 1625.5 1460.832031 1630.667969 1445 1640 1437 C 1640.667969 1457.667969 1643.332031 1476.5 1648 1493.5 C 1652.667969 1510.5 1657.5 1524 1662.5 1534 C 1667.5 1544 1674.332031 1553.5 1683 1562.5 C 1691.667969 1571.5 1698.667969 1577.832031 1704 1581.5 C 1709.332031 1585.167969 1716.5 1589.5 1725.5 1594.5 C 1734.5 1599.5 1740 1602.667969 1742 1604 Z M 1742 1604 "/>
</g>
</svg>
