<svg width="2048" height="2048" viewBox="-128 -384 2048 2048" xmlns="http://www.w3.org/2000/svg"><g transform="scale(1 -1) translate(0 -1280)"><path d="M256 224v-192q0 -13 -9.5 -22.5t-22.5 -9.5h-192q-13 0 -22.5 9.5t-9.5 22.5v192q0 13 9.5 22.5t22.5 9.5h192q13 0 22.5 -9.5t9.5 -22.5zM256 608v-192q0 -13 -9.5 -22.5t-22.5 -9.5h-192q-13 0 -22.5 9.5t-9.5 22.5v192q0 13 9.5 22.5t22.5 9.5h192q13 0 22.5 -9.5 t9.5 -22.5zM256 992v-192q0 -13 -9.5 -22.5t-22.5 -9.5h-192q-13 0 -22.5 9.5t-9.5 22.5v192q0 13 9.5 22.5t22.5 9.5h192q13 0 22.5 -9.5t9.5 -22.5zM1792 224v-192q0 -13 -9.5 -22.5t-22.5 -9.5h-1344q-13 0 -22.5 9.5t-9.5 22.5v192q0 13 9.5 22.5t22.5 9.5h1344 q13 0 22.5 -9.5t9.5 -22.5zM256 1376v-192q0 -13 -9.5 -22.5t-22.5 -9.5h-192q-13 0 -22.5 9.5t-9.5 22.5v192q0 13 9.5 22.5t22.5 9.5h192q13 0 22.5 -9.5t9.5 -22.5zM1792 608v-192q0 -13 -9.5 -22.5t-22.5 -9.5h-1344q-13 0 -22.5 9.5t-9.5 22.5v192q0 13 9.5 22.5 t22.5 9.5h1344q13 0 22.5 -9.5t9.5 -22.5zM1792 992v-192q0 -13 -9.5 -22.5t-22.5 -9.5h-1344q-13 0 -22.5 9.5t-9.5 22.5v192q0 13 9.5 22.5t22.5 9.5h1344q13 0 22.5 -9.5t9.5 -22.5zM1792 1376v-192q0 -13 -9.5 -22.5t-22.5 -9.5h-1344q-13 0 -22.5 9.5t-9.5 22.5v192 q0 13 9.5 22.5t22.5 9.5h1344q13 0 22.5 -9.5t9.5 -22.5z" fill="black" /></g></svg>