<?xml version="1.0" encoding="UTF-8"?>
<svg xmlns="http://www.w3.org/2000/svg" xmlns:xlink="http://www.w3.org/1999/xlink" width="2048" height="2048" viewBox="0 0 2048 2048" version="1.1">
<g>
<path d="M 384 1440 L 384 1632 C 384 1640.667969 380.832031 1648.167969 374.5 1654.5 C 368.167969 1660.832031 360.667969 1664 352 1664 L 160 1664 C 151.332031 1664 143.832031 1660.832031 137.5 1654.5 C 131.167969 1648.167969 128 1640.667969 128 1632 L 128 1440 C 128 1431.332031 131.167969 1423.832031 137.5 1417.5 C 143.832031 1411.167969 151.332031 1408 160 1408 L 352 1408 C 360.667969 1408 368.167969 1411.167969 374.5 1417.5 C 380.832031 1423.832031 384 1431.332031 384 1440 Z M 384 1056 L 384 1248 C 384 1256.667969 380.832031 1264.167969 374.5 1270.5 C 368.167969 1276.832031 360.667969 1280 352 1280 L 160 1280 C 151.332031 1280 143.832031 1276.832031 137.5 1270.5 C 131.167969 1264.167969 128 1256.667969 128 1248 L 128 1056 C 128 1047.332031 131.167969 1039.832031 137.5 1033.5 C 143.832031 1027.167969 151.332031 1024 160 1024 L 352 1024 C 360.667969 1024 368.167969 1027.167969 374.5 1033.5 C 380.832031 1039.832031 384 1047.332031 384 1056 Z M 384 672 L 384 864 C 384 872.667969 380.832031 880.167969 374.5 886.5 C 368.167969 892.832031 360.667969 896 352 896 L 160 896 C 151.332031 896 143.832031 892.832031 137.5 886.5 C 131.167969 880.167969 128 872.667969 128 864 L 128 672 C 128 663.332031 131.167969 655.832031 137.5 649.5 C 143.832031 643.167969 151.332031 640 160 640 L 352 640 C 360.667969 640 368.167969 643.167969 374.5 649.5 C 380.832031 655.832031 384 663.332031 384 672 Z M 1920 1440 L 1920 1632 C 1920 1640.667969 1916.832031 1648.167969 1910.5 1654.5 C 1904.167969 1660.832031 1896.667969 1664 1888 1664 L 544 1664 C 535.332031 1664 527.832031 1660.832031 521.5 1654.5 C 515.167969 1648.167969 512 1640.667969 512 1632 L 512 1440 C 512 1431.332031 515.167969 1423.832031 521.5 1417.5 C 527.832031 1411.167969 535.332031 1408 544 1408 L 1888 1408 C 1896.667969 1408 1904.167969 1411.167969 1910.5 1417.5 C 1916.832031 1423.832031 1920 1431.332031 1920 1440 Z M 384 288 L 384 480 C 384 488.667969 380.832031 496.167969 374.5 502.5 C 368.167969 508.832031 360.667969 512 352 512 L 160 512 C 151.332031 512 143.832031 508.832031 137.5 502.5 C 131.167969 496.167969 128 488.667969 128 480 L 128 288 C 128 279.332031 131.167969 271.832031 137.5 265.5 C 143.832031 259.167969 151.332031 256 160 256 L 352 256 C 360.667969 256 368.167969 259.167969 374.5 265.5 C 380.832031 271.832031 384 279.332031 384 288 Z M 1920 1056 L 1920 1248 C 1920 1256.667969 1916.832031 1264.167969 1910.5 1270.5 C 1904.167969 1276.832031 1896.667969 1280 1888 1280 L 544 1280 C 535.332031 1280 527.832031 1276.832031 521.5 1270.5 C 515.167969 1264.167969 512 1256.667969 512 1248 L 512 1056 C 512 1047.332031 515.167969 1039.832031 521.5 1033.5 C 527.832031 1027.167969 535.332031 1024 544 1024 L 1888 1024 C 1896.667969 1024 1904.167969 1027.167969 1910.5 1033.5 C 1916.832031 1039.832031 1920 1047.332031 1920 1056 Z M 1920 672 L 1920 864 C 1920 872.667969 1916.832031 880.167969 1910.5 886.5 C 1904.167969 892.832031 1896.667969 896 1888 896 L 544 896 C 535.332031 896 527.832031 892.832031 521.5 886.5 C 515.167969 880.167969 512 872.667969 512 864 L 512 672 C 512 663.332031 515.167969 655.832031 521.5 649.5 C 527.832031 643.167969 535.332031 640 544 640 L 1888 640 C 1896.667969 640 1904.167969 643.167969 1910.5 649.5 C 1916.832031 655.832031 1920 663.332031 1920 672 Z M 1920 288 L 1920 480 C 1920 488.667969 1916.832031 496.167969 1910.5 502.5 C 1904.167969 508.832031 1896.667969 512 1888 512 L 544 512 C 535.332031 512 527.832031 508.832031 521.5 502.5 C 515.167969 496.167969 512 488.667969 512 480 L 512 288 C 512 279.332031 515.167969 271.832031 521.5 265.5 C 527.832031 259.167969 535.332031 256 544 256 L 1888 256 C 1896.667969 256 1904.167969 259.167969 1910.5 265.5 C 1916.832031 271.832031 1920 279.332031 1920 288 Z M 1920 288 "/>
</g>
</svg>
