<?xml version="1.0" encoding="UTF-8"?>
<svg xmlns="http://www.w3.org/2000/svg" xmlns:xlink="http://www.w3.org/1999/xlink" width="2048" height="2048" viewBox="0 0 2048 2048" version="1.1">
<g>
<path d="M 1405 621 C 1399 633.667969 1389.332031 640 1376 640 L 1152 640 L 1152 1888 C 1152 1897.332031 1149 1905 1143 1911 C 1137 1917 1129.332031 1920 1120 1920 L 928 1920 C 918.667969 1920 911 1917 905 1911 C 899 1905 896 1897.332031 896 1888 L 896 640 L 672 640 C 658 640 648.332031 633.667969 643 621 C 637.667969 608.332031 639.332031 596.667969 648 586 L 998 202 C 1004.667969 195.332031 1012.332031 192 1021 192 C 1030.332031 192 1038.332031 195.332031 1045 202 L 1400 586 C 1408.667969 596.667969 1410.332031 608.332031 1405 621 Z M 1405 621 "/>
</g>
</svg>
