<?xml version="1.0" encoding="UTF-8"?>
<svg xmlns="http://www.w3.org/2000/svg" xmlns:xlink="http://www.w3.org/1999/xlink" width="2048" height="2048" viewBox="0 0 2048 2048" version="1.1">
<g>
<path d="M 1405 1427 C 1410.332031 1439.667969 1408.667969 1451.332031 1400 1462 L 1050 1846 C 1043.332031 1852.667969 1035.667969 1856 1027 1856 C 1017.667969 1856 1009.667969 1852.667969 1003 1846 L 648 1462 C 639.332031 1451.332031 637.667969 1439.667969 643 1427 C 649 1414.332031 658.667969 1408 672 1408 L 896 1408 L 896 160 C 896 150.667969 899 143 905 137 C 911 131 918.667969 128 928 128 L 1120 128 C 1129.332031 128 1137 131 1143 137 C 1149 143 1152 150.667969 1152 160 L 1152 1408 L 1376 1408 C 1390 1408 1399.667969 1414.332031 1405 1427 Z M 1405 1427 "/>
</g>
</svg>
