<?xml version="1.0" encoding="utf-8"?>
<svg width="1792" height="1792" viewBox="0 0 1792 1792" xmlns="http://www.w3.org/2000/svg"><path d="M335 1356q-2 0-6-2-86-57-168.5-145t-139.5-180q-21-30-21-69 0-9 2-19t4-18 7-18 8.5-16 10.5-17 10-15 12-15.5 11-14.5q184-251 452-365-110-198-110-211 0-19 17-29 116-64 128-64 18 0 28 16l124 229q92-19 192-19 266 0 497.5 137.5t378.5 369.5q20 31 20 69t-20 69q-91 142-218.5 253.5t-278.5 175.5q110 198 110 211 0 20-17 29-116 64-127 64-19 0-29-16l-124-229-64-119-444-820 7-7q-58 24-99 47 3 5 127 234t243 449 119 223q0 7-9 9-13 3-72 3-57 0-60-7l-456-841q-39 28-82 68 24 43 214 393.5t190 354.5q0 10-11 10-14 0-82.5-22t-72.5-28l-106-197-224-413q-44 53-78 106 2 3 18 25t23 34l176 327q0 10-10 10zm830-102l49 91q273-111 450-385-180-277-459-389 67 64 103 148.5t36 176.5q0 106-47 200.5t-132 157.5zm-317-614q0 20 14 34t34 14q86 0 147 61t61 147q0 20 14 34t34 14 34-14 14-34q0-126-89-215t-215-89q-20 0-34 14t-14 34zm366-65l-9-4 7 7z"/></svg>