<svg width="1792" height="1792" viewBox="-64 -256 1792 1792"><g transform="scale(1 -1) translate(0 -1280)"><path d="M1190 955l293 293l-107 107l-293 -293zM1637 1248q0 -27 -18 -45l-1286 -1286q-18 -18 -45 -18t-45 18l-198 198q-18 18 -18 45t18 45l1286 1286q18 18 45 18t45 -18l198 -198q18 -18 18 -45zM286 1438l98 -30l-98 -30l-30 -98l-30 98l-98 30l98 30l30 98zM636 1276 l196 -60l-196 -60l-60 -196l-60 196l-196 60l196 60l60 196zM1566 798l98 -30l-98 -30l-30 -98l-30 98l-98 30l98 30l30 98zM926 1438l98 -30l-98 -30l-30 -98l-30 98l-98 30l98 30l30 98z" fill="black" /></g></svg>