<?xml version="1.0" encoding="UTF-8"?>
<svg xmlns="http://www.w3.org/2000/svg" xmlns:xlink="http://www.w3.org/1999/xlink" width="2048" height="2048" viewBox="0 0 2048 2048" version="1.1">
<g>
<path d="M 1280 768 C 1280 697.332031 1255 637 1205 587 C 1155 537 1094.667969 512 1024 512 C 953.332031 512 893 537 843 587 C 793 637 768 697.332031 768 768 C 768 838.667969 793 899 843 949 C 893 999 953.332031 1024 1024 1024 C 1094.667969 1024 1155 999 1205 949 C 1255 899 1280 838.667969 1280 768 Z M 1536 768 C 1536 840.667969 1525 900.332031 1503 947 L 1139 1721 C 1128.332031 1743 1112.5 1760.332031 1091.5 1773 C 1070.5 1785.667969 1048 1792 1024 1792 C 1000 1792 977.5 1785.667969 956.5 1773 C 935.5 1760.332031 920 1743 910 1721 L 545 947 C 523 900.332031 512 840.667969 512 768 C 512 626.667969 562 506 662 406 C 762 306 882.667969 256 1024 256 C 1165.332031 256 1286 306 1386 406 C 1486 506 1536 626.667969 1536 768 Z M 1536 768 "/>
</g>
</svg>
