<?xml version="1.0" encoding="utf-8"?>
<svg width="1792" height="1792" viewBox="0 0 1792 1792" xmlns="http://www.w3.org/2000/svg"><path d="M320 1280v128h-112q-16 0-16-16v-16h-48q-16 0-16-16v-32q0-16 16-16h48v-16q0-16 16-16h112zm0-256v128h-112q-16 0-16-16v-16h-48q-16 0-16-16v-32q0-16 16-16h48v-16q0-16 16-16h112zm0-256v128h-112q-16 0-16-16v-16h-48q-16 0-16-16v-32q0-16 16-16h48v-16q0-16 16-16h112zm0-256v128h-112q-16 0-16-16v-16h-48q-16 0-16-16v-32q0-16 16-16h48v-16q0-16 16-16h112zm0-256v128h-112q-16 0-16-16v-16h-48q-16 0-16-16v-32q0-16 16-16h48v-16q0-16 16-16h112zm1088-160v1472q0 40-28 68t-68 28h-832q-40 0-68-28t-28-68v-1472q0-40 28-68t68-28h832q40 0 68 28t28 68zm256 1232v32q0 16-16 16h-48v16q0 16-16 16h-112v-128h112q16 0 16 16v16h48q16 0 16 16zm0-256v32q0 16-16 16h-48v16q0 16-16 16h-112v-128h112q16 0 16 16v16h48q16 0 16 16zm0-256v32q0 16-16 16h-48v16q0 16-16 16h-112v-128h112q16 0 16 16v16h48q16 0 16 16zm0-256v32q0 16-16 16h-48v16q0 16-16 16h-112v-128h112q16 0 16 16v16h48q16 0 16 16zm0-256v32q0 16-16 16h-48v16q0 16-16 16h-112v-128h112q16 0 16 16v16h48q16 0 16 16z"/></svg>