<svg width="2048" height="2048" viewBox="-320 -384 2048 2048" xmlns="http://www.w3.org/2000/svg"><g transform="scale(1 -1) translate(0 -1280)"><path d="M271 591l-101 -101q-42 103 -42 214v128q0 26 19 45t45 19t45 -19t19 -45v-128q0 -53 15 -113zM1385 1193l-361 -361v-128q0 -132 -94 -226t-226 -94q-55 0 -109 19l-96 -96q97 -51 205 -51q185 0 316.5 131.5t131.5 316.5v128q0 26 19 45t45 19t45 -19t19 -45v-128 q0 -221 -147.5 -384.5t-364.5 -187.5v-132h256q26 0 45 -19t19 -45t-19 -45t-45 -19h-640q-26 0 -45 19t-19 45t19 45t45 19h256v132q-125 13 -235 81l-254 -254q-10 -10 -23 -10t-23 10l-82 82q-10 10 -10 23t10 23l1234 1234q10 10 23 10t23 -10l82 -82q10 -10 10 -23 t-10 -23zM1005 1325l-621 -621v512q0 132 94 226t226 94q102 0 184.5 -59t116.5 -152z" fill="black" /></g></svg>