<svg width="2048" height="2048" viewBox="-448 -384 2048 2048" xmlns="http://www.w3.org/2000/svg"><g transform="scale(1 -1) translate(0 -1280)"><path d="M1152 832v-128q0 -221 -147.5 -384.5t-364.5 -187.5v-132h256q26 0 45 -19t19 -45t-19 -45t-45 -19h-640q-26 0 -45 19t-19 45t19 45t45 19h256v132q-217 24 -364.5 187.5t-147.5 384.5v128q0 26 19 45t45 19t45 -19t19 -45v-128q0 -185 131.5 -316.5t316.5 -131.5 t316.5 131.5t131.5 316.5v128q0 26 19 45t45 19t45 -19t19 -45zM896 1216v-512q0 -132 -94 -226t-226 -94t-226 94t-94 226v512q0 132 94 226t226 94t226 -94t94 -226z" fill="black" /></g></svg>