<svg width="2048" height="2048" viewBox="-320 -384 2048 2048" xmlns="http://www.w3.org/2000/svg"><g transform="scale(1 -1) translate(0 -1280)"><path d="M1152 736v-64q0 -14 -9 -23t-23 -9h-832q-14 0 -23 9t-9 23v64q0 14 9 23t23 9h832q14 0 23 -9t9 -23zM1280 288v832q0 66 -47 113t-113 47h-832q-66 0 -113 -47t-47 -113v-832q0 -66 47 -113t113 -47h832q66 0 113 47t47 113zM1408 1120v-832q0 -119 -84.5 -203.5 t-203.5 -84.5h-832q-119 0 -203.5 84.5t-84.5 203.5v832q0 119 84.5 203.5t203.5 84.5h832q119 0 203.5 -84.5t84.5 -203.5z" fill="black" /></g></svg>