<?xml version="1.0" encoding="UTF-8"?>
<svg xmlns="http://www.w3.org/2000/svg" xmlns:xlink="http://www.w3.org/1999/xlink" width="2048" height="2048" viewBox="0 0 2048 2048" version="1.1">
<g>
<path d="M 832 1280 L 1216 1280 L 1216 1184 L 1088 1184 L 1088 736 L 974 736 L 826 873 L 903 953 C 931 928.332031 949.332031 909.332031 958 896 L 960 896 L 960 1184 L 832 1184 Z M 1344 1024 C 1344 1070.667969 1337 1118 1323 1166 C 1309 1214 1289.167969 1258.667969 1263.5 1300 C 1237.832031 1341.332031 1204 1375 1162 1401 C 1120 1427 1074 1440 1024 1440 C 974 1440 928 1427 886 1401 C 844 1375 810.167969 1341.332031 784.5 1300 C 758.832031 1258.667969 739 1214 725 1166 C 711 1118 704 1070.667969 704 1024 C 704 977.332031 711 930 725 882 C 739 834 758.832031 789.332031 784.5 748 C 810.167969 706.667969 844 673 886 647 C 928 621 974 608 1024 608 C 1074 608 1120 621 1162 647 C 1204 673 1237.832031 706.667969 1263.5 748 C 1289.167969 789.332031 1309 834 1323 882 C 1337 930 1344 977.332031 1344 1024 Z M 1856 1280 L 1856 768 C 1785.332031 768 1725 743 1675 693 C 1625 643 1600 582.667969 1600 512 L 448 512 C 448 582.667969 423 643 373 693 C 323 743 262.667969 768 192 768 L 192 1280 C 262.667969 1280 323 1305 373 1355 C 423 1405 448 1465.332031 448 1536 L 1600 1536 C 1600 1465.332031 1625 1405 1675 1355 C 1725 1305 1785.332031 1280 1856 1280 Z M 1984 448 L 1984 1600 C 1984 1617.332031 1977.667969 1632.332031 1965 1645 C 1952.332031 1657.667969 1937.332031 1664 1920 1664 L 128 1664 C 110.667969 1664 95.667969 1657.667969 83 1645 C 70.332031 1632.332031 64 1617.332031 64 1600 L 64 448 C 64 430.667969 70.332031 415.667969 83 403 C 95.667969 390.332031 110.667969 384 128 384 L 1920 384 C 1937.332031 384 1952.332031 390.332031 1965 403 C 1977.667969 415.667969 1984 430.667969 1984 448 Z M 1984 448 "/>
</g>
</svg>
