<svg width="2048" height="2048" viewBox="-256 -384 2048 2048" xmlns="http://www.w3.org/2000/svg"><g transform="scale(1 -1) translate(0 -1280)"><path d="M1262 233q-54 -9 -110 -9q-182 0 -337 90t-245 245t-90 337q0 192 104 357q-201 -60 -328.5 -229t-127.5 -384q0 -130 51 -248.5t136.5 -204t204 -136.5t248.5 -51q144 0 273.5 61.5t220.5 171.5zM1465 318q-94 -203 -283.5 -324.5t-413.5 -121.5q-156 0 -298 61 t-245 164t-164 245t-61 298q0 153 57.5 292.5t156 241.5t235.5 164.5t290 68.5q44 2 61 -39q18 -41 -15 -72q-86 -78 -131.5 -181.5t-45.5 -218.5q0 -148 73 -273t198 -198t273 -73q118 0 228 51q41 18 72 -13q14 -14 17.5 -34t-4.5 -38z" fill="black" /></g></svg>