<svg width="2048" height="2048" viewBox="-128 -384 2048 2048" xmlns="http://www.w3.org/2000/svg"><g transform="scale(1 -1) translate(0 -1280)"><path d="M384 992v-576q0 -13 -9.5 -22.5t-22.5 -9.5q-14 0 -23 9l-288 288q-9 9 -9 23t9 23l288 288q9 9 23 9q13 0 22.5 -9.5t9.5 -22.5zM1792 224v-192q0 -13 -9.5 -22.5t-22.5 -9.5h-1728q-13 0 -22.5 9.5t-9.5 22.5v192q0 13 9.5 22.5t22.5 9.5h1728q13 0 22.5 -9.5 t9.5 -22.5zM1792 608v-192q0 -13 -9.5 -22.5t-22.5 -9.5h-1088q-13 0 -22.5 9.5t-9.5 22.5v192q0 13 9.5 22.5t22.5 9.5h1088q13 0 22.5 -9.5t9.5 -22.5zM1792 992v-192q0 -13 -9.5 -22.5t-22.5 -9.5h-1088q-13 0 -22.5 9.5t-9.5 22.5v192q0 13 9.5 22.5t22.5 9.5h1088 q13 0 22.5 -9.5t9.5 -22.5zM1792 1376v-192q0 -13 -9.5 -22.5t-22.5 -9.5h-1728q-13 0 -22.5 9.5t-9.5 22.5v192q0 13 9.5 22.5t22.5 9.5h1728q13 0 22.5 -9.5t9.5 -22.5z" fill="black" /></g></svg>