<svg width="2048" height="2048" viewBox="-320 -384 2048 2048" xmlns="http://www.w3.org/2000/svg"><g transform="scale(1 -1) translate(0 -1280)"><path d="M1402 433q-32 -80 -76 -138t-91 -88.5t-99 -46.5t-101.5 -14.5t-96.5 8.5t-86.5 22t-69.5 27.5t-46 22.5l-17 10q-113 -228 -289.5 -359.5t-384.5 -132.5q-19 0 -32 13t-13 32t13 31.5t32 12.5q173 1 322.5 107.5t251.5 294.5q-36 -14 -72 -23t-83 -13t-91 2.5t-93 28.5 t-92 59t-84.5 100t-74.5 146q114 47 214 57t167.5 -7.5t124.5 -56.5t88.5 -77t56.5 -82q53 131 79 291q-7 -1 -18 -2.5t-46.5 -2.5t-69.5 0.5t-81.5 10t-88.5 23t-84 42.5t-75 65t-54.5 94.5t-28.5 127.5q70 28 133.5 36.5t112.5 -1t92 -30t73.5 -50t56 -61t42 -63t27.5 -56 t16 -39.5l4 -16q12 122 12 195q-8 6 -21.5 16t-49 44.5t-63.5 71.5t-54 93t-33 112.5t12 127t70 138.5q73 -25 127.5 -61.5t84.5 -76.5t48 -85t20.5 -89t-0.5 -85.5t-13 -76.5t-19 -62t-17 -42l-7 -15q1 -5 1 -50.5t-1 -71.5q3 7 10 18.5t30.5 43t50.5 58t71 55.5t91.5 44.5 t112 14.5t132.5 -24q-2 -78 -21.5 -141.5t-50 -104.5t-69.5 -71.5t-81.5 -45.5t-84.5 -24t-80 -9.5t-67.5 1t-46.5 4.5l-17 3q-23 -147 -73 -283q6 7 18 18.5t49.5 41t77.5 52.5t99.5 42t117.5 20t129 -23.5t137 -77.5z" fill="black" /></g></svg>