<svg width="2048" height="2048" viewBox="-256 -384 2048 2048" xmlns="http://www.w3.org/2000/svg"><g transform="scale(1 -1) translate(0 -1280)"><path d="M404 428l152 -152l-52 -52h-56v96h-96v56zM818 818q14 -13 -3 -30l-291 -291q-17 -17 -30 -3q-14 13 3 30l291 291q17 17 30 3zM544 128l544 544l-288 288l-544 -544v-288h288zM1152 736l92 92q28 28 28 68t-28 68l-152 152q-28 28 -68 28t-68 -28l-92 -92zM1536 1120 v-960q0 -119 -84.5 -203.5t-203.5 -84.5h-960q-119 0 -203.5 84.5t-84.5 203.5v960q0 119 84.5 203.5t203.5 84.5h960q119 0 203.5 -84.5t84.5 -203.5z" fill="black" /></g></svg>