<?xml version="1.0" encoding="UTF-8"?>
<svg xmlns="http://www.w3.org/2000/svg" xmlns:xlink="http://www.w3.org/1999/xlink" width="2048" height="2048" viewBox="0 0 2048 2048" version="1.1">
<g>
<path d="M 1016 1312 L 1132 1196 L 980 1044 L 864 1160 L 864 1216 L 960 1216 L 960 1312 Z M 1456 592 C 1445.332031 581.332031 1434.332031 581.667969 1423 593 L 1073 943 C 1061.667969 954.332031 1061.332031 965.332031 1072 976 C 1082.667969 986.667969 1093.667969 986.332031 1105 975 L 1455 625 C 1466.332031 613.667969 1466.667969 602.667969 1456 592 Z M 1536 1186 L 1536 1376 C 1536 1455.332031 1507.832031 1523.167969 1451.5 1579.5 C 1395.167969 1635.832031 1327.332031 1664 1248 1664 L 416 1664 C 336.667969 1664 268.832031 1635.832031 212.5 1579.5 C 156.167969 1523.167969 128 1455.332031 128 1376 L 128 544 C 128 464.667969 156.167969 396.832031 212.5 340.5 C 268.832031 284.167969 336.667969 256 416 256 L 1248 256 C 1290 256 1329 264.332031 1365 281 C 1375 285.667969 1381 293.332031 1383 304 C 1385 315.332031 1382 325 1374 333 L 1325 382 C 1315.667969 391.332031 1305 394 1293 390 C 1277.667969 386 1262.667969 384 1248 384 L 416 384 C 372 384 334.332031 399.667969 303 431 C 271.667969 462.332031 256 500 256 544 L 256 1376 C 256 1420 271.667969 1457.667969 303 1489 C 334.332031 1520.332031 372 1536 416 1536 L 1248 1536 C 1292 1536 1329.667969 1520.332031 1361 1489 C 1392.332031 1457.667969 1408 1420 1408 1376 L 1408 1250 C 1408 1241.332031 1411 1234 1417 1228 L 1481 1164 C 1491 1154 1502.667969 1151.667969 1516 1157 C 1529.332031 1162.332031 1536 1172 1536 1186 Z M 1440 448 L 1728 736 L 1056 1408 L 768 1408 L 768 1120 Z M 1884 580 L 1792 672 L 1504 384 L 1596 292 C 1614.667969 273.332031 1637.332031 264 1664 264 C 1690.667969 264 1713.332031 273.332031 1732 292 L 1884 444 C 1902.667969 462.667969 1912 485.332031 1912 512 C 1912 538.667969 1902.667969 561.332031 1884 580 Z M 1884 580 "/>
</g>
</svg>
