<?xml version="1.0" encoding="UTF-8"?>
<svg xmlns="http://www.w3.org/2000/svg" xmlns:xlink="http://www.w3.org/1999/xlink" width="2048" height="2048" viewBox="0 0 2048 2048" version="1.1">
<g>
<path d="M 660 1236 L 812 1388 L 760 1440 L 704 1440 L 704 1344 L 608 1344 L 608 1288 Z M 1074 846 C 1083.332031 854.667969 1082.332031 864.667969 1071 876 L 780 1167 C 768.667969 1178.332031 758.667969 1179.332031 750 1170 C 740.667969 1161.332031 741.667969 1151.332031 753 1140 L 1044 849 C 1055.332031 837.667969 1065.332031 836.667969 1074 846 Z M 800 1536 L 1344 992 L 1056 704 L 512 1248 L 512 1536 Z M 1408 928 L 1500 836 C 1518.667969 817.332031 1528 794.667969 1528 768 C 1528 741.332031 1518.667969 718.667969 1500 700 L 1348 548 C 1329.332031 529.332031 1306.667969 520 1280 520 C 1253.332031 520 1230.667969 529.332031 1212 548 L 1120 640 Z M 1792 544 L 1792 1504 C 1792 1583.332031 1763.832031 1651.167969 1707.5 1707.5 C 1651.167969 1763.832031 1583.332031 1792 1504 1792 L 544 1792 C 464.667969 1792 396.832031 1763.832031 340.5 1707.5 C 284.167969 1651.167969 256 1583.332031 256 1504 L 256 544 C 256 464.667969 284.167969 396.832031 340.5 340.5 C 396.832031 284.167969 464.667969 256 544 256 L 1504 256 C 1583.332031 256 1651.167969 284.167969 1707.5 340.5 C 1763.832031 396.832031 1792 464.667969 1792 544 Z M 1792 544 "/>
</g>
</svg>
