<svg width="2048" height="2048" viewBox="-256 -384 2048 2048" xmlns="http://www.w3.org/2000/svg"><g transform="scale(1 -1) translate(0 -1280)"><path d="M1280 343q0 11 -2 16q-3 8 -38.5 29.5t-88.5 49.5l-53 29q-5 3 -19 13t-25 15t-21 5q-18 0 -47 -32.5t-57 -65.5t-44 -33q-7 0 -16.5 3.5t-15.5 6.5t-17 9.5t-14 8.5q-99 55 -170.5 126.5t-126.5 170.5q-2 3 -8.5 14t-9.5 17t-6.5 15.5t-3.5 16.5q0 13 20.5 33.5t45 38.5 t45 39.5t20.5 36.5q0 10 -5 21t-15 25t-13 19q-3 6 -15 28.5t-25 45.5t-26.5 47.5t-25 40.5t-16.5 18t-16 2q-48 0 -101 -22q-46 -21 -80 -94.5t-34 -130.5q0 -16 2.5 -34t5 -30.5t9 -33t10 -29.5t12.5 -33t11 -30q60 -164 216.5 -320.5t320.5 -216.5q6 -2 30 -11t33 -12.5 t29.5 -10t33 -9t30.5 -5t34 -2.5q57 0 130.5 34t94.5 80q22 53 22 101zM1536 1120v-960q0 -119 -84.5 -203.5t-203.5 -84.5h-960q-119 0 -203.5 84.5t-84.5 203.5v960q0 119 84.5 203.5t203.5 84.5h960q119 0 203.5 -84.5t84.5 -203.5z" fill="black" /></g></svg>