<?xml version="1.0" encoding="UTF-8"?>
<svg xmlns="http://www.w3.org/2000/svg" xmlns:xlink="http://www.w3.org/1999/xlink" width="2048" height="2048" viewBox="0 0 2048 2048" version="1.1">
<g>
<path d="M 1536 1321 C 1536 1313.667969 1535.332031 1308.332031 1534 1305 C 1532 1299.667969 1519.167969 1289.832031 1495.5 1275.5 C 1471.832031 1261.167969 1442.332031 1244.667969 1407 1226 L 1354 1197 C 1350.667969 1195 1344.332031 1190.667969 1335 1184 C 1325.667969 1177.332031 1317.332031 1172.332031 1310 1169 C 1302.667969 1165.667969 1295.667969 1164 1289 1164 C 1277 1164 1261.332031 1174.832031 1242 1196.5 C 1222.667969 1218.167969 1203.667969 1240 1185 1262 C 1166.332031 1284 1151.667969 1295 1141 1295 C 1136.332031 1295 1130.832031 1293.832031 1124.5 1291.5 C 1118.167969 1289.167969 1113 1287 1109 1285 C 1105 1283 1099.332031 1279.832031 1092 1275.5 C 1084.667969 1271.167969 1080 1268.332031 1078 1267 C 1012 1230.332031 955.167969 1188.167969 907.5 1140.5 C 859.832031 1092.832031 817.667969 1036 781 970 C 779.667969 968 776.832031 963.332031 772.5 956 C 768.167969 948.667969 765 943 763 939 C 761 935 758.832031 929.832031 756.5 923.5 C 754.167969 917.167969 753 911.667969 753 907 C 753 898.332031 759.832031 887.167969 773.5 873.5 C 787.167969 859.832031 802.167969 847 818.5 835 C 834.832031 823 849.832031 809.832031 863.5 795.5 C 877.167969 781.167969 884 769 884 759 C 884 752.332031 882.332031 745.332031 879 738 C 875.667969 730.667969 870.667969 722.332031 864 713 C 857.332031 703.667969 853 697.332031 851 694 C 849 690 844 680.5 836 665.5 C 828 650.5 819.667969 635.332031 811 620 C 802.332031 604.667969 793.5 588.832031 784.5 572.5 C 775.5 556.167969 767.167969 542.667969 759.5 532 C 751.832031 521.332031 746.332031 515.332031 743 514 C 739.667969 512.667969 734.332031 512 727 512 C 695 512 661.332031 519.332031 626 534 C 595.332031 548 568.667969 579.5 546 628.5 C 523.332031 677.5 512 721 512 759 C 512 769.667969 512.832031 781 514.5 793 C 516.167969 805 517.832031 815.167969 519.5 823.5 C 521.167969 831.832031 524.167969 842.832031 528.5 856.5 C 532.832031 870.167969 536.167969 880 538.5 886 C 540.832031 892 545 903 551 919 C 557 935 560.667969 945 562 949 C 602 1058.332031 674.167969 1165.167969 778.5 1269.5 C 882.832031 1373.832031 989.667969 1446 1099 1486 C 1103 1487.332031 1113 1491 1129 1497 C 1145 1503 1156 1507.167969 1162 1509.5 C 1168 1511.832031 1177.832031 1515.167969 1191.5 1519.5 C 1205.167969 1523.832031 1216.167969 1526.832031 1224.5 1528.5 C 1232.832031 1530.167969 1243 1531.832031 1255 1533.5 C 1267 1535.167969 1278.332031 1536 1289 1536 C 1327 1536 1370.5 1524.667969 1419.5 1502 C 1468.5 1479.332031 1500 1452.667969 1514 1422 C 1528.667969 1386.667969 1536 1353 1536 1321 Z M 1792 544 L 1792 1504 C 1792 1583.332031 1763.832031 1651.167969 1707.5 1707.5 C 1651.167969 1763.832031 1583.332031 1792 1504 1792 L 544 1792 C 464.667969 1792 396.832031 1763.832031 340.5 1707.5 C 284.167969 1651.167969 256 1583.332031 256 1504 L 256 544 C 256 464.667969 284.167969 396.832031 340.5 340.5 C 396.832031 284.167969 464.667969 256 544 256 L 1504 256 C 1583.332031 256 1651.167969 284.167969 1707.5 340.5 C 1763.832031 396.832031 1792 464.667969 1792 544 Z M 1792 544 "/>
</g>
</svg>
