<?xml version="1.0" encoding="utf-8"?>
<svg width="2304" height="1792" viewBox="0 0 2304 1792" xmlns="http://www.w3.org/2000/svg"><path d="M2304 0q-69 46-125 92t-89 81-59.5 71.5-37.5 57.5-22 44.5-14 29.5q-10 18-35.5 136.5t-48.5 164.5q-15 29-50 60.5t-67.5 50.5-72.5 41-48 28q-47 31-151 231-341-14-630 158-92 53-303 179 47-16 86-31t55-22l15-7q71-27 163-64.5t133.5-53.5 108-34.5 142.5-31.5q186-31 465 7 1 0 10 3 11 6 14 17t-3 22l-194 345q-15 29-47 22-128-24-354-24-146 0-402 44.5t-392 46.5q-82 1-149-13t-107-37-61-40-33-34l-1-1v-2q0-6 6-6 138 0 371-55 192-366 374.5-524t383.5-158q5 0 14.5.5t38 5 55 12 61.5 24.5 63 39.5 54 59 40 82.5l102-177q2-4 21-42.5t44.5-86.5 61-109.5 84-133.5 100.5-137q66-82 128-141.5t121.5-96.5 92.5-53.5 88-39.5z"/></svg>