<?xml version="1.0" encoding="UTF-8"?>
<svg xmlns="http://www.w3.org/2000/svg" xmlns:xlink="http://www.w3.org/1999/xlink" width="2048" height="2048" viewBox="0 0 2048 2048" version="1.1">
<g>
<path d="M 1792 1024 C 1792 1163.332031 1757.667969 1291.832031 1689 1409.5 C 1620.332031 1527.167969 1527.167969 1620.332031 1409.5 1689 C 1291.832031 1757.667969 1163.332031 1792 1024 1792 C 950 1792 877.332031 1781.332031 806 1760 C 845.332031 1698 871.332031 1643.332031 884 1596 C 890 1573.332031 908 1503 938 1385 C 951.332031 1411 975.667969 1433.5 1011 1452.5 C 1046.332031 1471.5 1084.332031 1481 1125 1481 C 1205.667969 1481 1277.667969 1458.167969 1341 1412.5 C 1404.332031 1366.832031 1453.332031 1304 1488 1224 C 1522.667969 1144 1540 1054 1540 954 C 1540 878 1520.167969 806.667969 1480.5 740 C 1440.832031 673.332031 1383.332031 619 1308 577 C 1232.667969 535 1147.667969 514 1053 514 C 983 514 917.667969 523.667969 857 543 C 796.332031 562.332031 744.832031 588 702.5 620 C 660.167969 652 623.832031 688.832031 593.5 730.5 C 563.167969 772.167969 540.832031 815.332031 526.5 860 C 512.167969 904.667969 505 949.332031 505 994 C 505 1063.332031 518.332031 1124.332031 545 1177 C 571.667969 1229.667969 610.667969 1266.667969 662 1288 C 682 1296 694.667969 1289.332031 700 1268 C 701.332031 1263.332031 704 1253 708 1237 C 712 1221 714.667969 1211 716 1207 C 720 1191.667969 716.332031 1177.332031 705 1164 C 671 1123.332031 654 1073 654 1013 C 654 912.332031 688.832031 825.832031 758.5 753.5 C 828.167969 681.167969 919.332031 645 1032 645 C 1132.667969 645 1211.167969 672.332031 1267.5 727 C 1323.832031 781.667969 1352 852.667969 1352 940 C 1352 1053.332031 1329.167969 1149.667969 1283.5 1229 C 1237.832031 1308.332031 1179.332031 1348 1108 1348 C 1067.332031 1348 1034.667969 1333.5 1010 1304.5 C 985.332031 1275.5 977.667969 1240.667969 987 1200 C 992.332031 1176.667969 1001.167969 1145.5 1013.5 1106.5 C 1025.832031 1067.5 1035.832031 1033.167969 1043.5 1003.5 C 1051.167969 973.832031 1055 948.667969 1055 928 C 1055 894.667969 1046 867 1028 845 C 1010 823 984.332031 812 951 812 C 909.667969 812 874.667969 831 846 869 C 817.332031 907 803 954.332031 803 1011 C 803 1059.667969 811.332031 1100.332031 828 1133 L 729 1551 C 717.667969 1597.667969 713.332031 1656.667969 716 1728 C 578.667969 1667.332031 467.667969 1573.667969 383 1447 C 298.332031 1320.332031 256 1179.332031 256 1024 C 256 884.667969 290.332031 756.167969 359 638.5 C 427.667969 520.832031 520.832031 427.667969 638.5 359 C 756.167969 290.332031 884.667969 256 1024 256 C 1163.332031 256 1291.832031 290.332031 1409.5 359 C 1527.167969 427.667969 1620.332031 520.832031 1689 638.5 C 1757.667969 756.167969 1792 884.667969 1792 1024 Z M 1792 1024 "/>
</g>
</svg>
