<?xml version="1.0" encoding="UTF-8"?>
<svg xmlns="http://www.w3.org/2000/svg" xmlns:xlink="http://www.w3.org/1999/xlink" width="2048" height="2048" viewBox="0 0 2048 2048" version="1.1">
<g>
<path d="M 1696 288 C 1725.332031 322.667969 1729.332031 372 1708 436 C 1686.667969 500 1650.667969 557.332031 1600 608 L 1439 769 L 1599 1465 C 1602.332031 1477.667969 1598.332031 1488.667969 1587 1498 L 1459 1594 C 1454.332031 1598 1448 1600 1440 1600 C 1437.332031 1600 1435 1599.667969 1433 1599 C 1423 1597 1416 1591.667969 1412 1583 L 1133 1075 L 874 1334 L 927 1528 C 930.332031 1539.332031 927.667969 1549.667969 919 1559 L 823 1655 C 817 1661 809.332031 1664 800 1664 L 798 1664 C 788 1662.667969 780 1658.332031 774 1651 L 585 1399 L 333 1210 C 325.667969 1205.332031 321.332031 1197.667969 320 1187 C 319.332031 1178.332031 322.332031 1170 329 1162 L 425 1065 C 431 1059 438.667969 1056 448 1056 C 452 1056 454.667969 1056.332031 456 1057 L 650 1110 L 909 851 L 401 572 C 391.667969 566.667969 386 558.667969 384 548 C 382.667969 537.332031 385.667969 528.332031 393 521 L 521 393 C 530.332031 384.332031 540.332031 381.667969 551 385 L 1216 544 L 1376 384 C 1426.667969 333.332031 1484 297.332031 1548 276 C 1612 254.667969 1661.332031 258.667969 1696 288 Z M 1696 288 "/>
</g>
</svg>
