<svg width="2048" height="2048" viewBox="-320 -384 2048 2048" xmlns="http://www.w3.org/2000/svg"><g transform="scale(1 -1) translate(0 -1280)"><path d="M1376 1376q44 -52 12 -148t-108 -172l-161 -161l160 -696q5 -19 -12 -33l-128 -96q-7 -6 -19 -6q-4 0 -7 1q-15 3 -21 16l-279 508l-259 -259l53 -194q5 -17 -8 -31l-96 -96q-9 -9 -23 -9h-2q-15 2 -24 13l-189 252l-252 189q-11 7 -13 23q-1 13 9 25l96 97q9 9 23 9 q6 0 8 -1l194 -53l259 259l-508 279q-14 8 -17 24q-2 16 9 27l128 128q14 13 30 8l665 -159l160 160q76 76 172 108t148 -12z" fill="black" /></g></svg>