<svg width="1792" height="1792" viewBox="-128 -256 1792 1792"><g transform="scale(1 -1) translate(0 -1280)"><path d="M1184 640q0 -37 -32 -55l-544 -320q-15 -9 -32 -9q-16 0 -32 8q-32 19 -32 56v640q0 37 32 56q33 18 64 -1l544 -320q32 -18 32 -55zM1312 640q0 148 -73 273t-198 198t-273 73t-273 -73t-198 -198t-73 -273t73 -273t198 -198t273 -73t273 73t198 198t73 273zM1536 640 q0 -209 -103 -385.5t-279.5 -279.5t-385.5 -103t-385.5 103t-279.5 279.5t-103 385.5t103 385.5t279.5 279.5t385.5 103t385.5 -103t279.5 -279.5t103 -385.5z" fill="black" /></g></svg>