<?xml version="1.0" encoding="UTF-8"?>
<svg xmlns="http://www.w3.org/2000/svg" xmlns:xlink="http://www.w3.org/1999/xlink" width="2048" height="2048" viewBox="0 0 2048 2048" version="1.1">
<g>
<path d="M 1728 864 L 1728 1056 C 1728 1082.667969 1718.667969 1105.332031 1700 1124 C 1681.332031 1142.667969 1658.667969 1152 1632 1152 L 1216 1152 L 1216 1568 C 1216 1594.667969 1206.667969 1617.332031 1188 1636 C 1169.332031 1654.667969 1146.667969 1664 1120 1664 L 928 1664 C 901.332031 1664 878.667969 1654.667969 860 1636 C 841.332031 1617.332031 832 1594.667969 832 1568 L 832 1152 L 416 1152 C 389.332031 1152 366.667969 1142.667969 348 1124 C 329.332031 1105.332031 320 1082.667969 320 1056 L 320 864 C 320 837.332031 329.332031 814.667969 348 796 C 366.667969 777.332031 389.332031 768 416 768 L 832 768 L 832 352 C 832 325.332031 841.332031 302.667969 860 284 C 878.667969 265.332031 901.332031 256 928 256 L 1120 256 C 1146.667969 256 1169.332031 265.332031 1188 284 C 1206.667969 302.667969 1216 325.332031 1216 352 L 1216 768 L 1632 768 C 1658.667969 768 1681.332031 777.332031 1700 796 C 1718.667969 814.667969 1728 837.332031 1728 864 Z M 1728 864 "/>
</g>
</svg>
