<?xml version="1.0" encoding="UTF-8"?>
<svg xmlns="http://www.w3.org/2000/svg" xmlns:xlink="http://www.w3.org/1999/xlink" width="2048" height="2048" viewBox="0 0 2048 2048" version="1.1">
<g>
<path d="M 1472 928 L 1472 992 C 1472 1001.332031 1469 1009 1463 1015 C 1457 1021 1449.332031 1024 1440 1024 L 1088 1024 L 1088 1376 C 1088 1385.332031 1085 1393 1079 1399 C 1073 1405 1065.332031 1408 1056 1408 L 992 1408 C 982.667969 1408 975 1405 969 1399 C 963 1393 960 1385.332031 960 1376 L 960 1024 L 608 1024 C 598.667969 1024 591 1021 585 1015 C 579 1009 576 1001.332031 576 992 L 576 928 C 576 918.667969 579 911 585 905 C 591 899 598.667969 896 608 896 L 960 896 L 960 544 C 960 534.667969 963 527 969 521 C 975 515 982.667969 512 992 512 L 1056 512 C 1065.332031 512 1073 515 1079 521 C 1085 527 1088 534.667969 1088 544 L 1088 896 L 1440 896 C 1449.332031 896 1457 899 1463 905 C 1469 911 1472 918.667969 1472 928 Z M 1600 1376 L 1600 544 C 1600 500 1584.332031 462.332031 1553 431 C 1521.667969 399.667969 1484 384 1440 384 L 608 384 C 564 384 526.332031 399.667969 495 431 C 463.667969 462.332031 448 500 448 544 L 448 1376 C 448 1420 463.667969 1457.667969 495 1489 C 526.332031 1520.332031 564 1536 608 1536 L 1440 1536 C 1484 1536 1521.667969 1520.332031 1553 1489 C 1584.332031 1457.667969 1600 1420 1600 1376 Z M 1728 544 L 1728 1376 C 1728 1455.332031 1699.832031 1523.167969 1643.5 1579.5 C 1587.167969 1635.832031 1519.332031 1664 1440 1664 L 608 1664 C 528.667969 1664 460.832031 1635.832031 404.5 1579.5 C 348.167969 1523.167969 320 1455.332031 320 1376 L 320 544 C 320 464.667969 348.167969 396.832031 404.5 340.5 C 460.832031 284.167969 528.667969 256 608 256 L 1440 256 C 1519.332031 256 1587.167969 284.167969 1643.5 340.5 C 1699.832031 396.832031 1728 464.667969 1728 544 Z M 1728 544 "/>
</g>
</svg>
