<?xml version="1.0" encoding="utf-8"?>
<svg width="1792" height="1792" viewBox="0 0 1792 1792" xmlns="http://www.w3.org/2000/svg"><path d="M1122 1192q0 86-17 197-31 215-55 313-22 90-152 90t-152-90q-24-98-55-313-17-110-17-197 0-168 224-168t224 168zm542-424q0 240-134 434t-350 280q-8 3-15-3t-6-15q7-48 10-66 4-32 6-47 1-9 9-12 159-81 255.5-234t96.5-337q0-180-91-330.5t-247-234.5-337-74q-124 7-237 61t-193.5 140.5-128 202-46.5 240.5q1 184 99 336.5t257 231.5q7 3 9 12 3 21 6 45 1 9 5 32.5t6 35.5q1 9-6.5 15t-15.5 2q-148-58-261-169.5t-173.5-264-52.5-319.5q7-143 66-273.5t154.5-227 225-157.5 272.5-70q164-10 315.5 46.5t261 160.5 175 250.5 65.5 308.5zm-542-32q0 93-65.5 158.5t-158.5 65.5-158.5-65.5-65.5-158.5 65.5-158.5 158.5-65.5 158.5 65.5 65.5 158.5zm288 32q0 122-53.5 228.5t-146.5 177.5q-8 6-16 2t-10-14q-6-52-29-92-7-10 3-20 58-54 91-127t33-155q0-111-58.5-204t-157.5-141.5-212-36.5q-133 15-229 113t-109 231q-10 92 23.5 176t98.5 144q10 10 3 20-24 41-29 93-2 9-10 13t-16-2q-95-74-148.5-183t-51.5-234q3-131 69-244t177-181.5 241-74.5q144-7 268 60t196.5 187.5 72.5 263.5z"/></svg>