<?xml version="1.0" encoding="UTF-8"?>
<svg xmlns="http://www.w3.org/2000/svg" xmlns:xlink="http://www.w3.org/1999/xlink" width="2048" height="2048" viewBox="0 0 2048 2048" version="1.1">
<g>
<path d="M 1792 1024 C 1792 1128 1771.667969 1227.332031 1731 1322 C 1690.332031 1416.667969 1635.667969 1498.332031 1567 1567 C 1498.332031 1635.667969 1416.667969 1690.332031 1322 1731 C 1227.332031 1771.667969 1128 1792 1024 1792 C 920 1792 820.667969 1771.667969 726 1731 C 631.332031 1690.332031 549.667969 1635.667969 481 1567 C 412.332031 1498.332031 357.667969 1416.667969 317 1322 C 276.332031 1227.332031 256 1128 256 1024 C 256 902.667969 282.832031 788.332031 336.5 681 C 390.167969 573.667969 465.667969 483.667969 563 411 C 591.667969 389.667969 623.5 381.332031 658.5 386 C 693.5 390.667969 721.332031 407.332031 742 436 C 763.332031 464 771.5 495.5 766.5 530.5 C 761.5 565.5 745 593.667969 717 615 C 651.667969 664.332031 601.167969 724.667969 565.5 796 C 529.832031 867.332031 512 943.332031 512 1024 C 512 1093.332031 525.5 1159.5 552.5 1222.5 C 579.5 1285.5 616 1340 662 1386 C 708 1432 762.5 1468.5 825.5 1495.5 C 888.5 1522.5 954.667969 1536 1024 1536 C 1093.332031 1536 1159.5 1522.5 1222.5 1495.5 C 1285.5 1468.5 1340 1432 1386 1386 C 1432 1340 1468.5 1285.5 1495.5 1222.5 C 1522.5 1159.5 1536 1093.332031 1536 1024 C 1536 943.332031 1518.167969 867.332031 1482.5 796 C 1446.832031 724.667969 1396.332031 664.332031 1331 615 C 1303 593.667969 1286.5 565.5 1281.5 530.5 C 1276.5 495.5 1284.667969 464 1306 436 C 1326.667969 407.332031 1354.667969 390.667969 1390 386 C 1425.332031 381.332031 1457 389.667969 1485 411 C 1582.332031 483.667969 1657.832031 573.667969 1711.5 681 C 1765.167969 788.332031 1792 902.667969 1792 1024 Z M 1152 256 L 1152 896 C 1152 930.667969 1139.332031 960.667969 1114 986 C 1088.667969 1011.332031 1058.667969 1024 1024 1024 C 989.332031 1024 959.332031 1011.332031 934 986 C 908.667969 960.667969 896 930.667969 896 896 L 896 256 C 896 221.332031 908.667969 191.332031 934 166 C 959.332031 140.667969 989.332031 128 1024 128 C 1058.667969 128 1088.667969 140.667969 1114 166 C 1139.332031 191.332031 1152 221.332031 1152 256 Z M 1152 256 "/>
</g>
</svg>
