<svg width="2048" height="2048" viewBox="-256 -384 2048 2048" xmlns="http://www.w3.org/2000/svg"><g transform="scale(1 -1) translate(0 -1280)"><path d="M1536 640q0 -156 -61 -298t-164 -245t-245 -164t-298 -61t-298 61t-245 164t-164 245t-61 298q0 182 80.5 343t226.5 270q43 32 95.5 25t83.5 -50q32 -42 24.5 -94.5t-49.5 -84.5q-98 -74 -151.5 -181t-53.5 -228q0 -104 40.5 -198.5t109.5 -163.5t163.5 -109.5 t198.5 -40.5t198.5 40.5t163.5 109.5t109.5 163.5t40.5 198.5q0 121 -53.5 228t-151.5 181q-42 32 -49.5 84.5t24.5 94.5q31 43 84 50t95 -25q146 -109 226.5 -270t80.5 -343zM896 1408v-640q0 -52 -38 -90t-90 -38t-90 38t-38 90v640q0 52 38 90t90 38t90 -38t38 -90z" fill="black" /></g></svg>