<svg width="2048" height="2048" viewBox="-192 -384 2048 2048" xmlns="http://www.w3.org/2000/svg"><g transform="scale(1 -1) translate(0 -1280)"><path d="M1664 438q0 -81 -44.5 -135t-123.5 -54q-41 0 -77.5 17.5t-59 38t-56.5 38t-71 17.5q-110 0 -110 -124q0 -39 16 -115t15 -115v-5q-22 0 -33 -1q-34 -3 -97.5 -11.5t-115.5 -13.5t-98 -5q-61 0 -103 26.5t-42 83.5q0 37 17.5 71t38 56.5t38 59t17.5 77.5q0 79 -54 123.5 t-135 44.5q-84 0 -143 -45.5t-59 -127.5q0 -43 15 -83t33.5 -64.5t33.5 -53t15 -50.5q0 -45 -46 -89q-37 -35 -117 -35q-95 0 -245 24q-9 2 -27.5 4t-27.5 4l-13 2q-1 0 -3 1q-2 0 -2 1v1024q2 -1 17.5 -3.5t34 -5t21.5 -3.5q150 -24 245 -24q80 0 117 35q46 44 46 89 q0 22 -15 50.5t-33.5 53t-33.5 64.5t-15 83q0 82 59 127.5t144 45.5q80 0 134 -44.5t54 -123.5q0 -41 -17.5 -77.5t-38 -59t-38 -56.5t-17.5 -71q0 -57 42 -83.5t103 -26.5q64 0 180 15t163 17v-2q-1 -2 -3.5 -17.5t-5 -34t-3.5 -21.5q-24 -150 -24 -245q0 -80 35 -117 q44 -46 89 -46q22 0 50.5 15t53 33.5t64.5 33.5t83 15q82 0 127.5 -59t45.5 -143z" fill="black" /></g></svg>