<?xml version="1.0" encoding="UTF-8"?>
<svg xmlns="http://www.w3.org/2000/svg" xmlns:xlink="http://www.w3.org/1999/xlink" width="2048" height="2048" viewBox="0 0 2048 2048" version="1.1">
<g>
<path d="M 1856 1226 C 1856 1280 1841.167969 1325 1811.5 1361 C 1781.832031 1397 1740.667969 1415 1688 1415 C 1660.667969 1415 1634.832031 1409.167969 1610.5 1397.5 C 1586.167969 1385.832031 1566.5 1373.167969 1551.5 1359.5 C 1536.5 1345.832031 1517.667969 1333.167969 1495 1321.5 C 1472.332031 1309.832031 1448.667969 1304 1424 1304 C 1350.667969 1304 1314 1345.332031 1314 1428 C 1314 1454 1319.332031 1492.332031 1330 1543 C 1340.667969 1593.667969 1345.667969 1632 1345 1658 L 1345 1663 C 1330.332031 1663 1319.332031 1663.332031 1312 1664 C 1289.332031 1666 1256.832031 1669.832031 1214.5 1675.5 C 1172.167969 1681.167969 1133.667969 1685.667969 1099 1689 C 1064.332031 1692.332031 1031.667969 1694 1001 1694 C 960.332031 1694 926 1685.167969 898 1667.5 C 870 1649.832031 856 1622 856 1584 C 856 1559.332031 861.832031 1535.667969 873.5 1513 C 885.167969 1490.332031 897.832031 1471.5 911.5 1456.5 C 925.167969 1441.5 937.832031 1421.832031 949.5 1397.5 C 961.167969 1373.167969 967 1347.332031 967 1320 C 967 1267.332031 949 1226.167969 913 1196.5 C 877 1166.832031 832 1152 778 1152 C 722 1152 674.332031 1167.167969 635 1197.5 C 595.667969 1227.832031 576 1270.332031 576 1325 C 576 1353.667969 581 1381.332031 591 1408 C 601 1434.667969 612.167969 1456.167969 624.5 1472.5 C 636.832031 1488.832031 648 1506.5 658 1525.5 C 668 1544.5 673 1561.332031 673 1576 C 673 1606 657.667969 1635.667969 627 1665 C 602.332031 1688.332031 563.332031 1700 510 1700 C 446.667969 1700 365 1692 265 1676 C 259 1674.667969 249.832031 1673.332031 237.5 1672 C 225.167969 1670.667969 216 1669.332031 210 1668 L 197 1666 C 196.332031 1666 195.332031 1665.667969 194 1665 C 192.667969 1665 192 1664.667969 192 1664 L 192 640 C 193.332031 640.667969 199.167969 641.832031 209.5 643.5 C 219.832031 645.167969 231.167969 646.832031 243.5 648.5 C 255.832031 650.167969 263 651.332031 265 652 C 365 668 446.667969 676 510 676 C 563.332031 676 602.332031 664.332031 627 641 C 657.667969 611.667969 673 582 673 552 C 673 537.332031 668 520.5 658 501.5 C 648 482.5 636.832031 464.832031 624.5 448.5 C 612.167969 432.167969 601 410.667969 591 384 C 581 357.332031 576 329.667969 576 301 C 576 246.332031 595.667969 203.832031 635 173.5 C 674.332031 143.167969 722.332031 128 779 128 C 832.332031 128 877 142.832031 913 172.5 C 949 202.167969 967 243.332031 967 296 C 967 323.332031 961.167969 349.167969 949.5 373.5 C 937.832031 397.832031 925.167969 417.5 911.5 432.5 C 897.832031 447.5 885.167969 466.332031 873.5 489 C 861.832031 511.667969 856 535.332031 856 560 C 856 598 870 625.832031 898 643.5 C 926 661.167969 960.332031 670 1001 670 C 1043.667969 670 1103.667969 665 1181 655 C 1258.332031 645 1312.667969 639.332031 1344 638 L 1344 640 C 1343.332031 641.332031 1342.167969 647.167969 1340.5 657.5 C 1338.832031 667.832031 1337.167969 679.167969 1335.5 691.5 C 1333.832031 703.832031 1332.667969 711 1332 713 C 1316 813 1308 894.667969 1308 958 C 1308 1011.332031 1319.667969 1050.332031 1343 1075 C 1372.332031 1105.667969 1402 1121 1432 1121 C 1446.667969 1121 1463.5 1116 1482.5 1106 C 1501.5 1096 1519.167969 1084.832031 1535.5 1072.5 C 1551.832031 1060.167969 1573.332031 1049 1600 1039 C 1626.667969 1029 1654.332031 1024 1683 1024 C 1737.667969 1024 1780.167969 1043.667969 1810.5 1083 C 1840.832031 1122.332031 1856 1170 1856 1226 Z M 1856 1226 "/>
</g>
</svg>
