<?xml version="1.0" encoding="UTF-8"?>
<svg xmlns="http://www.w3.org/2000/svg" xmlns:xlink="http://www.w3.org/1999/xlink" width="2048" height="2048" viewBox="0 0 2048 2048" version="1.1">
<g>
<path d="M 704 1280 L 704 1408 L 576 1408 L 576 1280 Z M 704 512 L 704 640 L 576 640 L 576 512 Z M 1472 512 L 1472 640 L 1344 640 L 1344 512 Z M 448 1535 L 832 1535 L 832 1152 L 448 1152 Z M 448 768 L 832 768 L 832 384 L 448 384 Z M 1216 768 L 1600 768 L 1600 384 L 1216 384 Z M 960 1024 L 960 1664 L 320 1664 L 320 1024 Z M 1472 1536 L 1472 1664 L 1344 1664 L 1344 1536 Z M 1728 1536 L 1728 1664 L 1600 1664 L 1600 1536 Z M 1728 1024 L 1728 1408 L 1344 1408 L 1344 1280 L 1216 1280 L 1216 1664 L 1088 1664 L 1088 1024 L 1472 1024 L 1472 1152 L 1600 1152 L 1600 1024 Z M 960 256 L 960 896 L 320 896 L 320 256 Z M 1728 256 L 1728 896 L 1088 896 L 1088 256 Z M 1728 256 "/>
</g>
</svg>
