<?xml version="1.0" encoding="UTF-8"?>
<svg xmlns="http://www.w3.org/2000/svg" xmlns:xlink="http://www.w3.org/1999/xlink" width="2048" height="2048" viewBox="0 0 2048 2048" version="1.1">
<g>
<path d="M 1216 1384 L 1216 1624 C 1216 1634.667969 1212 1644 1204 1652 C 1196 1660 1186.667969 1664 1176 1664 L 936 1664 C 925.332031 1664 916 1660 908 1652 C 900 1644 896 1634.667969 896 1624 L 896 1384 C 896 1373.332031 900 1364 908 1356 C 916 1348 925.332031 1344 936 1344 L 1176 1344 C 1186.667969 1344 1196 1348 1204 1356 C 1212 1364 1216 1373.332031 1216 1384 Z M 1532 784 C 1532 820 1526.832031 853.667969 1516.5 885 C 1506.167969 916.332031 1494.5 941.832031 1481.5 961.5 C 1468.5 981.167969 1450.167969 1001 1426.5 1021 C 1402.832031 1041 1383.667969 1055.5 1369 1064.5 C 1354.332031 1073.5 1334 1085.332031 1308 1100 C 1280.667969 1115.332031 1257.832031 1137 1239.5 1165 C 1221.167969 1193 1212 1215.332031 1212 1232 C 1212 1243.332031 1208 1254.167969 1200 1264.5 C 1192 1274.832031 1182.667969 1280 1172 1280 L 932 1280 C 922 1280 913.5 1273.832031 906.5 1261.5 C 899.5 1249.167969 896 1236.667969 896 1224 L 896 1179 C 896 1123.667969 917.667969 1071.5 961 1022.5 C 1004.332031 973.5 1052 937.332031 1104 914 C 1143.332031 896 1171.332031 877.332031 1188 858 C 1204.667969 838.667969 1213 813.332031 1213 782 C 1213 754 1197.5 729.332031 1166.5 708 C 1135.5 686.667969 1099.667969 676 1059 676 C 1015.667969 676 979.667969 685.667969 951 705 C 927.667969 721.667969 892 760 844 820 C 835.332031 830.667969 825 836 813 836 C 805 836 796.667969 833.332031 788 828 L 624 703 C 615.332031 696.332031 610.167969 688 608.5 678 C 606.832031 668 608.667969 658.667969 614 650 C 720.667969 472.667969 875.332031 384 1078 384 C 1131.332031 384 1185 394.332031 1239 415 C 1293 435.667969 1341.667969 463.332031 1385 498 C 1428.332031 532.667969 1463.667969 575.167969 1491 625.5 C 1518.332031 675.832031 1532 728.667969 1532 784 Z M 1532 784 "/>
</g>
</svg>
