<?xml version="1.0" encoding="utf-8"?>
<svg width="1792" height="1792" viewBox="0 0 1792 1792" xmlns="http://www.w3.org/2000/svg"><path d="M1255 787q0-318-105-474.5t-330-156.5q-222 0-326 157t-104 474q0 316 104 471.5t326 155.5q74 0 131-17-22-43-39-73t-44-65-53.5-56.5-63-36-77.5-14.5q-46 0-79 16l-49-97q105-91 276-91 132 0 215.5 54t150.5 155q67-149 67-402zm390 632h117q3 27-2 67t-26.5 95-58 100.5-107 78-162.5 32.5q-71 0-130.5-19t-105.5-56-79-78-66-96q-97 27-205 27-150 0-292.5-58t-253-158.5-178-249-67.5-317.5q0-170 67.5-319.5t178.5-250.5 253.5-159 291.5-58q121 0 238.5 36t217 106 176 164.5 119.5 219 43 261.5q0 190-80.5 347.5t-218.5 264.5q47 70 93.5 106.5t104.5 36.5q61 0 94-37.5t38-85.5z"/></svg>