<?xml version="1.0" encoding="UTF-8"?>
<svg xmlns="http://www.w3.org/2000/svg" xmlns:xlink="http://www.w3.org/1999/xlink" width="2048" height="2048" viewBox="0 0 2048 2048" version="1.1">
<g>
<path d="M 960 1088 L 960 1472 C 960 1525.332031 941.332031 1570.667969 904 1608 C 866.667969 1645.332031 821.332031 1664 768 1664 L 384 1664 C 330.667969 1664 285.332031 1645.332031 248 1608 C 210.667969 1570.667969 192 1525.332031 192 1472 L 192 768 C 192 698.667969 205.5 632.5 232.5 569.5 C 259.5 506.5 296 452 342 406 C 388 360 442.5 323.5 505.5 296.5 C 568.5 269.5 634.667969 256 704 256 L 768 256 C 785.332031 256 800.332031 262.332031 813 275 C 825.667969 287.667969 832 302.667969 832 320 L 832 448 C 832 465.332031 825.667969 480.332031 813 493 C 800.332031 505.667969 785.332031 512 768 512 L 704 512 C 633.332031 512 573 537 523 587 C 473 637 448 697.332031 448 768 L 448 800 C 448 826.667969 457.332031 849.332031 476 868 C 494.667969 886.667969 517.332031 896 544 896 L 768 896 C 821.332031 896 866.667969 914.667969 904 952 C 941.332031 989.332031 960 1034.667969 960 1088 Z M 1856 1088 L 1856 1472 C 1856 1525.332031 1837.332031 1570.667969 1800 1608 C 1762.667969 1645.332031 1717.332031 1664 1664 1664 L 1280 1664 C 1226.667969 1664 1181.332031 1645.332031 1144 1608 C 1106.667969 1570.667969 1088 1525.332031 1088 1472 L 1088 768 C 1088 698.667969 1101.5 632.5 1128.5 569.5 C 1155.5 506.5 1192 452 1238 406 C 1284 360 1338.5 323.5 1401.5 296.5 C 1464.5 269.5 1530.667969 256 1600 256 L 1664 256 C 1681.332031 256 1696.332031 262.332031 1709 275 C 1721.667969 287.667969 1728 302.667969 1728 320 L 1728 448 C 1728 465.332031 1721.667969 480.332031 1709 493 C 1696.332031 505.667969 1681.332031 512 1664 512 L 1600 512 C 1529.332031 512 1469 537 1419 587 C 1369 637 1344 697.332031 1344 768 L 1344 800 C 1344 826.667969 1353.332031 849.332031 1372 868 C 1390.667969 886.667969 1413.332031 896 1440 896 L 1664 896 C 1717.332031 896 1762.667969 914.667969 1800 952 C 1837.332031 989.332031 1856 1034.667969 1856 1088 Z M 1856 1088 "/>
</g>
</svg>
