<?xml version="1.0" encoding="UTF-8"?>
<svg xmlns="http://www.w3.org/2000/svg" xmlns:xlink="http://www.w3.org/1999/xlink" width="2048" height="2048" viewBox="0 0 2048 2048" version="1.1">
<g>
<path d="M 794 609 C 754 670.332031 708.332031 761.332031 657 882 C 642.332031 852 630 827.832031 620 809.5 C 610 791.167969 596.5 770 579.5 746 C 562.5 722 545.5 703.167969 528.5 689.5 C 511.5 675.832031 490.5 664.167969 465.5 654.5 C 440.5 644.832031 413.332031 640 384 640 L 160 640 C 150.667969 640 143 637 137 631 C 131 625 128 617.332031 128 608 L 128 416 C 128 406.667969 131 399 137 393 C 143 387 150.667969 384 160 384 L 384 384 C 550.667969 384 687.332031 459 794 609 Z M 1920 1408 C 1920 1417.332031 1917 1425 1911 1431 L 1591 1751 C 1585 1757 1577.332031 1760 1568 1760 C 1559.332031 1760 1551.832031 1756.832031 1545.5 1750.5 C 1539.167969 1744.167969 1536 1736.667969 1536 1728 L 1536 1536 C 1514.667969 1536 1486.332031 1536.167969 1451 1536.5 C 1415.667969 1536.832031 1388.667969 1537.167969 1370 1537.5 C 1351.332031 1537.832031 1327 1537.5 1297 1536.5 C 1267 1535.5 1243.332031 1533.832031 1226 1531.5 C 1208.667969 1529.167969 1187.332031 1525.667969 1162 1521 C 1136.667969 1516.332031 1115.667969 1510.167969 1099 1502.5 C 1082.332031 1494.832031 1063 1485.332031 1041 1474 C 1019 1462.667969 999.332031 1449.332031 982 1434 C 964.667969 1418.667969 946.332031 1400.832031 927 1380.5 C 907.667969 1360.167969 889 1337 871 1311 C 910.332031 1249 955.667969 1158 1007 1038 C 1021.667969 1068 1034 1092.167969 1044 1110.5 C 1054 1128.832031 1067.5 1150 1084.5 1174 C 1101.5 1198 1118.5 1216.832031 1135.5 1230.5 C 1152.5 1244.167969 1173.5 1255.832031 1198.5 1265.5 C 1223.5 1275.167969 1250.667969 1280 1280 1280 L 1536 1280 L 1536 1088 C 1536 1078.667969 1539 1071 1545 1065 C 1551 1059 1558.667969 1056 1568 1056 C 1576 1056 1584 1059.332031 1592 1066 L 1911 1385 C 1917 1391 1920 1398.667969 1920 1408 Z M 1920 512 C 1920 521.332031 1917 529 1911 535 L 1591 855 C 1585 861 1577.332031 864 1568 864 C 1559.332031 864 1551.832031 860.832031 1545.5 854.5 C 1539.167969 848.167969 1536 840.667969 1536 832 L 1536 640 L 1280 640 C 1248 640 1219 645 1193 655 C 1167 665 1144 680 1124 700 C 1104 720 1087 740.5 1073 761.5 C 1059 782.5 1044 808.332031 1028 839 C 1006.667969 880.332031 980.667969 937.332031 950 1010 C 930.667969 1054 914.167969 1091 900.5 1121 C 886.832031 1151 868.832031 1186 846.5 1226 C 824.167969 1266 802.832031 1299.332031 782.5 1326 C 762.167969 1352.667969 737.5 1380.332031 708.5 1409 C 679.5 1437.667969 649.5 1460.5 618.5 1477.5 C 587.5 1494.5 552 1508.5 512 1519.5 C 472 1530.5 429.332031 1536 384 1536 L 160 1536 C 150.667969 1536 143 1533 137 1527 C 131 1521 128 1513.332031 128 1504 L 128 1312 C 128 1302.667969 131 1295 137 1289 C 143 1283 150.667969 1280 160 1280 L 384 1280 C 416 1280 445 1275 471 1265 C 497 1255 520 1240 540 1220 C 560 1200 577 1179.5 591 1158.5 C 605 1137.5 620 1111.667969 636 1081 C 657.332031 1039.667969 683.332031 982.667969 714 910 C 733.332031 866 749.832031 829 763.5 799 C 777.167969 769 795.167969 734 817.5 694 C 839.832031 654 861.167969 620.667969 881.5 594 C 901.832031 567.332031 926.5 539.667969 955.5 511 C 984.5 482.332031 1014.5 459.5 1045.5 442.5 C 1076.5 425.5 1112 411.5 1152 400.5 C 1192 389.5 1234.667969 384 1280 384 L 1536 384 L 1536 192 C 1536 182.667969 1539 175 1545 169 C 1551 163 1558.667969 160 1568 160 C 1576 160 1584 163.332031 1592 170 L 1911 489 C 1917 495 1920 502.667969 1920 512 Z M 1920 512 "/>
</g>
</svg>
