<svg width="2048" height="2048" viewBox="0 0 2048 2048" xmlns="http://www.w3.org/2000/svg"><path d="M1206 1271q7-7 17.5-7t17.5 7 7 18-7 18q-65 64-208 64h-2q-143 0-207-64-8-7-8-18t8-18q7-7 17.5-7t17.5 7q49 51 172 51h2q122 0 173-51zm-279-220q0 37-26 64t-63 27-63-27-26-64 26-63 63-26 63 26 26 63zm543-436q-29 0-50-21t-21-50q0-30 21-51t50-21q30 0 51 21t21 51q0 29-21 50t-51 21zm2-359q132 0 226 94t94 227v894q0 133-94 227t-226 94h-896q-132 0-226-94t-94-227v-894q0-133 94-227t226-94h896zm105 812q35-14 57-45.5t22-70.5q0-51-36-87.5t-87-36.5q-60 0-98 48-151-107-375-115l83-265 206 49q1 50 36.5 85t84.5 35q50 0 86-35.5t36-85.5-36-86-86-36q-36 0-66 20.5t-45 53.5l-227-54q-9-2-17.5 2.5t-11.5 14.5l-95 302q-224 4-381 113-36-43-93-43-51 0-87 36.5t-36 87.5q0 37 19.5 67.5t52.5 45.5q-7 25-7 54 0 98 74 181.5t201.5 132 278.5 48.5q150 0 277.5-48.5t201.5-132 74-181.5q0-27-6-54zm-350-106q37 0 63 26t26 63-26 64-63 27-63-27-26-64 26-63 63-26z"/></svg>