<svg width="2048" height="2048" viewBox="-256 -384 2048 2048" xmlns="http://www.w3.org/2000/svg"><g transform="scale(1 -1) translate(0 -1280)"><path d="M1536 1280v-448q0 -26 -19 -45t-45 -19h-448q-42 0 -59 40q-17 39 14 69l138 138q-148 137 -349 137q-104 0 -198.5 -40.5t-163.5 -109.5t-109.5 -163.5t-40.5 -198.5t40.5 -198.5t109.5 -163.5t163.5 -109.5t198.5 -40.5q119 0 225 52t179 147q7 10 23 12q14 0 25 -9 l137 -138q9 -8 9.5 -20.5t-7.5 -22.5q-109 -132 -264 -204.5t-327 -72.5q-156 0 -298 61t-245 164t-164 245t-61 298t61 298t164 245t245 164t298 61q147 0 284.5 -55.5t244.5 -156.5l130 129q29 31 70 14q39 -17 39 -59z" fill="black" /></g></svg>