<svg width="2048" height="2048" viewBox="-128 -384 2048 2048" xmlns="http://www.w3.org/2000/svg"><g transform="scale(1 -1) translate(0 -1280)"><path d="M1792 416q0 -166 -127 -451q-3 -7 -10.5 -24t-13.5 -30t-13 -22q-12 -17 -28 -17q-15 0 -23.5 10t-8.5 25q0 9 2.5 26.5t2.5 23.5q5 68 5 123q0 101 -17.5 181t-48.5 138.5t-80 101t-105.5 69.5t-133 42.5t-154 21.5t-175.5 6h-224v-256q0 -26 -19 -45t-45 -19t-45 19 l-512 512q-19 19 -19 45t19 45l512 512q19 19 45 19t45 -19t19 -45v-256h224q713 0 875 -403q53 -134 53 -333z" fill="black" /></g></svg>