<?xml version="1.0" encoding="UTF-8"?>
<svg xmlns="http://www.w3.org/2000/svg" xmlns:xlink="http://www.w3.org/1999/xlink" width="2048" height="2048" viewBox="0 0 2048 2048" version="1.1">
<g>
<path d="M 1344 1632 C 1344 1640.667969 1340.832031 1648.167969 1334.5 1654.5 C 1328.167969 1660.832031 1320.667969 1664 1312 1664 L 352 1664 C 346.667969 1664 342.167969 1663.332031 338.5 1662 C 334.832031 1660.667969 331.832031 1658.332031 329.5 1655 C 327.167969 1651.667969 325.332031 1649 324 1647 C 322.667969 1645 321.667969 1641.167969 321 1635.5 C 320.332031 1629.832031 320 1626 320 1624 L 320 1024 L 128 1024 C 110.667969 1024 95.667969 1017.667969 83 1005 C 70.332031 992.332031 64 977.332031 64 960 C 64 944 69 930.332031 79 919 L 399 535 C 411.667969 520.332031 428 513 448 513 C 468 513 484.332031 520.332031 497 535 L 817 919 C 827 930.332031 832 944 832 960 C 832 977.332031 825.667969 992.332031 813 1005 C 800.332031 1017.667969 785.332031 1024 768 1024 L 576 1024 L 576 1408 L 1152 1408 C 1162.667969 1408 1171 1411.667969 1177 1419 L 1337 1611 C 1341.667969 1618.332031 1344 1625.332031 1344 1632 Z M 1984 1216 C 1984 1232 1979 1245.667969 1969 1257 L 1649 1641 C 1635.667969 1656.332031 1619.332031 1664 1600 1664 C 1580.667969 1664 1564.332031 1656.332031 1551 1641 L 1231 1257 C 1221 1245.667969 1216 1232 1216 1216 C 1216 1198.667969 1222.332031 1183.667969 1235 1171 C 1247.667969 1158.332031 1262.667969 1152 1280 1152 L 1472 1152 L 1472 768 L 896 768 C 885.332031 768 877 764 871 756 L 711 564 C 706.332031 558 704 551.332031 704 544 C 704 535.332031 707.167969 527.832031 713.5 521.5 C 719.832031 515.167969 727.332031 512 736 512 L 1696 512 C 1701.332031 512 1705.832031 512.667969 1709.5 514 C 1713.167969 515.332031 1716.167969 517.667969 1718.5 521 C 1720.832031 524.332031 1722.667969 527 1724 529 C 1725.332031 531 1726.332031 534.832031 1727 540.5 C 1727.667969 546.167969 1728 550 1728 552 L 1728 1152 L 1920 1152 C 1937.332031 1152 1952.332031 1158.332031 1965 1171 C 1977.667969 1183.667969 1984 1198.667969 1984 1216 Z M 1984 1216 "/>
</g>
</svg>
