<svg width="2048" height="2048" viewBox="-64 -384 2048 2048" xmlns="http://www.w3.org/2000/svg"><g transform="scale(1 -1) translate(0 -1280)"><path d="M1280 32q0 -13 -9.5 -22.5t-22.5 -9.5h-960q-8 0 -13.5 2t-9 7t-5.5 8t-3 11.5t-1 11.5v13v11v160v416h-192q-26 0 -45 19t-19 45q0 24 15 41l320 384q19 22 49 22t49 -22l320 -384q15 -17 15 -41q0 -26 -19 -45t-45 -19h-192v-384h576q16 0 25 -11l160 -192q7 -11 7 -21 zM1920 448q0 -24 -15 -41l-320 -384q-20 -23 -49 -23t-49 23l-320 384q-15 17 -15 41q0 26 19 45t45 19h192v384h-576q-16 0 -25 12l-160 192q-7 9 -7 20q0 13 9.5 22.5t22.5 9.5h960q8 0 13.5 -2t9 -7t5.5 -8t3 -11.5t1 -11.5v-13v-11v-160v-416h192q26 0 45 -19t19 -45z " fill="black" /></g></svg>