<?xml version="1.0" encoding="UTF-8"?>
<svg xmlns="http://www.w3.org/2000/svg" xmlns:xlink="http://www.w3.org/1999/xlink" width="2048" height="2048" viewBox="0 0 2048 2048" version="1.1">
<g>
<path d="M 1632 576 C 1632 549.332031 1622.667969 526.667969 1604 508 C 1585.332031 489.332031 1562.667969 480 1536 480 C 1509.332031 480 1486.667969 489.332031 1468 508 C 1449.332031 526.667969 1440 549.332031 1440 576 C 1440 602.667969 1449.332031 625.332031 1468 644 C 1486.667969 662.667969 1509.332031 672 1536 672 C 1562.667969 672 1585.332031 662.667969 1604 644 C 1622.667969 625.332031 1632 602.667969 1632 576 Z M 1856 288 C 1856 454 1830.832031 597.5 1780.5 718.5 C 1730.167969 839.5 1645.667969 959.667969 1527 1079 C 1473 1132.332031 1408 1191 1332 1255 L 1312 1634 C 1310.667969 1644.667969 1305.332031 1653.332031 1296 1660 L 912 1884 C 907.332031 1886.667969 902 1888 896 1888 C 888 1888 880.332031 1885 873 1879 L 809 1815 C 800.332031 1805.667969 797.667969 1795 801 1783 L 886 1507 L 605 1226 L 329 1311 C 327 1311.667969 324 1312 320 1312 C 310.667969 1312 303 1309 297 1303 L 233 1239 C 221.667969 1226.332031 220 1213.332031 228 1200 L 452 816 C 458.667969 806.667969 467.332031 801.332031 478 800 L 857 780 C 921 704 979.667969 639 1033 585 C 1158.332031 460.332031 1277.667969 374.332031 1391 327 C 1504.332031 279.667969 1648 256 1822 256 C 1831.332031 256 1839.332031 259.167969 1846 265.5 C 1852.667969 271.832031 1856 279.332031 1856 288 Z M 1856 288 "/>
</g>
</svg>
