<?xml version="1.0" encoding="UTF-8"?>
<svg xmlns="http://www.w3.org/2000/svg" xmlns:xlink="http://www.w3.org/1999/xlink" width="2048" height="2048" viewBox="0 0 2048 2048" version="1.1">
<g>
<path d="M 768 1408 C 768 1372.667969 755.5 1342.5 730.5 1317.5 C 705.5 1292.5 675.332031 1280 640 1280 C 604.667969 1280 574.5 1292.5 549.5 1317.5 C 524.5 1342.5 512 1372.667969 512 1408 C 512 1443.332031 524.5 1473.5 549.5 1498.5 C 574.5 1523.5 604.667969 1536 640 1536 C 675.332031 1536 705.5 1523.5 730.5 1498.5 C 755.5 1473.5 768 1443.332031 768 1408 Z M 1119 1502 C 1110.332031 1347.332031 1051.332031 1215.332031 942 1106 C 832.667969 996.667969 700.667969 937.667969 546 929 C 536.667969 928.332031 528.667969 931.332031 522 938 C 515.332031 944.667969 512 952.332031 512 961 L 512 1089 C 512 1097.667969 514.832031 1105 520.5 1111 C 526.167969 1117 533.332031 1120.332031 542 1121 C 644.667969 1128.332031 732.667969 1168.667969 806 1242 C 879.332031 1315.332031 919.667969 1403.332031 927 1506 C 927.667969 1514.667969 931 1521.832031 937 1527.5 C 943 1533.167969 950.332031 1536 959 1536 L 1087 1536 C 1095.667969 1536 1103.332031 1532.667969 1110 1526 C 1116.667969 1519.332031 1119.667969 1511.332031 1119 1502 Z M 1503 1503 C 1499.667969 1400.332031 1481 1301.167969 1447 1205.5 C 1413 1109.832031 1366.5 1023.167969 1307.5 945.5 C 1248.5 867.832031 1180.167969 799.5 1102.5 740.5 C 1024.832031 681.5 938.167969 635 842.5 601 C 746.832031 567 647.667969 548.332031 545 545 C 535.667969 544.332031 528 547.332031 522 554 C 515.332031 560.667969 512 568.332031 512 577 L 512 705 C 512 713.667969 515 721 521 727 C 527 733 534.332031 736.332031 543 737 C 679 741.667969 805 778.832031 921 848.5 C 1037 918.167969 1129.832031 1011 1199.5 1127 C 1269.167969 1243 1306.332031 1369 1311 1505 C 1311.667969 1513.667969 1315 1521 1321 1527 C 1327 1533 1334.332031 1536 1343 1536 L 1471 1536 C 1479.667969 1536 1487.332031 1532.667969 1494 1526 C 1501.332031 1520 1504.332031 1512.332031 1503 1503 Z M 1792 544 L 1792 1504 C 1792 1583.332031 1763.832031 1651.167969 1707.5 1707.5 C 1651.167969 1763.832031 1583.332031 1792 1504 1792 L 544 1792 C 464.667969 1792 396.832031 1763.832031 340.5 1707.5 C 284.167969 1651.167969 256 1583.332031 256 1504 L 256 544 C 256 464.667969 284.167969 396.832031 340.5 340.5 C 396.832031 284.167969 464.667969 256 544 256 L 1504 256 C 1583.332031 256 1651.167969 284.167969 1707.5 340.5 C 1763.832031 396.832031 1792 464.667969 1792 544 Z M 1792 544 "/>
</g>
</svg>
