<?xml version="1.0" encoding="UTF-8"?>
<svg xmlns="http://www.w3.org/2000/svg" xmlns:xlink="http://www.w3.org/1999/xlink" width="2048" height="2048" viewBox="0 0 2048 2048" version="1.1">
<g>
<path d="M 1427 693 C 1427 626.332031 1405.332031 572.332031 1362 531 C 1318.667969 489.667969 1261.667969 469 1191 469 L 871 469 L 871 917 L 1191 917 C 1261.667969 917 1318.667969 896.332031 1362 855 C 1405.332031 813.667969 1427 759.667969 1427 693 Z M 1664 693 C 1664 821.667969 1621.832031 926.667969 1537.5 1008 C 1453.167969 1089.332031 1344.332031 1130 1211 1130 L 871 1130 L 871 1248 L 1376 1248 C 1385.332031 1248 1393 1251 1399 1257 C 1405 1263 1408 1270.667969 1408 1280 L 1408 1408 C 1408 1417.332031 1405 1425 1399 1431 C 1393 1437 1385.332031 1440 1376 1440 L 871 1440 L 871 1632 C 871 1641.332031 867.832031 1649 861.5 1655 C 855.167969 1661 847.667969 1664 839 1664 L 672 1664 C 662.667969 1664 655 1661 649 1655 C 643 1649 640 1641.332031 640 1632 L 640 1440 L 416 1440 C 406.667969 1440 399 1437 393 1431 C 387 1425 384 1417.332031 384 1408 L 384 1280 C 384 1270.667969 387 1263 393 1257 C 399 1251 406.667969 1248 416 1248 L 640 1248 L 640 1130 L 416 1130 C 406.667969 1130 399 1127 393 1121 C 387 1115 384 1107.332031 384 1098 L 384 949 C 384 940.332031 387 932.832031 393 926.5 C 399 920.167969 406.667969 917 416 917 L 640 917 L 640 288 C 640 278.667969 643 271 649 265 C 655 259 662.667969 256 672 256 L 1211 256 C 1344.332031 256 1453.167969 296.667969 1537.5 378 C 1621.832031 459.332031 1664 564.332031 1664 693 Z M 1664 693 "/>
</g>
</svg>
