<svg width="2048" height="2048" viewBox="-384 -384 2048 2048" xmlns="http://www.w3.org/2000/svg"><g transform="scale(1 -1) translate(0 -1280)"><path d="M1043 971q0 100 -65 162t-171 62h-320v-448h320q106 0 171 62t65 162zM1280 971q0 -193 -126.5 -315t-326.5 -122h-340v-118h505q14 0 23 -9t9 -23v-128q0 -14 -9 -23t-23 -9h-505v-192q0 -14 -9.5 -23t-22.5 -9h-167q-14 0 -23 9t-9 23v192h-224q-14 0 -23 9t-9 23v128 q0 14 9 23t23 9h224v118h-224q-14 0 -23 9t-9 23v149q0 13 9 22.5t23 9.5h224v629q0 14 9 23t23 9h539q200 0 326.5 -122t126.5 -315z" fill="black" /></g></svg>