<?xml version="1.0" encoding="UTF-8"?>
<svg xmlns="http://www.w3.org/2000/svg" xmlns:xlink="http://www.w3.org/1999/xlink" width="2048" height="2048" viewBox="0 0 2048 2048" version="1.1">
<g>
<path d="M 1216 928 L 1216 992 C 1216 1000.667969 1212.832031 1008.167969 1206.5 1014.5 C 1200.167969 1020.832031 1192.667969 1024 1184 1024 L 960 1024 L 960 1248 C 960 1256.667969 956.832031 1264.167969 950.5 1270.5 C 944.167969 1276.832031 936.667969 1280 928 1280 L 864 1280 C 855.332031 1280 847.832031 1276.832031 841.5 1270.5 C 835.167969 1264.167969 832 1256.667969 832 1248 L 832 1024 L 608 1024 C 599.332031 1024 591.832031 1020.832031 585.5 1014.5 C 579.167969 1008.167969 576 1000.667969 576 992 L 576 928 C 576 919.332031 579.167969 911.832031 585.5 905.5 C 591.832031 899.167969 599.332031 896 608 896 L 832 896 L 832 672 C 832 663.332031 835.167969 655.832031 841.5 649.5 C 847.832031 643.167969 855.332031 640 864 640 L 928 640 C 936.667969 640 944.167969 643.167969 950.5 649.5 C 956.832031 655.832031 960 663.332031 960 672 L 960 896 L 1184 896 C 1192.667969 896 1200.167969 899.167969 1206.5 905.5 C 1212.832031 911.832031 1216 919.332031 1216 928 Z M 1344 960 C 1344 836.667969 1300.167969 731.167969 1212.5 643.5 C 1124.832031 555.832031 1019.332031 512 896 512 C 772.667969 512 667.167969 555.832031 579.5 643.5 C 491.832031 731.167969 448 836.667969 448 960 C 448 1083.332031 491.832031 1188.832031 579.5 1276.5 C 667.167969 1364.167969 772.667969 1408 896 1408 C 1019.332031 1408 1124.832031 1364.167969 1212.5 1276.5 C 1300.167969 1188.832031 1344 1083.332031 1344 960 Z M 1856 1792 C 1856 1827.332031 1843.5 1857.5 1818.5 1882.5 C 1793.5 1907.5 1763.332031 1920 1728 1920 C 1692 1920 1662 1907.332031 1638 1882 L 1295 1540 C 1175.667969 1622.667969 1042.667969 1664 896 1664 C 800.667969 1664 709.5 1645.5 622.5 1608.5 C 535.5 1571.5 460.5 1521.5 397.5 1458.5 C 334.5 1395.5 284.5 1320.5 247.5 1233.5 C 210.5 1146.5 192 1055.332031 192 960 C 192 864.667969 210.5 773.5 247.5 686.5 C 284.5 599.5 334.5 524.5 397.5 461.5 C 460.5 398.5 535.5 348.5 622.5 311.5 C 709.5 274.5 800.667969 256 896 256 C 991.332031 256 1082.5 274.5 1169.5 311.5 C 1256.5 348.5 1331.5 398.5 1394.5 461.5 C 1457.5 524.5 1507.5 599.5 1544.5 686.5 C 1581.5 773.5 1600 864.667969 1600 960 C 1600 1106.667969 1558.667969 1239.667969 1476 1359 L 1819 1702 C 1843.667969 1726.667969 1856 1756.667969 1856 1792 Z M 1856 1792 "/>
</g>
</svg>
