<svg width="2048" height="2048" viewBox="-192 -384 2048 2048" xmlns="http://www.w3.org/2000/svg"><g transform="scale(1 -1) translate(0 -1280)"><path d="M1152 704q0 185 -131.5 316.5t-316.5 131.5t-316.5 -131.5t-131.5 -316.5t131.5 -316.5t316.5 -131.5t316.5 131.5t131.5 316.5zM1664 -128q0 -52 -38 -90t-90 -38q-54 0 -90 38l-343 342q-179 -124 -399 -124q-143 0 -273.5 55.5t-225 150t-150 225t-55.5 273.5 t55.5 273.5t150 225t225 150t273.5 55.5t273.5 -55.5t225 -150t150 -225t55.5 -273.5q0 -220 -124 -399l343 -343q37 -37 37 -90z" fill="black" /></g></svg>