<svg width="2048" height="2048" viewBox="-128 -384 2048 2048" xmlns="http://www.w3.org/2000/svg"><g transform="scale(1 -1) translate(0 -1280)"><path d="M1792 896q0 -26 -19 -45l-512 -512q-19 -19 -45 -19t-45 19t-19 45v256h-224q-98 0 -175.5 -6t-154 -21.5t-133 -42.5t-105.5 -69.5t-80 -101t-48.5 -138.5t-17.5 -181q0 -55 5 -123q0 -6 2.5 -23.5t2.5 -26.5q0 -15 -8.5 -25t-23.5 -10q-16 0 -28 17q-7 9 -13 22 t-13.5 30t-10.5 24q-127 285 -127 451q0 199 53 333q162 403 875 403h224v256q0 26 19 45t45 19t45 -19l512 -512q19 -19 19 -45z" fill="black" /></g></svg>