<?xml version="1.0" encoding="UTF-8"?>
<svg xmlns="http://www.w3.org/2000/svg" xmlns:xlink="http://www.w3.org/1999/xlink" width="2048" height="2048" viewBox="0 0 2048 2048" version="1.1">
<g>
<path d="M 1472 1088 L 1472 448 L 1024 448 L 1024 1585 C 1103.332031 1543 1174.332031 1497.332031 1237 1448 C 1393.667969 1325.332031 1472 1205.332031 1472 1088 Z M 1664 320 L 1664 1088 C 1664 1145.332031 1652.832031 1202.167969 1630.5 1258.5 C 1608.167969 1314.832031 1580.5 1364.832031 1547.5 1408.5 C 1514.5 1452.167969 1475.167969 1494.667969 1429.5 1536 C 1383.832031 1577.332031 1341.667969 1611.667969 1303 1639 C 1264.332031 1666.332031 1224 1692.167969 1182 1716.5 C 1140 1740.832031 1110.167969 1757.332031 1092.5 1766 C 1074.832031 1774.667969 1060.667969 1781.332031 1050 1786 C 1042 1790 1033.332031 1792 1024 1792 C 1014.667969 1792 1006 1790 998 1786 C 987.332031 1781.332031 973.167969 1774.667969 955.5 1766 C 937.832031 1757.332031 908 1740.832031 866 1716.5 C 824 1692.167969 783.667969 1666.332031 745 1639 C 706.332031 1611.667969 664.167969 1577.332031 618.5 1536 C 572.832031 1494.667969 533.5 1452.167969 500.5 1408.5 C 467.5 1364.832031 439.832031 1314.832031 417.5 1258.5 C 395.167969 1202.167969 384 1145.332031 384 1088 L 384 320 C 384 302.667969 390.332031 287.667969 403 275 C 415.667969 262.332031 430.667969 256 448 256 L 1600 256 C 1617.332031 256 1632.332031 262.332031 1645 275 C 1657.667969 287.667969 1664 302.667969 1664 320 Z M 1664 320 "/>
</g>
</svg>
