<?xml version="1.0" encoding="UTF-8"?>
<svg xmlns="http://www.w3.org/2000/svg" xmlns:xlink="http://www.w3.org/1999/xlink" width="2048" height="2048" viewBox="0 0 2048 2048" version="1.1">
<g>
<path d="M 832 1664 C 832 1699.332031 819.5 1729.5 794.5 1754.5 C 769.5 1779.5 739.332031 1792 704 1792 C 668.667969 1792 638.5 1779.5 613.5 1754.5 C 588.5 1729.5 576 1699.332031 576 1664 C 576 1628.667969 588.5 1598.5 613.5 1573.5 C 638.5 1548.5 668.667969 1536 704 1536 C 739.332031 1536 769.5 1548.5 794.5 1573.5 C 819.5 1598.5 832 1628.667969 832 1664 Z M 1728 1664 C 1728 1699.332031 1715.5 1729.5 1690.5 1754.5 C 1665.5 1779.5 1635.332031 1792 1600 1792 C 1564.667969 1792 1534.5 1779.5 1509.5 1754.5 C 1484.5 1729.5 1472 1699.332031 1472 1664 C 1472 1628.667969 1484.5 1598.5 1509.5 1573.5 C 1534.5 1548.5 1564.667969 1536 1600 1536 C 1635.332031 1536 1665.5 1548.5 1690.5 1573.5 C 1715.5 1598.5 1728 1628.667969 1728 1664 Z M 1856 576 L 1856 1088 C 1856 1104 1850.667969 1118.167969 1840 1130.5 C 1829.332031 1142.832031 1815.667969 1150 1799 1152 L 755 1274 C 755.667969 1278.667969 757.167969 1285.832031 759.5 1295.5 C 761.832031 1305.167969 763.832031 1314 765.5 1322 C 767.167969 1330 768 1337.332031 768 1344 C 768 1354.667969 760 1376 744 1408 L 1664 1408 C 1681.332031 1408 1696.332031 1414.332031 1709 1427 C 1721.667969 1439.667969 1728 1454.667969 1728 1472 C 1728 1489.332031 1721.667969 1504.332031 1709 1517 C 1696.332031 1529.667969 1681.332031 1536 1664 1536 L 640 1536 C 622.667969 1536 607.667969 1529.667969 595 1517 C 582.332031 1504.332031 576 1489.332031 576 1472 C 576 1462.667969 579.667969 1449.5 587 1432.5 C 594.332031 1415.5 604.167969 1395.667969 616.5 1373 C 628.832031 1350.332031 635.667969 1337.667969 637 1335 L 460 512 L 256 512 C 238.667969 512 223.667969 505.667969 211 493 C 198.332031 480.332031 192 465.332031 192 448 C 192 430.667969 198.332031 415.667969 211 403 C 223.667969 390.332031 238.667969 384 256 384 L 512 384 C 522.667969 384 532.167969 386.167969 540.5 390.5 C 548.832031 394.832031 555.5 400 560.5 406 C 565.5 412 569.832031 420.167969 573.5 430.5 C 577.167969 440.832031 579.667969 449.667969 581 457 C 582.332031 464.332031 584.167969 474.167969 586.5 486.5 C 588.832031 498.832031 590.332031 507.332031 591 512 L 1792 512 C 1809.332031 512 1824.332031 518.332031 1837 531 C 1849.667969 543.667969 1856 558.667969 1856 576 Z M 1856 576 "/>
</g>
</svg>
