<?xml version="1.0" encoding="utf-8"?>
<svg width="2048" height="1792" viewBox="0 0 2048 1792" xmlns="http://www.w3.org/2000/svg"><path d="M1497 249q10 10 10 23t-10 23l-626 626q-10 10-23 10t-23-10l-82-82q-10-10-10-23t10-23l44-44q-72-91-81.5-207t46.5-215q-74-71-176-71-106 0-181 75t-75 181v1280h-256v-1280q0-104 40.5-198.5t109.5-163.5 163.5-109.5 198.5-40.5q106 0 201 41t166 115q94-39 197-24.5t185 79.5l44-44q10-10 23-10t23 10zm-89 263q26 0 45 19t19 45-19 45-45 19-45-19-19-45 19-45 45-19zm256 128q-26 0-45-19t-19-45 19-45 45-19 45 19 19 45-19 45-45 19zm256-128q26 0 45 19t19 45-19 45-45 19-45-19-19-45 19-45 45-19zm-640 128q26 0 45 19t19 45-19 45-45 19-45-19-19-45 19-45 45-19zm192 64q0-26 19-45t45-19 45 19 19 45-19 45-45 19-45-19-19-45zm320-64q26 0 45 19t19 45-19 45-45 19-45-19-19-45 19-45 45-19zm-640 128q26 0 45 19t19 45-19 45-45 19-45-19-19-45 19-45 45-19zm256 128q-26 0-45-19t-19-45 19-45 45-19 45 19 19 45-19 45-45 19zm256-128q26 0 45 19t19 45-19 45-45 19-45-19-19-45 19-45 45-19zm-384 256q-26 0-45-19t-19-45 19-45 45-19 45 19 19 45-19 45-45 19zm256-128q26 0 45 19t19 45-19 45-45 19-45-19-19-45 19-45 45-19zm-384 128q26 0 45 19t19 45-19 45-45 19-45-19-19-45 19-45 45-19zm256 0q26 0 45 19t19 45-19 45-45 19-45-19-19-45 19-45 45-19zm-128 128q26 0 45 19t19 45-19 45-45 19-45-19-19-45 19-45 45-19zm-128 128q26 0 45 19t19 45-19 45-45 19-45-19-19-45 19-45 45-19z"/></svg>