<svg width="2048" height="2048" viewBox="-256 -384 2048 2048" xmlns="http://www.w3.org/2000/svg"><g transform="scale(1 -1) translate(0 -1280)"><path d="M1184 640q0 -26 -19 -45l-544 -544q-19 -19 -45 -19t-45 19t-19 45v288h-448q-26 0 -45 19t-19 45v384q0 26 19 45t45 19h448v288q0 26 19 45t45 19t45 -19l544 -544q19 -19 19 -45zM1536 992v-704q0 -119 -84.5 -203.5t-203.5 -84.5h-320q-13 0 -22.5 9.5t-9.5 22.5 q0 4 -1 20t-0.5 26.5t3 23.5t10 19.5t20.5 6.5h320q66 0 113 47t47 113v704q0 66 -47 113t-113 47h-288h-11h-13t-11.5 1t-11.5 3t-8 5.5t-7 9t-2 13.5q0 4 -1 20t-0.5 26.5t3 23.5t10 19.5t20.5 6.5h320q119 0 203.5 -84.5t84.5 -203.5z" fill="black" /></g></svg>