<?xml version="1.0" encoding="UTF-8"?>
<svg xmlns="http://www.w3.org/2000/svg" xmlns:xlink="http://www.w3.org/1999/xlink" width="2048" height="2048" viewBox="0 0 2048 2048" version="1.1">
<g>
<path d="M 384 1568 L 384 1760 C 384 1769.332031 381 1777 375 1783 C 369 1789 361.332031 1792 352 1792 L 160 1792 C 150.667969 1792 143 1789 137 1783 C 131 1777 128 1769.332031 128 1760 L 128 1568 C 128 1558.667969 131 1551 137 1545 C 143 1539 150.667969 1536 160 1536 L 352 1536 C 361.332031 1536 369 1539 375 1545 C 381 1551 384 1558.667969 384 1568 Z M 768 1440 L 768 1760 C 768 1769.332031 765 1777 759 1783 C 753 1789 745.332031 1792 736 1792 L 544 1792 C 534.667969 1792 527 1789 521 1783 C 515 1777 512 1769.332031 512 1760 L 512 1440 C 512 1430.667969 515 1423 521 1417 C 527 1411 534.667969 1408 544 1408 L 736 1408 C 745.332031 1408 753 1411 759 1417 C 765 1423 768 1430.667969 768 1440 Z M 1152 1184 L 1152 1760 C 1152 1769.332031 1149 1777 1143 1783 C 1137 1789 1129.332031 1792 1120 1792 L 928 1792 C 918.667969 1792 911 1789 905 1783 C 899 1777 896 1769.332031 896 1760 L 896 1184 C 896 1174.667969 899 1167 905 1161 C 911 1155 918.667969 1152 928 1152 L 1120 1152 C 1129.332031 1152 1137 1155 1143 1161 C 1149 1167 1152 1174.667969 1152 1184 Z M 1536 800 L 1536 1760 C 1536 1769.332031 1533 1777 1527 1783 C 1521 1789 1513.332031 1792 1504 1792 L 1312 1792 C 1302.667969 1792 1295 1789 1289 1783 C 1283 1777 1280 1769.332031 1280 1760 L 1280 800 C 1280 790.667969 1283 783 1289 777 C 1295 771 1302.667969 768 1312 768 L 1504 768 C 1513.332031 768 1521 771 1527 777 C 1533 783 1536 790.667969 1536 800 Z M 1920 288 L 1920 1760 C 1920 1769.332031 1917 1777 1911 1783 C 1905 1789 1897.332031 1792 1888 1792 L 1696 1792 C 1686.667969 1792 1679 1789 1673 1783 C 1667 1777 1664 1769.332031 1664 1760 L 1664 288 C 1664 278.667969 1667 271 1673 265 C 1679 259 1686.667969 256 1696 256 L 1888 256 C 1897.332031 256 1905 259 1911 265 C 1917 271 1920 278.667969 1920 288 Z M 1920 288 "/>
</g>
</svg>
