<?xml version="1.0" encoding="utf-8"?>
<svg width="1792" height="1792" viewBox="0 0 1792 1792" xmlns="http://www.w3.org/2000/svg"><path d="M895 673q32 0 59 18l222 148q61 40 110 97l146 170q40 46 29 106l-72 413q-6 32-29.5 53.5t-55.5 25.5l-527 56-352 32h-9q-39 0-67.5-28t-28.5-68q0-37 27-64t65-32l260-32h-448q-41 0-69.5-30t-26.5-71q2-39 32-65t69-26l442-1-521-64q-41-5-66-37t-19-73q6-35 34.5-57.5t65.5-22.5h10l481 60-351-94q-38-10-62-41.5t-18-68.5q6-36 33-58.5t62-22.5q6 0 20 2l448 96 217 37q1 0 3 .5t3 .5q23 0 30.5-23t-12.5-36l-186-125q-35-23-42-63.5t18-73.5q27-38 76-38zm-70 202l186 125-218-37-5-2-36-38-238-262q-1-1-2.5-3.5t-2.5-3.5q-24-31-18.5-70t37.5-64q31-23 68-17.5t64 33.5l142 147q-2 1-5 3.5t-4 4.5q-32 45-23 99t55 85zm887-454l15 266q4 73-11 147l-48 219q-12 59-67 87l-106 54q2-62-39-109l-146-170q-53-61-117-103l-222-148q-34-23-76-23-51 0-88 37l-235-312q-25-33-18-73.5t41-63.5q33-22 71.5-14t62.5 40l266 352-262-455q-21-35-10.5-75t47.5-59q35-18 72.5-6t57.5 46l241 420-136-337q-15-35-4.5-74t44.5-56q37-19 76-6t56 51l193 415 101 196q8 15 23 17.5t27-7.5 11-26l-12-224q-2-41 26-71t69-31q39 0 67 28.5t30 67.5z"/></svg>