<?xml version="1.0" encoding="utf-8"?>
<svg width="1792" height="1792" viewBox="0 0 1792 1792" xmlns="http://www.w3.org/2000/svg"><path d="M912 128q134-1 240.5 68.5t163.5 192.5q27 58 27 179 0 47-9 191 14 7 28 7 18 0 51-13.5t51-13.5q29 0 56 18t27 46q0 32-31.5 54t-69 31.5-69 29-31.5 47.5q0 15 12 43 37 82 102.5 150t144.5 101q28 12 80 23 28 6 28 35 0 70-219 103-7 11-11 39t-14 46.5-33 18.5q-20 0-62-6.5t-64-6.5q-37 0-62 5-32 5-63 22.5t-58 38-58 40.5-76 33.5-99 13.5q-52 0-96.5-13.5t-75-33.5-57.5-40.5-58-38-62-22.5q-26-5-63-5-24 0-65.5 7.5t-58.5 7.5q-25 0-35-18.5t-14-47.5-11-40q-219-33-219-103 0-29 28-35 52-11 80-23 78-32 144.5-101t102.5-150q12-28 12-43 0-28-31.5-47.5t-69.5-29.5-69.5-31.5-31.5-52.5q0-27 26-45.5t55-18.5q15 0 48 13t53 13q18 0 32-7-9-142-9-190 0-122 27-180 64-137 172-198t264-63z"/></svg>