<?xml version="1.0" encoding="utf-8"?>
<svg width="1792" height="1792" viewBox="0 0 1792 1792" xmlns="http://www.w3.org/2000/svg"><path d="M1630 1117l-167 33 186 107q23 13 29.5 38.5t-6.5 48.5q-14 23-39 29.5t-48-6.5l-186-106 55 160q13 38-12 63.5t-60.5 20.5-48.5-42l-102-300-271-156v313l208 238q16 18 17 39t-11 36.5-28.5 25-37 5.5-36.5-22l-112-128v214q0 26-19 45t-45 19-45-19-19-45v-214l-112 128q-16 18-36.5 22t-37-5.5-28.5-25-11-36.5 17-39l208-238v-313l-271 156-102 300q-13 37-48.5 42t-60.5-20.5-12-63.5l55-160-186 106q-23 13-48 6.5t-39-29.5q-13-23-6.5-48.5t29.5-38.5l186-107-167-33q-29-6-42-29t-8.5-46.5 25.5-40 50-10.5l310 62 271-157-271-157-310 62q-4 1-13 1-27 0-44-18t-19-40 11-43 40-26l167-33-186-107q-23-13-29.5-38.5t6.5-48.5 39-30 48 7l186 106-55-160q-13-38 12-63.5t60.5-20.5 48.5 42l102 300 271 156v-313l-208-238q-16-18-17-39t11-36.5 28.5-25 37-5.5 36.5 22l112 128v-214q0-26 19-45t45-19 45 19 19 45v214l112-128q16-18 36.5-22t37 5.5 28.5 25 11 36.5-17 39l-208 238v313l271-156 102-300q13-37 48.5-42t60.5 20.5 12 63.5l-55 160 186-106q23-13 48-6.5t39 29.5q13 23 6.5 48.5t-29.5 38.5l-186 107 167 33q27 5 40 26t11 43-19 40-44 18q-9 0-13-1l-310-62-271 157 271 157 310-62q29-6 50 10.5t25.5 40-8.5 46.5-42 29z"/></svg>