<svg width="2048" height="2048" viewBox="-192 -384 2048 2048" xmlns="http://www.w3.org/2000/svg"><g transform="scale(1 -1) translate(0 -1280)"><path d="M1191 104h177l-72 218l-12 47q-2 16 -2 20h-4l-3 -20q0 -1 -3.5 -18t-7.5 -29zM736 96q0 -12 -10 -24l-319 -319q-10 -9 -23 -9q-12 0 -23 9l-320 320q-15 16 -7 35q8 20 30 20h192v1376q0 14 9 23t23 9h192q14 0 23 -9t9 -23v-1376h192q14 0 23 -9t9 -23zM1661 -150 v-106h-288v106h75l-47 144h-243l-47 -144h75v-106h-287v106h70l230 662h162l230 -662h70zM1572 1001v-233h-584v90l369 529q12 18 21 27l11 9v3q-2 0 -6.5 -0.5t-7.5 -0.5q-12 -3 -30 -3h-232v-115h-120v229h567v-89l-369 -530q-6 -8 -21 -26l-11 -10v-3l14 3q9 1 30 1h248 v119h121z" fill="black" /></g></svg>