<?xml version="1.0" encoding="UTF-8"?>
<svg xmlns="http://www.w3.org/2000/svg" xmlns:xlink="http://www.w3.org/1999/xlink" width="2048" height="2048" viewBox="0 0 2048 2048" version="1.1">
<g>
<path d="M 1536 1216 C 1536 1233.332031 1529.667969 1248.332031 1517 1261 L 1069 1709 C 1056.332031 1721.667969 1041.332031 1728 1024 1728 C 1006.667969 1728 991.667969 1721.667969 979 1709 L 531 1261 C 518.332031 1248.332031 512 1233.332031 512 1216 C 512 1198.667969 518.332031 1183.667969 531 1171 C 543.667969 1158.332031 558.667969 1152 576 1152 L 1472 1152 C 1489.332031 1152 1504.332031 1158.332031 1517 1171 C 1529.667969 1183.667969 1536 1198.667969 1536 1216 Z M 1536 832 C 1536 849.332031 1529.667969 864.332031 1517 877 C 1504.332031 889.667969 1489.332031 896 1472 896 L 576 896 C 558.667969 896 543.667969 889.667969 531 877 C 518.332031 864.332031 512 849.332031 512 832 C 512 814.667969 518.332031 799.667969 531 787 L 979 339 C 991.667969 326.332031 1006.667969 320 1024 320 C 1041.332031 320 1056.332031 326.332031 1069 339 L 1517 787 C 1529.667969 799.667969 1536 814.667969 1536 832 Z M 1536 832 "/>
</g>
</svg>
