<?xml version="1.0" encoding="UTF-8"?>
<svg xmlns="http://www.w3.org/2000/svg" xmlns:xlink="http://www.w3.org/1999/xlink" width="2048" height="2048" viewBox="0 0 2048 2048" version="1.1">
<g>
<path d="M 1383 536 L 1560 536 L 1488 318 L 1476 271 C 1474.667969 260.332031 1474 253.667969 1474 251 L 1470 251 L 1467 271 C 1467 271.667969 1465.832031 277.667969 1463.5 289 C 1461.167969 300.332031 1458.667969 310 1456 318 Z M 928 1568 C 928 1576 924.667969 1584 918 1592 L 599 1911 C 592.332031 1917 584.667969 1920 576 1920 C 568 1920 560.332031 1917 553 1911 L 233 1591 C 223 1580.332031 220.667969 1568.667969 226 1556 C 231.332031 1542.667969 241.332031 1536 256 1536 L 448 1536 L 448 160 C 448 150.667969 451 143 457 137 C 463 131 470.667969 128 480 128 L 672 128 C 681.332031 128 689 131 695 137 C 701 143 704 150.667969 704 160 L 704 1536 L 896 1536 C 905.332031 1536 913 1539 919 1545 C 925 1551 928 1558.667969 928 1568 Z M 1764 1687 L 1764 1920 L 1180 1920 L 1180 1830 L 1549 1301 C 1557 1289 1564 1280 1570 1274 L 1581 1265 L 1581 1262 C 1579.667969 1262 1577.5 1262.167969 1574.5 1262.5 C 1571.5 1262.832031 1569 1263 1567 1263 C 1559 1265 1549 1266 1537 1266 L 1305 1266 L 1305 1381 L 1185 1381 L 1185 1152 L 1752 1152 L 1752 1241 L 1383 1771 C 1379 1776.332031 1372 1785 1362 1797 L 1351 1808 L 1351 1810 L 1365 1808 C 1371 1806.667969 1381 1806 1395 1806 L 1643 1806 L 1643 1687 Z M 1853 790 L 1853 896 L 1565 896 L 1565 790 L 1640 790 L 1593 646 L 1350 646 L 1303 790 L 1378 790 L 1378 896 L 1091 896 L 1091 790 L 1161 790 L 1391 128 L 1553 128 L 1783 790 Z M 1853 790 "/>
</g>
</svg>
