<?xml version="1.0" encoding="UTF-8"?>
<svg xmlns="http://www.w3.org/2000/svg" xmlns:xlink="http://www.w3.org/1999/xlink" width="2048" height="2048" viewBox="0 0 2048 2048" version="1.1">
<g>
<path d="M 1602 1441 C 1602 1399 1587.332031 1360.332031 1558 1325 C 1528.667969 1289.667969 1494.332031 1272 1455 1272 C 1420.332031 1272 1392.667969 1284.332031 1372 1309 C 1351.332031 1333.667969 1341 1365 1341 1403 C 1341 1441 1353.167969 1472.667969 1377.5 1498 C 1401.832031 1523.332031 1436.667969 1536 1482 1536 C 1515.332031 1536 1543.667969 1527 1567 1509 C 1590.332031 1491 1602 1468.332031 1602 1441 Z M 992 1568 C 992 1576 988.667969 1584 982 1592 L 663 1911 C 656.332031 1917 648.667969 1920 640 1920 C 632 1920 624.332031 1917 617 1911 L 297 1591 C 287 1580.332031 284.667969 1568.667969 290 1556 C 295.332031 1542.667969 305.332031 1536 320 1536 L 512 1536 L 512 160 C 512 150.667969 515 143 521 137 C 527 131 534.667969 128 544 128 L 736 128 C 745.332031 128 753 131 759 137 C 765 143 768 150.667969 768 160 L 768 1536 L 960 1536 C 969.332031 1536 977 1539 983 1545 C 989 1551 992 1558.667969 992 1568 Z M 1742 1499 C 1742 1540.332031 1737.667969 1580.832031 1729 1620.5 C 1720.332031 1660.167969 1706.667969 1698.167969 1688 1734.5 C 1669.332031 1770.832031 1646.667969 1802.667969 1620 1830 C 1593.332031 1857.332031 1560.5 1879.167969 1521.5 1895.5 C 1482.5 1911.832031 1440 1920 1394 1920 C 1352.667969 1920 1316.667969 1914.667969 1286 1904 C 1270 1898.667969 1256 1893.667969 1244 1889 L 1283 1776 C 1293 1780.667969 1303.332031 1784.332031 1314 1787 C 1338.667969 1795.667969 1363.667969 1800 1389 1800 C 1445 1800 1489.832031 1780.5 1523.5 1741.5 C 1557.167969 1702.5 1579.332031 1654 1590 1596 L 1588 1596 C 1574 1611.332031 1553.5 1623.667969 1526.5 1633 C 1499.5 1642.332031 1471.332031 1647 1442 1647 C 1371.332031 1647 1313.667969 1623.167969 1269 1575.5 C 1224.332031 1527.832031 1202 1470.332031 1202 1403 C 1202 1333 1226 1273.667969 1274 1225 C 1322 1176.332031 1382.332031 1152 1455 1152 C 1537 1152 1605.332031 1183.5 1660 1246.5 C 1714.667969 1309.5 1742 1393.667969 1742 1499 Z M 1712 782 L 1712 896 L 1243 896 L 1243 782 L 1410 782 L 1410 350 C 1410 345.332031 1410.167969 339 1410.5 331 C 1410.832031 323 1411 317.332031 1411 314 L 1411 298 L 1409 298 L 1402 310 C 1396.667969 318.667969 1388 329 1376 341 L 1314 399 L 1232 313 L 1424 128 L 1547 128 L 1547 782 Z M 1712 782 "/>
</g>
</svg>
