<svg width="2048" height="2048" viewBox="-256 -384 2048 2048" xmlns="http://www.w3.org/2000/svg"><g transform="scale(1 -1) translate(0 -1280)"><path d="M1346 1247q0 63 -44 116t-103 53q-52 0 -83 -37t-31 -94t36.5 -95t104.5 -38q50 0 85 27t35 68zM736 96q0 -12 -10 -24l-319 -319q-10 -9 -23 -9q-12 0 -23 9l-320 320q-15 16 -7 35q8 20 30 20h192v1376q0 14 9 23t23 9h192q14 0 23 -9t9 -23v-1376h192q14 0 23 -9 t9 -23zM1456 -142v-114h-469v114h167v432q0 7 0.5 19t0.5 17v16h-2l-7 -12q-8 -13 -26 -31l-62 -58l-82 86l192 185h123v-654h165zM1486 1189q0 -62 -13 -121.5t-41 -114t-68 -95.5t-98.5 -65.5t-127.5 -24.5q-62 0 -108 16q-24 8 -42 15l39 113q15 -7 31 -11q37 -13 75 -13 q84 0 134.5 58.5t66.5 145.5h-2q-21 -23 -61.5 -37t-84.5 -14q-106 0 -173 71.5t-67 172.5q0 105 72 178t181 73q123 0 205 -94.5t82 -252.5z" fill="black" /></g></svg>