<svg width="2048" height="2048" viewBox="-240 -384 2048 2048" xmlns="http://www.w3.org/2000/svg"><g transform="scale(1 -1) translate(0 -1280)"><path d="M496 192q0 -60 -42.5 -102t-101.5 -42q-60 0 -102 42t-42 102t42 102t102 42q59 0 101.5 -42t42.5 -102zM928 0q0 -53 -37.5 -90.5t-90.5 -37.5t-90.5 37.5t-37.5 90.5t37.5 90.5t90.5 37.5t90.5 -37.5t37.5 -90.5zM320 640q0 -66 -47 -113t-113 -47t-113 47t-47 113 t47 113t113 47t113 -47t47 -113zM1360 192q0 -46 -33 -79t-79 -33t-79 33t-33 79t33 79t79 33t79 -33t33 -79zM528 1088q0 -73 -51.5 -124.5t-124.5 -51.5t-124.5 51.5t-51.5 124.5t51.5 124.5t124.5 51.5t124.5 -51.5t51.5 -124.5zM992 1280q0 -80 -56 -136t-136 -56 t-136 56t-56 136t56 136t136 56t136 -56t56 -136zM1536 640q0 -40 -28 -68t-68 -28t-68 28t-28 68t28 68t68 28t68 -28t28 -68zM1328 1088q0 -33 -23.5 -56.5t-56.5 -23.5t-56.5 23.5t-23.5 56.5t23.5 56.5t56.5 23.5t56.5 -23.5t23.5 -56.5z" fill="black" /></g></svg>