<?xml version="1.0" encoding="UTF-8"?>
<svg xmlns="http://www.w3.org/2000/svg" xmlns:xlink="http://www.w3.org/1999/xlink" width="2048" height="2048" viewBox="0 0 2048 2048" version="1.1">
<g>
<path d="M 1248 1529 L 1248 1680 L 541 1681 L 541 1530 Z M 1489 1183 L 1489 1884 L 1488 1919 L 1488 1920 L 356 1920 L 321 1919 L 320 1919 L 320 1183 L 441 1183 L 441 1801 L 1369 1801 L 1369 1183 Z M 561 1271 L 1265 1336 L 1252 1486 L 547 1421 Z M 629 955 L 1312 1138 L 1273 1284 L 590 1101 Z M 792 606 L 1401 966 L 1324 1096 L 715 736 Z M 1152 275 L 1550 860 L 1426 945 L 1027 361 Z M 1605 128 L 1726 825 L 1577 851 L 1456 154 Z M 1605 128 "/>
</g>
</svg>
