<?xml version="1.0" encoding="UTF-8"?>
<svg xmlns="http://www.w3.org/2000/svg" xmlns:xlink="http://www.w3.org/1999/xlink" width="2048" height="2048" viewBox="0 0 2048 2048" version="1.1">
<g>
<path d="M 1643 1381 L 1643 1447 C 1643 1503.667969 1623.832031 1551.832031 1585.5 1591.5 C 1547.167969 1631.167969 1501 1651 1447 1651 L 1390 1651 L 1130 1920 L 1130 1651 L 601 1651 C 547 1651 500.832031 1631.167969 462.5 1591.5 C 424.167969 1551.832031 405 1503.667969 405 1447 L 405 1381 Z M 1643 1055 L 1643 1310 L 405 1310 L 405 1055 Z M 1643 727 L 1643 982 L 405 982 L 405 727 Z M 1643 587 L 1643 654 L 405 654 L 405 587 C 405 531 424.167969 483.167969 462.5 443.5 C 500.832031 403.832031 547 384 601 384 L 1447 384 C 1501 384 1547.167969 403.832031 1585.5 443.5 C 1623.832031 483.167969 1643 531 1643 587 Z M 1643 587 "/>
</g>
</svg>
