<svg width="2048" height="2048" viewBox="-192 -384 2048 2048" xmlns="http://www.w3.org/2000/svg"><g transform="scale(1 -1) translate(0 -1280)"><path d="M1186 579l257 250l-356 52l-66 10l-30 60l-159 322v-963l59 -31l318 -168l-60 355l-12 66zM1638 841l-363 -354l86 -500q5 -33 -6 -51.5t-34 -18.5q-17 0 -40 12l-449 236l-449 -236q-23 -12 -40 -12q-23 0 -34 18.5t-6 51.5l86 500l-364 354q-32 32 -23 59.5t54 34.5 l502 73l225 455q20 41 49 41q28 0 49 -41l225 -455l502 -73q45 -7 54 -34.5t-24 -59.5z" fill="black" /></g></svg>