<?xml version="1.0" encoding="UTF-8"?>
<svg xmlns="http://www.w3.org/2000/svg" xmlns:xlink="http://www.w3.org/1999/xlink" width="2048" height="2048" viewBox="0 0 2048 2048" version="1.1">
<g>
<path d="M 1329 1132 L 1635 835 L 1213 773 L 1024 391 L 835 773 L 413 835 L 719 1132 L 646 1553 L 1024 1354 L 1401 1553 Z M 1856 775 C 1856 789.667969 1847.332031 805.667969 1830 823 L 1467 1177 L 1553 1677 C 1553.667969 1681.667969 1554 1688.332031 1554 1697 C 1554 1730.332031 1540.332031 1747 1513 1747 C 1500.332031 1747 1487 1743 1473 1735 L 1024 1499 L 575 1735 C 560.332031 1743 547 1747 535 1747 C 521 1747 510.5 1742.167969 503.5 1732.5 C 496.5 1722.832031 493 1711 493 1697 C 493 1693 493.667969 1686.332031 495 1677 L 581 1177 L 217 823 C 200.332031 805 192 789 192 775 C 192 750.332031 210.667969 735 248 729 L 750 656 L 975 201 C 987.667969 173.667969 1004 160 1024 160 C 1044 160 1060.332031 173.667969 1073 201 L 1298 656 L 1800 729 C 1837.332031 735 1856 750.332031 1856 775 Z M 1856 775 "/>
</g>
</svg>
