<?xml version="1.0" encoding="UTF-8"?>
<svg xmlns="http://www.w3.org/2000/svg" xmlns:xlink="http://www.w3.org/1999/xlink" width="2048" height="2048" viewBox="0 0 2048 2048" version="1.1">
<g>
<path d="M 1600 832 C 1600 814.667969 1593.667969 799.667969 1581 787 C 1568.332031 774.332031 1553.332031 768 1536 768 C 1518.667969 768 1503.667969 774.332031 1491 787 C 1478.332031 799.667969 1472 814.667969 1472 832 C 1472 849.332031 1478.332031 864.332031 1491 877 C 1503.667969 889.667969 1518.667969 896 1536 896 C 1553.332031 896 1568.332031 889.667969 1581 877 C 1593.667969 864.332031 1600 849.332031 1600 832 Z M 1728 832 C 1728 873.332031 1716.167969 910.332031 1692.5 943 C 1668.832031 975.667969 1638 999 1600 1013 L 1600 1408 C 1600 1514 1556.167969 1604.5 1468.5 1679.5 C 1380.832031 1754.5 1275.332031 1792 1152 1792 C 1028.667969 1792 923.167969 1754.5 835.5 1679.5 C 747.832031 1604.5 704 1514 704 1408 L 704 1276 C 594.667969 1262.667969 503.332031 1220 430 1148 C 356.667969 1076 320 992 320 896 L 320 384 C 320 366.667969 326.332031 351.667969 339 339 C 351.667969 326.332031 366.667969 320 384 320 C 388 320 393.332031 320.667969 400 322 C 411.332031 302 427 286 447 274 C 467 262 488.667969 256 512 256 C 547.332031 256 577.5 268.5 602.5 293.5 C 627.5 318.5 640 348.667969 640 384 C 640 419.332031 627.5 449.5 602.5 474.5 C 577.5 499.5 547.332031 512 512 512 C 490 512 468.667969 506 448 494 L 448 896 C 448 966.667969 479.332031 1027 542 1077 C 604.667969 1127 680 1152 768 1152 C 856 1152 931.332031 1127 994 1077 C 1056.667969 1027 1088 966.667969 1088 896 L 1088 494 C 1067.332031 506 1046 512 1024 512 C 988.667969 512 958.5 499.5 933.5 474.5 C 908.5 449.5 896 419.332031 896 384 C 896 348.667969 908.5 318.5 933.5 293.5 C 958.5 268.5 988.667969 256 1024 256 C 1047.332031 256 1069 262 1089 274 C 1109 286 1124.667969 302 1136 322 C 1142.667969 320.667969 1148 320 1152 320 C 1169.332031 320 1184.332031 326.332031 1197 339 C 1209.667969 351.667969 1216 366.667969 1216 384 L 1216 896 C 1216 992 1179.332031 1076 1106 1148 C 1032.667969 1220 941.332031 1262.667969 832 1276 L 832 1408 C 832 1478.667969 863.332031 1539 926 1589 C 988.667969 1639 1064 1664 1152 1664 C 1240 1664 1315.332031 1639 1378 1589 C 1440.667969 1539 1472 1478.667969 1472 1408 L 1472 1013 C 1434 999 1403.167969 975.667969 1379.5 943 C 1355.832031 910.332031 1344 873.332031 1344 832 C 1344 778.667969 1362.667969 733.332031 1400 696 C 1437.332031 658.667969 1482.667969 640 1536 640 C 1589.332031 640 1634.667969 658.667969 1672 696 C 1709.332031 733.332031 1728 778.667969 1728 832 Z M 1728 832 "/>
</g>
</svg>
