<?xml version="1.0" encoding="UTF-8"?>
<svg xmlns="http://www.w3.org/2000/svg" xmlns:xlink="http://www.w3.org/1999/xlink" width="2048" height="2048" viewBox="0 0 2048 2048" version="1.1">
<g>
<path d="M 1153 1497 L 1153 1664 L 905 1664 L 746 1412 L 722 1370 C 716.667969 1364 713 1357 711 1349 L 708 1349 L 699 1370 C 692.332031 1383.332031 684 1398 674 1414 L 519 1664 L 261 1664 L 261 1497 L 389 1497 L 586 1206 L 401 934 L 264 934 L 264 766 L 540 766 L 679 994 C 680.332031 996.667969 688 1010.667969 702 1036 C 707.332031 1042 711 1049 713 1057 L 716 1057 C 718 1051 721.667969 1044 727 1036 L 752 994 L 892 766 L 1149 766 L 1149 934 L 1024 934 L 840 1201 L 1044 1497 Z M 1792 1714 L 1792 1920 L 1278 1920 L 1274 1893 C 1272 1863 1271 1847.667969 1271 1847 C 1271 1804.332031 1279.667969 1765.332031 1297 1730 C 1314.332031 1694.667969 1336 1665.832031 1362 1643.5 C 1388 1621.167969 1416 1599.5 1446 1578.5 C 1476 1557.5 1504 1539.332031 1530 1524 C 1556 1508.667969 1577.667969 1490.667969 1595 1470 C 1612.332031 1449.332031 1621 1428 1621 1406 C 1621 1380.667969 1611.167969 1359.832031 1591.5 1343.5 C 1571.832031 1327.167969 1548.332031 1319 1521 1319 C 1487 1319 1454.667969 1332 1424 1358 C 1414.667969 1365.332031 1402.667969 1378 1388 1396 L 1283 1304 C 1300.332031 1279.332031 1321.332031 1257.332031 1346 1238 C 1399.332031 1194.667969 1462 1173 1534 1173 C 1607.332031 1173 1666.667969 1192.832031 1712 1232.5 C 1757.332031 1272.167969 1780 1325 1780 1391 C 1780 1435 1768.5 1474.5 1745.5 1509.5 C 1722.5 1544.5 1694.5 1573.167969 1661.5 1595.5 C 1628.5 1617.832031 1595.332031 1638.667969 1562 1658 C 1528.667969 1677.332031 1499.667969 1698.332031 1475 1721 C 1450.332031 1743.667969 1436.667969 1768 1434 1794 L 1666 1794 L 1666 1714 Z M 1792 1714 "/>
</g>
</svg>
