<svg width="2048" height="2048" viewBox="-256 -384 2048 2048" xmlns="http://www.w3.org/2000/svg"><g transform="scale(1 -1) translate(0 -1280)"><path d="M897 167v-167h-248l-159 252l-24 42q-8 9 -11 21h-3l-9 -21q-10 -20 -25 -44l-155 -250h-258v167h128l197 291l-185 272h-137v168h276l139 -228q2 -4 23 -42q8 -9 11 -21h3q3 9 11 21l25 42l140 228h257v-168h-125l-184 -267l204 -296h109zM1536 -50v-206h-514l-4 27 q-3 45 -3 46q0 64 26 117t65 86.5t84 65t84 54.5t65 54t26 64q0 38 -29.5 62.5t-70.5 24.5q-51 0 -97 -39q-14 -11 -36 -38l-105 92q26 37 63 66q80 65 188 65q110 0 178 -59.5t68 -158.5q0 -66 -34.5 -118.5t-84 -86t-99.5 -62.5t-87 -63t-41 -73h232v80h126z" fill="black" /></g></svg>