<?xml version="1.0" encoding="UTF-8"?>
<svg xmlns="http://www.w3.org/2000/svg" xmlns:xlink="http://www.w3.org/1999/xlink" width="2048" height="2048" viewBox="0 0 2048 2048" version="1.1">
<g>
<path d="M 768 512 L 1280 512 L 1280 384 L 768 384 Z M 416 512 L 416 1792 L 352 1792 C 290.667969 1792 238 1770 194 1726 C 150 1682 128 1629.332031 128 1568 L 128 736 C 128 674.667969 150 622 194 578 C 238 534 290.667969 512 352 512 Z M 1536 512 L 1536 1792 L 512 1792 L 512 512 L 640 512 L 640 352 C 640 325.332031 649.332031 302.667969 668 284 C 686.667969 265.332031 709.332031 256 736 256 L 1312 256 C 1338.667969 256 1361.332031 265.332031 1380 284 C 1398.667969 302.667969 1408 325.332031 1408 352 L 1408 512 Z M 1920 736 L 1920 1568 C 1920 1629.332031 1898 1682 1854 1726 C 1810 1770 1757.332031 1792 1696 1792 L 1632 1792 L 1632 512 L 1696 512 C 1757.332031 512 1810 534 1854 578 C 1898 622 1920 674.667969 1920 736 Z M 1920 736 "/>
</g>
</svg>
