<?xml version="1.0" encoding="UTF-8"?>
<svg xmlns="http://www.w3.org/2000/svg" xmlns:xlink="http://www.w3.org/1999/xlink" width="2048" height="2048" viewBox="0 0 2048 2048" version="1.1">
<g>
<path d="M 1600 1024 C 1600 946 1584.832031 871.5 1554.5 800.5 C 1524.167969 729.5 1483.167969 668.167969 1431.5 616.5 C 1379.832031 564.832031 1318.5 523.832031 1247.5 493.5 C 1176.5 463.167969 1102 448 1024 448 C 946 448 871.5 463.167969 800.5 493.5 C 729.5 523.832031 668.167969 564.832031 616.5 616.5 C 564.832031 668.167969 523.832031 729.5 493.5 800.5 C 463.167969 871.5 448 946 448 1024 C 448 1102 463.167969 1176.5 493.5 1247.5 C 523.832031 1318.5 564.832031 1379.832031 616.5 1431.5 C 668.167969 1483.167969 729.5 1524.167969 800.5 1554.5 C 871.5 1584.832031 946 1600 1024 1600 C 1102 1600 1176.5 1584.832031 1247.5 1554.5 C 1318.5 1524.167969 1379.832031 1483.167969 1431.5 1431.5 C 1483.167969 1379.832031 1524.167969 1318.5 1554.5 1247.5 C 1584.832031 1176.5 1600 1102 1600 1024 Z M 1876 1301 C 1873.332031 1311 1866.667969 1317.667969 1856 1321 L 1564 1417 L 1564 1723 C 1564 1733.667969 1559.667969 1742.332031 1551 1749 C 1541 1755.667969 1531.332031 1757 1522 1753 L 1230 1659 L 1050 1907 C 1043.332031 1915.667969 1034.667969 1920 1024 1920 C 1013.332031 1920 1004.667969 1915.667969 998 1907 L 818 1659 L 526 1753 C 516.667969 1757 507 1755.667969 497 1749 C 488.332031 1742.332031 484 1733.667969 484 1723 L 484 1417 L 192 1321 C 181.332031 1317.667969 174.667969 1311 172 1301 C 168.667969 1289.667969 170 1280 176 1272 L 356 1024 L 176 776 C 170 767.332031 168.667969 757.667969 172 747 C 174.667969 737 181.332031 730.332031 192 727 L 484 631 L 484 325 C 484 314.332031 488.332031 305.667969 497 299 C 507 292.332031 516.667969 291 526 295 L 818 389 L 998 141 C 1004 133 1012.667969 129 1024 129 C 1035.332031 129 1044 133 1050 141 L 1230 389 L 1522 295 C 1531.332031 291 1541 292.332031 1551 299 C 1559.667969 305.667969 1564 314.332031 1564 325 L 1564 631 L 1856 727 C 1866.667969 730.332031 1873.332031 737 1876 747 C 1879.332031 757.667969 1878 767.332031 1872 776 L 1692 1024 L 1872 1272 C 1878 1280 1879.332031 1289.667969 1876 1301 Z M 1876 1301 "/>
</g>
</svg>
