<?xml version="1.0" encoding="UTF-8"?>
<svg xmlns="http://www.w3.org/2000/svg" xmlns:xlink="http://www.w3.org/1999/xlink" width="2048" height="2048" viewBox="0 0 2048 2048" version="1.1">
<g>
<path d="M 704 1504 L 704 1312 C 704 1302.667969 701 1295 695 1289 C 689 1283 681.332031 1280 672 1280 L 352 1280 C 342.667969 1280 335 1283 329 1289 C 323 1295 320 1302.667969 320 1312 L 320 1504 C 320 1513.332031 323 1521 329 1527 C 335 1533 342.667969 1536 352 1536 L 672 1536 C 681.332031 1536 689 1533 695 1527 C 701 1521 704 1513.332031 704 1504 Z M 704 1120 L 704 928 C 704 918.667969 701 911 695 905 C 689 899 681.332031 896 672 896 L 352 896 C 342.667969 896 335 899 329 905 C 323 911 320 918.667969 320 928 L 320 1120 C 320 1129.332031 323 1137 329 1143 C 335 1149 342.667969 1152 352 1152 L 672 1152 C 681.332031 1152 689 1149 695 1143 C 701 1137 704 1129.332031 704 1120 Z M 1216 1504 L 1216 1312 C 1216 1302.667969 1213 1295 1207 1289 C 1201 1283 1193.332031 1280 1184 1280 L 864 1280 C 854.667969 1280 847 1283 841 1289 C 835 1295 832 1302.667969 832 1312 L 832 1504 C 832 1513.332031 835 1521 841 1527 C 847 1533 854.667969 1536 864 1536 L 1184 1536 C 1193.332031 1536 1201 1533 1207 1527 C 1213 1521 1216 1513.332031 1216 1504 Z M 704 736 L 704 544 C 704 534.667969 701 527 695 521 C 689 515 681.332031 512 672 512 L 352 512 C 342.667969 512 335 515 329 521 C 323 527 320 534.667969 320 544 L 320 736 C 320 745.332031 323 753 329 759 C 335 765 342.667969 768 352 768 L 672 768 C 681.332031 768 689 765 695 759 C 701 753 704 745.332031 704 736 Z M 1216 1120 L 1216 928 C 1216 918.667969 1213 911 1207 905 C 1201 899 1193.332031 896 1184 896 L 864 896 C 854.667969 896 847 899 841 905 C 835 911 832 918.667969 832 928 L 832 1120 C 832 1129.332031 835 1137 841 1143 C 847 1149 854.667969 1152 864 1152 L 1184 1152 C 1193.332031 1152 1201 1149 1207 1143 C 1213 1137 1216 1129.332031 1216 1120 Z M 1728 1504 L 1728 1312 C 1728 1302.667969 1725 1295 1719 1289 C 1713 1283 1705.332031 1280 1696 1280 L 1376 1280 C 1366.667969 1280 1359 1283 1353 1289 C 1347 1295 1344 1302.667969 1344 1312 L 1344 1504 C 1344 1513.332031 1347 1521 1353 1527 C 1359 1533 1366.667969 1536 1376 1536 L 1696 1536 C 1705.332031 1536 1713 1533 1719 1527 C 1725 1521 1728 1513.332031 1728 1504 Z M 1216 736 L 1216 544 C 1216 534.667969 1213 527 1207 521 C 1201 515 1193.332031 512 1184 512 L 864 512 C 854.667969 512 847 515 841 521 C 835 527 832 534.667969 832 544 L 832 736 C 832 745.332031 835 753 841 759 C 847 765 854.667969 768 864 768 L 1184 768 C 1193.332031 768 1201 765 1207 759 C 1213 753 1216 745.332031 1216 736 Z M 1728 1120 L 1728 928 C 1728 918.667969 1725 911 1719 905 C 1713 899 1705.332031 896 1696 896 L 1376 896 C 1366.667969 896 1359 899 1353 905 C 1347 911 1344 918.667969 1344 928 L 1344 1120 C 1344 1129.332031 1347 1137 1353 1143 C 1359 1149 1366.667969 1152 1376 1152 L 1696 1152 C 1705.332031 1152 1713 1149 1719 1143 C 1725 1137 1728 1129.332031 1728 1120 Z M 1728 736 L 1728 544 C 1728 534.667969 1725 527 1719 521 C 1713 515 1705.332031 512 1696 512 L 1376 512 C 1366.667969 512 1359 515 1353 521 C 1347 527 1344 534.667969 1344 544 L 1344 736 C 1344 745.332031 1347 753 1353 759 C 1359 765 1366.667969 768 1376 768 L 1696 768 C 1705.332031 768 1713 765 1719 759 C 1725 753 1728 745.332031 1728 736 Z M 1856 416 L 1856 1504 C 1856 1548 1840.332031 1585.667969 1809 1617 C 1777.667969 1648.332031 1740 1664 1696 1664 L 352 1664 C 308 1664 270.332031 1648.332031 239 1617 C 207.667969 1585.667969 192 1548 192 1504 L 192 416 C 192 372 207.667969 334.332031 239 303 C 270.332031 271.667969 308 256 352 256 L 1696 256 C 1740 256 1777.667969 271.667969 1809 303 C 1840.332031 334.332031 1856 372 1856 416 Z M 1856 416 "/>
</g>
</svg>
