<?xml version="1.0" encoding="UTF-8"?>
<svg xmlns="http://www.w3.org/2000/svg" xmlns:xlink="http://www.w3.org/1999/xlink" width="2048" height="2048" viewBox="0 0 2048 2048" version="1.1">
<g>
<path d="M 1088 1536 C 1088 1518.667969 1081.667969 1503.667969 1069 1491 C 1056.332031 1478.332031 1041.332031 1472 1024 1472 C 1006.667969 1472 991.667969 1478.332031 979 1491 C 966.332031 1503.667969 960 1518.667969 960 1536 C 960 1553.332031 966.332031 1568.332031 979 1581 C 991.667969 1593.667969 1006.667969 1600 1024 1600 C 1041.332031 1600 1056.332031 1593.667969 1069 1581 C 1081.667969 1568.332031 1088 1553.332031 1088 1536 Z M 1472 1376 L 1472 416 C 1472 407.332031 1468.832031 399.832031 1462.5 393.5 C 1456.167969 387.167969 1448.667969 384 1440 384 L 608 384 C 599.332031 384 591.832031 387.167969 585.5 393.5 C 579.167969 399.832031 576 407.332031 576 416 L 576 1376 C 576 1384.667969 579.167969 1392.167969 585.5 1398.5 C 591.832031 1404.832031 599.332031 1408 608 1408 L 1440 1408 C 1448.667969 1408 1456.167969 1404.832031 1462.5 1398.5 C 1468.832031 1392.167969 1472 1384.667969 1472 1376 Z M 1600 416 L 1600 1504 C 1600 1548 1584.332031 1585.667969 1553 1617 C 1521.667969 1648.332031 1484 1664 1440 1664 L 608 1664 C 564 1664 526.332031 1648.332031 495 1617 C 463.667969 1585.667969 448 1548 448 1504 L 448 416 C 448 372 463.667969 334.332031 495 303 C 526.332031 271.667969 564 256 608 256 L 1440 256 C 1484 256 1521.667969 271.667969 1553 303 C 1584.332031 334.332031 1600 372 1600 416 Z M 1600 416 "/>
</g>
</svg>
