<svg width="2048" height="2048" viewBox="-128 -384 2048 2048" xmlns="http://www.w3.org/2000/svg"><g transform="scale(1 -1) translate(0 -1280)"><path d="M384 384q0 53 -37.5 90.5t-90.5 37.5t-90.5 -37.5t-37.5 -90.5t37.5 -90.5t90.5 -37.5t90.5 37.5t37.5 90.5zM576 832q0 53 -37.5 90.5t-90.5 37.5t-90.5 -37.5t-37.5 -90.5t37.5 -90.5t90.5 -37.5t90.5 37.5t37.5 90.5zM1004 351l101 382q6 26 -7.5 48.5t-38.5 29.5 t-48 -6.5t-30 -39.5l-101 -382q-60 -5 -107 -43.5t-63 -98.5q-20 -77 20 -146t117 -89t146 20t89 117q16 60 -6 117t-72 91zM1664 384q0 53 -37.5 90.5t-90.5 37.5t-90.5 -37.5t-37.5 -90.5t37.5 -90.5t90.5 -37.5t90.5 37.5t37.5 90.5zM1024 1024q0 53 -37.5 90.5 t-90.5 37.5t-90.5 -37.5t-37.5 -90.5t37.5 -90.5t90.5 -37.5t90.5 37.5t37.5 90.5zM1472 832q0 53 -37.5 90.5t-90.5 37.5t-90.5 -37.5t-37.5 -90.5t37.5 -90.5t90.5 -37.5t90.5 37.5t37.5 90.5zM1792 384q0 -261 -141 -483q-19 -29 -54 -29h-1402q-35 0 -54 29 q-141 221 -141 483q0 182 71 348t191 286t286 191t348 71t348 -71t286 -191t191 -286t71 -348z" fill="black" /></g></svg>