<?xml version="1.0" encoding="UTF-8"?>
<svg xmlns="http://www.w3.org/2000/svg" xmlns:xlink="http://www.w3.org/1999/xlink" width="2048" height="2048" viewBox="0 0 2048 2048" version="1.1">
<g>
<path d="M 704 576 C 704 540.667969 691.5 510.5 666.5 485.5 C 641.5 460.5 611.332031 448 576 448 C 540.667969 448 510.5 460.5 485.5 485.5 C 460.5 510.5 448 540.667969 448 576 C 448 611.332031 460.5 641.5 485.5 666.5 C 510.5 691.5 540.667969 704 576 704 C 611.332031 704 641.5 691.5 666.5 666.5 C 691.5 641.5 704 611.332031 704 576 Z M 1771 1152 C 1771 1187.332031 1758.667969 1217.332031 1734 1242 L 1243 1734 C 1217 1758.667969 1186.667969 1771 1152 1771 C 1116.667969 1771 1086.667969 1758.667969 1062 1734 L 347 1018 C 321.667969 993.332031 300.167969 959.667969 282.5 917 C 264.832031 874.332031 256 835.332031 256 800 L 256 384 C 256 349.332031 268.667969 319.332031 294 294 C 319.332031 268.667969 349.332031 256 384 256 L 800 256 C 835.332031 256 874.332031 264.832031 917 282.5 C 959.667969 300.167969 993.667969 321.667969 1019 347 L 1734 1061 C 1758.667969 1087 1771 1117.332031 1771 1152 Z M 1771 1152 "/>
</g>
</svg>
