<svg width="2048" height="2048" viewBox="-64 -384 2048 2048" xmlns="http://www.w3.org/2000/svg"><g transform="scale(1 -1) translate(0 -1280)"><path d="M448 1088q0 53 -37.5 90.5t-90.5 37.5t-90.5 -37.5t-37.5 -90.5t37.5 -90.5t90.5 -37.5t90.5 37.5t37.5 90.5zM1515 512q0 -53 -37 -90l-491 -492q-39 -37 -91 -37q-53 0 -90 37l-715 716q-38 37 -64.5 101t-26.5 117v416q0 52 38 90t90 38h416q53 0 117 -26.5t102 -64.5 l715 -714q37 -39 37 -91zM1899 512q0 -53 -37 -90l-491 -492q-39 -37 -91 -37q-36 0 -59 14t-53 45l470 470q37 37 37 90q0 52 -37 91l-715 714q-38 38 -102 64.5t-117 26.5h224q53 0 117 -26.5t102 -64.5l715 -714q37 -39 37 -91z" fill="black" /></g></svg>