<?xml version="1.0" encoding="UTF-8"?>
<svg xmlns="http://www.w3.org/2000/svg" xmlns:xlink="http://www.w3.org/1999/xlink" width="2048" height="2048" viewBox="0 0 2048 2048" version="1.1">
<g>
<path d="M 777 1111 L 311 1577 C 304.332031 1583.667969 296.667969 1587 288 1587 C 279.332031 1587 271.667969 1583.667969 265 1577 L 215 1527 C 208.332031 1520.332031 205 1512.667969 205 1504 C 205 1495.332031 208.332031 1487.667969 215 1481 L 608 1088 L 215 695 C 208.332031 688.332031 205 680.667969 205 672 C 205 663.332031 208.332031 655.667969 215 649 L 265 599 C 271.667969 592.332031 279.332031 589 288 589 C 296.667969 589 304.332031 592.332031 311 599 L 777 1065 C 783.667969 1071.667969 787 1079.332031 787 1088 C 787 1096.667969 783.667969 1104.332031 777 1111 Z M 1856 1568 L 1856 1632 C 1856 1641.332031 1853 1649 1847 1655 C 1841 1661 1833.332031 1664 1824 1664 L 864 1664 C 854.667969 1664 847 1661 841 1655 C 835 1649 832 1641.332031 832 1632 L 832 1568 C 832 1558.667969 835 1551 841 1545 C 847 1539 854.667969 1536 864 1536 L 1824 1536 C 1833.332031 1536 1841 1539 1847 1545 C 1853 1551 1856 1558.667969 1856 1568 Z M 1856 1568 "/>
</g>
</svg>
