<svg width="2048" height="2048" viewBox="-256 -384 2048 2048" xmlns="http://www.w3.org/2000/svg"><g transform="scale(1 -1) translate(0 -1280)"><path d="M81 1407l54 -27q20 -5 211 -5h130l19 3l115 1l446 -1h318l34 -2q14 -1 28 7t21 16l7 8l42 1q15 0 28 -1v-104.5t1 -131.5l1 -100l-1 -58q0 -32 -4 -51q-39 -15 -68 -18q-25 43 -54 128q-8 24 -15.5 62.5t-11.5 65.5t-6 29q-13 15 -27 19q-7 2 -58.5 2t-138.5 -1t-128 -1 q-94 0 -127 -5q-10 -97 -8 -136l1 -152v52l3 -359l-1 -147q-1 -46 11 -85q49 -25 89 -32q2 0 18 -5t44 -13t43 -12q30 -8 50 -18q5 -45 5 -50q0 -10 -3 -29q-14 -1 -34 -1q-110 0 -187 10q-72 8 -238 8q-82 0 -233 -13q-45 -5 -70 -5q-2 22 -2 26l-1 26v9q21 33 79 49 q139 38 159 50q9 21 12 56q6 137 6 433l-5 44q0 265 -2 278q-2 11 -6 15q-6 5 -14 6q-38 6 -148 6q-50 0 -168.5 -14t-132.5 -24q-13 -9 -22 -33t-22 -75t-24 -84q-6 -19 -19.5 -32t-20.5 -13q-44 27 -56 44v297v86zM1505 113q26 -20 26 -49t-26 -49l-162 -126 q-26 -20 -44.5 -11t-18.5 42v80h-1024v-80q0 -33 -18.5 -42t-44.5 11l-162 126q-26 20 -26 49t26 49l162 126q26 20 44.5 11t18.5 -42v-80h1024v80q0 33 18.5 42t44.5 -11z" fill="black" /></g></svg>