<svg width="2048" height="2048" viewBox="-128 -384 2048 2048" xmlns="http://www.w3.org/2000/svg"><g transform="scale(1 -1) translate(0 -1280)"><path d="M81 1407l54 -27q20 -5 211 -5h130l19 3l115 1l215 -1h293l34 -2q14 -1 28 7t21 16l7 8l42 1q15 0 28 -1v-104.5t1 -131.5l1 -100l-1 -58q0 -32 -4 -51q-39 -15 -68 -18q-25 43 -54 128q-8 24 -15.5 62.5t-11.5 65.5t-6 29q-13 15 -27 19q-7 2 -42.5 2t-103.5 -1t-111 -1 q-34 0 -67 -5q-10 -97 -8 -136l1 -152v-332l3 -359l-1 -147q-1 -46 11 -85q49 -25 89 -32q2 0 18 -5t44 -13t43 -12q30 -8 50 -18q5 -45 5 -50q0 -10 -3 -29q-14 -1 -34 -1q-110 0 -187 10q-72 8 -238 8q-88 0 -233 -14q-48 -4 -70 -4q-2 22 -2 26l-1 26v9q21 33 79 49 q139 38 159 50q9 21 12 56q8 192 6 433l-5 428q-1 62 -0.5 118.5t0.5 102.5t-2 57t-6 15q-6 5 -14 6q-38 6 -148 6q-43 0 -100 -13.5t-73 -24.5q-13 -9 -22 -33t-22 -75t-24 -84q-6 -19 -19.5 -32t-20.5 -13q-44 27 -56 44v297v86zM1744 128q33 0 42 -18.5t-11 -44.5 l-126 -162q-20 -26 -49 -26t-49 26l-126 162q-20 26 -11 44.5t42 18.5h80v1024h-80q-33 0 -42 18.5t11 44.5l126 162q20 26 49 26t49 -26l126 -162q20 -26 11 -44.5t-42 -18.5h-80v-1024h80z" fill="black" /></g></svg>