<?xml version="1.0" encoding="UTF-8"?>
<svg xmlns="http://www.w3.org/2000/svg" xmlns:xlink="http://www.w3.org/1999/xlink" width="2048" height="2048" viewBox="0 0 2048 2048" version="1.1">
<g>
<path d="M 209 257 L 263 284 C 276.332031 287.332031 346.667969 289 474 289 L 604 289 L 623 286 L 738 285 L 953 286 L 1246 286 L 1280 288 C 1289.332031 288.667969 1298.667969 286.332031 1308 281 C 1317.332031 275.667969 1324.332031 270.332031 1329 265 L 1336 257 L 1378 256 C 1388 256 1397.332031 256.332031 1406 257 L 1406 361.5 C 1414.667969 361.5 1415 405.332031 1407 493 L 1408 593 L 1407 651 C 1407 672.332031 1405.667969 689.332031 1403 702 C 1377 712 1354.332031 718 1335 720 C 1318.332031 691.332031 1300.332031 648.667969 1281 592 C 1275.667969 576 1270.5 555.167969 1265.5 529.5 C 1260.5 503.832031 1256.667969 482 1254 464 C 1251.332031 446 1249.332031 436.332031 1248 435 C 1239.332031 425 1230.332031 418.667969 1221 416 C 1216.332031 414.667969 1202.167969 414 1178.5 414 C 1154.832031 414 1120.332031 414.332031 1075 415 C 1029.667969 415.667969 992.667969 416 964 416 C 941.332031 416 919 417.667969 897 421 C 890.332031 485.667969 887.667969 531 889 557 L 890 709 L 890 1041 L 893 1400 L 892 1547 C 891.332031 1577.667969 895 1606 903 1632 C 935.667969 1648.667969 965.332031 1659.332031 992 1664 C 993.332031 1664 999.332031 1665.667969 1010 1669 C 1020.667969 1672.332031 1035.332031 1676.667969 1054 1682 C 1072.667969 1687.332031 1087 1691.332031 1097 1694 C 1117 1699.332031 1133.667969 1705.332031 1147 1712 C 1150.332031 1742 1152 1758.667969 1152 1762 C 1152 1768.667969 1151 1778.332031 1149 1791 C 1139.667969 1791.667969 1128.332031 1792 1115 1792 C 1041.667969 1792 979.332031 1788.667969 928 1782 C 880 1776.667969 800.667969 1774 690 1774 C 631.332031 1774 553.667969 1778.667969 457 1788 C 425 1790.667969 401.667969 1792 387 1792 C 385.667969 1777.332031 385 1768.667969 385 1766 L 384 1740 L 384 1731 C 398 1709 424.332031 1692.667969 463 1682 C 555.667969 1656.667969 608.667969 1640 622 1632 C 628 1618 632 1599.332031 634 1576 C 639.332031 1448 641.332031 1303.667969 640 1143 L 635 715 C 634.332031 673.667969 634.167969 634.167969 634.5 596.5 C 634.832031 558.832031 635 524.667969 635 494 C 635 463.332031 634.332031 444.332031 633 437 C 631.667969 429.667969 629.667969 424.667969 627 422 C 623 418.667969 618.332031 416.667969 613 416 C 587.667969 412 538.332031 410 465 410 C 436.332031 410 403 414.5 365 423.5 C 327 432.5 302.667969 440.667969 292 448 C 283.332031 454 276 465 270 481 C 264 497 256.667969 522 248 556 C 239.332031 590 231.332031 618 224 640 C 220 652.667969 213.5 663.332031 204.5 672 C 195.5 680.667969 188.667969 685 184 685 C 154.667969 667 136 652.332031 128 641 L 128 258 Z M 1872 1536 C 1894 1536 1908 1542.167969 1914 1554.5 C 1920 1566.832031 1916.332031 1581.667969 1903 1599 L 1777 1761 C 1763.667969 1778.332031 1747.332031 1787 1728 1787 C 1708.667969 1787 1692.332031 1778.332031 1679 1761 L 1553 1599 C 1539.667969 1581.667969 1536 1566.832031 1542 1554.5 C 1548 1542.167969 1562 1536 1584 1536 L 1664 1536 L 1664 512 L 1584 512 C 1562 512 1548 505.832031 1542 493.5 C 1536 481.167969 1539.667969 466.332031 1553 449 L 1679 287 C 1692.332031 269.667969 1708.667969 261 1728 261 C 1747.332031 261 1763.667969 269.667969 1777 287 L 1903 449 C 1916.332031 466.332031 1920 481.167969 1914 493.5 C 1908 505.832031 1894 512 1872 512 L 1792 512 L 1792 1536 Z M 1872 1536 "/>
</g>
</svg>
