<svg width="2048" height="2048" viewBox="-128 -384 2048 2048" xmlns="http://www.w3.org/2000/svg"><g transform="scale(1 -1) translate(0 -1280)"><path d="M512 288v-192q0 -40 -28 -68t-68 -28h-320q-40 0 -68 28t-28 68v192q0 40 28 68t68 28h320q40 0 68 -28t28 -68zM512 800v-192q0 -40 -28 -68t-68 -28h-320q-40 0 -68 28t-28 68v192q0 40 28 68t68 28h320q40 0 68 -28t28 -68zM1792 288v-192q0 -40 -28 -68t-68 -28h-960 q-40 0 -68 28t-28 68v192q0 40 28 68t68 28h960q40 0 68 -28t28 -68zM512 1312v-192q0 -40 -28 -68t-68 -28h-320q-40 0 -68 28t-28 68v192q0 40 28 68t68 28h320q40 0 68 -28t28 -68zM1792 800v-192q0 -40 -28 -68t-68 -28h-960q-40 0 -68 28t-28 68v192q0 40 28 68t68 28 h960q40 0 68 -28t28 -68zM1792 1312v-192q0 -40 -28 -68t-68 -28h-960q-40 0 -68 28t-28 68v192q0 40 28 68t68 28h960q40 0 68 -28t28 -68z" fill="black" /></g></svg>