<?xml version="1.0" encoding="utf-8"?>
<svg width="1792" height="1792" viewBox="0 0 1792 1792" xmlns="http://www.w3.org/2000/svg"><path d="M852 309q0 29-17 52.5t-45 23.5-45-23.5-17-52.5 17-52.5 45-23.5 45 23.5 17 52.5zm-164 1376v-114q0-30-20.5-51.5t-50.5-21.5-50 21.5-20 51.5v114q0 30 20.5 52t49.5 22q30 0 50.5-22t20.5-52zm172 0v-114q0-30-20-51.5t-50-21.5-50.5 21.5-20.5 51.5v114q0 30 20.5 52t50.5 22q29 0 49.5-22t20.5-52zm174 0v-114q0-30-20.5-51.5t-50.5-21.5-50.5 21.5-20.5 51.5v114q0 30 20.5 52t50.5 22 50.5-22 20.5-52zm174 0v-114q0-30-20.5-51.5t-50.5-21.5-50.5 21.5-20.5 51.5v114q0 30 20.5 52t50.5 22 50.5-22 20.5-52zm268-684q-84 160-232 259.5t-323 99.5q-123 0-229.5-51.5t-178.5-137-113-197.5-41-232q0-88 21-174-104 175-104 390 0 162 65 312t185 251q30-57 91-57 56 0 86 50 32-50 87-50 56 0 86 50 32-50 87-50t87 50q30-50 86-50 28 0 52.5 15.5t37.5 40.5q112-94 177-231.5t73-287.5zm-150-29q0-75-72-75-17 0-47 6-95 19-149 19-226 0-226-243 0-86 30-204-83 127-83 275 0 150 89 260.5t235 110.5q111 0 210-70 13-48 13-79zm-442-659q0-50-32-89.5t-81-39.5-81 39.5-32 89.5q0 51 31.5 90.5t81.5 39.5 81.5-39.5 31.5-90.5zm629 339q0-96-37.5-179t-113-137-173.5-54q-77 0-149 35t-127 94q-48 159-48 268 0 104 45.5 157t147.5 53q53 0 142-19 36-6 53-6 51 0 77.5 28t26.5 80q0 26-4 46 75-68 117.5-165.5t42.5-200.5zm279 217q0 111-33.5 249.5t-93.5 204.5q-58 64-195 142.5t-228 104.5l-4 1v114q0 43-29.5 75t-72.5 32q-56 0-86-50-32 50-87 50t-87-50q-30 50-86 50-55 0-87-50-30 50-86 50-47 0-75-33.5t-28-81.5q-90 68-198 68-118 0-211-80 54-1 106-20-113-31-182-127 32 7 71 7 89 0 164-46-192-192-240-306-24-56-24-160 0-57 9-125.5t31.5-146.5 55-141 86.5-105 120-42q59 0 81 52 19-29 42-54 2-3 12-13t13-16q10-15 23-38t25-42 28-39q87-111 211.5-177t260.5-66q35 0 62 4 59-64 146-64 83 0 140 57 5 5 5 12 0 5-6 13.5t-12.5 16-16 17l-10.5 10.5q17 6 36 18t19 24q0 6-16 25 157 138 197 378 25-30 60-30 45 0 100 49 90 80 90 279z"/></svg>