<svg width="2048" height="2048" viewBox="-192 -384 2048 2048" xmlns="http://www.w3.org/2000/svg"><g transform="scale(1 -1) translate(0 -1280)"><path d="M256 960q0 -26 -19 -45t-45 -19q-27 0 -45.5 19t-18.5 45q0 27 18.5 45.5t45.5 18.5q26 0 45 -18.5t19 -45.5zM416 448v640q0 26 -19 45t-45 19h-288q-26 0 -45 -19t-19 -45v-640q0 -26 19 -45t45 -19h288q26 0 45 19t19 45zM1545 597q55 -61 55 -149q-1 -78 -57.5 -135 t-134.5 -57h-277q4 -14 8 -24t11 -22t10 -18q18 -37 27 -57t19 -58.5t10 -76.5q0 -24 -0.5 -39t-5 -45t-12 -50t-24 -45t-40 -40.5t-60 -26t-82.5 -10.5q-26 0 -45 19q-20 20 -34 50t-19.5 52t-12.5 61q-9 42 -13.5 60.5t-17.5 48.5t-31 48q-33 33 -101 120q-49 64 -101 121 t-76 59q-25 2 -43 20.5t-18 43.5v641q0 26 19 44.5t45 19.5q35 1 158 44q77 26 120.5 39.5t121.5 29t144 15.5h17h76h36q133 -2 197 -78q58 -69 49 -181q39 -37 54 -94q17 -61 0 -117q46 -61 43 -137q0 -32 -15 -76z" fill="black" /></g></svg>