<?xml version="1.0" encoding="UTF-8"?>
<svg xmlns="http://www.w3.org/2000/svg" xmlns:xlink="http://www.w3.org/1999/xlink" width="2048" height="2048" viewBox="0 0 2048 2048" version="1.1">
<g>
<path d="M 512 1472 C 512 1454.667969 505.667969 1439.667969 493 1427 C 480.332031 1414.332031 465.332031 1408 448 1408 C 430.667969 1408 415.667969 1414.332031 403 1427 C 390.332031 1439.667969 384 1454.667969 384 1472 C 384 1489.332031 390.332031 1504.332031 403 1517 C 415.667969 1529.667969 430.667969 1536 448 1536 C 465.332031 1536 480.332031 1529.667969 493 1517 C 505.667969 1504.332031 512 1489.332031 512 1472 Z M 1664 896 C 1664 862 1651 832.167969 1625 806.5 C 1599 780.832031 1569.332031 768 1536 768 L 1184 768 C 1184 729.332031 1200 676.167969 1232 608.5 C 1264 540.832031 1280 487.332031 1280 448 C 1280 382.667969 1269.332031 334.332031 1248 303 C 1226.667969 271.667969 1184 256 1120 256 C 1102.667969 273.332031 1090 301.667969 1082 341 C 1074 380.332031 1063.832031 422.167969 1051.5 466.5 C 1039.167969 510.832031 1019.332031 547.332031 992 576 C 977.332031 591.332031 951.667969 621.667969 915 667 C 912.332031 670.332031 904.667969 680.332031 892 697 C 879.332031 713.667969 868.832031 727.332031 860.5 738 C 852.167969 748.667969 840.667969 762.832031 826 780.5 C 811.332031 798.167969 798 812.832031 786 824.5 C 774 836.167969 761.167969 848 747.5 860 C 733.832031 872 720.5 881 707.5 887 C 694.5 893 682.667969 896 672 896 L 640 896 L 640 1536 L 672 1536 C 680.667969 1536 691.167969 1537 703.5 1539 C 715.832031 1541 726.832031 1543.167969 736.5 1545.5 C 746.167969 1547.832031 758.832031 1551.5 774.5 1556.5 C 790.167969 1561.5 801.832031 1565.332031 809.5 1568 C 817.167969 1570.667969 829 1574.832031 845 1580.5 C 861 1586.167969 870.667969 1589.667969 874 1591 C 1014.667969 1639.667969 1128.667969 1664 1216 1664 L 1337 1664 C 1465 1664 1529 1608.332031 1529 1497 C 1529 1479.667969 1527.332031 1461 1524 1441 C 1544 1430.332031 1559.832031 1412.832031 1571.5 1388.5 C 1583.167969 1364.167969 1589 1339.667969 1589 1315 C 1589 1290.332031 1583 1267.332031 1571 1246 C 1606.332031 1212.667969 1624 1173 1624 1127 C 1624 1110.332031 1620.667969 1091.832031 1614 1071.5 C 1607.332031 1051.167969 1599 1035.332031 1589 1024 C 1610.332031 1023.332031 1628.167969 1007.667969 1642.5 977 C 1656.832031 946.332031 1664 919.332031 1664 896 Z M 1792 895 C 1792 954.332031 1775.667969 1008.667969 1743 1058 C 1749 1080 1752 1103 1752 1127 C 1752 1178.332031 1739.332031 1226.332031 1714 1271 C 1716 1285 1717 1299.332031 1717 1314 C 1717 1381.332031 1697 1440.667969 1657 1492 C 1657.667969 1584.667969 1629.332031 1657.832031 1572 1711.5 C 1514.667969 1765.167969 1439 1792 1345 1792 L 1216 1792 C 1152 1792 1088.832031 1784.5 1026.5 1769.5 C 964.167969 1754.5 892 1732.667969 810 1704 C 732.667969 1677.332031 686.667969 1664 672 1664 L 384 1664 C 348.667969 1664 318.5 1651.5 293.5 1626.5 C 268.5 1601.5 256 1571.332031 256 1536 L 256 896 C 256 860.667969 268.5 830.5 293.5 805.5 C 318.5 780.5 348.667969 768 384 768 L 658 768 C 682 752 727.667969 700.332031 795 613 C 833.667969 563 869.332031 520.332031 902 485 C 918 468.332031 929.832031 439.832031 937.5 399.5 C 945.167969 359.167969 955.332031 317 968 273 C 980.667969 229 1001.332031 193 1030 165 C 1056 140.332031 1086 128 1120 128 C 1176 128 1226.332031 138.832031 1271 160.5 C 1315.667969 182.167969 1349.667969 216 1373 262 C 1396.332031 308 1408 370 1408 448 C 1408 510 1392 574 1360 640 L 1536 640 C 1605.332031 640 1665.332031 665.332031 1716 716 C 1766.667969 766.667969 1792 826.332031 1792 895 Z M 1792 895 "/>
</g>
</svg>
