<svg width="2048" height="2048" viewBox="-256 -384 2048 2048" xmlns="http://www.w3.org/2000/svg"><g transform="scale(1 -1) translate(0 -1280)"><path d="M256 1088q0 26 -19 45t-45 19t-45 -19t-19 -45t19 -45t45 -19t45 19t19 45zM1408 512q0 35 -21.5 81t-53.5 47q15 17 25 47.5t10 55.5q0 69 -53 119q18 32 18 69t-17.5 73.5t-47.5 52.5q5 30 5 56q0 85 -49 126t-136 41h-128q-131 0 -342 -73q-5 -2 -29 -10.5 t-35.5 -12.5t-35 -11.5t-38 -11t-33 -6.5t-31.5 -3h-32v-640h32q16 0 35.5 -9t40 -27t38.5 -35.5t40 -44t34.5 -42.5t31.5 -41t23 -30q55 -68 77 -91q41 -43 59.5 -109.5t30.5 -125.5t38 -85q96 0 128 47t32 145q0 59 -48 160.5t-48 159.5h352q50 0 89 38.5t39 89.5z M1536 511q0 -103 -76 -179t-180 -76h-176q48 -99 48 -192q0 -118 -35 -186q-35 -69 -102 -101.5t-151 -32.5q-51 0 -90 37q-34 33 -54 82t-25.5 90.5t-17.5 84.5t-31 64q-48 50 -107 127q-101 131 -137 155h-274q-53 0 -90.5 37.5t-37.5 90.5v640q0 53 37.5 90.5t90.5 37.5 h288q22 0 138 40q128 44 223 66t200 22h112q140 0 226.5 -79t85.5 -216v-5q60 -77 60 -178q0 -22 -3 -43q38 -67 38 -144q0 -36 -9 -69q49 -74 49 -163z" fill="black" /></g></svg>