<?xml version="1.0" encoding="UTF-8"?>
<svg xmlns="http://www.w3.org/2000/svg" xmlns:xlink="http://www.w3.org/1999/xlink" width="2048" height="2048" viewBox="0 0 2048 2048" version="1.1">
<g>
<path d="M 512 576 C 512 558.667969 505.667969 543.667969 493 531 C 480.332031 518.332031 465.332031 512 448 512 C 430.667969 512 415.667969 518.332031 403 531 C 390.332031 543.667969 384 558.667969 384 576 C 384 593.332031 390.332031 608.332031 403 621 C 415.667969 633.667969 430.667969 640 448 640 C 465.332031 640 480.332031 633.667969 493 621 C 505.667969 608.332031 512 593.332031 512 576 Z M 1664 1152 C 1664 1128.667969 1656.832031 1101.667969 1642.5 1071 C 1628.167969 1040.332031 1610.332031 1024.667969 1589 1024 C 1599 1012.667969 1607.332031 996.832031 1614 976.5 C 1620.667969 956.167969 1624 937.667969 1624 921 C 1624 875 1606.332031 835.332031 1571 802 C 1583 780.667969 1589 757.667969 1589 733 C 1589 708.332031 1583.167969 683.832031 1571.5 659.5 C 1559.832031 635.167969 1544 617.667969 1524 607 C 1527.332031 587 1529 568.332031 1529 551 C 1529 494.332031 1512.667969 452.332031 1480 425 C 1447.332031 397.667969 1402 384 1344 384 L 1216 384 C 1128.667969 384 1014.667969 408.332031 874 457 C 870.667969 458.332031 861 461.832031 845 467.5 C 829 473.167969 817.167969 477.332031 809.5 480 C 801.832031 482.667969 790.167969 486.5 774.5 491.5 C 758.832031 496.5 746.167969 500.167969 736.5 502.5 C 726.832031 504.832031 715.832031 507 703.5 509 C 691.167969 511 680.667969 512 672 512 L 640 512 L 640 1152 L 672 1152 C 682.667969 1152 694.5 1155 707.5 1161 C 720.5 1167 733.832031 1176 747.5 1188 C 761.167969 1200 774 1211.832031 786 1223.5 C 798 1235.167969 811.332031 1249.832031 826 1267.5 C 840.667969 1285.167969 852.167969 1299.332031 860.5 1310 C 868.832031 1320.667969 879.332031 1334.332031 892 1351 C 904.667969 1367.667969 912.332031 1377.667969 915 1381 C 951.667969 1426.332031 977.332031 1456.667969 992 1472 C 1019.332031 1500.667969 1039.167969 1537.167969 1051.5 1581.5 C 1063.832031 1625.832031 1074 1667.667969 1082 1707 C 1090 1746.332031 1102.667969 1774.667969 1120 1792 C 1184 1792 1226.667969 1776.332031 1248 1745 C 1269.332031 1713.667969 1280 1665.332031 1280 1600 C 1280 1560.667969 1264 1507.167969 1232 1439.5 C 1200 1371.832031 1184 1318.667969 1184 1280 L 1536 1280 C 1569.332031 1280 1599 1267.167969 1625 1241.5 C 1651 1215.832031 1664 1186 1664 1152 Z M 1792 1153 C 1792 1221.667969 1766.667969 1281.332031 1716 1332 C 1665.332031 1382.667969 1605.332031 1408 1536 1408 L 1360 1408 C 1392 1474 1408 1538 1408 1600 C 1408 1678.667969 1396.332031 1740.667969 1373 1786 C 1349.667969 1832 1315.667969 1865.832031 1271 1887.5 C 1226.332031 1909.167969 1176 1920 1120 1920 C 1086 1920 1056 1907.667969 1030 1883 C 1007.332031 1861 989.332031 1833.667969 976 1801 C 962.667969 1768.332031 954.167969 1738.167969 950.5 1710.5 C 946.832031 1682.832031 941 1654.667969 933 1626 C 925 1597.332031 914.667969 1576 902 1562 C 870 1528.667969 834.332031 1486.332031 795 1435 C 727.667969 1347.667969 682 1296 658 1280 L 384 1280 C 348.667969 1280 318.5 1267.5 293.5 1242.5 C 268.5 1217.5 256 1187.332031 256 1152 L 256 512 C 256 476.667969 268.5 446.5 293.5 421.5 C 318.5 396.5 348.667969 384 384 384 L 672 384 C 686.667969 384 732.667969 370.667969 810 344 C 895.332031 314.667969 969.667969 292.667969 1033 278 C 1096.332031 263.332031 1163 256 1233 256 L 1345 256 C 1438.332031 256 1513.832031 282.332031 1571.5 335 C 1629.167969 387.667969 1657.667969 459.667969 1657 551 L 1657 556 C 1697 607.332031 1717 666.667969 1717 734 C 1717 748.667969 1716 763 1714 777 C 1739.332031 821.667969 1752 869.667969 1752 921 C 1752 945 1749 968 1743 990 C 1775.667969 1039.332031 1792 1093.667969 1792 1153 Z M 1792 1153 "/>
</g>
</svg>
