<?xml version="1.0" encoding="UTF-8"?>
<svg xmlns="http://www.w3.org/2000/svg" xmlns:xlink="http://www.w3.org/1999/xlink" width="2048" height="2048" viewBox="0 0 2048 2048" version="1.1">
<g>
<path d="M 448 704 C 448 721.332031 441.667969 736.332031 429 749 C 416.332031 761.667969 401.332031 768 384 768 C 366 768 350.832031 761.667969 338.5 749 C 326.167969 736.332031 320 721.332031 320 704 C 320 686 326.167969 670.832031 338.5 658.5 C 350.832031 646.167969 366 640 384 640 C 401.332031 640 416.332031 646.167969 429 658.5 C 441.667969 670.832031 448 686 448 704 Z M 608 1216 L 608 576 C 608 558.667969 601.667969 543.667969 589 531 C 576.332031 518.332031 561.332031 512 544 512 L 256 512 C 238.667969 512 223.667969 518.332031 211 531 C 198.332031 543.667969 192 558.667969 192 576 L 192 1216 C 192 1233.332031 198.332031 1248.332031 211 1261 C 223.667969 1273.667969 238.667969 1280 256 1280 L 544 1280 C 561.332031 1280 576.332031 1273.667969 589 1261 C 601.667969 1248.332031 608 1233.332031 608 1216 Z M 1737 1067 C 1773.667969 1107.667969 1792 1157.332031 1792 1216 C 1791.332031 1268 1772.167969 1313 1734.5 1351 C 1696.832031 1389 1652 1408 1600 1408 L 1323 1408 C 1325.667969 1417.332031 1328.332031 1425.332031 1331 1432 C 1333.667969 1438.667969 1337.332031 1446 1342 1454 C 1346.667969 1462 1350 1468 1352 1472 C 1364 1496.667969 1373 1515.667969 1379 1529 C 1385 1542.332031 1391.332031 1561.832031 1398 1587.5 C 1404.667969 1613.167969 1408 1638.667969 1408 1664 C 1408 1680 1407.832031 1693 1407.5 1703 C 1407.167969 1713 1405.5 1728 1402.5 1748 C 1399.5 1768 1395.5 1784.667969 1390.5 1798 C 1385.5 1811.332031 1377.5 1826.332031 1366.5 1843 C 1355.5 1859.667969 1342.167969 1873.167969 1326.5 1883.5 C 1310.832031 1893.832031 1290.832031 1902.5 1266.5 1909.5 C 1242.167969 1916.5 1214.667969 1920 1184 1920 C 1166.667969 1920 1151.667969 1913.667969 1139 1901 C 1125.667969 1887.667969 1114.332031 1871 1105 1851 C 1095.667969 1831 1089.167969 1813.667969 1085.5 1799 C 1081.832031 1784.332031 1077.667969 1764 1073 1738 C 1067 1710 1062.5 1689.832031 1059.5 1677.5 C 1056.5 1665.167969 1050.667969 1649 1042 1629 C 1033.332031 1609 1023 1593 1011 1581 C 989 1559 955.332031 1519 910 1461 C 877.332031 1418.332031 843.667969 1378 809 1340 C 774.332031 1302 749 1282.332031 733 1281 C 716.332031 1279.667969 702 1272.832031 690 1260.5 C 678 1248.167969 672 1233.667969 672 1217 L 672 576 C 672 558.667969 678.332031 543.832031 691 531.5 C 703.667969 519.167969 718.667969 512.667969 736 512 C 759.332031 511.332031 812 496.667969 894 468 C 945.332031 450.667969 985.5 437.5 1014.5 428.5 C 1043.5 419.5 1084 409.832031 1136 399.5 C 1188 389.167969 1236 384 1280 384 L 1409 384 C 1497.667969 385.332031 1563.332031 411.332031 1606 462 C 1644.667969 508 1661 568.332031 1655 643 C 1681 667.667969 1699 699 1709 737 C 1720.332031 777.667969 1720.332031 816.667969 1709 854 C 1739.667969 894.667969 1754 940.332031 1752 991 C 1752 1012.332031 1747 1037.667969 1737 1067 Z M 1737 1067 "/>
</g>
</svg>
