<?xml version="1.0" encoding="UTF-8"?>
<svg xmlns="http://www.w3.org/2000/svg" xmlns:xlink="http://www.w3.org/1999/xlink" width="2048" height="2048" viewBox="0 0 2048 2048" version="1.1">
<g>
<path d="M 1152 580 L 1468 896 L 896 1468 L 580 1152 Z M 941 1559 L 1559 941 C 1571.667969 928.332031 1578 913.332031 1578 896 C 1578 878.667969 1571.667969 863.667969 1559 851 L 1197 489 C 1185 477 1170 471 1152 471 C 1134 471 1119 477 1107 489 L 489 1107 C 476.332031 1119.667969 470 1134.667969 470 1152 C 470 1169.332031 476.332031 1184.332031 489 1197 L 851 1559 C 863 1571 878 1577 896 1577 C 914 1577 929 1571 941 1559 Z M 1830 922 L 923 1830 C 898.332031 1854.667969 868.167969 1867 832.5 1867 C 796.832031 1867 766.667969 1854.667969 742 1830 L 616 1704 C 653.332031 1666.667969 672 1621.332031 672 1568 C 672 1514.667969 653.332031 1469.332031 616 1432 C 578.667969 1394.667969 533.332031 1376 480 1376 C 426.667969 1376 381.332031 1394.667969 344 1432 L 219 1306 C 194.332031 1281.332031 182 1251.167969 182 1215.5 C 182 1179.832031 194.332031 1149.667969 219 1125 L 1126 219 C 1150.667969 194.332031 1180.832031 182 1216.5 182 C 1252.167969 182 1282.332031 194.332031 1307 219 L 1432 344 C 1394.667969 381.332031 1376 426.667969 1376 480 C 1376 533.332031 1394.667969 578.667969 1432 616 C 1469.332031 653.332031 1514.667969 672 1568 672 C 1621.332031 672 1666.667969 653.332031 1704 616 L 1830 741 C 1854.667969 765.667969 1867 795.832031 1867 831.5 C 1867 867.167969 1854.667969 897.332031 1830 922 Z M 1830 922 "/>
</g>
</svg>
