<svg width="2048" height="2048" viewBox="-256 -384 2048 2048" xmlns="http://www.w3.org/2000/svg"><g transform="scale(1 -1) translate(0 -1280)"><path d="M1149 414q0 26 -19 45l-181 181l181 181q19 19 19 45q0 27 -19 46l-90 90q-19 19 -46 19q-26 0 -45 -19l-181 -181l-181 181q-19 19 -45 19q-27 0 -46 -19l-90 -90q-19 -19 -19 -46q0 -26 19 -45l181 -181l-181 -181q-19 -19 -19 -45q0 -27 19 -46l90 -90q19 -19 46 -19 q26 0 45 19l181 181l181 -181q19 -19 45 -19q27 0 46 19l90 90q19 19 19 46zM1536 640q0 -209 -103 -385.5t-279.5 -279.5t-385.5 -103t-385.5 103t-279.5 279.5t-103 385.5t103 385.5t279.5 279.5t385.5 103t385.5 -103t279.5 -279.5t103 -385.5z" fill="black" /></g></svg>