<svg width="2048" height="2048" viewBox="-256 -384 2048 2048" xmlns="http://www.w3.org/2000/svg"><g transform="scale(1 -1) translate(0 -1280)"><path d="M1097 457l-146 -146q-10 -10 -23 -10t-23 10l-137 137l-137 -137q-10 -10 -23 -10t-23 10l-146 146q-10 10 -10 23t10 23l137 137l-137 137q-10 10 -10 23t10 23l146 146q10 10 23 10t23 -10l137 -137l137 137q10 10 23 10t23 -10l146 -146q10 -10 10 -23t-10 -23 l-137 -137l137 -137q10 -10 10 -23t-10 -23zM1312 640q0 148 -73 273t-198 198t-273 73t-273 -73t-198 -198t-73 -273t73 -273t198 -198t273 -73t273 73t198 198t73 273zM1536 640q0 -209 -103 -385.5t-279.5 -279.5t-385.5 -103t-385.5 103t-279.5 279.5t-103 385.5 t103 385.5t279.5 279.5t385.5 103t385.5 -103t279.5 -279.5t103 -385.5z" fill="black" /></g></svg>