<?xml version="1.0" encoding="UTF-8"?>
<svg xmlns="http://www.w3.org/2000/svg" xmlns:xlink="http://www.w3.org/1999/xlink" width="2048" height="2048" viewBox="0 0 2048 2048" version="1.1">
<g>
<path d="M 1405 1250 C 1405 1232.667969 1398.667969 1217.667969 1386 1205 L 1205 1024 L 1386 843 C 1398.667969 830.332031 1405 815.332031 1405 798 C 1405 780 1398.667969 764.667969 1386 752 L 1296 662 C 1283.332031 649.332031 1268 643 1250 643 C 1232.667969 643 1217.667969 649.332031 1205 662 L 1024 843 L 843 662 C 830.332031 649.332031 815.332031 643 798 643 C 780 643 764.667969 649.332031 752 662 L 662 752 C 649.332031 764.667969 643 780 643 798 C 643 815.332031 649.332031 830.332031 662 843 L 843 1024 L 662 1205 C 649.332031 1217.667969 643 1232.667969 643 1250 C 643 1268 649.332031 1283.332031 662 1296 L 752 1386 C 764.667969 1398.667969 780 1405 798 1405 C 815.332031 1405 830.332031 1398.667969 843 1386 L 1024 1205 L 1205 1386 C 1217.667969 1398.667969 1232.667969 1405 1250 1405 C 1268 1405 1283.332031 1398.667969 1296 1386 L 1386 1296 C 1398.667969 1283.332031 1405 1268 1405 1250 Z M 1792 1024 C 1792 1163.332031 1757.667969 1291.832031 1689 1409.5 C 1620.332031 1527.167969 1527.167969 1620.332031 1409.5 1689 C 1291.832031 1757.667969 1163.332031 1792 1024 1792 C 884.667969 1792 756.167969 1757.667969 638.5 1689 C 520.832031 1620.332031 427.667969 1527.167969 359 1409.5 C 290.332031 1291.832031 256 1163.332031 256 1024 C 256 884.667969 290.332031 756.167969 359 638.5 C 427.667969 520.832031 520.832031 427.667969 638.5 359 C 756.167969 290.332031 884.667969 256 1024 256 C 1163.332031 256 1291.832031 290.332031 1409.5 359 C 1527.167969 427.667969 1620.332031 520.832031 1689 638.5 C 1757.667969 756.167969 1792 884.667969 1792 1024 Z M 1792 1024 "/>
</g>
</svg>
