<svg width="2048" height="2048" viewBox="-320 -384 2048 2048" xmlns="http://www.w3.org/2000/svg"><g transform="scale(1 -1) translate(0 -1280)"><path d="M512 800v-576q0 -14 -9 -23t-23 -9h-64q-14 0 -23 9t-9 23v576q0 14 9 23t23 9h64q14 0 23 -9t9 -23zM768 800v-576q0 -14 -9 -23t-23 -9h-64q-14 0 -23 9t-9 23v576q0 14 9 23t23 9h64q14 0 23 -9t9 -23zM1024 800v-576q0 -14 -9 -23t-23 -9h-64q-14 0 -23 9t-9 23v576 q0 14 9 23t23 9h64q14 0 23 -9t9 -23zM1152 76v948h-896v-948q0 -22 7 -40.5t14.5 -27t10.5 -8.5h832q3 0 10.5 8.5t14.5 27t7 40.5zM480 1152h448l-48 117q-7 9 -17 11h-317q-10 -2 -17 -11zM1408 1120v-64q0 -14 -9 -23t-23 -9h-96v-948q0 -83 -47 -143.5t-113 -60.5h-832 q-66 0 -113 58.5t-47 141.5v952h-96q-14 0 -23 9t-9 23v64q0 14 9 23t23 9h309l70 167q15 37 54 63t79 26h320q40 0 79 -26t54 -63l70 -167h309q14 0 23 -9t9 -23z" fill="black" /></g></svg>