<?xml version="1.0" encoding="UTF-8"?>
<svg xmlns="http://www.w3.org/2000/svg" xmlns:xlink="http://www.w3.org/1999/xlink" width="2048" height="2048" viewBox="0 0 2048 2048" version="1.1">
<g>
<path d="M 960 1472 L 960 448 C 960 438.667969 957 431 951 425 C 945 419 937.332031 416 928 416 L 448 416 C 438.667969 416 431 419 425 425 C 419 431 416 438.667969 416 448 L 416 1472 C 416 1481.332031 419 1489 425 1495 C 431 1501 438.667969 1504 448 1504 L 928 1504 C 937.332031 1504 945 1501 951 1495 C 957 1489 960 1481.332031 960 1472 Z M 1632 1088 L 1632 448 C 1632 438.667969 1629 431 1623 425 C 1617 419 1609.332031 416 1600 416 L 1120 416 C 1110.667969 416 1103 419 1097 425 C 1091 431 1088 438.667969 1088 448 L 1088 1088 C 1088 1097.332031 1091 1105 1097 1111 C 1103 1117 1110.667969 1120 1120 1120 L 1600 1120 C 1609.332031 1120 1617 1117 1623 1111 C 1629 1105 1632 1097.332031 1632 1088 Z M 1792 320 L 1792 1728 C 1792 1745.332031 1785.667969 1760.332031 1773 1773 C 1760.332031 1785.667969 1745.332031 1792 1728 1792 L 320 1792 C 302.667969 1792 287.667969 1785.667969 275 1773 C 262.332031 1760.332031 256 1745.332031 256 1728 L 256 320 C 256 302.667969 262.332031 287.667969 275 275 C 287.667969 262.332031 302.667969 256 320 256 L 1728 256 C 1745.332031 256 1760.332031 262.332031 1773 275 C 1785.667969 287.667969 1792 302.667969 1792 320 Z M 1792 320 "/>
</g>
</svg>
