<svg width="2048" height="2048" viewBox="-128 -384 2048 2048" xmlns="http://www.w3.org/2000/svg"><g transform="scale(1 -1) translate(0 -1280)"><path d="M640 128q0 52 -38 90t-90 38t-90 -38t-38 -90t38 -90t90 -38t90 38t38 90zM256 640h384v256h-158q-13 0 -22 -9l-195 -195q-9 -9 -9 -22v-30zM1536 128q0 52 -38 90t-90 38t-90 -38t-38 -90t38 -90t90 -38t90 38t38 90zM1792 1216v-1024q0 -15 -4 -26.5t-13.5 -18.5 t-16.5 -11.5t-23.5 -6t-22.5 -2t-25.5 0t-22.5 0.5q0 -106 -75 -181t-181 -75t-181 75t-75 181h-384q0 -106 -75 -181t-181 -75t-181 75t-75 181h-64q-3 0 -22.5 -0.5t-25.5 0t-22.5 2t-23.5 6t-16.5 11.5t-13.5 18.5t-4 26.5q0 26 19 45t45 19v320q0 8 -0.5 35t0 38 t2.5 34.5t6.5 37t14 30.5t22.5 30l198 198q19 19 50.5 32t58.5 13h160v192q0 26 19 45t45 19h1024q26 0 45 -19t19 -45z" fill="black" /></g></svg>