<svg width="2048" height="2048" viewBox="-256 -384 2048 2048" xmlns="http://www.w3.org/2000/svg"><g transform="scale(1 -1) translate(0 -1280)"><path d="M1123 127v181q-88 -56 -174 -56q-51 0 -88 23q-29 17 -39 45q-11 30 -11 129v295h274v181h-274v291h-164q-11 -90 -40 -147t-78 -99q-48 -40 -116 -63v-163h127v-404q0 -78 17 -121q17 -42 59 -78q43 -37 104 -57q62 -20 140 -20q67 0 129 14q57 13 134 49zM1536 1120 v-960q0 -119 -84.5 -203.5t-203.5 -84.5h-960q-119 0 -203.5 84.5t-84.5 203.5v960q0 119 84.5 203.5t203.5 84.5h960q119 0 203.5 -84.5t84.5 -203.5z" fill="black" /></g></svg>