<?xml version="1.0" encoding="UTF-8"?>
<svg xmlns="http://www.w3.org/2000/svg" xmlns:xlink="http://www.w3.org/1999/xlink" width="2048" height="2048" viewBox="0 0 2048 2048" version="1.1">
<g>
<path d="M 902 256 L 1121 256 L 1121 644 L 1485 644 L 1485 885 L 1121 885 L 1121 1279 C 1121 1369.667969 1125.667969 1427 1135 1451 C 1143.667969 1475.667969 1161 1495.667969 1187 1511 C 1220.332031 1531.667969 1259.332031 1542 1304 1542 C 1382 1542 1459.332031 1516.667969 1536 1466 L 1536 1708 C 1468 1740 1408.667969 1761.667969 1358 1773 C 1306.667969 1785.667969 1249 1792 1185 1792 C 1115 1792 1053 1783 999 1765 C 947 1748.332031 901 1723.332031 861 1690 C 822.332031 1656 796 1621 782 1585 C 767.332031 1549 760 1495.332031 760 1424 L 760 885 L 590 885 L 590 668 C 650.667969 648 702.332031 620 745 584 C 787.667969 547.332031 822 503.332031 848 452 C 874 400 892 334.667969 902 256 Z M 902 256 "/>
</g>
</svg>
