<?xml version="1.0" encoding="UTF-8"?>
<svg xmlns="http://www.w3.org/2000/svg" xmlns:xlink="http://www.w3.org/1999/xlink" width="2048" height="2048" viewBox="0 0 2048 2048" version="1.1">
<g>
<path d="M 304 351 C 279.332031 349.667969 264.332031 348.332031 259 347 L 256 259 C 264.667969 258.332031 278 258 296 258 C 336 258 373.332031 259.332031 408 262 C 496 266.667969 551.332031 269 574 269 C 631.332031 269 687.332031 268 742 266 C 819.332031 263.332031 868 261.667969 888 261 C 925.332031 261 954 260.332031 974 259 L 973 273 L 975 337 L 975 346 C 935 352 893.667969 355 851 355 C 811 355 784.667969 363.332031 772 380 C 763.332031 389.332031 759 433.332031 759 512 C 759 520.667969 759.167969 531.5 759.5 544.5 C 759.832031 557.5 760 566 760 570 L 761 799 L 775 1079 C 779 1161.667969 796 1229 826 1281 C 849.332031 1320.332031 881.332031 1351 922 1373 C 980.667969 1404.332031 1039.667969 1420 1099 1420 C 1168.332031 1420 1232 1410.667969 1290 1392 C 1327.332031 1380 1360.332031 1363 1389 1341 C 1421 1317 1442.667969 1295.667969 1454 1277 C 1478 1239.667969 1495.667969 1201.667969 1507 1163 C 1521 1114.332031 1528 1038 1528 934 C 1528 881.332031 1526.832031 838.667969 1524.5 806 C 1522.167969 773.332031 1518.5 732.5 1513.5 683.5 C 1508.5 634.5 1504 581.332031 1500 524 L 1496 465 C 1492.667969 420.332031 1484.667969 391 1472 377 C 1449.332031 353.667969 1423.667969 342.332031 1395 343 L 1295 345 L 1281 342 L 1283 256 L 1367 256 L 1572 266 C 1622.667969 268 1688 264.667969 1768 256 L 1786 258 C 1790 283.332031 1792 300.332031 1792 309 C 1792 313.667969 1790.667969 324 1788 340 C 1758 348 1730 352.332031 1704 353 C 1655.332031 360.332031 1629 366 1625 370 C 1615 380 1610 393.667969 1610 411 C 1610 415.667969 1610.5 424.667969 1611.5 438 C 1612.5 451.332031 1613 461.667969 1613 469 C 1618.332031 481.667969 1625.667969 613.667969 1635 865 C 1639 995 1634 1096.332031 1620 1169 C 1610 1219.667969 1596.332031 1260.332031 1579 1291 C 1553.667969 1334.332031 1516.332031 1375.332031 1467 1414 C 1417 1452 1356.332031 1481.667969 1285 1503 C 1212.332031 1525 1127.332031 1536 1030 1536 C 918.667969 1536 824 1520.667969 746 1490 C 666.667969 1458.667969 607 1418 567 1368 C 526.332031 1317.332031 498.667969 1252.332031 484 1173 C 473.332031 1119.667969 468 1040.667969 468 936 L 468 603 C 468 477.667969 462.332031 406.667969 451 390 C 434.332031 366 385.332031 353 304 351 Z M 1792 1760 L 1792 1696 C 1792 1686.667969 1789 1679 1783 1673 C 1777 1667 1769.332031 1664 1760 1664 L 288 1664 C 278.667969 1664 271 1667 265 1673 C 259 1679 256 1686.667969 256 1696 L 256 1760 C 256 1769.332031 259 1777 265 1783 C 271 1789 278.667969 1792 288 1792 L 1760 1792 C 1769.332031 1792 1777 1789 1783 1783 C 1789 1777 1792 1769.332031 1792 1760 Z M 1792 1760 "/>
</g>
</svg>
