<?xml version="1.0" encoding="UTF-8"?>
<svg xmlns="http://www.w3.org/2000/svg" xmlns:xlink="http://www.w3.org/1999/xlink" width="2048" height="2048" viewBox="0 0 2048 2048" version="1.1">
<g>
<path d="M 1792 1024 C 1792 1128 1771.667969 1227.332031 1731 1322 C 1690.332031 1416.667969 1635.667969 1498.332031 1567 1567 C 1498.332031 1635.667969 1416.667969 1690.332031 1322 1731 C 1227.332031 1771.667969 1128 1792 1024 1792 C 909.332031 1792 800.332031 1767.832031 697 1719.5 C 593.667969 1671.167969 505.667969 1603 433 1515 C 428.332031 1508.332031 426.167969 1500.832031 426.5 1492.5 C 426.832031 1484.167969 429.667969 1477.332031 435 1472 L 572 1334 C 578.667969 1328 587 1325 597 1325 C 607.667969 1326.332031 615.332031 1330.332031 620 1337 C 668.667969 1400.332031 728.332031 1449.332031 799 1484 C 869.667969 1518.667969 944.667969 1536 1024 1536 C 1093.332031 1536 1159.5 1522.5 1222.5 1495.5 C 1285.5 1468.5 1340 1432 1386 1386 C 1432 1340 1468.5 1285.5 1495.5 1222.5 C 1522.5 1159.5 1536 1093.332031 1536 1024 C 1536 954.667969 1522.5 888.5 1495.5 825.5 C 1468.5 762.5 1432 708 1386 662 C 1340 616 1285.5 579.5 1222.5 552.5 C 1159.5 525.5 1093.332031 512 1024 512 C 958.667969 512 896 523.832031 836 547.5 C 776 571.167969 722.667969 605 676 649 L 813 787 C 833.667969 807 838.332031 830 827 856 C 815.667969 882.667969 796 896 768 896 L 320 896 C 302.667969 896 287.667969 889.667969 275 877 C 262.332031 864.332031 256 849.332031 256 832 L 256 384 C 256 356 269.332031 336.332031 296 325 C 322 313.667969 345 318.332031 365 339 L 495 468 C 566.332031 400.667969 647.832031 348.5 739.5 311.5 C 831.167969 274.5 926 256 1024 256 C 1128 256 1227.332031 276.332031 1322 317 C 1416.667969 357.667969 1498.332031 412.332031 1567 481 C 1635.667969 549.667969 1690.332031 631.332031 1731 726 C 1771.667969 820.667969 1792 920 1792 1024 Z M 1792 1024 "/>
</g>
</svg>
