<?xml version="1.0" encoding="UTF-8"?>
<svg xmlns="http://www.w3.org/2000/svg" xmlns:xlink="http://www.w3.org/1999/xlink" width="2048" height="2048" viewBox="0 0 2048 2048" version="1.1">
<g>
<path d="M 1504 896 C 1530.667969 896 1553.332031 905.332031 1572 924 C 1590.667969 942.667969 1600 965.332031 1600 992 L 1600 1568 C 1600 1594.667969 1590.667969 1617.332031 1572 1636 C 1553.332031 1654.667969 1530.667969 1664 1504 1664 L 544 1664 C 517.332031 1664 494.667969 1654.667969 476 1636 C 457.332031 1617.332031 448 1594.667969 448 1568 L 448 992 C 448 965.332031 457.332031 942.667969 476 924 C 494.667969 905.332031 517.332031 896 544 896 L 576 896 L 576 576 C 576 452.667969 619.832031 347.167969 707.5 259.5 C 795.167969 171.832031 900.667969 128 1024 128 C 1147.332031 128 1252.832031 171.832031 1340.5 259.5 C 1428.167969 347.167969 1472 452.667969 1472 576 C 1472 593.332031 1465.667969 608.332031 1453 621 C 1440.332031 633.667969 1425.332031 640 1408 640 L 1344 640 C 1326.667969 640 1311.667969 633.667969 1299 621 C 1286.332031 608.332031 1280 593.332031 1280 576 C 1280 505.332031 1255 445 1205 395 C 1155 345 1094.667969 320 1024 320 C 953.332031 320 893 345 843 395 C 793 445 768 505.332031 768 576 L 768 896 Z M 1504 896 "/>
</g>
</svg>
