<?xml version="1.0" encoding="UTF-8"?>
<svg xmlns="http://www.w3.org/2000/svg" xmlns:xlink="http://www.w3.org/1999/xlink" width="2048" height="2048" viewBox="0 0 2048 2048" version="1.1">
<g>
<path d="M 1472 1600 C 1472 1582.667969 1465.667969 1567.667969 1453 1555 C 1440.332031 1542.332031 1425.332031 1536 1408 1536 C 1390.667969 1536 1375.667969 1542.332031 1363 1555 C 1350.332031 1567.667969 1344 1582.667969 1344 1600 C 1344 1617.332031 1350.332031 1632.332031 1363 1645 C 1375.667969 1657.667969 1390.667969 1664 1408 1664 C 1425.332031 1664 1440.332031 1657.667969 1453 1645 C 1465.667969 1632.332031 1472 1617.332031 1472 1600 Z M 1728 1600 C 1728 1582.667969 1721.667969 1567.667969 1709 1555 C 1696.332031 1542.332031 1681.332031 1536 1664 1536 C 1646.667969 1536 1631.667969 1542.332031 1619 1555 C 1606.332031 1567.667969 1600 1582.667969 1600 1600 C 1600 1617.332031 1606.332031 1632.332031 1619 1645 C 1631.667969 1657.667969 1646.667969 1664 1664 1664 C 1681.332031 1664 1696.332031 1657.667969 1709 1645 C 1721.667969 1632.332031 1728 1617.332031 1728 1600 Z M 1856 1376 L 1856 1696 C 1856 1722.667969 1846.667969 1745.332031 1828 1764 C 1809.332031 1782.667969 1786.667969 1792 1760 1792 L 288 1792 C 261.332031 1792 238.667969 1782.667969 220 1764 C 201.332031 1745.332031 192 1722.667969 192 1696 L 192 1376 C 192 1349.332031 201.332031 1326.667969 220 1308 C 238.667969 1289.332031 261.332031 1280 288 1280 L 715 1280 C 729 1317.332031 752.5 1348 785.5 1372 C 818.5 1396 855.332031 1408 896 1408 L 1152 1408 C 1192.667969 1408 1229.5 1396 1262.5 1372 C 1295.5 1348 1319 1317.332031 1333 1280 L 1760 1280 C 1786.667969 1280 1809.332031 1289.332031 1828 1308 C 1846.667969 1326.667969 1856 1349.332031 1856 1376 Z M 1531 728 C 1519.667969 754.667969 1500 768 1472 768 L 1216 768 L 1216 1216 C 1216 1233.332031 1209.667969 1248.332031 1197 1261 C 1184.332031 1273.667969 1169.332031 1280 1152 1280 L 896 1280 C 878.667969 1280 863.667969 1273.667969 851 1261 C 838.332031 1248.332031 832 1233.332031 832 1216 L 832 768 L 576 768 C 548 768 528.332031 754.667969 517 728 C 505.667969 702 510.332031 679 531 659 L 979 211 C 991 198.332031 1006 192 1024 192 C 1042 192 1057 198.332031 1069 211 L 1517 659 C 1537.667969 679 1542.332031 702 1531 728 Z M 1531 728 "/>
</g>
</svg>
