<svg width="2048" height="2048" viewBox="-512 -384 2048 2048" xmlns="http://www.w3.org/2000/svg"><g transform="scale(1 -1) translate(0 -1280)"><path d="M978 351q0 -153 -99.5 -263.5t-258.5 -136.5v-175q0 -14 -9 -23t-23 -9h-135q-13 0 -22.5 9.5t-9.5 22.5v175q-66 9 -127.5 31t-101.5 44.5t-74 48t-46.5 37.5t-17.5 18q-17 21 -2 41l103 135q7 10 23 12q15 2 24 -9l2 -2q113 -99 243 -125q37 -8 74 -8q81 0 142.5 43 t61.5 122q0 28 -15 53t-33.5 42t-58.5 37.5t-66 32t-80 32.5q-39 16 -61.5 25t-61.5 26.5t-62.5 31t-56.5 35.5t-53.5 42.5t-43.5 49t-35.5 58t-21 66.5t-8.5 78q0 138 98 242t255 134v180q0 13 9.5 22.5t22.5 9.5h135q14 0 23 -9t9 -23v-176q57 -6 110.5 -23t87 -33.5 t63.5 -37.5t39 -29t15 -14q17 -18 5 -38l-81 -146q-8 -15 -23 -16q-14 -3 -27 7q-3 3 -14.5 12t-39 26.5t-58.5 32t-74.5 26t-85.5 11.5q-95 0 -155 -43t-60 -111q0 -26 8.5 -48t29.5 -41.5t39.5 -33t56 -31t60.5 -27t70 -27.5q53 -20 81 -31.5t76 -35t75.5 -42.5t62 -50 t53 -63.5t31.5 -76.5t13 -94z" fill="black" /></g></svg>