<?xml version="1.0" encoding="UTF-8"?>
<svg xmlns="http://www.w3.org/2000/svg" xmlns:xlink="http://www.w3.org/1999/xlink" width="2048" height="2048" viewBox="0 0 2048 2048" version="1.1">
<g>
<path d="M 1490 1313 C 1490 1415 1456.832031 1502.832031 1390.5 1576.5 C 1324.167969 1650.167969 1238 1695.667969 1132 1713 L 1132 1888 C 1132 1897.332031 1129 1905 1123 1911 C 1117 1917 1109.332031 1920 1100 1920 L 965 1920 C 956.332031 1920 948.832031 1916.832031 942.5 1910.5 C 936.167969 1904.167969 933 1896.667969 933 1888 L 933 1713 C 889 1707 846.5 1696.667969 805.5 1682 C 764.5 1667.332031 730.667969 1652.5 704 1637.5 C 677.332031 1622.5 652.667969 1606.5 630 1589.5 C 607.332031 1572.5 591.832031 1560 583.5 1552 C 575.167969 1544 569.332031 1538 566 1534 C 554.667969 1520 554 1506.332031 564 1493 L 667 1358 C 671.667969 1351.332031 679.332031 1347.332031 690 1346 C 700 1344.667969 708 1347.667969 714 1355 L 716 1357 C 791.332031 1423 872.332031 1464.667969 959 1482 C 983.667969 1487.332031 1008.332031 1490 1033 1490 C 1087 1490 1134.5 1475.667969 1175.5 1447 C 1216.5 1418.332031 1237 1377.667969 1237 1325 C 1237 1306.332031 1232 1288.667969 1222 1272 C 1212 1255.332031 1200.832031 1241.332031 1188.5 1230 C 1176.167969 1218.667969 1156.667969 1206.167969 1130 1192.5 C 1103.332031 1178.832031 1081.332031 1168.167969 1064 1160.5 C 1046.667969 1152.832031 1020 1142 984 1128 C 958 1117.332031 937.5 1109 922.5 1103 C 907.5 1097 887 1088.167969 861 1076.5 C 835 1064.832031 814.167969 1054.5 798.5 1045.5 C 782.832031 1036.5 764 1024.667969 742 1010 C 720 995.332031 702.167969 981.167969 688.5 967.5 C 674.832031 953.832031 660.332031 937.5 645 918.5 C 629.667969 899.5 617.832031 880.167969 609.5 860.5 C 601.167969 840.832031 594.167969 818.667969 588.5 794 C 582.832031 769.332031 580 743.332031 580 716 C 580 624 612.667969 543.332031 678 474 C 743.332031 404.667969 828.332031 360 933 340 L 933 160 C 933 151.332031 936.167969 143.832031 942.5 137.5 C 948.832031 131.167969 956.332031 128 965 128 L 1100 128 C 1109.332031 128 1117 131 1123 137 C 1129 143 1132 150.667969 1132 160 L 1132 336 C 1170 340 1206.832031 347.667969 1242.5 359 C 1278.167969 370.332031 1307.167969 381.5 1329.5 392.5 C 1351.832031 403.5 1373 416 1393 430 C 1413 444 1426 453.667969 1432 459 C 1438 464.332031 1443 469 1447 473 C 1458.332031 485 1460 497.667969 1452 511 L 1371 657 C 1365.667969 667 1358 672.332031 1348 673 C 1338.667969 675 1329.667969 672.667969 1321 666 C 1319 664 1314.167969 660 1306.5 654 C 1298.832031 648 1285.832031 639.167969 1267.5 627.5 C 1249.167969 615.832031 1229.667969 605.167969 1209 595.5 C 1188.332031 585.832031 1163.5 577.167969 1134.5 569.5 C 1105.5 561.832031 1077 558 1049 558 C 985.667969 558 934 572.332031 894 601 C 854 629.667969 834 666.667969 834 712 C 834 729.332031 836.832031 745.332031 842.5 760 C 848.167969 774.667969 858 788.5 872 801.5 C 886 814.5 899.167969 825.5 911.5 834.5 C 923.832031 843.5 942.5 853.832031 967.5 865.5 C 992.5 877.167969 1012.667969 886.167969 1028 892.5 C 1043.332031 898.832031 1066.667969 908 1098 920 C 1133.332031 933.332031 1160.332031 943.832031 1179 951.5 C 1197.667969 959.167969 1223 970.832031 1255 986.5 C 1287 1002.167969 1312.167969 1016.332031 1330.5 1029 C 1348.832031 1041.667969 1369.5 1058.332031 1392.5 1079 C 1415.5 1099.667969 1433.167969 1120.832031 1445.5 1142.5 C 1457.832031 1164.167969 1468.332031 1189.667969 1477 1219 C 1485.667969 1248.332031 1490 1279.667969 1490 1313 Z M 1490 1313 "/>
</g>
</svg>
