<svg width="2048" height="2048" viewBox="-64 -384 2048 2048" xmlns="http://www.w3.org/2000/svg"><g transform="scale(1 -1) translate(0 -1280)"><path d="M593 640q-162 -5 -265 -128h-134q-82 0 -138 40.5t-56 118.5q0 353 124 353q6 0 43.5 -21t97.5 -42.5t119 -21.5q67 0 133 23q-5 -37 -5 -66q0 -139 81 -256zM1664 3q0 -120 -73 -189.5t-194 -69.5h-874q-121 0 -194 69.5t-73 189.5q0 53 3.5 103.5t14 109t26.5 108.5 t43 97.5t62 81t85.5 53.5t111.5 20q10 0 43 -21.5t73 -48t107 -48t135 -21.5t135 21.5t107 48t73 48t43 21.5q61 0 111.5 -20t85.5 -53.5t62 -81t43 -97.5t26.5 -108.5t14 -109t3.5 -103.5zM640 1280q0 -106 -75 -181t-181 -75t-181 75t-75 181t75 181t181 75t181 -75 t75 -181zM1344 896q0 -159 -112.5 -271.5t-271.5 -112.5t-271.5 112.5t-112.5 271.5t112.5 271.5t271.5 112.5t271.5 -112.5t112.5 -271.5zM1920 671q0 -78 -56 -118.5t-138 -40.5h-134q-103 123 -265 128q81 117 81 256q0 29 -5 66q66 -23 133 -23q59 0 119 21.5t97.5 42.5 t43.5 21q124 0 124 -353zM1792 1280q0 -106 -75 -181t-181 -75t-181 75t-75 181t75 181t181 75t181 -75t75 -181z" fill="black" /></g></svg>