<?xml version="1.0" encoding="UTF-8"?>
<svg xmlns="http://www.w3.org/2000/svg" xmlns:xlink="http://www.w3.org/1999/xlink" width="2048" height="2048" viewBox="0 0 2048 2048" version="1.1">
<g>
<path d="M 704 1472 C 704 1489.332031 697.667969 1504.332031 685 1517 C 672.332031 1529.667969 657.332031 1536 640 1536 C 622.667969 1536 607.667969 1529.667969 595 1517 C 582.332031 1504.332031 576 1489.332031 576 1472 C 576 1454.667969 582.332031 1439.667969 595 1427 C 607.667969 1414.332031 622.667969 1408 640 1408 C 657.332031 1408 672.332031 1414.332031 685 1427 C 697.667969 1439.667969 704 1454.667969 704 1472 Z M 1728 1533 C 1728 1613.667969 1703.667969 1677 1655 1723 C 1606.332031 1769 1541.667969 1792 1461 1792 L 587 1792 C 506.332031 1792 441.667969 1769 393 1723 C 344.332031 1677 320 1613.667969 320 1533 C 320 1487.667969 321.832031 1444 325.5 1402 C 329.167969 1360 337.167969 1314 349.5 1264 C 361.832031 1214 377.667969 1169.832031 397 1131.5 C 416.332031 1093.167969 443.332031 1058.832031 478 1028.5 C 512.667969 998.167969 552.667969 978 598 968 C 583.332031 1002.667969 576 1042.667969 576 1088 L 576 1291 C 537.332031 1304.332031 506.332031 1327.667969 483 1361 C 459.667969 1394.332031 448 1431.332031 448 1472 C 448 1525.332031 466.667969 1570.667969 504 1608 C 541.332031 1645.332031 586.667969 1664 640 1664 C 693.332031 1664 738.667969 1645.332031 776 1608 C 813.332031 1570.667969 832 1525.332031 832 1472 C 832 1431.332031 820.167969 1394.332031 796.5 1361 C 772.832031 1327.667969 742 1304.332031 704 1291 L 704 1088 C 704 1046.667969 712.332031 1015.667969 729 995 C 817 1064.332031 915.332031 1099 1024 1099 C 1132.667969 1099 1231 1064.332031 1319 995 C 1335.667969 1015.667969 1344 1046.667969 1344 1088 L 1344 1152 C 1273.332031 1152 1213 1177 1163 1227 C 1113 1277 1088 1337.332031 1088 1408 L 1088 1497 C 1066.667969 1516.332031 1056 1540 1056 1568 C 1056 1594.667969 1065.332031 1617.332031 1084 1636 C 1102.667969 1654.667969 1125.332031 1664 1152 1664 C 1178.667969 1664 1201.332031 1654.667969 1220 1636 C 1238.667969 1617.332031 1248 1594.667969 1248 1568 C 1248 1540 1237.332031 1516.332031 1216 1497 L 1216 1408 C 1216 1373.332031 1228.667969 1343.332031 1254 1318 C 1279.332031 1292.667969 1309.332031 1280 1344 1280 C 1378.667969 1280 1408.667969 1292.667969 1434 1318 C 1459.332031 1343.332031 1472 1373.332031 1472 1408 L 1472 1497 C 1450.667969 1516.332031 1440 1540 1440 1568 C 1440 1594.667969 1449.332031 1617.332031 1468 1636 C 1486.667969 1654.667969 1509.332031 1664 1536 1664 C 1562.667969 1664 1585.332031 1654.667969 1604 1636 C 1622.667969 1617.332031 1632 1594.667969 1632 1568 C 1632 1540 1621.332031 1516.332031 1600 1497 L 1600 1408 C 1600 1362.667969 1588.5 1320.167969 1565.5 1280.5 C 1542.5 1240.832031 1511.332031 1209.667969 1472 1187 C 1472 1180.332031 1472.167969 1166.167969 1472.5 1144.5 C 1472.832031 1122.832031 1472.832031 1106.832031 1472.5 1096.5 C 1472.167969 1086.167969 1471.332031 1072.332031 1470 1055 C 1468.667969 1037.667969 1466.332031 1022 1463 1008 C 1459.667969 994 1455.332031 980.667969 1450 968 C 1495.332031 978 1535.332031 998.167969 1570 1028.5 C 1604.667969 1058.832031 1631.667969 1093.167969 1651 1131.5 C 1670.332031 1169.832031 1686.167969 1214 1698.5 1264 C 1710.832031 1314 1718.832031 1360 1722.5 1402 C 1726.167969 1444 1728 1487.667969 1728 1533 Z M 1408 640 C 1408 746 1370.5 836.5 1295.5 911.5 C 1220.5 986.5 1130 1024 1024 1024 C 918 1024 827.5 986.5 752.5 911.5 C 677.5 836.5 640 746 640 640 C 640 534 677.5 443.5 752.5 368.5 C 827.5 293.5 918 256 1024 256 C 1130 256 1220.5 293.5 1295.5 368.5 C 1370.5 443.5 1408 534 1408 640 Z M 1408 640 "/>
</g>
</svg>
