<?xml version="1.0" encoding="UTF-8"?>
<svg xmlns="http://www.w3.org/2000/svg" xmlns:xlink="http://www.w3.org/1999/xlink" width="2048" height="2048" viewBox="0 0 2048 2048" version="1.1">
<g>
<path d="M 1728 1533 C 1728 1613 1703.667969 1676.167969 1655 1722.5 C 1606.332031 1768.832031 1541.667969 1792 1461 1792 L 587 1792 C 506.332031 1792 441.667969 1768.832031 393 1722.5 C 344.332031 1676.167969 320 1613 320 1533 C 320 1497.667969 321.167969 1463.167969 323.5 1429.5 C 325.832031 1395.832031 330.5 1359.5 337.5 1320.5 C 344.5 1281.5 353.332031 1245.332031 364 1212 C 374.667969 1178.667969 389 1146.167969 407 1114.5 C 425 1082.832031 445.667969 1055.832031 469 1033.5 C 492.332031 1011.167969 520.832031 993.332031 554.5 980 C 588.167969 966.667969 625.332031 960 666 960 C 672 960 686 967.167969 708 981.5 C 730 995.832031 754.832031 1011.832031 782.5 1029.5 C 810.167969 1047.167969 846.167969 1063.167969 890.5 1077.5 C 934.832031 1091.832031 979.332031 1099 1024 1099 C 1068.667969 1099 1113.167969 1091.832031 1157.5 1077.5 C 1201.832031 1063.167969 1237.832031 1047.167969 1265.5 1029.5 C 1293.167969 1011.832031 1318 995.832031 1340 981.5 C 1362 967.167969 1376 960 1382 960 C 1422.667969 960 1459.832031 966.667969 1493.5 980 C 1527.167969 993.332031 1555.667969 1011.167969 1579 1033.5 C 1602.332031 1055.832031 1623 1082.832031 1641 1114.5 C 1659 1146.167969 1673.332031 1178.667969 1684 1212 C 1694.667969 1245.332031 1703.5 1281.5 1710.5 1320.5 C 1717.5 1359.5 1722.167969 1395.832031 1724.5 1429.5 C 1726.832031 1463.167969 1728 1497.667969 1728 1533 Z M 1408 640 C 1408 746 1370.5 836.5 1295.5 911.5 C 1220.5 986.5 1130 1024 1024 1024 C 918 1024 827.5 986.5 752.5 911.5 C 677.5 836.5 640 746 640 640 C 640 534 677.5 443.5 752.5 368.5 C 827.5 293.5 918 256 1024 256 C 1130 256 1220.5 293.5 1295.5 368.5 C 1370.5 443.5 1408 534 1408 640 Z M 1408 640 "/>
</g>
</svg>
