<?xml version="1.0" encoding="utf-8"?>
<svg width="2048" height="1792" viewBox="0 0 2048 1792" xmlns="http://www.w3.org/2000/svg"><path d="M1024 1131q0 64-37 106.5t-91 42.5h-512q-54 0-91-42.5t-37-106.5 9-117.5 29.5-103 60.5-78 97-28.5q6 4 30 18t37.5 21.5 35.5 17.5 43 14.5 42 4.5 42-4.5 43-14.5 35.5-17.5 37.5-21.5 30-18q57 0 97 28.5t60.5 78 29.5 103 9 117.5zm-157-520q0 94-66.5 160.5t-160.5 66.5-160.5-66.5-66.5-160.5 66.5-160.5 160.5-66.5 160.5 66.5 66.5 160.5zm925 445v64q0 14-9 23t-23 9h-576q-14 0-23-9t-9-23v-64q0-14 9-23t23-9h576q14 0 23 9t9 23zm0-252v56q0 15-10.5 25.5t-25.5 10.5h-568q-15 0-25.5-10.5t-10.5-25.5v-56q0-15 10.5-25.5t25.5-10.5h568q15 0 25.5 10.5t10.5 25.5zm0-260v64q0 14-9 23t-23 9h-576q-14 0-23-9t-9-23v-64q0-14 9-23t23-9h576q14 0 23 9t9 23zm128 960v-1216q0-13-9.5-22.5t-22.5-9.5h-1728q-13 0-22.5 9.5t-9.5 22.5v1216q0 13 9.5 22.5t22.5 9.5h352v-96q0-14 9-23t23-9h64q14 0 23 9t9 23v96h768v-96q0-14 9-23t23-9h64q14 0 23 9t9 23v96h352q13 0 22.5-9.5t9.5-22.5zm128-1216v1216q0 66-47 113t-113 47h-1728q-66 0-113-47t-47-113v-1216q0-66 47-113t113-47h1728q66 0 113 47t47 113z"/></svg>