<?xml version="1.0" encoding="UTF-8"?>
<svg xmlns="http://www.w3.org/2000/svg" xmlns:xlink="http://www.w3.org/1999/xlink" width="2048" height="2048" viewBox="0 0 2048 2048" version="1.1">
<g>
<path d="M 1920 480 L 1920 1568 C 1920 1596 1907 1615.667969 1881 1627 C 1872.332031 1630.332031 1864 1632 1856 1632 C 1838 1632 1823 1625.667969 1811 1613 L 1408 1210 L 1408 1376 C 1408 1455.332031 1379.832031 1523.167969 1323.5 1579.5 C 1267.167969 1635.832031 1199.332031 1664 1120 1664 L 416 1664 C 336.667969 1664 268.832031 1635.832031 212.5 1579.5 C 156.167969 1523.167969 128 1455.332031 128 1376 L 128 672 C 128 592.667969 156.167969 524.832031 212.5 468.5 C 268.832031 412.167969 336.667969 384 416 384 L 1120 384 C 1199.332031 384 1267.167969 412.167969 1323.5 468.5 C 1379.832031 524.832031 1408 592.667969 1408 672 L 1408 837 L 1811 435 C 1823 422.332031 1838 416 1856 416 C 1864 416 1872.332031 417.667969 1881 421 C 1907 432.332031 1920 452 1920 480 Z M 1920 480 "/>
</g>
</svg>
