<svg width="2048" height="2048" viewBox="-64 -384 2048 2048" xmlns="http://www.w3.org/2000/svg"><g transform="scale(1 -1) translate(0 -1280)"><path d="M1917 1016q23 -64 -150 -294q-24 -32 -65 -85q-78 -100 -90 -131q-17 -41 14 -81q17 -21 81 -82h1l1 -1l1 -1l2 -2q141 -131 191 -221q3 -5 6.5 -12.5t7 -26.5t-0.5 -34t-25 -27.5t-59 -12.5l-256 -4q-24 -5 -56 5t-52 22l-20 12q-30 21 -70 64t-68.5 77.5t-61 58 t-56.5 15.5q-3 -1 -8 -3.5t-17 -14.5t-21.5 -29.5t-17 -52t-6.5 -77.5q0 -15 -3.5 -27.5t-7.5 -18.5l-4 -5q-18 -19 -53 -22h-115q-71 -4 -146 16.5t-131.5 53t-103 66t-70.5 57.5l-25 24q-10 10 -27.5 30t-71.5 91t-106 151t-122.5 211t-130.5 272q-6 16 -6 27t3 16l4 6 q15 19 57 19l274 2q12 -2 23 -6.5t16 -8.5l5 -3q16 -11 24 -32q20 -50 46 -103.5t41 -81.5l16 -29q29 -60 56 -104t48.5 -68.5t41.5 -38.5t34 -14t27 5q2 1 5 5t12 22t13.5 47t9.5 81t0 125q-2 40 -9 73t-14 46l-6 12q-25 34 -85 43q-13 2 5 24q17 19 38 30q53 26 239 24 q82 -1 135 -13q20 -5 33.5 -13.5t20.5 -24t10.5 -32t3.5 -45.5t-1 -55t-2.5 -70.5t-1.5 -82.5q0 -11 -1 -42t-0.5 -48t3.5 -40.5t11.5 -39t22.5 -24.5q8 -2 17 -4t26 11t38 34.5t52 67t68 107.5q60 104 107 225q4 10 10 17.5t11 10.5l4 3l5 2.5t13 3t20 0.5l288 2 q39 5 64 -2.5t31 -16.5z" fill="black" /></g></svg>