<?xml version="1.0" encoding="UTF-8"?>
<svg xmlns="http://www.w3.org/2000/svg" xmlns:xlink="http://www.w3.org/1999/xlink" width="2048" height="2048" viewBox="0 0 2048 2048" version="1.1">
<g>
<path d="M 1981 648 C 1996.332031 690.667969 1946.332031 788.667969 1831 942 C 1815 963.332031 1793.332031 991.667969 1766 1027 C 1714 1093.667969 1684 1137.332031 1676 1158 C 1664.667969 1185.332031 1669.332031 1212.332031 1690 1239 C 1701.332031 1253 1728.332031 1280.332031 1771 1321 L 1772 1321 L 1776 1325 C 1870 1412.332031 1933.667969 1486 1967 1546 C 1969 1549.332031 1971.167969 1553.5 1973.5 1558.5 C 1975.832031 1563.5 1978.167969 1572.332031 1980.5 1585 C 1982.832031 1597.667969 1982.667969 1609 1980 1619 C 1977.332031 1629 1969 1638.167969 1955 1646.5 C 1941 1654.832031 1921.332031 1659 1896 1659 L 1640 1663 C 1624 1666.332031 1605.332031 1664.667969 1584 1658 C 1562.667969 1651.332031 1545.332031 1644 1532 1636 L 1512 1624 C 1492 1610 1468.667969 1588.667969 1442 1560 C 1415.332031 1531.332031 1392.5 1505.5 1373.5 1482.5 C 1354.5 1459.5 1334.167969 1440.167969 1312.5 1424.5 C 1290.832031 1408.832031 1272 1403.667969 1256 1409 C 1254 1409.667969 1251.332031 1410.832031 1248 1412.5 C 1244.667969 1414.167969 1239 1419 1231 1427 C 1223 1435 1215.832031 1444.832031 1209.5 1456.5 C 1203.167969 1468.167969 1197.5 1485.5 1192.5 1508.5 C 1187.5 1531.5 1185.332031 1557.332031 1186 1586 C 1186 1596 1184.832031 1605.167969 1182.5 1613.5 C 1180.167969 1621.832031 1177.667969 1628 1175 1632 L 1171 1637 C 1159 1649.667969 1141.332031 1657 1118 1659 L 1003 1659 C 955.667969 1661.667969 907 1656.167969 857 1642.5 C 807 1628.832031 763.167969 1611.167969 725.5 1589.5 C 687.832031 1567.832031 653.5 1545.832031 622.5 1523.5 C 591.5 1501.167969 568 1482 552 1466 L 527 1442 C 520.332031 1435.332031 511.167969 1425.332031 499.5 1412 C 487.832031 1398.667969 464 1368.332031 428 1321 C 392 1273.667969 356.667969 1223.332031 322 1170 C 287.332031 1116.667969 246.5 1046.332031 199.5 959 C 152.5 871.667969 109 781 69 687 C 65 676.332031 63 667.332031 63 660 C 63 652.667969 64 647.332031 66 644 L 70 638 C 80 625.332031 99 619 127 619 L 401 617 C 409 618.332031 416.667969 620.5 424 623.5 C 431.332031 626.5 436.667969 629.332031 440 632 L 445 635 C 455.667969 642.332031 463.667969 653 469 667 C 482.332031 700.332031 497.667969 734.832031 515 770.5 C 532.332031 806.167969 546 833.332031 556 852 L 572 881 C 591.332031 921 610 955.667969 628 985 C 646 1014.332031 662.167969 1037.167969 676.5 1053.5 C 690.832031 1069.832031 704.667969 1082.667969 718 1092 C 731.332031 1101.332031 742.667969 1106 752 1106 C 761.332031 1106 770.332031 1104.332031 779 1101 C 780.332031 1100.332031 782 1098.667969 784 1096 C 786 1093.332031 790 1086 796 1074 C 802 1062 806.5 1046.332031 809.5 1027 C 812.5 1007.667969 815.667969 980.667969 819 946 C 822.332031 911.332031 822.332031 869.667969 819 821 C 817.667969 794.332031 814.667969 770 810 748 C 805.332031 726 800.667969 710.667969 796 702 L 790 690 C 773.332031 667.332031 745 653 705 647 C 696.332031 645.667969 698 637.667969 710 623 C 721.332031 610.332031 734 600.332031 748 593 C 783.332031 575.667969 863 567.667969 987 569 C 1041.667969 569.667969 1086.667969 574 1122 582 C 1135.332031 585.332031 1146.5 589.832031 1155.5 595.5 C 1164.5 601.167969 1171.332031 609.167969 1176 619.5 C 1180.667969 629.832031 1184.167969 640.5 1186.5 651.5 C 1188.832031 662.5 1190 677.667969 1190 697 C 1190 716.332031 1189.667969 734.667969 1189 752 C 1188.332031 769.332031 1187.5 792.832031 1186.5 822.5 C 1185.5 852.167969 1185 879.667969 1185 905 C 1185 912.332031 1184.667969 926.332031 1184 947 C 1183.332031 967.667969 1183.167969 983.667969 1183.5 995 C 1183.832031 1006.332031 1185 1019.832031 1187 1035.5 C 1189 1051.167969 1192.832031 1064.167969 1198.5 1074.5 C 1204.167969 1084.832031 1211.667969 1093 1221 1099 C 1226.332031 1100.332031 1232 1101.667969 1238 1103 C 1244 1104.332031 1252.667969 1100.667969 1264 1092 C 1275.332031 1083.332031 1288 1071.832031 1302 1057.5 C 1316 1043.167969 1333.332031 1020.832031 1354 990.5 C 1374.667969 960.167969 1397.332031 924.332031 1422 883 C 1462 813.667969 1497.667969 738.667969 1529 658 C 1531.667969 651.332031 1535 645.5 1539 640.5 C 1543 635.5 1546.667969 632 1550 630 L 1554 627 L 1559 624.5 C 1559 624.5 1563.332031 623.5 1572 621.5 C 1580.667969 619.5 1587.332031 619.332031 1592 621 L 1880 619 C 1906 615.667969 1927.332031 616.5 1944 621.5 C 1960.667969 626.5 1971 632 1975 638 Z M 1981 648 "/>
</g>
</svg>
