<?xml version="1.0" encoding="UTF-8"?>
<svg xmlns="http://www.w3.org/2000/svg" xmlns:xlink="http://www.w3.org/1999/xlink" width="2048" height="2048" viewBox="0 0 2048 2048" version="1.1">
<g>
<path d="M 1216 480 L 1216 1568 C 1216 1585.332031 1209.667969 1600.332031 1197 1613 C 1184.332031 1625.667969 1169.332031 1632 1152 1632 C 1134.667969 1632 1119.667969 1625.667969 1107 1613 L 774 1280 L 512 1280 C 494.667969 1280 479.667969 1273.667969 467 1261 C 454.332031 1248.332031 448 1233.332031 448 1216 L 448 832 C 448 814.667969 454.332031 799.667969 467 787 C 479.667969 774.332031 494.667969 768 512 768 L 774 768 L 1107 435 C 1119.667969 422.332031 1134.667969 416 1152 416 C 1169.332031 416 1184.332031 422.332031 1197 435 C 1209.667969 447.667969 1216 462.667969 1216 480 Z M 1600 1024 C 1600 1074.667969 1585.832031 1121.832031 1557.5 1165.5 C 1529.167969 1209.167969 1491.667969 1240.332031 1445 1259 C 1438.332031 1262.332031 1430 1264 1420 1264 C 1402.667969 1264 1387.667969 1257.832031 1375 1245.5 C 1362.332031 1233.167969 1356 1218 1356 1200 C 1356 1186 1360 1174.167969 1368 1164.5 C 1376 1154.832031 1385.667969 1146.5 1397 1139.5 C 1408.332031 1132.5 1419.667969 1124.832031 1431 1116.5 C 1442.332031 1108.167969 1452 1096.332031 1460 1081 C 1468 1065.667969 1472 1046.667969 1472 1024 C 1472 1001.332031 1468 982.332031 1460 967 C 1452 951.667969 1442.332031 939.832031 1431 931.5 C 1419.667969 923.167969 1408.332031 915.5 1397 908.5 C 1385.667969 901.5 1376 893.167969 1368 883.5 C 1360 873.832031 1356 862 1356 848 C 1356 830 1362.332031 814.832031 1375 802.5 C 1387.667969 790.167969 1402.667969 784 1420 784 C 1430 784 1438.332031 785.667969 1445 789 C 1491.667969 807 1529.167969 838 1557.5 882 C 1585.832031 926 1600 973.332031 1600 1024 Z M 1600 1024 "/>
</g>
</svg>
