<svg width="2048" height="2048" viewBox="-192 -384 2048 2048" xmlns="http://www.w3.org/2000/svg"><g transform="scale(1 -1) translate(0 -1280)"><path d="M768 1184v-1088q0 -26 -19 -45t-45 -19t-45 19l-333 333h-262q-26 0 -45 19t-19 45v384q0 26 19 45t45 19h262l333 333q19 19 45 19t45 -19t19 -45zM1152 640q0 -76 -42.5 -141.5t-112.5 -93.5q-10 -5 -25 -5q-26 0 -45 18.5t-19 45.5q0 21 12 35.5t29 25t34 23t29 35.5 t12 57t-12 57t-29 35.5t-34 23t-29 25t-12 35.5q0 27 19 45.5t45 18.5q15 0 25 -5q70 -27 112.5 -93t42.5 -142zM1408 640q0 -153 -85 -282.5t-225 -188.5q-13 -5 -25 -5q-27 0 -46 19t-19 45q0 39 39 59q56 29 76 44q74 54 115.5 135.5t41.5 173.5t-41.5 173.5 t-115.5 135.5q-20 15 -76 44q-39 20 -39 59q0 26 19 45t45 19q13 0 26 -5q140 -59 225 -188.5t85 -282.5zM1664 640q0 -230 -127 -422.5t-338 -283.5q-13 -5 -26 -5q-26 0 -45 19t-19 45q0 36 39 59q7 4 22.5 10.5t22.5 10.5q46 25 82 51q123 91 192 227t69 289t-69 289 t-192 227q-36 26 -82 51q-7 4 -22.5 10.5t-22.5 10.5q-39 23 -39 59q0 26 19 45t45 19q13 0 26 -5q211 -91 338 -283.5t127 -422.5z" fill="black" /></g></svg>