<svg width="2048" height="2048" viewBox="-448 -384 2048 2048" xmlns="http://www.w3.org/2000/svg"><g transform="scale(1 -1) translate(0 -1280)"><path d="M768 1184v-1088q0 -26 -19 -45t-45 -19t-45 19l-333 333h-262q-26 0 -45 19t-19 45v384q0 26 19 45t45 19h262l333 333q19 19 45 19t45 -19t19 -45zM1152 640q0 -76 -42.5 -141.5t-112.5 -93.5q-10 -5 -25 -5q-26 0 -45 18.5t-19 45.5q0 21 12 35.5t29 25t34 23t29 35.5 t12 57t-12 57t-29 35.5t-34 23t-29 25t-12 35.5q0 27 19 45.5t45 18.5q15 0 25 -5q70 -27 112.5 -93t42.5 -142z" fill="black" /></g></svg>