<?xml version="1.0" encoding="utf-8"?>
<svg width="1792" height="1792" viewBox="0 0 1792 1792" xmlns="http://www.w3.org/2000/svg"><path d="M809 1689q0-11-13-58t-31-107-20-69q-1-4-5-26.5t-8.5-36-13.5-21.5q-15-14-51-14-23 0-70 5.5t-71 5.5q-34 0-47-11-6-5-11-15.5t-7.5-20-6.5-24-5-18.5q-37-128-37-255t37-255q1-4 5-18.5t6.5-24 7.5-20 11-15.5q13-11 47-11 24 0 71 5.5t70 5.5q36 0 51-14 9-8 13.5-21.5t8.5-36 5-26.5q2-9 20-69t31-107 13-58q0-22-43.5-52.5t-75.5-42.5q-20-8-45-8-34 0-98 18-57 17-96.5 40.5t-71 66-46 70-45.5 94.5q-6 12-9 19-49 107-68 216t-19 244 19 244 68 216q56 122 83 161 63 91 179 127l6 2q64 18 98 18 25 0 45-8 32-12 75.5-42.5t43.5-52.5zm159-913q-26 0-45-19t-19-45.5 19-45.5q37-37 37-90 0-52-37-91-19-19-19-45t19-45 45-19 45 19q75 75 75 181t-75 181q-21 19-45 19zm181 181q-27 0-45-19-19-19-19-45t19-45q112-114 112-272t-112-272q-19-19-19-45t19-45 45-19 45 19q150 150 150 362t-150 362q-18 19-45 19zm181 181q-27 0-45-19-19-19-19-45t19-45q90-91 138.5-208t48.5-245-48.5-245-138.5-208q-19-19-19-45t19-45 45-19 45 19q109 109 167 249t58 294-58 294-167 249q-18 19-45 19z"/></svg>