<?xml version="1.0" encoding="UTF-8"?>
<svg xmlns="http://www.w3.org/2000/svg" xmlns:xlink="http://www.w3.org/1999/xlink" width="2048" height="2048" viewBox="0 0 2048 2048" version="1.1">
<g>
<path d="M 803 1412 C 817 1389.332031 820.667969 1366.332031 814 1343 C 807.332031 1319.667969 792.332031 1303 769 1293 C 746.332031 1283.667969 722 1283.332031 696 1292 C 670 1300.667969 650 1316 636 1338 C 621.332031 1360.667969 617 1383.5 623 1406.5 C 629 1429.5 643.332031 1446.332031 666 1457 C 688.667969 1467.667969 713.5 1468.5 740.5 1459.5 C 767.5 1450.5 788.332031 1434.667969 803 1412 Z M 897 1291 C 902.332031 1282.332031 903.5 1273.5 900.5 1264.5 C 897.5 1255.5 891.667969 1249.332031 883 1246 C 873.667969 1242.667969 864.167969 1242.832031 854.5 1246.5 C 844.832031 1250.167969 837.667969 1256.332031 833 1265 C 821.667969 1285.667969 826 1300.667969 846 1310 C 855.332031 1313.332031 865 1313.167969 875 1309.5 C 885 1305.832031 892.332031 1299.667969 897 1291 Z M 1071 1398 C 1041 1466 988.332031 1516 913 1548 C 837.667969 1580 763 1584 689 1560 C 617.667969 1537.332031 568.5 1495.167969 541.5 1433.5 C 514.5 1371.832031 516.667969 1309.332031 548 1246 C 579.332031 1184 629.832031 1137.667969 699.5 1107 C 769.167969 1076.332031 839.332031 1070 910 1088 C 984 1107.332031 1036.832031 1147.167969 1068.5 1207.5 C 1100.167969 1267.832031 1101 1331.332031 1071 1398 Z M 1383 1238 C 1377 1174 1347.332031 1117.332031 1294 1068 C 1240.667969 1018.667969 1171.167969 982.332031 1085.5 959 C 999.832031 935.667969 908.332031 928.667969 811 938 C 662.332031 953.332031 539.167969 1000.5 441.5 1079.5 C 343.832031 1158.5 299.667969 1246.667969 309 1344 C 315 1408 344.667969 1464.667969 398 1514 C 451.332031 1563.332031 520.832031 1599.667969 606.5 1623 C 692.167969 1646.332031 783.667969 1653.332031 881 1644 C 1029.667969 1628.667969 1152.832031 1581.5 1250.5 1502.5 C 1348.167969 1423.5 1392.332031 1335.332031 1383 1238 Z M 1691 1242 C 1691 1287.332031 1678.667969 1333.832031 1654 1381.5 C 1629.332031 1429.167969 1593 1474.832031 1545 1518.5 C 1497 1562.167969 1440.832031 1601.332031 1376.5 1636 C 1312.167969 1670.667969 1236.832031 1698.332031 1150.5 1719 C 1064.167969 1739.667969 974 1750 880 1750 C 786 1750 694.332031 1738.832031 605 1716.5 C 515.667969 1694.167969 435.5 1663.167969 364.5 1623.5 C 293.5 1583.832031 236.332031 1533.5 193 1472.5 C 149.667969 1411.5 128 1345 128 1273 C 128 1196.332031 151.167969 1114.667969 197.5 1028 C 243.832031 941.332031 309.667969 855.332031 395 770 C 507.667969 657.332031 621.5 578.667969 736.5 534 C 851.5 489.332031 933.667969 491.667969 983 541 C 1026.332031 583.667969 1033 653.332031 1003 750 C 1000.332031 759.332031 1000 766 1002 770 C 1004 774 1007.332031 776.332031 1012 777 C 1016.667969 777.667969 1021.5 777.5 1026.5 776.5 C 1031.5 775.5 1036 774.332031 1040 773 L 1046 771 C 1138.667969 731.667969 1220.667969 712 1292 712 C 1363.332031 712 1414.332031 732.332031 1445 773 C 1475 815 1475 874.332031 1445 951 C 1443.667969 959.667969 1442.167969 966.332031 1440.5 971 C 1438.832031 975.667969 1440.332031 979.832031 1445 983.5 C 1449.667969 987.167969 1453.667969 989.667969 1457 991 C 1460.332031 992.332031 1466 994.332031 1474 997 C 1512 1009 1546.332031 1024.667969 1577 1044 C 1607.667969 1063.332031 1634.332031 1090.5 1657 1125.5 C 1679.667969 1160.5 1691 1199.332031 1691 1242 Z M 1617 618 C 1645 649.332031 1663.167969 685.5 1671.5 726.5 C 1679.832031 767.5 1677.667969 806.667969 1665 844 C 1659.667969 859.332031 1649.832031 870.667969 1635.5 878 C 1621.167969 885.332031 1606.332031 886.667969 1591 882 C 1575.667969 876.667969 1564.332031 866.832031 1557 852.5 C 1549.667969 838.167969 1548.332031 823.332031 1553 808 C 1566.332031 766 1558.332031 729 1529 697 C 1499.667969 665 1464 653.332031 1422 662 C 1406 665.332031 1391 662.667969 1377 654 C 1363 645.332031 1354.667969 633 1352 617 C 1348.667969 601 1351.332031 586.167969 1360 572.5 C 1368.667969 558.832031 1381 550.332031 1397 547 C 1437 538.332031 1476.667969 540.167969 1516 552.5 C 1555.332031 564.832031 1589 586.667969 1617 618 Z M 1798 455 C 1856 519 1893.5 593.167969 1910.5 677.5 C 1927.5 761.832031 1923 842.332031 1897 919 C 1891 937 1879.667969 950.332031 1863 959 C 1846.332031 967.667969 1829 969 1811 963 C 1793 957 1779.667969 945.667969 1771 929 C 1762.332031 912.332031 1760.667969 895 1766 877 C 1784.667969 822.332031 1788 765 1776 705 C 1764 645 1737.332031 592.332031 1696 547 C 1654.667969 501 1605.332031 469.167969 1548 451.5 C 1490.667969 433.832031 1433 431 1375 443 C 1356.332031 447 1339 443.832031 1323 433.5 C 1307 423.167969 1297 408.667969 1293 390 C 1289 371.332031 1292.167969 354.167969 1302.5 338.5 C 1312.832031 322.832031 1327.332031 313 1346 309 C 1428 291.667969 1509.332031 295.5 1590 320.5 C 1670.667969 345.5 1740 390.332031 1798 455 Z M 1798 455 "/>
</g>
</svg>
