<svg width="1792" height="1792" viewBox="0 0 1792 1792" xmlns="http://www.w3.org/2000/svg"><path d="M1566 813q34 35 29 82l-44 551q-4 42-34.5 70t-71.5 28q-6 0-9-1-44-3-72.5-36.5t-25.5-77.5l35-429-143 8q55 113 55 240 0 216-148 372l-137-137q91-101 91-235 0-145-102.5-248t-247.5-103q-134 0-236 92l-137-138q120-114 284-141l264-300-149-87-181 161q-33 30-77 27.5t-73-35.5-26.5-77 34.5-73l239-213q26-23 60-26.5t64 14.5l488 283q36 21 48 68 17 67-26 117l-205 232 371-20q49-3 83 32zm-198-457q-74 0-126-52t-52-126 52-126 126-52 126.5 52 52.5 126-52.5 126-126.5 52zm-627 1242q106 0 196-61l139 139q-146 116-335 116-148 0-273.5-73t-198.5-198-73-273q0-188 116-336l139 139q-60 88-60 197 0 145 102.5 247.5t247.5 102.5z"/></svg>