<?xml version="1.0" encoding="utf-8"?>
<svg width="1792" height="1792" viewBox="0 0 1792 1792" xmlns="http://www.w3.org/2000/svg"><path d="M1175 1321l146-146q10-10 10-23t-10-23l-233-233 233-233q10-10 10-23t-10-23l-146-146q-10-10-23-10t-23 10l-233 233-233-233q-10-10-23-10t-23 10l-146 146q-10 10-10 23t10 23l233 233-233 233q-10 10-10 23t10 23l146 146q10 10 23 10t23-10l233-233 233 233q10 10 23 10t23-10zm617-1033v1216q0 66-47 113t-113 47h-1472q-66 0-113-47t-47-113v-1216q0-66 47-113t113-47h1472q66 0 113 47t47 113z"/></svg>