<svg width="2048" height="2048" viewBox="-192 -384 2048 2048" xmlns="http://www.w3.org/2000/svg"><g transform="scale(1 -1) translate(0 -1280)"><path d="M384 64q0 26 -19 45t-45 19t-45 -19t-19 -45t19 -45t45 -19t45 19t19 45zM1028 484l-682 -682q-37 -37 -90 -37q-52 0 -91 37l-106 108q-38 36 -38 90q0 53 38 91l681 681q39 -98 114.5 -173.5t173.5 -114.5zM1662 919q0 -39 -23 -106q-47 -134 -164.5 -217.5 t-258.5 -83.5q-185 0 -316.5 131.5t-131.5 316.5t131.5 316.5t316.5 131.5q58 0 121.5 -16.5t107.5 -46.5q16 -11 16 -28t-16 -28l-293 -169v-224l193 -107q5 3 79 48.5t135.5 81t70.5 35.5q15 0 23.5 -10t8.5 -25z" fill="black" /></g></svg>