<?xml version="1.0" encoding="UTF-8"?>
<svg xmlns="http://www.w3.org/2000/svg" xmlns:xlink="http://www.w3.org/1999/xlink" width="2048" height="2048" viewBox="0 0 2048 2048" version="1.1">
<g>
<path d="M 576 1600 C 576 1582.667969 569.667969 1567.667969 557 1555 C 544.332031 1542.332031 529.332031 1536 512 1536 C 494.667969 1536 479.667969 1542.332031 467 1555 C 454.332031 1567.667969 448 1582.667969 448 1600 C 448 1617.332031 454.332031 1632.332031 467 1645 C 479.667969 1657.667969 494.667969 1664 512 1664 C 529.332031 1664 544.332031 1657.667969 557 1645 C 569.667969 1632.332031 576 1617.332031 576 1600 Z M 1220 1180 L 538 1862 C 513.332031 1886.667969 483.332031 1899 448 1899 C 413.332031 1899 383 1886.667969 357 1862 L 251 1754 C 225.667969 1730 213 1700 213 1664 C 213 1628.667969 225.667969 1598.332031 251 1573 L 932 892 C 958 957.332031 996.167969 1015.167969 1046.5 1065.5 C 1096.832031 1115.832031 1154.667969 1154 1220 1180 Z M 1854 745 C 1854 771 1846.332031 806.332031 1831 851 C 1799.667969 940.332031 1744.832031 1012.832031 1666.5 1068.5 C 1588.167969 1124.167969 1502 1152 1408 1152 C 1284.667969 1152 1179.167969 1108.167969 1091.5 1020.5 C 1003.832031 932.832031 960 827.332031 960 704 C 960 580.667969 1003.832031 475.167969 1091.5 387.5 C 1179.167969 299.832031 1284.667969 256 1408 256 C 1446.667969 256 1487.167969 261.5 1529.5 272.5 C 1571.832031 283.5 1607.667969 299 1637 319 C 1647.667969 326.332031 1653 335.667969 1653 347 C 1653 358.332031 1647.667969 367.667969 1637 375 L 1344 544 L 1344 768 L 1537 875 C 1540.332031 873 1566.667969 856.832031 1616 826.5 C 1665.332031 796.167969 1710.5 769.167969 1751.5 745.5 C 1792.5 721.832031 1816 710 1822 710 C 1832 710 1839.832031 713.332031 1845.5 720 C 1851.167969 726.667969 1854 735 1854 745 Z M 1854 745 "/>
</g>
</svg>
