<?xml version="1.0" encoding="UTF-8"?>
<svg xmlns="http://www.w3.org/2000/svg" xmlns:xlink="http://www.w3.org/1999/xlink" width="2048" height="2048" viewBox="0 0 2048 2048" version="1.1">
<g>
<path d="M 941 893 C 941 892.332031 899 818.332031 815 671 C 801 648.332031 783.667969 637 763 637 L 579 637 C 567 637 558.332031 640.667969 553 648 C 548.332031 656 548.667969 665.667969 554 677 L 679 893 L 679 894 L 483 1240 C 477 1249.332031 477 1258.667969 483 1268 C 488.332031 1276.667969 496.332031 1281 507 1281 L 692 1281 C 712.667969 1281 729.332031 1269 742 1245 Z M 1565 396 C 1560.332031 388 1552.332031 384 1541 384 L 1354 384 C 1334 384 1317.667969 395.667969 1305 419 L 894 1148 C 894.667969 1149.332031 982 1309.667969 1156 1629 C 1169.332031 1652.332031 1186.667969 1664 1208 1664 L 1392 1664 C 1404 1664 1412.332031 1660 1417 1652 C 1422.332031 1643.332031 1422 1634 1416 1624 L 1156 1148 L 1156 1147 L 1565 424 C 1570.332031 413.332031 1570.332031 404 1565 396 Z M 1792 544 L 1792 1504 C 1792 1583.332031 1763.832031 1651.167969 1707.5 1707.5 C 1651.167969 1763.832031 1583.332031 1792 1504 1792 L 544 1792 C 464.667969 1792 396.832031 1763.832031 340.5 1707.5 C 284.167969 1651.167969 256 1583.332031 256 1504 L 256 544 C 256 464.667969 284.167969 396.832031 340.5 340.5 C 396.832031 284.167969 464.667969 256 544 256 L 1504 256 C 1583.332031 256 1651.167969 284.167969 1707.5 340.5 C 1763.832031 396.832031 1792 464.667969 1792 544 Z M 1792 544 "/>
</g>
</svg>
