<?xml version="1.0" encoding="UTF-8"?>
<svg xmlns="http://www.w3.org/2000/svg" xmlns:xlink="http://www.w3.org/1999/xlink" width="2048" height="2048" viewBox="0 0 2048 2048" version="1.1">
<g>
<path d="M 1227 1372 L 1227 1583 C 1227 1627.667969 1214 1650 1188 1650 C 1172.667969 1650 1157.667969 1642.667969 1143 1628 L 1143 1327 C 1157.667969 1312.332031 1172.667969 1305 1188 1305 C 1214 1305 1227 1327.332031 1227 1372 Z M 1565 1373 L 1565 1419 L 1475 1419 L 1475 1373 C 1475 1327.667969 1490 1305 1520 1305 C 1550 1305 1565 1327.667969 1565 1373 Z M 599 1155 L 706 1155 L 706 1061 L 394 1061 L 394 1155 L 499 1155 L 499 1724 L 599 1724 Z M 887 1724 L 976 1724 L 976 1230 L 887 1230 L 887 1608 C 867 1636 848 1650 830 1650 C 818 1650 811 1643 809 1629 C 808.332031 1627 808 1615.332031 808 1594 L 808 1230 L 719 1230 L 719 1621 C 719 1653.667969 721.667969 1678 727 1694 C 735 1718.667969 754.332031 1731 785 1731 C 817 1731 851 1710.667969 887 1670 Z M 1316 1576 L 1316 1379 C 1316 1330.332031 1313 1297.332031 1307 1280 C 1295.667969 1242.667969 1272 1224 1236 1224 C 1202.667969 1224 1171.667969 1242 1143 1278 L 1143 1061 L 1054 1061 L 1054 1724 L 1143 1724 L 1143 1676 C 1173 1712.667969 1204 1731 1236 1731 C 1272 1731 1295.667969 1712.667969 1307 1676 C 1313 1658 1316 1624.667969 1316 1576 Z M 1654 1566 L 1654 1553 L 1563 1553 C 1563 1587 1562.332031 1607.332031 1561 1614 C 1556.332031 1638 1543 1650 1521 1650 C 1490.332031 1650 1475 1627 1475 1581 L 1475 1494 L 1654 1494 L 1654 1391 C 1654 1338.332031 1645 1299.667969 1627 1275 C 1601 1241 1565.667969 1224 1521 1224 C 1475.667969 1224 1440 1241 1414 1275 C 1395.332031 1299.667969 1386 1338.332031 1386 1391 L 1386 1564 C 1386 1616.667969 1395.667969 1655.332031 1415 1680 C 1441 1714 1477 1731 1523 1731 C 1571 1731 1607 1713.332031 1631 1678 C 1643 1660 1650 1642 1652 1624 C 1653.332031 1618 1654 1598.667969 1654 1566 Z M 1046 653 L 1046 443 C 1046 397 1031.667969 374 1003 374 C 974.332031 374 960 397 960 443 L 960 653 C 960 699.667969 974.332031 723 1003 723 C 1031.667969 723 1046 699.667969 1046 653 Z M 1765 1404 C 1765 1560 1756.332031 1676.667969 1739 1754 C 1729.667969 1793.332031 1710.332031 1826.332031 1681 1853 C 1651.667969 1879.667969 1617.667969 1895 1579 1899 C 1456.332031 1913 1271.332031 1920 1024 1920 C 776.667969 1920 591.667969 1913 469 1899 C 430.332031 1895 396.167969 1879.667969 366.5 1853 C 336.832031 1826.332031 317.667969 1793.332031 309 1754 C 291.667969 1679.332031 283 1562.667969 283 1404 C 283 1248 291.667969 1131.332031 309 1054 C 318.332031 1014.667969 337.667969 981.667969 367 955 C 396.332031 928.332031 430.667969 912.667969 470 908 C 592 894.667969 776.667969 888 1024 888 C 1271.332031 888 1456.332031 894.667969 1579 908 C 1617.667969 912.667969 1651.832031 928.332031 1681.5 955 C 1711.167969 981.667969 1730.332031 1014.667969 1739 1054 C 1756.332031 1128.667969 1765 1245.332031 1765 1404 Z M 767 128 L 869 128 L 748 527 L 748 798 L 648 798 L 648 527 C 638.667969 477.667969 618.332031 407 587 315 C 562.332031 246.332031 540.667969 184 522 128 L 628 128 L 699 391 Z M 1137 461 L 1137 636 C 1137 690 1127.667969 729.332031 1109 754 C 1084.332031 788 1049 805 1003 805 C 958.332031 805 923.332031 788 898 754 C 879.332031 728.667969 870 689.332031 870 636 L 870 461 C 870 407.667969 879.332031 368.667969 898 344 C 923.332031 310 958.332031 293 1003 293 C 1049 293 1084.332031 310 1109 344 C 1127.667969 368.667969 1137 407.667969 1137 461 Z M 1472 299 L 1472 798 L 1381 798 L 1381 743 C 1345.667969 784.332031 1311.332031 805 1278 805 C 1247.332031 805 1227.667969 792.667969 1219 768 C 1213.667969 752 1211 727 1211 693 L 1211 299 L 1302 299 L 1302 666 C 1302 688 1302.332031 699.667969 1303 701 C 1305 715.667969 1312 723 1324 723 C 1342 723 1361 708.667969 1381 680 L 1381 299 Z M 1472 299 "/>
</g>
</svg>
