<svg width="2048" height="2048" viewBox="-256 -384 2048 2048" xmlns="http://www.w3.org/2000/svg"><g transform="scale(1 -1) translate(0 -1280)"><path d="M971 292v-211q0 -67 -39 -67q-23 0 -45 22v301q22 22 45 22q39 0 39 -67zM1309 291v-46h-90v46q0 68 45 68t45 -68zM343 509h107v94h-312v-94h105v-569h100v569zM631 -60h89v494h-89v-378q-30 -42 -57 -42q-18 0 -21 21q-1 3 -1 35v364h-89v-391q0 -49 8 -73 q12 -37 58 -37q48 0 102 61v-54zM1060 88v197q0 73 -9 99q-17 56 -71 56q-50 0 -93 -54v217h-89v-663h89v48q45 -55 93 -55q54 0 71 55q9 27 9 100zM1398 98v13h-91q0 -51 -2 -61q-7 -36 -40 -36q-46 0 -46 69v87h179v103q0 79 -27 116q-39 51 -106 51q-68 0 -107 -51 q-28 -37 -28 -116v-173q0 -79 29 -116q39 -51 108 -51q72 0 108 53q18 27 21 54q2 9 2 58zM790 1011v210q0 69 -43 69t-43 -69v-210q0 -70 43 -70t43 70zM1509 260q0 -234 -26 -350q-14 -59 -58 -99t-102 -46q-184 -21 -555 -21t-555 21q-58 6 -102.5 46t-57.5 99 q-26 112 -26 350q0 234 26 350q14 59 58 99t103 47q183 20 554 20t555 -20q58 -7 102.5 -47t57.5 -99q26 -112 26 -350zM511 1536h102l-121 -399v-271h-100v271q-14 74 -61 212q-37 103 -65 187h106l71 -263zM881 1203v-175q0 -81 -28 -118q-37 -51 -106 -51q-67 0 -105 51 q-28 38 -28 118v175q0 80 28 117q38 51 105 51q69 0 106 -51q28 -37 28 -117zM1216 1365v-499h-91v55q-53 -62 -103 -62q-46 0 -59 37q-8 24 -8 75v394h91v-367q0 -33 1 -35q3 -22 21 -22q27 0 57 43v381h91z" fill="black" /></g></svg>