<svg width="2048" height="2048" viewBox="-128 -384 2048 2048" xmlns="http://www.w3.org/2000/svg"><g transform="scale(1 -1) translate(0 -1280)"><path d="M1280 640q0 37 -30 54l-512 320q-31 20 -65 2q-33 -18 -33 -56v-640q0 -38 33 -56q16 -8 31 -8q20 0 34 10l512 320q30 17 30 54zM1792 640q0 -96 -1 -150t-8.5 -136.5t-22.5 -147.5q-16 -73 -69 -123t-124 -58q-222 -25 -671 -25t-671 25q-71 8 -124.5 58t-69.5 123 q-14 65 -21.5 147.5t-8.5 136.5t-1 150t1 150t8.5 136.5t22.5 147.5q16 73 69 123t124 58q222 25 671 25t671 -25q71 -8 124.5 -58t69.5 -123q14 -65 21.5 -147.5t8.5 -136.5t1 -150z" fill="black" /></g></svg>