<?xml version="1.0" encoding="UTF-8"?>
<svg xmlns="http://www.w3.org/2000/svg" xmlns:xlink="http://www.w3.org/1999/xlink" width="2048" height="2048" viewBox="0 0 2048 2048" version="1.1">
<g>
<path d="M 1175 1431 L 1175 1274 C 1175 1240.667969 1165.332031 1224 1146 1224 C 1134.667969 1224 1123.667969 1229.332031 1113 1240 L 1113 1464 C 1123.667969 1474.667969 1134.667969 1480 1146 1480 C 1165.332031 1480 1175 1463.667969 1175 1431 Z M 1359 1309 L 1425 1309 L 1425 1275 C 1425 1241 1414 1224 1392 1224 C 1370 1224 1359 1241 1359 1275 Z M 788 1043 L 788 1113 L 708 1113 L 708 1536 L 634 1536 L 634 1113 L 556 1113 L 556 1043 Z M 989 1169 L 989 1536 L 922 1536 L 922 1496 C 896 1526 870.667969 1541 846 1541 C 824 1541 810 1531.667969 804 1513 C 800 1502.332031 798 1484.332031 798 1459 L 798 1169 L 864 1169 L 864 1439 C 864 1455 864.332031 1463.667969 865 1465 C 865.667969 1475 870.667969 1480 880 1480 C 893.332031 1480 907.332031 1469.667969 922 1449 L 922 1169 Z M 1241 1280 L 1241 1426 C 1241 1460.667969 1238.667969 1485 1234 1499 C 1226 1527 1208.332031 1541 1181 1541 C 1157.667969 1541 1135 1527.332031 1113 1500 L 1113 1536 L 1046 1536 L 1046 1043 L 1113 1043 L 1113 1204 C 1134.332031 1177.332031 1157 1164 1181 1164 C 1208.332031 1164 1226 1178 1234 1206 C 1238.667969 1220 1241 1244.667969 1241 1280 Z M 1492 1409 L 1492 1418 C 1492 1437.332031 1491.332031 1451.667969 1490 1461 C 1488 1475.667969 1483 1489 1475 1501 C 1457 1527.667969 1430.332031 1541 1395 1541 C 1360.332031 1541 1333.332031 1528.332031 1314 1503 C 1300 1485 1293 1456.332031 1293 1417 L 1293 1288 C 1293 1248.667969 1299.667969 1220 1313 1202 C 1332.332031 1176.667969 1359 1164 1393 1164 C 1427 1164 1453 1176.667969 1471 1202 C 1485 1220.667969 1492 1249.332031 1492 1288 L 1492 1364 L 1359 1364 L 1359 1429 C 1359 1463 1370.332031 1480 1393 1480 C 1409 1480 1419 1471.332031 1423 1454 C 1423 1453.332031 1423.167969 1451 1423.5 1447 C 1423.832031 1443 1424 1437.5 1424 1430.5 L 1424 1409 Z M 1041 585 L 1041 741 C 1041 775 1030.332031 792 1009 792 C 987.667969 792 977 775 977 741 L 977 585 C 977 550.332031 987.667969 533 1009 533 C 1030.332031 533 1041 550.332031 1041 585 Z M 1574 1298 C 1574 1180 1567.667969 1093.332031 1555 1038 C 1548.332031 1008.667969 1534 984.167969 1512 964.5 C 1490 944.832031 1464.667969 933.332031 1436 930 C 1345.332031 920 1208 915 1024 915 C 840.667969 915 703.667969 920 613 930 C 583.667969 933.332031 558.167969 944.832031 536.5 964.5 C 514.832031 984.167969 500.667969 1008.667969 494 1038 C 480.667969 1096 474 1182.667969 474 1298 C 474 1415.332031 480.667969 1502 494 1558 C 500.667969 1586.667969 514.832031 1611 536.5 1631 C 558.167969 1651 583.332031 1662.667969 612 1666 C 703.332031 1676 840.667969 1681 1024 1681 C 1207.332031 1681 1344.667969 1676 1436 1666 C 1464.667969 1662.667969 1489.832031 1651 1511.5 1631 C 1533.167969 1611 1547.332031 1586.667969 1554 1558 C 1567.332031 1502 1574 1415.332031 1574 1298 Z M 819 647 L 909 351 L 834 351 L 783 546 L 730 351 L 652 351 L 676 420 C 676 420 683.667969 443 699 489 C 722.332031 557.667969 737.667969 610.332031 745 647 L 745 848 L 819 848 Z M 1108 728 L 1108 598 C 1108 559.332031 1101 530.332031 1087 511 C 1067.667969 485.667969 1041.667969 473 1009 473 C 975 473 949 485.667969 931 511 C 917 530.332031 910 559.332031 910 598 L 910 728 C 910 766.667969 917 795.667969 931 815 C 949 840.332031 975 853 1009 853 C 1041.667969 853 1067.667969 840.332031 1087 815 C 1101 797 1108 768 1108 728 Z M 1289 848 L 1356 848 L 1356 478 L 1289 478 L 1289 761 C 1274.332031 781.667969 1260.332031 792 1247 792 C 1237 792 1231.667969 786.667969 1231 776 C 1230.332031 774.667969 1230 766 1230 750 L 1230 478 L 1163 478 L 1163 771 C 1163 795.667969 1165 814 1169 826 C 1176.332031 844 1190.667969 853 1212 853 C 1236 853 1261.667969 838 1289 808 Z M 1792 544 L 1792 1504 C 1792 1583.332031 1763.832031 1651.167969 1707.5 1707.5 C 1651.167969 1763.832031 1583.332031 1792 1504 1792 L 544 1792 C 464.667969 1792 396.832031 1763.832031 340.5 1707.5 C 284.167969 1651.167969 256 1583.332031 256 1504 L 256 544 C 256 464.667969 284.167969 396.832031 340.5 340.5 C 396.832031 284.167969 464.667969 256 544 256 L 1504 256 C 1583.332031 256 1651.167969 284.167969 1707.5 340.5 C 1763.832031 396.832031 1792 464.667969 1792 544 Z M 1792 544 "/>
</g>
</svg>
