<?xml version="1.0" encoding="UTF-8"?>
<svg xmlns="http://www.w3.org/2000/svg" xmlns:xlink="http://www.w3.org/1999/xlink" width="2048" height="2048" viewBox="0 0 2048 2048" version="1.1">
<g>
<path d="M 1920 1472 L 1920 1600 C 1920 1617.332031 1913.667969 1632.332031 1901 1645 C 1888.332031 1657.667969 1873.332031 1664 1856 1664 L 192 1664 C 174.667969 1664 159.667969 1657.667969 147 1645 C 134.332031 1632.332031 128 1617.332031 128 1600 L 128 1472 C 128 1454.667969 134.332031 1439.667969 147 1427 C 159.667969 1414.332031 174.667969 1408 192 1408 L 1856 1408 C 1873.332031 1408 1888.332031 1414.332031 1901 1427 C 1913.667969 1439.667969 1920 1454.667969 1920 1472 Z M 1536 1088 L 1536 1216 C 1536 1233.332031 1529.667969 1248.332031 1517 1261 C 1504.332031 1273.667969 1489.332031 1280 1472 1280 L 576 1280 C 558.667969 1280 543.667969 1273.667969 531 1261 C 518.332031 1248.332031 512 1233.332031 512 1216 L 512 1088 C 512 1070.667969 518.332031 1055.667969 531 1043 C 543.667969 1030.332031 558.667969 1024 576 1024 L 1472 1024 C 1489.332031 1024 1504.332031 1030.332031 1517 1043 C 1529.667969 1055.667969 1536 1070.667969 1536 1088 Z M 1792 704 L 1792 832 C 1792 849.332031 1785.667969 864.332031 1773 877 C 1760.332031 889.667969 1745.332031 896 1728 896 L 320 896 C 302.667969 896 287.667969 889.667969 275 877 C 262.332031 864.332031 256 849.332031 256 832 L 256 704 C 256 686.667969 262.332031 671.667969 275 659 C 287.667969 646.332031 302.667969 640 320 640 L 1728 640 C 1745.332031 640 1760.332031 646.332031 1773 659 C 1785.667969 671.667969 1792 686.667969 1792 704 Z M 1408 320 L 1408 448 C 1408 465.332031 1401.667969 480.332031 1389 493 C 1376.332031 505.667969 1361.332031 512 1344 512 L 704 512 C 686.667969 512 671.667969 505.667969 659 493 C 646.332031 480.332031 640 465.332031 640 448 L 640 320 C 640 302.667969 646.332031 287.667969 659 275 C 671.667969 262.332031 686.667969 256 704 256 L 1344 256 C 1361.332031 256 1376.332031 262.332031 1389 275 C 1401.667969 287.667969 1408 302.667969 1408 320 Z M 1408 320 " fill="white" />
</g>
</svg>
