<?xml version="1.0" encoding="UTF-8"?>
<svg xmlns="http://www.w3.org/2000/svg" xmlns:xlink="http://www.w3.org/1999/xlink" width="2048" height="2048" viewBox="0 0 2048 2048" version="1.1">
<g>
<path d="M 704 1536 C 704 1500.667969 691.5 1470.5 666.5 1445.5 C 641.5 1420.5 611.332031 1408 576 1408 C 540.667969 1408 510.5 1420.5 485.5 1445.5 C 460.5 1470.5 448 1500.667969 448 1536 C 448 1571.332031 460.5 1601.5 485.5 1626.5 C 510.5 1651.5 540.667969 1664 576 1664 C 611.332031 1664 641.5 1651.5 666.5 1626.5 C 691.5 1601.5 704 1571.332031 704 1536 Z M 320 1024 L 704 1024 L 704 768 L 546 768 C 536.667969 769.332031 529.332031 772.332031 524 777 L 329 972 C 324.332031 980 321.332031 987.332031 320 994 Z M 1600 1536 C 1600 1500.667969 1587.5 1470.5 1562.5 1445.5 C 1537.5 1420.5 1507.332031 1408 1472 1408 C 1436.667969 1408 1406.5 1420.5 1381.5 1445.5 C 1356.5 1470.5 1344 1500.667969 1344 1536 C 1344 1571.332031 1356.5 1601.5 1381.5 1626.5 C 1406.5 1651.5 1436.667969 1664 1472 1664 C 1507.332031 1664 1537.5 1651.5 1562.5 1626.5 C 1587.5 1601.5 1600 1571.332031 1600 1536 Z M 1728 864 L 1728 672 C 1728 662.667969 1725 655 1719 649 C 1713 643 1705.332031 640 1696 640 L 1472 640 L 1472 416 C 1472 406.667969 1469 399 1463 393 C 1457 387 1449.332031 384 1440 384 L 1248 384 C 1238.667969 384 1231 387 1225 393 C 1219 399 1216 406.667969 1216 416 L 1216 640 L 992 640 C 982.667969 640 975 643 969 649 C 963 655 960 662.667969 960 672 L 960 864 C 960 873.332031 963 881 969 887 C 975 893 982.667969 896 992 896 L 1216 896 L 1216 1120 C 1216 1129.332031 1219 1137 1225 1143 C 1231 1149 1238.667969 1152 1248 1152 L 1440 1152 C 1449.332031 1152 1457 1149 1463 1143 C 1469 1137 1472 1129.332031 1472 1120 L 1472 896 L 1696 896 C 1705.332031 896 1713 893 1719 887 C 1725 881 1728 873.332031 1728 864 Z M 1984 320 L 1984 1472 C 1984 1489.332031 1977.667969 1504.332031 1965 1517 C 1952.332031 1529.667969 1937.332031 1536 1920 1536 L 1728 1536 C 1728 1606.667969 1703 1667 1653 1717 C 1603 1767 1542.667969 1792 1472 1792 C 1401.332031 1792 1341 1767 1291 1717 C 1241 1667 1216 1606.667969 1216 1536 L 832 1536 C 832 1606.667969 807 1667 757 1717 C 707 1767 646.667969 1792 576 1792 C 505.332031 1792 445 1767 395 1717 C 345 1667 320 1606.667969 320 1536 L 192 1536 C 174.667969 1536 159.667969 1529.667969 147 1517 C 134.332031 1504.332031 128 1489.332031 128 1472 C 128 1454.667969 134.332031 1439.667969 147 1427 C 159.667969 1414.332031 174.667969 1408 192 1408 L 192 992 C 192 974.667969 196.332031 955.332031 205 934 C 213.667969 912.667969 224.332031 895.667969 237 883 L 435 685 C 447.667969 672.332031 464.667969 661.667969 486 653 C 507.332031 644.332031 526.667969 640 544 640 L 704 640 L 704 320 C 704 302.667969 710.332031 287.667969 723 275 C 735.667969 262.332031 750.667969 256 768 256 L 1920 256 C 1937.332031 256 1952.332031 262.332031 1965 275 C 1977.667969 287.667969 1984 302.667969 1984 320 Z M 1984 320 " fill="white" />
</g>
</svg>
