<?xml version="1.0" encoding="UTF-8"?>
<svg xmlns="http://www.w3.org/2000/svg" xmlns:xlink="http://www.w3.org/1999/xlink" width="2048" height="2048" viewBox="0 0 2048 2048" version="1.1">
<g>
<path d="M 1523 992 C 1523 1000.667969 1519.667969 1008.332031 1513 1015 L 1047 1481 C 1040.332031 1487.667969 1032.667969 1491 1024 1491 C 1015.332031 1491 1007.667969 1487.667969 1001 1481 L 535 1015 C 528.332031 1008.332031 525 1000.667969 525 992 C 525 983.332031 528.332031 975.667969 535 969 L 585 919 C 591.667969 912.332031 599.332031 909 608 909 C 616.667969 909 624.332031 912.332031 631 919 L 1024 1312 L 1417 919 C 1423.667969 912.332031 1431.332031 909 1440 909 C 1448.667969 909 1456.332031 912.332031 1463 919 L 1513 969 C 1519.667969 975.667969 1523 983.332031 1523 992 Z M 1523 608 C 1523 616.667969 1519.667969 624.332031 1513 631 L 1047 1097 C 1040.332031 1103.667969 1032.667969 1107 1024 1107 C 1015.332031 1107 1007.667969 1103.667969 1001 1097 L 535 631 C 528.332031 624.332031 525 616.667969 525 608 C 525 599.332031 528.332031 591.667969 535 585 L 585 535 C 591.667969 528.332031 599.332031 525 608 525 C 616.667969 525 624.332031 528.332031 631 535 L 1024 928 L 1417 535 C 1423.667969 528.332031 1431.332031 525 1440 525 C 1448.667969 525 1456.332031 528.332031 1463 535 L 1513 585 C 1519.667969 591.667969 1523 599.332031 1523 608 Z M 1523 608 " fill="white" />
</g>
</svg>
