<?xml version="1.0" encoding="UTF-8"?>
<svg xmlns="http://www.w3.org/2000/svg" xmlns:xlink="http://www.w3.org/1999/xlink" width="2048" height="2048" viewBox="0 0 2048 2048" version="1.1">
<g>
<path d="M 1331 672 C 1331 680.667969 1327.667969 688.332031 1321 695 L 928 1088 L 1321 1481 C 1327.667969 1487.667969 1331 1495.332031 1331 1504 C 1331 1512.667969 1327.667969 1520.332031 1321 1527 L 1271 1577 C 1264.332031 1583.667969 1256.667969 1587 1248 1587 C 1239.332031 1587 1231.667969 1583.667969 1225 1577 L 759 1111 C 752.332031 1104.332031 749 1096.667969 749 1088 C 749 1079.332031 752.332031 1071.667969 759 1065 L 1225 599 C 1231.667969 592.332031 1239.332031 589 1248 589 C 1256.667969 589 1264.332031 592.332031 1271 599 L 1321 649 C 1327.667969 655.667969 1331 663.332031 1331 672 Z M 1331 672 " fill="white" />
</g>
</svg>
