<?xml version="1.0" encoding="UTF-8"?>
<svg xmlns="http://www.w3.org/2000/svg" xmlns:xlink="http://www.w3.org/1999/xlink" width="2048" height="2048" viewBox="0 0 2048 2048" version="1.1">
<g>
<path d="M 1523 864 C 1523 872.667969 1519.667969 880.332031 1513 887 L 1047 1353 C 1040.332031 1359.667969 1032.667969 1363 1024 1363 C 1015.332031 1363 1007.667969 1359.667969 1001 1353 L 535 887 C 528.332031 880.332031 525 872.667969 525 864 C 525 855.332031 528.332031 847.667969 535 841 L 585 791 C 591.667969 784.332031 599.332031 781 608 781 C 616.667969 781 624.332031 784.332031 631 791 L 1024 1184 L 1417 791 C 1423.667969 784.332031 1431.332031 781 1440 781 C 1448.667969 781 1456.332031 784.332031 1463 791 L 1513 841 C 1519.667969 847.667969 1523 855.332031 1523 864 Z M 1523 864 " fill="white" />
</g>
</svg>
