<?xml version="1.0" encoding="UTF-8"?>
<svg xmlns="http://www.w3.org/2000/svg" xmlns:xlink="http://www.w3.org/1999/xlink" width="2048" height="2048" viewBox="0 0 2048 2048" version="1.1">
<g>
<path d="M 1107 1088 C 1107 1096.667969 1103.667969 1104.332031 1097 1111 L 631 1577 C 624.332031 1583.667969 616.667969 1587 608 1587 C 599.332031 1587 591.667969 1583.667969 585 1577 L 535 1527 C 528.332031 1520.332031 525 1512.667969 525 1504 C 525 1495.332031 528.332031 1487.667969 535 1481 L 928 1088 L 535 695 C 528.332031 688.332031 525 680.667969 525 672 C 525 663.332031 528.332031 655.667969 535 649 L 585 599 C 591.667969 592.332031 599.332031 589 608 589 C 616.667969 589 624.332031 592.332031 631 599 L 1097 1065 C 1103.667969 1071.667969 1107 1079.332031 1107 1088 Z M 1491 1088 C 1491 1096.667969 1487.667969 1104.332031 1481 1111 L 1015 1577 C 1008.332031 1583.667969 1000.667969 1587 992 1587 C 983.332031 1587 975.667969 1583.667969 969 1577 L 919 1527 C 912.332031 1520.332031 909 1512.667969 909 1504 C 909 1495.332031 912.332031 1487.667969 919 1481 L 1312 1088 L 919 695 C 912.332031 688.332031 909 680.667969 909 672 C 909 663.332031 912.332031 655.667969 919 649 L 969 599 C 975.667969 592.332031 983.332031 589 992 589 C 1000.667969 589 1008.332031 592.332031 1015 599 L 1481 1065 C 1487.667969 1071.667969 1491 1079.332031 1491 1088 Z M 1491 1088 " fill="white" />
</g>
</svg>
