<?xml version="1.0" encoding="UTF-8"?>
<svg xmlns="http://www.w3.org/2000/svg" xmlns:xlink="http://www.w3.org/1999/xlink" width="2048" height="2048" viewBox="0 0 2048 2048" version="1.1">
<g>
<path d="M 1523 1440 C 1523 1448.667969 1519.667969 1456.332031 1513 1463 L 1463 1513 C 1456.332031 1519.667969 1448.667969 1523 1440 1523 C 1431.332031 1523 1423.667969 1519.667969 1417 1513 L 1024 1120 L 631 1513 C 624.332031 1519.667969 616.667969 1523 608 1523 C 599.332031 1523 591.667969 1519.667969 585 1513 L 535 1463 C 528.332031 1456.332031 525 1448.667969 525 1440 C 525 1431.332031 528.332031 1423.667969 535 1417 L 1001 951 C 1007.667969 944.332031 1015.332031 941 1024 941 C 1032.667969 941 1040.332031 944.332031 1047 951 L 1513 1417 C 1519.667969 1423.667969 1523 1431.332031 1523 1440 Z M 1523 1056 C 1523 1064.667969 1519.667969 1072.332031 1513 1079 L 1463 1129 C 1456.332031 1135.667969 1448.667969 1139 1440 1139 C 1431.332031 1139 1423.667969 1135.667969 1417 1129 L 1024 736 L 631 1129 C 624.332031 1135.667969 616.667969 1139 608 1139 C 599.332031 1139 591.667969 1135.667969 585 1129 L 535 1079 C 528.332031 1072.332031 525 1064.667969 525 1056 C 525 1047.332031 528.332031 1039.667969 535 1033 L 1001 567 C 1007.667969 560.332031 1015.332031 557 1024 557 C 1032.667969 557 1040.332031 560.332031 1047 567 L 1513 1033 C 1519.667969 1039.667969 1523 1047.332031 1523 1056 Z M 1523 1056 " fill="white" />
</g>
</svg>
