<?xml version="1.0" encoding="UTF-8"?>
<svg xmlns="http://www.w3.org/2000/svg" xmlns:xlink="http://www.w3.org/1999/xlink" width="2048" height="2048" viewBox="0 0 2048 2048" version="1.1">
<g>
<path d="M 1523 1312 C 1523 1320.667969 1519.667969 1328.332031 1513 1335 L 1463 1385 C 1456.332031 1391.667969 1448.667969 1395 1440 1395 C 1431.332031 1395 1423.667969 1391.667969 1417 1385 L 1024 992 L 631 1385 C 624.332031 1391.667969 616.667969 1395 608 1395 C 599.332031 1395 591.667969 1391.667969 585 1385 L 535 1335 C 528.332031 1328.332031 525 1320.667969 525 1312 C 525 1303.332031 528.332031 1295.667969 535 1289 L 1001 823 C 1007.667969 816.332031 1015.332031 813 1024 813 C 1032.667969 813 1040.332031 816.332031 1047 823 L 1513 1289 C 1519.667969 1295.667969 1523 1303.332031 1523 1312 Z M 1523 1312 " fill="white" />
</g>
</svg>
