<?xml version="1.0" encoding="UTF-8"?>
<svg xmlns="http://www.w3.org/2000/svg" xmlns:xlink="http://www.w3.org/1999/xlink" width="2048" height="2048" viewBox="0 0 2048 2048" version="1.1">
<g>
<path d="M 1713 1343 C 1687 1426.332031 1646 1509.667969 1590 1593 C 1504 1723.667969 1418.332031 1789 1333 1789 C 1300.332031 1789 1253.667969 1778.332031 1193 1757 C 1135.667969 1735.667969 1085.332031 1725 1042 1725 C 1001.332031 1725 954 1736 900 1758 C 846 1780.667969 802 1792 768 1792 C 666.667969 1792 566.332031 1705.667969 467 1533 C 369 1359 320 1191.332031 320 1030 C 320 878 357.667969 753.332031 433 656 C 507.667969 560 602.332031 512 717 512 C 765 512 824 522 894 542 C 963.332031 562 1009.332031 572 1032 572 C 1062 572 1109.667969 560.667969 1175 538 C 1243 515.332031 1300.667969 504 1348 504 C 1427.332031 504 1498.332031 525.667969 1561 569 C 1595.667969 593 1630.332031 626.332031 1665 669 C 1612.332031 713.667969 1574.332031 753 1551 787 C 1507.667969 849.667969 1486 918.667969 1486 994 C 1486 1076.667969 1509 1151 1555 1217 C 1601 1283 1653.667969 1325 1713 1343 Z M 1337 170 C 1337 210.667969 1327.332031 256 1308 306 C 1288 356 1257 402 1215 444 C 1179 480 1143 504 1107 516 C 1082.332031 523.332031 1047.667969 529 1003 533 C 1005 433.667969 1031 348 1081 276 C 1130.332031 204.667969 1213.667969 155.332031 1331 128 C 1331.667969 130 1332.5 133.667969 1333.5 139 C 1334.5 144.332031 1335.332031 148 1336 150 C 1336 152.667969 1336.167969 156 1336.5 160 C 1336.832031 164 1337 167.332031 1337 170 Z M 1337 170 " fill="white" />
</g>
</svg>
