<svg width="2048" height="2048" viewBox="-320 -384 2048 2048" xmlns="http://www.w3.org/2000/svg"><g transform="scale(1 -1) translate(0 -1280)"><path d="M1393 321q-39 -125 -123 -250q-129 -196 -257 -196q-49 0 -140 32q-86 32 -151 32q-61 0 -142 -33q-81 -34 -132 -34q-152 0 -301 259q-147 261 -147 503q0 228 113 374q112 144 284 144q72 0 177 -30q104 -30 138 -30q45 0 143 34q102 34 173 34q119 0 213 -65 q52 -36 104 -100q-79 -67 -114 -118q-65 -94 -65 -207q0 -124 69 -223t158 -126zM1017 1494q0 -61 -29 -136q-30 -75 -93 -138q-54 -54 -108 -72q-37 -11 -104 -17q3 149 78 257q74 107 250 148q1 -3 2.5 -11t2.5 -11q0 -4 0.5 -10t0.5 -10z" fill="white" /></g></svg>