<?xml version="1.0" encoding="UTF-8"?>
<svg xmlns="http://www.w3.org/2000/svg" xmlns:xlink="http://www.w3.org/1999/xlink" width="2048" height="2048" viewBox="0 0 2048 2048" version="1.1">
<g>
<path d="M 1792 1024 L 1792 1152 C 1792 1187.332031 1781.167969 1217.5 1759.5 1242.5 C 1737.832031 1267.5 1709.667969 1280 1675 1280 L 971 1280 L 1264 1574 C 1289.332031 1598 1302 1628 1302 1664 C 1302 1700 1289.332031 1730 1264 1754 L 1189 1830 C 1164.332031 1854.667969 1134.332031 1867 1099 1867 C 1064.332031 1867 1034 1854.667969 1008 1830 L 357 1178 C 332.332031 1153.332031 320 1123.332031 320 1088 C 320 1053.332031 332.332031 1023 357 997 L 1008 347 C 1033.332031 321.667969 1063.667969 309 1099 309 C 1133.667969 309 1163.667969 321.667969 1189 347 L 1264 421 C 1289.332031 446.332031 1302 476.667969 1302 512 C 1302 547.332031 1289.332031 577.667969 1264 603 L 971 896 L 1675 896 C 1709.667969 896 1737.832031 908.5 1759.5 933.5 C 1781.167969 958.5 1792 988.667969 1792 1024 Z M 1792 1024 " fill="white" />
</g>
</svg>
