<?xml version="1.0" encoding="UTF-8"?>
<svg xmlns="http://www.w3.org/2000/svg" xmlns:xlink="http://www.w3.org/1999/xlink" width="2048" height="2048" viewBox="0 0 2048 2048" version="1.1">
<g>
<path d="M 1803 960 C 1803 995.332031 1790.667969 1025.332031 1766 1050 L 1115 1702 C 1089 1726.667969 1058.667969 1739 1024 1739 C 988.667969 1739 958.667969 1726.667969 934 1702 L 283 1050 C 257.667969 1026 245 996 245 960 C 245 924.667969 257.667969 894.332031 283 869 L 357 794 C 383 769.332031 413.332031 757 448 757 C 483.332031 757 513.332031 769.332031 538 794 L 832 1088 L 832 384 C 832 349.332031 844.667969 319.332031 870 294 C 895.332031 268.667969 925.332031 256 960 256 L 1088 256 C 1122.667969 256 1152.667969 268.667969 1178 294 C 1203.332031 319.332031 1216 349.332031 1216 384 L 1216 1088 L 1510 794 C 1534.667969 769.332031 1564.667969 757 1600 757 C 1634.667969 757 1665 769.332031 1691 794 L 1766 869 C 1790.667969 895 1803 925.332031 1803 960 Z M 1803 960 " fill="white" />
</g>
</svg>
