<svg width="2048" height="2048" viewBox="-256 -384 2048 2048" xmlns="http://www.w3.org/2000/svg"><g transform="scale(1 -1) translate(0 -1280)"><path d="M1285 640q0 27 -18 45l-91 91l-362 362q-18 18 -45 18t-45 -18l-91 -91q-18 -18 -18 -45t18 -45l189 -189h-502q-26 0 -45 -19t-19 -45v-128q0 -26 19 -45t45 -19h502l-189 -189q-19 -19 -19 -45t19 -45l91 -91q18 -18 45 -18t45 18l362 362l91 91q18 18 18 45zM1536 640 q0 -209 -103 -385.5t-279.5 -279.5t-385.5 -103t-385.5 103t-279.5 279.5t-103 385.5t103 385.5t279.5 279.5t385.5 103t385.5 -103t279.5 -279.5t103 -385.5z" fill="white" /></g></svg>