<svg width="2048" height="2048" viewBox="-256 -384 2048 2048" xmlns="http://www.w3.org/2000/svg"><g transform="scale(1 -1) translate(0 -1280)"><path d="M1283 995l-355 -355l355 -355l144 144q29 31 70 14q39 -17 39 -59v-448q0 -26 -19 -45t-45 -19h-448q-42 0 -59 40q-17 39 14 69l144 144l-355 355l-355 -355l144 -144q31 -30 14 -69q-17 -40 -59 -40h-448q-26 0 -45 19t-19 45v448q0 42 40 59q39 17 69 -14l144 -144 l355 355l-355 355l-144 -144q-19 -19 -45 -19q-12 0 -24 5q-40 17 -40 59v448q0 26 19 45t45 19h448q42 0 59 -40q17 -39 -14 -69l-144 -144l355 -355l355 355l-144 144q-31 30 -14 69q17 40 59 40h448q26 0 45 -19t19 -45v-448q0 -42 -39 -59q-13 -5 -25 -5q-26 0 -45 19z " fill="white" /></g></svg>