<?xml version="1.0" encoding="UTF-8"?>
<svg xmlns="http://www.w3.org/2000/svg" xmlns:xlink="http://www.w3.org/1999/xlink" width="2048" height="2048" viewBox="0 0 2048 2048" version="1.1">
<g>
<path d="M 1728 1088 C 1728 1124 1715.667969 1154.332031 1691 1179 L 1040 1830 C 1014 1854.667969 983.667969 1867 949 1867 C 915 1867 885 1854.667969 859 1830 L 784 1755 C 758.667969 1729.667969 746 1699.332031 746 1664 C 746 1628.667969 758.667969 1598.332031 784 1573 L 1077 1280 L 373 1280 C 338.332031 1280 310.167969 1267.5 288.5 1242.5 C 266.832031 1217.5 256 1187.332031 256 1152 L 256 1024 C 256 988.667969 266.832031 958.5 288.5 933.5 C 310.167969 908.5 338.332031 896 373 896 L 1077 896 L 784 602 C 758.667969 578 746 548 746 512 C 746 476 758.667969 446 784 422 L 859 347 C 884.332031 321.667969 914.332031 309 949 309 C 984.332031 309 1014.667969 321.667969 1040 347 L 1691 998 C 1715.667969 1021.332031 1728 1051.332031 1728 1088 Z M 1728 1088 " fill="white" />
</g>
</svg>
