<?xml version="1.0" encoding="UTF-8"?>
<svg xmlns="http://www.w3.org/2000/svg" xmlns:xlink="http://www.w3.org/1999/xlink" width="2048" height="2048" viewBox="0 0 2048 2048" version="1.1">
<g>
<path d="M 1540 1023 C 1540 1005 1534 990 1522 978 L 1069 525 C 1057 513 1042 507 1024 507 C 1006 507 991 513 979 525 L 526 978 C 514 990 508 1005 508 1023 C 508 1041 514 1056 526 1068 L 617 1159 C 629 1171 644 1177 662 1177 C 680 1177 695 1171 707 1159 L 896 970 L 896 1472 C 896 1489.332031 902.332031 1504.332031 915 1517 C 927.667969 1529.667969 942.667969 1536 960 1536 L 1088 1536 C 1105.332031 1536 1120.332031 1529.667969 1133 1517 C 1145.667969 1504.332031 1152 1489.332031 1152 1472 L 1152 970 L 1341 1159 C 1353.667969 1171.667969 1368.667969 1178 1386 1178 C 1403.332031 1178 1418.332031 1171.667969 1431 1159 L 1522 1068 C 1534 1056 1540 1041 1540 1023 Z M 1792 1024 C 1792 1163.332031 1757.667969 1291.832031 1689 1409.5 C 1620.332031 1527.167969 1527.167969 1620.332031 1409.5 1689 C 1291.832031 1757.667969 1163.332031 1792 1024 1792 C 884.667969 1792 756.167969 1757.667969 638.5 1689 C 520.832031 1620.332031 427.667969 1527.167969 359 1409.5 C 290.332031 1291.832031 256 1163.332031 256 1024 C 256 884.667969 290.332031 756.167969 359 638.5 C 427.667969 520.832031 520.832031 427.667969 638.5 359 C 756.167969 290.332031 884.667969 256 1024 256 C 1163.332031 256 1291.832031 290.332031 1409.5 359 C 1527.167969 427.667969 1620.332031 520.832031 1689 638.5 C 1757.667969 756.167969 1792 884.667969 1792 1024 Z M 1792 1024 " fill="white" />
</g>
</svg>
