<?xml version="1.0" encoding="UTF-8"?>
<svg xmlns="http://www.w3.org/2000/svg" xmlns:xlink="http://www.w3.org/1999/xlink" width="2048" height="2048" viewBox="0 0 2048 2048" version="1.1">
<g>
<path d="M 1408 928 L 1408 1120 C 1408 1128.667969 1404.832031 1136.167969 1398.5 1142.5 C 1392.167969 1148.832031 1384.667969 1152 1376 1152 L 1024 1152 L 1024 1344 C 1024 1353.332031 1021 1361 1015 1367 C 1009 1373 1001.332031 1376 992 1376 C 984 1376 976 1372.667969 968 1366 L 649 1047 C 643 1041 640 1033.332031 640 1024 C 640 1014.667969 643 1007 649 1001 L 969 681 C 975 675 982.667969 672 992 672 C 1000.667969 672 1008.167969 675.167969 1014.5 681.5 C 1020.832031 687.832031 1024 695.332031 1024 704 L 1024 896 L 1376 896 C 1384.667969 896 1392.167969 899.167969 1398.5 905.5 C 1404.832031 911.832031 1408 919.332031 1408 928 Z M 1568 1024 C 1568 925.332031 1543.667969 834.332031 1495 751 C 1446.332031 667.667969 1380.332031 601.667969 1297 553 C 1213.667969 504.332031 1122.667969 480 1024 480 C 925.332031 480 834.332031 504.332031 751 553 C 667.667969 601.667969 601.667969 667.667969 553 751 C 504.332031 834.332031 480 925.332031 480 1024 C 480 1122.667969 504.332031 1213.667969 553 1297 C 601.667969 1380.332031 667.667969 1446.332031 751 1495 C 834.332031 1543.667969 925.332031 1568 1024 1568 C 1122.667969 1568 1213.667969 1543.667969 1297 1495 C 1380.332031 1446.332031 1446.332031 1380.332031 1495 1297 C 1543.667969 1213.667969 1568 1122.667969 1568 1024 Z M 1792 1024 C 1792 1163.332031 1757.667969 1291.832031 1689 1409.5 C 1620.332031 1527.167969 1527.167969 1620.332031 1409.5 1689 C 1291.832031 1757.667969 1163.332031 1792 1024 1792 C 884.667969 1792 756.167969 1757.667969 638.5 1689 C 520.832031 1620.332031 427.667969 1527.167969 359 1409.5 C 290.332031 1291.832031 256 1163.332031 256 1024 C 256 884.667969 290.332031 756.167969 359 638.5 C 427.667969 520.832031 520.832031 427.667969 638.5 359 C 756.167969 290.332031 884.667969 256 1024 256 C 1163.332031 256 1291.832031 290.332031 1409.5 359 C 1527.167969 427.667969 1620.332031 520.832031 1689 638.5 C 1757.667969 756.167969 1792 884.667969 1792 1024 Z M 1792 1024 " fill="white" />
</g>
</svg>
