<svg width="2048" height="2048" viewBox="-256 -384 2048 2048" xmlns="http://www.w3.org/2000/svg"><g transform="scale(1 -1) translate(0 -1280)"><path d="M1118 660q-8 -20 -30 -20h-192v-352q0 -14 -9 -23t-23 -9h-192q-14 0 -23 9t-9 23v352h-192q-14 0 -23 9t-9 23q0 12 10 24l319 319q11 9 23 9t23 -9l320 -320q15 -16 7 -35zM768 1184q-148 0 -273 -73t-198 -198t-73 -273t73 -273t198 -198t273 -73t273 73t198 198 t73 273t-73 273t-198 198t-273 73zM1536 640q0 -209 -103 -385.5t-279.5 -279.5t-385.5 -103t-385.5 103t-279.5 279.5t-103 385.5t103 385.5t279.5 279.5t385.5 103t385.5 -103t279.5 -279.5t103 -385.5z" fill="white" /></g></svg>