<?xml version="1.0" encoding="UTF-8"?>
<svg xmlns="http://www.w3.org/2000/svg" xmlns:xlink="http://www.w3.org/1999/xlink" width="2048" height="2048" viewBox="0 0 2048 2048" version="1.1">
<g>
<path d="M 1344 448 C 1344 465.332031 1337.667969 480.332031 1325 493 C 1312.332031 505.667969 1297.332031 512 1280 512 L 1152 512 L 1152 1536 L 1280 1536 C 1297.332031 1536 1312.332031 1542.332031 1325 1555 C 1337.667969 1567.667969 1344 1582.667969 1344 1600 C 1344 1617.332031 1337.667969 1632.332031 1325 1645 L 1069 1901 C 1056.332031 1913.667969 1041.332031 1920 1024 1920 C 1006.667969 1920 991.667969 1913.667969 979 1901 L 723 1645 C 710.332031 1632.332031 704 1617.332031 704 1600 C 704 1582.667969 710.332031 1567.667969 723 1555 C 735.667969 1542.332031 750.667969 1536 768 1536 L 896 1536 L 896 512 L 768 512 C 750.667969 512 735.667969 505.667969 723 493 C 710.332031 480.332031 704 465.332031 704 448 C 704 430.667969 710.332031 415.667969 723 403 L 979 147 C 991.667969 134.332031 1006.667969 128 1024 128 C 1041.332031 128 1056.332031 134.332031 1069 147 L 1325 403 C 1337.667969 415.667969 1344 430.667969 1344 448 Z M 1344 448 " fill="white" />
</g>
</svg>
