<?xml version="1.0" encoding="UTF-8"?>
<svg xmlns="http://www.w3.org/2000/svg" xmlns:xlink="http://www.w3.org/1999/xlink" width="2048" height="2048" viewBox="0 0 2048 2048" version="1.1">
<g>
<path d="M 1539 669 L 1184 1024 L 1539 1379 L 1683 1235 C 1702.332031 1214.332031 1725.667969 1209.667969 1753 1221 C 1779 1232.332031 1792 1252 1792 1280 L 1792 1728 C 1792 1745.332031 1785.667969 1760.332031 1773 1773 C 1760.332031 1785.667969 1745.332031 1792 1728 1792 L 1280 1792 C 1252 1792 1232.332031 1778.667969 1221 1752 C 1209.667969 1726 1214.332031 1703 1235 1683 L 1379 1539 L 1024 1184 L 669 1539 L 813 1683 C 833.667969 1703 838.332031 1726 827 1752 C 815.667969 1778.667969 796 1792 768 1792 L 320 1792 C 302.667969 1792 287.667969 1785.667969 275 1773 C 262.332031 1760.332031 256 1745.332031 256 1728 L 256 1280 C 256 1252 269.332031 1232.332031 296 1221 C 322 1209.667969 345 1214.332031 365 1235 L 509 1379 L 864 1024 L 509 669 L 365 813 C 352.332031 825.667969 337.332031 832 320 832 C 312 832 304 830.332031 296 827 C 269.332031 815.667969 256 796 256 768 L 256 320 C 256 302.667969 262.332031 287.667969 275 275 C 287.667969 262.332031 302.667969 256 320 256 L 768 256 C 796 256 815.667969 269.332031 827 296 C 838.332031 322 833.667969 345 813 365 L 669 509 L 1024 864 L 1379 509 L 1235 365 C 1214.332031 345 1209.667969 322 1221 296 C 1232.332031 269.332031 1252 256 1280 256 L 1728 256 C 1745.332031 256 1760.332031 262.332031 1773 275 C 1785.667969 287.667969 1792 302.667969 1792 320 L 1792 768 C 1792 796 1779 815.667969 1753 827 C 1744.332031 830.332031 1736 832 1728 832 C 1710.667969 832 1695.667969 825.667969 1683 813 Z M 1539 669 " fill="white" />
</g>
</svg>
