<?xml version="1.0" encoding="UTF-8"?>
<svg xmlns="http://www.w3.org/2000/svg" xmlns:xlink="http://www.w3.org/1999/xlink" width="2048" height="2048" viewBox="0 0 2048 2048" version="1.1">
<g>
<path d="M 1541 1024 C 1541 1006 1535 991 1523 979 L 1070 526 C 1058 514 1043 508 1025 508 C 1007 508 992 514 980 526 L 889 617 C 877 629 871 644 871 662 C 871 680 877 695 889 707 L 1078 896 L 576 896 C 558.667969 896 543.667969 902.332031 531 915 C 518.332031 927.667969 512 942.667969 512 960 L 512 1088 C 512 1105.332031 518.332031 1120.332031 531 1133 C 543.667969 1145.667969 558.667969 1152 576 1152 L 1078 1152 L 889 1341 C 876.332031 1353.667969 870 1368.667969 870 1386 C 870 1403.332031 876.332031 1418.332031 889 1431 L 980 1522 C 992 1534 1007 1540 1025 1540 C 1043 1540 1058 1534 1070 1522 L 1523 1069 C 1535 1057 1541 1042 1541 1024 Z M 1792 1024 C 1792 1163.332031 1757.667969 1291.832031 1689 1409.5 C 1620.332031 1527.167969 1527.167969 1620.332031 1409.5 1689 C 1291.832031 1757.667969 1163.332031 1792 1024 1792 C 884.667969 1792 756.167969 1757.667969 638.5 1689 C 520.832031 1620.332031 427.667969 1527.167969 359 1409.5 C 290.332031 1291.832031 256 1163.332031 256 1024 C 256 884.667969 290.332031 756.167969 359 638.5 C 427.667969 520.832031 520.832031 427.667969 638.5 359 C 756.167969 290.332031 884.667969 256 1024 256 C 1163.332031 256 1291.832031 290.332031 1409.5 359 C 1527.167969 427.667969 1620.332031 520.832031 1689 638.5 C 1757.667969 756.167969 1792 884.667969 1792 1024 Z M 1792 1024 " fill="white" />
</g>
</svg>
