<svg width="2048" height="2048" viewBox="-256 -384 2048 2048" xmlns="http://www.w3.org/2000/svg"><g transform="scale(1 -1) translate(0 -1280)"><path d="M1152 640q0 -14 -9 -23l-320 -320q-9 -9 -23 -9q-13 0 -22.5 9.5t-9.5 22.5v192h-352q-13 0 -22.5 9.5t-9.5 22.5v192q0 13 9.5 22.5t22.5 9.5h352v192q0 14 9 23t23 9q12 0 24 -10l319 -319q9 -9 9 -23zM1312 640q0 148 -73 273t-198 198t-273 73t-273 -73t-198 -198 t-73 -273t73 -273t198 -198t273 -73t273 73t198 198t73 273zM1536 640q0 -209 -103 -385.5t-279.5 -279.5t-385.5 -103t-385.5 103t-279.5 279.5t-103 385.5t103 385.5t279.5 279.5t385.5 103t385.5 -103t279.5 -279.5t103 -385.5z" fill="white" /></g></svg>