<svg width="2048" height="2048" viewBox="-128 -384 2048 2048" xmlns="http://www.w3.org/2000/svg"><g transform="scale(1 -1) translate(0 -1280)"><path d="M1792 640q0 -26 -19 -45l-256 -256q-19 -19 -45 -19t-45 19t-19 45v128h-384v-384h128q26 0 45 -19t19 -45t-19 -45l-256 -256q-19 -19 -45 -19t-45 19l-256 256q-19 19 -19 45t19 45t45 19h128v384h-384v-128q0 -26 -19 -45t-45 -19t-45 19l-256 256q-19 19 -19 45 t19 45l256 256q19 19 45 19t45 -19t19 -45v-128h384v384h-128q-26 0 -45 19t-19 45t19 45l256 256q19 19 45 19t45 -19l256 -256q19 -19 19 -45t-19 -45t-45 -19h-128v-384h384v128q0 26 19 45t45 19t45 -19l256 -256q19 -19 19 -45z" fill="white" /></g></svg>