<?xml version="1.0" encoding="UTF-8"?>
<svg xmlns="http://www.w3.org/2000/svg" xmlns:xlink="http://www.w3.org/1999/xlink" width="2048" height="2048" viewBox="0 0 2048 2048" version="1.1">
<g>
<path d="M 1920 1024 C 1920 1041.332031 1913.667969 1056.332031 1901 1069 L 1645 1325 C 1632.332031 1337.667969 1617.332031 1344 1600 1344 C 1582.667969 1344 1567.667969 1337.667969 1555 1325 C 1542.332031 1312.332031 1536 1297.332031 1536 1280 L 1536 1152 L 1152 1152 L 1152 1536 L 1280 1536 C 1297.332031 1536 1312.332031 1542.332031 1325 1555 C 1337.667969 1567.667969 1344 1582.667969 1344 1600 C 1344 1617.332031 1337.667969 1632.332031 1325 1645 L 1069 1901 C 1056.332031 1913.667969 1041.332031 1920 1024 1920 C 1006.667969 1920 991.667969 1913.667969 979 1901 L 723 1645 C 710.332031 1632.332031 704 1617.332031 704 1600 C 704 1582.667969 710.332031 1567.667969 723 1555 C 735.667969 1542.332031 750.667969 1536 768 1536 L 896 1536 L 896 1152 L 512 1152 L 512 1280 C 512 1297.332031 505.667969 1312.332031 493 1325 C 480.332031 1337.667969 465.332031 1344 448 1344 C 430.667969 1344 415.667969 1337.667969 403 1325 L 147 1069 C 134.332031 1056.332031 128 1041.332031 128 1024 C 128 1006.667969 134.332031 991.667969 147 979 L 403 723 C 415.667969 710.332031 430.667969 704 448 704 C 465.332031 704 480.332031 710.332031 493 723 C 505.667969 735.667969 512 750.667969 512 768 L 512 896 L 896 896 L 896 512 L 768 512 C 750.667969 512 735.667969 505.667969 723 493 C 710.332031 480.332031 704 465.332031 704 448 C 704 430.667969 710.332031 415.667969 723 403 L 979 147 C 991.667969 134.332031 1006.667969 128 1024 128 C 1041.332031 128 1056.332031 134.332031 1069 147 L 1325 403 C 1337.667969 415.667969 1344 430.667969 1344 448 C 1344 465.332031 1337.667969 480.332031 1325 493 C 1312.332031 505.667969 1297.332031 512 1280 512 L 1152 512 L 1152 896 L 1536 896 L 1536 768 C 1536 750.667969 1542.332031 735.667969 1555 723 C 1567.667969 710.332031 1582.667969 704 1600 704 C 1617.332031 704 1632.332031 710.332031 1645 723 L 1901 979 C 1913.667969 991.667969 1920 1006.667969 1920 1024 Z M 1920 1024 " fill="white" />
</g>
</svg>
