<?xml version="1.0" encoding="UTF-8"?>
<svg xmlns="http://www.w3.org/2000/svg" xmlns:xlink="http://www.w3.org/1999/xlink" width="2048" height="2048" viewBox="0 0 2048 2048" version="1.1">
<g>
<path d="M 1674 1178 C 1704.667969 1195.332031 1724.5 1221.167969 1733.5 1255.5 C 1742.5 1289.832031 1738.332031 1322.332031 1721 1353 L 1657 1463 C 1639.667969 1493.667969 1613.832031 1513.5 1579.5 1522.5 C 1545.167969 1531.5 1512.667969 1527.332031 1482 1510 L 1216 1357 L 1216 1664 C 1216 1698.667969 1203.332031 1728.667969 1178 1754 C 1152.667969 1779.332031 1122.667969 1792 1088 1792 L 960 1792 C 925.332031 1792 895.332031 1779.332031 870 1754 C 844.667969 1728.667969 832 1698.667969 832 1664 L 832 1357 L 566 1510 C 535.332031 1527.332031 502.832031 1531.5 468.5 1522.5 C 434.167969 1513.5 408.332031 1493.667969 391 1463 L 327 1353 C 309.667969 1322.332031 305.5 1289.832031 314.5 1255.5 C 323.5 1221.167969 343.332031 1195.332031 374 1178 L 640 1024 L 374 870 C 343.332031 852.667969 323.5 826.832031 314.5 792.5 C 305.5 758.167969 309.667969 725.667969 327 695 L 391 585 C 408.332031 554.332031 434.167969 534.5 468.5 525.5 C 502.832031 516.5 535.332031 520.667969 566 538 L 832 691 L 832 384 C 832 349.332031 844.667969 319.332031 870 294 C 895.332031 268.667969 925.332031 256 960 256 L 1088 256 C 1122.667969 256 1152.667969 268.667969 1178 294 C 1203.332031 319.332031 1216 349.332031 1216 384 L 1216 691 L 1482 538 C 1512.667969 520.667969 1545.167969 516.5 1579.5 525.5 C 1613.832031 534.5 1639.667969 554.332031 1657 585 L 1721 695 C 1738.332031 725.667969 1742.5 758.167969 1733.5 792.5 C 1724.5 826.832031 1704.667969 852.667969 1674 870 L 1408 1024 Z M 1674 1178 " fill="white" />
</g>
</svg>
