<?xml version="1.0" encoding="UTF-8"?>
<svg xmlns="http://www.w3.org/2000/svg" xmlns:xlink="http://www.w3.org/1999/xlink" width="2048" height="2048" viewBox="0 0 2048 2048" version="1.1">
<g>
<path d="M 1568 1021 C 1568 913.667969 1539 815.332031 1481 726 L 727 1479 C 818.332031 1538.332031 917.332031 1568 1024 1568 C 1098 1568 1168.5 1553.5 1235.5 1524.5 C 1302.5 1495.5 1360.332031 1456.667969 1409 1408 C 1457.667969 1359.332031 1496.332031 1301.167969 1525 1233.5 C 1553.667969 1165.832031 1568 1095 1568 1021 Z M 569 1320 L 1324 566 C 1234 505.332031 1134 475 1024 475 C 925.332031 475 834.332031 499.332031 751 548 C 667.667969 596.667969 601.667969 663 553 747 C 504.332031 831 480 922.332031 480 1021 C 480 1129 509.667969 1228.667969 569 1320 Z M 1792 1021 C 1792 1125.667969 1771.667969 1225.667969 1731 1321 C 1690.332031 1416.332031 1635.832031 1498.332031 1567.5 1567 C 1499.167969 1635.667969 1417.5 1690.332031 1322.5 1731 C 1227.5 1771.667969 1128 1792 1024 1792 C 920 1792 820.5 1771.667969 725.5 1731 C 630.5 1690.332031 548.832031 1635.667969 480.5 1567 C 412.167969 1498.332031 357.667969 1416.332031 317 1321 C 276.332031 1225.667969 256 1125.667969 256 1021 C 256 916.332031 276.332031 816.5 317 721.5 C 357.667969 626.5 412.167969 544.667969 480.5 476 C 548.832031 407.332031 630.5 352.667969 725.5 312 C 820.5 271.332031 920 251 1024 251 C 1128 251 1227.5 271.332031 1322.5 312 C 1417.5 352.667969 1499.167969 407.332031 1567.5 476 C 1635.832031 544.667969 1690.332031 626.5 1731 721.5 C 1771.667969 816.5 1792 916.332031 1792 1021 Z M 1792 1021 " fill="white" />
</g>
</svg>
