<?xml version="1.0" encoding="UTF-8"?>
<svg xmlns="http://www.w3.org/2000/svg" xmlns:xlink="http://www.w3.org/1999/xlink" width="2048" height="2048" viewBox="0 0 2048 2048" version="1.1">
<g>
<path d="M 1792 1472 L 1792 1600 C 1792 1617.332031 1785.667969 1632.332031 1773 1645 C 1760.332031 1657.667969 1745.332031 1664 1728 1664 L 320 1664 C 302.667969 1664 287.667969 1657.667969 275 1645 C 262.332031 1632.332031 256 1617.332031 256 1600 L 256 1472 C 256 1454.667969 262.332031 1439.667969 275 1427 C 287.667969 1414.332031 302.667969 1408 320 1408 L 1728 1408 C 1745.332031 1408 1760.332031 1414.332031 1773 1427 C 1785.667969 1439.667969 1792 1454.667969 1792 1472 Z M 1792 960 L 1792 1088 C 1792 1105.332031 1785.667969 1120.332031 1773 1133 C 1760.332031 1145.667969 1745.332031 1152 1728 1152 L 320 1152 C 302.667969 1152 287.667969 1145.667969 275 1133 C 262.332031 1120.332031 256 1105.332031 256 1088 L 256 960 C 256 942.667969 262.332031 927.667969 275 915 C 287.667969 902.332031 302.667969 896 320 896 L 1728 896 C 1745.332031 896 1760.332031 902.332031 1773 915 C 1785.667969 927.667969 1792 942.667969 1792 960 Z M 1792 448 L 1792 576 C 1792 593.332031 1785.667969 608.332031 1773 621 C 1760.332031 633.667969 1745.332031 640 1728 640 L 320 640 C 302.667969 640 287.667969 633.667969 275 621 C 262.332031 608.332031 256 593.332031 256 576 L 256 448 C 256 430.667969 262.332031 415.667969 275 403 C 287.667969 390.332031 302.667969 384 320 384 L 1728 384 C 1745.332031 384 1760.332031 390.332031 1773 403 C 1785.667969 415.667969 1792 430.667969 1792 448 Z M 1792 448 " fill="white" />
</g>
</svg>
