<svg width="2048" height="2048" viewBox="-192 -384 2048 2048" xmlns="http://www.w3.org/2000/svg"><g transform="scale(1 -1) translate(0 -1280)"><path d="M848 -160q0 16 -16 16q-59 0 -101.5 42.5t-42.5 101.5q0 16 -16 16t-16 -16q0 -73 51.5 -124.5t124.5 -51.5q16 0 16 16zM1664 128q0 -52 -38 -90t-90 -38h-448q0 -106 -75 -181t-181 -75t-181 75t-75 181h-448q-52 0 -90 38t-38 90q190 161 287 397.5t97 498.5 q0 165 96 262t264 117q-8 18 -8 37q0 40 28 68t68 28t68 -28t28 -68q0 -19 -8 -37q168 -20 264 -117t96 -262q0 -262 97 -498.5t287 -397.5z" fill="white" /></g></svg>