<?xml version="1.0" encoding="UTF-8"?>
<svg xmlns="http://www.w3.org/2000/svg" xmlns:xlink="http://www.w3.org/1999/xlink" width="2048" height="2048" viewBox="0 0 2048 2048" version="1.1">
<g>
<path d="M 1104 998 C 1104 969.332031 1090.332031 947.332031 1063 932 C 1035.667969 916.667969 1010 916.332031 986 931 C 957.332031 944.332031 943.167969 968.5 943.5 1003.5 C 943.832031 1038.5 958.332031 1062 987 1074 C 1013 1089.332031 1040 1088 1068 1070 C 1096 1052 1108 1028 1104 998 Z M 1184 982 C 1189.332031 1026 1177.332031 1066.332031 1148 1103 C 1118.667969 1139.667969 1082 1160 1038 1164 C 994 1168 954.332031 1154.667969 919 1124 C 883.667969 1093.332031 865 1055.667969 863 1011 C 861.667969 978.332031 870.167969 947.332031 888.5 918 C 906.832031 888.667969 931 867.332031 961 854 C 1007.667969 833.332031 1054.832031 836.667969 1102.5 864 C 1150.167969 891.332031 1177.332031 930.667969 1184 982 Z M 1356 591 C 1342.667969 605 1324.832031 616.332031 1302.5 625 C 1280.167969 633.667969 1262.5 639 1249.5 641 C 1236.5 643 1215.332031 645.667969 1186 649 C 1082.667969 662.332031 974.667969 662.332031 862 649 C 832.667969 645 811.667969 641.832031 799 639.5 C 786.332031 637.167969 768.832031 631.832031 746.5 623.5 C 724.167969 615.167969 706 604.332031 692 591 C 700.667969 578.332031 712.667969 568 728 560 C 743.332031 552 756.667969 546.832031 768 544.5 C 779.332031 542.167969 795 539.332031 815 536 C 947 512.667969 1083 512.332031 1223 535 C 1245 538.332031 1262 541.167969 1274 543.5 C 1286 545.832031 1300.332031 551.167969 1317 559.5 C 1333.667969 567.832031 1346.667969 578.332031 1356 591 Z M 1398 1337 C 1398 1332.332031 1399.832031 1323.5 1403.5 1310.5 C 1407.167969 1297.5 1408.167969 1286.832031 1406.5 1278.5 C 1404.832031 1270.167969 1399 1264.667969 1389 1262 C 1281.667969 1332.667969 1160 1368 1024 1368 C 888 1368 766 1332.667969 658 1262 L 646 1268 L 641 1280 C 658.332031 1382.667969 672 1452.667969 682 1490 C 713.332031 1544 781.332031 1580 886 1598 C 1052 1628.667969 1194.667969 1611 1314 1545 C 1336.667969 1532.332031 1353 1515.167969 1363 1493.5 C 1373 1471.832031 1380.5 1443.332031 1385.5 1408 C 1390.5 1372.667969 1394.667969 1349 1398 1337 Z M 1528 644 C 1534 608.667969 1531.332031 583.667969 1520 569 C 1491.332031 532.332031 1439.667969 503 1365 481 C 1221 439 1058.667969 427 878 445 C 790 453 714.667969 468.332031 652 491 C 626.667969 501 606.832031 509.332031 592.5 516 C 578.167969 522.667969 562.5 534 545.5 550 C 528.5 566 518.667969 584 516 604 C 521.332031 649.332031 527.667969 695.332031 535 742 C 542.332031 788.667969 552 845.667969 564 913 C 576 980.332031 584 1026 588 1050 C 588.667969 1053.332031 590.332031 1063.667969 593 1081 C 595.667969 1098.332031 598 1110.332031 600 1117 C 602 1123.667969 606 1132.667969 612 1144 C 618 1155.332031 625.332031 1164.667969 634 1172 C 704 1225.332031 798.667969 1258.667969 918 1272 C 1090.667969 1290.667969 1237.332031 1269.667969 1358 1209 C 1374 1200.332031 1387.167969 1192.667969 1397.5 1186 C 1407.832031 1179.332031 1418.167969 1169.667969 1428.5 1157 C 1438.832031 1144.332031 1445.332031 1131 1448 1117 C 1480 939 1506.667969 781.332031 1528 644 Z M 1792 544 L 1792 1504 C 1792 1583.332031 1763.832031 1651.167969 1707.5 1707.5 C 1651.167969 1763.832031 1583.332031 1792 1504 1792 L 544 1792 C 464.667969 1792 396.832031 1763.832031 340.5 1707.5 C 284.167969 1651.167969 256 1583.332031 256 1504 L 256 544 C 256 464.667969 284.167969 396.832031 340.5 340.5 C 396.832031 284.167969 464.667969 256 544 256 L 1504 256 C 1583.332031 256 1651.167969 284.167969 1707.5 340.5 C 1763.832031 396.832031 1792 464.667969 1792 544 Z M 1792 544 " fill="white" />
</g>
</svg>
