<?xml version="1.0" encoding="UTF-8"?>
<svg xmlns="http://www.w3.org/2000/svg" xmlns:xlink="http://www.w3.org/1999/xlink" width="2048" height="2048" viewBox="0 0 2048 2048" version="1.1">
<g>
<path d="M 1548 256 C 1563.332031 256 1578 259 1592 265 C 1614 273.667969 1631.5 287.332031 1644.5 306 C 1657.5 324.667969 1664 345.332031 1664 368 L 1664 1657 C 1664 1679.667969 1657.5 1700.332031 1644.5 1719 C 1631.5 1737.667969 1614 1751.332031 1592 1760 C 1579.332031 1765.332031 1564.667969 1768 1548 1768 C 1516 1768 1488.332031 1757.332031 1465 1736 L 1024 1312 L 583 1736 C 559 1758 531.332031 1769 500 1769 C 484.667969 1769 470 1766 456 1760 C 434 1751.332031 416.5 1737.667969 403.5 1719 C 390.5 1700.332031 384 1679.667969 384 1657 L 384 368 C 384 345.332031 390.5 324.667969 403.5 306 C 416.5 287.332031 434 273.667969 456 265 C 470 259 484.667969 256 500 256 Z M 1548 256 " fill="white" />
</g>
</svg>
