<?xml version="1.0" encoding="UTF-8"?>
<svg xmlns="http://www.w3.org/2000/svg" xmlns:xlink="http://www.w3.org/1999/xlink" width="2048" height="2048" viewBox="0 0 2048 2048" version="1.1">
<g>
<path d="M 768 384 L 1280 384 L 1280 256 L 768 256 Z M 1920 1024 L 1920 1504 C 1920 1548 1904.332031 1585.667969 1873 1617 C 1841.667969 1648.332031 1804 1664 1760 1664 L 288 1664 C 244 1664 206.332031 1648.332031 175 1617 C 143.667969 1585.667969 128 1548 128 1504 L 128 1024 L 800 1024 L 800 1184 C 800 1201.332031 806.332031 1216.332031 819 1229 C 831.667969 1241.667969 846.667969 1248 864 1248 L 1184 1248 C 1201.332031 1248 1216.332031 1241.667969 1229 1229 C 1241.667969 1216.332031 1248 1201.332031 1248 1184 L 1248 1024 Z M 1152 1024 L 1152 1152 L 896 1152 L 896 1024 Z M 1920 544 L 1920 928 L 128 928 L 128 544 C 128 500 143.667969 462.332031 175 431 C 206.332031 399.667969 244 384 288 384 L 640 384 L 640 224 C 640 197.332031 649.332031 174.667969 668 156 C 686.667969 137.332031 709.332031 128 736 128 L 1312 128 C 1338.667969 128 1361.332031 137.332031 1380 156 C 1398.667969 174.667969 1408 197.332031 1408 224 L 1408 384 L 1760 384 C 1804 384 1841.667969 399.667969 1873 431 C 1904.332031 462.332031 1920 500 1920 544 Z M 1920 544 " fill="white" />
</g>
</svg>
