<?xml version="1.0" encoding="UTF-8"?>
<svg xmlns="http://www.w3.org/2000/svg" xmlns:xlink="http://www.w3.org/1999/xlink" width="2048" height="2048" viewBox="0 0 2048 2048" version="1.1">
<g>
<path d="M 1551 768 C 1563 889.332031 1519.332031 975.332031 1420 1026 C 1498 1044.667969 1556.332031 1079 1595 1129 C 1633.667969 1179 1648.667969 1250.332031 1640 1343 C 1635.332031 1390.332031 1624.5 1432 1607.5 1468 C 1590.5 1504 1569 1533.667969 1543 1557 C 1517 1580.332031 1484.667969 1599.832031 1446 1615.5 C 1407.332031 1631.167969 1366.832031 1642.667969 1324.5 1650 C 1282.167969 1657.332031 1233.667969 1662.332031 1179 1665 L 1179 1920 L 1025 1920 L 1025 1669 C 971.667969 1669 931 1668.667969 903 1668 L 903 1920 L 749 1920 L 749 1665 C 737 1665 719 1664.832031 695 1664.5 C 671 1664.167969 652.667969 1664 640 1664 L 440 1664 L 471 1481 L 582 1481 C 615.332031 1481 634.667969 1464 640 1430 L 640 1028 L 656 1028 C 652 1027.332031 646.667969 1027 640 1027 L 640 740 C 631.332031 694.667969 601.667969 672 551 672 L 440 672 L 440 508 L 652 509 C 694.667969 509 727 508.667969 749 508 L 749 256 L 903 256 L 903 503 C 957.667969 501.667969 998.332031 501 1025 501 L 1025 256 L 1179 256 L 1179 508 C 1231.667969 512.667969 1278.332031 520.167969 1319 530.5 C 1359.667969 540.832031 1397.332031 555.832031 1432 575.5 C 1466.667969 595.167969 1494.167969 621.167969 1514.5 653.5 C 1534.832031 685.832031 1547 724 1551 768 Z M 1336 1313 C 1336 1289 1331 1267.667969 1321 1249 C 1311 1230.332031 1298.667969 1215 1284 1203 C 1269.332031 1191 1250.167969 1180.832031 1226.5 1172.5 C 1202.832031 1164.167969 1181 1158 1161 1154 C 1141 1150 1116.332031 1147 1087 1145 C 1057.667969 1143 1034.667969 1142 1018 1142 C 1001.332031 1142 979.832031 1142.332031 953.5 1143 C 927.167969 1143.667969 911.332031 1144 906 1144 L 906 1482 C 911.332031 1482 923.667969 1482.167969 943 1482.5 C 962.332031 1482.832031 978.332031 1483 991 1483 C 1003.667969 1483 1021.332031 1482.5 1044 1481.5 C 1066.667969 1480.5 1086.167969 1479.167969 1102.5 1477.5 C 1118.832031 1475.832031 1137.832031 1473 1159.5 1469 C 1181.167969 1465 1199.667969 1460.332031 1215 1455 C 1230.332031 1449.667969 1246.167969 1442.667969 1262.5 1434 C 1278.832031 1425.332031 1292 1415.332031 1302 1404 C 1312 1392.667969 1320.167969 1379.332031 1326.5 1364 C 1332.832031 1348.667969 1336 1331.667969 1336 1313 Z M 1265 837 C 1265 815 1260.832031 795.5 1252.5 778.5 C 1244.167969 761.5 1234 747.5 1222 736.5 C 1210 725.5 1194 716.167969 1174 708.5 C 1154 700.832031 1135.667969 695.332031 1119 692 C 1102.332031 688.667969 1081.832031 686 1057.5 684 C 1033.167969 682 1013.832031 681.167969 999.5 681.5 C 985.167969 681.832031 967.167969 682.167969 945.5 682.5 C 923.832031 682.832031 910.667969 683 906 683 L 906 990 C 909.332031 990 920.832031 990.167969 940.5 990.5 C 960.167969 990.832031 975.667969 990.832031 987 990.5 C 998.332031 990.167969 1015 989.5 1037 988.5 C 1059 987.5 1077.332031 985.667969 1092 983 C 1106.667969 980.332031 1123.832031 976.667969 1143.5 972 C 1163.167969 967.332031 1179.332031 961.167969 1192 953.5 C 1204.667969 945.832031 1217 936.832031 1229 926.5 C 1241 916.167969 1250 903.332031 1256 888 C 1262 872.667969 1265 855.667969 1265 837 Z M 1265 837 " fill="white" />
</g>
</svg>
