<?xml version="1.0" encoding="UTF-8"?>
<svg xmlns="http://www.w3.org/2000/svg" xmlns:xlink="http://www.w3.org/1999/xlink" width="2048" height="2048" viewBox="0 0 2048 2048" version="1.1">
<g>
<path d="M 1824 1088 C 1824 1105.332031 1817.667969 1120.332031 1805 1133 C 1792.332031 1145.667969 1777.332031 1152 1760 1152 L 1536 1152 C 1536 1266 1513.667969 1362.667969 1469 1442 L 1677 1651 C 1689.667969 1663.667969 1696 1678.667969 1696 1696 C 1696 1713.332031 1689.667969 1728.332031 1677 1741 C 1665 1753.667969 1650 1760 1632 1760 C 1614 1760 1599 1753.667969 1587 1741 L 1389 1544 C 1385.667969 1547.332031 1380.667969 1551.667969 1374 1557 C 1367.332031 1562.332031 1353.332031 1571.832031 1332 1585.5 C 1310.667969 1599.167969 1289 1611.332031 1267 1622 C 1245 1632.667969 1217.667969 1642.332031 1185 1651 C 1152.332031 1659.667969 1120 1664 1088 1664 L 1088 768 L 960 768 L 960 1664 C 926 1664 892.167969 1659.5 858.5 1650.5 C 824.832031 1641.5 795.832031 1630.5 771.5 1617.5 C 747.167969 1604.5 725.167969 1591.5 705.5 1578.5 C 685.832031 1565.5 671.332031 1554.667969 662 1546 L 647 1532 L 464 1739 C 450.667969 1753 434.667969 1760 416 1760 C 400 1760 385.667969 1754.667969 373 1744 C 360.332031 1732 353.5 1717.167969 352.5 1699.5 C 351.5 1681.832031 356.667969 1666.332031 368 1653 L 570 1426 C 531.332031 1350 512 1258.667969 512 1152 L 288 1152 C 270.667969 1152 255.667969 1145.667969 243 1133 C 230.332031 1120.332031 224 1105.332031 224 1088 C 224 1070.667969 230.332031 1055.667969 243 1043 C 255.667969 1030.332031 270.667969 1024 288 1024 L 512 1024 L 512 730 L 339 557 C 326.332031 544.332031 320 529.332031 320 512 C 320 494.667969 326.332031 479.667969 339 467 C 351.667969 454.332031 366.667969 448 384 448 C 401.332031 448 416.332031 454.332031 429 467 L 602 640 L 1446 640 L 1619 467 C 1631.667969 454.332031 1646.667969 448 1664 448 C 1681.332031 448 1696.332031 454.332031 1709 467 C 1721.667969 479.667969 1728 494.667969 1728 512 C 1728 529.332031 1721.667969 544.332031 1709 557 L 1536 730 L 1536 1024 L 1760 1024 C 1777.332031 1024 1792.332031 1030.332031 1805 1043 C 1817.667969 1055.667969 1824 1070.667969 1824 1088 Z M 1344 512 L 704 512 C 704 423.332031 735.167969 347.832031 797.5 285.5 C 859.832031 223.167969 935.332031 192 1024 192 C 1112.667969 192 1188.167969 223.167969 1250.5 285.5 C 1312.832031 347.832031 1344 423.332031 1344 512 Z M 1344 512 " fill="white" />
</g>
</svg>
