<?xml version="1.0" encoding="UTF-8"?>
<svg xmlns="http://www.w3.org/2000/svg" xmlns:xlink="http://www.w3.org/1999/xlink" width="2048" height="2048" viewBox="0 0 2048 2048" version="1.1">
<g>
<path d="M 704 1440 L 704 1504 C 704 1512.667969 700.832031 1520.167969 694.5 1526.5 C 688.167969 1532.832031 680.667969 1536 672 1536 L 608 1536 C 599.332031 1536 591.832031 1532.832031 585.5 1526.5 C 579.167969 1520.167969 576 1512.667969 576 1504 L 576 1440 C 576 1431.332031 579.167969 1423.832031 585.5 1417.5 C 591.832031 1411.167969 599.332031 1408 608 1408 L 672 1408 C 680.667969 1408 688.167969 1411.167969 694.5 1417.5 C 700.832031 1423.832031 704 1431.332031 704 1440 Z M 704 1184 L 704 1248 C 704 1256.667969 700.832031 1264.167969 694.5 1270.5 C 688.167969 1276.832031 680.667969 1280 672 1280 L 608 1280 C 599.332031 1280 591.832031 1276.832031 585.5 1270.5 C 579.167969 1264.167969 576 1256.667969 576 1248 L 576 1184 C 576 1175.332031 579.167969 1167.832031 585.5 1161.5 C 591.832031 1155.167969 599.332031 1152 608 1152 L 672 1152 C 680.667969 1152 688.167969 1155.167969 694.5 1161.5 C 700.832031 1167.832031 704 1175.332031 704 1184 Z M 960 1184 L 960 1248 C 960 1256.667969 956.832031 1264.167969 950.5 1270.5 C 944.167969 1276.832031 936.667969 1280 928 1280 L 864 1280 C 855.332031 1280 847.832031 1276.832031 841.5 1270.5 C 835.167969 1264.167969 832 1256.667969 832 1248 L 832 1184 C 832 1175.332031 835.167969 1167.832031 841.5 1161.5 C 847.832031 1155.167969 855.332031 1152 864 1152 L 928 1152 C 936.667969 1152 944.167969 1155.167969 950.5 1161.5 C 956.832031 1167.832031 960 1175.332031 960 1184 Z M 704 928 L 704 992 C 704 1000.667969 700.832031 1008.167969 694.5 1014.5 C 688.167969 1020.832031 680.667969 1024 672 1024 L 608 1024 C 599.332031 1024 591.832031 1020.832031 585.5 1014.5 C 579.167969 1008.167969 576 1000.667969 576 992 L 576 928 C 576 919.332031 579.167969 911.832031 585.5 905.5 C 591.832031 899.167969 599.332031 896 608 896 L 672 896 C 680.667969 896 688.167969 899.167969 694.5 905.5 C 700.832031 911.832031 704 919.332031 704 928 Z M 1472 1440 L 1472 1504 C 1472 1512.667969 1468.832031 1520.167969 1462.5 1526.5 C 1456.167969 1532.832031 1448.667969 1536 1440 1536 L 1376 1536 C 1367.332031 1536 1359.832031 1532.832031 1353.5 1526.5 C 1347.167969 1520.167969 1344 1512.667969 1344 1504 L 1344 1440 C 1344 1431.332031 1347.167969 1423.832031 1353.5 1417.5 C 1359.832031 1411.167969 1367.332031 1408 1376 1408 L 1440 1408 C 1448.667969 1408 1456.167969 1411.167969 1462.5 1417.5 C 1468.832031 1423.832031 1472 1431.332031 1472 1440 Z M 1216 1184 L 1216 1248 C 1216 1256.667969 1212.832031 1264.167969 1206.5 1270.5 C 1200.167969 1276.832031 1192.667969 1280 1184 1280 L 1120 1280 C 1111.332031 1280 1103.832031 1276.832031 1097.5 1270.5 C 1091.167969 1264.167969 1088 1256.667969 1088 1248 L 1088 1184 C 1088 1175.332031 1091.167969 1167.832031 1097.5 1161.5 C 1103.832031 1155.167969 1111.332031 1152 1120 1152 L 1184 1152 C 1192.667969 1152 1200.167969 1155.167969 1206.5 1161.5 C 1212.832031 1167.832031 1216 1175.332031 1216 1184 Z M 960 928 L 960 992 C 960 1000.667969 956.832031 1008.167969 950.5 1014.5 C 944.167969 1020.832031 936.667969 1024 928 1024 L 864 1024 C 855.332031 1024 847.832031 1020.832031 841.5 1014.5 C 835.167969 1008.167969 832 1000.667969 832 992 L 832 928 C 832 919.332031 835.167969 911.832031 841.5 905.5 C 847.832031 899.167969 855.332031 896 864 896 L 928 896 C 936.667969 896 944.167969 899.167969 950.5 905.5 C 956.832031 911.832031 960 919.332031 960 928 Z M 704 672 L 704 736 C 704 744.667969 700.832031 752.167969 694.5 758.5 C 688.167969 764.832031 680.667969 768 672 768 L 608 768 C 599.332031 768 591.832031 764.832031 585.5 758.5 C 579.167969 752.167969 576 744.667969 576 736 L 576 672 C 576 663.332031 579.167969 655.832031 585.5 649.5 C 591.832031 643.167969 599.332031 640 608 640 L 672 640 C 680.667969 640 688.167969 643.167969 694.5 649.5 C 700.832031 655.832031 704 663.332031 704 672 Z M 1472 1184 L 1472 1248 C 1472 1256.667969 1468.832031 1264.167969 1462.5 1270.5 C 1456.167969 1276.832031 1448.667969 1280 1440 1280 L 1376 1280 C 1367.332031 1280 1359.832031 1276.832031 1353.5 1270.5 C 1347.167969 1264.167969 1344 1256.667969 1344 1248 L 1344 1184 C 1344 1175.332031 1347.167969 1167.832031 1353.5 1161.5 C 1359.832031 1155.167969 1367.332031 1152 1376 1152 L 1440 1152 C 1448.667969 1152 1456.167969 1155.167969 1462.5 1161.5 C 1468.832031 1167.832031 1472 1175.332031 1472 1184 Z M 1216 928 L 1216 992 C 1216 1000.667969 1212.832031 1008.167969 1206.5 1014.5 C 1200.167969 1020.832031 1192.667969 1024 1184 1024 L 1120 1024 C 1111.332031 1024 1103.832031 1020.832031 1097.5 1014.5 C 1091.167969 1008.167969 1088 1000.667969 1088 992 L 1088 928 C 1088 919.332031 1091.167969 911.832031 1097.5 905.5 C 1103.832031 899.167969 1111.332031 896 1120 896 L 1184 896 C 1192.667969 896 1200.167969 899.167969 1206.5 905.5 C 1212.832031 911.832031 1216 919.332031 1216 928 Z M 960 672 L 960 736 C 960 744.667969 956.832031 752.167969 950.5 758.5 C 944.167969 764.832031 936.667969 768 928 768 L 864 768 C 855.332031 768 847.832031 764.832031 841.5 758.5 C 835.167969 752.167969 832 744.667969 832 736 L 832 672 C 832 663.332031 835.167969 655.832031 841.5 649.5 C 847.832031 643.167969 855.332031 640 864 640 L 928 640 C 936.667969 640 944.167969 643.167969 950.5 649.5 C 956.832031 655.832031 960 663.332031 960 672 Z M 704 416 L 704 480 C 704 488.667969 700.832031 496.167969 694.5 502.5 C 688.167969 508.832031 680.667969 512 672 512 L 608 512 C 599.332031 512 591.832031 508.832031 585.5 502.5 C 579.167969 496.167969 576 488.667969 576 480 L 576 416 C 576 407.332031 579.167969 399.832031 585.5 393.5 C 591.832031 387.167969 599.332031 384 608 384 L 672 384 C 680.667969 384 688.167969 387.167969 694.5 393.5 C 700.832031 399.832031 704 407.332031 704 416 Z M 1472 928 L 1472 992 C 1472 1000.667969 1468.832031 1008.167969 1462.5 1014.5 C 1456.167969 1020.832031 1448.667969 1024 1440 1024 L 1376 1024 C 1367.332031 1024 1359.832031 1020.832031 1353.5 1014.5 C 1347.167969 1008.167969 1344 1000.667969 1344 992 L 1344 928 C 1344 919.332031 1347.167969 911.832031 1353.5 905.5 C 1359.832031 899.167969 1367.332031 896 1376 896 L 1440 896 C 1448.667969 896 1456.167969 899.167969 1462.5 905.5 C 1468.832031 911.832031 1472 919.332031 1472 928 Z M 1216 672 L 1216 736 C 1216 744.667969 1212.832031 752.167969 1206.5 758.5 C 1200.167969 764.832031 1192.667969 768 1184 768 L 1120 768 C 1111.332031 768 1103.832031 764.832031 1097.5 758.5 C 1091.167969 752.167969 1088 744.667969 1088 736 L 1088 672 C 1088 663.332031 1091.167969 655.832031 1097.5 649.5 C 1103.832031 643.167969 1111.332031 640 1120 640 L 1184 640 C 1192.667969 640 1200.167969 643.167969 1206.5 649.5 C 1212.832031 655.832031 1216 663.332031 1216 672 Z M 960 416 L 960 480 C 960 488.667969 956.832031 496.167969 950.5 502.5 C 944.167969 508.832031 936.667969 512 928 512 L 864 512 C 855.332031 512 847.832031 508.832031 841.5 502.5 C 835.167969 496.167969 832 488.667969 832 480 L 832 416 C 832 407.332031 835.167969 399.832031 841.5 393.5 C 847.832031 387.167969 855.332031 384 864 384 L 928 384 C 936.667969 384 944.167969 387.167969 950.5 393.5 C 956.832031 399.832031 960 407.332031 960 416 Z M 1472 672 L 1472 736 C 1472 744.667969 1468.832031 752.167969 1462.5 758.5 C 1456.167969 764.832031 1448.667969 768 1440 768 L 1376 768 C 1367.332031 768 1359.832031 764.832031 1353.5 758.5 C 1347.167969 752.167969 1344 744.667969 1344 736 L 1344 672 C 1344 663.332031 1347.167969 655.832031 1353.5 649.5 C 1359.832031 643.167969 1367.332031 640 1376 640 L 1440 640 C 1448.667969 640 1456.167969 643.167969 1462.5 649.5 C 1468.832031 655.832031 1472 663.332031 1472 672 Z M 1216 416 L 1216 480 C 1216 488.667969 1212.832031 496.167969 1206.5 502.5 C 1200.167969 508.832031 1192.667969 512 1184 512 L 1120 512 C 1111.332031 512 1103.832031 508.832031 1097.5 502.5 C 1091.167969 496.167969 1088 488.667969 1088 480 L 1088 416 C 1088 407.332031 1091.167969 399.832031 1097.5 393.5 C 1103.832031 387.167969 1111.332031 384 1120 384 L 1184 384 C 1192.667969 384 1200.167969 387.167969 1206.5 393.5 C 1212.832031 399.832031 1216 407.332031 1216 416 Z M 1472 416 L 1472 480 C 1472 488.667969 1468.832031 496.167969 1462.5 502.5 C 1456.167969 508.832031 1448.667969 512 1440 512 L 1376 512 C 1367.332031 512 1359.832031 508.832031 1353.5 502.5 C 1347.167969 496.167969 1344 488.667969 1344 480 L 1344 416 C 1344 407.332031 1347.167969 399.832031 1353.5 393.5 C 1359.832031 387.167969 1367.332031 384 1376 384 L 1440 384 C 1448.667969 384 1456.167969 387.167969 1462.5 393.5 C 1468.832031 399.832031 1472 407.332031 1472 416 Z M 1216 1792 L 1600 1792 L 1600 256 L 448 256 L 448 1792 L 832 1792 L 832 1568 C 832 1559.332031 835.167969 1551.832031 841.5 1545.5 C 847.832031 1539.167969 855.332031 1536 864 1536 L 1184 1536 C 1192.667969 1536 1200.167969 1539.167969 1206.5 1545.5 C 1212.832031 1551.832031 1216 1559.332031 1216 1568 Z M 1728 192 L 1728 1856 C 1728 1873.332031 1721.667969 1888.332031 1709 1901 C 1696.332031 1913.667969 1681.332031 1920 1664 1920 L 384 1920 C 366.667969 1920 351.667969 1913.667969 339 1901 C 326.332031 1888.332031 320 1873.332031 320 1856 L 320 192 C 320 174.667969 326.332031 159.667969 339 147 C 351.667969 134.332031 366.667969 128 384 128 L 1664 128 C 1681.332031 128 1696.332031 134.332031 1709 147 C 1721.667969 159.667969 1728 174.667969 1728 192 Z M 1728 192 " fill="white" />
</g>
</svg>
