<?xml version="1.0" encoding="UTF-8"?>
<svg xmlns="http://www.w3.org/2000/svg" xmlns:xlink="http://www.w3.org/1999/xlink" width="2048" height="2048" viewBox="0 0 2048 2048" version="1.1">
<g>
<path d="M 1792 768 C 1827.332031 768 1857.5 780.5 1882.5 805.5 C 1907.5 830.5 1920 860.667969 1920 896 C 1920 931.332031 1907.5 961.5 1882.5 986.5 C 1857.5 1011.5 1827.332031 1024 1792 1024 L 1792 1408 C 1792 1442.667969 1779.332031 1472.667969 1754 1498 C 1728.667969 1523.332031 1698.667969 1536 1664 1536 C 1386 1304.667969 1115.332031 1178 852 1156 C 813.332031 1168.667969 783 1190.667969 761 1222 C 739 1253.332031 728.667969 1286.832031 730 1322.5 C 731.332031 1358.167969 744.667969 1389 770 1415 C 756.667969 1437 749 1458.832031 747 1480.5 C 745 1502.167969 747 1521.5 753 1538.5 C 759 1555.5 770.167969 1573.832031 786.5 1593.5 C 802.832031 1613.167969 818.832031 1629.832031 834.5 1643.5 C 850.167969 1657.167969 870.667969 1674 896 1694 C 876.667969 1732.667969 839.5 1760.332031 784.5 1777 C 729.5 1793.667969 673.332031 1797.5 616 1788.5 C 558.667969 1779.5 514.667969 1761 484 1733 C 479.332031 1717.667969 469.5 1688.5 454.5 1645.5 C 439.5 1602.5 428.832031 1571 422.5 1551 C 416.167969 1531 408.5 1501.332031 399.5 1462 C 390.5 1422.667969 385.5 1389 384.5 1361 C 383.5 1333 384.667969 1300.167969 388 1262.5 C 391.332031 1224.832031 398.667969 1188 410 1152 L 288 1152 C 244 1152 206.332031 1136.332031 175 1105 C 143.667969 1073.667969 128 1036 128 992 L 128 800 C 128 756 143.667969 718.332031 175 687 C 206.332031 655.667969 244 640 288 640 L 768 640 C 1058 640 1356.667969 512 1664 256 C 1698.667969 256 1728.667969 268.667969 1754 294 C 1779.332031 319.332031 1792 349.332031 1792 384 Z M 1664 1372 L 1664 418 C 1401.332031 619.332031 1145.332031 733.667969 896 761 L 896 1031 C 1147.332031 1059 1403.332031 1172.667969 1664 1372 Z M 1664 1372 " fill="white" />
</g>
</svg>
