<svg width="2048" height="2048" viewBox="-128 -384 2048 2048" xmlns="http://www.w3.org/2000/svg"><g transform="scale(1 -1) translate(0 -1280)"><path d="M928 704q0 14 -9 23t-23 9q-66 0 -113 -47t-47 -113q0 -14 9 -23t23 -9t23 9t9 23q0 40 28 68t68 28q14 0 23 9t9 23zM1152 574q0 -106 -75 -181t-181 -75t-181 75t-75 181t75 181t181 75t181 -75t75 -181zM128 0h1536v128h-1536v-128zM1280 574q0 159 -112.5 271.5 t-271.5 112.5t-271.5 -112.5t-112.5 -271.5t112.5 -271.5t271.5 -112.5t271.5 112.5t112.5 271.5zM256 1216h384v128h-384v-128zM128 1024h1536v118v138h-828l-64 -128h-644v-128zM1792 1280v-1280q0 -53 -37.5 -90.5t-90.5 -37.5h-1536q-53 0 -90.5 37.5t-37.5 90.5v1280 q0 53 37.5 90.5t90.5 37.5h1536q53 0 90.5 -37.5t37.5 -90.5z" fill="white" /></g></svg>