<?xml version="1.0" encoding="UTF-8"?>
<svg xmlns="http://www.w3.org/2000/svg" xmlns:xlink="http://www.w3.org/1999/xlink" width="2048" height="2048" viewBox="0 0 2048 2048" version="1.1">
<g>
<path d="M 1056 960 C 1056 950.667969 1053 943 1047 937 C 1041 931 1033.332031 928 1024 928 C 980 928 942.332031 943.667969 911 975 C 879.667969 1006.332031 864 1044 864 1088 C 864 1097.332031 867 1105 873 1111 C 879 1117 886.667969 1120 896 1120 C 905.332031 1120 913 1117 919 1111 C 925 1105 928 1097.332031 928 1088 C 928 1061.332031 937.332031 1038.667969 956 1020 C 974.667969 1001.332031 997.332031 992 1024 992 C 1033.332031 992 1041 989 1047 983 C 1053 977 1056 969.332031 1056 960 Z M 1280 1090 C 1280 1160.667969 1255 1221 1205 1271 C 1155 1321 1094.667969 1346 1024 1346 C 953.332031 1346 893 1321 843 1271 C 793 1221 768 1160.667969 768 1090 C 768 1019.332031 793 959 843 909 C 893 859 953.332031 834 1024 834 C 1094.667969 834 1155 859 1205 909 C 1255 959 1280 1019.332031 1280 1090 Z M 256 1664 L 1792 1664 L 1792 1536 L 256 1536 Z M 1408 1090 C 1408 984 1370.5 893.5 1295.5 818.5 C 1220.5 743.5 1130 706 1024 706 C 918 706 827.5 743.5 752.5 818.5 C 677.5 893.5 640 984 640 1090 C 640 1196 677.5 1286.5 752.5 1361.5 C 827.5 1436.5 918 1474 1024 1474 C 1130 1474 1220.5 1436.5 1295.5 1361.5 C 1370.5 1286.5 1408 1196 1408 1090 Z M 384 448 L 768 448 L 768 320 L 384 320 Z M 256 640 L 1792 640 L 1792 384 L 964 384 L 900 512 L 256 512 Z M 1920 384 L 1920 1664 C 1920 1699.332031 1907.5 1729.5 1882.5 1754.5 C 1857.5 1779.5 1827.332031 1792 1792 1792 L 256 1792 C 220.667969 1792 190.5 1779.5 165.5 1754.5 C 140.5 1729.5 128 1699.332031 128 1664 L 128 384 C 128 348.667969 140.5 318.5 165.5 293.5 C 190.5 268.5 220.667969 256 256 256 L 1792 256 C 1827.332031 256 1857.5 268.5 1882.5 293.5 C 1907.5 318.5 1920 348.667969 1920 384 Z M 1920 384 " fill="white" />
</g>
</svg>
