<?xml version="1.0" encoding="UTF-8"?>
<svg xmlns="http://www.w3.org/2000/svg" xmlns:xlink="http://www.w3.org/1999/xlink" width="2048" height="2048" viewBox="0 0 2048 2048" version="1.1">
<g>
<path d="M 1280 1024 C 1280 1041.332031 1273.667969 1056.332031 1261 1069 L 813 1517 C 800.332031 1529.667969 785.332031 1536 768 1536 C 750.667969 1536 735.667969 1529.667969 723 1517 C 710.332031 1504.332031 704 1489.332031 704 1472 L 704 576 C 704 558.667969 710.332031 543.667969 723 531 C 735.667969 518.332031 750.667969 512 768 512 C 785.332031 512 800.332031 518.332031 813 531 L 1261 979 C 1273.667969 991.667969 1280 1006.667969 1280 1024 Z M 1280 1024 " fill="white" />
</g>
</svg>
