<?xml version="1.0" encoding="UTF-8"?>
<svg xmlns="http://www.w3.org/2000/svg" xmlns:xlink="http://www.w3.org/1999/xlink" width="2048" height="2048" viewBox="0 0 2048 2048" version="1.1">
<g>
<path d="M 1536 832 C 1536 849.332031 1529.667969 864.332031 1517 877 L 1069 1325 C 1056.332031 1337.667969 1041.332031 1344 1024 1344 C 1006.667969 1344 991.667969 1337.667969 979 1325 L 531 877 C 518.332031 864.332031 512 849.332031 512 832 C 512 814.667969 518.332031 799.667969 531 787 C 543.667969 774.332031 558.667969 768 576 768 L 1472 768 C 1489.332031 768 1504.332031 774.332031 1517 787 C 1529.667969 799.667969 1536 814.667969 1536 832 Z M 1536 832 " fill="white" />
</g>
</svg>
