<svg width="2048" height="2048" viewBox="0 0 2048 2048" xmlns="http://www.w3.org/2000/svg"><path d="M194 975h-15q-19 0-19-18 0-28 19-85 5-15 15-19.5t28-4.5q77 0 77 49 0 41-30.5 59.5t-74.5 18.5zm342 161q-47 0-47-29 0-62 123-62l3 3q-5 88-79 88zm774-159h-15q-19 0-19-19 0-28 19-85 5-15 14.5-19t28.5-4q77 0 77 49 0 41-30.5 59.5t-74.5 18.5zm342 160q-47 0-47-30 0-62 123-62l3 3q-5 89-79 89zm-1407-367h-128q-8 0-14.5 4t-8.5 7.5-7 12.5q-3 7-45 190t-42 192q0 7 5.5 12.5t13.5 5.5h62q25 0 32.5-34.5l15-69 32.5-34.5q47 0 87.5-7.5t80.5-24.5 63.5-52.5 23.5-84.5q0-36-14.5-61t-41-36.5-53.5-15.5-62-4zm346 96q-38 0-74 6-2 0-8.5 1t-9 1.5l-7.5 1.5-7.5 2-6.5 3-6.5 4-5 5-4.5 7-4 9q-9 29-9 39t9 10q5 0 21.5-5t19.5-6q30-8 58-8 74 0 74 36 0 11-10 14-8 2-18 3t-21.5 1.5-17.5 1.5q-38 4-64.5 10t-56.5 19.5-45.5 39-15.5 62.5q0 38 26 59.5t64 21.5q24 0 45.5-6.5t33-13 38.5-23.5q-3 7-3 15t5.5 13.5 12.5 5.5h56q1-1 7-3.5t7.5-3.5 5-3.5 5-5.5 2.5-8l45-194q4-13 4-30 0-81-145-81zm528 5h-74q-22 0-39 23-5 7-29.5 51t-46.5 81.5-26 38.5l-5-4q0-77-27-166-1-5-3.5-8.5t-6-6.5-6.5-5-8.5-3-8.5-1.5-9.5-1-9-.5h-18.5q-38 0-38 21l1 5q5 53 25 151t25 143q2 16 2 24 0 19-30.5 61.5t-30.5 58.5q0 13 40 13 61 0 76-25l245-415q10-20 10-26 0-9-8-9zm242-99h-129q-18 0-29 23-6 13-46.5 191.5t-40.5 190.5q0 20 43 20h25.5l9.5-1 8.5-2 8.5-3 6.5-4.5 5.5-6 3-8.5 21-91q2-10 10.5-17t19.5-7q47 0 87.5-7t80.5-24.5 63.5-52.5 23.5-84q0-36-14.5-61t-41-36.5-53.5-15.5-62-4zm346 94q-26 0-74 6-38 6-48 16-7 8-11 19-8 24-8 39 0 10 8 10 1 0 41-12 30-8 58-8 74 0 74 36 0 12-10 14-4 1-57 7-38 4-64.5 10t-56.5 19.5-45.5 39-15.5 62.5 26 58.5 64 21.5q24 0 45-6t34-13 38-24q-3 15-3 16 0 5 2 8.5t6.5 5.5 8 3.5 10.5 2 9.5.5h17.5q42 0 48-25l45-194q3-15 3-31 0-81-145-81zm322-91h-55q-25 0-33 40-10 44-36.5 167t-42.5 190v5q0 16 16 18h58q10 0 18.5-6.5t10.5-16.5l83-374h-1l1-5q0-7-5.5-12.5t-13.5-5.5zm147-391v1280q0 52-38 90t-90 38h-2048q-52 0-90-38t-38-90v-1280q0-52 38-90t90-38h2048q52 0 90 38t38 90z" fill="#fff"/></svg>