<?xml version="1.0" encoding="UTF-8"?>
<svg xmlns="http://www.w3.org/2000/svg" xmlns:xlink="http://www.w3.org/1999/xlink" width="2048" height="2048" viewBox="0 0 2048 2048" version="1.1">
<g>
<path d="M 1632 1024 L 1770 1159 C 1790 1177.667969 1796.667969 1201 1790 1229 C 1782 1256.332031 1764.667969 1273.332031 1738 1280 L 1550 1328 L 1603 1514 C 1611 1541.332031 1604.667969 1564.667969 1584 1584 C 1564.667969 1604.667969 1541.332031 1611 1514 1603 L 1328 1550 L 1280 1738 C 1273.332031 1764.667969 1256.332031 1782 1229 1790 C 1221 1791.332031 1214.667969 1792 1210 1792 C 1189.332031 1792 1172.332031 1784.667969 1159 1770 L 1024 1632 L 889 1770 C 870.332031 1790 847 1796.667969 819 1790 C 791.667969 1782.667969 774.667969 1765.332031 768 1738 L 720 1550 L 534 1603 C 506.667969 1611 483.332031 1604.667969 464 1584 C 443.332031 1564.667969 437 1541.332031 445 1514 L 498 1328 L 310 1280 C 283.332031 1273.332031 266 1256.332031 258 1229 C 251.332031 1201 258 1177.667969 278 1159 L 416 1024 L 278 889 C 258 870.332031 251.332031 847 258 819 C 266 791.667969 283.332031 774.667969 310 768 L 498 720 L 445 534 C 437 506.667969 443.332031 483.332031 464 464 C 483.332031 443.332031 506.667969 437 534 445 L 720 498 L 768 310 C 774.667969 282.667969 791.667969 265.667969 819 259 C 846.332031 251 869.667969 257.332031 889 278 L 1024 417 L 1159 278 C 1178.332031 258 1201.667969 251.667969 1229 259 C 1256.332031 265.667969 1273.332031 282.667969 1280 310 L 1328 498 L 1514 445 C 1541.332031 437 1564.667969 443.332031 1584 464 C 1604.667969 483.332031 1611 506.667969 1603 534 L 1550 720 L 1738 768 C 1764.667969 774.667969 1782 791.667969 1790 819 C 1796.667969 847 1790 870.332031 1770 889 Z M 1632 1024 " fill="white" />
</g>
</svg>
