<svg width="2048" height="2048" viewBox="-256 -384 2048 2048" xmlns="http://www.w3.org/2000/svg"><g transform="scale(1 -1) translate(0 -1280)"><path d="M1376 640l138 -135q30 -28 20 -70q-12 -41 -52 -51l-188 -48l53 -186q12 -41 -19 -70q-29 -31 -70 -19l-186 53l-48 -188q-10 -40 -51 -52q-12 -2 -19 -2q-31 0 -51 22l-135 138l-135 -138q-28 -30 -70 -20q-41 11 -51 52l-48 188l-186 -53q-41 -12 -70 19q-31 29 -19 70 l53 186l-188 48q-40 10 -52 51q-10 42 20 70l138 135l-138 135q-30 28 -20 70q12 41 52 51l188 48l-53 186q-12 41 19 70q29 31 70 19l186 -53l48 188q10 41 51 51q41 12 70 -19l135 -139l135 139q29 30 70 19q41 -10 51 -51l48 -188l186 53q41 12 70 -19q31 -29 19 -70 l-53 -186l188 -48q40 -10 52 -51q10 -42 -20 -70z" fill="white" /></g></svg>