<svg width="2048" height="2048" viewBox="-192 -384 2048 2048" xmlns="http://www.w3.org/2000/svg"><g transform="scale(1 -1) translate(0 -1280)"><path d="M439 265l-256 -256q-10 -9 -23 -9q-12 0 -23 9q-9 10 -9 23t9 23l256 256q10 9 23 9t23 -9q9 -10 9 -23t-9 -23zM608 224v-320q0 -14 -9 -23t-23 -9t-23 9t-9 23v320q0 14 9 23t23 9t23 -9t9 -23zM384 448q0 -14 -9 -23t-23 -9h-320q-14 0 -23 9t-9 23t9 23t23 9h320 q14 0 23 -9t9 -23zM1648 320q0 -120 -85 -203l-147 -146q-83 -83 -203 -83q-121 0 -204 85l-334 335q-21 21 -42 56l239 18l273 -274q27 -27 68 -27.5t68 26.5l147 146q28 28 28 67q0 40 -28 68l-274 275l18 239q35 -21 56 -42l336 -336q84 -86 84 -204zM1031 1044l-239 -18 l-273 274q-28 28 -68 28q-39 0 -68 -27l-147 -146q-28 -28 -28 -67q0 -40 28 -68l274 -274l-18 -240q-35 21 -56 42l-336 336q-84 86 -84 204q0 120 85 203l147 146q83 83 203 83q121 0 204 -85l334 -335q21 -21 42 -56zM1664 960q0 -14 -9 -23t-23 -9h-320q-14 0 -23 9 t-9 23t9 23t23 9h320q14 0 23 -9t9 -23zM1120 1504v-320q0 -14 -9 -23t-23 -9t-23 9t-9 23v320q0 14 9 23t23 9t23 -9t9 -23zM1527 1353l-256 -256q-11 -9 -23 -9t-23 9q-9 10 -9 23t9 23l256 256q10 9 23 9t23 -9q9 -10 9 -23t-9 -23z" fill="white" /></g></svg>