<svg width="2048" height="2048" viewBox="-256 -384 2048 2048" xmlns="http://www.w3.org/2000/svg"><g transform="scale(1 -1) translate(0 -1280)"><path d="M1171 723l-422 -422q-19 -19 -45 -19t-45 19l-294 294q-19 19 -19 45t19 45l102 102q19 19 45 19t45 -19l147 -147l275 275q19 19 45 19t45 -19l102 -102q19 -19 19 -45t-19 -45zM1312 640q0 148 -73 273t-198 198t-273 73t-273 -73t-198 -198t-73 -273t73 -273t198 -198 t273 -73t273 73t198 198t73 273zM1536 640q0 -209 -103 -385.5t-279.5 -279.5t-385.5 -103t-385.5 103t-279.5 279.5t-103 385.5t103 385.5t279.5 279.5t385.5 103t385.5 -103t279.5 -279.5t103 -385.5z" fill="white" /></g></svg>