<?xml version="1.0" encoding="UTF-8"?>
<svg xmlns="http://www.w3.org/2000/svg" xmlns:xlink="http://www.w3.org/1999/xlink" width="2048" height="2048" viewBox="0 0 2048 2048" version="1.1">
<g>
<path d="M 1165 1523 L 1267 1421 C 1279.667969 1408.332031 1286 1393.332031 1286 1376 C 1286 1358.667969 1279.667969 1343.667969 1267 1331 L 960 1024 L 1267 717 C 1279.667969 704.332031 1286 689.332031 1286 672 C 1286 654.667969 1279.667969 639.667969 1267 627 L 1165 525 C 1152.332031 512.332031 1137.332031 506 1120 506 C 1102.667969 506 1087.667969 512.332031 1075 525 L 621 979 C 608.332031 991.667969 602 1006.667969 602 1024 C 602 1041.332031 608.332031 1056.332031 621 1069 L 1075 1523 C 1087.667969 1535.667969 1102.667969 1542 1120 1542 C 1137.332031 1542 1152.332031 1535.667969 1165 1523 Z M 1792 1024 C 1792 1163.332031 1757.667969 1291.832031 1689 1409.5 C 1620.332031 1527.167969 1527.167969 1620.332031 1409.5 1689 C 1291.832031 1757.667969 1163.332031 1792 1024 1792 C 884.667969 1792 756.167969 1757.667969 638.5 1689 C 520.832031 1620.332031 427.667969 1527.167969 359 1409.5 C 290.332031 1291.832031 256 1163.332031 256 1024 C 256 884.667969 290.332031 756.167969 359 638.5 C 427.667969 520.832031 520.832031 427.667969 638.5 359 C 756.167969 290.332031 884.667969 256 1024 256 C 1163.332031 256 1291.832031 290.332031 1409.5 359 C 1527.167969 427.667969 1620.332031 520.832031 1689 638.5 C 1757.667969 756.167969 1792 884.667969 1792 1024 Z M 1792 1024 " fill="white" />
</g>
</svg>
