<?xml version="1.0" encoding="UTF-8"?>
<svg xmlns="http://www.w3.org/2000/svg" xmlns:xlink="http://www.w3.org/1999/xlink" width="2048" height="2048" viewBox="0 0 2048 2048" version="1.1">
<g>
<path d="M 1190 1701 L 538 1050 C 513.332031 1025.332031 501 995.167969 501 959.5 C 501 923.832031 513.332031 893.667969 538 869 L 1190 218 C 1214.667969 193.332031 1244.832031 181 1280.5 181 C 1316.167969 181 1346.332031 193.332031 1371 218 L 1446 293 C 1470.667969 317.667969 1483 347.832031 1483 383.5 C 1483 419.167969 1470.667969 449.332031 1446 474 L 960 960 L 1446 1445 C 1470.667969 1470.332031 1483 1500.667969 1483 1536 C 1483 1571.332031 1470.667969 1601.332031 1446 1626 L 1371 1701 C 1346.332031 1725.667969 1316.167969 1738 1280.5 1738 C 1244.832031 1738 1214.667969 1725.667969 1190 1701 Z M 1190 1701 " fill="white" />
</g>
</svg>
