<?xml version="1.0" encoding="UTF-8"?>
<svg xmlns="http://www.w3.org/2000/svg" xmlns:xlink="http://www.w3.org/1999/xlink" width="2048" height="2048" viewBox="0 0 2048 2048" version="1.1">
<g>
<path d="M 973 1523 L 1427 1069 C 1439.667969 1056.332031 1446 1041.332031 1446 1024 C 1446 1006.667969 1439.667969 991.667969 1427 979 L 973 525 C 960.332031 512.332031 945.332031 506 928 506 C 910.667969 506 895.667969 512.332031 883 525 L 781 627 C 768.332031 639.667969 762 654.667969 762 672 C 762 689.332031 768.332031 704.332031 781 717 L 1088 1024 L 781 1331 C 768.332031 1343.667969 762 1358.667969 762 1376 C 762 1393.332031 768.332031 1408.332031 781 1421 L 883 1523 C 895.667969 1535.667969 910.667969 1542 928 1542 C 945.332031 1542 960.332031 1535.667969 973 1523 Z M 1792 1024 C 1792 1163.332031 1757.667969 1291.832031 1689 1409.5 C 1620.332031 1527.167969 1527.167969 1620.332031 1409.5 1689 C 1291.832031 1757.667969 1163.332031 1792 1024 1792 C 884.667969 1792 756.167969 1757.667969 638.5 1689 C 520.832031 1620.332031 427.667969 1527.167969 359 1409.5 C 290.332031 1291.832031 256 1163.332031 256 1024 C 256 884.667969 290.332031 756.167969 359 638.5 C 427.667969 520.832031 520.832031 427.667969 638.5 359 C 756.167969 290.332031 884.667969 256 1024 256 C 1163.332031 256 1291.832031 290.332031 1409.5 359 C 1527.167969 427.667969 1620.332031 520.832031 1689 638.5 C 1757.667969 756.167969 1792 884.667969 1792 1024 Z M 1792 1024 " fill="white" />
</g>
</svg>
