<svg width="2048" height="2048" viewBox="-256 -384 2048 2048" xmlns="http://www.w3.org/2000/svg"><g transform="scale(1 -1) translate(0 -1280)"><path d="M813 237l454 454q19 19 19 45t-19 45l-102 102q-19 19 -45 19t-45 -19l-307 -307l-307 307q-19 19 -45 19t-45 -19l-102 -102q-19 -19 -19 -45t19 -45l454 -454q19 -19 45 -19t45 19zM1536 640q0 -209 -103 -385.5t-279.5 -279.5t-385.5 -103t-385.5 103t-279.5 279.5 t-103 385.5t103 385.5t279.5 279.5t385.5 103t385.5 -103t279.5 -279.5t103 -385.5z" fill="white" /></g></svg>