<?xml version="1.0" encoding="UTF-8"?>
<svg xmlns="http://www.w3.org/2000/svg" xmlns:xlink="http://www.w3.org/1999/xlink" width="2048" height="2048" viewBox="0 0 2048 2048" version="1.1">
<g>
<path d="M 896 1792 L 1792 1792 L 1792 1152 L 1376 1152 C 1349.332031 1152 1326.667969 1142.667969 1308 1124 C 1289.332031 1105.332031 1280 1082.667969 1280 1056 L 1280 640 L 896 640 Z M 1152 352 L 1152 288 C 1152 279.332031 1148.832031 271.832031 1142.5 265.5 C 1136.167969 259.167969 1128.667969 256 1120 256 L 416 256 C 407.332031 256 399.832031 259.167969 393.5 265.5 C 387.167969 271.832031 384 279.332031 384 288 L 384 352 C 384 360.667969 387.167969 368.167969 393.5 374.5 C 399.832031 380.832031 407.332031 384 416 384 L 1120 384 C 1128.667969 384 1136.167969 380.832031 1142.5 374.5 C 1148.832031 368.167969 1152 360.667969 1152 352 Z M 1408 1024 L 1707 1024 L 1408 725 Z M 1920 1152 L 1920 1824 C 1920 1850.667969 1910.667969 1873.332031 1892 1892 C 1873.332031 1910.667969 1850.667969 1920 1824 1920 L 864 1920 C 837.332031 1920 814.667969 1910.667969 796 1892 C 777.332031 1873.332031 768 1850.667969 768 1824 L 768 1664 L 224 1664 C 197.332031 1664 174.667969 1654.667969 156 1636 C 137.332031 1617.332031 128 1594.667969 128 1568 L 128 224 C 128 197.332031 137.332031 174.667969 156 156 C 174.667969 137.332031 197.332031 128 224 128 L 1312 128 C 1338.667969 128 1361.332031 137.332031 1380 156 C 1398.667969 174.667969 1408 197.332031 1408 224 L 1408 552 C 1422 560.667969 1434 570 1444 580 L 1852 988 C 1870.667969 1006.667969 1886.667969 1032 1900 1064 C 1913.332031 1096 1920 1125.332031 1920 1152 Z M 1920 1152 " fill="white" />
</g>
</svg>
