<?xml version="1.0" encoding="UTF-8"?>
<svg xmlns="http://www.w3.org/2000/svg" xmlns:xlink="http://www.w3.org/1999/xlink" width="2048" height="2048" viewBox="0 0 2048 2048" version="1.1">
<g>
<path d="M 1152 672 L 1152 1120 C 1152 1129.332031 1149 1137 1143 1143 C 1137 1149 1129.332031 1152 1120 1152 L 800 1152 C 790.667969 1152 783 1149 777 1143 C 771 1137 768 1129.332031 768 1120 L 768 1056 C 768 1046.667969 771 1039 777 1033 C 783 1027 790.667969 1024 800 1024 L 1024 1024 L 1024 672 C 1024 662.667969 1027 655 1033 649 C 1039 643 1046.667969 640 1056 640 L 1120 640 C 1129.332031 640 1137 643 1143 649 C 1149 655 1152 662.667969 1152 672 Z M 1568 1024 C 1568 925.332031 1543.667969 834.332031 1495 751 C 1446.332031 667.667969 1380.332031 601.667969 1297 553 C 1213.667969 504.332031 1122.667969 480 1024 480 C 925.332031 480 834.332031 504.332031 751 553 C 667.667969 601.667969 601.667969 667.667969 553 751 C 504.332031 834.332031 480 925.332031 480 1024 C 480 1122.667969 504.332031 1213.667969 553 1297 C 601.667969 1380.332031 667.667969 1446.332031 751 1495 C 834.332031 1543.667969 925.332031 1568 1024 1568 C 1122.667969 1568 1213.667969 1543.667969 1297 1495 C 1380.332031 1446.332031 1446.332031 1380.332031 1495 1297 C 1543.667969 1213.667969 1568 1122.667969 1568 1024 Z M 1792 1024 C 1792 1163.332031 1757.667969 1291.832031 1689 1409.5 C 1620.332031 1527.167969 1527.167969 1620.332031 1409.5 1689 C 1291.832031 1757.667969 1163.332031 1792 1024 1792 C 884.667969 1792 756.167969 1757.667969 638.5 1689 C 520.832031 1620.332031 427.667969 1527.167969 359 1409.5 C 290.332031 1291.832031 256 1163.332031 256 1024 C 256 884.667969 290.332031 756.167969 359 638.5 C 427.667969 520.832031 520.832031 427.667969 638.5 359 C 756.167969 290.332031 884.667969 256 1024 256 C 1163.332031 256 1291.832031 290.332031 1409.5 359 C 1527.167969 427.667969 1620.332031 520.832031 1689 638.5 C 1757.667969 756.167969 1792 884.667969 1792 1024 Z M 1792 1024 " fill="white" />
</g>
</svg>
