<?xml version="1.0" encoding="UTF-8"?>
<svg xmlns="http://www.w3.org/2000/svg" xmlns:xlink="http://www.w3.org/1999/xlink" width="2048" height="2048" viewBox="0 0 2048 2048" version="1.1">
<g>
<path d="M 1984 1280 C 1984 1386 1946.5 1476.5 1871.5 1551.5 C 1796.5 1626.5 1706 1664 1600 1664 L 512 1664 C 388.667969 1664 283.167969 1620.167969 195.5 1532.5 C 107.832031 1444.832031 64 1339.332031 64 1216 C 64 1128 87.667969 1047.5 135 974.5 C 182.332031 901.5 244.667969 847 322 811 C 320.667969 792.332031 320 778 320 768 C 320 626.667969 370 506 470 406 C 570 306 690.667969 256 832 256 C 937.332031 256 1032.832031 285.332031 1118.5 344 C 1204.167969 402.667969 1266.667969 479.332031 1306 574 C 1352.667969 532.667969 1408 512 1472 512 C 1542.667969 512 1603 537 1653 587 C 1703 637 1728 697.332031 1728 768 C 1728 818 1714.332031 864 1687 906 C 1773 926 1844 970.832031 1900 1040.5 C 1956 1110.167969 1984 1190 1984 1280 Z M 1984 1280 " fill="white" />
</g>
</svg>
