<svg width="2048" height="2048" viewBox="-64 -384 2048 2048" xmlns="http://www.w3.org/2000/svg"><g transform="scale(1 -1) translate(0 -1280)"><path d="M1280 672q0 14 -9 23l-352 352q-9 9 -23 9t-23 -9l-351 -351q-10 -12 -10 -24q0 -14 9 -23t23 -9h224v-352q0 -13 9.5 -22.5t22.5 -9.5h192q13 0 22.5 9.5t9.5 22.5v352h224q13 0 22.5 9.5t9.5 22.5zM1920 384q0 -159 -112.5 -271.5t-271.5 -112.5h-1088 q-185 0 -316.5 131.5t-131.5 316.5q0 130 70 240t188 165q-2 30 -2 43q0 212 150 362t362 150q156 0 285.5 -87t188.5 -231q71 62 166 62q106 0 181 -75t75 -181q0 -76 -41 -138q130 -31 213.5 -135.5t83.5 -238.5z" fill="white" /></g></svg>