<?xml version="1.0" encoding="UTF-8"?>
<svg xmlns="http://www.w3.org/2000/svg" xmlns:xlink="http://www.w3.org/1999/xlink" width="2048" height="2048" viewBox="0 0 2048 2048" version="1.1">
<g>
<path d="M 960 1024 C 960 953.332031 935 893 885 843 C 835 793 774.667969 768 704 768 C 633.332031 768 573 793 523 843 C 473 893 448 953.332031 448 1024 C 448 1094.667969 473 1155 523 1205 C 573 1255 633.332031 1280 704 1280 C 774.667969 1280 835 1255 885 1205 C 935 1155 960 1094.667969 960 1024 Z M 1728 1536 C 1728 1501.332031 1715.332031 1471.332031 1690 1446 C 1664.667969 1420.667969 1634.667969 1408 1600 1408 C 1565.332031 1408 1535.332031 1420.667969 1510 1446 C 1484.667969 1471.332031 1472 1501.332031 1472 1536 C 1472 1571.332031 1484.5 1601.5 1509.5 1626.5 C 1534.5 1651.5 1564.667969 1664 1600 1664 C 1635.332031 1664 1665.5 1651.5 1690.5 1626.5 C 1715.5 1601.5 1728 1571.332031 1728 1536 Z M 1728 512 C 1728 477.332031 1715.332031 447.332031 1690 422 C 1664.667969 396.667969 1634.667969 384 1600 384 C 1565.332031 384 1535.332031 396.667969 1510 422 C 1484.667969 447.332031 1472 477.332031 1472 512 C 1472 547.332031 1484.5 577.5 1509.5 602.5 C 1534.5 627.5 1564.667969 640 1600 640 C 1635.332031 640 1665.5 627.5 1690.5 602.5 C 1715.5 577.5 1728 547.332031 1728 512 Z M 1344 933 L 1344 1118 C 1344 1124.667969 1341.667969 1131.167969 1337 1137.5 C 1332.332031 1143.832031 1327 1147.332031 1321 1148 L 1166 1172 C 1158.667969 1195.332031 1148 1220.667969 1134 1248 C 1156.667969 1280 1186.667969 1318.332031 1224 1363 C 1228.667969 1369.667969 1231 1376.332031 1231 1383 C 1231 1391 1228.667969 1397.332031 1224 1402 C 1208.667969 1422 1181.167969 1451.832031 1141.5 1491.5 C 1101.832031 1531.167969 1075.667969 1551 1063 1551 C 1055.667969 1551 1048.667969 1548.667969 1042 1544 L 927 1454 C 902.332031 1466.667969 876.667969 1477 850 1485 C 842.667969 1557 835 1608.667969 827 1640 C 822.332031 1656 812.332031 1664 797 1664 L 611 1664 C 603.667969 1664 597 1661.5 591 1656.5 C 585 1651.5 581.667969 1645.667969 581 1639 L 558 1486 C 535.332031 1479.332031 510.332031 1469 483 1455 L 365 1544 C 360.332031 1548.667969 353.667969 1551 345 1551 C 337.667969 1551 330.667969 1548.332031 324 1543 C 228 1454.332031 180 1401 180 1383 C 180 1377 182.332031 1370.667969 187 1364 C 193.667969 1354.667969 207.332031 1337 228 1311 C 248.667969 1285 264.332031 1264.667969 275 1250 C 259.667969 1220.667969 248 1193.332031 240 1168 L 88 1144 C 81.332031 1143.332031 75.667969 1140.167969 71 1134.5 C 66.332031 1128.832031 64 1122.332031 64 1115 L 64 930 C 64 923.332031 66.332031 916.832031 71 910.5 C 75.667969 904.167969 81 900.667969 87 900 L 242 876 C 249.332031 852.667969 260 827.332031 274 800 C 251.332031 768 221.332031 729.667969 184 685 C 179.332031 677.667969 177 671 177 665 C 177 657 179.332031 650.332031 184 645 C 198.667969 625 226 595.332031 266 556 C 306 516.667969 332.332031 497 345 497 C 352.332031 497 359.332031 499.332031 366 504 L 481 594 C 503.667969 582 529.332031 571.332031 558 562 C 565.332031 490 573 438.667969 581 408 C 585.667969 392 595.667969 384 611 384 L 797 384 C 804.332031 384 811 386.5 817 391.5 C 823 396.5 826.332031 402.332031 827 409 L 850 562 C 872.667969 568.667969 897.667969 579 925 593 L 1043 504 C 1048.332031 499.332031 1055 497 1063 497 C 1070.332031 497 1077.332031 499.667969 1084 505 C 1180 593.667969 1228 647 1228 665 C 1228 671 1225.667969 677.332031 1221 684 C 1213 694.667969 1199 712.667969 1179 738 C 1159 763.332031 1144 783.332031 1134 798 C 1149.332031 830 1160.667969 857.332031 1168 880 L 1320 903 C 1326.667969 904.332031 1332.332031 907.832031 1337 913.5 C 1341.667969 919.167969 1344 925.667969 1344 933 Z M 1984 1466 L 1984 1606 C 1984 1616.667969 1934.332031 1627 1835 1637 C 1827 1655 1817 1672.332031 1805 1689 C 1839 1764.332031 1856 1810.332031 1856 1827 C 1856 1829.667969 1854.667969 1832 1852 1834 C 1770.667969 1881.332031 1729.332031 1905 1728 1905 C 1722.667969 1905 1707.332031 1889.332031 1682 1858 C 1656.667969 1826.667969 1639.332031 1804 1630 1790 C 1616.667969 1791.332031 1606.667969 1792 1600 1792 C 1593.332031 1792 1583.332031 1791.332031 1570 1790 C 1560.667969 1804 1543.332031 1826.667969 1518 1858 C 1492.667969 1889.332031 1477.332031 1905 1472 1905 C 1470.667969 1905 1429.332031 1881.332031 1348 1834 C 1345.332031 1832 1344 1829.667969 1344 1827 C 1344 1810.332031 1361 1764.332031 1395 1689 C 1383 1672.332031 1373 1655 1365 1637 C 1265.667969 1627 1216 1616.667969 1216 1606 L 1216 1466 C 1216 1455.332031 1265.667969 1445 1365 1435 C 1373.667969 1415.667969 1383.667969 1398.332031 1395 1383 C 1361 1307.667969 1344 1261.667969 1344 1245 C 1344 1242.332031 1345.332031 1240 1348 1238 C 1350.667969 1236.667969 1362.332031 1230 1383 1218 C 1403.667969 1206 1423.332031 1194.667969 1442 1184 C 1460.667969 1173.332031 1470.667969 1168 1472 1168 C 1477.332031 1168 1492.667969 1183.5 1518 1214.5 C 1543.332031 1245.5 1560.667969 1268 1570 1282 C 1583.332031 1280.667969 1593.332031 1280 1600 1280 C 1606.667969 1280 1616.667969 1280.667969 1630 1282 C 1664 1234.667969 1694.667969 1197.332031 1722 1170 L 1728 1168 C 1730.667969 1168 1772 1191.332031 1852 1238 C 1854.667969 1240 1856 1242.332031 1856 1245 C 1856 1261.667969 1839 1307.667969 1805 1383 C 1816.332031 1398.332031 1826.332031 1415.667969 1835 1435 C 1934.332031 1445 1984 1455.332031 1984 1466 Z M 1984 442 L 1984 582 C 1984 592.667969 1934.332031 603 1835 613 C 1827 631 1817 648.332031 1805 665 C 1839 740.332031 1856 786.332031 1856 803 C 1856 805.667969 1854.667969 808 1852 810 C 1770.667969 857.332031 1729.332031 881 1728 881 C 1722.667969 881 1707.332031 865.332031 1682 834 C 1656.667969 802.667969 1639.332031 780 1630 766 C 1616.667969 767.332031 1606.667969 768 1600 768 C 1593.332031 768 1583.332031 767.332031 1570 766 C 1560.667969 780 1543.332031 802.667969 1518 834 C 1492.667969 865.332031 1477.332031 881 1472 881 C 1470.667969 881 1429.332031 857.332031 1348 810 C 1345.332031 808 1344 805.667969 1344 803 C 1344 786.332031 1361 740.332031 1395 665 C 1383 648.332031 1373 631 1365 613 C 1265.667969 603 1216 592.667969 1216 582 L 1216 442 C 1216 431.332031 1265.667969 421 1365 411 C 1373.667969 391.667969 1383.667969 374.332031 1395 359 C 1361 283.667969 1344 237.667969 1344 221 C 1344 218.332031 1345.332031 216 1348 214 C 1350.667969 212.667969 1362.332031 206 1383 194 C 1403.667969 182 1423.332031 170.667969 1442 160 C 1460.667969 149.332031 1470.667969 144 1472 144 C 1477.332031 144 1492.667969 159.5 1518 190.5 C 1543.332031 221.5 1560.667969 244 1570 258 C 1583.332031 256.667969 1593.332031 256 1600 256 C 1606.667969 256 1616.667969 256.667969 1630 258 C 1664 210.667969 1694.667969 173.332031 1722 146 L 1728 144 C 1730.667969 144 1772 167.332031 1852 214 C 1854.667969 216 1856 218.332031 1856 221 C 1856 237.667969 1839 283.667969 1805 359 C 1816.332031 374.332031 1826.332031 391.667969 1835 411 C 1934.332031 421 1984 431.332031 1984 442 Z M 1984 442 " fill="white" />
</g>
</svg>
