<?xml version="1.0" encoding="UTF-8"?>
<svg xmlns="http://www.w3.org/2000/svg" xmlns:xlink="http://www.w3.org/1999/xlink" width="2048" height="2048" viewBox="0 0 2048 2048" version="1.1">
<g>
<path d="M 1024 512 C 888 512 760.832031 535.167969 642.5 581.5 C 524.167969 627.832031 430.167969 690.332031 360.5 769 C 290.832031 847.667969 256 932.667969 256 1024 C 256 1098.667969 279.832031 1169.832031 327.5 1237.5 C 375.167969 1305.167969 442.332031 1363.667969 529 1413 L 616 1463 L 589 1559 C 573 1619.667969 549.667969 1677 519 1731 C 620.332031 1689 712 1632 794 1560 L 837 1522 L 894 1528 C 940 1533.332031 983.332031 1536 1024 1536 C 1160 1536 1287.167969 1512.832031 1405.5 1466.5 C 1523.832031 1420.167969 1617.832031 1357.667969 1687.5 1279 C 1757.167969 1200.332031 1792 1115.332031 1792 1024 C 1792 932.667969 1757.167969 847.667969 1687.5 769 C 1617.832031 690.332031 1523.832031 627.832031 1405.5 581.5 C 1287.167969 535.167969 1160 512 1024 512 Z M 1920 1024 C 1920 1140 1880 1247.167969 1800 1345.5 C 1720 1443.832031 1611.332031 1521.5 1474 1578.5 C 1336.667969 1635.5 1186.667969 1664 1024 1664 C 977.332031 1664 929 1661.332031 879 1656 C 747 1772.667969 593.667969 1853.332031 419 1898 C 386.332031 1907.332031 348.332031 1914.667969 305 1920 L 300 1920 C 290 1920 281 1916.5 273 1909.5 C 265 1902.5 259.667969 1893.332031 257 1882 L 257 1881 C 255 1878.332031 254.832031 1874.332031 256.5 1869 C 258.167969 1863.667969 258.832031 1860.332031 258.5 1859 C 258.167969 1857.667969 259.667969 1854.5 263 1849.5 L 269 1840.5 C 269 1840.5 271.332031 1837.667969 276 1832 C 280.667969 1826.332031 283.332031 1823.332031 284 1823 C 288.667969 1817.667969 299 1806.167969 315 1788.5 C 331 1770.832031 342.5 1758.167969 349.5 1750.5 C 356.5 1742.832031 366.832031 1729.667969 380.5 1711 C 394.167969 1692.332031 405 1675.332031 413 1660 C 421 1644.667969 430 1625 440 1601 C 450 1577 458.667969 1551.667969 466 1525 C 361.332031 1465.667969 278.832031 1392.332031 218.5 1305 C 158.167969 1217.667969 128 1124 128 1024 C 128 908 168 800.832031 248 702.5 C 328 604.167969 436.667969 526.5 574 469.5 C 711.332031 412.5 861.332031 384 1024 384 C 1186.667969 384 1336.667969 412.5 1474 469.5 C 1611.332031 526.5 1720 604.167969 1800 702.5 C 1880 800.832031 1920 908 1920 1024 Z M 1920 1024 " fill="white" />
</g>
</svg>
