<?xml version="1.0" encoding="UTF-8"?>
<svg xmlns="http://www.w3.org/2000/svg" xmlns:xlink="http://www.w3.org/1999/xlink" width="2048" height="2048" viewBox="0 0 2048 2048" version="1.1">
<g>
<path d="M 1536 896 C 1536 988.667969 1504.667969 1074.332031 1442 1153 C 1379.332031 1231.667969 1293.832031 1293.832031 1185.5 1339.5 C 1077.167969 1385.167969 959.332031 1408 832 1408 C 774.667969 1408 716 1402.667969 656 1392 C 573.332031 1450.667969 480.667969 1493.332031 378 1520 C 354 1526 325.332031 1531.332031 292 1536 L 289 1536 C 281.667969 1536 274.832031 1533.332031 268.5 1528 C 262.167969 1522.667969 258.332031 1515.667969 257 1507 C 256.332031 1505 256 1502.832031 256 1500.5 C 256 1498.167969 256.167969 1496 256.5 1494 C 256.832031 1492 257.5 1490 258.5 1488 L 261 1483 C 261 1483 262.167969 1481.167969 264.5 1477.5 C 266.832031 1473.832031 268.167969 1472.167969 268.5 1472.5 C 268.832031 1472.832031 270.332031 1471.167969 273 1467.5 C 275.667969 1463.832031 277 1462.332031 277 1463 C 280.332031 1459 288 1450.667969 300 1438 C 312 1425.332031 320.667969 1415.5 326 1408.5 C 331.332031 1401.5 338.832031 1391.832031 348.5 1379.5 C 358.167969 1367.167969 366.5 1354.332031 373.5 1341 C 380.5 1327.667969 387.332031 1313 394 1297 C 311.332031 1249 246.332031 1190 199 1120 C 151.667969 1050 128 975.332031 128 896 C 128 803.332031 159.332031 717.667969 222 639 C 284.667969 560.332031 370.167969 498.167969 478.5 452.5 C 586.832031 406.832031 704.667969 384 832 384 C 959.332031 384 1077.167969 406.832031 1185.5 452.5 C 1293.832031 498.167969 1379.332031 560.332031 1442 639 C 1504.667969 717.667969 1536 803.332031 1536 896 Z M 1920 1152 C 1920 1232 1896.332031 1306.832031 1849 1376.5 C 1801.667969 1446.167969 1736.667969 1505 1654 1553 C 1660.667969 1569 1667.5 1583.667969 1674.5 1597 C 1681.5 1610.332031 1689.832031 1623.167969 1699.5 1635.5 C 1709.167969 1647.832031 1716.667969 1657.5 1722 1664.5 C 1727.332031 1671.5 1736 1681.332031 1748 1694 C 1760 1706.667969 1767.667969 1715 1771 1719 C 1771.667969 1719.667969 1773 1721.167969 1775 1723.5 C 1777 1725.832031 1778.5 1727.5 1779.5 1728.5 C 1780.5 1729.5 1781.832031 1731.167969 1783.5 1733.5 C 1785.167969 1735.832031 1786.332031 1737.667969 1787 1739 L 1789.5 1744 C 1789.5 1744 1790.167969 1746 1791.5 1750 C 1792.832031 1754 1793 1756.167969 1792 1756.5 C 1791 1756.832031 1790.667969 1759 1791 1763 C 1789 1772.332031 1784.667969 1779.667969 1778 1785 C 1771.332031 1790.332031 1764 1792.667969 1756 1792 C 1722.667969 1787.332031 1694 1782 1670 1776 C 1567.332031 1749.332031 1474.667969 1706.667969 1392 1648 C 1332 1658.667969 1273.332031 1664 1216 1664 C 1035.332031 1664 878 1620 744 1532 C 782.667969 1534.667969 812 1536 832 1536 C 939.332031 1536 1042.332031 1521 1141 1491 C 1239.667969 1461 1327.667969 1418 1405 1362 C 1488.332031 1300.667969 1552.332031 1230 1597 1150 C 1641.667969 1070 1664 985.332031 1664 896 C 1664 844.667969 1656.332031 794 1641 744 C 1727 791.332031 1795 850.667969 1845 922 C 1895 993.332031 1920 1070 1920 1152 Z M 1920 1152 " fill="white" />
</g>
</svg>
