<?xml version="1.0" encoding="UTF-8"?>
<svg xmlns="http://www.w3.org/2000/svg" xmlns:xlink="http://www.w3.org/1999/xlink" width="2048" height="2048" viewBox="0 0 2048 2048" version="1.1">
<g>
<path d="M 1024 1088 L 1024 1536 C 1024 1553.332031 1017.667969 1568.332031 1005 1581 C 992.332031 1593.667969 977.332031 1600 960 1600 C 942.667969 1600 927.667969 1593.667969 915 1581 L 771 1437 L 439 1769 C 432.332031 1775.667969 424.667969 1779 416 1779 C 407.332031 1779 399.667969 1775.667969 393 1769 L 279 1655 C 272.332031 1648.332031 269 1640.667969 269 1632 C 269 1623.332031 272.332031 1615.667969 279 1609 L 611 1277 L 467 1133 C 454.332031 1120.332031 448 1105.332031 448 1088 C 448 1070.667969 454.332031 1055.667969 467 1043 C 479.667969 1030.332031 494.667969 1024 512 1024 L 960 1024 C 977.332031 1024 992.332031 1030.332031 1005 1043 C 1017.667969 1055.667969 1024 1070.667969 1024 1088 Z M 1779 416 C 1779 424.667969 1775.667969 432.332031 1769 439 L 1437 771 L 1581 915 C 1593.667969 927.667969 1600 942.667969 1600 960 C 1600 977.332031 1593.667969 992.332031 1581 1005 C 1568.332031 1017.667969 1553.332031 1024 1536 1024 L 1088 1024 C 1070.667969 1024 1055.667969 1017.667969 1043 1005 C 1030.332031 992.332031 1024 977.332031 1024 960 L 1024 512 C 1024 494.667969 1030.332031 479.667969 1043 467 C 1055.667969 454.332031 1070.667969 448 1088 448 C 1105.332031 448 1120.332031 454.332031 1133 467 L 1277 611 L 1609 279 C 1615.667969 272.332031 1623.332031 269 1632 269 C 1640.667969 269 1648.332031 272.332031 1655 279 L 1769 393 C 1775.667969 399.667969 1779 407.332031 1779 416 Z M 1779 416 " fill="white" />
</g>
</svg>
