<?xml version="1.0" encoding="UTF-8"?>
<svg xmlns="http://www.w3.org/2000/svg" xmlns:xlink="http://www.w3.org/1999/xlink" width="2048" height="2048" viewBox="0 0 2048 2048" version="1.1">
<g>
<path d="M 1824 256 C 1868 256 1905.667969 271.667969 1937 303 C 1968.332031 334.332031 1984 372 1984 416 L 1984 1632 C 1984 1676 1968.332031 1713.667969 1937 1745 C 1905.667969 1776.332031 1868 1792 1824 1792 L 224 1792 C 180 1792 142.332031 1776.332031 111 1745 C 79.667969 1713.667969 64 1676 64 1632 L 64 416 C 64 372 79.667969 334.332031 111 303 C 142.332031 271.667969 180 256 224 256 Z M 224 384 C 215.332031 384 207.832031 387.167969 201.5 393.5 C 195.167969 399.832031 192 407.332031 192 416 L 192 640 L 1856 640 L 1856 416 C 1856 407.332031 1852.832031 399.832031 1846.5 393.5 C 1840.167969 387.167969 1832.667969 384 1824 384 Z M 1824 1664 C 1832.667969 1664 1840.167969 1660.832031 1846.5 1654.5 C 1852.832031 1648.167969 1856 1640.667969 1856 1632 L 1856 1024 L 192 1024 L 192 1632 C 192 1640.667969 195.167969 1648.167969 201.5 1654.5 C 207.832031 1660.832031 215.332031 1664 224 1664 Z M 320 1536 L 320 1408 L 576 1408 L 576 1536 Z M 704 1536 L 704 1408 L 1088 1408 L 1088 1536 Z M 704 1536 " fill="white" />
</g>
</svg>
