<svg width="2048" height="2048" viewBox="-192 -384 2048 2048" xmlns="http://www.w3.org/2000/svg"><g transform="scale(1 -1) translate(0 -1280)"><path d="M557 256h595v595zM512 301l595 595h-595v-595zM1664 224v-192q0 -14 -9 -23t-23 -9h-224v-224q0 -14 -9 -23t-23 -9h-192q-14 0 -23 9t-9 23v224h-864q-14 0 -23 9t-9 23v864h-224q-14 0 -23 9t-9 23v192q0 14 9 23t23 9h224v224q0 14 9 23t23 9h192q14 0 23 -9t9 -23 v-224h851l246 247q10 9 23 9t23 -9q9 -10 9 -23t-9 -23l-247 -246v-851h224q14 0 23 -9t9 -23z" fill="white" /></g></svg>