<?xml version="1.0" encoding="UTF-8"?>
<svg xmlns="http://www.w3.org/2000/svg" xmlns:xlink="http://www.w3.org/1999/xlink" width="2048" height="2048" viewBox="0 0 2048 2048" version="1.1">
<g>
<path d="M 1453 1152 L 1344 1152 C 1326.667969 1152 1311.667969 1145.667969 1299 1133 C 1286.332031 1120.332031 1280 1105.332031 1280 1088 L 1280 960 C 1280 942.667969 1286.332031 927.667969 1299 915 C 1311.667969 902.332031 1326.667969 896 1344 896 L 1453 896 C 1431.667969 824 1394.167969 761.167969 1340.5 707.5 C 1286.832031 653.832031 1224 616.332031 1152 595 L 1152 704 C 1152 721.332031 1145.667969 736.332031 1133 749 C 1120.332031 761.667969 1105.332031 768 1088 768 L 960 768 C 942.667969 768 927.667969 761.667969 915 749 C 902.332031 736.332031 896 721.332031 896 704 L 896 595 C 824 616.332031 761.167969 653.832031 707.5 707.5 C 653.832031 761.167969 616.332031 824 595 896 L 704 896 C 721.332031 896 736.332031 902.332031 749 915 C 761.667969 927.667969 768 942.667969 768 960 L 768 1088 C 768 1105.332031 761.667969 1120.332031 749 1133 C 736.332031 1145.667969 721.332031 1152 704 1152 L 595 1152 C 616.332031 1224 653.832031 1286.832031 707.5 1340.5 C 761.167969 1394.167969 824 1431.667969 896 1453 L 896 1344 C 896 1326.667969 902.332031 1311.667969 915 1299 C 927.667969 1286.332031 942.667969 1280 960 1280 L 1088 1280 C 1105.332031 1280 1120.332031 1286.332031 1133 1299 C 1145.667969 1311.667969 1152 1326.667969 1152 1344 L 1152 1453 C 1224 1431.667969 1286.832031 1394.167969 1340.5 1340.5 C 1394.167969 1286.832031 1431.667969 1224 1453 1152 Z M 1792 960 L 1792 1088 C 1792 1105.332031 1785.667969 1120.332031 1773 1133 C 1760.332031 1145.667969 1745.332031 1152 1728 1152 L 1585 1152 C 1560.332031 1259.332031 1508.832031 1352.167969 1430.5 1430.5 C 1352.167969 1508.832031 1259.332031 1560.332031 1152 1585 L 1152 1728 C 1152 1745.332031 1145.667969 1760.332031 1133 1773 C 1120.332031 1785.667969 1105.332031 1792 1088 1792 L 960 1792 C 942.667969 1792 927.667969 1785.667969 915 1773 C 902.332031 1760.332031 896 1745.332031 896 1728 L 896 1585 C 788.667969 1560.332031 695.832031 1508.832031 617.5 1430.5 C 539.167969 1352.167969 487.667969 1259.332031 463 1152 L 320 1152 C 302.667969 1152 287.667969 1145.667969 275 1133 C 262.332031 1120.332031 256 1105.332031 256 1088 L 256 960 C 256 942.667969 262.332031 927.667969 275 915 C 287.667969 902.332031 302.667969 896 320 896 L 463 896 C 487.667969 788.667969 539.167969 695.832031 617.5 617.5 C 695.832031 539.167969 788.667969 487.667969 896 463 L 896 320 C 896 302.667969 902.332031 287.667969 915 275 C 927.667969 262.332031 942.667969 256 960 256 L 1088 256 C 1105.332031 256 1120.332031 262.332031 1133 275 C 1145.667969 287.667969 1152 302.667969 1152 320 L 1152 463 C 1259.332031 487.667969 1352.167969 539.167969 1430.5 617.5 C 1508.832031 695.832031 1560.332031 788.667969 1585 896 L 1728 896 C 1745.332031 896 1760.332031 902.332031 1773 915 C 1785.667969 927.667969 1792 942.667969 1792 960 Z M 1792 960 " fill="white" />
</g>
</svg>
