<svg width="2048" height="2048" viewBox="-256 -384 2048 2048" xmlns="http://www.w3.org/2000/svg"><g transform="scale(1 -1) translate(0 -1280)"><path d="M1197 512h-109q-26 0 -45 19t-19 45v128q0 26 19 45t45 19h109q-32 108 -112.5 188.5t-188.5 112.5v-109q0 -26 -19 -45t-45 -19h-128q-26 0 -45 19t-19 45v109q-108 -32 -188.5 -112.5t-112.5 -188.5h109q26 0 45 -19t19 -45v-128q0 -26 -19 -45t-45 -19h-109 q32 -108 112.5 -188.5t188.5 -112.5v109q0 26 19 45t45 19h128q26 0 45 -19t19 -45v-109q108 32 188.5 112.5t112.5 188.5zM1536 704v-128q0 -26 -19 -45t-45 -19h-143q-37 -161 -154.5 -278.5t-278.5 -154.5v-143q0 -26 -19 -45t-45 -19h-128q-26 0 -45 19t-19 45v143 q-161 37 -278.5 154.5t-154.5 278.5h-143q-26 0 -45 19t-19 45v128q0 26 19 45t45 19h143q37 161 154.5 278.5t278.5 154.5v143q0 26 19 45t45 19h128q26 0 45 -19t19 -45v-143q161 -37 278.5 -154.5t154.5 -278.5h143q26 0 45 -19t19 -45z" fill="white" /></g></svg>