<svg width="2048" height="2048" viewBox="-320 -384 2048 2048" xmlns="http://www.w3.org/2000/svg"><g transform="scale(1 -1) translate(0 -1280)"><path d="M640 1472v-640q0 -61 -35.5 -111t-92.5 -70v-779q0 -52 -38 -90t-90 -38h-128q-52 0 -90 38t-38 90v779q-57 20 -92.5 70t-35.5 111v640q0 26 19 45t45 19t45 -19t19 -45v-416q0 -26 19 -45t45 -19t45 19t19 45v416q0 26 19 45t45 19t45 -19t19 -45v-416q0 -26 19 -45 t45 -19t45 19t19 45v416q0 26 19 45t45 19t45 -19t19 -45zM1408 1472v-1600q0 -52 -38 -90t-90 -38h-128q-52 0 -90 38t-38 90v512h-224q-13 0 -22.5 9.5t-9.5 22.5v800q0 132 94 226t226 94h256q26 0 45 -19t19 -45z" fill="white" /></g></svg>