<?xml version="1.0" encoding="UTF-8"?>
<svg xmlns="http://www.w3.org/2000/svg" xmlns:xlink="http://www.w3.org/1999/xlink" width="2048" height="2048" viewBox="0 0 2048 2048" version="1.1">
<g>
<path d="M 960 192 L 960 832 C 960 872.667969 948.167969 909.667969 924.5 943 C 900.832031 976.332031 870 999.667969 832 1013 L 832 1792 C 832 1826.667969 819.332031 1856.667969 794 1882 C 768.667969 1907.332031 738.667969 1920 704 1920 L 576 1920 C 541.332031 1920 511.332031 1907.332031 486 1882 C 460.667969 1856.667969 448 1826.667969 448 1792 L 448 1013 C 410 999.667969 379.167969 976.332031 355.5 943 C 331.832031 909.667969 320 872.667969 320 832 L 320 192 C 320 174.667969 326.332031 159.667969 339 147 C 351.667969 134.332031 366.667969 128 384 128 C 401.332031 128 416.332031 134.332031 429 147 C 441.667969 159.667969 448 174.667969 448 192 L 448 608 C 448 625.332031 454.332031 640.332031 467 653 C 479.667969 665.667969 494.667969 672 512 672 C 529.332031 672 544.332031 665.667969 557 653 C 569.667969 640.332031 576 625.332031 576 608 L 576 192 C 576 174.667969 582.332031 159.667969 595 147 C 607.667969 134.332031 622.667969 128 640 128 C 657.332031 128 672.332031 134.332031 685 147 C 697.667969 159.667969 704 174.667969 704 192 L 704 608 C 704 625.332031 710.332031 640.332031 723 653 C 735.667969 665.667969 750.667969 672 768 672 C 785.332031 672 800.332031 665.667969 813 653 C 825.667969 640.332031 832 625.332031 832 608 L 832 192 C 832 174.667969 838.332031 159.667969 851 147 C 863.667969 134.332031 878.667969 128 896 128 C 913.332031 128 928.332031 134.332031 941 147 C 953.667969 159.667969 960 174.667969 960 192 Z M 1728 192 L 1728 1792 C 1728 1826.667969 1715.332031 1856.667969 1690 1882 C 1664.667969 1907.332031 1634.667969 1920 1600 1920 L 1472 1920 C 1437.332031 1920 1407.332031 1907.332031 1382 1882 C 1356.667969 1856.667969 1344 1826.667969 1344 1792 L 1344 1280 L 1120 1280 C 1111.332031 1280 1103.832031 1276.832031 1097.5 1270.5 C 1091.167969 1264.167969 1088 1256.667969 1088 1248 L 1088 448 C 1088 360 1119.332031 284.667969 1182 222 C 1244.667969 159.332031 1320 128 1408 128 L 1664 128 C 1681.332031 128 1696.332031 134.332031 1709 147 C 1721.667969 159.667969 1728 174.667969 1728 192 Z M 1728 192 " fill="white" />
</g>
</svg>
