<?xml version="1.0" encoding="UTF-8"?>
<svg xmlns="http://www.w3.org/2000/svg" xmlns:xlink="http://www.w3.org/1999/xlink" width="2048" height="2048" viewBox="0 0 2048 2048" version="1.1">
<g>
<path d="M 1472 1472 C 1472 1454.667969 1465.667969 1439.667969 1453 1427 C 1440.332031 1414.332031 1425.332031 1408 1408 1408 C 1390.667969 1408 1375.667969 1414.332031 1363 1427 C 1350.332031 1439.667969 1344 1454.667969 1344 1472 C 1344 1489.332031 1350.332031 1504.332031 1363 1517 C 1375.667969 1529.667969 1390.667969 1536 1408 1536 C 1425.332031 1536 1440.332031 1529.667969 1453 1517 C 1465.667969 1504.332031 1472 1489.332031 1472 1472 Z M 1728 1472 C 1728 1454.667969 1721.667969 1439.667969 1709 1427 C 1696.332031 1414.332031 1681.332031 1408 1664 1408 C 1646.667969 1408 1631.667969 1414.332031 1619 1427 C 1606.332031 1439.667969 1600 1454.667969 1600 1472 C 1600 1489.332031 1606.332031 1504.332031 1619 1517 C 1631.667969 1529.667969 1646.667969 1536 1664 1536 C 1681.332031 1536 1696.332031 1529.667969 1709 1517 C 1721.667969 1504.332031 1728 1489.332031 1728 1472 Z M 1856 1248 L 1856 1568 C 1856 1594.667969 1846.667969 1617.332031 1828 1636 C 1809.332031 1654.667969 1786.667969 1664 1760 1664 L 288 1664 C 261.332031 1664 238.667969 1654.667969 220 1636 C 201.332031 1617.332031 192 1594.667969 192 1568 L 192 1248 C 192 1221.332031 201.332031 1198.667969 220 1180 C 238.667969 1161.332031 261.332031 1152 288 1152 L 753 1152 L 888 1288 C 926.667969 1325.332031 972 1344 1024 1344 C 1076 1344 1121.332031 1325.332031 1160 1288 L 1296 1152 L 1760 1152 C 1786.667969 1152 1809.332031 1161.332031 1828 1180 C 1846.667969 1198.667969 1856 1221.332031 1856 1248 Z M 1531 679 C 1542.332031 706.332031 1537.667969 729.667969 1517 749 L 1069 1197 C 1057 1209.667969 1042 1216 1024 1216 C 1006 1216 991 1209.667969 979 1197 L 531 749 C 510.332031 729.667969 505.667969 706.332031 517 679 C 528.332031 653 548 640 576 640 L 832 640 L 832 192 C 832 174.667969 838.332031 159.667969 851 147 C 863.667969 134.332031 878.667969 128 896 128 L 1152 128 C 1169.332031 128 1184.332031 134.332031 1197 147 C 1209.667969 159.667969 1216 174.667969 1216 192 L 1216 640 L 1472 640 C 1500 640 1519.667969 653 1531 679 Z M 1531 679 " fill="white" />
</g>
</svg>
