<?xml version="1.0" encoding="UTF-8"?>
<svg xmlns="http://www.w3.org/2000/svg" xmlns:xlink="http://www.w3.org/1999/xlink" width="2048" height="2048" viewBox="0 0 2048 2048" version="1.1">
<g>
<path d="M 1280 1628 C 1252 1467.332031 1205.332031 1301.332031 1140 1130 L 1138 1130 L 1136 1131 C 1125.332031 1135 1111 1140.5 1093 1147.5 C 1075 1154.5 1041.332031 1170.832031 992 1196.5 C 942.667969 1222.167969 897 1249.5 855 1278.5 C 813 1307.5 769.332031 1345.667969 724 1393 C 678.667969 1440.332031 644.332031 1489.667969 621 1541 L 606 1530 C 728.667969 1630 868 1680 1024 1680 C 1112 1680 1197.332031 1662.667969 1280 1628 Z M 1095 1021 C 1081 988.332031 1063.332031 951.332031 1042 910 C 834.667969 972 610.332031 1003 369 1003 C 368.332031 1007.667969 368 1014.667969 368 1024 C 368 1106.667969 382.667969 1185.5 412 1260.5 C 441.332031 1335.5 482.667969 1402.667969 536 1462 C 569.332031 1402.667969 610.5 1347.167969 659.5 1295.5 C 708.5 1243.832031 756 1202.332031 802 1171 C 848 1139.667969 891.5 1112.667969 932.5 1090 C 973.5 1067.332031 1006.667969 1051.332031 1032 1042 L 1069 1029 C 1071.667969 1028.332031 1076 1027.167969 1082 1025.5 C 1088 1023.832031 1092.332031 1022.332031 1095 1021 Z M 988 809 C 908 667 826.667969 541 744 431 C 652 474.332031 574 536.332031 510 617 C 446 697.667969 403.332031 788.332031 382 889 C 583.332031 889 785.332031 862.332031 988 809 Z M 1672 1128 C 1532 1088 1395.667969 1078.332031 1263 1099 C 1321 1258.332031 1363.667969 1414.667969 1391 1568 C 1465 1518 1526.667969 1454.832031 1576 1378.5 C 1625.332031 1302.167969 1657.332031 1218.667969 1672 1128 Z M 867 387 C 866.332031 387 865.667969 387.332031 865 388 C 865.667969 387.332031 866.332031 387 867 387 Z M 1457 532 C 1333.667969 422.667969 1189.332031 368 1024 368 C 973.332031 368 921.667969 374.332031 869 387 C 956.332031 500.332031 1038.332031 627.667969 1115 769 C 1161 751.667969 1204.332031 731.5 1245 708.5 C 1285.667969 685.5 1317.832031 665 1341.5 647 C 1365.167969 629 1387 610 1407 590 C 1427 570 1439.5 556.5 1444.5 549.5 Z M 1680 1017 C 1678 862.332031 1628.332031 725.667969 1531 607 L 1530 608 C 1524 616 1517.667969 624.167969 1511 632.5 C 1504.332031 640.832031 1489.832031 655.667969 1467.5 677 C 1445.167969 698.332031 1421.5 718.5 1396.5 737.5 C 1371.5 756.5 1338.167969 778.167969 1296.5 802.5 C 1254.832031 826.832031 1211 848.332031 1165 867 C 1181.667969 902.332031 1196.332031 934 1209 962 C 1210.332031 966 1212.5 971.832031 1215.5 979.5 C 1218.5 987.167969 1221 992.667969 1223 996 C 1247 992.667969 1271.832031 990.332031 1297.5 989 C 1323.167969 987.667969 1347.667969 987 1371 987 C 1394.332031 987 1417.332031 987.5 1440 988.5 C 1462.667969 989.5 1484 990.832031 1504 992.5 C 1524 994.167969 1542.832031 996 1560.5 998 C 1578.167969 1000 1594.167969 1002.167969 1608.5 1004.5 C 1622.832031 1006.832031 1635 1008.832031 1645 1010.5 C 1655 1012.167969 1663.332031 1013.667969 1670 1015 Z M 1792 1024 C 1792 1163.332031 1757.667969 1291.832031 1689 1409.5 C 1620.332031 1527.167969 1527.167969 1620.332031 1409.5 1689 C 1291.832031 1757.667969 1163.332031 1792 1024 1792 C 884.667969 1792 756.167969 1757.667969 638.5 1689 C 520.832031 1620.332031 427.667969 1527.167969 359 1409.5 C 290.332031 1291.832031 256 1163.332031 256 1024 C 256 884.667969 290.332031 756.167969 359 638.5 C 427.667969 520.832031 520.832031 427.667969 638.5 359 C 756.167969 290.332031 884.667969 256 1024 256 C 1163.332031 256 1291.832031 290.332031 1409.5 359 C 1527.167969 427.667969 1620.332031 520.832031 1689 638.5 C 1757.667969 756.167969 1792 884.667969 1792 1024 Z M 1792 1024 " fill="white" />
</g>
</svg>
