<svg width="2048" height="2048" viewBox="-256 -384 2048 2048" xmlns="http://www.w3.org/2000/svg"><g transform="scale(1 -1) translate(0 -1280)"><path d="M1024 36q-42 241 -140 498h-2l-2 -1q-16 -6 -43 -16.5t-101 -49t-137 -82t-131 -114.5t-103 -148l-15 11q184 -150 418 -150q132 0 256 52zM839 643q-21 49 -53 111q-311 -93 -673 -93q-1 -7 -1 -21q0 -124 44 -236.5t124 -201.5q50 89 123.5 166.5t142.5 124.5t130.5 81 t99.5 48l37 13q4 1 13 3.5t13 4.5zM732 855q-120 213 -244 378q-138 -65 -234 -186t-128 -272q302 0 606 80zM1416 536q-210 60 -409 29q87 -239 128 -469q111 75 185 189.5t96 250.5zM611 1277q-1 0 -2 -1q1 1 2 1zM1201 1132q-185 164 -433 164q-76 0 -155 -19 q131 -170 246 -382q69 26 130 60.5t96.5 61.5t65.5 57t37.5 40.5zM1424 647q-3 232 -149 410l-1 -1q-9 -12 -19 -24.5t-43.5 -44.5t-71 -60.5t-100 -65t-131.5 -64.5q25 -53 44 -95q2 -6 6.5 -17.5t7.5 -16.5q36 5 74.5 7t73.5 2t69 -1.5t64 -4t56.5 -5.5t48 -6.5t36.5 -6 t25 -4.5zM1536 640q0 -209 -103 -385.5t-279.5 -279.5t-385.5 -103t-385.5 103t-279.5 279.5t-103 385.5t103 385.5t279.5 279.5t385.5 103t385.5 -103t279.5 -279.5t103 -385.5z" fill="white" /></g></svg>