<?xml version="1.0" encoding="UTF-8"?>
<svg xmlns="http://www.w3.org/2000/svg" xmlns:xlink="http://www.w3.org/1999/xlink" width="2048" height="2048" viewBox="0 0 2048 2048" version="1.1">
<g>
<path d="M 269 1107 L 979 397 C 991.667969 384.332031 1006.667969 378 1024 378 C 1041.332031 378 1056.332031 384.332031 1069 397 L 1779 1107 C 1791.667969 1119.667969 1796 1130.332031 1792 1139 C 1788 1147.667969 1777.332031 1152 1760 1152 L 288 1152 C 270.667969 1152 260 1147.667969 256 1139 C 252 1130.332031 256.332031 1119.667969 269 1107 Z M 1728 1664 L 320 1664 C 302.667969 1664 287.667969 1657.667969 275 1645 C 262.332031 1632.332031 256 1617.332031 256 1600 L 256 1344 C 256 1326.667969 262.332031 1311.667969 275 1299 C 287.667969 1286.332031 302.667969 1280 320 1280 L 1728 1280 C 1745.332031 1280 1760.332031 1286.332031 1773 1299 C 1785.667969 1311.667969 1792 1326.667969 1792 1344 L 1792 1600 C 1792 1617.332031 1785.667969 1632.332031 1773 1645 C 1760.332031 1657.667969 1745.332031 1664 1728 1664 Z M 1728 1664 " fill="white" />
</g>
</svg>
