<?xml version="1.0" encoding="UTF-8"?>
<svg xmlns="http://www.w3.org/2000/svg" xmlns:xlink="http://www.w3.org/1999/xlink" width="2048" height="2048" viewBox="0 0 2048 2048" version="1.1">
<g>
<path d="M 1216 1376 L 1216 1568 C 1216 1594.667969 1206.667969 1617.332031 1188 1636 C 1169.332031 1654.667969 1146.667969 1664 1120 1664 L 928 1664 C 901.332031 1664 878.667969 1654.667969 860 1636 C 841.332031 1617.332031 832 1594.667969 832 1568 L 832 1376 C 832 1349.332031 841.332031 1326.667969 860 1308 C 878.667969 1289.332031 901.332031 1280 928 1280 L 1120 1280 C 1146.667969 1280 1169.332031 1289.332031 1188 1308 C 1206.667969 1326.667969 1216 1349.332031 1216 1376 Z M 1216 864 L 1216 1056 C 1216 1082.667969 1206.667969 1105.332031 1188 1124 C 1169.332031 1142.667969 1146.667969 1152 1120 1152 L 928 1152 C 901.332031 1152 878.667969 1142.667969 860 1124 C 841.332031 1105.332031 832 1082.667969 832 1056 L 832 864 C 832 837.332031 841.332031 814.667969 860 796 C 878.667969 777.332031 901.332031 768 928 768 L 1120 768 C 1146.667969 768 1169.332031 777.332031 1188 796 C 1206.667969 814.667969 1216 837.332031 1216 864 Z M 1216 352 L 1216 544 C 1216 570.667969 1206.667969 593.332031 1188 612 C 1169.332031 630.667969 1146.667969 640 1120 640 L 928 640 C 901.332031 640 878.667969 630.667969 860 612 C 841.332031 593.332031 832 570.667969 832 544 L 832 352 C 832 325.332031 841.332031 302.667969 860 284 C 878.667969 265.332031 901.332031 256 928 256 L 1120 256 C 1146.667969 256 1169.332031 265.332031 1188 284 C 1206.667969 302.667969 1216 325.332031 1216 352 Z M 1216 352 " fill="white" />
</g>
</svg>
