<?xml version="1.0" encoding="UTF-8"?>
<svg xmlns="http://www.w3.org/2000/svg" xmlns:xlink="http://www.w3.org/1999/xlink" width="2048" height="2048" viewBox="0 0 2048 2048" version="1.1">
<g>
<path d="M 1792 1632 L 1792 864 C 1770.667969 888 1747.667969 910 1723 930 C 1544.332031 1067.332031 1402.332031 1180 1297 1268 C 1263 1296.667969 1235.332031 1319 1214 1335 C 1192.667969 1351 1163.832031 1367.167969 1127.5 1383.5 C 1091.167969 1399.832031 1057 1408 1025 1408 L 1023 1408 C 991 1408 956.832031 1399.832031 920.5 1383.5 C 884.167969 1367.167969 855.332031 1351 834 1335 C 812.667969 1319 785 1296.667969 751 1268 C 645.667969 1180 503.667969 1067.332031 325 930 C 300.332031 910 277.332031 888 256 864 L 256 1632 C 256 1640.667969 259.167969 1648.167969 265.5 1654.5 C 271.832031 1660.832031 279.332031 1664 288 1664 L 1760 1664 C 1768.667969 1664 1776.167969 1660.832031 1782.5 1654.5 C 1788.832031 1648.167969 1792 1640.667969 1792 1632 Z M 1792 581 L 1792 556.5 C 1792 556.5 1791.832031 552.167969 1791.5 543.5 C 1791.167969 534.832031 1790.167969 530.667969 1788.5 531 C 1786.832031 531.332031 1785 528.332031 1783 522 C 1781 515.667969 1778 513.167969 1774 514.5 C 1770 515.832031 1765.332031 515 1760 512 L 288 512 C 279.332031 512 271.832031 515.167969 265.5 521.5 C 259.167969 527.832031 256 535.332031 256 544 C 256 656 305 750.667969 403 828 C 531.667969 929.332031 665.332031 1035 804 1145 C 808 1148.332031 819.667969 1158.167969 839 1174.5 C 858.332031 1190.832031 873.667969 1203.332031 885 1212 C 896.332031 1220.667969 911.167969 1231.167969 929.5 1243.5 C 947.832031 1255.832031 964.667969 1265 980 1271 C 995.332031 1277 1009.667969 1280 1023 1280 L 1025 1280 C 1038.332031 1280 1052.667969 1277 1068 1271 C 1083.332031 1265 1100.167969 1255.832031 1118.5 1243.5 C 1136.832031 1231.167969 1151.667969 1220.667969 1163 1212 C 1174.332031 1203.332031 1189.667969 1190.832031 1209 1174.5 C 1228.332031 1158.167969 1240 1148.332031 1244 1145 C 1382.667969 1035 1516.332031 929.332031 1645 828 C 1681 799.332031 1714.5 760.832031 1745.5 712.5 C 1776.5 664.167969 1792 620.332031 1792 581 Z M 1920 544 L 1920 1632 C 1920 1676 1904.332031 1713.667969 1873 1745 C 1841.667969 1776.332031 1804 1792 1760 1792 L 288 1792 C 244 1792 206.332031 1776.332031 175 1745 C 143.667969 1713.667969 128 1676 128 1632 L 128 544 C 128 500 143.667969 462.332031 175 431 C 206.332031 399.667969 244 384 288 384 L 1760 384 C 1804 384 1841.667969 399.667969 1873 431 C 1904.332031 462.332031 1920 500 1920 544 Z M 1920 544 " fill="white" />
</g>
</svg>
