<?xml version="1.0" encoding="UTF-8"?>
<svg xmlns="http://www.w3.org/2000/svg" xmlns:xlink="http://www.w3.org/1999/xlink" width="2048" height="2048" viewBox="0 0 2048 2048" version="1.1">
<g>
<path d="M 1920 838 L 1920 1632 C 1920 1676 1904.332031 1713.667969 1873 1745 C 1841.667969 1776.332031 1804 1792 1760 1792 L 288 1792 C 244 1792 206.332031 1776.332031 175 1745 C 143.667969 1713.667969 128 1676 128 1632 L 128 838 C 157.332031 870.667969 191 899.667969 229 925 C 470.332031 1089 636 1204 726 1270 C 764 1298 794.832031 1319.832031 818.5 1335.5 C 842.167969 1351.167969 873.667969 1367.167969 913 1383.5 C 952.332031 1399.832031 989 1408 1023 1408 L 1025 1408 C 1059 1408 1095.667969 1399.832031 1135 1383.5 C 1174.332031 1367.167969 1205.832031 1351.167969 1229.5 1335.5 C 1253.167969 1319.832031 1284 1298 1322 1270 C 1435.332031 1188 1601.332031 1073 1820 925 C 1858 899 1891.332031 870 1920 838 Z M 1920 544 C 1920 596.667969 1903.667969 647 1871 695 C 1838.332031 743 1797.667969 784 1749 818 C 1498.332031 992 1342.332031 1100.332031 1281 1143 C 1274.332031 1147.667969 1260.167969 1157.832031 1238.5 1173.5 C 1216.832031 1189.167969 1198.832031 1201.832031 1184.5 1211.5 C 1170.167969 1221.167969 1152.832031 1232 1132.5 1244 C 1112.167969 1256 1093 1265 1075 1271 C 1057 1277 1040.332031 1280 1025 1280 L 1023 1280 C 1007.667969 1280 991 1277 973 1271 C 955 1265 935.832031 1256 915.5 1244 C 895.167969 1232 877.832031 1221.167969 863.5 1211.5 C 849.167969 1201.832031 831.167969 1189.167969 809.5 1173.5 C 787.832031 1157.832031 773.667969 1147.667969 767 1143 C 706.332031 1100.332031 619 1039.5 505 960.5 C 391 881.5 322.667969 834 300 818 C 258.667969 790 219.667969 751.5 183 702.5 C 146.332031 653.5 128 608 128 566 C 128 514 141.832031 470.667969 169.5 436 C 197.167969 401.332031 236.667969 384 288 384 L 1760 384 C 1803.332031 384 1840.832031 399.667969 1872.5 431 C 1904.167969 462.332031 1920 500 1920 544 Z M 1920 544 " fill="white" />
</g>
</svg>
