<?xml version="1.0" encoding="UTF-8"?>
<svg xmlns="http://www.w3.org/2000/svg" xmlns:xlink="http://www.w3.org/1999/xlink" width="2048" height="2048" viewBox="0 0 2048 2048" version="1.1">
<g>
<path d="M 960 1536 L 1296 1152 L 528 1152 L 192 1536 Z M 1973 459 C 1983 481.667969 1986.167969 505.5 1982.5 530.5 C 1978.832031 555.5 1968.667969 577.332031 1952 596 L 1056 1620 C 1030.667969 1649.332031 998.667969 1664 960 1664 L 192 1664 C 166.667969 1664 143.5 1657.167969 122.5 1643.5 C 101.5 1629.832031 85.667969 1611.667969 75 1589 C 65 1566.332031 61.832031 1542.5 65.5 1517.5 C 69.167969 1492.5 79.332031 1470.667969 96 1452 L 992 428 C 1017.332031 398.667969 1049.332031 384 1088 384 L 1856 384 C 1881.332031 384 1904.5 390.832031 1925.5 404.5 C 1946.5 418.167969 1962.332031 436.332031 1973 459 Z M 1973 459 " fill="white" />
</g>
</svg>
