<svg width="2048" height="2048" viewBox="-128 -384 2048 2048" xmlns="http://www.w3.org/2000/svg"><g transform="scale(1 -1) translate(0 -1280)"><path d="M1792 352v-192q0 -13 -9.5 -22.5t-22.5 -9.5h-1376v-192q0 -13 -9.5 -22.5t-22.5 -9.5q-12 0 -24 10l-319 320q-9 9 -9 22q0 14 9 23l320 320q9 9 23 9q13 0 22.5 -9.5t9.5 -22.5v-192h1376q13 0 22.5 -9.5t9.5 -22.5zM1792 896q0 -14 -9 -23l-320 -320q-9 -9 -23 -9 q-13 0 -22.5 9.5t-9.5 22.5v192h-1376q-13 0 -22.5 9.5t-9.5 22.5v192q0 13 9.5 22.5t22.5 9.5h1376v192q0 14 9 23t23 9q12 0 24 -10l319 -319q9 -9 9 -23z" fill="white" /></g></svg>