<?xml version="1.0" encoding="UTF-8"?>
<svg xmlns="http://www.w3.org/2000/svg" xmlns:xlink="http://www.w3.org/1999/xlink" width="2048" height="2048" viewBox="0 0 2048 2048" version="1.1">
<g>
<path d="M 1920 1312 L 1920 1504 C 1920 1512.667969 1916.832031 1520.167969 1910.5 1526.5 C 1904.167969 1532.832031 1896.667969 1536 1888 1536 L 512 1536 L 512 1728 C 512 1736.667969 508.832031 1744.167969 502.5 1750.5 C 496.167969 1756.832031 488.667969 1760 480 1760 C 472 1760 464 1756.667969 456 1750 L 137 1430 C 131 1424 128 1416.667969 128 1408 C 128 1398.667969 131 1391 137 1385 L 457 1065 C 463 1059 470.667969 1056 480 1056 C 488.667969 1056 496.167969 1059.167969 502.5 1065.5 C 508.832031 1071.832031 512 1079.332031 512 1088 L 512 1280 L 1888 1280 C 1896.667969 1280 1904.167969 1283.167969 1910.5 1289.5 C 1916.832031 1295.832031 1920 1303.332031 1920 1312 Z M 1920 768 C 1920 777.332031 1917 785 1911 791 L 1591 1111 C 1585 1117 1577.332031 1120 1568 1120 C 1559.332031 1120 1551.832031 1116.832031 1545.5 1110.5 C 1539.167969 1104.167969 1536 1096.667969 1536 1088 L 1536 896 L 160 896 C 151.332031 896 143.832031 892.832031 137.5 886.5 C 131.167969 880.167969 128 872.667969 128 864 L 128 672 C 128 663.332031 131.167969 655.832031 137.5 649.5 C 143.832031 643.167969 151.332031 640 160 640 L 1536 640 L 1536 448 C 1536 438.667969 1539 431 1545 425 C 1551 419 1558.667969 416 1568 416 C 1576 416 1584 419.332031 1592 426 L 1911 745 C 1917 751 1920 758.667969 1920 768 Z M 1920 768 " fill="white" />
</g>
</svg>
