<?xml version="1.0" encoding="UTF-8"?>
<svg xmlns="http://www.w3.org/2000/svg" xmlns:xlink="http://www.w3.org/1999/xlink" width="2048" height="2048" viewBox="0 0 2048 2048" version="1.1">
<g>
<path d="M 1011 1184 C 1011 1192.667969 1007.667969 1200.332031 1001 1207 L 669 1539 L 813 1683 C 825.667969 1695.667969 832 1710.667969 832 1728 C 832 1745.332031 825.667969 1760.332031 813 1773 C 800.332031 1785.667969 785.332031 1792 768 1792 L 320 1792 C 302.667969 1792 287.667969 1785.667969 275 1773 C 262.332031 1760.332031 256 1745.332031 256 1728 L 256 1280 C 256 1262.667969 262.332031 1247.667969 275 1235 C 287.667969 1222.332031 302.667969 1216 320 1216 C 337.332031 1216 352.332031 1222.332031 365 1235 L 509 1379 L 841 1047 C 847.667969 1040.332031 855.332031 1037 864 1037 C 872.667969 1037 880.332031 1040.332031 887 1047 L 1001 1161 C 1007.667969 1167.667969 1011 1175.332031 1011 1184 Z M 1792 320 L 1792 768 C 1792 785.332031 1785.667969 800.332031 1773 813 C 1760.332031 825.667969 1745.332031 832 1728 832 C 1710.667969 832 1695.667969 825.667969 1683 813 L 1539 669 L 1207 1001 C 1200.332031 1007.667969 1192.667969 1011 1184 1011 C 1175.332031 1011 1167.667969 1007.667969 1161 1001 L 1047 887 C 1040.332031 880.332031 1037 872.667969 1037 864 C 1037 855.332031 1040.332031 847.667969 1047 841 L 1379 509 L 1235 365 C 1222.332031 352.332031 1216 337.332031 1216 320 C 1216 302.667969 1222.332031 287.667969 1235 275 C 1247.667969 262.332031 1262.667969 256 1280 256 L 1728 256 C 1745.332031 256 1760.332031 262.332031 1773 275 C 1785.667969 287.667969 1792 302.667969 1792 320 Z M 1792 320 " fill="white" />
</g>
</svg>
