<?xml version="1.0" encoding="UTF-8"?>
<svg xmlns="http://www.w3.org/2000/svg" xmlns:xlink="http://www.w3.org/1999/xlink" width="2048" height="2048" viewBox="0 0 2048 2048" version="1.1">
<g>
<path d="M 1536 1056 L 1536 576 C 1536 558.667969 1529.667969 543.667969 1517 531 C 1504.332031 518.332031 1489.332031 512 1472 512 L 992 512 C 964 512 944.332031 525 933 551 C 921.667969 578.332031 926.332031 601.667969 947 621 L 1091 765 L 557 1299 C 544.332031 1311.667969 538 1326.667969 538 1344 C 538 1361.332031 544.332031 1376.332031 557 1389 L 659 1491 C 671.667969 1503.667969 686.667969 1510 704 1510 C 721.332031 1510 736.332031 1503.667969 749 1491 L 1283 957 L 1427 1101 C 1439 1113.667969 1454 1120 1472 1120 C 1480 1120 1488.332031 1118.332031 1497 1115 C 1523 1103.667969 1536 1084 1536 1056 Z M 1792 544 L 1792 1504 C 1792 1583.332031 1763.832031 1651.167969 1707.5 1707.5 C 1651.167969 1763.832031 1583.332031 1792 1504 1792 L 544 1792 C 464.667969 1792 396.832031 1763.832031 340.5 1707.5 C 284.167969 1651.167969 256 1583.332031 256 1504 L 256 544 C 256 464.667969 284.167969 396.832031 340.5 340.5 C 396.832031 284.167969 464.667969 256 544 256 L 1504 256 C 1583.332031 256 1651.167969 284.167969 1707.5 340.5 C 1763.832031 396.832031 1792 464.667969 1792 544 Z M 1792 544 " fill="white" />
</g>
</svg>
