<svg width="2048" height="2048" viewBox="-256 -384 2048 2048" xmlns="http://www.w3.org/2000/svg"><g transform="scale(1 -1) translate(0 -1280)"><path d="M1280 608v480q0 26 -19 45t-45 19h-480q-42 0 -59 -39q-17 -41 14 -70l144 -144l-534 -534q-19 -19 -19 -45t19 -45l102 -102q19 -19 45 -19t45 19l534 534l144 -144q18 -19 45 -19q12 0 25 5q39 17 39 59zM1536 1120v-960q0 -119 -84.5 -203.5t-203.5 -84.5h-960 q-119 0 -203.5 84.5t-84.5 203.5v960q0 119 84.5 203.5t203.5 84.5h960q119 0 203.5 -84.5t84.5 -203.5z" fill="white" /></g></svg>