<?xml version="1.0" encoding="UTF-8"?>
<svg xmlns="http://www.w3.org/2000/svg" xmlns:xlink="http://www.w3.org/1999/xlink" width="2048" height="2048" viewBox="0 0 2048 2048" version="1.1">
<g>
<path d="M 1536 1056 L 1536 1376 C 1536 1455.332031 1507.832031 1523.167969 1451.5 1579.5 C 1395.167969 1635.832031 1327.332031 1664 1248 1664 L 416 1664 C 336.667969 1664 268.832031 1635.832031 212.5 1579.5 C 156.167969 1523.167969 128 1455.332031 128 1376 L 128 544 C 128 464.667969 156.167969 396.832031 212.5 340.5 C 268.832031 284.167969 336.667969 256 416 256 L 1120 256 C 1129.332031 256 1137 259 1143 265 C 1149 271 1152 278.667969 1152 288 L 1152 352 C 1152 361.332031 1149 369 1143 375 C 1137 381 1129.332031 384 1120 384 L 416 384 C 372 384 334.332031 399.667969 303 431 C 271.667969 462.332031 256 500 256 544 L 256 1376 C 256 1420 271.667969 1457.667969 303 1489 C 334.332031 1520.332031 372 1536 416 1536 L 1248 1536 C 1292 1536 1329.667969 1520.332031 1361 1489 C 1392.332031 1457.667969 1408 1420 1408 1376 L 1408 1056 C 1408 1046.667969 1411 1039 1417 1033 C 1423 1027 1430.667969 1024 1440 1024 L 1504 1024 C 1513.332031 1024 1521 1027 1527 1033 C 1533 1039 1536 1046.667969 1536 1056 Z M 1920 192 L 1920 704 C 1920 721.332031 1913.667969 736.332031 1901 749 C 1888.332031 761.667969 1873.332031 768 1856 768 C 1838.667969 768 1823.667969 761.667969 1811 749 L 1635 573 L 983 1225 C 976.332031 1231.667969 968.667969 1235 960 1235 C 951.332031 1235 943.667969 1231.667969 937 1225 L 823 1111 C 816.332031 1104.332031 813 1096.667969 813 1088 C 813 1079.332031 816.332031 1071.667969 823 1065 L 1475 413 L 1299 237 C 1286.332031 224.332031 1280 209.332031 1280 192 C 1280 174.667969 1286.332031 159.667969 1299 147 C 1311.667969 134.332031 1326.667969 128 1344 128 L 1856 128 C 1873.332031 128 1888.332031 134.332031 1901 147 C 1913.667969 159.667969 1920 174.667969 1920 192 Z M 1920 192 " fill="white" />
</g>
</svg>
