<?xml version="1.0" encoding="UTF-8"?>
<svg xmlns="http://www.w3.org/2000/svg" xmlns:xlink="http://www.w3.org/1999/xlink" width="2048" height="2048" viewBox="0 0 2048 2048" version="1.1">
<g>
<path d="M 1563 1046 L 1586 827 L 1388 827 L 1388 718 C 1388 685.332031 1393.167969 662.5 1403.5 649.5 C 1413.832031 636.5 1437.667969 630 1475 630 L 1585 630 L 1585 411 L 1410 411 C 1308.667969 411 1236 435 1192 483 C 1148 531 1126 602 1126 696 L 1126 827 L 995 827 L 995 1046 L 1126 1046 L 1126 1681 L 1388 1681 L 1388 1046 Z M 1792 544 L 1792 1504 C 1792 1583.332031 1763.832031 1651.167969 1707.5 1707.5 C 1651.167969 1763.832031 1583.332031 1792 1504 1792 L 544 1792 C 464.667969 1792 396.832031 1763.832031 340.5 1707.5 C 284.167969 1651.167969 256 1583.332031 256 1504 L 256 544 C 256 464.667969 284.167969 396.832031 340.5 340.5 C 396.832031 284.167969 464.667969 256 544 256 L 1504 256 C 1583.332031 256 1651.167969 284.167969 1707.5 340.5 C 1763.832031 396.832031 1792 464.667969 1792 544 Z M 1792 544 " fill="white" />
</g>
</svg>
