<?xml version="1.0" encoding="UTF-8"?>
<svg xmlns="http://www.w3.org/2000/svg" xmlns:xlink="http://www.w3.org/1999/xlink" width="2048" height="2048" viewBox="0 0 2048 2048" version="1.1">
<g>
<path d="M 1151 684 L 1408 684 L 1378 968 L 1151 968 L 1151 1792 L 810 1792 L 810 968 L 640 968 L 640 684 L 810 684 L 810 513 C 810 391.667969 838.667969 299.832031 896 237.5 C 953.332031 175.167969 1047.667969 144 1179 144 L 1406 144 L 1406 428 L 1264 428 C 1238 428 1217.167969 430.167969 1201.5 434.5 C 1185.832031 438.832031 1174.5 446.667969 1167.5 458 C 1160.5 469.332031 1156 480.832031 1154 492.5 C 1152 504.167969 1151 520.667969 1151 542 Z M 1151 684 " fill="white" />
</g>
</svg>
