<?xml version="1.0" encoding="UTF-8"?>
<svg xmlns="http://www.w3.org/2000/svg" xmlns:xlink="http://www.w3.org/1999/xlink" width="2048" height="2048" viewBox="0 0 2048 2048" version="1.1">
<g>
<path d="M 1664 1184 C 1664 1210.667969 1654.667969 1233.332031 1636 1252 C 1617.332031 1270.667969 1594.667969 1280 1568 1280 C 1534 1280 1507.332031 1265.667969 1488 1237 L 1261 896 L 1216 896 L 1216 1028 L 1463 1439 C 1469 1449 1472 1460 1472 1472 C 1472 1489.332031 1465.667969 1504.332031 1453 1517 C 1440.332031 1529.667969 1425.332031 1536 1408 1536 L 1216 1536 L 1216 1808 C 1216 1838.667969 1205 1865 1183 1887 C 1161 1909 1134.667969 1920 1104 1920 L 944 1920 C 913.332031 1920 887 1909 865 1887 C 843 1865 832 1838.667969 832 1808 L 832 1536 L 640 1536 C 622.667969 1536 607.667969 1529.667969 595 1517 C 582.332031 1504.332031 576 1489.332031 576 1472 C 576 1460 579 1449 585 1439 L 832 1028 L 832 896 L 787 896 L 560 1237 C 540.667969 1265.667969 514 1280 480 1280 C 453.332031 1280 430.667969 1270.667969 412 1252 C 393.332031 1233.332031 384 1210.667969 384 1184 C 384 1164.667969 389.332031 1147 400 1131 L 656 747 C 704.667969 675.667969 763.332031 640 832 640 L 1216 640 C 1284.667969 640 1343.332031 675.667969 1392 747 L 1648 1131 C 1658.667969 1147 1664 1164.667969 1664 1184 Z M 1248 384 C 1248 446 1226.167969 498.832031 1182.5 542.5 C 1138.832031 586.167969 1086 608 1024 608 C 962 608 909.167969 586.167969 865.5 542.5 C 821.832031 498.832031 800 446 800 384 C 800 322 821.832031 269.167969 865.5 225.5 C 909.167969 181.832031 962 160 1024 160 C 1086 160 1138.832031 181.832031 1182.5 225.5 C 1226.167969 269.167969 1248 322 1248 384 Z M 1248 384 " fill="white" />
</g>
</svg>
