<?xml version="1.0" encoding="UTF-8"?>
<svg xmlns="http://www.w3.org/2000/svg" xmlns:xlink="http://www.w3.org/1999/xlink" width="2048" height="2048" viewBox="0 0 2048 2048" version="1.1">
<g>
<path d="M 1984 1088 C 1983.332031 1109.332031 1887.332031 1141.332031 1696 1184 L 1344 1216 L 1120 1280 L 1056 1280 L 763 1632 L 832 1632 C 849.332031 1632 864.332031 1633.5 877 1636.5 C 889.667969 1639.5 896 1643.332031 896 1648 C 896 1652.667969 889.667969 1656.5 877 1659.5 C 864.332031 1662.5 849.332031 1664 832 1664 L 512 1664 L 512 1632 L 576 1632 L 576 1216 L 416 1216 L 224 1440 L 128 1440 L 96 1408 L 96 1216 L 128 1216 L 128 1184 L 256 1184 L 256 1176 L 64 1152 L 64 1024 L 256 1000 L 256 992 L 128 992 L 128 960 L 96 960 L 96 768 L 128 736 L 224 736 L 416 960 L 576 960 L 576 544 L 512 544 L 512 512 L 832 512 C 849.332031 512 864.332031 513.5 877 516.5 C 889.667969 519.5 896 523.332031 896 528 C 896 532.667969 889.667969 536.5 877 539.5 C 864.332031 542.5 849.332031 544 832 544 L 763 544 L 1056 896 L 1120 896 L 1344 960 L 1696 992 C 1870 1030.667969 1965.667969 1061.667969 1983 1085 Z M 1984 1088 " fill="white" />
</g>
</svg>
