<svg width="2048" height="2048" viewBox="-64 -384 2048 2048" xmlns="http://www.w3.org/2000/svg"><g transform="scale(1 -1) translate(0 -1280)"><path d="M1920 576q-1 -32 -288 -96l-352 -32l-224 -64h-64l-293 -352h69q26 0 45 -4.5t19 -11.5t-19 -11.5t-45 -4.5h-96h-160h-64v32h64v416h-160l-192 -224h-96l-32 32v192h32v32h128v8l-192 24v128l192 24v8h-128v32h-32v192l32 32h96l192 -224h160v416h-64v32h64h160h96 q26 0 45 -4.5t19 -11.5t-19 -11.5t-45 -4.5h-69l293 -352h64l224 -64l352 -32q261 -58 287 -93z" fill="white" /></g></svg>