<svg width="2048" height="2048" viewBox="-128 -384 2048 2048" xmlns="http://www.w3.org/2000/svg"><g transform="scale(1 -1) translate(0 -1280)"><path d="M1696 1152q40 0 68 -28t28 -68v-1216q0 -40 -28 -68t-68 -28h-960q-40 0 -68 28t-28 68v288h-544q-40 0 -68 28t-28 68v672q0 40 20 88t48 76l408 408q28 28 76 48t88 20h416q40 0 68 -28t28 -68v-328q68 40 128 40h416zM1152 939l-299 -299h299v299zM512 1323l-299 -299 h299v299zM708 676l316 316v416h-384v-416q0 -40 -28 -68t-68 -28h-416v-640h512v256q0 40 20 88t48 76zM1664 -128v1152h-384v-416q0 -40 -28 -68t-68 -28h-416v-640h896z" fill="white" /></g></svg>