<svg width="2048" height="2048" viewBox="-384 -384 2048 2048" xmlns="http://www.w3.org/2000/svg"><g transform="scale(1 -1) translate(0 -1280)"><path d="M1024 352v-64q0 -14 -9 -23t-23 -9h-704q-14 0 -23 9t-9 23v64q0 14 9 23t23 9h704q14 0 23 -9t9 -23zM1024 608v-64q0 -14 -9 -23t-23 -9h-704q-14 0 -23 9t-9 23v64q0 14 9 23t23 9h704q14 0 23 -9t9 -23zM128 0h1024v768h-416q-40 0 -68 28t-28 68v416h-512v-1280z M768 896h376q-10 29 -22 41l-313 313q-12 12 -41 22v-376zM1280 864v-896q0 -40 -28 -68t-68 -28h-1088q-40 0 -68 28t-28 68v1344q0 40 28 68t68 28h640q40 0 88 -20t76 -48l312 -312q28 -28 48 -76t20 -88z" fill="white" /></g></svg>