<?xml version="1.0" encoding="UTF-8"?>
<svg xmlns="http://www.w3.org/2000/svg" xmlns:xlink="http://www.w3.org/1999/xlink" width="2048" height="2048" viewBox="0 0 2048 2048" version="1.1">
<g>
<path d="M 1664 896 L 1664 1696 C 1664 1722.667969 1654.667969 1745.332031 1636 1764 C 1617.332031 1782.667969 1594.667969 1792 1568 1792 L 480 1792 C 453.332031 1792 430.667969 1782.667969 412 1764 C 393.332031 1745.332031 384 1722.667969 384 1696 L 384 352 C 384 325.332031 393.332031 302.667969 412 284 C 430.667969 265.332031 453.332031 256 480 256 L 1024 256 L 1024 800 C 1024 826.667969 1033.332031 849.332031 1052 868 C 1070.667969 886.667969 1093.332031 896 1120 896 Z M 1661 768 L 1152 768 L 1152 259 C 1206.667969 269 1250.667969 290.667969 1284 324 L 1596 636 C 1629.332031 669.332031 1651 713.332031 1661 768 Z M 1661 768 " fill="white" />
</g>
</svg>
