<?xml version="1.0" encoding="UTF-8"?>
<svg xmlns="http://www.w3.org/2000/svg" xmlns:xlink="http://www.w3.org/1999/xlink" width="2048" height="2048" viewBox="0 0 2048 2048" version="1.1">
<g>
<path d="M 1824 512 C 1850.667969 512 1873.332031 521.332031 1892 540 C 1910.667969 558.667969 1920 581.332031 1920 608 L 1920 1824 C 1920 1850.667969 1910.667969 1873.332031 1892 1892 C 1873.332031 1910.667969 1850.667969 1920 1824 1920 L 864 1920 C 837.332031 1920 814.667969 1910.667969 796 1892 C 777.332031 1873.332031 768 1850.667969 768 1824 L 768 1536 L 224 1536 C 197.332031 1536 174.667969 1526.667969 156 1508 C 137.332031 1489.332031 128 1466.667969 128 1440 L 128 768 C 128 741.332031 134.667969 712 148 680 C 161.332031 648 177.332031 622.667969 196 604 L 604 196 C 622.667969 177.332031 648 161.332031 680 148 C 712 134.667969 741.332031 128 768 128 L 1184 128 C 1210.667969 128 1233.332031 137.332031 1252 156 C 1270.667969 174.667969 1280 197.332031 1280 224 L 1280 552 C 1325.332031 525.332031 1368 512 1408 512 Z M 1280 725 L 981 1024 L 1280 1024 Z M 640 341 L 341 640 L 640 640 Z M 836 988 L 1152 672 L 1152 256 L 768 256 L 768 672 C 768 698.667969 758.667969 721.332031 740 740 C 721.332031 758.667969 698.667969 768 672 768 L 256 768 L 256 1408 L 768 1408 L 768 1152 C 768 1125.332031 774.667969 1096 788 1064 C 801.332031 1032 817.332031 1006.667969 836 988 Z M 1792 1792 L 1792 640 L 1408 640 L 1408 1056 C 1408 1082.667969 1398.667969 1105.332031 1380 1124 C 1361.332031 1142.667969 1338.667969 1152 1312 1152 L 896 1152 L 896 1792 Z M 1792 1792 " fill="white" />
</g>
</svg>
