<?xml version="1.0" encoding="UTF-8"?>
<svg xmlns="http://www.w3.org/2000/svg" xmlns:xlink="http://www.w3.org/1999/xlink" width="2048" height="2048" viewBox="0 0 2048 2048" version="1.1">
<g>
<path d="M 448 1728 L 448 1600 C 448 1582.667969 441.667969 1567.667969 429 1555 C 416.332031 1542.332031 401.332031 1536 384 1536 L 256 1536 C 238.667969 1536 223.667969 1542.332031 211 1555 C 198.332031 1567.667969 192 1582.667969 192 1600 L 192 1728 C 192 1745.332031 198.332031 1760.332031 211 1773 C 223.667969 1785.667969 238.667969 1792 256 1792 L 384 1792 C 401.332031 1792 416.332031 1785.667969 429 1773 C 441.667969 1760.332031 448 1745.332031 448 1728 Z M 448 1344 L 448 1216 C 448 1198.667969 441.667969 1183.667969 429 1171 C 416.332031 1158.332031 401.332031 1152 384 1152 L 256 1152 C 238.667969 1152 223.667969 1158.332031 211 1171 C 198.332031 1183.667969 192 1198.667969 192 1216 L 192 1344 C 192 1361.332031 198.332031 1376.332031 211 1389 C 223.667969 1401.667969 238.667969 1408 256 1408 L 384 1408 C 401.332031 1408 416.332031 1401.667969 429 1389 C 441.667969 1376.332031 448 1361.332031 448 1344 Z M 448 960 L 448 832 C 448 814.667969 441.667969 799.667969 429 787 C 416.332031 774.332031 401.332031 768 384 768 L 256 768 C 238.667969 768 223.667969 774.332031 211 787 C 198.332031 799.667969 192 814.667969 192 832 L 192 960 C 192 977.332031 198.332031 992.332031 211 1005 C 223.667969 1017.667969 238.667969 1024 256 1024 L 384 1024 C 401.332031 1024 416.332031 1017.667969 429 1005 C 441.667969 992.332031 448 977.332031 448 960 Z M 1472 1728 L 1472 1216 C 1472 1198.667969 1465.667969 1183.667969 1453 1171 C 1440.332031 1158.332031 1425.332031 1152 1408 1152 L 640 1152 C 622.667969 1152 607.667969 1158.332031 595 1171 C 582.332031 1183.667969 576 1198.667969 576 1216 L 576 1728 C 576 1745.332031 582.332031 1760.332031 595 1773 C 607.667969 1785.667969 622.667969 1792 640 1792 L 1408 1792 C 1425.332031 1792 1440.332031 1785.667969 1453 1773 C 1465.667969 1760.332031 1472 1745.332031 1472 1728 Z M 448 576 L 448 448 C 448 430.667969 441.667969 415.667969 429 403 C 416.332031 390.332031 401.332031 384 384 384 L 256 384 C 238.667969 384 223.667969 390.332031 211 403 C 198.332031 415.667969 192 430.667969 192 448 L 192 576 C 192 593.332031 198.332031 608.332031 211 621 C 223.667969 633.667969 238.667969 640 256 640 L 384 640 C 401.332031 640 416.332031 633.667969 429 621 C 441.667969 608.332031 448 593.332031 448 576 Z M 1856 1728 L 1856 1600 C 1856 1582.667969 1849.667969 1567.667969 1837 1555 C 1824.332031 1542.332031 1809.332031 1536 1792 1536 L 1664 1536 C 1646.667969 1536 1631.667969 1542.332031 1619 1555 C 1606.332031 1567.667969 1600 1582.667969 1600 1600 L 1600 1728 C 1600 1745.332031 1606.332031 1760.332031 1619 1773 C 1631.667969 1785.667969 1646.667969 1792 1664 1792 L 1792 1792 C 1809.332031 1792 1824.332031 1785.667969 1837 1773 C 1849.667969 1760.332031 1856 1745.332031 1856 1728 Z M 1472 960 L 1472 448 C 1472 430.667969 1465.667969 415.667969 1453 403 C 1440.332031 390.332031 1425.332031 384 1408 384 L 640 384 C 622.667969 384 607.667969 390.332031 595 403 C 582.332031 415.667969 576 430.667969 576 448 L 576 960 C 576 977.332031 582.332031 992.332031 595 1005 C 607.667969 1017.667969 622.667969 1024 640 1024 L 1408 1024 C 1425.332031 1024 1440.332031 1017.667969 1453 1005 C 1465.667969 992.332031 1472 977.332031 1472 960 Z M 1856 1344 L 1856 1216 C 1856 1198.667969 1849.667969 1183.667969 1837 1171 C 1824.332031 1158.332031 1809.332031 1152 1792 1152 L 1664 1152 C 1646.667969 1152 1631.667969 1158.332031 1619 1171 C 1606.332031 1183.667969 1600 1198.667969 1600 1216 L 1600 1344 C 1600 1361.332031 1606.332031 1376.332031 1619 1389 C 1631.667969 1401.667969 1646.667969 1408 1664 1408 L 1792 1408 C 1809.332031 1408 1824.332031 1401.667969 1837 1389 C 1849.667969 1376.332031 1856 1361.332031 1856 1344 Z M 1856 960 L 1856 832 C 1856 814.667969 1849.667969 799.667969 1837 787 C 1824.332031 774.332031 1809.332031 768 1792 768 L 1664 768 C 1646.667969 768 1631.667969 774.332031 1619 787 C 1606.332031 799.667969 1600 814.667969 1600 832 L 1600 960 C 1600 977.332031 1606.332031 992.332031 1619 1005 C 1631.667969 1017.667969 1646.667969 1024 1664 1024 L 1792 1024 C 1809.332031 1024 1824.332031 1017.667969 1837 1005 C 1849.667969 992.332031 1856 977.332031 1856 960 Z M 1856 576 L 1856 448 C 1856 430.667969 1849.667969 415.667969 1837 403 C 1824.332031 390.332031 1809.332031 384 1792 384 L 1664 384 C 1646.667969 384 1631.667969 390.332031 1619 403 C 1606.332031 415.667969 1600 430.667969 1600 448 L 1600 576 C 1600 593.332031 1606.332031 608.332031 1619 621 C 1631.667969 633.667969 1646.667969 640 1664 640 L 1792 640 C 1809.332031 640 1824.332031 633.667969 1837 621 C 1849.667969 608.332031 1856 593.332031 1856 576 Z M 1984 416 L 1984 1760 C 1984 1804 1968.332031 1841.667969 1937 1873 C 1905.667969 1904.332031 1868 1920 1824 1920 L 224 1920 C 180 1920 142.332031 1904.332031 111 1873 C 79.667969 1841.667969 64 1804 64 1760 L 64 416 C 64 372 79.667969 334.332031 111 303 C 142.332031 271.667969 180 256 224 256 L 1824 256 C 1868 256 1905.667969 271.667969 1937 303 C 1968.332031 334.332031 1984 372 1984 416 Z M 1984 416 " fill="white" />
</g>
</svg>
