<?xml version="1.0" encoding="UTF-8"?>
<svg xmlns="http://www.w3.org/2000/svg" xmlns:xlink="http://www.w3.org/1999/xlink" width="2048" height="2048" viewBox="0 0 2048 2048" version="1.1">
<g>
<path d="M 1723 423 C 1734.332031 450.332031 1729.667969 473.667969 1709 493 L 1216 986 L 1216 1728 C 1216 1756 1203 1775.667969 1177 1787 C 1168.332031 1790.332031 1160 1792 1152 1792 C 1134 1792 1119 1785.667969 1107 1773 L 851 1517 C 838.332031 1504.332031 832 1489.332031 832 1472 L 832 986 L 339 493 C 318.332031 473.667969 313.667969 450.332031 325 423 C 336.332031 397 356 384 384 384 L 1664 384 C 1692 384 1711.667969 397 1723 423 Z M 1723 423 " fill="white" />
</g>
</svg>
