<svg width="2048" height="2048" viewBox="-320 -384 2048 2048" xmlns="http://www.w3.org/2000/svg"><g transform="scale(1 -1) translate(0 -1280)"><path d="M1408 -160v-64q0 -13 -9.5 -22.5t-22.5 -9.5h-1344q-13 0 -22.5 9.5t-9.5 22.5v64q0 13 9.5 22.5t22.5 9.5h1344q13 0 22.5 -9.5t9.5 -22.5zM1152 896q0 -78 -24.5 -144t-64 -112.5t-87.5 -88t-96 -77.5t-87.5 -72t-64 -81.5t-24.5 -96.5q0 -96 67 -224l-4 1l1 -1 q-90 41 -160 83t-138.5 100t-113.5 122.5t-72.5 150.5t-27.5 184q0 78 24.5 144t64 112.5t87.5 88t96 77.5t87.5 72t64 81.5t24.5 96.5q0 94 -66 224l3 -1l-1 1q90 -41 160 -83t138.5 -100t113.5 -122.5t72.5 -150.5t27.5 -184z" fill="white" /></g></svg>