<?xml version="1.0" encoding="UTF-8"?>
<svg xmlns="http://www.w3.org/2000/svg" xmlns:xlink="http://www.w3.org/1999/xlink" width="2048" height="2048" viewBox="0 0 2048 2048" version="1.1">
<g>
<path d="M 832 320 C 832 302.667969 825.667969 287.667969 813 275 C 800.332031 262.332031 785.332031 256 768 256 C 750.667969 256 735.667969 262.332031 723 275 C 710.332031 287.667969 704 302.667969 704 320 C 704 337.332031 710.332031 352.332031 723 365 C 735.667969 377.667969 750.667969 384 768 384 C 785.332031 384 800.332031 377.667969 813 365 C 825.667969 352.332031 832 337.332031 832 320 Z M 1728 288 L 1728 608 C 1728 618.667969 1724 627 1716 633 C 1710.667969 637.667969 1704 640 1696 640 C 1693.332031 640 1691 639.667969 1689 639 L 1241 543 C 1233.667969 541.667969 1227.667969 538 1223 532 C 1218.332031 526 1216 519.332031 1216 512 L 960 512 L 960 614 C 1034 629.332031 1095.167969 666.332031 1143.5 725 C 1191.832031 783.667969 1216 851.332031 1216 928 L 1216 1728 C 1216 1745.332031 1209.667969 1760.332031 1197 1773 C 1184.332031 1785.667969 1169.332031 1792 1152 1792 L 640 1792 C 622.667969 1792 607.667969 1785.667969 595 1773 C 582.332031 1760.332031 576 1745.332031 576 1728 L 576 928 C 576 857.332031 596.832031 793.832031 638.5 737.5 C 680.167969 681.167969 734 643 800 623 L 800 512 L 768 512 C 728.667969 512 690.332031 519.832031 653 535.5 C 615.667969 551.167969 585.167969 568.832031 561.5 588.5 C 537.832031 608.167969 515.832031 630.332031 495.5 655 C 475.167969 679.667969 461.667969 697.5 455 708.5 C 448.332031 719.5 443.667969 727.667969 441 733 C 429.667969 756.332031 410.667969 768 384 768 C 373.332031 768 363.667969 765.667969 355 761 C 339.667969 753 329.167969 740.667969 323.5 724 C 317.832031 707.332031 319 691 327 675 C 330.332031 668.332031 335.167969 659.667969 341.5 649 C 347.832031 638.332031 360.332031 620.5 379 595.5 C 397.667969 570.5 417.832031 547.167969 439.5 525.5 C 461.167969 503.832031 489.5 481.5 524.5 458.5 C 559.5 435.5 595.667969 418 633 406 C 616.332031 378 608 349.332031 608 320 C 608 276 623.667969 238.332031 655 207 C 686.332031 175.667969 724 160 768 160 C 812 160 849.667969 175.667969 881 207 C 912.332031 238.332031 928 276 928 320 C 928 342 923.332031 363.332031 914 384 L 1216 384 C 1216 376.667969 1218.332031 370 1223 364 C 1227.667969 358 1233.667969 354.332031 1241 353 L 1689 257 C 1691 256.332031 1693.332031 256 1696 256 C 1704 256 1710.667969 258.332031 1716 263 C 1724 269 1728 277.332031 1728 288 Z M 1728 288 " fill="white" />
</g>
</svg>
