<svg width="2048" height="2048" viewBox="-128 -384 2048 2048" xmlns="http://www.w3.org/2000/svg"><g transform="scale(1 -1) translate(0 -1280)"><path d="M320 1280q0 -72 -64 -110v-1266q0 -13 -9.5 -22.5t-22.5 -9.5h-64q-13 0 -22.5 9.5t-9.5 22.5v1266q-64 38 -64 110q0 53 37.5 90.5t90.5 37.5t90.5 -37.5t37.5 -90.5zM1792 1216v-763q0 -25 -12.5 -38.5t-39.5 -27.5q-215 -116 -369 -116q-61 0 -123.5 22t-108.5 48 t-115.5 48t-142.5 22q-192 0 -464 -146q-17 -9 -33 -9q-26 0 -45 19t-19 45v742q0 32 31 55q21 14 79 43q236 120 421 120q107 0 200 -29t219 -88q38 -19 88 -19q54 0 117.5 21t110 47t88 47t54.5 21q26 0 45 -19t19 -45z" fill="white" /></g></svg>