<svg width="2048" height="2048" viewBox="-128 -384 2048 2048" xmlns="http://www.w3.org/2000/svg"><g transform="scale(1 -1) translate(0 -1280)"><path d="M1664 491v616q-169 -91 -306 -91q-82 0 -145 32q-100 49 -184 76.5t-178 27.5q-173 0 -403 -127v-599q245 113 433 113q55 0 103.5 -7.5t98 -26t77 -31t82.5 -39.5l28 -14q44 -22 101 -22q120 0 293 92zM320 1280q0 -35 -17.5 -64t-46.5 -46v-1266q0 -14 -9 -23t-23 -9 h-64q-14 0 -23 9t-9 23v1266q-29 17 -46.5 46t-17.5 64q0 53 37.5 90.5t90.5 37.5t90.5 -37.5t37.5 -90.5zM1792 1216v-763q0 -39 -35 -57q-10 -5 -17 -9q-218 -116 -369 -116q-88 0 -158 35l-28 14q-64 33 -99 48t-91 29t-114 14q-102 0 -235.5 -44t-228.5 -102 q-15 -9 -33 -9q-16 0 -32 8q-32 19 -32 56v742q0 35 31 55q35 21 78.5 42.5t114 52t152.5 49.5t155 19q112 0 209 -31t209 -86q38 -19 89 -19q122 0 310 112q22 12 31 17q31 16 62 -2q31 -20 31 -55z" fill="white" /></g></svg>