<?xml version="1.0" encoding="UTF-8"?>
<svg xmlns="http://www.w3.org/2000/svg" xmlns:xlink="http://www.w3.org/1999/xlink" width="2048" height="2048" viewBox="0 0 2048 2048" version="1.1">
<g>
<path d="M 640 1664 L 1408 1664 L 1408 1280 L 640 1280 Z M 1536 1664 L 1664 1664 L 1664 768 C 1664 758.667969 1660.667969 745.832031 1654 729.5 C 1647.332031 713.167969 1640.667969 701.667969 1634 695 L 1353 414 C 1346.332031 407.332031 1335 400.667969 1319 394 C 1303 387.332031 1290 384 1280 384 L 1280 800 C 1280 826.667969 1270.667969 849.332031 1252 868 C 1233.332031 886.667969 1210.667969 896 1184 896 L 608 896 C 581.332031 896 558.667969 886.667969 540 868 C 521.332031 849.332031 512 826.667969 512 800 L 512 384 L 384 384 L 384 1664 L 512 1664 L 512 1248 C 512 1221.332031 521.332031 1198.667969 540 1180 C 558.667969 1161.332031 581.332031 1152 608 1152 L 1440 1152 C 1466.667969 1152 1489.332031 1161.332031 1508 1180 C 1526.667969 1198.667969 1536 1221.332031 1536 1248 Z M 1152 736 L 1152 416 C 1152 407.332031 1148.832031 399.832031 1142.5 393.5 C 1136.167969 387.167969 1128.667969 384 1120 384 L 928 384 C 919.332031 384 911.832031 387.167969 905.5 393.5 C 899.167969 399.832031 896 407.332031 896 416 L 896 736 C 896 744.667969 899.167969 752.167969 905.5 758.5 C 911.832031 764.832031 919.332031 768 928 768 L 1120 768 C 1128.667969 768 1136.167969 764.832031 1142.5 758.5 C 1148.832031 752.167969 1152 744.667969 1152 736 Z M 1792 768 L 1792 1696 C 1792 1722.667969 1782.667969 1745.332031 1764 1764 C 1745.332031 1782.667969 1722.667969 1792 1696 1792 L 352 1792 C 325.332031 1792 302.667969 1782.667969 284 1764 C 265.332031 1745.332031 256 1722.667969 256 1696 L 256 352 C 256 325.332031 265.332031 302.667969 284 284 C 302.667969 265.332031 325.332031 256 352 256 L 1280 256 C 1306.667969 256 1336 262.667969 1368 276 C 1400 289.332031 1425.332031 305.332031 1444 324 L 1724 604 C 1742.667969 622.667969 1758.667969 648 1772 680 C 1785.332031 712 1792 741.332031 1792 768 Z M 1792 768 " fill="white" />
</g>
</svg>
