<svg width="2048" height="2048" viewBox="-256 -384 2048 2048" xmlns="http://www.w3.org/2000/svg"><g transform="scale(1 -1) translate(0 -1280)"><path d="M384 0h768v384h-768v-384zM1280 0h128v896q0 14 -10 38.5t-20 34.5l-281 281q-10 10 -34 20t-39 10v-416q0 -40 -28 -68t-68 -28h-576q-40 0 -68 28t-28 68v416h-128v-1280h128v416q0 40 28 68t68 28h832q40 0 68 -28t28 -68v-416zM896 928v320q0 13 -9.5 22.5t-22.5 9.5 h-192q-13 0 -22.5 -9.5t-9.5 -22.5v-320q0 -13 9.5 -22.5t22.5 -9.5h192q13 0 22.5 9.5t9.5 22.5zM1536 896v-928q0 -40 -28 -68t-68 -28h-1344q-40 0 -68 28t-28 68v1344q0 40 28 68t68 28h928q40 0 88 -20t76 -48l280 -280q28 -28 48 -76t20 -88z" fill="white" /></g></svg>