<svg width="2048" height="2048" viewBox="-64 -384 2048 2048" xmlns="http://www.w3.org/2000/svg"><g transform="scale(1 -1) translate(0 -1280)"><path d="M1879 584q0 -31 -31 -66l-336 -396q-43 -51 -120.5 -86.5t-143.5 -35.5h-1088q-34 0 -60.5 13t-26.5 43q0 31 31 66l336 396q43 51 120.5 86.5t143.5 35.5h1088q34 0 60.5 -13t26.5 -43zM1536 928v-160h-832q-94 0 -197 -47.5t-164 -119.5l-337 -396l-5 -6q0 4 -0.5 12.5 t-0.5 12.5v960q0 92 66 158t158 66h320q92 0 158 -66t66 -158v-32h544q92 0 158 -66t66 -158z" fill="white" /></g></svg>