<?xml version="1.0" encoding="UTF-8"?>
<svg xmlns="http://www.w3.org/2000/svg" xmlns:xlink="http://www.w3.org/1999/xlink" width="2048" height="2048" viewBox="0 0 2048 2048" version="1.1">
<g>
<path d="M 1856 736 L 1856 1440 C 1856 1501.332031 1834 1554 1790 1598 C 1746 1642 1693.332031 1664 1632 1664 L 416 1664 C 354.667969 1664 302 1642 258 1598 C 214 1554 192 1501.332031 192 1440 L 192 480 C 192 418.667969 214 366 258 322 C 302 278 354.667969 256 416 256 L 736 256 C 797.332031 256 850 278 894 322 C 938 366 960 418.667969 960 480 L 960 512 L 1632 512 C 1693.332031 512 1746 534 1790 578 C 1834 622 1856 674.667969 1856 736 Z M 1856 736 " fill="white" />
</g>
</svg>
