<svg width="2048" height="2048" viewBox="-192 -384 2048 2048" xmlns="http://www.w3.org/2000/svg"><g transform="scale(1 -1) translate(0 -1280)"><path d="M725 977l-170 -450q73 -1 153.5 -2t119 -1.5t52.5 -0.5l29 2q-32 95 -92 241q-53 132 -92 211zM21 -128h-21l2 79q22 7 80 18q89 16 110 31q20 16 48 68l237 616l280 724h75h53l11 -21l205 -480q103 -242 124 -297q39 -102 96 -235q26 -58 65 -164q24 -67 65 -149 q22 -49 35 -57q22 -19 69 -23q47 -6 103 -27q6 -39 6 -57q0 -14 -1 -26q-80 0 -192 8q-93 8 -189 8q-79 0 -135 -2l-200 -11l-58 -2q0 45 4 78l131 28q56 13 68 23q12 12 12 27t-6 32l-47 114l-92 228l-450 2q-29 -65 -104 -274q-23 -64 -23 -84q0 -31 17 -43 q26 -21 103 -32q3 0 13.5 -2t30 -5t40.5 -6q1 -28 1 -58q0 -17 -2 -27q-66 0 -349 20l-48 -8q-81 -14 -167 -14z" fill="white" /></g></svg>