<?xml version="1.0" encoding="UTF-8"?>
<svg xmlns="http://www.w3.org/2000/svg" xmlns:xlink="http://www.w3.org/1999/xlink" width="2048" height="2048" viewBox="0 0 2048 2048" version="1.1">
<g>
<path d="M 917 687 L 747 1137 C 795.667969 1137.667969 846.832031 1138.332031 900.5 1139 C 954.167969 1139.667969 993.832031 1140.167969 1019.5 1140.5 C 1045.167969 1140.832031 1062.667969 1141 1072 1141 L 1101 1139 C 1079.667969 1075.667969 1049 995.332031 1009 898 C 973.667969 810 943 739.667969 917 687 Z M 213 1792 L 192 1792 L 194 1713 C 208.667969 1708.332031 235.332031 1702.332031 274 1695 C 333.332031 1684.332031 370 1674 384 1664 C 397.332031 1653.332031 413.332031 1630.667969 432 1596 L 669 980 L 949 256 L 1077 256 L 1088 277 L 1293 757 C 1361.667969 918.332031 1403 1017.332031 1417 1054 C 1443 1122 1475 1200.332031 1513 1289 C 1530.332031 1327.667969 1552 1382.332031 1578 1453 C 1594 1497.667969 1615.667969 1547.332031 1643 1602 C 1657.667969 1634.667969 1669.332031 1653.667969 1678 1659 C 1692.667969 1671.667969 1715.667969 1679.332031 1747 1682 C 1778.332031 1686 1812.667969 1695 1850 1709 C 1854 1735 1856 1754 1856 1766 C 1856 1775.332031 1855.667969 1784 1855 1792 C 1801.667969 1792 1737.667969 1789.332031 1663 1784 C 1601 1778.667969 1538 1776 1474 1776 C 1421.332031 1776 1376.332031 1776.667969 1339 1778 L 1139 1789 L 1081 1791 C 1081 1761 1082.332031 1735 1085 1713 L 1216 1685 C 1253.332031 1676.332031 1276 1668.667969 1284 1662 C 1292 1654 1296 1645 1296 1635 C 1296 1625 1294 1614.332031 1290 1603 L 1243 1489 L 1151 1261 L 701 1259 C 681.667969 1302.332031 647 1393.667969 597 1533 C 581.667969 1575.667969 574 1603.667969 574 1617 C 574 1637.667969 579.667969 1652 591 1660 C 608.332031 1674 642.667969 1684.667969 694 1692 C 696 1692 700.5 1692.667969 707.5 1694 C 714.5 1695.332031 724.5 1697 737.5 1699 C 750.5 1701 764 1703 778 1705 C 778.667969 1723.667969 779 1743 779 1763 C 779 1774.332031 778.332031 1783.332031 777 1790 C 733 1790 616.667969 1783.332031 428 1770 L 380 1778 C 326 1787.332031 270.332031 1792 213 1792 Z M 213 1792 " fill="white" />
</g>
</svg>
