<?xml version="1.0" encoding="UTF-8"?>
<svg xmlns="http://www.w3.org/2000/svg" xmlns:xlink="http://www.w3.org/1999/xlink" width="2048" height="2048" viewBox="0 0 2048 2048" version="1.1">
<g>
<path d="M 237 1779 C 224.332031 1791.667969 213.667969 1796 205 1792 C 196.332031 1788 192 1777.332031 192 1760 L 192 288 C 192 270.667969 196.332031 260 205 256 C 213.667969 252 224.332031 256.332031 237 269 L 947 979 C 952.332031 984.332031 956.667969 990.667969 960 998 L 960 288 C 960 270.667969 964.332031 260 973 256 C 981.667969 252 992.332031 256.332031 1005 269 L 1715 979 C 1727.667969 991.667969 1734 1006.667969 1734 1024 C 1734 1041.332031 1727.667969 1056.332031 1715 1069 L 1005 1779 C 992.332031 1791.667969 981.667969 1796 973 1792 C 964.332031 1788 960 1777.332031 960 1760 L 960 1050 C 956.667969 1056.667969 952.332031 1063 947 1069 Z M 237 1779 " fill="white" />
</g>
</svg>
