<?xml version="1.0" encoding="UTF-8"?>
<svg xmlns="http://www.w3.org/2000/svg" xmlns:xlink="http://www.w3.org/1999/xlink" width="2048" height="2048" viewBox="0 0 2048 2048" version="1.1">
<g>
<path d="M 1390 1357 C 1395.332031 1373.667969 1394 1389.832031 1386 1405.5 C 1378 1421.167969 1365.667969 1431.667969 1349 1437 C 1332.332031 1442.332031 1316 1441 1300 1433 C 1284 1425 1273.332031 1412.332031 1268 1395 C 1251.332031 1341.667969 1220.5 1298.5 1175.5 1265.5 C 1130.5 1232.5 1080 1216 1024 1216 C 968 1216 917.5 1232.5 872.5 1265.5 C 827.5 1298.5 796.667969 1341.667969 780 1395 C 774.667969 1412.332031 764.167969 1425 748.5 1433 C 732.832031 1441 716.667969 1442.332031 700 1437 C 682.667969 1431.667969 670 1421.167969 662 1405.5 C 654 1389.832031 652.667969 1373.667969 658 1357 C 682.667969 1276.332031 728.667969 1211.332031 796 1162 C 863.332031 1112.667969 939.332031 1088 1024 1088 C 1108.667969 1088 1184.667969 1112.667969 1252 1162 C 1319.332031 1211.332031 1365.332031 1276.332031 1390 1357 Z M 896 768 C 896 803.332031 883.5 833.5 858.5 858.5 C 833.5 883.5 803.332031 896 768 896 C 732.667969 896 702.5 883.5 677.5 858.5 C 652.5 833.5 640 803.332031 640 768 C 640 732.667969 652.5 702.5 677.5 677.5 C 702.5 652.5 732.667969 640 768 640 C 803.332031 640 833.5 652.5 858.5 677.5 C 883.5 702.5 896 732.667969 896 768 Z M 1408 768 C 1408 803.332031 1395.5 833.5 1370.5 858.5 C 1345.5 883.5 1315.332031 896 1280 896 C 1244.667969 896 1214.5 883.5 1189.5 858.5 C 1164.5 833.5 1152 803.332031 1152 768 C 1152 732.667969 1164.5 702.5 1189.5 677.5 C 1214.5 652.5 1244.667969 640 1280 640 C 1315.332031 640 1345.5 652.5 1370.5 677.5 C 1395.5 702.5 1408 732.667969 1408 768 Z M 1664 1024 C 1664 937.332031 1647 854.5 1613 775.5 C 1579 696.5 1533.5 628.5 1476.5 571.5 C 1419.5 514.5 1351.5 469 1272.5 435 C 1193.5 401 1110.667969 384 1024 384 C 937.332031 384 854.5 401 775.5 435 C 696.5 469 628.5 514.5 571.5 571.5 C 514.5 628.5 469 696.5 435 775.5 C 401 854.5 384 937.332031 384 1024 C 384 1110.667969 401 1193.5 435 1272.5 C 469 1351.5 514.5 1419.5 571.5 1476.5 C 628.5 1533.5 696.5 1579 775.5 1613 C 854.5 1647 937.332031 1664 1024 1664 C 1110.667969 1664 1193.5 1647 1272.5 1613 C 1351.5 1579 1419.5 1533.5 1476.5 1476.5 C 1533.5 1419.5 1579 1351.5 1613 1272.5 C 1647 1193.5 1664 1110.667969 1664 1024 Z M 1792 1024 C 1792 1163.332031 1757.667969 1291.832031 1689 1409.5 C 1620.332031 1527.167969 1527.167969 1620.332031 1409.5 1689 C 1291.832031 1757.667969 1163.332031 1792 1024 1792 C 884.667969 1792 756.167969 1757.667969 638.5 1689 C 520.832031 1620.332031 427.667969 1527.167969 359 1409.5 C 290.332031 1291.832031 256 1163.332031 256 1024 C 256 884.667969 290.332031 756.167969 359 638.5 C 427.667969 520.832031 520.832031 427.667969 638.5 359 C 756.167969 290.332031 884.667969 256 1024 256 C 1163.332031 256 1291.832031 290.332031 1409.5 359 C 1527.167969 427.667969 1620.332031 520.832031 1689 638.5 C 1757.667969 756.167969 1792 884.667969 1792 1024 Z M 1792 1024 " fill="white" />
</g>
</svg>
