<svg width="2048" height="2048" viewBox="-256 -384 2048 2048" xmlns="http://www.w3.org/2000/svg"><g transform="scale(1 -1) translate(0 -1280)"><path d="M928 180v56v468v192h-320v-192v-468v-56q0 -25 18 -38.5t46 -13.5h192q28 0 46 13.5t18 38.5zM472 1024h195l-126 161q-26 31 -69 31q-40 0 -68 -28t-28 -68t28 -68t68 -28zM1160 1120q0 40 -28 68t-68 28q-43 0 -69 -31l-125 -161h194q40 0 68 28t28 68zM1536 864v-320 q0 -14 -9 -23t-23 -9h-96v-416q0 -40 -28 -68t-68 -28h-1088q-40 0 -68 28t-28 68v416h-96q-14 0 -23 9t-9 23v320q0 14 9 23t23 9h440q-93 0 -158.5 65.5t-65.5 158.5t65.5 158.5t158.5 65.5q107 0 168 -77l128 -165l128 165q61 77 168 77q93 0 158.5 -65.5t65.5 -158.5 t-65.5 -158.5t-158.5 -65.5h440q14 0 23 -9t9 -23z" fill="white" /></g></svg>