<?xml version="1.0" encoding="UTF-8"?>
<svg xmlns="http://www.w3.org/2000/svg" xmlns:xlink="http://www.w3.org/1999/xlink" width="2048" height="2048" viewBox="0 0 2048 2048" version="1.1">
<g>
<path d="M 832 1344 C 832 1370.667969 827.832031 1398 819.5 1426 C 811.167969 1454 796.832031 1479.332031 776.5 1502 C 756.167969 1524.667969 732 1536 704 1536 C 676 1536 651.832031 1524.667969 631.5 1502 C 611.167969 1479.332031 596.832031 1454 588.5 1426 C 580.167969 1398 576 1370.667969 576 1344 C 576 1317.332031 580.167969 1290 588.5 1262 C 596.832031 1234 611.167969 1208.667969 631.5 1186 C 651.832031 1163.332031 676 1152 704 1152 C 732 1152 756.167969 1163.332031 776.5 1186 C 796.832031 1208.667969 811.167969 1234 819.5 1262 C 827.832031 1290 832 1317.332031 832 1344 Z M 1472 1344 C 1472 1370.667969 1467.832031 1398 1459.5 1426 C 1451.167969 1454 1436.832031 1479.332031 1416.5 1502 C 1396.167969 1524.667969 1372 1536 1344 1536 C 1316 1536 1291.832031 1524.667969 1271.5 1502 C 1251.167969 1479.332031 1236.832031 1454 1228.5 1426 C 1220.167969 1398 1216 1370.667969 1216 1344 C 1216 1317.332031 1220.167969 1290 1228.5 1262 C 1236.832031 1234 1251.167969 1208.667969 1271.5 1186 C 1291.832031 1163.332031 1316 1152 1344 1152 C 1372 1152 1396.167969 1163.332031 1416.5 1186 C 1436.832031 1208.667969 1451.167969 1234 1459.5 1262 C 1467.832031 1290 1472 1317.332031 1472 1344 Z M 1632 1344 C 1632 1264 1609 1196 1563 1140 C 1517 1084 1454.667969 1056 1376 1056 C 1348.667969 1056 1283.667969 1063 1181 1077 C 1133.667969 1084.332031 1081.332031 1088 1024 1088 C 966.667969 1088 914.332031 1084.332031 867 1077 C 765.667969 1063 700.667969 1056 672 1056 C 593.332031 1056 531 1084 485 1140 C 439 1196 416 1264 416 1344 C 416 1402.667969 426.667969 1453.832031 448 1497.5 C 469.332031 1541.167969 496.332031 1575.5 529 1600.5 C 561.667969 1625.5 602.332031 1645.5 651 1660.5 C 699.667969 1675.5 746.332031 1685.332031 791 1690 C 835.667969 1694.667969 885.332031 1697 940 1697 L 1108 1697 C 1162.667969 1697 1212.332031 1694.667969 1257 1690 C 1301.667969 1685.332031 1348.332031 1675.5 1397 1660.5 C 1445.667969 1645.5 1486.332031 1625.5 1519 1600.5 C 1551.667969 1575.5 1578.667969 1541.167969 1600 1497.5 C 1621.332031 1453.832031 1632 1402.667969 1632 1344 Z M 1856 1168 C 1856 1306 1835.667969 1416.332031 1795 1499 C 1769.667969 1550.332031 1734.5 1594.667969 1689.5 1632 C 1644.5 1669.332031 1597.5 1698 1548.5 1718 C 1499.5 1738 1442.832031 1753.832031 1378.5 1765.5 C 1314.167969 1777.167969 1257 1784.5 1207 1787.5 C 1157 1790.5 1101.332031 1792 1040 1792 C 988 1792 940.667969 1791 898 1789 C 855.332031 1787 806.167969 1782.832031 750.5 1776.5 C 694.832031 1770.167969 644 1760.167969 598 1746.5 C 552 1732.832031 506.332031 1715.667969 461 1695 C 415.667969 1674.332031 375.332031 1647.332031 340 1614 C 304.667969 1580.667969 276 1542.332031 254 1499 C 212.667969 1417 192 1306.667969 192 1168 C 192 1010 237.332031 878 328 772 C 310 717.332031 301 660.667969 301 602 C 301 524.667969 318 452 352 384 C 424 384 487.332031 397.167969 542 423.5 C 596.667969 449.832031 659.667969 491 731 547 C 829 523.667969 932 512 1040 512 C 1138.667969 512 1232 522.667969 1320 544 C 1390 489.332031 1452.332031 449 1507 423 C 1561.667969 397 1624.667969 384 1696 384 C 1730 452 1747 524.667969 1747 602 C 1747 660 1738 716 1720 770 C 1810.667969 876.667969 1856 1009.332031 1856 1168 Z M 1856 1168 " fill="white" />
</g>
</svg>
