<svg width="2048" height="2048" viewBox="-192 -384 2048 2048" xmlns="http://www.w3.org/2000/svg"><g transform="scale(1 -1) translate(0 -1280)"><path d="M640 320q0 -40 -12.5 -82t-43 -76t-72.5 -34t-72.5 34t-43 76t-12.5 82t12.5 82t43 76t72.5 34t72.5 -34t43 -76t12.5 -82zM1280 320q0 -40 -12.5 -82t-43 -76t-72.5 -34t-72.5 34t-43 76t-12.5 82t12.5 82t43 76t72.5 34t72.5 -34t43 -76t12.5 -82zM1440 320 q0 120 -69 204t-187 84q-41 0 -195 -21q-71 -11 -157 -11t-157 11q-152 21 -195 21q-118 0 -187 -84t-69 -204q0 -88 32 -153.5t81 -103t122 -60t140 -29.5t149 -7h168q82 0 149 7t140 29.5t122 60t81 103t32 153.5zM1664 496q0 -207 -61 -331q-38 -77 -105.5 -133t-141 -86 t-170 -47.5t-171.5 -22t-167 -4.5q-78 0 -142 3t-147.5 12.5t-152.5 30t-137 51.5t-121 81t-86 115q-62 123 -62 331q0 237 136 396q-27 82 -27 170q0 116 51 218q108 0 190 -39.5t189 -123.5q147 35 309 35q148 0 280 -32q105 82 187 121t189 39q51 -102 51 -218 q0 -87 -27 -168q136 -160 136 -398z" fill="white" /></g></svg>