<svg width="2048" height="2048" viewBox="-256 -384 2048 2048" xmlns="http://www.w3.org/2000/svg"><g transform="scale(1 -1) translate(0 -1280)"><path d="M773 234l350 473q16 22 24.5 59t-6 85t-61.5 79q-40 26 -83 25.5t-73.5 -17.5t-54.5 -45q-36 -40 -96 -40q-59 0 -95 40q-24 28 -54.5 45t-73.5 17.5t-84 -25.5q-46 -31 -60.5 -79t-6 -85t24.5 -59zM1536 640q0 -209 -103 -385.5t-279.5 -279.5t-385.5 -103t-385.5 103 t-279.5 279.5t-103 385.5t103 385.5t279.5 279.5t385.5 103t385.5 -103t279.5 -279.5t103 -385.5z" fill="white" /></g></svg>