<?xml version="1.0" encoding="UTF-8"?>
<svg xmlns="http://www.w3.org/2000/svg" xmlns:xlink="http://www.w3.org/1999/xlink" width="2048" height="2048" viewBox="0 0 2048 2048" version="1.1">
<g>
<path d="M 1068 1593 C 1068 1579 1066.5 1565.5 1063.5 1552.5 C 1060.5 1539.5 1057.332031 1527.5 1054 1516.5 C 1050.667969 1505.5 1044.832031 1494 1036.5 1482 C 1028.167969 1470 1021.167969 1459.832031 1015.5 1451.5 C 1009.832031 1443.167969 1001 1433.332031 989 1422 C 977 1410.667969 967.832031 1402.167969 961.5 1396.5 C 955.167969 1390.832031 944.5 1382.332031 929.5 1371 C 914.5 1359.667969 904.167969 1352 898.5 1348 C 892.832031 1344 881.832031 1336.332031 865.5 1325 C 849.167969 1313.667969 839 1306.667969 835 1304 C 823.667969 1302.667969 807 1302 785 1302 C 749 1302 713.667969 1304.332031 679 1309 C 644.332031 1313.667969 608.332031 1322 571 1334 C 533.667969 1346 501 1361.332031 473 1380 C 445 1398.667969 422 1423.667969 404 1455 C 386 1486.332031 377 1522 377 1562 C 377 1607.332031 388.832031 1647.832031 412.5 1683.5 C 436.167969 1719.167969 467.167969 1747.167969 505.5 1767.5 C 543.832031 1787.832031 584 1803 626 1813 C 668 1823 710.332031 1828 753 1828 C 792.332031 1828 829.832031 1823.832031 865.5 1815.5 C 901.167969 1807.167969 934.667969 1794.167969 966 1776.5 C 997.332031 1758.832031 1022.167969 1734.332031 1040.5 1703 C 1058.832031 1671.667969 1068 1635 1068 1593 Z M 948 731 C 948 691 942.5 648.5 931.5 603.5 C 920.5 558.5 904.832031 515 884.5 473 C 864.167969 431 836.167969 396.332031 800.5 369 C 764.832031 341.667969 725 328 681 328 C 619 328 571 351 537 397 C 503 443 486 498 486 562 C 486 593.332031 489.832031 626.332031 497.5 661 C 505.167969 695.667969 517 730.332031 533 765 C 549 799.667969 567.667969 830.832031 589 858.5 C 610.332031 886.167969 636.332031 908.667969 667 926 C 697.667969 943.332031 730 952 764 952 C 828.667969 952 875.5 931.832031 904.5 891.5 C 933.5 851.167969 948 797.667969 948 731 Z M 817 256 L 1254 256 L 1119 335 L 984 335 C 1031.332031 365 1068 407 1094 461 C 1120 515 1133 571.332031 1133 630 C 1133 679.332031 1125.332031 723.167969 1110 761.5 C 1094.667969 799.832031 1076 830.667969 1054 854 C 1032 877.332031 1010 898.832031 988 918.5 C 966 938.167969 947.332031 958.5 932 979.5 C 916.667969 1000.5 909 1023 909 1047 C 909 1064.332031 914.5 1081.332031 925.5 1098 C 936.5 1114.667969 950.832031 1130.667969 968.5 1146 C 986.167969 1161.332031 1005.667969 1177.332031 1027 1194 C 1048.332031 1210.667969 1069.667969 1229.167969 1091 1249.5 C 1112.332031 1269.832031 1131.832031 1291.832031 1149.5 1315.5 C 1167.167969 1339.167969 1181.5 1367.5 1192.5 1400.5 C 1203.5 1433.5 1209 1469 1209 1507 C 1209 1613.667969 1162.332031 1707.667969 1069 1789 C 967.667969 1876.332031 827.667969 1920 649 1920 C 609.667969 1920 569.832031 1916.667969 529.5 1910 C 489.167969 1903.332031 448.5 1892.167969 407.5 1876.5 C 366.5 1860.832031 330.332031 1841.5 299 1818.5 C 267.667969 1795.5 242 1765.832031 222 1729.5 C 202 1693.167969 192 1652.667969 192 1608 C 192 1567.332031 204.332031 1522.332031 229 1473 C 250.332031 1430.332031 282.332031 1393.5 325 1362.5 C 367.667969 1331.5 416 1307.832031 470 1291.5 C 524 1275.167969 575.667969 1263.167969 625 1255.5 C 674.332031 1247.832031 724.332031 1243.332031 775 1242 C 732.332031 1186.667969 711 1137 711 1093 C 711 1085 711.667969 1077.167969 713 1069.5 C 714.332031 1061.832031 716 1055.332031 718 1050 C 720 1044.667969 722.667969 1037.5 726 1028.5 C 729.332031 1019.5 731.667969 1012.332031 733 1007 C 706.332031 1010.332031 683 1012 663 1012 C 563.667969 1012 478.5 979.332031 407.5 914 C 336.5 848.667969 301 766.667969 301 668 C 301 574.667969 332.667969 491.167969 396 417.5 C 459.332031 343.832031 537.332031 296.667969 630 276 C 692.667969 262.667969 755 256 817 256 Z M 1856 512 L 1856 640 L 1600 640 L 1600 896 L 1472 896 L 1472 640 L 1216 640 L 1216 512 L 1472 512 L 1472 256 L 1600 256 L 1600 512 Z M 1856 512 " fill="white" />
</g>
</svg>
