<?xml version="1.0" encoding="UTF-8"?>
<svg xmlns="http://www.w3.org/2000/svg" xmlns:xlink="http://www.w3.org/1999/xlink" width="2048" height="2048" viewBox="0 0 2048 2048" version="1.1">
<g>
<path d="M 934 1721 C 934 1746.332031 930.667969 1770 924 1792 L 544 1792 C 480.667969 1792 423.5 1773.167969 372.5 1735.5 C 321.5 1697.832031 287 1648.667969 269 1588 C 285 1558 308 1532.167969 338 1510.5 C 368 1488.832031 401.332031 1472.332031 438 1461 C 474.667969 1449.667969 510.332031 1441.667969 545 1437 C 579.667969 1432.332031 615.332031 1430 652 1430 C 673.332031 1430 689.667969 1430.667969 701 1432 C 705 1434.667969 715.167969 1441.667969 731.5 1453 C 747.832031 1464.332031 758.832031 1472 764.5 1476 C 770.167969 1480 780.5 1487.667969 795.5 1499 C 810.5 1510.332031 821.167969 1518.832031 827.5 1524.5 C 833.832031 1530.167969 843 1538.667969 855 1550 C 867 1561.332031 875.832031 1571.167969 881.5 1579.5 C 887.167969 1587.832031 894.167969 1598 902.5 1610 C 910.832031 1622 916.667969 1633.5 920 1644.5 C 923.332031 1655.5 926.5 1667.5 929.5 1680.5 C 932.5 1693.5 934 1707 934 1721 Z M 641 1370 C 485 1374.667969 356.667969 1403 256 1455 L 256 1022 C 324.667969 1100.667969 415.667969 1140 529 1140 C 550.332031 1140 573.667969 1138.332031 599 1135 C 585 1175.667969 578 1204.332031 578 1221 C 578 1265.667969 599 1315.332031 641 1370 Z M 814 859 C 814 925.667969 799.5 979.167969 770.5 1019.5 C 741.5 1059.832031 694.667969 1080 630 1080 C 596 1080 563.667969 1071.332031 533 1054 C 502.332031 1036.667969 476.332031 1014.167969 455 986.5 C 433.667969 958.832031 415 927.667969 399 893 C 383 858.332031 371.167969 823.667969 363.5 789 C 355.832031 754.332031 352 721.332031 352 690 C 352 626 369.167969 571 403.5 525 C 437.832031 479 486 456 548 456 C 592 456 631.667969 469.667969 667 497 C 702.332031 524.332031 730.332031 559 751 601 C 771.667969 643 787.332031 686.332031 798 731 C 808.667969 775.667969 814 818.332031 814 859 Z M 1792 768 L 1792 1504 C 1792 1583.332031 1763.832031 1651.167969 1707.5 1707.5 C 1651.167969 1763.832031 1583.332031 1792 1504 1792 L 1036 1792 C 1062 1743.332031 1075 1691 1075 1635 C 1075 1591 1067.667969 1550.167969 1053 1512.5 C 1038.332031 1474.832031 1019.832031 1443.832031 997.5 1419.5 C 975.167969 1395.167969 951.167969 1371.5 925.5 1348.5 C 899.832031 1325.5 875.832031 1305.667969 853.5 1289 C 831.167969 1272.332031 812.667969 1254.167969 798 1234.5 C 783.332031 1214.832031 776 1195 776 1175 C 776 1151 783.667969 1128.332031 799 1107 C 814.332031 1085.667969 833 1065.167969 855 1045.5 C 877 1025.832031 898.832031 1004.332031 920.5 981 C 942.167969 957.667969 960.667969 926.667969 976 888 C 991.332031 849.332031 999 805.667969 999 757 C 999 708.332031 990.167969 659.832031 972.5 611.5 C 954.832031 563.167969 929.667969 523.667969 897 493 C 893 489 888.332031 485.332031 883 482 C 877.667969 478.667969 873.5 476.167969 870.5 474.5 C 867.5 472.832031 864.167969 469.667969 860.5 465 C 856.832031 460.332031 853.332031 454.667969 850 448 L 985 448 L 1120 384 L 683 384 C 591 384 509.5 396.832031 438.5 422.5 C 367.5 448.167969 306.667969 492.667969 256 556 C 256 472 283 401 337 343 C 391 285 460 256 544 256 L 1504 256 C 1583.332031 256 1651.167969 284.167969 1707.5 340.5 C 1763.832031 396.832031 1792 464.667969 1792 544 L 1792 640 L 1536 640 L 1536 384 L 1408 384 L 1408 640 L 1152 640 L 1152 768 L 1408 768 L 1408 1024 L 1536 1024 L 1536 768 Z M 1792 768 " fill="white" />
</g>
</svg>
