<?xml version="1.0" encoding="UTF-8"?>
<svg xmlns="http://www.w3.org/2000/svg" xmlns:xlink="http://www.w3.org/1999/xlink" width="2048" height="2048" viewBox="0 0 2048 2048" version="1.1">
<g>
<path d="M 1536 1472 L 1536 576 C 1536 558.667969 1529.667969 543.667969 1517 531 C 1504.332031 518.332031 1489.332031 512 1472 512 L 1344 512 C 1326.667969 512 1311.667969 518.332031 1299 531 C 1286.332031 543.667969 1280 558.667969 1280 576 L 1280 896 L 768 896 L 768 576 C 768 558.667969 761.667969 543.667969 749 531 C 736.332031 518.332031 721.332031 512 704 512 L 576 512 C 558.667969 512 543.667969 518.332031 531 531 C 518.332031 543.667969 512 558.667969 512 576 L 512 1472 C 512 1489.332031 518.332031 1504.332031 531 1517 C 543.667969 1529.667969 558.667969 1536 576 1536 L 704 1536 C 721.332031 1536 736.332031 1529.667969 749 1517 C 761.667969 1504.332031 768 1489.332031 768 1472 L 768 1152 L 1280 1152 L 1280 1472 C 1280 1489.332031 1286.332031 1504.332031 1299 1517 C 1311.667969 1529.667969 1326.667969 1536 1344 1536 L 1472 1536 C 1489.332031 1536 1504.332031 1529.667969 1517 1517 C 1529.667969 1504.332031 1536 1489.332031 1536 1472 Z M 1792 544 L 1792 1504 C 1792 1583.332031 1763.832031 1651.167969 1707.5 1707.5 C 1651.167969 1763.832031 1583.332031 1792 1504 1792 L 544 1792 C 464.667969 1792 396.832031 1763.832031 340.5 1707.5 C 284.167969 1651.167969 256 1583.332031 256 1504 L 256 544 C 256 464.667969 284.167969 396.832031 340.5 340.5 C 396.832031 284.167969 464.667969 256 544 256 L 1504 256 C 1583.332031 256 1651.167969 284.167969 1707.5 340.5 C 1763.832031 396.832031 1792 464.667969 1792 544 Z M 1792 544 " fill="white" />
</g>
</svg>
