<?xml version="1.0" encoding="UTF-8"?>
<svg xmlns="http://www.w3.org/2000/svg" xmlns:xlink="http://www.w3.org/1999/xlink" width="2048" height="2048" viewBox="0 0 2048 2048" version="1.1">
<g>
<path d="M 1504 1536 L 1536 1536 L 1536 896 L 1504 896 C 1480.667969 896 1458.167969 892 1436.5 884 C 1414.832031 876 1394 863.667969 1374 847 C 1354 830.332031 1337.332031 815 1324 801 C 1310.667969 787 1294.332031 769 1275 747 C 1273.667969 745 1272.5 743.5 1271.5 742.5 C 1270.5 741.5 1269.167969 740 1267.5 738 C 1265.832031 736 1264.332031 734.332031 1263 733 C 1215 679 1177.667969 630.667969 1151 588 C 1141.667969 573.332031 1129 550.667969 1113 520 C 1112.332031 518 1108.832031 510.5 1102.5 497.5 C 1096.167969 484.5 1090 472.5 1084 461.5 C 1078 450.5 1071.332031 438.667969 1064 426 C 1056.667969 413.332031 1049.5 403.167969 1042.5 395.5 C 1035.5 387.832031 1029.332031 384 1024 384 C 976.667969 384 938.167969 394.167969 908.5 414.5 C 878.832031 434.832031 864 467.332031 864 512 C 864 540.667969 869 568.832031 879 596.5 C 889 624.167969 900 646.832031 912 664.5 C 924 682.167969 935 700.5 945 719.5 C 955 738.5 960 754.667969 960 768 L 384 768 C 350.667969 768 321 780.832031 295 806.5 C 269 832.167969 256 862 256 896 C 256 930.667969 268.667969 960.667969 294 986 C 319.332031 1011.332031 349.332031 1024 384 1024 L 715 1024 C 705 1035.332031 696.667969 1051.167969 690 1071.5 C 683.332031 1091.832031 680 1110.332031 680 1127 C 680 1173 697.667969 1212.667969 733 1246 C 721 1267.332031 715 1290.332031 715 1315 C 715 1339.667969 720.832031 1364.167969 732.5 1388.5 C 744.167969 1412.832031 760 1430.332031 780 1441 C 777.332031 1457 776 1475.667969 776 1497 C 776 1553.667969 792.167969 1595.667969 824.5 1623 C 856.832031 1650.332031 902 1664 960 1664 C 1016 1664 1077 1653.332031 1143 1632 C 1209 1610.667969 1273.667969 1589.332031 1337 1568 C 1400.332031 1546.667969 1456 1536 1504 1536 Z M 1792 1472 C 1792 1454.667969 1785.667969 1439.667969 1773 1427 C 1760.332031 1414.332031 1745.332031 1408 1728 1408 C 1710.667969 1408 1695.667969 1414.332031 1683 1427 C 1670.332031 1439.667969 1664 1454.667969 1664 1472 C 1664 1489.332031 1670.332031 1504.332031 1683 1517 C 1695.667969 1529.667969 1710.667969 1536 1728 1536 C 1745.332031 1536 1760.332031 1529.667969 1773 1517 C 1785.667969 1504.332031 1792 1489.332031 1792 1472 Z M 1920 896 L 1920 1536 C 1920 1571.332031 1907.5 1601.5 1882.5 1626.5 C 1857.5 1651.5 1827.332031 1664 1792 1664 L 1504 1664 C 1464.667969 1664 1390.332031 1683.667969 1281 1723 C 1154.332031 1769 1048.667969 1792 964 1792 C 869.332031 1792 792.667969 1766.167969 734 1714.5 C 675.332031 1662.832031 646.332031 1590.332031 647 1497 L 648 1492 C 607.332031 1441.332031 587 1382 587 1314 C 587 1299.332031 588 1285 590 1271 C 568 1233 555.667969 1193.332031 553 1152 L 384 1152 C 314 1152 253.832031 1126.667969 203.5 1076 C 153.167969 1025.332031 128 965 128 895 C 128 826.332031 153.332031 766.667969 204 716 C 254.667969 665.332031 314.667969 640 384 640 L 758 640 C 743.332031 600 736 557.332031 736 512 C 736 430.667969 763.167969 367.667969 817.5 323 C 871.832031 278.332031 940.667969 256 1024 256 C 1049.332031 256 1072.5 261.832031 1093.5 273.5 C 1114.5 285.167969 1132.832031 301.667969 1148.5 323 C 1164.167969 344.332031 1177.667969 365.332031 1189 386 C 1200.332031 406.667969 1212.667969 430.667969 1226 458 C 1239.332031 485.332031 1250.332031 506 1259 520 C 1282.332031 556.667969 1315.667969 599.667969 1359 649 C 1360.332031 651 1365 656.667969 1373 666 C 1381 675.332031 1387.332031 682.5 1392 687.5 C 1396.667969 692.5 1403.5 699.667969 1412.5 709 C 1421.5 718.332031 1429.5 725.832031 1436.5 731.5 C 1443.5 737.167969 1451 743.167969 1459 749.5 C 1467 755.832031 1474.832031 760.5 1482.5 763.5 C 1490.167969 766.5 1497.332031 768 1504 768 L 1792 768 C 1827.332031 768 1857.5 780.5 1882.5 805.5 C 1907.5 830.5 1920 860.667969 1920 896 Z M 1920 896 " fill="white" />
</g>
</svg>
