<?xml version="1.0" encoding="UTF-8"?>
<svg xmlns="http://www.w3.org/2000/svg" xmlns:xlink="http://www.w3.org/1999/xlink" width="2048" height="2048" viewBox="0 0 2048 2048" version="1.1">
<g>
<path d="M 1664 1088 C 1664 1032 1653.332031 971 1632 905 C 1610.667969 839 1589.332031 774.332031 1568 711 C 1546.667969 647.667969 1536 592 1536 544 L 1536 512 L 896 512 L 896 544 C 896 567.332031 892 589.832031 884 611.5 C 876 633.167969 863.667969 654 847 674 C 830.332031 694 815 710.667969 801 724 C 787 737.332031 769 753.667969 747 773 C 741 778.332031 736.332031 782.332031 733 785 C 679 833 630.667969 870.332031 588 897 C 573.332031 906.332031 550.667969 919 520 935 C 518 935.667969 510.5 939.167969 497.5 945.5 C 484.5 951.832031 472.5 958 461.5 964 C 450.5 970 438.667969 976.667969 426 984 C 413.332031 991.332031 403.167969 998.5 395.5 1005.5 C 387.832031 1012.5 384 1018.667969 384 1024 C 384 1071.332031 394.167969 1109.832031 414.5 1139.5 C 434.832031 1169.167969 467.332031 1184 512 1184 C 540.667969 1184 568.832031 1179 596.5 1169 C 624.167969 1159 646.832031 1148 664.5 1136 C 682.167969 1124 700.5 1113 719.5 1103 C 738.5 1093 754.667969 1088 768 1088 L 768 1664 C 768 1697.332031 780.832031 1727 806.5 1753 C 832.167969 1779 862 1792 896 1792 C 930.667969 1792 960.667969 1779.332031 986 1754 C 1011.332031 1728.667969 1024 1698.667969 1024 1664 L 1024 1333 C 1054.667969 1356.332031 1089 1368 1127 1368 C 1173 1368 1212.667969 1350.332031 1246 1315 C 1267.332031 1327 1290.332031 1333 1315 1333 C 1339.667969 1333 1364.167969 1327.167969 1388.5 1315.5 C 1412.832031 1303.832031 1430.332031 1288 1441 1268 C 1457 1270.667969 1475.667969 1272 1497 1272 C 1553.667969 1272 1595.667969 1255.832031 1623 1223.5 C 1650.332031 1191.167969 1664 1146 1664 1088 Z M 1536 320 C 1536 302.667969 1529.667969 287.667969 1517 275 C 1504.332031 262.332031 1489.332031 256 1472 256 C 1454.667969 256 1439.667969 262.332031 1427 275 C 1414.332031 287.667969 1408 302.667969 1408 320 C 1408 337.332031 1414.332031 352.332031 1427 365 C 1439.667969 377.667969 1454.667969 384 1472 384 C 1489.332031 384 1504.332031 377.667969 1517 365 C 1529.667969 352.332031 1536 337.332031 1536 320 Z M 1792 1084 C 1792 1178.667969 1766.167969 1255.332031 1714.5 1314 C 1662.832031 1372.667969 1590.332031 1401.667969 1497 1401 L 1492 1400 C 1441.332031 1440.667969 1382 1461 1314 1461 C 1299.332031 1461 1285 1460 1271 1458 C 1235 1478 1195.332031 1490.332031 1152 1495 L 1152 1664 C 1152 1734 1126.667969 1794.167969 1076 1844.5 C 1025.332031 1894.832031 965 1920 895 1920 C 826.332031 1920 766.667969 1894.667969 716 1844 C 665.332031 1793.332031 640 1733.332031 640 1664 L 640 1290 C 604 1304.667969 561.332031 1312 512 1312 C 431.332031 1312 368.5 1284.832031 323.5 1230.5 C 278.5 1176.167969 256 1107.332031 256 1024 C 256 998.667969 261.832031 975.5 273.5 954.5 C 285.167969 933.5 301.667969 915.167969 323 899.5 C 344.332031 883.832031 365.332031 870.332031 386 859 C 406.667969 847.667969 430.667969 835.332031 458 822 C 485.332031 808.667969 506 797.667969 520 789 C 556.667969 765.667969 599.667969 732.332031 649 689 C 651 687.667969 656.667969 683 666 675 C 675.332031 667 682.5 660.667969 687.5 656 C 692.5 651.332031 699.667969 644.5 709 635.5 C 718.332031 626.5 725.832031 618.5 731.5 611.5 C 737.167969 604.5 743.167969 597 749.5 589 C 755.832031 581 760.5 573.167969 763.5 565.5 C 766.5 557.832031 768 550.667969 768 544 L 768 256 C 768 220.667969 780.5 190.5 805.5 165.5 C 830.5 140.5 860.667969 128 896 128 L 1536 128 C 1571.332031 128 1601.5 140.5 1626.5 165.5 C 1651.5 190.5 1664 220.667969 1664 256 L 1664 544 C 1664 583.332031 1683.667969 657.667969 1723 767 C 1769 893.667969 1792 999.332031 1792 1084 Z M 1792 1084 " fill="white" />
</g>
</svg>
