<?xml version="1.0" encoding="UTF-8"?>
<svg xmlns="http://www.w3.org/2000/svg" xmlns:xlink="http://www.w3.org/1999/xlink" width="2048" height="2048" viewBox="0 0 2048 2048" version="1.1">
<g>
<path d="M 1536 1728 C 1536 1710.667969 1529.667969 1695.667969 1517 1683 C 1504.332031 1670.332031 1489.332031 1664 1472 1664 C 1454.667969 1664 1439.667969 1670.332031 1427 1683 C 1414.332031 1695.667969 1408 1710.667969 1408 1728 C 1408 1745.332031 1414.332031 1760.332031 1427 1773 C 1439.667969 1785.667969 1454.667969 1792 1472 1792 C 1489.332031 1792 1504.332031 1785.667969 1517 1773 C 1529.667969 1760.332031 1536 1745.332031 1536 1728 Z M 1664 964 C 1664 838 1608.332031 775 1497 775 C 1479.667969 775 1461 776.667969 1441 780 C 1430.332031 760 1412.832031 744.167969 1388.5 732.5 C 1364.167969 720.832031 1339.667969 715 1315 715 C 1290.332031 715 1267.332031 721 1246 733 C 1212.667969 697.667969 1173 680 1127 680 C 1110.332031 680 1091.832031 683.332031 1071.5 690 C 1051.167969 696.667969 1035.332031 705 1024 715 L 1024 384 C 1024 349.332031 1011.332031 319.332031 986 294 C 960.667969 268.667969 930.667969 256 896 256 C 862 256 832.167969 269 806.5 295 C 780.832031 321 768 350.667969 768 384 L 768 960 C 754.667969 960 738.5 955 719.5 945 C 700.5 935 682.167969 924 664.5 912 C 646.832031 900 624.167969 889 596.5 879 C 568.832031 869 540.667969 864 512 864 C 467.332031 864 434.832031 878.832031 414.5 908.5 C 394.167969 938.167969 384 976.667969 384 1024 C 384 1040 430.332031 1070 523 1114 C 552.332031 1130 574 1142.332031 588 1151 C 630.667969 1177.667969 679 1215 733 1263 C 787 1310.332031 822.332031 1344 839 1364 C 877 1410 896 1456.667969 896 1504 L 896 1536 L 1536 1536 L 1536 1504 C 1536 1456 1546.667969 1400.332031 1568 1337 C 1589.332031 1273.667969 1610.667969 1209.167969 1632 1143.5 C 1653.332031 1077.832031 1664 1018 1664 964 Z M 1792 959 C 1792 1047.667969 1769 1155 1723 1281 C 1683.667969 1390.332031 1664 1464.667969 1664 1504 L 1664 1792 C 1664 1827.332031 1651.5 1857.5 1626.5 1882.5 C 1601.5 1907.5 1571.332031 1920 1536 1920 L 896 1920 C 860.667969 1920 830.5 1907.5 805.5 1882.5 C 780.5 1857.5 768 1827.332031 768 1792 L 768 1504 C 768 1497.332031 766.5 1490.167969 763.5 1482.5 C 760.5 1474.832031 755.832031 1467 749.5 1459 C 743.167969 1451 737.167969 1443.5 731.5 1436.5 C 725.832031 1429.5 718.332031 1421.5 709 1412.5 C 699.667969 1403.5 692.5 1396.667969 687.5 1392 C 682.5 1387.332031 675.332031 1381 666 1373 C 656.667969 1365 651 1360.332031 649 1359 C 599.667969 1315.667969 556.667969 1282.332031 520 1259 C 506 1250.332031 485.332031 1239.332031 458 1226 C 430.667969 1212.667969 406.667969 1200.332031 386 1189 C 365.332031 1177.667969 344.332031 1164.167969 323 1148.5 C 301.667969 1132.832031 285.167969 1114.5 273.5 1093.5 C 261.832031 1072.5 256 1049.332031 256 1024 C 256 940.667969 278.332031 871.832031 323 817.5 C 367.667969 763.167969 430.667969 736 512 736 C 557.332031 736 600 743.332031 640 758 L 640 384 C 640 314.667969 665.332031 254.667969 716 204 C 766.667969 153.332031 826.332031 128 895 128 C 965 128 1025.332031 153.167969 1076 203.5 C 1126.667969 253.832031 1152 314 1152 384 L 1152 553 C 1193.332031 555.667969 1233 568 1271 590 C 1285 588 1299.332031 587 1314 587 C 1381.332031 587 1440.667969 607 1492 647 C 1584.667969 646.332031 1657.832031 674.667969 1711.5 732 C 1765.167969 789.332031 1792 865 1792 959 Z M 1792 959 " fill="white" />
</g>
</svg>
