<svg width="2048" height="2048" viewBox="-128 -384 2048 2048" xmlns="http://www.w3.org/2000/svg"><g transform="scale(1 -1) translate(0 -1280)"><path d="M1376 128h32v640h-32q-35 0 -67.5 12t-62.5 37t-50 46t-49 54q-2 3 -3.5 4.5t-4 4.5t-4.5 5q-72 81 -112 145q-14 22 -38 68q-1 3 -10.5 22.5t-18.5 36t-20 35.5t-21.5 30.5t-18.5 11.5q-71 0 -115.5 -30.5t-44.5 -97.5q0 -43 15 -84.5t33 -68t33 -55t15 -48.5h-576 q-50 0 -89 -38.5t-39 -89.5q0 -52 38 -90t90 -38h331q-15 -17 -25 -47.5t-10 -55.5q0 -69 53 -119q-18 -32 -18 -69t17.5 -73.5t47.5 -52.5q-4 -24 -4 -56q0 -85 48.5 -126t135.5 -41q84 0 183 32t194 64t167 32zM1664 192q0 26 -19 45t-45 19t-45 -19t-19 -45t19 -45 t45 -19t45 19t19 45zM1792 768v-640q0 -53 -37.5 -90.5t-90.5 -37.5h-288q-59 0 -223 -59q-190 -69 -317 -69q-142 0 -230 77.5t-87 217.5l1 5q-61 76 -61 178q0 22 3 43q-33 57 -37 119h-169q-105 0 -180.5 76t-75.5 181q0 103 76 179t180 76h374q-22 60 -22 128 q0 122 81.5 189t206.5 67q38 0 69.5 -17.5t55 -49.5t40.5 -63t37 -72t33 -62q35 -55 100 -129q2 -3 14 -17t19 -21.5t20.5 -21.5t24 -22.5t22.5 -18t23.5 -14t21.5 -4.5h288q53 0 90.5 -37.5t37.5 -90.5z" fill="white" /></g></svg>