<?xml version="1.0" encoding="UTF-8"?>
<svg xmlns="http://www.w3.org/2000/svg" xmlns:xlink="http://www.w3.org/1999/xlink" width="2048" height="2048" viewBox="0 0 2048 2048" version="1.1">
<g>
<path d="M 1024 1792 C 1006.667969 1792 992 1786 980 1774 L 356 1172 C 349.332031 1166.667969 340.167969 1158 328.5 1146 C 316.832031 1134 298.332031 1112.167969 273 1080.5 C 247.667969 1048.832031 225 1016.332031 205 983 C 185 949.667969 167.167969 909.332031 151.5 862 C 135.832031 814.667969 128 768.667969 128 724 C 128 577.332031 170.332031 462.667969 255 380 C 339.667969 297.332031 456.667969 256 606 256 C 647.332031 256 689.5 263.167969 732.5 277.5 C 775.5 291.832031 815.5 311.167969 852.5 335.5 C 889.5 359.832031 921.332031 382.667969 948 404 C 974.667969 425.332031 1000 448 1024 472 C 1048 448 1073.332031 425.332031 1100 404 C 1126.667969 382.667969 1158.5 359.832031 1195.5 335.5 C 1232.5 311.167969 1272.5 291.832031 1315.5 277.5 C 1358.5 263.167969 1400.667969 256 1442 256 C 1591.332031 256 1708.332031 297.332031 1793 380 C 1877.667969 462.667969 1920 577.332031 1920 724 C 1920 871.332031 1843.667969 1021.332031 1691 1174 L 1068 1774 C 1056 1786 1041.332031 1792 1024 1792 Z M 1024 1792 " fill="white" />
</g>
</svg>
