<?xml version="1.0" encoding="UTF-8"?>
<svg xmlns="http://www.w3.org/2000/svg" xmlns:xlink="http://www.w3.org/1999/xlink" width="2048" height="2048" viewBox="0 0 2048 2048" version="1.1">
<g>
<path d="M 704 1440 L 704 1504 C 704 1512.667969 700.832031 1520.167969 694.5 1526.5 C 688.167969 1532.832031 680.667969 1536 672 1536 L 608 1536 C 599.332031 1536 591.832031 1532.832031 585.5 1526.5 C 579.167969 1520.167969 576 1512.667969 576 1504 L 576 1440 C 576 1431.332031 579.167969 1423.832031 585.5 1417.5 C 591.832031 1411.167969 599.332031 1408 608 1408 L 672 1408 C 680.667969 1408 688.167969 1411.167969 694.5 1417.5 C 700.832031 1423.832031 704 1431.332031 704 1440 Z M 704 1184 L 704 1248 C 704 1256.667969 700.832031 1264.167969 694.5 1270.5 C 688.167969 1276.832031 680.667969 1280 672 1280 L 608 1280 C 599.332031 1280 591.832031 1276.832031 585.5 1270.5 C 579.167969 1264.167969 576 1256.667969 576 1248 L 576 1184 C 576 1175.332031 579.167969 1167.832031 585.5 1161.5 C 591.832031 1155.167969 599.332031 1152 608 1152 L 672 1152 C 680.667969 1152 688.167969 1155.167969 694.5 1161.5 C 700.832031 1167.832031 704 1175.332031 704 1184 Z M 960 1184 L 960 1248 C 960 1256.667969 956.832031 1264.167969 950.5 1270.5 C 944.167969 1276.832031 936.667969 1280 928 1280 L 864 1280 C 855.332031 1280 847.832031 1276.832031 841.5 1270.5 C 835.167969 1264.167969 832 1256.667969 832 1248 L 832 1184 C 832 1175.332031 835.167969 1167.832031 841.5 1161.5 C 847.832031 1155.167969 855.332031 1152 864 1152 L 928 1152 C 936.667969 1152 944.167969 1155.167969 950.5 1161.5 C 956.832031 1167.832031 960 1175.332031 960 1184 Z M 704 928 L 704 992 C 704 1000.667969 700.832031 1008.167969 694.5 1014.5 C 688.167969 1020.832031 680.667969 1024 672 1024 L 608 1024 C 599.332031 1024 591.832031 1020.832031 585.5 1014.5 C 579.167969 1008.167969 576 1000.667969 576 992 L 576 928 C 576 919.332031 579.167969 911.832031 585.5 905.5 C 591.832031 899.167969 599.332031 896 608 896 L 672 896 C 680.667969 896 688.167969 899.167969 694.5 905.5 C 700.832031 911.832031 704 919.332031 704 928 Z M 1472 1440 L 1472 1504 C 1472 1512.667969 1468.832031 1520.167969 1462.5 1526.5 C 1456.167969 1532.832031 1448.667969 1536 1440 1536 L 1376 1536 C 1367.332031 1536 1359.832031 1532.832031 1353.5 1526.5 C 1347.167969 1520.167969 1344 1512.667969 1344 1504 L 1344 1440 C 1344 1431.332031 1347.167969 1423.832031 1353.5 1417.5 C 1359.832031 1411.167969 1367.332031 1408 1376 1408 L 1440 1408 C 1448.667969 1408 1456.167969 1411.167969 1462.5 1417.5 C 1468.832031 1423.832031 1472 1431.332031 1472 1440 Z M 1216 1184 L 1216 1248 C 1216 1256.667969 1212.832031 1264.167969 1206.5 1270.5 C 1200.167969 1276.832031 1192.667969 1280 1184 1280 L 1120 1280 C 1111.332031 1280 1103.832031 1276.832031 1097.5 1270.5 C 1091.167969 1264.167969 1088 1256.667969 1088 1248 L 1088 1184 C 1088 1175.332031 1091.167969 1167.832031 1097.5 1161.5 C 1103.832031 1155.167969 1111.332031 1152 1120 1152 L 1184 1152 C 1192.667969 1152 1200.167969 1155.167969 1206.5 1161.5 C 1212.832031 1167.832031 1216 1175.332031 1216 1184 Z M 960 928 L 960 992 C 960 1000.667969 956.832031 1008.167969 950.5 1014.5 C 944.167969 1020.832031 936.667969 1024 928 1024 L 864 1024 C 855.332031 1024 847.832031 1020.832031 841.5 1014.5 C 835.167969 1008.167969 832 1000.667969 832 992 L 832 928 C 832 919.332031 835.167969 911.832031 841.5 905.5 C 847.832031 899.167969 855.332031 896 864 896 L 928 896 C 936.667969 896 944.167969 899.167969 950.5 905.5 C 956.832031 911.832031 960 919.332031 960 928 Z M 1472 1184 L 1472 1248 C 1472 1256.667969 1468.832031 1264.167969 1462.5 1270.5 C 1456.167969 1276.832031 1448.667969 1280 1440 1280 L 1376 1280 C 1367.332031 1280 1359.832031 1276.832031 1353.5 1270.5 C 1347.167969 1264.167969 1344 1256.667969 1344 1248 L 1344 1184 C 1344 1175.332031 1347.167969 1167.832031 1353.5 1161.5 C 1359.832031 1155.167969 1367.332031 1152 1376 1152 L 1440 1152 C 1448.667969 1152 1456.167969 1155.167969 1462.5 1161.5 C 1468.832031 1167.832031 1472 1175.332031 1472 1184 Z M 1216 928 L 1216 992 C 1216 1000.667969 1212.832031 1008.167969 1206.5 1014.5 C 1200.167969 1020.832031 1192.667969 1024 1184 1024 L 1120 1024 C 1111.332031 1024 1103.832031 1020.832031 1097.5 1014.5 C 1091.167969 1008.167969 1088 1000.667969 1088 992 L 1088 928 C 1088 919.332031 1091.167969 911.832031 1097.5 905.5 C 1103.832031 899.167969 1111.332031 896 1120 896 L 1184 896 C 1192.667969 896 1200.167969 899.167969 1206.5 905.5 C 1212.832031 911.832031 1216 919.332031 1216 928 Z M 1472 928 L 1472 992 C 1472 1000.667969 1468.832031 1008.167969 1462.5 1014.5 C 1456.167969 1020.832031 1448.667969 1024 1440 1024 L 1376 1024 C 1367.332031 1024 1359.832031 1020.832031 1353.5 1014.5 C 1347.167969 1008.167969 1344 1000.667969 1344 992 L 1344 928 C 1344 919.332031 1347.167969 911.832031 1353.5 905.5 C 1359.832031 899.167969 1367.332031 896 1376 896 L 1440 896 C 1448.667969 896 1456.167969 899.167969 1462.5 905.5 C 1468.832031 911.832031 1472 919.332031 1472 928 Z M 1216 1792 L 1600 1792 L 1600 640 L 1344 640 L 1344 672 C 1344 698.667969 1334.667969 721.332031 1316 740 C 1297.332031 758.667969 1274.667969 768 1248 768 L 800 768 C 773.332031 768 750.667969 758.667969 732 740 C 713.332031 721.332031 704 698.667969 704 672 L 704 640 L 448 640 L 448 1792 L 832 1792 L 832 1568 C 832 1559.332031 835.167969 1551.832031 841.5 1545.5 C 847.832031 1539.167969 855.332031 1536 864 1536 L 1184 1536 C 1192.667969 1536 1200.167969 1539.167969 1206.5 1545.5 C 1212.832031 1551.832031 1216 1559.332031 1216 1568 Z M 1216 608 L 1216 288 C 1216 279.332031 1212.832031 271.832031 1206.5 265.5 C 1200.167969 259.167969 1192.667969 256 1184 256 L 1120 256 C 1111.332031 256 1103.832031 259.167969 1097.5 265.5 C 1091.167969 271.832031 1088 279.332031 1088 288 L 1088 384 L 960 384 L 960 288 C 960 279.332031 956.832031 271.832031 950.5 265.5 C 944.167969 259.167969 936.667969 256 928 256 L 864 256 C 855.332031 256 847.832031 259.167969 841.5 265.5 C 835.167969 271.832031 832 279.332031 832 288 L 832 608 C 832 616.667969 835.167969 624.167969 841.5 630.5 C 847.832031 636.832031 855.332031 640 864 640 L 928 640 C 936.667969 640 944.167969 636.832031 950.5 630.5 C 956.832031 624.167969 960 616.667969 960 608 L 960 512 L 1088 512 L 1088 608 C 1088 616.667969 1091.167969 624.167969 1097.5 630.5 C 1103.832031 636.832031 1111.332031 640 1120 640 L 1184 640 C 1192.667969 640 1200.167969 636.832031 1206.5 630.5 C 1212.832031 624.167969 1216 616.667969 1216 608 Z M 1728 576 L 1728 1856 C 1728 1873.332031 1721.667969 1888.332031 1709 1901 C 1696.332031 1913.667969 1681.332031 1920 1664 1920 L 384 1920 C 366.667969 1920 351.667969 1913.667969 339 1901 C 326.332031 1888.332031 320 1873.332031 320 1856 L 320 576 C 320 558.667969 326.332031 543.667969 339 531 C 351.667969 518.332031 366.667969 512 384 512 L 704 512 L 704 224 C 704 197.332031 713.332031 174.667969 732 156 C 750.667969 137.332031 773.332031 128 800 128 L 1248 128 C 1274.667969 128 1297.332031 137.332031 1316 156 C 1334.667969 174.667969 1344 197.332031 1344 224 L 1344 512 L 1664 512 C 1681.332031 512 1696.332031 518.332031 1709 531 C 1721.667969 543.667969 1728 558.667969 1728 576 Z M 1728 576 " fill="white" />
</g>
</svg>
