<?xml version="1.0" encoding="UTF-8"?>
<svg xmlns="http://www.w3.org/2000/svg" xmlns:xlink="http://www.w3.org/1999/xlink" width="2048" height="2048" viewBox="0 0 2048 2048" version="1.1">
<g>
<path d="M 1279 1088 L 1595 1088 C 1594.332031 1086 1593.5 1083.332031 1592.5 1080 C 1591.5 1076.667969 1590.667969 1074 1590 1072 L 1378 576 L 670 576 L 458 1072 C 457.332031 1073.332031 456.5 1076 455.5 1080 C 454.5 1084 453.667969 1086.667969 453 1088 L 769 1088 L 864 1280 L 1184 1280 Z M 1792 1118 L 1792 1600 C 1792 1617.332031 1785.667969 1632.332031 1773 1645 C 1760.332031 1657.667969 1745.332031 1664 1728 1664 L 320 1664 C 302.667969 1664 287.667969 1657.667969 275 1645 C 262.332031 1632.332031 256 1617.332031 256 1600 L 256 1118 C 256 1076.667969 264.332031 1035.667969 281 995 L 519 443 C 525.667969 426.332031 537.832031 412.332031 555.5 401 C 573.167969 389.667969 590.667969 384 608 384 L 1440 384 C 1457.332031 384 1474.832031 389.667969 1492.5 401 C 1510.167969 412.332031 1522.332031 426.332031 1529 443 L 1767 995 C 1783.667969 1035.667969 1792 1076.667969 1792 1118 Z M 1792 1118 " fill="white" />
</g>
</svg>
