<?xml version="1.0" encoding="UTF-8"?>
<svg xmlns="http://www.w3.org/2000/svg" xmlns:xlink="http://www.w3.org/1999/xlink" width="2048" height="2048" viewBox="0 0 2048 2048" version="1.1">
<g>
<path d="M 1473 598 L 1473 700 C 1473 709.332031 1470 717 1464 723 C 1458 729 1450.332031 732 1441 732 L 1273 732 C 1257.667969 828 1214.667969 906 1144 966 C 1073.332031 1026 981.332031 1062.667969 868 1076 C 979.332031 1194.667969 1132.332031 1373.332031 1327 1612 C 1336.332031 1622.667969 1337.667969 1634 1331 1646 C 1325.667969 1658 1316 1664 1302 1664 L 1107 1664 C 1096.332031 1664 1088 1660 1082 1652 C 878 1407.332031 712 1217 584 1081 C 578 1075 575 1067.667969 575 1059 L 575 932 C 575 923.332031 578.167969 915.832031 584.5 909.5 C 590.832031 903.167969 598.332031 900 607 900 L 719 900 C 807 900 877.832031 885.667969 931.5 857 C 985.167969 828.332031 1019.332031 786.667969 1034 732 L 607 732 C 597.667969 732 590 729 584 723 C 578 717 575 709.332031 575 700 L 575 598 C 575 588.667969 578 581 584 575 C 590 569 597.667969 566 607 566 L 1020 566 C 982 490.667969 892.667969 453 752 453 L 607 453 C 598.332031 453 590.832031 449.832031 584.5 443.5 C 578.167969 437.167969 575 429.667969 575 421 L 575 288 C 575 278.667969 578 271 584 265 C 590 259 597.667969 256 607 256 L 1439 256 C 1448.332031 256 1456 259 1462 265 C 1468 271 1471 278.667969 1471 288 L 1471 390 C 1471 399.332031 1468 407 1462 413 C 1456 419 1448.332031 422 1439 422 L 1206 422 C 1237.332031 462.667969 1258.667969 510.667969 1270 566 L 1441 566 C 1450.332031 566 1458 569 1464 575 C 1470 581 1473 588.667969 1473 598 Z M 1473 598 " fill="white" />
</g>
</svg>
