<?xml version="1.0" encoding="UTF-8" standalone="no"?>
<svg
   xmlns:dc="http://purl.org/dc/elements/1.1/"
   xmlns:cc="http://creativecommons.org/ns#"
   xmlns:rdf="http://www.w3.org/1999/02/22-rdf-syntax-ns#"
   xmlns:svg="http://www.w3.org/2000/svg"
   xmlns="http://www.w3.org/2000/svg"
   xmlns:sodipodi="http://sodipodi.sourceforge.net/DTD/sodipodi-0.dtd"
   xmlns:inkscape="http://www.inkscape.org/namespaces/inkscape"
   width="1792"
   height="1792"
   viewBox="0 0 1792 1792"
   id="svg2"
   version="1.1"
   inkscape:version="0.91 r13725"
   sodipodi:docname="instagram.svg">
  <metadata
     id="metadata10">
    <rdf:RDF>
      <cc:Work
         rdf:about="">
        <dc:format>image/svg+xml</dc:format>
        <dc:type
           rdf:resource="http://purl.org/dc/dcmitype/StillImage" />
      </cc:Work>
    </rdf:RDF>
  </metadata>
  <defs
     id="defs8" />
  <sodipodi:namedview
     pagecolor="#ffffff"
     bordercolor="#666666"
     borderopacity="1"
     objecttolerance="10"
     gridtolerance="10"
     guidetolerance="10"
     inkscape:pageopacity="0"
     inkscape:pageshadow="2"
     inkscape:window-width="1366"
     inkscape:window-height="706"
     id="namedview6"
     showgrid="false"
     inkscape:zoom="0.13169643"
     inkscape:cx="-341.69491"
     inkscape:cy="896.00001"
     inkscape:window-x="0"
     inkscape:window-y="0"
     inkscape:window-maximized="1"
     inkscape:current-layer="svg2" />
  <g
     id="g12"
     transform="matrix(0.30485808,0,0,-0.30485808,128,1664)"
     style="fill:#ffffff">
    <path
       d="m 2519.21,4584.5 c 672.65,0 752.33,-2.57 1017.97,-14.69 245.62,-11.2 379.01,-52.24 467.78,-86.74 117.59,-45.7 201.51,-100.29 289.66,-188.44 88.16,-88.16 142.75,-172.08 188.45,-289.67 34.5,-88.77 75.54,-222.16 86.75,-467.78 12.11,-265.64 14.68,-345.32 14.68,-1017.98 0,-672.65 -2.57,-752.33 -14.68,-1017.97 -11.21,-245.62 -52.25,-379.01 -86.75,-467.78 -45.7,-117.591 -100.29,-201.509 -188.44,-289.661 -88.16,-88.156 -172.08,-142.75 -289.67,-188.449 -88.77,-34.5 -222.16,-75.535 -467.78,-86.746 -265.61,-12.117 -345.27,-14.684 -1017.97,-14.684 -672.71,0 -752.37,2.567 -1017.98,14.684 -245.62,11.211 -379.01,52.246 -467.78,86.746 -117.591,45.699 -201.509,100.293 -289.661,188.445 -88.152,88.153 -142.75,172.074 -188.449,289.665 -34.5,88.77 -75.535,222.16 -86.742,467.78 -12.121,265.64 -14.688,345.32 -14.688,1017.97 0,672.66 2.567,752.34 14.688,1017.98 11.207,245.62 52.242,379.01 86.742,467.78 45.699,117.59 100.293,201.51 188.445,289.66 88.156,88.16 172.074,142.75 289.665,188.45 88.77,34.5 222.16,75.54 467.78,86.74 265.65,12.12 345.32,14.69 1017.98,14.69 m 0,453.91 c -684.18,0 -769.97,-2.9 -1038.67,-15.16 -268.15,-12.23 -451.27,-54.82 -611.513,-117.09 C 703.371,4841.78 562.875,4755.64 422.824,4615.59 282.773,4475.54 196.633,4335.04 132.254,4169.38 69.9766,4009.14 27.3906,3826.02 15.1563,3557.87 2.89844,3289.17 0,3203.38 0,2519.2 0,1835.03 2.89844,1749.24 15.1563,1480.54 27.3906,1212.39 69.9766,1029.27 132.254,869.027 196.633,703.371 282.773,562.875 422.824,422.824 562.875,282.773 703.371,196.633 869.027,132.254 1029.27,69.9766 1212.39,27.3906 1480.54,15.1563 1749.24,2.89453 1835.03,0 2519.21,0 c 684.17,0 769.96,2.89453 1038.66,15.1563 268.15,12.2343 451.27,54.8203 611.51,117.0977 165.66,64.379 306.16,150.519 446.21,290.57 140.05,140.051 226.19,280.543 290.57,446.203 62.27,160.243 104.86,343.363 117.09,611.513 12.26,268.7 15.16,354.49 15.16,1038.66 0,684.18 -2.9,769.97 -15.16,1038.67 -12.23,268.15 -54.82,451.27 -117.09,611.51 -64.38,165.66 -150.52,306.16 -290.57,446.21 -140.05,140.05 -280.55,226.19 -446.21,290.57 -160.24,62.27 -343.36,104.86 -611.51,117.09 -268.7,12.26 -354.49,15.16 -1038.66,15.16 l 0,0"
       style="fill-opacity:1;fill-rule:nonzero;stroke:none;fill:#ffffff"
       id="path14"
       inkscape:connector-curvature="0" />
    <path
       d="m 2519.21,3812.85 c -714.46,0 -1293.65,-579.19 -1293.65,-1293.65 0,-714.46 579.19,-1293.64 1293.65,-1293.64 714.46,0 1293.64,579.18 1293.64,1293.64 0,714.46 -579.18,1293.65 -1293.64,1293.65 z m 0,-2133.38 c -463.78,0 -839.74,375.96 -839.74,839.73 0,463.78 375.96,839.74 839.74,839.74 463.77,0 839.73,-375.96 839.73,-839.74 0,-463.77 -375.96,-839.73 -839.73,-839.73"
       style="fill-opacity:1;fill-rule:nonzero;stroke:none;fill:#ffffff"
       id="path16"
       inkscape:connector-curvature="0" />
    <path
       d="m 4166.27,3863.96 c 0,-166.96 -135.35,-302.3 -302.31,-302.3 -166.96,0 -302.3,135.34 -302.3,302.3 0,166.96 135.34,302.31 302.3,302.31 166.96,0 302.31,-135.35 302.31,-302.31"
       style="fill-opacity:1;fill-rule:nonzero;stroke:none;fill:#ffffff"
       id="path18"
       inkscape:connector-curvature="0" />
  </g>
</svg>
