<svg width="2048" height="2048" viewBox="-256 -384 2048 2048" xmlns="http://www.w3.org/2000/svg"><g transform="scale(1 -1) translate(0 -1280)"><path d="M1362 110v648h-135q20 -63 20 -131q0 -126 -64 -232.5t-174 -168.5t-240 -62q-197 0 -337 135.5t-140 327.5q0 68 20 131h-141v-648q0 -26 17.5 -43.5t43.5 -17.5h1069q25 0 43 17.5t18 43.5zM1078 643q0 124 -90.5 211.5t-218.5 87.5q-127 0 -217.5 -87.5t-90.5 -211.5 t90.5 -211.5t217.5 -87.5q128 0 218.5 87.5t90.5 211.5zM1362 1003v165q0 28 -20 48.5t-49 20.5h-174q-29 0 -49 -20.5t-20 -48.5v-165q0 -29 20 -49t49 -20h174q29 0 49 20t20 49zM1536 1211v-1142q0 -81 -58 -139t-139 -58h-1142q-81 0 -139 58t-58 139v1142q0 81 58 139 t139 58h1142q81 0 139 -58t58 -139z" fill="white" /></g></svg>