<?xml version="1.0" encoding="UTF-8"?>
<svg xmlns="http://www.w3.org/2000/svg" xmlns:xlink="http://www.w3.org/1999/xlink" width="2048" height="2048" viewBox="0 0 2048 2048" version="1.1">
<g>
<path d="M 512 1790 L 529 1705 C 531.667969 1704.332031 557.332031 1697.667969 606 1685 C 656.667969 1672.332031 695.332031 1659.332031 722 1646 C 741.332031 1621.332031 755 1587.667969 763 1545 L 790 1406 L 846 1138 L 858 1074 C 863.332031 1044.667969 869 1016.5 875 989.5 C 881 962.5 886.332031 940.167969 891 922.5 C 895.667969 904.832031 899.832031 889.332031 903.5 876 C 907.167969 862.667969 910.167969 852.5 912.5 845.5 C 914.832031 838.5 916 834.667969 916 834 L 945 677 L 961 614 L 983 479 L 991 429 L 991 391 C 963.667969 376.332031 915.667969 367 847 363 C 828.332031 361.667969 815.667969 360.332031 809 359 L 828 256 L 1145 270 C 1171 271.332031 1195.332031 272 1218 272 C 1262 272 1333.332031 269 1432 263 C 1454 261.667969 1476.667969 260.167969 1500 258.5 C 1523.332031 256.832031 1535.332031 256 1536 256 C 1534.667969 268.667969 1532.667969 281.332031 1530 294 C 1525.332031 313.332031 1521 330.332031 1517 345 C 1480.332031 357.667969 1444 368 1408 376 C 1365.332031 386.667969 1331.667969 397 1307 407 C 1299 427.667969 1291 457 1283 495 C 1277 524.332031 1272.667969 551.667969 1270 577 C 1240.667969 709.667969 1218.667969 811.667969 1204 883 L 1143 1194 L 1105 1352 L 1062 1587 L 1050 1632 C 1048.667969 1636.667969 1049 1645.667969 1051 1659 C 1093.667969 1669 1133.332031 1676 1170 1680 C 1194 1683.332031 1216 1686.667969 1236 1690 C 1235.332031 1709.332031 1233 1728.667969 1229 1748 C 1224.332031 1768.667969 1221.332031 1782.332031 1220 1789 C 1208 1789 1200.332031 1789.332031 1197 1790 C 1181 1791.332031 1167 1792 1155 1792 C 1149 1792 1139.667969 1791 1127 1789 C 1114.332031 1786.332031 1066 1780.667969 982 1772 L 784 1770 C 756.667969 1769.332031 698.667969 1773 610 1781 C 560.667969 1785.667969 528 1788.667969 512 1790 Z M 512 1790 " fill="white" />
</g>
</svg>
