<?xml version="1.0" encoding="UTF-8"?>
<svg xmlns="http://www.w3.org/2000/svg" xmlns:xlink="http://www.w3.org/1999/xlink" width="2048" height="2048" viewBox="0 0 2048 2048" version="1.1">
<g>
<path d="M 1113.5 1664 L 941.5 1664 C 932.832031 1664 925.332031 1661 919 1655 C 912.667969 1649 909.5 1641.332031 909.5 1632 L 909.5 1302 L 621.5 1302 C 612.832031 1302 605.332031 1299 599 1293 C 592.667969 1287 589.5 1279.332031 589.5 1270 L 589.5 1167 C 589.5 1158.332031 592.667969 1150.832031 599 1144.5 C 605.332031 1138.167969 612.832031 1135 621.5 1135 L 909.5 1135 L 909.5 1050 L 621.5 1050 C 612.832031 1050 605.332031 1047 599 1041 C 592.667969 1035 589.5 1027.332031 589.5 1018 L 589.5 914 C 589.5 905.332031 592.667969 897.832031 599 891.5 C 605.332031 885.167969 612.832031 882 621.5 882 L 835.5 882 L 514.5 304 C 509.167969 293.332031 509.167969 282.667969 514.5 272 C 521.167969 261.332031 530.5 256 542.5 256 L 736.5 256 C 749.167969 256 758.832031 262 765.5 274 L 980.5 699 C 993.167969 724.332031 1011.832031 766 1036.5 824 C 1043.167969 808 1053.332031 785.332031 1067 756 C 1080.667969 726.667969 1089.832031 706.332031 1094.5 695 L 1285.5 275 C 1290.832031 262.332031 1300.5 256 1314.5 256 L 1505.5 256 C 1516.832031 256 1525.832031 261.332031 1532.5 272 C 1538.5 281.332031 1538.832031 291.667969 1533.5 303 L 1220.5 882 L 1435.5 882 C 1444.167969 882 1451.667969 885.167969 1458 891.5 C 1464.332031 897.832031 1467.5 905.332031 1467.5 914 L 1467.5 1018 C 1467.5 1027.332031 1464.332031 1035 1458 1041 C 1451.667969 1047 1444.167969 1050 1435.5 1050 L 1145.5 1050 L 1145.5 1135 L 1435.5 1135 C 1444.167969 1135 1451.667969 1138.167969 1458 1144.5 C 1464.332031 1150.832031 1467.5 1158.332031 1467.5 1167 L 1467.5 1270 C 1467.5 1279.332031 1464.332031 1287 1458 1293 C 1451.667969 1299 1444.167969 1302 1435.5 1302 L 1145.5 1302 L 1145.5 1632 C 1145.5 1640.667969 1142.332031 1648.167969 1136 1654.5 C 1129.667969 1660.832031 1122.167969 1664 1113.5 1664 Z M 1113.5 1664 " fill="white" />
</g>
</svg>
