<?xml version="1.0" encoding="UTF-8"?>
<svg xmlns="http://www.w3.org/2000/svg" xmlns:xlink="http://www.w3.org/1999/xlink" width="2048" height="2048" viewBox="0 0 2048 2048" version="1.1">
<g>
<path d="M 960 640 C 960 586.667969 941.332031 541.332031 904 504 C 866.667969 466.667969 821.332031 448 768 448 C 714.667969 448 669.332031 466.667969 632 504 C 594.667969 541.332031 576 586.667969 576 640 C 576 668 582.332031 695.667969 595 723 C 567.667969 710.332031 540 704 512 704 C 458.667969 704 413.332031 722.667969 376 760 C 338.667969 797.332031 320 842.667969 320 896 C 320 949.332031 338.667969 994.667969 376 1032 C 413.332031 1069.332031 458.667969 1088 512 1088 C 565.332031 1088 610.667969 1069.332031 648 1032 C 685.332031 994.667969 704 949.332031 704 896 C 704 868 697.667969 840.332031 685 813 C 712.332031 825.667969 740 832 768 832 C 821.332031 832 866.667969 813.332031 904 776 C 941.332031 738.667969 960 693.332031 960 640 Z M 1811 1344 C 1811 1355.332031 1794.667969 1377.332031 1762 1410 C 1729.332031 1442.667969 1707.332031 1459 1696 1459 C 1690 1459 1680.5 1453.667969 1667.5 1443 C 1654.5 1432.332031 1642.332031 1421.332031 1631 1410 C 1619.667969 1398.667969 1606.832031 1385.332031 1592.5 1370 C 1578.167969 1354.667969 1570 1346 1568 1344 L 1472 1440 L 1692 1660 C 1710.667969 1678.667969 1720 1701.332031 1720 1728 C 1720 1756 1707 1783 1681 1809 C 1655 1835 1628 1848 1600 1848 C 1573.332031 1848 1550.667969 1838.667969 1532 1820 L 861 1149 C 743.667969 1236.332031 622 1280 496 1280 C 387.332031 1280 298.832031 1245.832031 230.5 1177.5 C 162.167969 1109.167969 128 1020.667969 128 912 C 128 805.332031 159.667969 701 223 599 C 286.332031 497 369 414.332031 471 351 C 573 287.667969 677.332031 256 784 256 C 892.667969 256 981.167969 290.167969 1049.5 358.5 C 1117.832031 426.832031 1152 515.332031 1152 624 C 1152 750 1108.332031 871.667969 1021 989 L 1376 1344 L 1472 1248 C 1470 1246 1461.332031 1237.832031 1446 1223.5 C 1430.667969 1209.167969 1417.332031 1196.332031 1406 1185 C 1394.667969 1173.667969 1383.667969 1161.5 1373 1148.5 C 1362.332031 1135.5 1357 1126 1357 1120 C 1357 1108.667969 1373.332031 1086.667969 1406 1054 C 1438.667969 1021.332031 1460.667969 1005 1472 1005 C 1480.667969 1005 1488.332031 1008.332031 1495 1015 C 1499 1019 1514.332031 1033.832031 1541 1059.5 C 1567.667969 1085.167969 1595 1111.667969 1623 1139 C 1651 1166.332031 1679.832031 1195 1709.5 1225 C 1739.167969 1255 1763.5 1281 1782.5 1303 C 1801.5 1325 1811 1338.667969 1811 1344 Z M 1811 1344 " fill="white" />
</g>
</svg>
