<svg width="2048" height="2048" viewBox="-64 -384 2048 2048" xmlns="http://www.w3.org/2000/svg"><g transform="scale(1 -1) translate(0 -1280)"><path d="M384 368v-96q0 -16 -16 -16h-96q-16 0 -16 16v96q0 16 16 16h96q16 0 16 -16zM512 624v-96q0 -16 -16 -16h-224q-16 0 -16 16v96q0 16 16 16h224q16 0 16 -16zM384 880v-96q0 -16 -16 -16h-96q-16 0 -16 16v96q0 16 16 16h96q16 0 16 -16zM1408 368v-96q0 -16 -16 -16 h-864q-16 0 -16 16v96q0 16 16 16h864q16 0 16 -16zM768 624v-96q0 -16 -16 -16h-96q-16 0 -16 16v96q0 16 16 16h96q16 0 16 -16zM640 880v-96q0 -16 -16 -16h-96q-16 0 -16 16v96q0 16 16 16h96q16 0 16 -16zM1024 624v-96q0 -16 -16 -16h-96q-16 0 -16 16v96q0 16 16 16 h96q16 0 16 -16zM896 880v-96q0 -16 -16 -16h-96q-16 0 -16 16v96q0 16 16 16h96q16 0 16 -16zM1280 624v-96q0 -16 -16 -16h-96q-16 0 -16 16v96q0 16 16 16h96q16 0 16 -16zM1664 368v-96q0 -16 -16 -16h-96q-16 0 -16 16v96q0 16 16 16h96q16 0 16 -16zM1152 880v-96 q0 -16 -16 -16h-96q-16 0 -16 16v96q0 16 16 16h96q16 0 16 -16zM1408 880v-96q0 -16 -16 -16h-96q-16 0 -16 16v96q0 16 16 16h96q16 0 16 -16zM1664 880v-352q0 -16 -16 -16h-224q-16 0 -16 16v96q0 16 16 16h112v240q0 16 16 16h96q16 0 16 -16zM1792 128v896h-1664v-896 h1664zM1920 1024v-896q0 -53 -37.5 -90.5t-90.5 -37.5h-1664q-53 0 -90.5 37.5t-37.5 90.5v896q0 53 37.5 90.5t90.5 37.5h1664q53 0 90.5 -37.5t37.5 -90.5z" fill="white" /></g></svg>