<?xml version="1.0" encoding="UTF-8"?>
<svg xmlns="http://www.w3.org/2000/svg" xmlns:xlink="http://www.w3.org/1999/xlink" width="2048" height="2048" viewBox="0 0 2048 2048" version="1.1">
<g>
<path d="M 642 1323 L 723 1024 L 564 1024 L 639 1324 C 639.667969 1324.667969 640 1325.667969 640 1327 C 640 1328.332031 640.332031 1329.332031 641 1330 C 641 1329.332031 641.167969 1328.167969 641.5 1326.5 C 641.832031 1324.832031 642 1323.667969 642 1323 Z M 758 896 L 793 768 L 501 768 L 533 896 Z M 950 896 L 1089 896 L 1054 768 L 984 768 Z M 1399 1324 L 1477 1024 L 1315 1024 L 1396 1323 C 1396 1323.667969 1396.167969 1324.832031 1396.5 1326.5 C 1396.832031 1328.167969 1397.332031 1329.332031 1398 1330 C 1398 1329.332031 1398.167969 1328.332031 1398.5 1327 C 1398.832031 1325.667969 1399 1324.667969 1399 1324 Z M 1510 896 L 1543 768 L 1246 768 L 1280 896 Z M 1920 928 L 1920 992 C 1920 1001.332031 1917 1009 1911 1015 C 1905 1021 1897.332031 1024 1888 1024 L 1675 1024 L 1511 1640 C 1506.332031 1656 1496 1664 1480 1664 L 1321 1664 C 1305 1664 1294.667969 1656 1290 1640 L 1124 1024 L 915 1024 L 748 1640 C 743.332031 1656 733 1664 717 1664 L 558 1664 C 550.667969 1664 544.167969 1661.667969 538.5 1657 C 532.832031 1652.332031 529.332031 1646.667969 528 1640 L 368 1024 L 160 1024 C 150.667969 1024 143 1021 137 1015 C 131 1009 128 1001.332031 128 992 L 128 928 C 128 918.667969 131 911 137 905 C 143 899 150.667969 896 160 896 L 335 896 L 302 768 L 160 768 C 150.667969 768 143 765 137 759 C 131 753 128 745.332031 128 736 L 128 672 C 128 662.667969 131 655 137 649 C 143 643 150.667969 640 160 640 L 269 640 L 180 296 C 176.667969 286 178.332031 276.667969 185 268 C 191.667969 260 200.332031 256 211 256 L 348 256 C 365.332031 256 375.667969 264 379 280 L 469 640 L 828 640 L 925 280 C 929.667969 264 940 256 956 256 L 1082 256 C 1098 256 1108.332031 264 1113 280 L 1211 640 L 1576 640 L 1669 280 C 1672.332031 264 1682.667969 256 1700 256 L 1837 256 C 1847.667969 256 1856.332031 260 1863 268 C 1869.667969 276.667969 1871.332031 286 1868 296 L 1777 640 L 1888 640 C 1897.332031 640 1905 643 1911 649 C 1917 655 1920 662.667969 1920 672 L 1920 736 C 1920 745.332031 1917 753 1911 759 C 1905 765 1897.332031 768 1888 768 L 1743 768 L 1709 896 L 1888 896 C 1897.332031 896 1905 899 1911 905 C 1917 911 1920 918.667969 1920 928 Z M 1920 928 " fill="white" />
</g>
</svg>
