<?xml version="1.0" encoding="UTF-8"?>
<svg xmlns="http://www.w3.org/2000/svg" xmlns:xlink="http://www.w3.org/1999/xlink" width="2048" height="2048" viewBox="0 0 2048 2048" version="1.1">
<g>
<path d="M 480 1408 C 436 1408 398.332031 1392.332031 367 1361 C 335.667969 1329.667969 320 1292 320 1248 L 320 544 C 320 500 335.667969 462.332031 367 431 C 398.332031 399.667969 436 384 480 384 L 1568 384 C 1612 384 1649.667969 399.667969 1681 431 C 1712.332031 462.332031 1728 500 1728 544 L 1728 1248 C 1728 1292 1712.332031 1329.667969 1681 1361 C 1649.667969 1392.332031 1612 1408 1568 1408 Z M 448 544 L 448 1248 C 448 1256.667969 451.167969 1264.167969 457.5 1270.5 C 463.832031 1276.832031 471.332031 1280 480 1280 L 1568 1280 C 1576.667969 1280 1584.167969 1276.832031 1590.5 1270.5 C 1596.832031 1264.167969 1600 1256.667969 1600 1248 L 1600 544 C 1600 535.332031 1596.832031 527.832031 1590.5 521.5 C 1584.167969 515.167969 1576.667969 512 1568 512 L 480 512 C 471.332031 512 463.832031 515.167969 457.5 521.5 C 451.167969 527.832031 448 535.332031 448 544 Z M 1824 1472 L 1984 1472 L 1984 1568 C 1984 1594.667969 1968.332031 1617.332031 1937 1636 C 1905.667969 1654.667969 1868 1664 1824 1664 L 224 1664 C 180 1664 142.332031 1654.667969 111 1636 C 79.667969 1617.332031 64 1594.667969 64 1568 L 64 1472 Z M 1104 1568 C 1114.667969 1568 1120 1562.667969 1120 1552 C 1120 1541.332031 1114.667969 1536 1104 1536 L 944 1536 C 933.332031 1536 928 1541.332031 928 1552 C 928 1562.667969 933.332031 1568 944 1568 Z M 1104 1568 " fill="white" />
</g>
</svg>
