<svg width="2048" height="2048" viewBox="-64 -384 2048 2048" xmlns="http://www.w3.org/2000/svg"><g transform="scale(1 -1) translate(0 -1280)"><path d="M416 256q-66 0 -113 47t-47 113v704q0 66 47 113t113 47h1088q66 0 113 -47t47 -113v-704q0 -66 -47 -113t-113 -47h-1088zM384 1120v-704q0 -13 9.5 -22.5t22.5 -9.5h1088q13 0 22.5 9.5t9.5 22.5v704q0 13 -9.5 22.5t-22.5 9.5h-1088q-13 0 -22.5 -9.5t-9.5 -22.5z M1760 192h160v-96q0 -40 -47 -68t-113 -28h-1600q-66 0 -113 28t-47 68v96h160h1600zM1040 96q16 0 16 16t-16 16h-160q-16 0 -16 -16t16 -16h160z" fill="white" /></g></svg>