<?xml version="1.0" encoding="UTF-8"?>
<svg xmlns="http://www.w3.org/2000/svg" xmlns:xlink="http://www.w3.org/1999/xlink" width="2048" height="2048" viewBox="0 0 2048 2048" version="1.1">
<g>
<path d="M 1530 731 C 1518 755.667969 1498.667969 768 1472 768 L 1280 768 L 1280 1632 C 1280 1641.332031 1277 1649 1271 1655 C 1265 1661 1257.332031 1664 1248 1664 L 544 1664 C 530 1664 520.332031 1658 515 1646 C 509.667969 1632.667969 511 1621 519 1611 L 679 1419 C 685 1411.667969 693.332031 1408 704 1408 L 1024 1408 L 1024 768 L 832 768 C 805.332031 768 786 755.667969 774 731 C 762.667969 706.332031 765.667969 683.667969 783 663 L 1103 279 C 1115 264.332031 1131.332031 257 1152 257 C 1172.667969 257 1189 264.332031 1201 279 L 1521 663 C 1539 684.332031 1542 707 1530 731 Z M 1530 731 " fill="white" />
</g>
</svg>
