<?xml version="1.0" encoding="UTF-8"?>
<svg xmlns="http://www.w3.org/2000/svg" xmlns:xlink="http://www.w3.org/1999/xlink" width="2048" height="2048" viewBox="0 0 2048 2048" version="1.1">
<g>
<path d="M 605 753 L 605 1744 L 275 1744 L 275 753 Z M 626 447 C 626.667969 495.667969 609.832031 536.332031 575.5 569 C 541.167969 601.667969 496 618 440 618 L 438 618 C 383.332031 618 339.332031 601.667969 306 569 C 272.667969 536.332031 256 495.667969 256 447 C 256 397.667969 273.167969 356.832031 307.5 324.5 C 341.832031 292.167969 386.667969 276 442 276 C 497.332031 276 541.667969 292.167969 575 324.5 C 608.332031 356.832031 625.332031 397.667969 626 447 Z M 1792 1176 L 1792 1744 L 1463 1744 L 1463 1214 C 1463 1144 1449.5 1089.167969 1422.5 1049.5 C 1395.5 1009.832031 1353.332031 990 1296 990 C 1254 990 1218.832031 1001.5 1190.5 1024.5 C 1162.167969 1047.5 1141 1076 1127 1110 C 1119.667969 1130 1116 1157 1116 1191 L 1116 1744 L 787 1744 C 788.332031 1478 789 1262.332031 789 1097 C 789 931.667969 788.667969 833 788 801 L 787 753 L 1116 753 L 1116 897 L 1114 897 C 1127.332031 875.667969 1141 857 1155 841 C 1169 825 1187.832031 807.667969 1211.5 789 C 1235.167969 770.332031 1264.167969 755.832031 1298.5 745.5 C 1332.832031 735.167969 1371 730 1413 730 C 1527 730 1618.667969 767.832031 1688 843.5 C 1757.332031 919.167969 1792 1030 1792 1176 Z M 1792 1176 " fill="white" />
</g>
</svg>
