<svg width="2048" height="2048" viewBox="-256 -384 2048 2048" xmlns="http://www.w3.org/2000/svg"><g transform="scale(1 -1) translate(0 -1280)"><path d="M237 122h231v694h-231v-694zM483 1030q-1 52 -36 86t-93 34t-94.5 -34t-36.5 -86q0 -51 35.5 -85.5t92.5 -34.5h1q59 0 95 34.5t36 85.5zM1068 122h231v398q0 154 -73 233t-193 79q-136 0 -209 -117h2v101h-231q3 -66 0 -694h231v388q0 38 7 56q15 35 45 59.5t74 24.5 q116 0 116 -157v-371zM1536 1120v-960q0 -119 -84.5 -203.5t-203.5 -84.5h-960q-119 0 -203.5 84.5t-84.5 203.5v960q0 119 84.5 203.5t203.5 84.5h960q119 0 203.5 -84.5t84.5 -203.5z" fill="white" /></g></svg>