<?xml version="1.0" encoding="UTF-8"?>
<svg xmlns="http://www.w3.org/2000/svg" xmlns:xlink="http://www.w3.org/1999/xlink" width="2048" height="2048" viewBox="0 0 2048 2048" version="1.1">
<g>
<path d="M 509 1748 C 509 1801.332031 490.832031 1843.332031 454.5 1874 C 418.167969 1904.667969 373 1920 319 1920 C 248.332031 1920 191 1898 147 1854 L 204 1766 C 236.667969 1796 272 1811 310 1811 C 329.332031 1811 346.167969 1806.167969 360.5 1796.5 C 374.832031 1786.832031 382 1772.667969 382 1754 C 382 1711.332031 347 1692.667969 277 1698 L 251 1642 C 256.332031 1635.332031 267.167969 1620.832031 283.5 1598.5 C 299.832031 1576.167969 314 1558.167969 326 1544.5 C 338 1530.832031 350.332031 1518 363 1506 L 363 1505 C 352.332031 1505 336.167969 1505.332031 314.5 1506 C 292.832031 1506.667969 276.667969 1507 266 1507 L 266 1560 L 160 1560 L 160 1408 L 493 1408 L 493 1496 L 398 1611 C 432 1619 459 1635.332031 479 1660 C 499 1684.667969 509 1714 509 1748 Z M 511 1121 L 511 1280 L 149 1280 C 145 1256 143 1238 143 1226 C 143 1192 150.832031 1161 166.5 1133 C 182.167969 1105 201 1082.332031 223 1065 C 245 1047.667969 267 1031.832031 289 1017.5 C 311 1003.167969 329.832031 988.667969 345.5 974 C 361.167969 959.332031 369 944.332031 369 929 C 369 912.332031 364.167969 899.5 354.5 890.5 C 344.832031 881.5 331.667969 877 315 877 C 284.332031 877 257.332031 896.332031 234 935 L 149 876 C 165 842 188.832031 815.5 220.5 796.5 C 252.167969 777.5 287.332031 768 326 768 C 374.667969 768 415.667969 781.832031 449 809.5 C 482.332031 837.167969 499 874.667969 499 922 C 499 955.332031 487.667969 985.832031 465 1013.5 C 442.332031 1041.167969 417.332031 1062.667969 390 1078 C 362.667969 1093.332031 337.5 1110.167969 314.5 1128.5 C 291.5 1146.832031 279.667969 1164.332031 279 1181 L 406 1181 L 406 1121 Z M 1920 1440 L 1920 1632 C 1920 1640.667969 1916.832031 1648.167969 1910.5 1654.5 C 1904.167969 1660.832031 1896.667969 1664 1888 1664 L 672 1664 C 663.332031 1664 655.832031 1660.832031 649.5 1654.5 C 643.167969 1648.167969 640 1640.667969 640 1632 L 640 1440 C 640 1430.667969 643 1423 649 1417 C 655 1411 662.667969 1408 672 1408 L 1888 1408 C 1896.667969 1408 1904.167969 1411.167969 1910.5 1417.5 C 1916.832031 1423.832031 1920 1431.332031 1920 1440 Z M 512 541 L 512 640 L 177 640 L 177 541 L 284 541 C 284 513.667969 284.167969 473 284.5 419 C 284.832031 365 285 324.667969 285 298 L 285 286 L 283 286 C 277.667969 297.332031 261 315.332031 233 340 L 162 264 L 298 137 L 404 137 L 404 541 Z M 1920 928 L 1920 1120 C 1920 1128.667969 1916.832031 1136.167969 1910.5 1142.5 C 1904.167969 1148.832031 1896.667969 1152 1888 1152 L 672 1152 C 663.332031 1152 655.832031 1148.832031 649.5 1142.5 C 643.167969 1136.167969 640 1128.667969 640 1120 L 640 928 C 640 918.667969 643 911 649 905 C 655 899 662.667969 896 672 896 L 1888 896 C 1896.667969 896 1904.167969 899.167969 1910.5 905.5 C 1916.832031 911.832031 1920 919.332031 1920 928 Z M 1920 416 L 1920 608 C 1920 616.667969 1916.832031 624.167969 1910.5 630.5 C 1904.167969 636.832031 1896.667969 640 1888 640 L 672 640 C 663.332031 640 655.832031 636.832031 649.5 630.5 C 643.167969 624.167969 640 616.667969 640 608 L 640 416 C 640 407.332031 643.167969 399.832031 649.5 393.5 C 655.832031 387.167969 663.332031 384 672 384 L 1888 384 C 1896.667969 384 1904.167969 387.167969 1910.5 393.5 C 1916.832031 399.832031 1920 407.332031 1920 416 Z M 1920 416 " fill="white" />
</g>
</svg>
