<svg width="2048" height="2048" viewBox="-128 -384 2048 2048" xmlns="http://www.w3.org/2000/svg"><g transform="scale(1 -1) translate(0 -1280)"><path d="M381 -84q0 -80 -54.5 -126t-135.5 -46q-106 0 -172 66l57 88q49 -45 106 -45q29 0 50.5 14.5t21.5 42.5q0 64 -105 56l-26 56q8 10 32.5 43.5t42.5 54t37 38.5v1q-16 0 -48.5 -1t-48.5 -1v-53h-106v152h333v-88l-95 -115q51 -12 81 -49t30 -88zM383 543v-159h-362 q-6 36 -6 54q0 51 23.5 93t56.5 68t66 47.5t56.5 43.5t23.5 45q0 25 -14.5 38.5t-39.5 13.5q-46 0 -81 -58l-85 59q24 51 71.5 79.5t105.5 28.5q73 0 123 -41.5t50 -112.5q0 -50 -34 -91.5t-75 -64.5t-75.5 -50.5t-35.5 -52.5h127v60h105zM1792 224v-192q0 -13 -9.5 -22.5 t-22.5 -9.5h-1216q-13 0 -22.5 9.5t-9.5 22.5v192q0 14 9 23t23 9h1216q13 0 22.5 -9.5t9.5 -22.5zM384 1123v-99h-335v99h107q0 41 0.5 122t0.5 121v12h-2q-8 -17 -50 -54l-71 76l136 127h106v-404h108zM1792 736v-192q0 -13 -9.5 -22.5t-22.5 -9.5h-1216q-13 0 -22.5 9.5 t-9.5 22.5v192q0 14 9 23t23 9h1216q13 0 22.5 -9.5t9.5 -22.5zM1792 1248v-192q0 -13 -9.5 -22.5t-22.5 -9.5h-1216q-13 0 -22.5 9.5t-9.5 22.5v192q0 13 9.5 22.5t22.5 9.5h1216q13 0 22.5 -9.5t9.5 -22.5z" fill="white" /></g></svg>