<?xml version="1.0" encoding="UTF-8"?>
<svg xmlns="http://www.w3.org/2000/svg" xmlns:xlink="http://www.w3.org/1999/xlink" width="2048" height="2048" viewBox="0 0 2048 2048" version="1.1">
<g>
<path d="M 512 1536 C 512 1589.332031 493.332031 1634.667969 456 1672 C 418.667969 1709.332031 373.332031 1728 320 1728 C 266.667969 1728 221.332031 1709.332031 184 1672 C 146.667969 1634.667969 128 1589.332031 128 1536 C 128 1482.667969 146.667969 1437.332031 184 1400 C 221.332031 1362.667969 266.667969 1344 320 1344 C 373.332031 1344 418.667969 1362.667969 456 1400 C 493.332031 1437.332031 512 1482.667969 512 1536 Z M 512 1024 C 512 1077.332031 493.332031 1122.667969 456 1160 C 418.667969 1197.332031 373.332031 1216 320 1216 C 266.667969 1216 221.332031 1197.332031 184 1160 C 146.667969 1122.667969 128 1077.332031 128 1024 C 128 970.667969 146.667969 925.332031 184 888 C 221.332031 850.667969 266.667969 832 320 832 C 373.332031 832 418.667969 850.667969 456 888 C 493.332031 925.332031 512 970.667969 512 1024 Z M 1920 1440 L 1920 1632 C 1920 1640.667969 1916.832031 1648.167969 1910.5 1654.5 C 1904.167969 1660.832031 1896.667969 1664 1888 1664 L 672 1664 C 663.332031 1664 655.832031 1660.832031 649.5 1654.5 C 643.167969 1648.167969 640 1640.667969 640 1632 L 640 1440 C 640 1431.332031 643.167969 1423.832031 649.5 1417.5 C 655.832031 1411.167969 663.332031 1408 672 1408 L 1888 1408 C 1896.667969 1408 1904.167969 1411.167969 1910.5 1417.5 C 1916.832031 1423.832031 1920 1431.332031 1920 1440 Z M 512 512 C 512 565.332031 493.332031 610.667969 456 648 C 418.667969 685.332031 373.332031 704 320 704 C 266.667969 704 221.332031 685.332031 184 648 C 146.667969 610.667969 128 565.332031 128 512 C 128 458.667969 146.667969 413.332031 184 376 C 221.332031 338.667969 266.667969 320 320 320 C 373.332031 320 418.667969 338.667969 456 376 C 493.332031 413.332031 512 458.667969 512 512 Z M 1920 928 L 1920 1120 C 1920 1128.667969 1916.832031 1136.167969 1910.5 1142.5 C 1904.167969 1148.832031 1896.667969 1152 1888 1152 L 672 1152 C 663.332031 1152 655.832031 1148.832031 649.5 1142.5 C 643.167969 1136.167969 640 1128.667969 640 1120 L 640 928 C 640 919.332031 643.167969 911.832031 649.5 905.5 C 655.832031 899.167969 663.332031 896 672 896 L 1888 896 C 1896.667969 896 1904.167969 899.167969 1910.5 905.5 C 1916.832031 911.832031 1920 919.332031 1920 928 Z M 1920 416 L 1920 608 C 1920 616.667969 1916.832031 624.167969 1910.5 630.5 C 1904.167969 636.832031 1896.667969 640 1888 640 L 672 640 C 663.332031 640 655.832031 636.832031 649.5 630.5 C 643.167969 624.167969 640 616.667969 640 608 L 640 416 C 640 407.332031 643.167969 399.832031 649.5 393.5 C 655.832031 387.167969 663.332031 384 672 384 L 1888 384 C 1896.667969 384 1904.167969 387.167969 1910.5 393.5 C 1916.832031 399.832031 1920 407.332031 1920 416 Z M 1920 416 " fill="white" />
</g>
</svg>
