<?xml version="1.0" encoding="UTF-8"?>
<svg xmlns="http://www.w3.org/2000/svg" xmlns:xlink="http://www.w3.org/1999/xlink" width="2048" height="2048" viewBox="0 0 2048 2048" version="1.1">
<g>
<path d="M 512 1312 L 512 1376 C 512 1384.667969 508.832031 1392.167969 502.5 1398.5 C 496.167969 1404.832031 488.667969 1408 480 1408 L 416 1408 C 407.332031 1408 399.832031 1404.832031 393.5 1398.5 C 387.167969 1392.167969 384 1384.667969 384 1376 L 384 1312 C 384 1303.332031 387.167969 1295.832031 393.5 1289.5 C 399.832031 1283.167969 407.332031 1280 416 1280 L 480 1280 C 488.667969 1280 496.167969 1283.167969 502.5 1289.5 C 508.832031 1295.832031 512 1303.332031 512 1312 Z M 512 1056 L 512 1120 C 512 1128.667969 508.832031 1136.167969 502.5 1142.5 C 496.167969 1148.832031 488.667969 1152 480 1152 L 416 1152 C 407.332031 1152 399.832031 1148.832031 393.5 1142.5 C 387.167969 1136.167969 384 1128.667969 384 1120 L 384 1056 C 384 1047.332031 387.167969 1039.832031 393.5 1033.5 C 399.832031 1027.167969 407.332031 1024 416 1024 L 480 1024 C 488.667969 1024 496.167969 1027.167969 502.5 1033.5 C 508.832031 1039.832031 512 1047.332031 512 1056 Z M 512 800 L 512 864 C 512 872.667969 508.832031 880.167969 502.5 886.5 C 496.167969 892.832031 488.667969 896 480 896 L 416 896 C 407.332031 896 399.832031 892.832031 393.5 886.5 C 387.167969 880.167969 384 872.667969 384 864 L 384 800 C 384 791.332031 387.167969 783.832031 393.5 777.5 C 399.832031 771.167969 407.332031 768 416 768 L 480 768 C 488.667969 768 496.167969 771.167969 502.5 777.5 C 508.832031 783.832031 512 791.332031 512 800 Z M 1664 1312 L 1664 1376 C 1664 1384.667969 1660.832031 1392.167969 1654.5 1398.5 C 1648.167969 1404.832031 1640.667969 1408 1632 1408 L 672 1408 C 663.332031 1408 655.832031 1404.832031 649.5 1398.5 C 643.167969 1392.167969 640 1384.667969 640 1376 L 640 1312 C 640 1303.332031 643.167969 1295.832031 649.5 1289.5 C 655.832031 1283.167969 663.332031 1280 672 1280 L 1632 1280 C 1640.667969 1280 1648.167969 1283.167969 1654.5 1289.5 C 1660.832031 1295.832031 1664 1303.332031 1664 1312 Z M 1664 1056 L 1664 1120 C 1664 1128.667969 1660.832031 1136.167969 1654.5 1142.5 C 1648.167969 1148.832031 1640.667969 1152 1632 1152 L 672 1152 C 663.332031 1152 655.832031 1148.832031 649.5 1142.5 C 643.167969 1136.167969 640 1128.667969 640 1120 L 640 1056 C 640 1047.332031 643.167969 1039.832031 649.5 1033.5 C 655.832031 1027.167969 663.332031 1024 672 1024 L 1632 1024 C 1640.667969 1024 1648.167969 1027.167969 1654.5 1033.5 C 1660.832031 1039.832031 1664 1047.332031 1664 1056 Z M 1664 800 L 1664 864 C 1664 872.667969 1660.832031 880.167969 1654.5 886.5 C 1648.167969 892.832031 1640.667969 896 1632 896 L 672 896 C 663.332031 896 655.832031 892.832031 649.5 886.5 C 643.167969 880.167969 640 872.667969 640 864 L 640 800 C 640 791.332031 643.167969 783.832031 649.5 777.5 C 655.832031 771.167969 663.332031 768 672 768 L 1632 768 C 1640.667969 768 1648.167969 771.167969 1654.5 777.5 C 1660.832031 783.832031 1664 791.332031 1664 800 Z M 1792 1504 L 1792 672 C 1792 663.332031 1788.832031 655.832031 1782.5 649.5 C 1776.167969 643.167969 1768.667969 640 1760 640 L 288 640 C 279.332031 640 271.832031 643.167969 265.5 649.5 C 259.167969 655.832031 256 663.332031 256 672 L 256 1504 C 256 1512.667969 259.167969 1520.167969 265.5 1526.5 C 271.832031 1532.832031 279.332031 1536 288 1536 L 1760 1536 C 1768.667969 1536 1776.167969 1532.832031 1782.5 1526.5 C 1788.832031 1520.167969 1792 1512.667969 1792 1504 Z M 1920 416 L 1920 1504 C 1920 1548 1904.332031 1585.667969 1873 1617 C 1841.667969 1648.332031 1804 1664 1760 1664 L 288 1664 C 244 1664 206.332031 1648.332031 175 1617 C 143.667969 1585.667969 128 1548 128 1504 L 128 416 C 128 372 143.667969 334.332031 175 303 C 206.332031 271.667969 244 256 288 256 L 1760 256 C 1804 256 1841.667969 271.667969 1873 303 C 1904.332031 334.332031 1920 372 1920 416 Z M 1920 416 " fill="white" />
</g>
</svg>
