<?xml version="1.0" encoding="UTF-8"?>
<svg xmlns="http://www.w3.org/2000/svg" xmlns:xlink="http://www.w3.org/1999/xlink" width="2048" height="2048" viewBox="0 0 2048 2048" version="1.1">
<g>
<path d="M 1721 477 L 1081 1757 C 1069.667969 1780.332031 1050.667969 1792 1024 1792 C 1020.667969 1792 1015.667969 1791.332031 1009 1790 C 994.332031 1786.667969 982.5 1779.167969 973.5 1767.5 C 964.5 1755.832031 960 1742.667969 960 1728 L 960 1152 L 384 1152 C 369.332031 1152 356.167969 1147.5 344.5 1138.5 C 332.832031 1129.5 325.332031 1117.667969 322 1103 C 318.667969 1088.332031 320 1074.332031 326 1061 C 332 1047.667969 341.667969 1037.667969 355 1031 L 1635 391 C 1643.667969 386.332031 1653.332031 384 1664 384 C 1682 384 1697 390.332031 1709 403 C 1719 412.332031 1725.167969 423.832031 1727.5 437.5 C 1729.832031 451.167969 1727.667969 464.332031 1721 477 Z M 1721 477 " fill="white" />
</g>
</svg>
