<?xml version="1.0" encoding="UTF-8"?>
<svg xmlns="http://www.w3.org/2000/svg" xmlns:xlink="http://www.w3.org/1999/xlink" width="2048" height="2048" viewBox="0 0 2048 2048" version="1.1">
<g>
<path d="M 768 896 L 1280 896 L 1280 704 C 1280 633.332031 1255 573 1205 523 C 1155 473 1094.667969 448 1024 448 C 953.332031 448 893 473 843 523 C 793 573 768 633.332031 768 704 Z M 1600 992 L 1600 1568 C 1600 1594.667969 1590.667969 1617.332031 1572 1636 C 1553.332031 1654.667969 1530.667969 1664 1504 1664 L 544 1664 C 517.332031 1664 494.667969 1654.667969 476 1636 C 457.332031 1617.332031 448 1594.667969 448 1568 L 448 992 C 448 965.332031 457.332031 942.667969 476 924 C 494.667969 905.332031 517.332031 896 544 896 L 576 896 L 576 704 C 576 581.332031 620 476 708 388 C 796 300 901.332031 256 1024 256 C 1146.667969 256 1252 300 1340 388 C 1428 476 1472 581.332031 1472 704 L 1472 896 L 1504 896 C 1530.667969 896 1553.332031 905.332031 1572 924 C 1590.667969 942.667969 1600 965.332031 1600 992 Z M 1600 992 " fill="white" />
</g>
</svg>
