<?xml version="1.0" encoding="UTF-8"?>
<svg xmlns="http://www.w3.org/2000/svg" xmlns:xlink="http://www.w3.org/1999/xlink" width="2048" height="2048" viewBox="0 0 2048 2048" version="1.1">
<g>
<path d="M 1856 1021 C 1856 1030.332031 1852.667969 1038.332031 1846 1045 L 1462 1399 C 1451.332031 1408.332031 1439.667969 1410.332031 1427 1405 C 1414.332031 1399 1408 1389.332031 1408 1376 L 1408 1152 L 160 1152 C 150.667969 1152 143 1149 137 1143 C 131 1137 128 1129.332031 128 1120 L 128 928 C 128 918.667969 131 911 137 905 C 143 899 150.667969 896 160 896 L 1408 896 L 1408 672 C 1408 658 1414.332031 648.332031 1427 643 C 1439.667969 637.667969 1451.332031 639.332031 1462 648 L 1846 998 C 1852.667969 1004.667969 1856 1012.332031 1856 1021 Z M 1856 1021 " fill="white" />
</g>
</svg>
