<?xml version="1.0" encoding="UTF-8"?>
<svg xmlns="http://www.w3.org/2000/svg" xmlns:xlink="http://www.w3.org/1999/xlink" width="2048" height="2048" viewBox="0 0 2048 2048" version="1.1">
<g>
<path d="M 1920 928 L 1920 1120 C 1920 1129.332031 1917 1137 1911 1143 C 1905 1149 1897.332031 1152 1888 1152 L 640 1152 L 640 1376 C 640 1390 633.667969 1399.667969 621 1405 C 608.332031 1410.332031 596.667969 1408.667969 586 1400 L 202 1050 C 195.332031 1043.332031 192 1035.667969 192 1027 C 192 1017.667969 195.332031 1009.667969 202 1003 L 586 649 C 596.667969 639.667969 608.332031 637.667969 621 643 C 633.667969 649 640 658.667969 640 672 L 640 896 L 1888 896 C 1897.332031 896 1905 899 1911 905 C 1917 911 1920 918.667969 1920 928 Z M 1920 928 " fill="white" />
</g>
</svg>
