<?xml version="1.0" encoding="UTF-8"?>
<svg xmlns="http://www.w3.org/2000/svg" xmlns:xlink="http://www.w3.org/1999/xlink" width="2048" height="2048" viewBox="0 0 2048 2048" version="1.1">
<g>
<path d="M 1382 709 L 1675 416 L 1568 309 L 1275 602 Z M 1829 416 C 1829 434 1823 449 1811 461 L 525 1747 C 513 1759 498 1765 480 1765 C 462 1765 447 1759 435 1747 L 237 1549 C 225 1537 219 1522 219 1504 C 219 1486 225 1471 237 1459 L 1523 173 C 1535 161 1550 155 1568 155 C 1586 155 1601 161 1613 173 L 1811 371 C 1823 383 1829 398 1829 416 Z M 478 226 L 576 256 L 478 286 L 448 384 L 418 286 L 320 256 L 418 226 L 448 128 Z M 828 388 L 1024 448 L 828 508 L 768 704 L 708 508 L 512 448 L 708 388 L 768 192 Z M 1758 866 L 1856 896 L 1758 926 L 1728 1024 L 1698 926 L 1600 896 L 1698 866 L 1728 768 Z M 1118 226 L 1216 256 L 1118 286 L 1088 384 L 1058 286 L 960 256 L 1058 226 L 1088 128 Z M 1118 226 " fill="white" />
</g>
</svg>
