<?xml version="1.0" encoding="UTF-8"?>
<svg xmlns="http://www.w3.org/2000/svg" xmlns:xlink="http://www.w3.org/1999/xlink" width="2048" height="2048" viewBox="0 0 2048 2048" version="1.1">
<g>
<path d="M 1792 960 L 1792 1088 C 1792 1222 1759.167969 1342.667969 1693.5 1450 C 1627.832031 1557.332031 1536.5 1641.167969 1419.5 1701.5 C 1302.5 1761.832031 1170.667969 1792 1024 1792 C 877.332031 1792 745.5 1761.832031 628.5 1701.5 C 511.5 1641.167969 420.167969 1557.332031 354.5 1450 C 288.832031 1342.667969 256 1222 256 1088 L 256 960 C 256 942.667969 262.332031 927.667969 275 915 C 287.667969 902.332031 302.667969 896 320 896 L 704 896 C 721.332031 896 736.332031 902.332031 749 915 C 761.667969 927.667969 768 942.667969 768 960 L 768 1088 C 768 1122.667969 775.832031 1152.667969 791.5 1178 C 807.167969 1203.332031 825 1222.332031 845 1235 C 865 1247.667969 888.667969 1257.667969 916 1265 C 943.332031 1272.332031 964.667969 1276.667969 980 1278 C 995.332031 1279.332031 1010 1280 1024 1280 C 1038 1280 1052.667969 1279.332031 1068 1278 C 1083.332031 1276.667969 1104.667969 1272.332031 1132 1265 C 1159.332031 1257.667969 1183 1247.667969 1203 1235 C 1223 1222.332031 1240.832031 1203.332031 1256.5 1178 C 1272.167969 1152.667969 1280 1122.667969 1280 1088 L 1280 960 C 1280 942.667969 1286.332031 927.667969 1299 915 C 1311.667969 902.332031 1326.667969 896 1344 896 L 1728 896 C 1745.332031 896 1760.332031 902.332031 1773 915 C 1785.667969 927.667969 1792 942.667969 1792 960 Z M 768 320 L 768 704 C 768 721.332031 761.667969 736.332031 749 749 C 736.332031 761.667969 721.332031 768 704 768 L 320 768 C 302.667969 768 287.667969 761.667969 275 749 C 262.332031 736.332031 256 721.332031 256 704 L 256 320 C 256 302.667969 262.332031 287.667969 275 275 C 287.667969 262.332031 302.667969 256 320 256 L 704 256 C 721.332031 256 736.332031 262.332031 749 275 C 761.667969 287.667969 768 302.667969 768 320 Z M 1792 320 L 1792 704 C 1792 721.332031 1785.667969 736.332031 1773 749 C 1760.332031 761.667969 1745.332031 768 1728 768 L 1344 768 C 1326.667969 768 1311.667969 761.667969 1299 749 C 1286.332031 736.332031 1280 721.332031 1280 704 L 1280 320 C 1280 302.667969 1286.332031 287.667969 1299 275 C 1311.667969 262.332031 1326.667969 256 1344 256 L 1728 256 C 1745.332031 256 1760.332031 262.332031 1773 275 C 1785.667969 287.667969 1792 302.667969 1792 320 Z M 1792 320 " fill="white" />
</g>
</svg>
