<svg width="2048" height="2048" viewBox="-128 -384 2048 2048" xmlns="http://www.w3.org/2000/svg"><g transform="scale(1 -1) translate(0 -1280)"><path d="M640 454v-70q0 -42 -39 -59q-13 -5 -25 -5q-27 0 -45 19l-512 512q-19 19 -19 45t19 45l512 512q29 31 70 14q39 -17 39 -59v-69l-397 -398q-19 -19 -19 -45t19 -45zM1792 416q0 -58 -17 -133.5t-38.5 -138t-48 -125t-40.5 -90.5l-20 -40q-8 -17 -28 -17q-6 0 -9 1 q-25 8 -23 34q43 400 -106 565q-64 71 -170.5 110.5t-267.5 52.5v-251q0 -42 -39 -59q-13 -5 -25 -5q-27 0 -45 19l-512 512q-19 19 -19 45t19 45l512 512q29 31 70 14q39 -17 39 -59v-262q411 -28 599 -221q169 -173 169 -509z" fill="white" /></g></svg>