<?xml version="1.0" encoding="UTF-8"?>
<svg xmlns="http://www.w3.org/2000/svg" xmlns:xlink="http://www.w3.org/1999/xlink" width="2048" height="2048" viewBox="0 0 2048 2048" version="1.1">
<g>
<path d="M 768 1210 L 768 1280 C 768 1308 755 1327.667969 729 1339 C 720.332031 1342.332031 712 1344 704 1344 C 686 1344 671 1337.667969 659 1325 L 147 813 C 134.332031 800.332031 128 785.332031 128 768 C 128 750.667969 134.332031 735.667969 147 723 L 659 211 C 678.332031 190.332031 701.667969 185.667969 729 197 C 755 208.332031 768 228 768 256 L 768 325 L 371 723 C 358.332031 735.667969 352 750.667969 352 768 C 352 785.332031 358.332031 800.332031 371 813 Z M 1920 1248 C 1920 1286.667969 1914.332031 1331.167969 1903 1381.5 C 1891.667969 1431.832031 1878.832031 1477.832031 1864.5 1519.5 C 1850.167969 1561.167969 1834.167969 1602.832031 1816.5 1644.5 C 1798.832031 1686.167969 1785.332031 1716.332031 1776 1735 L 1756 1775 C 1750.667969 1786.332031 1741.332031 1792 1728 1792 C 1724 1792 1721 1791.667969 1719 1791 C 1702.332031 1785.667969 1694.667969 1774.332031 1696 1757 C 1724.667969 1490.332031 1689.332031 1302 1590 1192 C 1547.332031 1144.667969 1490.5 1107.832031 1419.5 1081.5 C 1348.5 1055.167969 1259.332031 1037.667969 1152 1029 L 1152 1280 C 1152 1308 1139 1327.667969 1113 1339 C 1104.332031 1342.332031 1096 1344 1088 1344 C 1070 1344 1055 1337.667969 1043 1325 L 531 813 C 518.332031 800.332031 512 785.332031 512 768 C 512 750.667969 518.332031 735.667969 531 723 L 1043 211 C 1062.332031 190.332031 1085.667969 185.667969 1113 197 C 1139 208.332031 1152 228 1152 256 L 1152 518 C 1426 536.667969 1625.667969 610.332031 1751 739 C 1863.667969 854.332031 1920 1024 1920 1248 Z M 1920 1248 " fill="white" />
</g>
</svg>
