<?xml version="1.0" encoding="UTF-8"?>
<svg xmlns="http://www.w3.org/2000/svg" xmlns:xlink="http://www.w3.org/1999/xlink" width="2048" height="2048" viewBox="0 0 2048 2048" version="1.1">
<g>
<path d="M 1536 832 L 1536 1248 C 1536 1274.667969 1526.667969 1297.332031 1508 1316 C 1489.332031 1334.667969 1466.667969 1344 1440 1344 C 1413.332031 1344 1390.667969 1334.667969 1372 1316 C 1353.332031 1297.332031 1344 1274.667969 1344 1248 L 1344 896 L 1280 896 L 1280 1808 C 1280 1838.667969 1269 1865 1247 1887 C 1225 1909 1198.667969 1920 1168 1920 C 1137.332031 1920 1111 1909 1089 1887 C 1067 1865 1056 1838.667969 1056 1808 L 1056 1344 L 992 1344 L 992 1808 C 992 1838.667969 981 1865 959 1887 C 937 1909 910.667969 1920 880 1920 C 849.332031 1920 823 1909 801 1887 C 779 1865 768 1838.667969 768 1808 L 768 896 L 704 896 L 704 1248 C 704 1274.667969 694.667969 1297.332031 676 1316 C 657.332031 1334.667969 634.667969 1344 608 1344 C 581.332031 1344 558.667969 1334.667969 540 1316 C 521.332031 1297.332031 512 1274.667969 512 1248 L 512 832 C 512 778.667969 530.667969 733.332031 568 696 C 605.332031 658.667969 650.667969 640 704 640 L 1344 640 C 1397.332031 640 1442.667969 658.667969 1480 696 C 1517.332031 733.332031 1536 778.667969 1536 832 Z M 1248 384 C 1248 446 1226.167969 498.832031 1182.5 542.5 C 1138.832031 586.167969 1086 608 1024 608 C 962 608 909.167969 586.167969 865.5 542.5 C 821.832031 498.832031 800 446 800 384 C 800 322 821.832031 269.167969 865.5 225.5 C 909.167969 181.832031 962 160 1024 160 C 1086 160 1138.832031 181.832031 1182.5 225.5 C 1226.167969 269.167969 1248 322 1248 384 Z M 1248 384 " fill="white" />
</g>
</svg>
