<svg width="2048" height="2048" viewBox="-512 -384 2048 2048" xmlns="http://www.w3.org/2000/svg"><g transform="scale(1 -1) translate(0 -1280)"><path d="M1024 832v-416q0 -40 -28 -68t-68 -28t-68 28t-28 68v352h-64v-912q0 -46 -33 -79t-79 -33t-79 33t-33 79v464h-64v-464q0 -46 -33 -79t-79 -33t-79 33t-33 79v912h-64v-352q0 -40 -28 -68t-68 -28t-68 28t-28 68v416q0 80 56 136t136 56h640q80 0 136 -56t56 -136z M736 1280q0 -93 -65.5 -158.5t-158.5 -65.5t-158.5 65.5t-65.5 158.5t65.5 158.5t158.5 65.5t158.5 -65.5t65.5 -158.5z" fill="white" /></g></svg>