<?xml version="1.0" encoding="UTF-8"?>
<svg xmlns="http://www.w3.org/2000/svg" xmlns:xlink="http://www.w3.org/1999/xlink" width="2048" height="2048" viewBox="0 0 2048 2048" version="1.1">
<g>
<path d="M 1873 901 L 1709 1664 L 1375 1664 L 1553 832 C 1561.667969 794.667969 1556.667969 765.332031 1538 744 C 1520 722 1492.332031 711 1455 711 L 1286 711 L 1082 1664 L 748 1664 L 952 711 L 666 711 L 462 1664 L 128 1664 L 332 711 L 179 384 L 1455 384 C 1522.332031 384 1585.5 397.5 1644.5 424.5 C 1703.5 451.5 1752.667969 489.332031 1792 538 C 1832 586.667969 1859 642.832031 1873 706.5 C 1887 770.167969 1887 835 1873 901 Z M 1873 901 " fill="white" />
</g>
</svg>
