<svg width="2048" height="2048" viewBox="-128 -384 2048 2048" xmlns="http://www.w3.org/2000/svg"><g transform="scale(1 -1) translate(0 -1280)"><path d="M1280 416v192q0 14 -9 23t-23 9h-224v224q0 14 -9 23t-23 9h-192q-14 0 -23 -9t-9 -23v-224h-224q-14 0 -23 -9t-9 -23v-192q0 -14 9 -23t23 -9h224v-224q0 -14 9 -23t23 -9h192q14 0 23 9t9 23v224h224q14 0 23 9t9 23zM640 1152h512v128h-512v-128zM256 1152v-1280h-32 q-92 0 -158 66t-66 158v832q0 92 66 158t158 66h32zM1440 1152v-1280h-1088v1280h160v160q0 40 28 68t68 28h576q40 0 68 -28t28 -68v-160h160zM1792 928v-832q0 -92 -66 -158t-158 -66h-32v1280h32q92 0 158 -66t66 -158z" fill="white" /></g></svg>