<?xml version="1.0" encoding="UTF-8"?>
<svg xmlns="http://www.w3.org/2000/svg" xmlns:xlink="http://www.w3.org/1999/xlink" width="2048" height="2048" viewBox="0 0 2048 2048" version="1.1">
<g>
<path d="M 1408 1248 L 1408 1056 C 1408 1046.667969 1405 1039 1399 1033 C 1393 1027 1385.332031 1024 1376 1024 L 1152 1024 L 1152 800 C 1152 790.667969 1149 783 1143 777 C 1137 771 1129.332031 768 1120 768 L 928 768 C 918.667969 768 911 771 905 777 C 899 783 896 790.667969 896 800 L 896 1024 L 672 1024 C 662.667969 1024 655 1027 649 1033 C 643 1039 640 1046.667969 640 1056 L 640 1248 C 640 1257.332031 643 1265 649 1271 C 655 1277 662.667969 1280 672 1280 L 896 1280 L 896 1504 C 896 1513.332031 899 1521 905 1527 C 911 1533 918.667969 1536 928 1536 L 1120 1536 C 1129.332031 1536 1137 1533 1143 1527 C 1149 1521 1152 1513.332031 1152 1504 L 1152 1280 L 1376 1280 C 1385.332031 1280 1393 1277 1399 1271 C 1405 1265 1408 1257.332031 1408 1248 Z M 768 512 L 1280 512 L 1280 384 L 768 384 Z M 384 512 L 384 1792 L 352 1792 C 290.667969 1792 238 1770 194 1726 C 150 1682 128 1629.332031 128 1568 L 128 736 C 128 674.667969 150 622 194 578 C 238 534 290.667969 512 352 512 Z M 1568 512 L 1568 1792 L 480 1792 L 480 512 L 640 512 L 640 352 C 640 325.332031 649.332031 302.667969 668 284 C 686.667969 265.332031 709.332031 256 736 256 L 1312 256 C 1338.667969 256 1361.332031 265.332031 1380 284 C 1398.667969 302.667969 1408 325.332031 1408 352 L 1408 512 Z M 1920 736 L 1920 1568 C 1920 1629.332031 1898 1682 1854 1726 C 1810 1770 1757.332031 1792 1696 1792 L 1664 1792 L 1664 512 L 1696 512 C 1757.332031 512 1810 534 1854 578 C 1898 622 1920 674.667969 1920 736 Z M 1920 736 " fill="white" />
</g>
</svg>
