<?xml version="1.0" encoding="UTF-8"?>
<svg xmlns="http://www.w3.org/2000/svg" xmlns:xlink="http://www.w3.org/1999/xlink" width="2048" height="2048" viewBox="0 0 2048 2048" version="1.1">
<g>
<path d="M 1600 832 L 1600 960 C 1600 1107.332031 1550.832031 1235.5 1452.5 1344.5 C 1354.167969 1453.5 1232.667969 1516 1088 1532 L 1088 1664 L 1344 1664 C 1361.332031 1664 1376.332031 1670.332031 1389 1683 C 1401.667969 1695.667969 1408 1710.667969 1408 1728 C 1408 1745.332031 1401.667969 1760.332031 1389 1773 C 1376.332031 1785.667969 1361.332031 1792 1344 1792 L 704 1792 C 686.667969 1792 671.667969 1785.667969 659 1773 C 646.332031 1760.332031 640 1745.332031 640 1728 C 640 1710.667969 646.332031 1695.667969 659 1683 C 671.667969 1670.332031 686.667969 1664 704 1664 L 960 1664 L 960 1532 C 815.332031 1516 693.832031 1453.5 595.5 1344.5 C 497.167969 1235.5 448 1107.332031 448 960 L 448 832 C 448 814.667969 454.332031 799.667969 467 787 C 479.667969 774.332031 494.667969 768 512 768 C 529.332031 768 544.332031 774.332031 557 787 C 569.667969 799.667969 576 814.667969 576 832 L 576 960 C 576 1083.332031 619.832031 1188.832031 707.5 1276.5 C 795.167969 1364.167969 900.667969 1408 1024 1408 C 1147.332031 1408 1252.832031 1364.167969 1340.5 1276.5 C 1428.167969 1188.832031 1472 1083.332031 1472 960 L 1472 832 C 1472 814.667969 1478.332031 799.667969 1491 787 C 1503.667969 774.332031 1518.667969 768 1536 768 C 1553.332031 768 1568.332031 774.332031 1581 787 C 1593.667969 799.667969 1600 814.667969 1600 832 Z M 1344 448 L 1344 960 C 1344 1048 1312.667969 1123.332031 1250 1186 C 1187.332031 1248.667969 1112 1280 1024 1280 C 936 1280 860.667969 1248.667969 798 1186 C 735.332031 1123.332031 704 1048 704 960 L 704 448 C 704 360 735.332031 284.667969 798 222 C 860.667969 159.332031 936 128 1024 128 C 1112 128 1187.332031 159.332031 1250 222 C 1312.667969 284.667969 1344 360 1344 448 Z M 1344 448 " fill="white" />
</g>
</svg>
