<?xml version="1.0" encoding="UTF-8"?>
<svg xmlns="http://www.w3.org/2000/svg" xmlns:xlink="http://www.w3.org/1999/xlink" width="2048" height="2048" viewBox="0 0 2048 2048" version="1.1">
<g>
<path d="M 1728 864 L 1728 1056 C 1728 1082.667969 1718.667969 1105.332031 1700 1124 C 1681.332031 1142.667969 1658.667969 1152 1632 1152 L 416 1152 C 389.332031 1152 366.667969 1142.667969 348 1124 C 329.332031 1105.332031 320 1082.667969 320 1056 L 320 864 C 320 837.332031 329.332031 814.667969 348 796 C 366.667969 777.332031 389.332031 768 416 768 L 1632 768 C 1658.667969 768 1681.332031 777.332031 1700 796 C 1718.667969 814.667969 1728 837.332031 1728 864 Z M 1728 864 " fill="white" />
</g>
</svg>
