<?xml version="1.0" encoding="UTF-8"?>
<svg xmlns="http://www.w3.org/2000/svg" xmlns:xlink="http://www.w3.org/1999/xlink" width="2048" height="2048" viewBox="0 0 2048 2048" version="1.1">
<g>
<path d="M 1472 1088 L 1472 960 C 1472 942.667969 1465.667969 927.667969 1453 915 C 1440.332031 902.332031 1425.332031 896 1408 896 L 640 896 C 622.667969 896 607.667969 902.332031 595 915 C 582.332031 927.667969 576 942.667969 576 960 L 576 1088 C 576 1105.332031 582.332031 1120.332031 595 1133 C 607.667969 1145.667969 622.667969 1152 640 1152 L 1408 1152 C 1425.332031 1152 1440.332031 1145.667969 1453 1133 C 1465.667969 1120.332031 1472 1105.332031 1472 1088 Z M 1792 1024 C 1792 1163.332031 1757.667969 1291.832031 1689 1409.5 C 1620.332031 1527.167969 1527.167969 1620.332031 1409.5 1689 C 1291.832031 1757.667969 1163.332031 1792 1024 1792 C 884.667969 1792 756.167969 1757.667969 638.5 1689 C 520.832031 1620.332031 427.667969 1527.167969 359 1409.5 C 290.332031 1291.832031 256 1163.332031 256 1024 C 256 884.667969 290.332031 756.167969 359 638.5 C 427.667969 520.832031 520.832031 427.667969 638.5 359 C 756.167969 290.332031 884.667969 256 1024 256 C 1163.332031 256 1291.832031 290.332031 1409.5 359 C 1527.167969 427.667969 1620.332031 520.832031 1689 638.5 C 1757.667969 756.167969 1792 884.667969 1792 1024 Z M 1792 1024 " fill="white" />
</g>
</svg>
