<?xml version="1.0" encoding="UTF-8"?>
<svg xmlns="http://www.w3.org/2000/svg" xmlns:xlink="http://www.w3.org/1999/xlink" width="2048" height="2048" viewBox="0 0 2048 2048" version="1.1">
<g>
<path d="M 1104 1536 C 1104 1514 1096.167969 1495.167969 1080.5 1479.5 C 1064.832031 1463.832031 1046 1456 1024 1456 C 1002 1456 983.167969 1463.832031 967.5 1479.5 C 951.832031 1495.167969 944 1514 944 1536 C 944 1558 951.832031 1576.832031 967.5 1592.5 C 983.167969 1608.167969 1002 1616 1024 1616 C 1046 1616 1064.832031 1608.167969 1080.5 1592.5 C 1096.167969 1576.832031 1104 1558 1104 1536 Z M 1312 1376 L 1312 672 C 1312 663.332031 1308.832031 655.832031 1302.5 649.5 C 1296.167969 643.167969 1288.667969 640 1280 640 L 768 640 C 759.332031 640 751.832031 643.167969 745.5 649.5 C 739.167969 655.832031 736 663.332031 736 672 L 736 1376 C 736 1384.667969 739.167969 1392.167969 745.5 1398.5 C 751.832031 1404.832031 759.332031 1408 768 1408 L 1280 1408 C 1288.667969 1408 1296.167969 1404.832031 1302.5 1398.5 C 1308.832031 1392.167969 1312 1384.667969 1312 1376 Z M 1120 528 C 1120 517.332031 1114.667969 512 1104 512 L 944 512 C 933.332031 512 928 517.332031 928 528 C 928 538.667969 933.332031 544 944 544 L 1104 544 C 1114.667969 544 1120 538.667969 1120 528 Z M 1408 512 L 1408 1536 C 1408 1570.667969 1395.332031 1600.667969 1370 1626 C 1344.667969 1651.332031 1314.667969 1664 1280 1664 L 768 1664 C 733.332031 1664 703.332031 1651.332031 678 1626 C 652.667969 1600.667969 640 1570.667969 640 1536 L 640 512 C 640 477.332031 652.667969 447.332031 678 422 C 703.332031 396.667969 733.332031 384 768 384 L 1280 384 C 1314.667969 384 1344.667969 396.667969 1370 422 C 1395.332031 447.332031 1408 477.332031 1408 512 Z M 1408 512 " fill="white" />
</g>
</svg>
