<?xml version="1.0" encoding="UTF-8"?>
<svg xmlns="http://www.w3.org/2000/svg" xmlns:xlink="http://www.w3.org/1999/xlink" width="2048" height="2048" viewBox="0 0 2048 2048" version="1.1">
<g>
<path d="M 1518 1431 C 1482 1437 1445.332031 1440 1408 1440 C 1286.667969 1440 1174.332031 1410 1071 1350 C 967.667969 1290 886 1208.332031 826 1105 C 766 1001.667969 736 889.332031 736 768 C 736 640 770.667969 521 840 411 C 706 451 596.5 527.332031 511.5 640 C 426.5 752.667969 384 880.667969 384 1024 C 384 1110.667969 401 1193.5 435 1272.5 C 469 1351.5 514.5 1419.5 571.5 1476.5 C 628.5 1533.5 696.5 1579 775.5 1613 C 854.5 1647 937.332031 1664 1024 1664 C 1120 1664 1211.167969 1643.5 1297.5 1602.5 C 1383.832031 1561.5 1457.332031 1504.332031 1518 1431 Z M 1721 1346 C 1658.332031 1481.332031 1563.832031 1589.5 1437.5 1670.5 C 1311.167969 1751.5 1173.332031 1792 1024 1792 C 920 1792 820.667969 1771.667969 726 1731 C 631.332031 1690.332031 549.667969 1635.667969 481 1567 C 412.332031 1498.332031 357.667969 1416.667969 317 1322 C 276.332031 1227.332031 256 1128 256 1024 C 256 922 275.167969 824.5 313.5 731.5 C 351.832031 638.5 403.832031 558 469.5 490 C 535.167969 422 613.667969 367.167969 705 325.5 C 796.332031 283.832031 893 261 995 257 C 1024.332031 255.667969 1044.667969 268.667969 1056 296 C 1068 323.332031 1063 347.332031 1041 368 C 983.667969 420 939.832031 480.5 909.5 549.5 C 879.167969 618.5 864 691.332031 864 768 C 864 866.667969 888.332031 957.667969 937 1041 C 985.667969 1124.332031 1051.667969 1190.332031 1135 1239 C 1218.332031 1287.667969 1309.332031 1312 1408 1312 C 1486.667969 1312 1562.667969 1295 1636 1261 C 1663.332031 1249 1687.332031 1253.332031 1708 1274 C 1717.332031 1283.332031 1723.167969 1294.667969 1725.5 1308 C 1727.832031 1321.332031 1726.332031 1334 1721 1346 Z M 1721 1346 " fill="white" />
</g>
</svg>
