<?xml version="1.0" encoding="UTF-8"?>
<svg xmlns="http://www.w3.org/2000/svg" xmlns:xlink="http://www.w3.org/1999/xlink" width="2048" height="2048" viewBox="0 0 2048 2048" version="1.1">
<g>
<path d="M 1792 352 L 1792 1472 C 1792 1505.332031 1780.667969 1535 1758 1561 C 1735.332031 1587 1706.667969 1607.167969 1672 1621.5 C 1637.332031 1635.832031 1602.832031 1646.5 1568.5 1653.5 C 1534.167969 1660.5 1502 1664 1472 1664 C 1442 1664 1409.832031 1660.5 1375.5 1653.5 C 1341.167969 1646.5 1306.667969 1635.832031 1272 1621.5 C 1237.332031 1607.167969 1208.667969 1587 1186 1561 C 1163.332031 1535 1152 1505.332031 1152 1472 C 1152 1438.667969 1163.332031 1409 1186 1383 C 1208.667969 1357 1237.332031 1336.832031 1272 1322.5 C 1306.667969 1308.167969 1341.167969 1297.5 1375.5 1290.5 C 1409.832031 1283.5 1442 1280 1472 1280 C 1542 1280 1606 1293 1664 1319 L 1664 782 L 896 1019 L 896 1728 C 896 1761.332031 884.667969 1791 862 1817 C 839.332031 1843 810.667969 1863.167969 776 1877.5 C 741.332031 1891.832031 706.832031 1902.5 672.5 1909.5 C 638.167969 1916.5 606 1920 576 1920 C 546 1920 513.832031 1916.5 479.5 1909.5 C 445.167969 1902.5 410.667969 1891.832031 376 1877.5 C 341.332031 1863.167969 312.667969 1843 290 1817 C 267.332031 1791 256 1761.332031 256 1728 C 256 1694.667969 267.332031 1665 290 1639 C 312.667969 1613 341.332031 1592.832031 376 1578.5 C 410.667969 1564.167969 445.167969 1553.5 479.5 1546.5 C 513.832031 1539.5 546 1536 576 1536 C 646 1536 710 1549 768 1575 L 768 608 C 768 587.332031 774.332031 568.5 787 551.5 C 799.667969 534.5 816 522.667969 836 516 L 1668 260 C 1676 257.332031 1685.332031 256 1696 256 C 1722.667969 256 1745.332031 265.332031 1764 284 C 1782.667969 302.667969 1792 325.332031 1792 352 Z M 1792 352 " fill="white" />
</g>
</svg>
