<?xml version="1.0" encoding="UTF-8"?>
<svg xmlns="http://www.w3.org/2000/svg" xmlns:xlink="http://www.w3.org/1999/xlink" width="2048" height="2048" viewBox="0 0 2048 2048" version="1.1">
<g>
<path d="M 1722 1231 C 1700.667969 1284.332031 1675.332031 1330.332031 1646 1369 C 1616.667969 1407.667969 1586.332031 1437.167969 1555 1457.5 C 1523.667969 1477.832031 1490.667969 1493.332031 1456 1504 C 1421.332031 1514.667969 1387.5 1519.5 1354.5 1518.5 C 1321.5 1517.5 1289.332031 1514.667969 1258 1510 C 1226.667969 1505.332031 1197.832031 1498 1171.5 1488 C 1145.167969 1478 1122 1468.832031 1102 1460.5 C 1082 1452.167969 1066.667969 1444.667969 1056 1438 L 1039 1428 C 963.667969 1580 867.167969 1699.832031 749.5 1787.5 C 631.832031 1875.167969 503.667969 1919.332031 365 1920 C 352.332031 1920 341.667969 1915.667969 333 1907 C 324.332031 1898.332031 320 1887.667969 320 1875 C 320 1862.332031 324.332031 1851.832031 333 1843.5 C 341.667969 1835.167969 352.332031 1831 365 1831 C 480.332031 1830.332031 587.832031 1794.5 687.5 1723.5 C 787.167969 1652.5 871 1554.332031 939 1429 C 915 1438.332031 891 1446 867 1452 C 843 1458 815.332031 1462.332031 784 1465 C 752.667969 1467.667969 722.332031 1466.832031 693 1462.5 C 663.667969 1458.167969 632.667969 1448.667969 600 1434 C 567.332031 1419.332031 536.667969 1399.667969 508 1375 C 479.332031 1350.332031 451.167969 1317 423.5 1275 C 395.832031 1233 371 1184.332031 349 1129 C 425 1097.667969 496.332031 1078.667969 563 1072 C 629.667969 1065.332031 685.5 1067.832031 730.5 1079.5 C 775.5 1091.167969 817 1110 855 1136 C 893 1162 922.5 1187.667969 943.5 1213 C 964.5 1238.332031 983.332031 1265.667969 1000 1295 C 1035.332031 1207.667969 1061.667969 1110.667969 1079 1004 C 1074.332031 1004.667969 1068.332031 1005.5 1061 1006.5 C 1053.667969 1007.5 1038.167969 1008.332031 1014.5 1009 C 990.832031 1009.667969 967.667969 1009.5 945 1008.5 C 922.332031 1007.5 895.167969 1004.167969 863.5 998.5 C 831.832031 992.832031 802.332031 985.167969 775 975.5 C 747.667969 965.832031 719.667969 951.667969 691 933 C 662.332031 914.332031 637.332031 892.667969 616 868 C 594.667969 843.332031 576.5 811.832031 561.5 773.5 C 546.5 735.167969 537 692.667969 533 646 C 579.667969 627.332031 624.167969 615.167969 666.5 609.5 C 708.832031 603.832031 746.332031 604.167969 779 610.5 C 811.667969 616.832031 842.332031 626.832031 871 640.5 C 899.667969 654.167969 924.167969 670.832031 944.5 690.5 C 964.832031 710.167969 983.5 730.5 1000.5 751.5 C 1017.5 772.5 1031.5 793.5 1042.5 814.5 C 1053.5 835.5 1062.667969 854.167969 1070 870.5 C 1077.332031 886.832031 1082.667969 900 1086 910 L 1090 926 C 1098 844.667969 1102 779.667969 1102 731 C 1096.667969 727 1089.5 721.667969 1080.5 715 C 1071.5 708.332031 1055.167969 693.5 1031.5 670.5 C 1007.832031 647.5 986.667969 623.667969 968 599 C 949.332031 574.332031 931.332031 543.332031 914 506 C 896.667969 468.667969 885.667969 431.167969 881 393.5 C 876.332031 355.832031 880.332031 313.5 893 266.5 C 905.667969 219.5 929 173.332031 963 128 C 1011.667969 144.667969 1054.167969 165.167969 1090.5 189.5 C 1126.832031 213.832031 1155 239.332031 1175 266 C 1195 292.667969 1211 321 1223 351 C 1235 381 1241.832031 410.667969 1243.5 440 C 1245.167969 469.332031 1245 497.832031 1243 525.5 C 1241 553.167969 1236.667969 578.667969 1230 602 C 1223.332031 625.332031 1217 646 1211 664 C 1205 682 1199.332031 696 1194 706 L 1187 721 C 1187.667969 724.332031 1188 741.167969 1188 771.5 C 1188 801.832031 1187.667969 825.667969 1187 843 C 1189 838.332031 1192.332031 832.167969 1197 824.5 C 1201.667969 816.832031 1211.832031 802.5 1227.5 781.5 C 1243.167969 760.5 1260 741.167969 1278 723.5 C 1296 705.832031 1319.667969 687.332031 1349 668 C 1378.332031 648.667969 1408.832031 633.832031 1440.5 623.5 C 1472.167969 613.167969 1509.5 608.332031 1552.5 609 C 1595.5 609.667969 1639.667969 617.667969 1685 633 C 1683.667969 685 1676.5 732.167969 1663.5 774.5 C 1650.5 816.832031 1633.832031 851.667969 1613.5 879 C 1593.167969 906.332031 1570 930.167969 1544 950.5 C 1518 970.832031 1490.832031 986 1462.5 996 C 1434.167969 1006 1406 1014 1378 1020 C 1350 1026 1323.332031 1029.167969 1298 1029.5 C 1272.667969 1029.832031 1250.167969 1029.5 1230.5 1028.5 C 1210.832031 1027.5 1195.332031 1026 1184 1024 L 1167 1021 C 1151.667969 1119 1127.332031 1213.332031 1094 1304 C 1098 1299.332031 1104 1293.167969 1112 1285.5 C 1120 1277.832031 1136.5 1264.167969 1161.5 1244.5 C 1186.5 1224.832031 1212.332031 1207.332031 1239 1192 C 1265.667969 1176.667969 1298.832031 1162.667969 1338.5 1150 C 1378.167969 1137.332031 1417.332031 1130.667969 1456 1130 C 1494.667969 1129.332031 1537.667969 1137.167969 1585 1153.5 C 1632.332031 1169.832031 1678 1195.667969 1722 1231 Z M 1722 1231 " fill="white" />
</g>
</svg>
