<?xml version="1.0" encoding="UTF-8"?>
<svg xmlns="http://www.w3.org/2000/svg" xmlns:xlink="http://www.w3.org/1999/xlink" width="2048" height="2048" viewBox="0 0 2048 2048" version="1.1">
<g>
<path d="M 1724 1513 C 1724 1591 1697.667969 1656.332031 1645 1709 C 1592.332031 1761.667969 1527 1788 1449 1788 C 1359 1788 1280.667969 1754.667969 1214 1688 L 437 912 C 361.667969 835.332031 324 745 324 641 C 324 535 360.667969 445 434 371 C 507.332031 297 597 260 703 260 C 808.332031 260 899.332031 297.667969 976 373 L 1581 979 C 1587.667969 985.667969 1591 993 1591 1001 C 1591 1011.667969 1580.832031 1027.167969 1560.5 1047.5 C 1540.167969 1067.832031 1524.667969 1078 1514 1078 C 1505.332031 1078 1497.667969 1074.667969 1491 1068 L 885 461 C 832.332031 409.667969 772 384 704 384 C 633.332031 384 573.667969 409 525 459 C 476.332031 509 452 569.332031 452 640 C 452 710 477.332031 770.332031 528 821 L 1304 1598 C 1346 1640 1394.332031 1661 1449 1661 C 1491.667969 1661 1527 1647 1555 1619 C 1583 1591 1597 1555.667969 1597 1513 C 1597 1458.332031 1576 1410 1534 1368 L 953 787 C 935.667969 771 915.667969 763 893 763 C 873.667969 763 857.667969 769.332031 845 782 C 832.332031 794.667969 826 810.667969 826 830 C 826 851.332031 834.332031 871 851 889 L 1261 1299 C 1267.667969 1305.667969 1271 1313 1271 1321 C 1271 1331.667969 1260.667969 1347.332031 1240 1368 C 1219.332031 1388.667969 1203.667969 1399 1193 1399 C 1185 1399 1177.667969 1395.667969 1171 1389 L 761 979 C 719 938.332031 698 888.667969 698 830 C 698 775.332031 717 729 755 691 C 793 653 839.332031 634 894 634 C 952.667969 634 1002.332031 655 1043 697 L 1624 1278 C 1690.667969 1343.332031 1724 1421.667969 1724 1513 Z M 1724 1513 " fill="white" />
</g>
</svg>
