<?xml version="1.0" encoding="UTF-8"?>
<svg xmlns="http://www.w3.org/2000/svg" xmlns:xlink="http://www.w3.org/1999/xlink" width="2048" height="2048" viewBox="0 0 2048 2048" version="1.1">
<g>
<path d="M 619 1664 L 710 1573 L 475 1338 L 384 1429 L 384 1536 L 512 1536 L 512 1664 Z M 1142 736 C 1142 721.332031 1134.667969 714 1120 714 C 1113.332031 714 1107.667969 716.332031 1103 721 L 561 1263 C 556.332031 1267.667969 554 1273.332031 554 1280 C 554 1294.667969 561.332031 1302 576 1302 C 582.667969 1302 588.332031 1299.667969 593 1295 L 1135 753 C 1139.667969 748.332031 1142 742.667969 1142 736 Z M 1088 544 L 1504 960 L 672 1792 L 256 1792 L 256 1376 Z M 1771 640 C 1771 675.332031 1758.667969 705.332031 1734 730 L 1568 896 L 1152 480 L 1318 315 C 1342 289.667969 1372 277 1408 277 C 1443.332031 277 1473.667969 289.667969 1499 315 L 1734 549 C 1758.667969 575 1771 605.332031 1771 640 Z M 1771 640 " fill="white" />
</g>
</svg>
