<?xml version="1.0" encoding="UTF-8"?>
<svg xmlns="http://www.w3.org/2000/svg" xmlns:xlink="http://www.w3.org/1999/xlink" width="2048" height="2048" viewBox="0 0 2048 2048" version="1.1">
<g>
<path d="M 1728 1368 C 1728 1386 1724.667969 1409.5 1718 1438.5 C 1711.332031 1467.5 1704.332031 1490.332031 1697 1507 C 1683 1540.332031 1642.332031 1575.667969 1575 1613 C 1512.332031 1647 1450.332031 1664 1389 1664 C 1371 1664 1353.5 1662.832031 1336.5 1660.5 C 1319.5 1658.167969 1300.332031 1654 1279 1648 C 1257.667969 1642 1241.832031 1637.167969 1231.5 1633.5 C 1221.167969 1629.832031 1202.667969 1623 1176 1613 C 1149.332031 1603 1133 1597 1127 1595 C 1061.667969 1571.667969 1003.332031 1544 952 1512 C 866.667969 1459.332031 778.5 1387.5 687.5 1296.5 C 596.5 1205.5 524.667969 1117.332031 472 1032 C 440 980.667969 412.332031 922.332031 389 857 C 387 851 381 834.667969 371 808 C 361 781.332031 354.167969 762.832031 350.5 752.5 C 346.832031 742.167969 342 726.332031 336 705 C 330 683.667969 325.832031 664.5 323.5 647.5 C 321.167969 630.5 320 613 320 595 C 320 533.667969 337 471.667969 371 409 C 408.332031 341.667969 443.667969 301 477 287 C 493.667969 279.667969 516.5 272.667969 545.5 266 C 574.5 259.332031 598 256 616 256 C 625.332031 256 632.332031 257 637 259 C 649 263 666.667969 288.332031 690 335 C 697.332031 347.667969 707.332031 365.667969 720 389 C 732.667969 412.332031 744.332031 433.5 755 452.5 C 765.667969 471.5 776 489.332031 786 506 C 788 508.667969 793.832031 517 803.5 531 C 813.167969 545 820.332031 556.832031 825 566.5 C 829.667969 576.167969 832 585.667969 832 595 C 832 608.332031 822.5 625 803.5 645 C 784.5 665 763.832031 683.332031 741.5 700 C 719.167969 716.667969 698.5 734.332031 679.5 753 C 660.5 771.667969 651 787 651 799 C 651 805 652.667969 812.5 656 821.5 C 659.332031 830.5 662.167969 837.332031 664.5 842 C 666.832031 846.667969 671.5 854.667969 678.5 866 C 685.5 877.332031 689.332031 883.667969 690 885 C 740.667969 976.332031 798.667969 1054.667969 864 1120 C 929.332031 1185.332031 1007.667969 1243.332031 1099 1294 C 1100.332031 1294.667969 1106.667969 1298.5 1118 1305.5 C 1129.332031 1312.5 1137.332031 1317.167969 1142 1319.5 C 1146.667969 1321.832031 1153.5 1324.667969 1162.5 1328 C 1171.5 1331.332031 1179 1333 1185 1333 C 1197 1333 1212.332031 1323.5 1231 1304.5 C 1249.667969 1285.5 1267.332031 1264.832031 1284 1242.5 C 1300.667969 1220.167969 1319 1199.5 1339 1180.5 C 1359 1161.5 1375.667969 1152 1389 1152 C 1398.332031 1152 1407.832031 1154.332031 1417.5 1159 C 1427.167969 1163.667969 1439 1170.832031 1453 1180.5 C 1467 1190.167969 1475.332031 1196 1478 1198 C 1494.667969 1208 1512.5 1218.332031 1531.5 1229 C 1550.5 1239.667969 1571.667969 1251.332031 1595 1264 C 1618.332031 1276.667969 1636.332031 1286.667969 1649 1294 C 1695.667969 1317.332031 1721 1335 1725 1347 C 1727 1351.667969 1728 1358.667969 1728 1368 Z M 1728 1368 " fill="white" />
</g>
</svg>
