<?xml version="1.0" encoding="UTF-8"?>
<svg xmlns="http://www.w3.org/2000/svg" xmlns:xlink="http://www.w3.org/1999/xlink" width="2048" height="2048" viewBox="0 0 2048 2048" version="1.1">
<g>
<path d="M 1504 256 C 1583.332031 256 1651.167969 284.167969 1707.5 340.5 C 1763.832031 396.832031 1792 464.667969 1792 544 L 1792 1504 C 1792 1583.332031 1763.832031 1651.167969 1707.5 1707.5 C 1651.167969 1763.832031 1583.332031 1792 1504 1792 L 779 1792 C 835.667969 1710.667969 871.667969 1640.667969 887 1582 C 893 1559.332031 910.667969 1489.667969 940 1373 C 954 1399 978.5 1421.332031 1013.5 1440 C 1048.5 1458.667969 1086 1468 1126 1468 C 1246.667969 1468 1345.167969 1418.832031 1421.5 1320.5 C 1497.832031 1222.167969 1536 1097.667969 1536 947 C 1536 891 1524.332031 836.832031 1501 784.5 C 1477.667969 732.167969 1445.5 685.832031 1404.5 645.5 C 1363.5 605.167969 1312.667969 572.832031 1252 548.5 C 1191.332031 524.167969 1125.667969 512 1055 512 C 985.667969 512 920.832031 521.5 860.5 540.5 C 800.167969 559.5 749.167969 585 707.5 617 C 665.832031 649 630 685.5 600 726.5 C 570 767.5 547.832031 810.167969 533.5 854.5 C 519.167969 898.832031 512 943 512 987 C 512 1055 525.167969 1115 551.5 1167 C 577.832031 1219 616.667969 1255.667969 668 1277 C 676.667969 1280.332031 684.5 1280.332031 691.5 1277 C 698.5 1273.667969 703.332031 1267.332031 706 1258 C 712.667969 1228.667969 717.667969 1208.332031 721 1197 C 725 1181.667969 721.332031 1167.667969 710 1155 C 676.667969 1113.667969 660 1063.667969 660 1005 C 660 905 694.5 819.5 763.5 748.5 C 832.5 677.5 922.667969 642 1034 642 C 1133.332031 642 1210.832031 669 1266.5 723 C 1322.167969 777 1350 847 1350 933 C 1350 1045 1327.5 1140.332031 1282.5 1219 C 1237.5 1297.667969 1179.667969 1337 1109 1337 C 1069 1337 1036.667969 1322.5 1012 1293.5 C 987.332031 1264.5 979.667969 1230 989 1190 C 994.332031 1167.332031 1003.167969 1136.5 1015.5 1097.5 C 1027.832031 1058.5 1037.667969 1024.5 1045 995.5 C 1052.332031 966.5 1056 941.667969 1056 921 C 1056 888.332031 1047.167969 861.167969 1029.5 839.5 C 1011.832031 817.832031 986.667969 807 954 807 C 913.332031 807 878.832031 825.832031 850.5 863.5 C 822.167969 901.167969 808 947.667969 808 1003 C 808 1051 816 1091.332031 832 1124 L 734 1538 C 718 1604.667969 715.667969 1689.332031 727 1792 L 544 1792 C 464.667969 1792 396.832031 1763.832031 340.5 1707.5 C 284.167969 1651.167969 256 1583.332031 256 1504 L 256 544 C 256 464.667969 284.167969 396.832031 340.5 340.5 C 396.832031 284.167969 464.667969 256 544 256 Z M 1504 256 " fill="white" />
</g>
</svg>
