<svg width="2048" height="2048" viewBox="-256 -384 2048 2048" xmlns="http://www.w3.org/2000/svg"><g transform="scale(1 -1) translate(0 -1280)"><path d="M1536 640q0 -209 -103 -385.5t-279.5 -279.5t-385.5 -103q-111 0 -218 32q59 93 78 164q9 34 54 211q20 -39 73 -67.5t114 -28.5q121 0 216 68.5t147 188.5t52 270q0 114 -59.5 214t-172.5 163t-255 63q-105 0 -196 -29t-154.5 -77t-109 -110.5t-67 -129.5t-21.5 -134 q0 -104 40 -183t117 -111q30 -12 38 20q2 7 8 31t8 30q6 23 -11 43q-51 61 -51 151q0 151 104.5 259.5t273.5 108.5q151 0 235.5 -82t84.5 -213q0 -170 -68.5 -289t-175.5 -119q-61 0 -98 43.5t-23 104.5q8 35 26.5 93.5t30 103t11.5 75.5q0 50 -27 83t-77 33 q-62 0 -105 -57t-43 -142q0 -73 25 -122l-99 -418q-17 -70 -13 -177q-206 91 -333 281t-127 423q0 209 103 385.5t279.5 279.5t385.5 103t385.5 -103t279.5 -279.5t103 -385.5z" fill="white" /></g></svg>