<?xml version="1.0" encoding="UTF-8"?>
<svg xmlns="http://www.w3.org/2000/svg" xmlns:xlink="http://www.w3.org/1999/xlink" width="2048" height="2048" viewBox="0 0 2048 2048" version="1.1">
<g>
<path d="M 1024 256 C 1163.332031 256 1291.832031 290.332031 1409.5 359 C 1527.167969 427.667969 1620.332031 520.832031 1689 638.5 C 1757.667969 756.167969 1792 884.667969 1792 1024 C 1792 1163.332031 1757.667969 1291.832031 1689 1409.5 C 1620.332031 1527.167969 1527.167969 1620.332031 1409.5 1689 C 1291.832031 1757.667969 1163.332031 1792 1024 1792 C 884.667969 1792 756.167969 1757.667969 638.5 1689 C 520.832031 1620.332031 427.667969 1527.167969 359 1409.5 C 290.332031 1291.832031 256 1163.332031 256 1024 C 256 884.667969 290.332031 756.167969 359 638.5 C 427.667969 520.832031 520.832031 427.667969 638.5 359 C 756.167969 290.332031 884.667969 256 1024 256 Z M 1408 1079 C 1429.332031 1067 1440 1048.667969 1440 1024 C 1440 999.332031 1429.332031 981 1408 969 L 864 649 C 843.332031 636.332031 822 636 800 648 C 778.667969 660.667969 768 679.332031 768 704 L 768 1344 C 768 1368.667969 778.667969 1387.332031 800 1400 C 810.667969 1405.332031 821.332031 1408 832 1408 C 843.332031 1408 854 1405 864 1399 Z M 1408 1079 " fill="white" />
</g>
</svg>
