<?xml version="1.0" encoding="UTF-8"?>
<svg xmlns="http://www.w3.org/2000/svg" xmlns:xlink="http://www.w3.org/1999/xlink" width="2048" height="2048" viewBox="0 0 2048 2048" version="1.1">
<g>
<path d="M 1536 1088 L 1536 960 C 1536 942.667969 1529.667969 927.667969 1517 915 C 1504.332031 902.332031 1489.332031 896 1472 896 L 1152 896 L 1152 576 C 1152 558.667969 1145.667969 543.667969 1133 531 C 1120.332031 518.332031 1105.332031 512 1088 512 L 960 512 C 942.667969 512 927.667969 518.332031 915 531 C 902.332031 543.667969 896 558.667969 896 576 L 896 896 L 576 896 C 558.667969 896 543.667969 902.332031 531 915 C 518.332031 927.667969 512 942.667969 512 960 L 512 1088 C 512 1105.332031 518.332031 1120.332031 531 1133 C 543.667969 1145.667969 558.667969 1152 576 1152 L 896 1152 L 896 1472 C 896 1489.332031 902.332031 1504.332031 915 1517 C 927.667969 1529.667969 942.667969 1536 960 1536 L 1088 1536 C 1105.332031 1536 1120.332031 1529.667969 1133 1517 C 1145.667969 1504.332031 1152 1489.332031 1152 1472 L 1152 1152 L 1472 1152 C 1489.332031 1152 1504.332031 1145.667969 1517 1133 C 1529.667969 1120.332031 1536 1105.332031 1536 1088 Z M 1792 544 L 1792 1504 C 1792 1583.332031 1763.832031 1651.167969 1707.5 1707.5 C 1651.167969 1763.832031 1583.332031 1792 1504 1792 L 544 1792 C 464.667969 1792 396.832031 1763.832031 340.5 1707.5 C 284.167969 1651.167969 256 1583.332031 256 1504 L 256 544 C 256 464.667969 284.167969 396.832031 340.5 340.5 C 396.832031 284.167969 464.667969 256 544 256 L 1504 256 C 1583.332031 256 1651.167969 284.167969 1707.5 340.5 C 1763.832031 396.832031 1792 464.667969 1792 544 Z M 1792 544 " fill="white" />
</g>
</svg>
