<?xml version="1.0" encoding="UTF-8"?>
<svg xmlns="http://www.w3.org/2000/svg" xmlns:xlink="http://www.w3.org/1999/xlink" width="2048" height="2048" viewBox="0 0 2048 2048" version="1.1">
<g>
<path d="M 576 1664 L 1472 1664 L 1472 1408 L 576 1408 Z M 576 1024 L 1472 1024 L 1472 640 L 1312 640 C 1285.332031 640 1262.667969 630.667969 1244 612 C 1225.332031 593.332031 1216 570.667969 1216 544 L 1216 384 L 576 384 Z M 1728 1088 C 1728 1070.667969 1721.667969 1055.667969 1709 1043 C 1696.332031 1030.332031 1681.332031 1024 1664 1024 C 1646.667969 1024 1631.667969 1030.332031 1619 1043 C 1606.332031 1055.667969 1600 1070.667969 1600 1088 C 1600 1105.332031 1606.332031 1120.332031 1619 1133 C 1631.667969 1145.667969 1646.667969 1152 1664 1152 C 1681.332031 1152 1696.332031 1145.667969 1709 1133 C 1721.667969 1120.332031 1728 1105.332031 1728 1088 Z M 1856 1088 L 1856 1504 C 1856 1512.667969 1852.832031 1520.167969 1846.5 1526.5 C 1840.167969 1532.832031 1832.667969 1536 1824 1536 L 1600 1536 L 1600 1696 C 1600 1722.667969 1590.667969 1745.332031 1572 1764 C 1553.332031 1782.667969 1530.667969 1792 1504 1792 L 544 1792 C 517.332031 1792 494.667969 1782.667969 476 1764 C 457.332031 1745.332031 448 1722.667969 448 1696 L 448 1536 L 224 1536 C 215.332031 1536 207.832031 1532.832031 201.5 1526.5 C 195.167969 1520.167969 192 1512.667969 192 1504 L 192 1088 C 192 1035.332031 210.832031 990.167969 248.5 952.5 C 286.167969 914.832031 331.332031 896 384 896 L 448 896 L 448 352 C 448 325.332031 457.332031 302.667969 476 284 C 494.667969 265.332031 517.332031 256 544 256 L 1216 256 C 1242.667969 256 1272 262.667969 1304 276 C 1336 289.332031 1361.332031 305.332031 1380 324 L 1532 476 C 1550.667969 494.667969 1566.667969 520 1580 552 C 1593.332031 584 1600 613.332031 1600 640 L 1600 896 L 1664 896 C 1716.667969 896 1761.832031 914.832031 1799.5 952.5 C 1837.167969 990.167969 1856 1035.332031 1856 1088 Z M 1856 1088 " fill="white" />
</g>
</svg>
