<svg width="2048" height="2048" viewBox="-192 -384 2048 2048" xmlns="http://www.w3.org/2000/svg"><g transform="scale(1 -1) translate(0 -1280)"><path d="M384 0h896v256h-896v-256zM384 640h896v384h-160q-40 0 -68 28t-28 68v160h-640v-640zM1536 576q0 26 -19 45t-45 19t-45 -19t-19 -45t19 -45t45 -19t45 19t19 45zM1664 576v-416q0 -13 -9.5 -22.5t-22.5 -9.5h-224v-160q0 -40 -28 -68t-68 -28h-960q-40 0 -68 28t-28 68 v160h-224q-13 0 -22.5 9.5t-9.5 22.5v416q0 79 56.5 135.5t135.5 56.5h64v544q0 40 28 68t68 28h672q40 0 88 -20t76 -48l152 -152q28 -28 48 -76t20 -88v-256h64q79 0 135.5 -56.5t56.5 -135.5z" fill="white" /></g></svg>