<?xml version="1.0" encoding="UTF-8"?>
<svg xmlns="http://www.w3.org/2000/svg" xmlns:xlink="http://www.w3.org/1999/xlink" width="2048" height="2048" viewBox="0 0 2048 2048" version="1.1">
<g>
<path d="M 1152 1504 L 1152 1312 C 1152 1302.667969 1149 1295 1143 1289 C 1137 1283 1129.332031 1280 1120 1280 L 928 1280 C 918.667969 1280 911 1283 905 1289 C 899 1295 896 1302.667969 896 1312 L 896 1504 C 896 1513.332031 899 1521 905 1527 C 911 1533 918.667969 1536 928 1536 L 1120 1536 C 1129.332031 1536 1137 1533 1143 1527 C 1149 1521 1152 1513.332031 1152 1504 Z M 1408 832 C 1408 773.332031 1389.5 719 1352.5 669 C 1315.5 619 1269.332031 580.332031 1214 553 C 1158.667969 525.667969 1102 512 1044 512 C 882 512 758.332031 583 673 725 C 663 741 665.667969 755 681 767 L 813 867 C 817.667969 871 824 873 832 873 C 842.667969 873 851 869 857 861 C 892.332031 815.667969 921 785 943 769 C 965.667969 753 994.332031 745 1029 745 C 1061 745 1089.5 753.667969 1114.5 771 C 1139.5 788.332031 1152 808 1152 830 C 1152 855.332031 1145.332031 875.667969 1132 891 C 1118.667969 906.332031 1096 921.332031 1064 936 C 1022 954.667969 983.5 983.5 948.5 1022.5 C 913.5 1061.5 896 1103.332031 896 1148 L 896 1184 C 896 1193.332031 899 1201 905 1207 C 911 1213 918.667969 1216 928 1216 L 1120 1216 C 1129.332031 1216 1137 1213 1143 1207 C 1149 1201 1152 1193.332031 1152 1184 C 1152 1171.332031 1159.167969 1154.832031 1173.5 1134.5 C 1187.832031 1114.167969 1206 1097.667969 1228 1085 C 1249.332031 1073 1265.667969 1063.5 1277 1056.5 C 1288.332031 1049.5 1303.667969 1037.832031 1323 1021.5 C 1342.332031 1005.167969 1357.167969 989.167969 1367.5 973.5 C 1377.832031 957.832031 1387.167969 937.667969 1395.5 913 C 1403.832031 888.332031 1408 861.332031 1408 832 Z M 1792 1024 C 1792 1163.332031 1757.667969 1291.832031 1689 1409.5 C 1620.332031 1527.167969 1527.167969 1620.332031 1409.5 1689 C 1291.832031 1757.667969 1163.332031 1792 1024 1792 C 884.667969 1792 756.167969 1757.667969 638.5 1689 C 520.832031 1620.332031 427.667969 1527.167969 359 1409.5 C 290.332031 1291.832031 256 1163.332031 256 1024 C 256 884.667969 290.332031 756.167969 359 638.5 C 427.667969 520.832031 520.832031 427.667969 638.5 359 C 756.167969 290.332031 884.667969 256 1024 256 C 1163.332031 256 1291.832031 290.332031 1409.5 359 C 1527.167969 427.667969 1620.332031 520.832031 1689 638.5 C 1757.667969 756.167969 1792 884.667969 1792 1024 Z M 1792 1024 " fill="white" />
</g>
</svg>
