<svg width="2048" height="2048" viewBox="-192 -384 2048 2048" xmlns="http://www.w3.org/2000/svg"><g transform="scale(1 -1) translate(0 -1280)"><path d="M768 1216v-704q0 -104 -40.5 -198.5t-109.5 -163.5t-163.5 -109.5t-198.5 -40.5h-64q-26 0 -45 19t-19 45v128q0 26 19 45t45 19h64q106 0 181 75t75 181v32q0 40 -28 68t-68 28h-224q-80 0 -136 56t-56 136v384q0 80 56 136t136 56h384q80 0 136 -56t56 -136zM1664 1216 v-704q0 -104 -40.5 -198.5t-109.5 -163.5t-163.5 -109.5t-198.5 -40.5h-64q-26 0 -45 19t-19 45v128q0 26 19 45t45 19h64q106 0 181 75t75 181v32q0 40 -28 68t-68 28h-224q-80 0 -136 56t-56 136v384q0 80 56 136t136 56h384q80 0 136 -56t56 -136z" fill="white" /></g></svg>