<?xml version="1.0" encoding="UTF-8"?>
<svg xmlns="http://www.w3.org/2000/svg" xmlns:xlink="http://www.w3.org/1999/xlink" width="2048" height="2048" viewBox="0 0 2048 2048" version="1.1">
<g>
<path d="M 960 448 L 960 1152 C 960 1221.332031 946.5 1287.5 919.5 1350.5 C 892.5 1413.5 856 1468 810 1514 C 764 1560 709.5 1596.5 646.5 1623.5 C 583.5 1650.5 517.332031 1664 448 1664 L 384 1664 C 366.667969 1664 351.667969 1657.667969 339 1645 C 326.332031 1632.332031 320 1617.332031 320 1600 L 320 1472 C 320 1454.667969 326.332031 1439.667969 339 1427 C 351.667969 1414.332031 366.667969 1408 384 1408 L 448 1408 C 518.667969 1408 579 1383 629 1333 C 679 1283 704 1222.667969 704 1152 L 704 1120 C 704 1093.332031 694.667969 1070.667969 676 1052 C 657.332031 1033.332031 634.667969 1024 608 1024 L 384 1024 C 330.667969 1024 285.332031 1005.332031 248 968 C 210.667969 930.667969 192 885.332031 192 832 L 192 448 C 192 394.667969 210.667969 349.332031 248 312 C 285.332031 274.667969 330.667969 256 384 256 L 768 256 C 821.332031 256 866.667969 274.667969 904 312 C 941.332031 349.332031 960 394.667969 960 448 Z M 1856 448 L 1856 1152 C 1856 1221.332031 1842.5 1287.5 1815.5 1350.5 C 1788.5 1413.5 1752 1468 1706 1514 C 1660 1560 1605.5 1596.5 1542.5 1623.5 C 1479.5 1650.5 1413.332031 1664 1344 1664 L 1280 1664 C 1262.667969 1664 1247.667969 1657.667969 1235 1645 C 1222.332031 1632.332031 1216 1617.332031 1216 1600 L 1216 1472 C 1216 1454.667969 1222.332031 1439.667969 1235 1427 C 1247.667969 1414.332031 1262.667969 1408 1280 1408 L 1344 1408 C 1414.667969 1408 1475 1383 1525 1333 C 1575 1283 1600 1222.667969 1600 1152 L 1600 1120 C 1600 1093.332031 1590.667969 1070.667969 1572 1052 C 1553.332031 1033.332031 1530.667969 1024 1504 1024 L 1280 1024 C 1226.667969 1024 1181.332031 1005.332031 1144 968 C 1106.667969 930.667969 1088 885.332031 1088 832 L 1088 448 C 1088 394.667969 1106.667969 349.332031 1144 312 C 1181.332031 274.667969 1226.667969 256 1280 256 L 1664 256 C 1717.332031 256 1762.667969 274.667969 1800 312 C 1837.332031 349.332031 1856 394.667969 1856 448 Z M 1856 448 " fill="white" />
</g>
</svg>
