<svg width="2048" height="2048" viewBox="-128 -384 2048 2048" xmlns="http://www.w3.org/2000/svg"><g transform="scale(1 -1) translate(0 -1280)"><path d="M666 1055q-60 -92 -137 -273q-22 45 -37 72.5t-40.5 63.5t-51 56.5t-63 35t-81.5 14.5h-224q-14 0 -23 9t-9 23v192q0 14 9 23t23 9h224q250 0 410 -225zM1792 256q0 -14 -9 -23l-320 -320q-9 -9 -23 -9q-13 0 -22.5 9.5t-9.5 22.5v192q-32 0 -85 -0.5t-81 -1t-73 1 t-71 5t-64 10.5t-63 18.5t-58 28.5t-59 40t-55 53.5t-56 69.5q59 93 136 273q22 -45 37 -72.5t40.5 -63.5t51 -56.5t63 -35t81.5 -14.5h256v192q0 14 9 23t23 9q12 0 24 -10l319 -319q9 -9 9 -23zM1792 1152q0 -14 -9 -23l-320 -320q-9 -9 -23 -9q-13 0 -22.5 9.5t-9.5 22.5 v192h-256q-48 0 -87 -15t-69 -45t-51 -61.5t-45 -77.5q-32 -62 -78 -171q-29 -66 -49.5 -111t-54 -105t-64 -100t-74 -83t-90 -68.5t-106.5 -42t-128 -16.5h-224q-14 0 -23 9t-9 23v192q0 14 9 23t23 9h224q48 0 87 15t69 45t51 61.5t45 77.5q32 62 78 171q29 66 49.5 111 t54 105t64 100t74 83t90 68.5t106.5 42t128 16.5h256v192q0 14 9 23t23 9q12 0 24 -10l319 -319q9 -9 9 -23z" fill="white" /></g></svg>