<?xml version="1.0" encoding="UTF-8"?>
<svg xmlns="http://www.w3.org/2000/svg" xmlns:xlink="http://www.w3.org/1999/xlink" width="2048" height="2048" viewBox="0 0 2048 2048" version="1.1">
<g>
<path d="M 1767 1184 C 1767 1187.332031 1766.667969 1189.667969 1766 1191 C 1723.332031 1369.667969 1634 1514.5 1498 1625.5 C 1362 1736.5 1202.667969 1792 1020 1792 C 922.667969 1792 828.5 1773.667969 737.5 1737 C 646.5 1700.332031 565.332031 1648 494 1580 L 365 1709 C 352.332031 1721.667969 337.332031 1728 320 1728 C 302.667969 1728 287.667969 1721.667969 275 1709 C 262.332031 1696.332031 256 1681.332031 256 1664 L 256 1216 C 256 1198.667969 262.332031 1183.667969 275 1171 C 287.667969 1158.332031 302.667969 1152 320 1152 L 768 1152 C 785.332031 1152 800.332031 1158.332031 813 1171 C 825.667969 1183.667969 832 1198.667969 832 1216 C 832 1233.332031 825.667969 1248.332031 813 1261 L 676 1398 C 723.332031 1442 777 1476 837 1500 C 897 1524 959.332031 1536 1024 1536 C 1113.332031 1536 1196.667969 1514.332031 1274 1471 C 1351.332031 1427.667969 1413.332031 1368 1460 1292 C 1467.332031 1280.667969 1485 1241.667969 1513 1175 C 1518.332031 1159.667969 1528.332031 1152 1543 1152 L 1735 1152 C 1743.667969 1152 1751.167969 1155.167969 1757.5 1161.5 C 1763.832031 1167.832031 1767 1175.332031 1767 1184 Z M 1792 384 L 1792 832 C 1792 849.332031 1785.667969 864.332031 1773 877 C 1760.332031 889.667969 1745.332031 896 1728 896 L 1280 896 C 1262.667969 896 1247.667969 889.667969 1235 877 C 1222.332031 864.332031 1216 849.332031 1216 832 C 1216 814.667969 1222.332031 799.667969 1235 787 L 1373 649 C 1274.332031 557.667969 1158 512 1024 512 C 934.667969 512 851.332031 533.667969 774 577 C 696.667969 620.332031 634.667969 680 588 756 C 580.667969 767.332031 563 806.332031 535 873 C 529.667969 888.332031 519.667969 896 505 896 L 306 896 C 297.332031 896 289.832031 892.832031 283.5 886.5 C 277.167969 880.167969 274 872.667969 274 864 L 274 857 C 317.332031 678.332031 407.332031 533.5 544 422.5 C 680.667969 311.5 840.667969 256 1024 256 C 1121.332031 256 1216 274.5 1308 311.5 C 1400 348.5 1481.667969 400.667969 1553 468 L 1683 339 C 1695.667969 326.332031 1710.667969 320 1728 320 C 1745.332031 320 1760.332031 326.332031 1773 339 C 1785.667969 351.667969 1792 366.667969 1792 384 Z M 1792 384 " fill="white" />
</g>
</svg>
