<svg width="2048" height="2048" viewBox="-256 -384 2048 2048" xmlns="http://www.w3.org/2000/svg"><g transform="scale(1 -1) translate(0 -1280)"><path d="M1511 480q0 -5 -1 -7q-64 -268 -268 -434.5t-478 -166.5q-146 0 -282.5 55t-243.5 157l-129 -129q-19 -19 -45 -19t-45 19t-19 45v448q0 26 19 45t45 19h448q26 0 45 -19t19 -45t-19 -45l-137 -137q71 -66 161 -102t187 -36q134 0 250 65t186 179q11 17 53 117 q8 23 30 23h192q13 0 22.5 -9.5t9.5 -22.5zM1536 1280v-448q0 -26 -19 -45t-45 -19h-448q-26 0 -45 19t-19 45t19 45l138 138q-148 137 -349 137q-134 0 -250 -65t-186 -179q-11 -17 -53 -117q-8 -23 -30 -23h-199q-13 0 -22.5 9.5t-9.5 22.5v7q65 268 270 434.5t480 166.5 q146 0 284 -55.5t245 -156.5l130 129q19 19 45 19t45 -19t19 -45z" fill="white" /></g></svg>