<?xml version="1.0" encoding="UTF-8"?>
<svg xmlns="http://www.w3.org/2000/svg" xmlns:xlink="http://www.w3.org/1999/xlink" width="2048" height="2048" viewBox="0 0 2048 2048" version="1.1">
<g>
<path d="M 1389 1698 C 1275 1760.667969 1152.332031 1792 1021 1792 C 890.332031 1792 768 1760.667969 654 1698 C 746 1640 824.5 1569.667969 889.5 1487 C 954.5 1404.332031 998.332031 1315 1021 1219 C 1044.332031 1315 1088.5 1404.332031 1153.5 1487 C 1218.5 1569.667969 1297 1640 1389 1698 Z M 894 270 L 894 755 C 894 923 851.832031 1076.167969 767.5 1214.5 C 683.167969 1352.832031 573 1455 437 1521 C 316.332031 1377.667969 256 1212.667969 256 1026 C 256 901.332031 283.832031 784.832031 339.5 676.5 C 395.167969 568.167969 471.667969 478.332031 569 407 C 666.332031 335.667969 774.667969 290 894 270 Z M 1792 1026 C 1792 1212.667969 1731.667969 1377.667969 1611 1521 C 1475 1455 1364.832031 1352.832031 1280.5 1214.5 C 1196.167969 1076.167969 1154 923 1154 755 L 1154 270 C 1273.332031 290 1381.667969 335.667969 1479 407 C 1576.332031 478.332031 1652.832031 568.167969 1708.5 676.5 C 1764.167969 784.832031 1792 901.332031 1792 1026 Z M 1792 1026 " fill="white" />
</g>
</svg>
