<?xml version="1.0" encoding="UTF-8"?>
<svg xmlns="http://www.w3.org/2000/svg" xmlns:xlink="http://www.w3.org/1999/xlink" width="2048" height="2048" viewBox="0 0 2048 2048" version="1.1">
<g>
<path d="M 1792 384 L 1792 832 C 1792 849.332031 1785.667969 864.332031 1773 877 C 1760.332031 889.667969 1745.332031 896 1728 896 L 1280 896 C 1252 896 1232.332031 882.667969 1221 856 C 1209.667969 830 1214.332031 807 1235 787 L 1373 649 C 1274.332031 557.667969 1158 512 1024 512 C 954.667969 512 888.5 525.5 825.5 552.5 C 762.5 579.5 708 616 662 662 C 616 708 579.5 762.5 552.5 825.5 C 525.5 888.5 512 954.667969 512 1024 C 512 1093.332031 525.5 1159.5 552.5 1222.5 C 579.5 1285.5 616 1340 662 1386 C 708 1432 762.5 1468.5 825.5 1495.5 C 888.5 1522.5 954.667969 1536 1024 1536 C 1103.332031 1536 1178.332031 1518.667969 1249 1484 C 1319.667969 1449.332031 1379.332031 1400.332031 1428 1337 C 1432.667969 1330.332031 1440.332031 1326.332031 1451 1325 C 1460.332031 1325 1468.667969 1328 1476 1334 L 1613 1472 C 1619 1477.332031 1622.167969 1484.167969 1622.5 1492.5 C 1622.832031 1500.832031 1620.332031 1508.332031 1615 1515 C 1542.332031 1603 1454.332031 1671.167969 1351 1719.5 C 1247.667969 1767.832031 1138.667969 1792 1024 1792 C 920 1792 820.667969 1771.667969 726 1731 C 631.332031 1690.332031 549.667969 1635.667969 481 1567 C 412.332031 1498.332031 357.667969 1416.667969 317 1322 C 276.332031 1227.332031 256 1128 256 1024 C 256 920 276.332031 820.667969 317 726 C 357.667969 631.332031 412.332031 549.667969 481 481 C 549.667969 412.332031 631.332031 357.667969 726 317 C 820.667969 276.332031 920 256 1024 256 C 1122 256 1216.832031 274.5 1308.5 311.5 C 1400.167969 348.5 1481.667969 400.667969 1553 468 L 1683 339 C 1702.332031 318.332031 1725.667969 313.667969 1753 325 C 1779 336.332031 1792 356 1792 384 Z M 1792 384 " fill="white" />
</g>
</svg>
