<?xml version="1.0" encoding="UTF-8"?>
<svg xmlns="http://www.w3.org/2000/svg" xmlns:xlink="http://www.w3.org/1999/xlink" width="2048" height="2048" viewBox="0 0 2048 2048" version="1.1">
<g>
<path d="M 1920 1248 C 1920 1358.667969 1877.667969 1509 1793 1699 C 1791 1703.667969 1787.5 1711.667969 1782.5 1723 C 1777.5 1734.332031 1773 1744.332031 1769 1753 C 1765 1761.667969 1760.667969 1769 1756 1775 C 1748 1786.332031 1738.667969 1792 1728 1792 C 1718 1792 1710.167969 1788.667969 1704.5 1782 C 1698.832031 1775.332031 1696 1767 1696 1757 C 1696 1751 1696.832031 1742.167969 1698.5 1730.5 C 1700.167969 1718.832031 1701 1711 1701 1707 C 1704.332031 1661.667969 1706 1620.667969 1706 1584 C 1706 1516.667969 1700.167969 1456.332031 1688.5 1403 C 1676.832031 1349.667969 1660.667969 1303.5 1640 1264.5 C 1619.332031 1225.5 1592.667969 1191.832031 1560 1163.5 C 1527.332031 1135.167969 1492.167969 1112 1454.5 1094 C 1416.832031 1076 1372.5 1061.832031 1321.5 1051.5 C 1270.5 1041.167969 1219.167969 1034 1167.5 1030 C 1115.832031 1026 1057.332031 1024 992 1024 L 768 1024 L 768 1280 C 768 1297.332031 761.667969 1312.332031 749 1325 C 736.332031 1337.667969 721.332031 1344 704 1344 C 686.667969 1344 671.667969 1337.667969 659 1325 L 147 813 C 134.332031 800.332031 128 785.332031 128 768 C 128 750.667969 134.332031 735.667969 147 723 L 659 211 C 671.667969 198.332031 686.667969 192 704 192 C 721.332031 192 736.332031 198.332031 749 211 C 761.667969 223.667969 768 238.667969 768 256 L 768 512 L 992 512 C 1467.332031 512 1759 646.332031 1867 915 C 1902.332031 1004.332031 1920 1115.332031 1920 1248 Z M 1920 1248 " fill="white" />
</g>
</svg>
