<?xml version="1.0" encoding="UTF-8"?>
<svg xmlns="http://www.w3.org/2000/svg" xmlns:xlink="http://www.w3.org/1999/xlink" width="2048" height="2048" viewBox="0 0 2048 2048" version="1.1">
<g>
<path d="M 1175 1124 L 1175 1120 L 1151 800 C 1150.332031 791.332031 1146.667969 783.832031 1140 777.5 C 1133.332031 771.167969 1125.667969 768 1117 768 L 931 768 C 922.332031 768 914.667969 771.167969 908 777.5 C 901.332031 783.832031 897.667969 791.332031 897 800 L 873 1120 L 873 1124 C 872.332031 1132 875 1138.667969 881 1144 C 887 1149.332031 894 1152 902 1152 L 1146 1152 C 1154 1152 1161 1149.332031 1167 1144 C 1173 1138.667969 1175.667969 1132 1175 1124 Z M 1934 1591 C 1934 1639.667969 1918.667969 1664 1888 1664 L 1184 1664 C 1192.667969 1664 1200 1660.832031 1206 1654.5 C 1212 1648.167969 1214.667969 1640.667969 1214 1632 L 1194 1376 C 1193.332031 1367.332031 1189.667969 1359.832031 1183 1353.5 C 1176.332031 1347.167969 1168.667969 1344 1160 1344 L 888 1344 C 879.332031 1344 871.667969 1347.167969 865 1353.5 C 858.332031 1359.832031 854.667969 1367.332031 854 1376 L 834 1632 C 833.332031 1640.667969 836 1648.167969 842 1654.5 C 848 1660.832031 855.332031 1664 864 1664 L 160 1664 C 129.332031 1664 114 1639.667969 114 1591 C 114 1555 122.667969 1516.332031 140 1475 L 557 431 C 562.332031 418.332031 571 407.332031 583 398 C 595 388.667969 607.667969 384 621 384 L 960 384 C 951.332031 384 943.667969 387.167969 937 393.5 C 930.332031 399.832031 926.667969 407.332031 926 416 L 911 608 C 910.332031 617.332031 913 625 919 631 C 925 637 932.332031 640 941 640 L 1107 640 C 1115.667969 640 1123 637 1129 631 C 1135 625 1137.667969 617.332031 1137 608 L 1122 416 C 1121.332031 407.332031 1117.667969 399.832031 1111 393.5 C 1104.332031 387.167969 1096.667969 384 1088 384 L 1427 384 C 1440.332031 384 1453 388.667969 1465 398 C 1477 407.332031 1485.667969 418.332031 1491 431 L 1908 1475 C 1925.332031 1516.332031 1934 1555 1934 1591 Z M 1934 1591 " fill="white" />
</g>
</svg>
