<svg width="2048" height="2048" viewBox="-192 -384 2048 2048" xmlns="http://www.w3.org/2000/svg"><g transform="scale(1 -1) translate(0 -1280)"><path d="M1440 1088q0 40 -28 68t-68 28t-68 -28t-28 -68t28 -68t68 -28t68 28t28 68zM1664 1376q0 -249 -75.5 -430.5t-253.5 -360.5q-81 -80 -195 -176l-20 -379q-2 -16 -16 -26l-384 -224q-7 -4 -16 -4q-12 0 -23 9l-64 64q-13 14 -8 32l85 276l-281 281l-276 -85q-3 -1 -9 -1 q-14 0 -23 9l-64 64q-17 19 -5 39l224 384q10 14 26 16l379 20q96 114 176 195q188 187 358 258t431 71q14 0 24 -9.5t10 -22.5z" fill="white" /></g></svg>