<?xml version="1.0" encoding="UTF-8"?>
<svg xmlns="http://www.w3.org/2000/svg" xmlns:xlink="http://www.w3.org/1999/xlink" width="2048" height="2048" viewBox="0 0 2048 2048" version="1.1">
<g>
<path d="M 704 1472 C 704 1525.332031 685.332031 1570.667969 648 1608 C 610.667969 1645.332031 565.332031 1664 512 1664 C 458.667969 1664 413.332031 1645.332031 376 1608 C 338.667969 1570.667969 320 1525.332031 320 1472 C 320 1418.667969 338.667969 1373.332031 376 1336 C 413.332031 1298.667969 458.667969 1280 512 1280 C 565.332031 1280 610.667969 1298.667969 648 1336 C 685.332031 1373.332031 704 1418.667969 704 1472 Z M 1216 1595 C 1217.332031 1613.667969 1211.667969 1629.667969 1199 1643 C 1187 1657 1171.332031 1664 1152 1664 L 1017 1664 C 1000.332031 1664 986 1658.5 974 1647.5 C 962 1636.5 955.332031 1622.667969 954 1606 C 939.332031 1453.332031 877.832031 1322.832031 769.5 1214.5 C 661.167969 1106.167969 530.667969 1044.667969 378 1030 C 361.332031 1028.667969 347.5 1022 336.5 1010 C 325.5 998 320 983.667969 320 967 L 320 832 C 320 812.667969 327 797 341 785 C 352.332031 773.667969 366.667969 768 384 768 L 389 768 C 495.667969 776.667969 597.667969 803.5 695 848.5 C 792.332031 893.5 878.667969 954 954 1030 C 1030 1105.332031 1090.5 1191.667969 1135.5 1289 C 1180.5 1386.332031 1207.332031 1488.332031 1216 1595 Z M 1728 1597 C 1729.332031 1615 1723.332031 1630.667969 1710 1644 C 1698 1657.332031 1682.667969 1664 1664 1664 L 1521 1664 C 1503.667969 1664 1488.832031 1658.167969 1476.5 1646.5 C 1464.167969 1634.832031 1457.667969 1620.667969 1457 1604 C 1449 1460.667969 1415.332031 1324.5 1356 1195.5 C 1296.667969 1066.5 1219.5 954.5 1124.5 859.5 C 1029.5 764.5 917.5 687.332031 788.5 628 C 659.5 568.667969 523.332031 534.667969 380 526 C 363.332031 525.332031 349.167969 518.832031 337.5 506.5 C 325.832031 494.167969 320 479.667969 320 463 L 320 320 C 320 301.332031 326.667969 286 340 274 C 352 262 366.667969 256 384 256 L 387 256 C 561.667969 264.667969 728.832031 304.667969 888.5 376 C 1048.167969 447.332031 1190 545.332031 1314 670 C 1438.667969 794 1536.667969 935.832031 1608 1095.5 C 1679.332031 1255.167969 1719.332031 1422.332031 1728 1597 Z M 1728 1597 " fill="white" />
</g>
</svg>
