<svg width="2048" height="2048" viewBox="-320 -384 2048 2048" xmlns="http://www.w3.org/2000/svg"><g transform="scale(1 -1) translate(0 -1280)"><path d="M384 192q0 -80 -56 -136t-136 -56t-136 56t-56 136t56 136t136 56t136 -56t56 -136zM896 69q2 -28 -17 -48q-18 -21 -47 -21h-135q-25 0 -43 16.5t-20 41.5q-22 229 -184.5 391.5t-391.5 184.5q-25 2 -41.5 20t-16.5 43v135q0 29 21 47q17 17 43 17h5q160 -13 306 -80.5 t259 -181.5q114 -113 181.5 -259t80.5 -306zM1408 67q2 -27 -18 -47q-18 -20 -46 -20h-143q-26 0 -44.5 17.5t-19.5 42.5q-12 215 -101 408.5t-231.5 336t-336 231.5t-408.5 102q-25 1 -42.5 19.5t-17.5 43.5v143q0 28 20 46q18 18 44 18h3q262 -13 501.5 -120t425.5 -294 q187 -186 294 -425.5t120 -501.5z" fill="white" /></g></svg>