<?xml version="1.0" encoding="UTF-8"?>
<svg xmlns="http://www.w3.org/2000/svg" xmlns:xlink="http://www.w3.org/1999/xlink" width="2048" height="2048" viewBox="0 0 2048 2048" version="1.1">
<g>
<path d="M 1088 1024 C 1105.332031 1024 1120.332031 1030.332031 1133 1043 C 1145.667969 1055.667969 1152 1070.667969 1152 1088 C 1152 1105.332031 1145.667969 1120.332031 1133 1133 C 1120.332031 1145.667969 1105.332031 1152 1088 1152 C 1070.667969 1152 1055.667969 1145.667969 1043 1133 C 1030.332031 1120.332031 1024 1105.332031 1024 1088 C 1024 1070.667969 1030.332031 1055.667969 1043 1043 C 1055.667969 1030.332031 1070.667969 1024 1088 1024 Z M 1388 1088 L 1895 1486 C 1913.667969 1499.332031 1922 1518 1920 1542 C 1916.667969 1565.332031 1905 1582.332031 1885 1593 L 1757 1657 C 1748.332031 1661.667969 1738.667969 1664 1728 1664 C 1716.667969 1664 1706.332031 1661.332031 1697 1656 L 1007 1269 L 897 1335 C 891.667969 1337.667969 887.667969 1339.332031 885 1340 C 894.332031 1372.667969 897.667969 1405 895 1437 C 890.332031 1488.332031 871.667969 1537.5 839 1584.5 C 806.332031 1631.5 762.332031 1672.667969 707 1708 C 619 1764 526.667969 1792 430 1792 C 339.332031 1792 265.332031 1766 208 1714 C 148 1658 121.667969 1589 129 1507 C 133.667969 1456.332031 152.332031 1407.332031 185 1360 C 217.667969 1312.667969 261.332031 1271.332031 316 1236 C 404 1180 496.667969 1152 594 1152 C 649.332031 1152 699.667969 1162.332031 745 1183 C 751 1174.332031 758.332031 1167 767 1161 L 889 1088 L 767 1015 C 758.332031 1009 751 1001.667969 745 993 C 699.667969 1013.667969 649.332031 1024 594 1024 C 496.667969 1024 404 996 316 940 C 261.332031 904.667969 217.667969 863.332031 185 816 C 152.332031 768.667969 133.667969 719.667969 129 669 C 125.667969 629.667969 130.832031 592 144.5 556 C 158.167969 520 179.332031 489 208 463 C 264.667969 410.332031 338.667969 384 430 384 C 526.667969 384 619 412 707 468 C 762.332031 502.667969 806.332031 543.667969 839 591 C 871.667969 638.332031 890.332031 687.667969 895 739 C 897.667969 771 894.332031 803.332031 885 836 C 887.667969 836.667969 891.667969 838.332031 897 841 L 1007 907 L 1697 520 C 1706.332031 514.667969 1716.667969 512 1728 512 C 1738.667969 512 1748.332031 514.332031 1757 519 L 1885 583 C 1905 593.667969 1916.667969 610.667969 1920 634 C 1922 658 1913.667969 676.667969 1895 690 Z M 707 828 C 737.667969 800 744.667969 764 728 720 C 711.332031 676 676 637 622 603 C 560.667969 563.667969 496.667969 544 430 544 C 380.667969 544 343 556 317 580 C 286.332031 608 279.332031 644 296 688 C 312.667969 732 348 771 402 805 C 463.332031 844.332031 527.332031 864 594 864 C 643.332031 864 681 852 707 828 Z M 622 1573 C 676 1539 711.332031 1500 728 1456 C 744.667969 1412 737.667969 1376 707 1348 C 681 1324 643.332031 1312 594 1312 C 527.332031 1312 463.332031 1331.667969 402 1371 C 348 1405 312.667969 1444 296 1488 C 279.332031 1532 286.332031 1568 317 1596 C 343 1620 380.667969 1632 430 1632 C 496.667969 1632 560.667969 1612.332031 622 1573 Z M 800 960 L 896 1018 L 896 1007 C 896 983 907 964.332031 929 951 L 943 943 L 864 896 L 838 922 C 836 924 832.667969 927.667969 828 933 C 823.332031 938.332031 819.332031 942.332031 816 945 C 814.667969 946.332031 813.332031 947.5 812 948.5 C 810.667969 949.5 809.667969 950.332031 809 951 Z M 1024 1184 L 1120 1216 L 1856 640 L 1728 576 L 960 1007 L 960 1120 L 800 1216 L 809 1224 C 810.332031 1225.332031 812.667969 1227.332031 816 1230 C 818.667969 1232.667969 822.332031 1236.667969 827 1242 C 831.667969 1247.332031 835.332031 1251.332031 838 1254 L 864 1280 Z M 1728 1600 L 1856 1536 L 1336 1128 L 1159 1266 C 1157.667969 1268 1153.332031 1270.332031 1146 1273 Z M 1728 1600 " fill="white" />
</g>
</svg>
