<svg width="2048" height="2048" viewBox="-128 -384 2048 2048" xmlns="http://www.w3.org/2000/svg"><g transform="scale(1 -1) translate(0 -1280)"><path d="M960 640q26 0 45 -19t19 -45t-19 -45t-45 -19t-45 19t-19 45t19 45t45 19zM1260 576l507 -398q28 -20 25 -56q-5 -35 -35 -51l-128 -64q-13 -7 -29 -7q-17 0 -31 8l-690 387l-110 -66q-8 -4 -12 -5q14 -49 10 -97q-7 -77 -56 -147.5t-132 -123.5q-132 -84 -277 -84 q-136 0 -222 78q-90 84 -79 207q7 76 56 147t131 124q132 84 278 84q83 0 151 -31q9 13 22 22l122 73l-122 73q-13 9 -22 22q-68 -31 -151 -31q-146 0 -278 84q-82 53 -131 124t-56 147q-5 59 15.5 113t63.5 93q85 79 222 79q145 0 277 -84q83 -52 132 -123t56 -148 q4 -48 -10 -97q4 -1 12 -5l110 -66l690 387q14 8 31 8q16 0 29 -7l128 -64q30 -16 35 -51q3 -36 -25 -56zM579 836q46 42 21 108t-106 117q-92 59 -192 59q-74 0 -113 -36q-46 -42 -21 -108t106 -117q92 -59 192 -59q74 0 113 36zM494 91q81 51 106 117t-21 108 q-39 36 -113 36q-100 0 -192 -59q-81 -51 -106 -117t21 -108q39 -36 113 -36q100 0 192 59zM672 704l96 -58v11q0 36 33 56l14 8l-79 47l-26 -26q-3 -3 -10 -11t-12 -12q-2 -2 -4 -3.5t-3 -2.5zM896 480l96 -32l736 576l-128 64l-768 -431v-113l-160 -96l9 -8q2 -2 7 -6 q4 -4 11 -12t11 -12l26 -26zM1600 64l128 64l-520 408l-177 -138q-2 -3 -13 -7z" fill="white" /></g></svg>