<?xml version="1.0" encoding="UTF-8"?>
<svg xmlns="http://www.w3.org/2000/svg" xmlns:xlink="http://www.w3.org/1999/xlink" width="2048" height="2048" viewBox="0 0 2048 2048" version="1.1">
<g>
<path d="M 1344 960 C 1344 836.667969 1300.167969 731.167969 1212.5 643.5 C 1124.832031 555.832031 1019.332031 512 896 512 C 772.667969 512 667.167969 555.832031 579.5 643.5 C 491.832031 731.167969 448 836.667969 448 960 C 448 1083.332031 491.832031 1188.832031 579.5 1276.5 C 667.167969 1364.167969 772.667969 1408 896 1408 C 1019.332031 1408 1124.832031 1364.167969 1212.5 1276.5 C 1300.167969 1188.832031 1344 1083.332031 1344 960 Z M 1856 1792 C 1856 1826.667969 1843.332031 1856.667969 1818 1882 C 1792.667969 1907.332031 1762.667969 1920 1728 1920 C 1692 1920 1662 1907.332031 1638 1882 L 1295 1540 C 1175.667969 1622.667969 1042.667969 1664 896 1664 C 800.667969 1664 709.5 1645.5 622.5 1608.5 C 535.5 1571.5 460.5 1521.5 397.5 1458.5 C 334.5 1395.5 284.5 1320.5 247.5 1233.5 C 210.5 1146.5 192 1055.332031 192 960 C 192 864.667969 210.5 773.5 247.5 686.5 C 284.5 599.5 334.5 524.5 397.5 461.5 C 460.5 398.5 535.5 348.5 622.5 311.5 C 709.5 274.5 800.667969 256 896 256 C 991.332031 256 1082.5 274.5 1169.5 311.5 C 1256.5 348.5 1331.5 398.5 1394.5 461.5 C 1457.5 524.5 1507.5 599.5 1544.5 686.5 C 1581.5 773.5 1600 864.667969 1600 960 C 1600 1106.667969 1558.667969 1239.667969 1476 1359 L 1819 1702 C 1843.667969 1726.667969 1856 1756.667969 1856 1792 Z M 1856 1792 " fill="white" />
</g>
</svg>
