<svg width="2048" height="2048" viewBox="-192 -384 2048 2048" xmlns="http://www.w3.org/2000/svg"><g transform="scale(1 -1) translate(0 -1280)"><path d="M1024 736v-64q0 -13 -9.5 -22.5t-22.5 -9.5h-224v-224q0 -13 -9.5 -22.5t-22.5 -9.5h-64q-13 0 -22.5 9.5t-9.5 22.5v224h-224q-13 0 -22.5 9.5t-9.5 22.5v64q0 13 9.5 22.5t22.5 9.5h224v224q0 13 9.5 22.5t22.5 9.5h64q13 0 22.5 -9.5t9.5 -22.5v-224h224 q13 0 22.5 -9.5t9.5 -22.5zM1152 704q0 185 -131.5 316.5t-316.5 131.5t-316.5 -131.5t-131.5 -316.5t131.5 -316.5t316.5 -131.5t316.5 131.5t131.5 316.5zM1664 -128q0 -53 -37.5 -90.5t-90.5 -37.5q-54 0 -90 38l-343 342q-179 -124 -399 -124q-143 0 -273.5 55.5 t-225 150t-150 225t-55.5 273.5t55.5 273.5t150 225t225 150t273.5 55.5t273.5 -55.5t225 -150t150 -225t55.5 -273.5q0 -220 -124 -399l343 -343q37 -37 37 -90z" fill="white" /></g></svg>