<?xml version="1.0" encoding="UTF-8"?>
<svg xmlns="http://www.w3.org/2000/svg" xmlns:xlink="http://www.w3.org/1999/xlink" width="2048" height="2048" viewBox="0 0 2048 2048" version="1.1">
<g>
<path d="M 1261 1229 L 1613 877 C 1625.667969 864.332031 1632 849.332031 1632 832 C 1632 814.667969 1625.667969 799.667969 1613 787 L 1261 435 C 1241 414.332031 1218 409.667969 1192 421 C 1165.332031 432.332031 1152 452 1152 480 L 1152 640 C 1072.667969 640 1000.667969 646.5 936 659.5 C 871.332031 672.5 817.167969 689.5 773.5 710.5 C 729.832031 731.5 691.832031 757.832031 659.5 789.5 C 627.167969 821.167969 601.667969 853 583 885 C 564.332031 917 549.5 953.332031 538.5 994 C 527.5 1034.667969 520.332031 1071.832031 517 1105.5 C 513.667969 1139.167969 512 1176 512 1216 C 512 1336.667969 567.667969 1471.332031 679 1620 C 685.667969 1628 694 1632 704 1632 C 708.667969 1632 713 1631 717 1629 C 731.667969 1623 738 1612 736 1596 C 706.667969 1360 727.332031 1202.332031 798 1123 C 828.667969 1088.332031 872 1063.167969 928 1047.5 C 984 1031.832031 1058.667969 1024 1152 1024 L 1152 1184 C 1152 1212 1165.332031 1231.667969 1192 1243 C 1200 1246.332031 1208 1248 1216 1248 C 1233.332031 1248 1248.332031 1241.667969 1261 1229 Z M 1792 544 L 1792 1504 C 1792 1583.332031 1763.832031 1651.167969 1707.5 1707.5 C 1651.167969 1763.832031 1583.332031 1792 1504 1792 L 544 1792 C 464.667969 1792 396.832031 1763.832031 340.5 1707.5 C 284.167969 1651.167969 256 1583.332031 256 1504 L 256 544 C 256 464.667969 284.167969 396.832031 340.5 340.5 C 396.832031 284.167969 464.667969 256 544 256 L 1504 256 C 1583.332031 256 1651.167969 284.167969 1707.5 340.5 C 1763.832031 396.832031 1792 464.667969 1792 544 Z M 1792 544 " fill="white" />
</g>
</svg>
