<?xml version="1.0" encoding="UTF-8"?>
<svg xmlns="http://www.w3.org/2000/svg" xmlns:xlink="http://www.w3.org/1999/xlink" width="2048" height="2048" viewBox="0 0 2048 2048" version="1.1">
<g>
<path d="M 1600 1117 L 1600 1376 C 1600 1455.332031 1571.832031 1523.167969 1515.5 1579.5 C 1459.167969 1635.832031 1391.332031 1664 1312 1664 L 480 1664 C 400.667969 1664 332.832031 1635.832031 276.5 1579.5 C 220.167969 1523.167969 192 1455.332031 192 1376 L 192 544 C 192 464.667969 220.167969 396.832031 276.5 340.5 C 332.832031 284.167969 400.667969 256 480 256 L 735 256 C 743.667969 256 751.167969 259.167969 757.5 265.5 C 763.832031 271.832031 767 279.332031 767 288 C 767 306 758.332031 316.667969 741 320 C 689.667969 337.332031 645.332031 357.332031 608 380 C 601.332031 382.667969 596 384 592 384 L 480 384 C 436 384 398.332031 399.667969 367 431 C 335.667969 462.332031 320 500 320 544 L 320 1376 C 320 1420 335.667969 1457.667969 367 1489 C 398.332031 1520.332031 436 1536 480 1536 L 1312 1536 C 1356 1536 1393.667969 1520.332031 1425 1489 C 1456.332031 1457.667969 1472 1420 1472 1376 L 1472 1162 C 1472 1149.332031 1478 1139.667969 1490 1133 C 1508.667969 1124.332031 1526.667969 1112 1544 1096 C 1554.667969 1085.332031 1566.332031 1082.667969 1579 1088 C 1593 1094 1600 1103.667969 1600 1117 Z M 1837 621 L 1453 1005 C 1441 1017.667969 1426 1024 1408 1024 C 1400 1024 1391.667969 1022.332031 1383 1019 C 1357 1007.667969 1344 988 1344 960 L 1344 768 L 1184 768 C 968.667969 768 822.667969 811.667969 746 899 C 666.667969 990.332031 642 1148 672 1372 C 674 1387.332031 667.332031 1398.667969 652 1406 C 646.667969 1407.332031 642.667969 1408 640 1408 C 629.332031 1408 620.667969 1403.667969 614 1395 C 607.332031 1385.667969 600.332031 1375.332031 593 1364 C 585.667969 1352.667969 572.5 1329.832031 553.5 1295.5 C 534.5 1261.167969 518 1228 504 1196 C 490 1164 477.167969 1126 465.5 1082 C 453.832031 1038 448 997.332031 448 960 C 448 927.332031 449.167969 897 451.5 869 C 453.832031 841 458.5 811 465.5 779 C 472.5 747 481.832031 717.667969 493.5 691 C 505.167969 664.332031 520.832031 637.167969 540.5 609.5 C 560.167969 581.832031 583 557.167969 609 535.5 C 635 513.832031 666.5 493.332031 703.5 474 C 740.5 454.667969 782 438.5 828 425.5 C 874 412.5 927.167969 402.332031 987.5 395 C 1047.832031 387.667969 1113.332031 384 1184 384 L 1344 384 L 1344 192 C 1344 164 1357 144.332031 1383 133 C 1391.667969 129.667969 1400 128 1408 128 C 1425.332031 128 1440.332031 134.332031 1453 147 L 1837 531 C 1849.667969 543.667969 1856 558.667969 1856 576 C 1856 593.332031 1849.667969 608.332031 1837 621 Z M 1837 621 " fill="white" />
</g>
</svg>
