<?xml version="1.0" encoding="UTF-8"?>
<svg xmlns="http://www.w3.org/2000/svg" xmlns:xlink="http://www.w3.org/1999/xlink" width="2048" height="2048" viewBox="0 0 2048 2048" version="1.1">
<g>
<path d="M 1920 768 C 1920 785.332031 1913.667969 800.332031 1901 813 L 1389 1325 C 1376.332031 1337.667969 1361.332031 1344 1344 1344 C 1326.667969 1344 1311.667969 1337.667969 1299 1325 C 1286.332031 1312.332031 1280 1297.332031 1280 1280 L 1280 1024 L 1056 1024 C 990.667969 1024 932.167969 1026 880.5 1030 C 828.832031 1034 777.5 1041.167969 726.5 1051.5 C 675.5 1061.832031 631.167969 1076 593.5 1094 C 555.832031 1112 520.667969 1135.167969 488 1163.5 C 455.332031 1191.832031 428.667969 1225.5 408 1264.5 C 387.332031 1303.5 371.167969 1349.667969 359.5 1403 C 347.832031 1456.332031 342 1516.667969 342 1584 C 342 1620.667969 343.667969 1661.667969 347 1707 C 347 1711 347.832031 1718.832031 349.5 1730.5 C 351.167969 1742.167969 352 1751 352 1757 C 352 1767 349.167969 1775.332031 343.5 1782 C 337.832031 1788.667969 330 1792 320 1792 C 309.332031 1792 300 1786.332031 292 1775 C 287.332031 1769 283 1761.667969 279 1753 C 275 1744.332031 270.5 1734.332031 265.5 1723 C 260.5 1711.667969 257 1703.667969 255 1699 C 170.332031 1509 128 1358.667969 128 1248 C 128 1115.332031 145.667969 1004.332031 181 915 C 289 646.332031 580.667969 512 1056 512 L 1280 512 L 1280 256 C 1280 238.667969 1286.332031 223.667969 1299 211 C 1311.667969 198.332031 1326.667969 192 1344 192 C 1361.332031 192 1376.332031 198.332031 1389 211 L 1901 723 C 1913.667969 735.667969 1920 750.667969 1920 768 Z M 1920 768 " fill="white" />
</g>
</svg>
