<svg width="2048" height="2048" viewBox="-256 -384 2048 2048" xmlns="http://www.w3.org/2000/svg"><g transform="scale(1 -1) translate(0 -1280)"><path d="M1005 435l352 352q19 19 19 45t-19 45l-352 352q-30 31 -69 14q-40 -17 -40 -59v-160q-119 0 -216 -19.5t-162.5 -51t-114 -79t-76.5 -95.5t-44.5 -109t-21.5 -111.5t-5 -110.5q0 -181 167 -404q10 -12 25 -12q7 0 13 3q22 9 19 33q-44 354 62 473q46 52 130 75.5 t224 23.5v-160q0 -42 40 -59q12 -5 24 -5q26 0 45 19zM1536 1120v-960q0 -119 -84.5 -203.5t-203.5 -84.5h-960q-119 0 -203.5 84.5t-84.5 203.5v960q0 119 84.5 203.5t203.5 84.5h960q119 0 203.5 -84.5t84.5 -203.5z" fill="white" /></g></svg>