<?xml version="1.0" encoding="UTF-8"?>
<svg xmlns="http://www.w3.org/2000/svg" xmlns:xlink="http://www.w3.org/1999/xlink" width="2048" height="2048" viewBox="0 0 2048 2048" version="1.1">
<g>
<path d="M 1440 1024 C 1440 1041.332031 1433.667969 1056.332031 1421 1069 L 877 1613 C 864.332031 1625.667969 849.332031 1632 832 1632 C 814.667969 1632 799.667969 1625.667969 787 1613 C 774.332031 1600.332031 768 1585.332031 768 1568 L 768 1280 L 320 1280 C 302.667969 1280 287.667969 1273.667969 275 1261 C 262.332031 1248.332031 256 1233.332031 256 1216 L 256 832 C 256 814.667969 262.332031 799.667969 275 787 C 287.667969 774.332031 302.667969 768 320 768 L 768 768 L 768 480 C 768 462.667969 774.332031 447.667969 787 435 C 799.667969 422.332031 814.667969 416 832 416 C 849.332031 416 864.332031 422.332031 877 435 L 1421 979 C 1433.667969 991.667969 1440 1006.667969 1440 1024 Z M 1792 672 L 1792 1376 C 1792 1455.332031 1763.832031 1523.167969 1707.5 1579.5 C 1651.167969 1635.832031 1583.332031 1664 1504 1664 L 1184 1664 C 1175.332031 1664 1167.832031 1660.832031 1161.5 1654.5 C 1155.167969 1648.167969 1152 1640.667969 1152 1632 C 1152 1629.332031 1151.667969 1622.667969 1151 1612 C 1150.332031 1601.332031 1150.167969 1592.5 1150.5 1585.5 C 1150.832031 1578.5 1151.832031 1570.667969 1153.5 1562 C 1155.167969 1553.332031 1158.5 1546.832031 1163.5 1542.5 C 1168.5 1538.167969 1175.332031 1536 1184 1536 L 1504 1536 C 1548 1536 1585.667969 1520.332031 1617 1489 C 1648.332031 1457.667969 1664 1420 1664 1376 L 1664 672 C 1664 628 1648.332031 590.332031 1617 559 C 1585.667969 527.667969 1548 512 1504 512 L 1192 512 C 1192 512 1188.167969 511.667969 1180.5 511 C 1172.832031 510.332031 1169 509.332031 1169 508 C 1169 506.667969 1166.332031 504.832031 1161 502.5 C 1155.667969 500.167969 1153.332031 497.167969 1154 493.5 C 1154.667969 489.832031 1154 485.332031 1152 480 C 1152 477.332031 1151.667969 470.667969 1151 460 C 1150.332031 449.332031 1150.167969 440.5 1150.5 433.5 C 1150.832031 426.5 1151.832031 418.667969 1153.5 410 C 1155.167969 401.332031 1158.5 394.832031 1163.5 390.5 C 1168.5 386.167969 1175.332031 384 1184 384 L 1504 384 C 1583.332031 384 1651.167969 412.167969 1707.5 468.5 C 1763.832031 524.832031 1792 592.667969 1792 672 Z M 1792 672 " fill="white" />
</g>
</svg>
