<?xml version="1.0" encoding="UTF-8"?>
<svg xmlns="http://www.w3.org/2000/svg" xmlns:xlink="http://www.w3.org/1999/xlink" width="2048" height="2048" viewBox="0 0 2048 2048" version="1.1">
<g>
<path d="M 832 1568 C 832 1570.667969 832.332031 1577.332031 833 1588 C 833.667969 1598.667969 833.832031 1607.5 833.5 1614.5 C 833.167969 1621.5 832.167969 1629.332031 830.5 1638 C 828.832031 1646.667969 825.5 1653.167969 820.5 1657.5 C 815.5 1661.832031 808.667969 1664 800 1664 L 480 1664 C 400.667969 1664 332.832031 1635.832031 276.5 1579.5 C 220.167969 1523.167969 192 1455.332031 192 1376 L 192 672 C 192 592.667969 220.167969 524.832031 276.5 468.5 C 332.832031 412.167969 400.667969 384 480 384 L 800 384 C 808.667969 384 816.167969 387.167969 822.5 393.5 C 828.832031 399.832031 832 407.332031 832 416 C 832 418.667969 832.332031 425.332031 833 436 C 833.667969 446.667969 833.832031 455.5 833.5 462.5 C 833.167969 469.5 832.167969 477.332031 830.5 486 C 828.832031 494.667969 825.5 501.167969 820.5 505.5 C 815.5 509.832031 808.667969 512 800 512 L 480 512 C 436 512 398.332031 527.667969 367 559 C 335.667969 590.332031 320 628 320 672 L 320 1376 C 320 1420 335.667969 1457.667969 367 1489 C 398.332031 1520.332031 436 1536 480 1536 L 792 1536 C 792 1536 795.832031 1536.332031 803.5 1537 C 811.167969 1537.667969 815 1538.667969 815 1540 C 815 1541.332031 817.667969 1543.167969 823 1545.5 C 828.332031 1547.832031 830.667969 1550.832031 830 1554.5 C 829.332031 1558.167969 830 1562.667969 832 1568 Z M 1760 1024 C 1760 1041.332031 1753.667969 1056.332031 1741 1069 L 1197 1613 C 1184.332031 1625.667969 1169.332031 1632 1152 1632 C 1134.667969 1632 1119.667969 1625.667969 1107 1613 C 1094.332031 1600.332031 1088 1585.332031 1088 1568 L 1088 1280 L 640 1280 C 622.667969 1280 607.667969 1273.667969 595 1261 C 582.332031 1248.332031 576 1233.332031 576 1216 L 576 832 C 576 814.667969 582.332031 799.667969 595 787 C 607.667969 774.332031 622.667969 768 640 768 L 1088 768 L 1088 480 C 1088 462.667969 1094.332031 447.667969 1107 435 C 1119.667969 422.332031 1134.667969 416 1152 416 C 1169.332031 416 1184.332031 422.332031 1197 435 L 1741 979 C 1753.667969 991.667969 1760 1006.667969 1760 1024 Z M 1760 1024 " fill="white" />
</g>
</svg>
