<svg width="2048" height="2048" viewBox="-192 -384 2048 2048" xmlns="http://www.w3.org/2000/svg"><g transform="scale(1 -1) translate(0 -1280)"><path d="M640 96q0 -4 1 -20t0.5 -26.5t-3 -23.5t-10 -19.5t-20.5 -6.5h-320q-119 0 -203.5 84.5t-84.5 203.5v704q0 119 84.5 203.5t203.5 84.5h320q13 0 22.5 -9.5t9.5 -22.5q0 -4 1 -20t0.5 -26.5t-3 -23.5t-10 -19.5t-20.5 -6.5h-320q-66 0 -113 -47t-47 -113v-704 q0 -66 47 -113t113 -47h288h11h13t11.5 -1t11.5 -3t8 -5.5t7 -9t2 -13.5zM1568 640q0 -26 -19 -45l-544 -544q-19 -19 -45 -19t-45 19t-19 45v288h-448q-26 0 -45 19t-19 45v384q0 26 19 45t45 19h448v288q0 26 19 45t45 19t45 -19l544 -544q19 -19 19 -45z" fill="white" /></g></svg>