<?xml version="1.0" encoding="UTF-8"?>
<svg xmlns="http://www.w3.org/2000/svg" xmlns:xlink="http://www.w3.org/1999/xlink" width="2048" height="2048" viewBox="0 0 2048 2048" version="1.1">
<g>
<path d="M 1429 1191 C 1429 1157.667969 1422.5 1127.167969 1409.5 1099.5 C 1396.5 1071.832031 1380.332031 1049 1361 1031 C 1341.667969 1013 1317.332031 996.667969 1288 982 C 1258.667969 967.332031 1231.167969 956 1205.5 948 C 1179.832031 940 1150.667969 932.332031 1118 925 L 1014 901 C 994 896.332031 979.332031 892.832031 970 890.5 C 960.667969 888.167969 949 884.332031 935 879 C 921 873.667969 911 868.332031 905 863 C 899 857.667969 893.5 850.667969 888.5 842 C 883.5 833.332031 881 823.332031 881 812 C 881 760.667969 929 735 1025 735 C 1053.667969 735 1079.332031 739 1102 747 C 1124.667969 755 1142.667969 764.5 1156 775.5 C 1169.332031 786.5 1182 797.667969 1194 809 C 1206 820.332031 1219.332031 830 1234 838 C 1248.667969 846 1264.667969 850 1282 850 C 1313.332031 850 1338.5 839.332031 1357.5 818 C 1376.5 796.667969 1386 771 1386 741 C 1386 704.332031 1367.332031 671.167969 1330 641.5 C 1292.667969 611.832031 1245.332031 589.332031 1188 574 C 1130.667969 558.667969 1070 551 1006 551 C 960.667969 551 916.667969 556.167969 874 566.5 C 831.332031 576.832031 791.5 592.5 754.5 613.5 C 717.5 634.5 687.832031 663.5 665.5 700.5 C 643.167969 737.5 632 780.332031 632 829 C 632 869.667969 638.332031 905.167969 651 935.5 C 663.667969 965.832031 682.332031 991 707 1011 C 731.667969 1031 758.332031 1047.167969 787 1059.5 C 815.667969 1071.832031 850 1082.667969 890 1092 L 1036 1128 C 1096 1142.667969 1133.332031 1154.667969 1148 1164 C 1169.332031 1177.332031 1180 1197.332031 1180 1224 C 1180 1250 1166.667969 1271.5 1140 1288.5 C 1113.332031 1305.5 1078.332031 1314 1035 1314 C 1001 1314 970.5 1308.667969 943.5 1298 C 916.5 1287.332031 894.832031 1274.5 878.5 1259.5 C 862.167969 1244.5 847 1229.5 833 1214.5 C 819 1199.5 803.667969 1186.667969 787 1176 C 770.332031 1165.332031 752.332031 1160 733 1160 C 699.667969 1160 674.5 1170 657.5 1190 C 640.5 1210 632 1235 632 1265 C 632 1326.332031 672.667969 1378.832031 754 1422.5 C 835.332031 1466.167969 932.332031 1488 1045 1488 C 1093.667969 1488 1140.332031 1481.832031 1185 1469.5 C 1229.667969 1457.167969 1270.5 1439.332031 1307.5 1416 C 1344.5 1392.667969 1374 1361.5 1396 1322.5 C 1418 1283.5 1429 1239.667969 1429 1191 Z M 1792 1408 C 1792 1514 1754.5 1604.5 1679.5 1679.5 C 1604.5 1754.5 1514 1792 1408 1792 C 1321.332031 1792 1243.332031 1765.332031 1174 1712 C 1122.667969 1722.667969 1072.667969 1728 1024 1728 C 928.667969 1728 837.5 1709.5 750.5 1672.5 C 663.5 1635.5 588.5 1585.5 525.5 1522.5 C 462.5 1459.5 412.5 1384.5 375.5 1297.5 C 338.5 1210.5 320 1119.332031 320 1024 C 320 975.332031 325.332031 925.332031 336 874 C 282.667969 804.667969 256 726.667969 256 640 C 256 534 293.5 443.5 368.5 368.5 C 443.5 293.5 534 256 640 256 C 726.667969 256 804.667969 282.667969 874 336 C 925.332031 325.332031 975.332031 320 1024 320 C 1119.332031 320 1210.5 338.5 1297.5 375.5 C 1384.5 412.5 1459.5 462.5 1522.5 525.5 C 1585.5 588.5 1635.5 663.5 1672.5 750.5 C 1709.5 837.5 1728 928.667969 1728 1024 C 1728 1072.667969 1722.667969 1122.667969 1712 1174 C 1765.332031 1243.332031 1792 1321.332031 1792 1408 Z M 1792 1408 " fill="white" />
</g>
</svg>
