<svg width="2048" height="2048" viewBox="-256 -384 2048 2048" xmlns="http://www.w3.org/2000/svg"><g transform="scale(1 -1) translate(0 -1280)"><path d="M1173 473q0 50 -19.5 91.5t-48.5 68.5t-73 49t-82.5 34t-87.5 23l-104 24q-30 7 -44 10.5t-35 11.5t-30 16t-16.5 21t-7.5 30q0 77 144 77q43 0 77 -12t54 -28.5t38 -33.5t40 -29t48 -12q47 0 75.5 32t28.5 77q0 55 -56 99.5t-142 67.5t-182 23q-68 0 -132 -15.5 t-119.5 -47t-89 -87t-33.5 -128.5q0 -61 19 -106.5t56 -75.5t80 -48.5t103 -32.5l146 -36q90 -22 112 -36q32 -20 32 -60q0 -39 -40 -64.5t-105 -25.5q-51 0 -91.5 16t-65 38.5t-45.5 45t-46 38.5t-54 16q-50 0 -75.5 -30t-25.5 -75q0 -92 122 -157.5t291 -65.5 q73 0 140 18.5t122.5 53.5t88.5 93.5t33 131.5zM1536 256q0 -159 -112.5 -271.5t-271.5 -112.5q-130 0 -234 80q-77 -16 -150 -16q-143 0 -273.5 55.5t-225 150t-150 225t-55.5 273.5q0 73 16 150q-80 104 -80 234q0 159 112.5 271.5t271.5 112.5q130 0 234 -80 q77 16 150 16q143 0 273.5 -55.5t225 -150t150 -225t55.5 -273.5q0 -73 -16 -150q80 -104 80 -234z" fill="white" /></g></svg>