<svg width="2048" height="2048" viewBox="-256 -384 2048 2048" xmlns="http://www.w3.org/2000/svg"><g transform="scale(1 -1) translate(0 -1280)"><path d="M1134 461q-37 -121 -138 -195t-228 -74t-228 74t-138 195q-8 25 4 48.5t38 31.5q25 8 48.5 -4t31.5 -38q25 -80 92.5 -129.5t151.5 -49.5t151.5 49.5t92.5 129.5q8 26 32 38t49 4t37 -31.5t4 -48.5zM640 896q0 -53 -37.5 -90.5t-90.5 -37.5t-90.5 37.5t-37.5 90.5 t37.5 90.5t90.5 37.5t90.5 -37.5t37.5 -90.5zM1152 896q0 -53 -37.5 -90.5t-90.5 -37.5t-90.5 37.5t-37.5 90.5t37.5 90.5t90.5 37.5t90.5 -37.5t37.5 -90.5zM1408 640q0 130 -51 248.5t-136.5 204t-204 136.5t-248.5 51t-248.5 -51t-204 -136.5t-136.5 -204t-51 -248.5 t51 -248.5t136.5 -204t204 -136.5t248.5 -51t248.5 51t204 136.5t136.5 204t51 248.5zM1536 640q0 -209 -103 -385.5t-279.5 -279.5t-385.5 -103t-385.5 103t-279.5 279.5t-103 385.5t103 385.5t279.5 279.5t385.5 103t385.5 -103t279.5 -279.5t103 -385.5z" fill="white" /></g></svg>