<?xml version="1.0" encoding="UTF-8"?>
<svg xmlns="http://www.w3.org/2000/svg" xmlns:xlink="http://www.w3.org/1999/xlink" width="2048" height="2048" viewBox="0 0 2048 2048" version="1.1">
<g>
<path d="M 864 1568 C 864 1576 860.667969 1584 854 1592 L 535 1911 C 528.332031 1917 520.667969 1920 512 1920 C 504 1920 496.332031 1917 489 1911 L 169 1591 C 159 1580.332031 156.667969 1568.667969 162 1556 C 167.332031 1542.667969 177.332031 1536 192 1536 L 384 1536 L 384 160 C 384 150.667969 387 143 393 137 C 399 131 406.667969 128 416 128 L 608 128 C 617.332031 128 625 131 631 137 C 637 143 640 150.667969 640 160 L 640 1536 L 832 1536 C 841.332031 1536 849 1539 855 1545 C 861 1551 864 1558.667969 864 1568 Z M 1920 1696 L 1920 1888 C 1920 1897.332031 1917 1905 1911 1911 C 1905 1917 1897.332031 1920 1888 1920 L 1056 1920 C 1046.667969 1920 1039 1917 1033 1911 C 1027 1905 1024 1897.332031 1024 1888 L 1024 1696 C 1024 1686.667969 1027 1679 1033 1673 C 1039 1667 1046.667969 1664 1056 1664 L 1888 1664 C 1897.332031 1664 1905 1667 1911 1673 C 1917 1679 1920 1686.667969 1920 1696 Z M 1728 1184 L 1728 1376 C 1728 1385.332031 1725 1393 1719 1399 C 1713 1405 1705.332031 1408 1696 1408 L 1056 1408 C 1046.667969 1408 1039 1405 1033 1399 C 1027 1393 1024 1385.332031 1024 1376 L 1024 1184 C 1024 1174.667969 1027 1167 1033 1161 C 1039 1155 1046.667969 1152 1056 1152 L 1696 1152 C 1705.332031 1152 1713 1155 1719 1161 C 1725 1167 1728 1174.667969 1728 1184 Z M 1536 672 L 1536 864 C 1536 873.332031 1533 881 1527 887 C 1521 893 1513.332031 896 1504 896 L 1056 896 C 1046.667969 896 1039 893 1033 887 C 1027 881 1024 873.332031 1024 864 L 1024 672 C 1024 662.667969 1027 655 1033 649 C 1039 643 1046.667969 640 1056 640 L 1504 640 C 1513.332031 640 1521 643 1527 649 C 1533 655 1536 662.667969 1536 672 Z M 1344 160 L 1344 352 C 1344 361.332031 1341 369 1335 375 C 1329 381 1321.332031 384 1312 384 L 1056 384 C 1046.667969 384 1039 381 1033 375 C 1027 369 1024 361.332031 1024 352 L 1024 160 C 1024 150.667969 1027 143 1033 137 C 1039 131 1046.667969 128 1056 128 L 1312 128 C 1321.332031 128 1329 131 1335 137 C 1341 143 1344 150.667969 1344 160 Z M 1344 160 " fill="white" />
</g>
</svg>
