<?xml version="1.0" encoding="UTF-8"?>
<svg xmlns="http://www.w3.org/2000/svg" xmlns:xlink="http://www.w3.org/1999/xlink" width="2048" height="2048" viewBox="0 0 2048 2048" version="1.1">
<g>
<path d="M 1344 1696 L 1344 1888 C 1344 1897.332031 1341 1905 1335 1911 C 1329 1917 1321.332031 1920 1312 1920 L 1056 1920 C 1046.667969 1920 1039 1917 1033 1911 C 1027 1905 1024 1897.332031 1024 1888 L 1024 1696 C 1024 1686.667969 1027 1679 1033 1673 C 1039 1667 1046.667969 1664 1056 1664 L 1312 1664 C 1321.332031 1664 1329 1667 1335 1673 C 1341 1679 1344 1686.667969 1344 1696 Z M 864 1568 C 864 1576 860.667969 1584 854 1592 L 535 1911 C 528.332031 1917 520.667969 1920 512 1920 C 504 1920 496.332031 1917 489 1911 L 169 1591 C 159 1580.332031 156.667969 1568.667969 162 1556 C 167.332031 1542.667969 177.332031 1536 192 1536 L 384 1536 L 384 160 C 384 150.667969 387 143 393 137 C 399 131 406.667969 128 416 128 L 608 128 C 617.332031 128 625 131 631 137 C 637 143 640 150.667969 640 160 L 640 1536 L 832 1536 C 841.332031 1536 849 1539 855 1545 C 861 1551 864 1558.667969 864 1568 Z M 1536 1184 L 1536 1376 C 1536 1385.332031 1533 1393 1527 1399 C 1521 1405 1513.332031 1408 1504 1408 L 1056 1408 C 1046.667969 1408 1039 1405 1033 1399 C 1027 1393 1024 1385.332031 1024 1376 L 1024 1184 C 1024 1174.667969 1027 1167 1033 1161 C 1039 1155 1046.667969 1152 1056 1152 L 1504 1152 C 1513.332031 1152 1521 1155 1527 1161 C 1533 1167 1536 1174.667969 1536 1184 Z M 1728 672 L 1728 864 C 1728 873.332031 1725 881 1719 887 C 1713 893 1705.332031 896 1696 896 L 1056 896 C 1046.667969 896 1039 893 1033 887 C 1027 881 1024 873.332031 1024 864 L 1024 672 C 1024 662.667969 1027 655 1033 649 C 1039 643 1046.667969 640 1056 640 L 1696 640 C 1705.332031 640 1713 643 1719 649 C 1725 655 1728 662.667969 1728 672 Z M 1920 160 L 1920 352 C 1920 361.332031 1917 369 1911 375 C 1905 381 1897.332031 384 1888 384 L 1056 384 C 1046.667969 384 1039 381 1033 375 C 1027 369 1024 361.332031 1024 352 L 1024 160 C 1024 150.667969 1027 143 1033 137 C 1039 131 1046.667969 128 1056 128 L 1888 128 C 1897.332031 128 1905 131 1911 137 C 1917 143 1920 150.667969 1920 160 Z M 1920 160 " fill="white" />
</g>
</svg>
