<?xml version="1.0" encoding="UTF-8"?>
<svg xmlns="http://www.w3.org/2000/svg" xmlns:xlink="http://www.w3.org/1999/xlink" width="2048" height="2048" viewBox="0 0 2048 2048" version="1.1">
<g>
<path d="M 1602 417 C 1602 375 1587.332031 336.332031 1558 301 C 1528.667969 265.667969 1494.332031 248 1455 248 C 1420.332031 248 1392.667969 260.332031 1372 285 C 1351.332031 309.667969 1341 341 1341 379 C 1341 417 1353.167969 448.667969 1377.5 474 C 1401.832031 499.332031 1436.667969 512 1482 512 C 1515.332031 512 1543.667969 503 1567 485 C 1590.332031 467 1602 444.332031 1602 417 Z M 992 1568 C 992 1576 988.667969 1584 982 1592 L 663 1911 C 656.332031 1917 648.667969 1920 640 1920 C 632 1920 624.332031 1917 617 1911 L 297 1591 C 287 1580.332031 284.667969 1568.667969 290 1556 C 295.332031 1542.667969 305.332031 1536 320 1536 L 512 1536 L 512 160 C 512 150.667969 515 143 521 137 C 527 131 534.667969 128 544 128 L 736 128 C 745.332031 128 753 131 759 137 C 765 143 768 150.667969 768 160 L 768 1536 L 960 1536 C 969.332031 1536 977 1539 983 1545 C 989 1551 992 1558.667969 992 1568 Z M 1712 1806 L 1712 1920 L 1243 1920 L 1243 1806 L 1410 1806 L 1410 1374 C 1410 1369.332031 1410.167969 1363 1410.5 1355 C 1410.832031 1347 1411 1341.332031 1411 1338 L 1411 1322 L 1409 1322 L 1402 1334 C 1396.667969 1342.667969 1388 1353 1376 1365 L 1314 1423 L 1232 1337 L 1424 1152 L 1547 1152 L 1547 1806 Z M 1742 475 C 1742 516.332031 1737.667969 556.832031 1729 596.5 C 1720.332031 636.167969 1706.667969 674.167969 1688 710.5 C 1669.332031 746.832031 1646.667969 778.667969 1620 806 C 1593.332031 833.332031 1560.5 855.167969 1521.5 871.5 C 1482.5 887.832031 1440 896 1394 896 C 1352.667969 896 1316.667969 890.667969 1286 880 C 1270 874.667969 1256 869.667969 1244 865 L 1283 752 C 1293 756.667969 1303.332031 760.332031 1314 763 C 1338.667969 771.667969 1363.667969 776 1389 776 C 1445 776 1489.832031 756.5 1523.5 717.5 C 1557.167969 678.5 1579.332031 630 1590 572 L 1588 572 C 1574 587.332031 1553.5 599.667969 1526.5 609 C 1499.5 618.332031 1471.332031 623 1442 623 C 1371.332031 623 1313.667969 599.167969 1269 551.5 C 1224.332031 503.832031 1202 446.332031 1202 379 C 1202 309 1226 249.667969 1274 201 C 1322 152.332031 1382.332031 128 1455 128 C 1537 128 1605.332031 159.5 1660 222.5 C 1714.667969 285.5 1742 369.667969 1742 475 Z M 1742 475 " fill="white" />
</g>
</svg>
