<?xml version="1.0" encoding="UTF-8"?>
<svg xmlns="http://www.w3.org/2000/svg" xmlns:xlink="http://www.w3.org/1999/xlink" width="2048" height="2048" viewBox="0 0 2048 2048" version="1.1">
<g>
<path d="M 1383 1560 L 1560 1560 L 1488 1342 L 1476 1295 C 1474.667969 1284.332031 1474 1277.667969 1474 1275 L 1470 1275 L 1467 1295 C 1467 1295.667969 1465.832031 1301.667969 1463.5 1313 C 1461.167969 1324.332031 1458.667969 1334 1456 1342 Z M 928 1568 C 928 1576 924.667969 1584 918 1592 L 599 1911 C 592.332031 1917 584.667969 1920 576 1920 C 568 1920 560.332031 1917 553 1911 L 233 1591 C 223 1580.332031 220.667969 1568.667969 226 1556 C 231.332031 1542.667969 241.332031 1536 256 1536 L 448 1536 L 448 160 C 448 150.667969 451 143 457 137 C 463 131 470.667969 128 480 128 L 672 128 C 681.332031 128 689 131 695 137 C 701 143 704 150.667969 704 160 L 704 1536 L 896 1536 C 905.332031 1536 913 1539 919 1545 C 925 1551 928 1558.667969 928 1568 Z M 1853 1814 L 1853 1920 L 1565 1920 L 1565 1814 L 1640 1814 L 1593 1670 L 1350 1670 L 1303 1814 L 1378 1814 L 1378 1920 L 1091 1920 L 1091 1814 L 1161 1814 L 1391 1152 L 1553 1152 L 1783 1814 Z M 1764 663 L 1764 896 L 1180 896 L 1180 806 L 1549 277 C 1557 265 1564 256 1570 250 L 1581 241 L 1581 238 C 1579.667969 238 1577.5 238.167969 1574.5 238.5 C 1571.5 238.832031 1569 239 1567 239 C 1559 241 1549 242 1537 242 L 1305 242 L 1305 357 L 1185 357 L 1185 128 L 1752 128 L 1752 217 L 1383 747 C 1379 752.332031 1372 761 1362 773 L 1351 783 L 1351 786 L 1365 783 C 1371 782.332031 1381 782 1395 782 L 1643 782 L 1643 663 Z M 1764 663 " fill="white" />
</g>
</svg>
