<?xml version="1.0" encoding="UTF-8"?>
<svg xmlns="http://www.w3.org/2000/svg" xmlns:xlink="http://www.w3.org/1999/xlink" width="2048" height="2048" viewBox="0 0 2048 2048" version="1.1">
<g>
<path d="M 736 1472 C 736 1512 721.832031 1546 693.5 1574 C 665.167969 1602 631.332031 1616 592 1616 C 552 1616 518 1602 490 1574 C 462 1546 448 1512 448 1472 C 448 1432 462 1398 490 1370 C 518 1342 552 1328 592 1328 C 631.332031 1328 665.167969 1342 693.5 1370 C 721.832031 1398 736 1432 736 1472 Z M 1168 1664 C 1168 1699.332031 1155.5 1729.5 1130.5 1754.5 C 1105.5 1779.5 1075.332031 1792 1040 1792 C 1004.667969 1792 974.5 1779.5 949.5 1754.5 C 924.5 1729.5 912 1699.332031 912 1664 C 912 1628.667969 924.5 1598.5 949.5 1573.5 C 974.5 1548.5 1004.667969 1536 1040 1536 C 1075.332031 1536 1105.5 1548.5 1130.5 1573.5 C 1155.5 1598.5 1168 1628.667969 1168 1664 Z M 560 1024 C 560 1068 544.332031 1105.667969 513 1137 C 481.667969 1168.332031 444 1184 400 1184 C 356 1184 318.332031 1168.332031 287 1137 C 255.667969 1105.667969 240 1068 240 1024 C 240 980 255.667969 942.332031 287 911 C 318.332031 879.667969 356 864 400 864 C 444 864 481.667969 879.667969 513 911 C 544.332031 942.332031 560 980 560 1024 Z M 1600 1472 C 1600 1502.667969 1589 1529 1567 1551 C 1545 1573 1518.667969 1584 1488 1584 C 1457.332031 1584 1431 1573 1409 1551 C 1387 1529 1376 1502.667969 1376 1472 C 1376 1441.332031 1387 1415 1409 1393 C 1431 1371 1457.332031 1360 1488 1360 C 1518.667969 1360 1545 1371 1567 1393 C 1589 1415 1600 1441.332031 1600 1472 Z M 768 576 C 768 624.667969 750.832031 666.167969 716.5 700.5 C 682.167969 734.832031 640.667969 752 592 752 C 543.332031 752 501.832031 734.832031 467.5 700.5 C 433.167969 666.167969 416 624.667969 416 576 C 416 527.332031 433.167969 485.832031 467.5 451.5 C 501.832031 417.167969 543.332031 400 592 400 C 640.667969 400 682.167969 417.167969 716.5 451.5 C 750.832031 485.832031 768 527.332031 768 576 Z M 1232 384 C 1232 437.332031 1213.332031 482.667969 1176 520 C 1138.667969 557.332031 1093.332031 576 1040 576 C 986.667969 576 941.332031 557.332031 904 520 C 866.667969 482.667969 848 437.332031 848 384 C 848 330.667969 866.667969 285.332031 904 248 C 941.332031 210.667969 986.667969 192 1040 192 C 1093.332031 192 1138.667969 210.667969 1176 248 C 1213.332031 285.332031 1232 330.667969 1232 384 Z M 1776 1024 C 1776 1050.667969 1766.667969 1073.332031 1748 1092 C 1729.332031 1110.667969 1706.667969 1120 1680 1120 C 1653.332031 1120 1630.667969 1110.667969 1612 1092 C 1593.332031 1073.332031 1584 1050.667969 1584 1024 C 1584 997.332031 1593.332031 974.667969 1612 956 C 1630.667969 937.332031 1653.332031 928 1680 928 C 1706.667969 928 1729.332031 937.332031 1748 956 C 1766.667969 974.667969 1776 997.332031 1776 1024 Z M 1568 576 C 1568 598 1560.167969 616.832031 1544.5 632.5 C 1528.832031 648.167969 1510 656 1488 656 C 1466 656 1447.167969 648.167969 1431.5 632.5 C 1415.832031 616.832031 1408 598 1408 576 C 1408 554 1415.832031 535.167969 1431.5 519.5 C 1447.167969 503.832031 1466 496 1488 496 C 1510 496 1528.832031 503.832031 1544.5 519.5 C 1560.167969 535.167969 1568 554 1568 576 Z M 1568 576 " fill="white" />
</g>
</svg>
