<svg width="2048" height="2048" viewBox="-192 -384 2048 2048" xmlns="http://www.w3.org/2000/svg"><g transform="scale(1 -1) translate(0 -1280)"><path d="M1137 532l306 297l-422 62l-189 382l-189 -382l-422 -62l306 -297l-73 -421l378 199l377 -199zM1664 889q0 -22 -26 -48l-363 -354l86 -500q1 -7 1 -20q0 -50 -41 -50q-19 0 -40 12l-449 236l-449 -236q-22 -12 -40 -12q-21 0 -31.5 14.5t-10.5 35.5q0 6 2 20l86 500 l-364 354q-25 27 -25 48q0 37 56 46l502 73l225 455q19 41 49 41t49 -41l225 -455l502 -73q56 -9 56 -46z" fill="white" /></g></svg>