<?xml version="1.0" encoding="UTF-8"?>
<svg xmlns="http://www.w3.org/2000/svg" xmlns:xlink="http://www.w3.org/1999/xlink" width="2048" height="2048" viewBox="0 0 2048 2048" version="1.1">
<g>
<path d="M 1408 160 L 1408 1499 L 959 1735 C 944.332031 1743 931 1747 919 1747 C 905 1747 894.5 1742.167969 887.5 1732.5 C 880.5 1722.832031 877 1711 877 1697 C 877 1693 877.667969 1686.332031 879 1677 L 965 1177 L 601 823 C 584.332031 805 576 789 576 775 C 576 750.332031 594.667969 735 632 729 L 1134 656 L 1359 201 C 1371.667969 173.667969 1388 160 1408 160 Z M 1408 160 " fill="white" />
</g>
</svg>
