<?xml version="1.0" encoding="UTF-8"?>
<svg xmlns="http://www.w3.org/2000/svg" xmlns:xlink="http://www.w3.org/1999/xlink" width="2048" height="2048" viewBox="0 0 2048 2048" version="1.1">
<g>
<path d="M 1378 1085 L 1635 835 L 1279 783 L 1213 773 L 1183 713 L 1024 391 L 1024 1354 L 1083 1385 L 1401 1553 L 1341 1198 L 1329 1132 Z M 1830 823 L 1467 1177 L 1553 1677 C 1556.332031 1699 1554.332031 1716.167969 1547 1728.5 C 1539.667969 1740.832031 1528.332031 1747 1513 1747 C 1501.667969 1747 1488.332031 1743 1473 1735 L 1024 1499 L 575 1735 C 559.667969 1743 546.332031 1747 535 1747 C 519.667969 1747 508.332031 1740.832031 501 1728.5 C 493.667969 1716.167969 491.667969 1699 495 1677 L 581 1177 L 217 823 C 195.667969 801.667969 188 781.832031 194 763.5 C 200 745.167969 218 733.667969 248 729 L 750 656 L 975 201 C 988.332031 173.667969 1004.667969 160 1024 160 C 1042.667969 160 1059 173.667969 1073 201 L 1298 656 L 1800 729 C 1830 733.667969 1848 745.167969 1854 763.5 C 1860 781.832031 1852 801.667969 1830 823 Z M 1830 823 " fill="white" />
</g>
</svg>
