<?xml version="1.0" encoding="UTF-8"?>
<svg xmlns="http://www.w3.org/2000/svg" xmlns:xlink="http://www.w3.org/1999/xlink" width="2048" height="2048" viewBox="0 0 2048 2048" version="1.1">
<g>
<path d="M 557 1779 C 544.332031 1791.667969 533.667969 1796 525 1792 C 516.332031 1788 512 1777.332031 512 1760 L 512 288 C 512 270.667969 516.332031 260 525 256 C 533.667969 252 544.332031 256.332031 557 269 L 1267 979 C 1272.332031 984.332031 1276.667969 990.667969 1280 998 L 1280 320 C 1280 302.667969 1286.332031 287.667969 1299 275 C 1311.667969 262.332031 1326.667969 256 1344 256 L 1472 256 C 1489.332031 256 1504.332031 262.332031 1517 275 C 1529.667969 287.667969 1536 302.667969 1536 320 L 1536 1728 C 1536 1745.332031 1529.667969 1760.332031 1517 1773 C 1504.332031 1785.667969 1489.332031 1792 1472 1792 L 1344 1792 C 1326.667969 1792 1311.667969 1785.667969 1299 1773 C 1286.332031 1760.332031 1280 1745.332031 1280 1728 L 1280 1050 C 1276.667969 1056.667969 1272.332031 1063 1267 1069 Z M 557 1779 " fill="white" />
</g>
</svg>
