<?xml version="1.0" encoding="UTF-8"?>
<svg xmlns="http://www.w3.org/2000/svg" xmlns:xlink="http://www.w3.org/1999/xlink" width="2048" height="2048" viewBox="0 0 2048 2048" version="1.1">
<g>
<path d="M 1491 269 C 1503.667969 256.332031 1514.332031 252 1523 256 C 1531.667969 260 1536 270.667969 1536 288 L 1536 1760 C 1536 1777.332031 1531.667969 1788 1523 1792 C 1514.332031 1796 1503.667969 1791.667969 1491 1779 L 781 1069 C 775 1063 770.667969 1056.667969 768 1050 L 768 1728 C 768 1745.332031 761.667969 1760.332031 749 1773 C 736.332031 1785.667969 721.332031 1792 704 1792 L 576 1792 C 558.667969 1792 543.667969 1785.667969 531 1773 C 518.332031 1760.332031 512 1745.332031 512 1728 L 512 320 C 512 302.667969 518.332031 287.667969 531 275 C 543.667969 262.332031 558.667969 256 576 256 L 704 256 C 721.332031 256 736.332031 262.332031 749 275 C 761.667969 287.667969 768 302.667969 768 320 L 768 998 C 770.667969 990.667969 775 984.332031 781 979 Z M 1491 269 " fill="white" />
</g>
</svg>
