<svg width="2048" height="2048" viewBox="-320 -384 2048 2048" xmlns="http://www.w3.org/2000/svg"><g transform="scale(1 -1) translate(0 -1280)"><path d="M1280 832q0 26 -19 45t-45 19t-45 -19t-19 -45t19 -45t45 -19t45 19t19 45zM1408 832q0 -62 -35.5 -111t-92.5 -70v-395q0 -159 -131.5 -271.5t-316.5 -112.5t-316.5 112.5t-131.5 271.5v132q-164 20 -274 128t-110 252v512q0 26 19 45t45 19q6 0 16 -2q17 30 47 48 t65 18q53 0 90.5 -37.5t37.5 -90.5t-37.5 -90.5t-90.5 -37.5q-33 0 -64 18v-402q0 -106 94 -181t226 -75t226 75t94 181v402q-31 -18 -64 -18q-53 0 -90.5 37.5t-37.5 90.5t37.5 90.5t90.5 37.5q35 0 65 -18t47 -48q10 2 16 2q26 0 45 -19t19 -45v-512q0 -144 -110 -252 t-274 -128v-132q0 -106 94 -181t226 -75t226 75t94 181v395q-57 21 -92.5 70t-35.5 111q0 80 56 136t136 56t136 -56t56 -136z" fill="white" /></g></svg>