<?xml version="1.0" encoding="UTF-8"?>
<svg xmlns="http://www.w3.org/2000/svg" xmlns:xlink="http://www.w3.org/1999/xlink" width="2048" height="2048" viewBox="0 0 2048 2048" version="1.1">
<g>
<path d="M 1792 320 L 1792 1728 C 1792 1745.332031 1785.667969 1760.332031 1773 1773 C 1760.332031 1785.667969 1745.332031 1792 1728 1792 L 320 1792 C 302.667969 1792 287.667969 1785.667969 275 1773 C 262.332031 1760.332031 256 1745.332031 256 1728 L 256 320 C 256 302.667969 262.332031 287.667969 275 275 C 287.667969 262.332031 302.667969 256 320 256 L 1728 256 C 1745.332031 256 1760.332031 262.332031 1773 275 C 1785.667969 287.667969 1792 302.667969 1792 320 Z M 1792 320 " fill="white" />
</g>
</svg>
