<svg width="2048" height="2048" viewBox="-128 -384 2048 2048" xmlns="http://www.w3.org/2000/svg"><g transform="scale(1 -1) translate(0 -1280)"><path d="M1760 640q14 0 23 -9t9 -23v-64q0 -14 -9 -23t-23 -9h-1728q-14 0 -23 9t-9 23v64q0 14 9 23t23 9h1728zM483 704q-28 35 -51 80q-48 97 -48 188q0 181 134 309q133 127 393 127q50 0 167 -19q66 -12 177 -48q10 -38 21 -118q14 -123 14 -183q0 -18 -5 -45l-12 -3l-84 6 l-14 2q-50 149 -103 205q-88 91 -210 91q-114 0 -182 -59q-67 -58 -67 -146q0 -73 66 -140t279 -129q69 -20 173 -66q58 -28 95 -52h-743zM990 448h411q7 -39 7 -92q0 -111 -41 -212q-23 -55 -71 -104q-37 -35 -109 -81q-80 -48 -153 -66q-80 -21 -203 -21q-114 0 -195 23 l-140 40q-57 16 -72 28q-8 8 -8 22v13q0 108 -2 156q-1 30 0 68l2 37v44l102 2q15 -34 30 -71t22.5 -56t12.5 -27q35 -57 80 -94q43 -36 105 -57q59 -22 132 -22q64 0 139 27q77 26 122 86q47 61 47 129q0 84 -81 157q-34 29 -137 71z" fill="white" /></g></svg>