<?xml version="1.0" encoding="UTF-8"?>
<svg xmlns="http://www.w3.org/2000/svg" xmlns:xlink="http://www.w3.org/1999/xlink" width="2048" height="2048" viewBox="0 0 2048 2048" version="1.1">
<g>
<path d="M 1888 1024 C 1897.332031 1024 1905 1027 1911 1033 C 1917 1039 1920 1046.667969 1920 1056 L 1920 1120 C 1920 1129.332031 1917 1137 1911 1143 C 1905 1149 1897.332031 1152 1888 1152 L 160 1152 C 150.667969 1152 143 1149 137 1143 C 131 1137 128 1129.332031 128 1120 L 128 1056 C 128 1046.667969 131 1039 137 1033 C 143 1027 150.667969 1024 160 1024 Z M 611 960 C 592.332031 936.667969 575.332031 910 560 880 C 528 815.332031 512 752.667969 512 692 C 512 571.332031 556.667969 468.332031 646 383 C 734.667969 298.332031 865.667969 256 1039 256 C 1072.332031 256 1128 262.332031 1206 275 C 1250 283 1309 299 1383 323 C 1389.667969 348.332031 1396.667969 387.667969 1404 441 C 1413.332031 523 1418 584 1418 624 C 1418 636 1416.332031 651 1413 669 L 1401 672 L 1317 666 L 1303 664 C 1269.667969 564.667969 1235.332031 496.332031 1200 459 C 1141.332031 398.332031 1071.332031 368 990 368 C 914 368 853.332031 387.667969 808 427 C 763.332031 465.667969 741 514.332031 741 573 C 741 621.667969 763 668.332031 807 713 C 851 757.667969 944 800.667969 1086 842 C 1132 855.332031 1189.667969 877.332031 1259 908 C 1297.667969 926.667969 1329.332031 944 1354 960 Z M 1118 1216 L 1529 1216 C 1533.667969 1242 1536 1272.667969 1536 1308 C 1536 1382 1522.332031 1452.667969 1495 1520 C 1479.667969 1556.667969 1456 1591.332031 1424 1624 C 1399.332031 1647.332031 1363 1674.332031 1315 1705 C 1261.667969 1737 1210.667969 1759 1162 1771 C 1108.667969 1785 1041 1792 959 1792 C 883 1792 818 1784.332031 764 1769 L 624 1729 C 586 1718.332031 562 1709 552 1701 C 546.667969 1695.667969 544 1688.332031 544 1679 L 544 1666 C 544 1594 543.332031 1542 542 1510 C 541.332031 1490 541.332031 1467.332031 542 1442 L 544 1405 L 544 1361 L 646 1359 C 656 1381.667969 666 1405.332031 676 1430 C 686 1454.667969 693.5 1473.332031 698.5 1486 C 703.5 1498.667969 707.667969 1507.667969 711 1513 C 734.332031 1551 761 1582.332031 791 1607 C 819.667969 1631 854.667969 1650 896 1664 C 935.332031 1678.667969 979.332031 1686 1028 1686 C 1070.667969 1686 1117 1677 1167 1659 C 1218.332031 1641.667969 1259 1613 1289 1573 C 1320.332031 1532.332031 1336 1489.332031 1336 1444 C 1336 1388 1309 1335.667969 1255 1287 C 1232.332031 1267.667969 1186.667969 1244 1118 1216 Z M 1118 1216 " fill="white" />
</g>
</svg>
