<svg width="2048" height="2048" viewBox="-128 -384 2048 2048" xmlns="http://www.w3.org/2000/svg"><g transform="scale(1 -1) translate(0 -1280)"><path d="M1472 640q0 117 -45.5 223.5t-123 184t-184 123t-223.5 45.5t-223.5 -45.5t-184 -123t-123 -184t-45.5 -223.5t45.5 -223.5t123 -184t184 -123t223.5 -45.5t223.5 45.5t184 123t123 184t45.5 223.5zM1748 363q-4 -15 -20 -20l-292 -96v-306q0 -16 -13 -26q-15 -10 -29 -4 l-292 94l-180 -248q-10 -13 -26 -13t-26 13l-180 248l-292 -94q-14 -6 -29 4q-13 10 -13 26v306l-292 96q-16 5 -20 20q-5 17 4 29l180 248l-180 248q-9 13 -4 29q4 15 20 20l292 96v306q0 16 13 26q15 10 29 4l292 -94l180 248q9 12 26 12t26 -12l180 -248l292 94 q14 6 29 -4q13 -10 13 -26v-306l292 -96q16 -5 20 -20q5 -16 -4 -29l-180 -248l180 -248q9 -12 4 -29z" fill="white" /></g></svg>