<?xml version="1.0" encoding="UTF-8"?>
<svg xmlns="http://www.w3.org/2000/svg" xmlns:xlink="http://www.w3.org/1999/xlink" width="2048" height="2048" viewBox="0 0 2048 2048" version="1.1">
<g>
<path d="M 1153 1497 L 1153 1664 L 905 1664 L 746 1412 L 722 1370 C 716.667969 1364 713 1357 711 1349 L 708 1349 L 699 1370 C 692.332031 1383.332031 684 1398 674 1414 L 519 1664 L 261 1664 L 261 1497 L 389 1497 L 586 1206 L 401 934 L 264 934 L 264 766 L 540 766 L 679 994 C 680.332031 996.667969 688 1010.667969 702 1036 C 707.332031 1042 711 1049 713 1057 L 716 1057 C 718 1051 721.667969 1044 727 1036 L 752 994 L 892 766 L 1149 766 L 1149 934 L 1024 934 L 840 1201 L 1044 1497 Z M 1790 818 L 1790 1024 L 1276 1024 L 1273 997 C 1270.332031 978.332031 1269 963 1269 951 C 1269 908.332031 1277.667969 869.332031 1295 834 C 1312.332031 798.667969 1334 769.832031 1360 747.5 C 1386 725.167969 1414 703.5 1444 682.5 C 1474 661.5 1502 643.332031 1528 628 C 1554 612.667969 1575.667969 594.667969 1593 574 C 1610.332031 553.332031 1619 532 1619 510 C 1619 484.667969 1609.167969 463.832031 1589.5 447.5 C 1569.832031 431.167969 1546.332031 423 1519 423 C 1485 423 1452.667969 436 1422 462 C 1412.667969 469.332031 1400.667969 482 1386 500 L 1281 408 C 1298.332031 383.332031 1319.332031 361.332031 1344 342 C 1399.332031 298.667969 1462 277 1532 277 C 1605.332031 277 1664.667969 296.832031 1710 336.5 C 1755.332031 376.167969 1778 429 1778 495 C 1778 532.332031 1769.832031 566.667969 1753.5 598 C 1737.167969 629.332031 1716.5 654.832031 1691.5 674.5 C 1666.5 694.167969 1639.332031 713.667969 1610 733 C 1580.667969 752.332031 1553.332031 769.167969 1528 783.5 C 1502.667969 797.832031 1480.832031 815 1462.5 835 C 1444.167969 855 1434 876 1432 898 L 1664 898 L 1664 818 Z M 1790 818 " fill="white" />
</g>
</svg>
