<?xml version="1.0" encoding="UTF-8"?>
<svg xmlns="http://www.w3.org/2000/svg" xmlns:xlink="http://www.w3.org/1999/xlink" width="2048" height="2048" viewBox="0 0 2048 2048" version="1.1">
<g>
<path d="M 512 1280 C 512 1244.667969 499.5 1214.5 474.5 1189.5 C 449.5 1164.5 419.332031 1152 384 1152 C 348.667969 1152 318.5 1164.5 293.5 1189.5 C 268.5 1214.5 256 1244.667969 256 1280 C 256 1315.332031 268.5 1345.5 293.5 1370.5 C 318.5 1395.5 348.667969 1408 384 1408 C 419.332031 1408 449.5 1395.5 474.5 1370.5 C 499.5 1345.5 512 1315.332031 512 1280 Z M 704 832 C 704 796.667969 691.5 766.5 666.5 741.5 C 641.5 716.5 611.332031 704 576 704 C 540.667969 704 510.5 716.5 485.5 741.5 C 460.5 766.5 448 796.667969 448 832 C 448 867.332031 460.5 897.5 485.5 922.5 C 510.5 947.5 540.667969 960 576 960 C 611.332031 960 641.5 947.5 666.5 922.5 C 691.5 897.5 704 867.332031 704 832 Z M 1132 1313 L 1233 931 C 1237 913.667969 1234.5 897.5 1225.5 882.5 C 1216.5 867.5 1203.667969 857.667969 1187 853 C 1170.332031 848.332031 1154.332031 850.5 1139 859.5 C 1123.667969 868.5 1113.667969 881.667969 1109 899 L 1008 1281 C 968 1284.332031 932.332031 1298.832031 901 1324.5 C 869.667969 1350.167969 848.667969 1383 838 1423 C 824.667969 1474.332031 831.332031 1523 858 1569 C 884.667969 1615 923.667969 1644.667969 975 1658 C 1026.332031 1671.332031 1075 1664.667969 1121 1638 C 1167 1611.332031 1196.667969 1572.332031 1210 1521 C 1220.667969 1481 1218.667969 1442 1204 1404 C 1189.332031 1366 1165.332031 1335.667969 1132 1313 Z M 1792 1280 C 1792 1244.667969 1779.5 1214.5 1754.5 1189.5 C 1729.5 1164.5 1699.332031 1152 1664 1152 C 1628.667969 1152 1598.5 1164.5 1573.5 1189.5 C 1548.5 1214.5 1536 1244.667969 1536 1280 C 1536 1315.332031 1548.5 1345.5 1573.5 1370.5 C 1598.5 1395.5 1628.667969 1408 1664 1408 C 1699.332031 1408 1729.5 1395.5 1754.5 1370.5 C 1779.5 1345.5 1792 1315.332031 1792 1280 Z M 1152 640 C 1152 604.667969 1139.5 574.5 1114.5 549.5 C 1089.5 524.5 1059.332031 512 1024 512 C 988.667969 512 958.5 524.5 933.5 549.5 C 908.5 574.5 896 604.667969 896 640 C 896 675.332031 908.5 705.5 933.5 730.5 C 958.5 755.5 988.667969 768 1024 768 C 1059.332031 768 1089.5 755.5 1114.5 730.5 C 1139.5 705.5 1152 675.332031 1152 640 Z M 1600 832 C 1600 796.667969 1587.5 766.5 1562.5 741.5 C 1537.5 716.5 1507.332031 704 1472 704 C 1436.667969 704 1406.5 716.5 1381.5 741.5 C 1356.5 766.5 1344 796.667969 1344 832 C 1344 867.332031 1356.5 897.5 1381.5 922.5 C 1406.5 947.5 1436.667969 960 1472 960 C 1507.332031 960 1537.5 947.5 1562.5 922.5 C 1587.5 897.5 1600 867.332031 1600 832 Z M 1920 1280 C 1920 1454 1873 1615 1779 1763 C 1766.332031 1782.332031 1748.332031 1792 1725 1792 L 323 1792 C 299.667969 1792 281.667969 1782.332031 269 1763 C 175 1615.667969 128 1454.667969 128 1280 C 128 1158.667969 151.667969 1042.667969 199 932 C 246.332031 821.332031 310 726 390 646 C 470 566 565.332031 502.332031 676 455 C 786.667969 407.667969 902.667969 384 1024 384 C 1145.332031 384 1261.332031 407.667969 1372 455 C 1482.667969 502.332031 1578 566 1658 646 C 1738 726 1801.667969 821.332031 1849 932 C 1896.332031 1042.667969 1920 1158.667969 1920 1280 Z M 1920 1280 " fill="white" />
</g>
</svg>
