<?xml version="1.0" encoding="UTF-8"?>
<svg xmlns="http://www.w3.org/2000/svg" xmlns:xlink="http://www.w3.org/1999/xlink" width="2048" height="2048" viewBox="0 0 2048 2048" version="1.1">
<g>
<path d="M 512 576 C 512 540.667969 499.5 510.5 474.5 485.5 C 449.5 460.5 419.332031 448 384 448 C 348.667969 448 318.5 460.5 293.5 485.5 C 268.5 510.5 256 540.667969 256 576 C 256 611.332031 268.5 641.5 293.5 666.5 C 318.5 691.5 348.667969 704 384 704 C 419.332031 704 449.5 691.5 474.5 666.5 C 499.5 641.5 512 611.332031 512 576 Z M 1579 1152 C 1579 1187.332031 1566.667969 1217.332031 1542 1242 L 1051 1734 C 1025 1758.667969 994.667969 1771 960 1771 C 924.667969 1771 894.667969 1758.667969 870 1734 L 155 1018 C 129.667969 993.332031 108.167969 959.667969 90.5 917 C 72.832031 874.332031 64 835.332031 64 800 L 64 384 C 64 349.332031 76.667969 319.332031 102 294 C 127.332031 268.667969 157.332031 256 192 256 L 608 256 C 643.332031 256 682.332031 264.832031 725 282.5 C 767.667969 300.167969 801.667969 321.667969 827 347 L 1542 1061 C 1566.667969 1087 1579 1117.332031 1579 1152 Z M 1963 1152 C 1963 1187.332031 1950.667969 1217.332031 1926 1242 L 1435 1734 C 1409 1758.667969 1378.667969 1771 1344 1771 C 1320 1771 1300.332031 1766.332031 1285 1757 C 1269.667969 1747.667969 1252 1732.667969 1232 1712 L 1702 1242 C 1726.667969 1217.332031 1739 1187.332031 1739 1152 C 1739 1117.332031 1726.667969 1087 1702 1061 L 987 347 C 961.667969 321.667969 927.667969 300.167969 885 282.5 C 842.332031 264.832031 803.332031 256 768 256 L 992 256 C 1027.332031 256 1066.332031 264.832031 1109 282.5 C 1151.667969 300.167969 1185.667969 321.667969 1211 347 L 1926 1061 C 1950.667969 1087 1963 1117.332031 1963 1152 Z M 1963 1152 " fill="white" />
</g>
</svg>
