<svg width="2048" height="2048" viewBox="-128 -384 2048 2048" xmlns="http://www.w3.org/2000/svg"><g transform="scale(1 -1) translate(0 -1280)"><path d="M1024 128h640v128h-640v-128zM640 640h1024v128h-1024v-128zM1280 1152h384v128h-384v-128zM1792 320v-256q0 -26 -19 -45t-45 -19h-1664q-26 0 -45 19t-19 45v256q0 26 19 45t45 19h1664q26 0 45 -19t19 -45zM1792 832v-256q0 -26 -19 -45t-45 -19h-1664q-26 0 -45 19 t-19 45v256q0 26 19 45t45 19h1664q26 0 45 -19t19 -45zM1792 1344v-256q0 -26 -19 -45t-45 -19h-1664q-26 0 -45 19t-19 45v256q0 26 19 45t45 19h1664q26 0 45 -19t19 -45z" fill="white" /></g></svg>