<?xml version="1.0" encoding="UTF-8"?>
<svg xmlns="http://www.w3.org/2000/svg" xmlns:xlink="http://www.w3.org/1999/xlink" width="2048" height="2048" viewBox="0 0 2048 2048" version="1.1">
<g>
<path d="M 1152 1536 L 1792 1536 L 1792 1408 L 1152 1408 Z M 768 1024 L 1792 1024 L 1792 896 L 768 896 Z M 1408 512 L 1792 512 L 1792 384 L 1408 384 Z M 1920 1344 L 1920 1600 C 1920 1617.332031 1913.667969 1632.332031 1901 1645 C 1888.332031 1657.667969 1873.332031 1664 1856 1664 L 192 1664 C 174.667969 1664 159.667969 1657.667969 147 1645 C 134.332031 1632.332031 128 1617.332031 128 1600 L 128 1344 C 128 1326.667969 134.332031 1311.667969 147 1299 C 159.667969 1286.332031 174.667969 1280 192 1280 L 1856 1280 C 1873.332031 1280 1888.332031 1286.332031 1901 1299 C 1913.667969 1311.667969 1920 1326.667969 1920 1344 Z M 1920 832 L 1920 1088 C 1920 1105.332031 1913.667969 1120.332031 1901 1133 C 1888.332031 1145.667969 1873.332031 1152 1856 1152 L 192 1152 C 174.667969 1152 159.667969 1145.667969 147 1133 C 134.332031 1120.332031 128 1105.332031 128 1088 L 128 832 C 128 814.667969 134.332031 799.667969 147 787 C 159.667969 774.332031 174.667969 768 192 768 L 1856 768 C 1873.332031 768 1888.332031 774.332031 1901 787 C 1913.667969 799.667969 1920 814.667969 1920 832 Z M 1920 320 L 1920 576 C 1920 593.332031 1913.667969 608.332031 1901 621 C 1888.332031 633.667969 1873.332031 640 1856 640 L 192 640 C 174.667969 640 159.667969 633.667969 147 621 C 134.332031 608.332031 128 593.332031 128 576 L 128 320 C 128 302.667969 134.332031 287.667969 147 275 C 159.667969 262.332031 174.667969 256 192 256 L 1856 256 C 1873.332031 256 1888.332031 262.332031 1901 275 C 1913.667969 287.667969 1920 302.667969 1920 320 Z M 1920 320 " fill="white" />
</g>
</svg>
