<?xml version="1.0" encoding="UTF-8"?>
<svg xmlns="http://www.w3.org/2000/svg" xmlns:xlink="http://www.w3.org/1999/xlink" width="2048" height="2048" viewBox="0 0 2048 2048" version="1.1">
<g>
<path d="M 337 257 L 391 284 C 404.332031 287.332031 474.667969 289 602 289 L 732 289 L 751 286 L 866 285 L 1312 286 L 1630 286 L 1664 288 C 1673.332031 288.667969 1682.667969 286.332031 1692 281 C 1701.332031 275.667969 1708.332031 270.332031 1713 265 L 1720 257 L 1762 256 C 1772 256 1781.332031 256.332031 1790 257 L 1790 361.5 C 1798.667969 361.5 1799 405.332031 1791 493 L 1792 593 L 1791 651 C 1791 672.332031 1789.667969 689.332031 1787 702 C 1761 712 1738.332031 718 1719 720 C 1702.332031 691.332031 1684.332031 648.667969 1665 592 C 1659.667969 576 1654.5 555.167969 1649.5 529.5 C 1644.5 503.832031 1640.667969 482 1638 464 C 1635.332031 446 1633.332031 436.332031 1632 435 C 1623.332031 425 1614.332031 418.667969 1605 416 C 1600.332031 414.667969 1580.832031 414 1546.5 414 C 1512.167969 414 1466 414.332031 1408 415 C 1350 415.667969 1307.332031 416 1280 416 C 1217.332031 416 1175 417.667969 1153 421 C 1146.332031 485.667969 1143.667969 531 1145 557 L 1146 709 L 1146 657 L 1149 1016 L 1148 1163 C 1147.332031 1193.667969 1151 1222 1159 1248 C 1191.667969 1264.667969 1221.332031 1275.332031 1248 1280 C 1249.332031 1280 1255.332031 1281.667969 1266 1285 C 1276.667969 1288.332031 1291.332031 1292.667969 1310 1298 C 1328.667969 1303.332031 1343 1307.332031 1353 1310 C 1373 1315.332031 1389.667969 1321.332031 1403 1328 C 1406.332031 1358 1408 1374.667969 1408 1378 C 1408 1384.667969 1407 1394.332031 1405 1407 C 1395.667969 1407.667969 1384.332031 1408 1371 1408 C 1297.667969 1408 1235.332031 1404.667969 1184 1398 C 1136 1392.667969 1056.667969 1390 946 1390 C 891.332031 1390 813.667969 1394.332031 713 1403 C 683 1406.332031 659.667969 1408 643 1408 C 641.667969 1393.332031 641 1384.667969 641 1382 L 640 1356 L 640 1347 C 654 1325 680.332031 1308.667969 719 1298 C 811.667969 1272.667969 864.667969 1256 878 1248 C 884 1234 888 1215.332031 890 1192 C 894 1100.667969 896 956.332031 896 759 L 891 715 C 891 538.332031 890.332031 445.667969 889 437 C 887.667969 429.667969 885.667969 424.667969 883 422 C 879 418.667969 874.332031 416.667969 869 416 C 843.667969 412 794.332031 410 721 410 C 687.667969 410 631.5 414.667969 552.5 424 C 473.5 433.332031 429.332031 441.332031 420 448 C 411.332031 454 404 465 398 481 C 392 497 384.667969 522 376 556 C 367.332031 590 359.332031 618 352 640 C 348 652.667969 341.5 663.332031 332.5 672 C 323.5 680.667969 316.667969 685 312 685 C 282.667969 667 264 652.332031 256 641 L 256 258 Z M 1761 1551 C 1778.332031 1564.332031 1787 1580.667969 1787 1600 C 1787 1619.332031 1778.332031 1635.667969 1761 1649 L 1599 1775 C 1581.667969 1788.332031 1566.832031 1792 1554.5 1786 C 1542.167969 1780 1536 1766 1536 1744 L 1536 1664 L 512 1664 L 512 1744 C 512 1766 505.832031 1780 493.5 1786 C 481.167969 1792 466.332031 1788.332031 449 1775 L 287 1649 C 269.667969 1635.667969 261 1619.332031 261 1600 C 261 1580.667969 269.667969 1564.332031 287 1551 L 449 1425 C 466.332031 1411.667969 481.167969 1408 493.5 1414 C 505.832031 1420 512 1434 512 1456 L 512 1536 L 1536 1536 L 1536 1456 C 1536 1434 1542.167969 1420 1554.5 1414 C 1566.832031 1408 1581.667969 1411.667969 1599 1425 Z M 1761 1551 " fill="white" />
</g>
</svg>
