<?xml version="1.0" encoding="UTF-8"?>
<svg xmlns="http://www.w3.org/2000/svg" xmlns:xlink="http://www.w3.org/1999/xlink" width="2048" height="2048" viewBox="0 0 2048 2048" version="1.1">
<g>
<path d="M 960 1152 L 960 1536 C 960 1570.667969 947.332031 1600.667969 922 1626 C 896.667969 1651.332031 866.667969 1664 832 1664 L 320 1664 C 285.332031 1664 255.332031 1651.332031 230 1626 C 204.667969 1600.667969 192 1570.667969 192 1536 L 192 1152 C 192 1117.332031 204.667969 1087.332031 230 1062 C 255.332031 1036.667969 285.332031 1024 320 1024 L 832 1024 C 866.667969 1024 896.667969 1036.667969 922 1062 C 947.332031 1087.332031 960 1117.332031 960 1152 Z M 960 384 L 960 768 C 960 802.667969 947.332031 832.667969 922 858 C 896.667969 883.332031 866.667969 896 832 896 L 320 896 C 285.332031 896 255.332031 883.332031 230 858 C 204.667969 832.667969 192 802.667969 192 768 L 192 384 C 192 349.332031 204.667969 319.332031 230 294 C 255.332031 268.667969 285.332031 256 320 256 L 832 256 C 866.667969 256 896.667969 268.667969 922 294 C 947.332031 319.332031 960 349.332031 960 384 Z M 1856 1152 L 1856 1536 C 1856 1570.667969 1843.332031 1600.667969 1818 1626 C 1792.667969 1651.332031 1762.667969 1664 1728 1664 L 1216 1664 C 1181.332031 1664 1151.332031 1651.332031 1126 1626 C 1100.667969 1600.667969 1088 1570.667969 1088 1536 L 1088 1152 C 1088 1117.332031 1100.667969 1087.332031 1126 1062 C 1151.332031 1036.667969 1181.332031 1024 1216 1024 L 1728 1024 C 1762.667969 1024 1792.667969 1036.667969 1818 1062 C 1843.332031 1087.332031 1856 1117.332031 1856 1152 Z M 1856 384 L 1856 768 C 1856 802.667969 1843.332031 832.667969 1818 858 C 1792.667969 883.332031 1762.667969 896 1728 896 L 1216 896 C 1181.332031 896 1151.332031 883.332031 1126 858 C 1100.667969 832.667969 1088 802.667969 1088 768 L 1088 384 C 1088 349.332031 1100.667969 319.332031 1126 294 C 1151.332031 268.667969 1181.332031 256 1216 256 L 1728 256 C 1762.667969 256 1792.667969 268.667969 1818 294 C 1843.332031 319.332031 1856 349.332031 1856 384 Z M 1856 384 " fill="white" />
</g>
</svg>
