<?xml version="1.0" encoding="UTF-8"?>
<svg xmlns="http://www.w3.org/2000/svg" xmlns:xlink="http://www.w3.org/1999/xlink" width="2048" height="2048" viewBox="0 0 2048 2048" version="1.1">
<g>
<path d="M 640 1376 L 640 1568 C 640 1594.667969 630.667969 1617.332031 612 1636 C 593.332031 1654.667969 570.667969 1664 544 1664 L 224 1664 C 197.332031 1664 174.667969 1654.667969 156 1636 C 137.332031 1617.332031 128 1594.667969 128 1568 L 128 1376 C 128 1349.332031 137.332031 1326.667969 156 1308 C 174.667969 1289.332031 197.332031 1280 224 1280 L 544 1280 C 570.667969 1280 593.332031 1289.332031 612 1308 C 630.667969 1326.667969 640 1349.332031 640 1376 Z M 640 864 L 640 1056 C 640 1082.667969 630.667969 1105.332031 612 1124 C 593.332031 1142.667969 570.667969 1152 544 1152 L 224 1152 C 197.332031 1152 174.667969 1142.667969 156 1124 C 137.332031 1105.332031 128 1082.667969 128 1056 L 128 864 C 128 837.332031 137.332031 814.667969 156 796 C 174.667969 777.332031 197.332031 768 224 768 L 544 768 C 570.667969 768 593.332031 777.332031 612 796 C 630.667969 814.667969 640 837.332031 640 864 Z M 1280 1376 L 1280 1568 C 1280 1594.667969 1270.667969 1617.332031 1252 1636 C 1233.332031 1654.667969 1210.667969 1664 1184 1664 L 864 1664 C 837.332031 1664 814.667969 1654.667969 796 1636 C 777.332031 1617.332031 768 1594.667969 768 1568 L 768 1376 C 768 1349.332031 777.332031 1326.667969 796 1308 C 814.667969 1289.332031 837.332031 1280 864 1280 L 1184 1280 C 1210.667969 1280 1233.332031 1289.332031 1252 1308 C 1270.667969 1326.667969 1280 1349.332031 1280 1376 Z M 640 352 L 640 544 C 640 570.667969 630.667969 593.332031 612 612 C 593.332031 630.667969 570.667969 640 544 640 L 224 640 C 197.332031 640 174.667969 630.667969 156 612 C 137.332031 593.332031 128 570.667969 128 544 L 128 352 C 128 325.332031 137.332031 302.667969 156 284 C 174.667969 265.332031 197.332031 256 224 256 L 544 256 C 570.667969 256 593.332031 265.332031 612 284 C 630.667969 302.667969 640 325.332031 640 352 Z M 1280 864 L 1280 1056 C 1280 1082.667969 1270.667969 1105.332031 1252 1124 C 1233.332031 1142.667969 1210.667969 1152 1184 1152 L 864 1152 C 837.332031 1152 814.667969 1142.667969 796 1124 C 777.332031 1105.332031 768 1082.667969 768 1056 L 768 864 C 768 837.332031 777.332031 814.667969 796 796 C 814.667969 777.332031 837.332031 768 864 768 L 1184 768 C 1210.667969 768 1233.332031 777.332031 1252 796 C 1270.667969 814.667969 1280 837.332031 1280 864 Z M 1920 1376 L 1920 1568 C 1920 1594.667969 1910.667969 1617.332031 1892 1636 C 1873.332031 1654.667969 1850.667969 1664 1824 1664 L 1504 1664 C 1477.332031 1664 1454.667969 1654.667969 1436 1636 C 1417.332031 1617.332031 1408 1594.667969 1408 1568 L 1408 1376 C 1408 1349.332031 1417.332031 1326.667969 1436 1308 C 1454.667969 1289.332031 1477.332031 1280 1504 1280 L 1824 1280 C 1850.667969 1280 1873.332031 1289.332031 1892 1308 C 1910.667969 1326.667969 1920 1349.332031 1920 1376 Z M 1280 352 L 1280 544 C 1280 570.667969 1270.667969 593.332031 1252 612 C 1233.332031 630.667969 1210.667969 640 1184 640 L 864 640 C 837.332031 640 814.667969 630.667969 796 612 C 777.332031 593.332031 768 570.667969 768 544 L 768 352 C 768 325.332031 777.332031 302.667969 796 284 C 814.667969 265.332031 837.332031 256 864 256 L 1184 256 C 1210.667969 256 1233.332031 265.332031 1252 284 C 1270.667969 302.667969 1280 325.332031 1280 352 Z M 1920 864 L 1920 1056 C 1920 1082.667969 1910.667969 1105.332031 1892 1124 C 1873.332031 1142.667969 1850.667969 1152 1824 1152 L 1504 1152 C 1477.332031 1152 1454.667969 1142.667969 1436 1124 C 1417.332031 1105.332031 1408 1082.667969 1408 1056 L 1408 864 C 1408 837.332031 1417.332031 814.667969 1436 796 C 1454.667969 777.332031 1477.332031 768 1504 768 L 1824 768 C 1850.667969 768 1873.332031 777.332031 1892 796 C 1910.667969 814.667969 1920 837.332031 1920 864 Z M 1920 352 L 1920 544 C 1920 570.667969 1910.667969 593.332031 1892 612 C 1873.332031 630.667969 1850.667969 640 1824 640 L 1504 640 C 1477.332031 640 1454.667969 630.667969 1436 612 C 1417.332031 593.332031 1408 570.667969 1408 544 L 1408 352 C 1408 325.332031 1417.332031 302.667969 1436 284 C 1454.667969 265.332031 1477.332031 256 1504 256 L 1824 256 C 1850.667969 256 1873.332031 265.332031 1892 284 C 1910.667969 302.667969 1920 325.332031 1920 352 Z M 1920 352 " fill="white" />
</g>
</svg>
