<?xml version="1.0" encoding="UTF-8"?>
<svg xmlns="http://www.w3.org/2000/svg" xmlns:xlink="http://www.w3.org/1999/xlink" width="2048" height="2048" viewBox="0 0 2048 2048" version="1.1">
<g>
<path d="M 928 992 L 928 544 C 928 534.667969 925 527 919 521 C 913 515 905.332031 512 896 512 C 886.667969 512 879 515 873 521 C 867 527 864 534.667969 864 544 L 864 992 C 864 1001.332031 867 1009 873 1015 C 879 1021 886.667969 1024 896 1024 C 905.332031 1024 913 1021 919 1015 C 925 1009 928 1001.332031 928 992 Z M 1600 1344 C 1600 1361.332031 1593.667969 1376.332031 1581 1389 C 1568.332031 1401.667969 1553.332031 1408 1536 1408 L 1107 1408 L 1056 1891 C 1054.667969 1899 1051.167969 1905.832031 1045.5 1911.5 C 1039.832031 1917.167969 1033 1920 1025 1920 L 1024 1920 C 1006 1920 995.332031 1911 992 1893 L 916 1408 L 512 1408 C 494.667969 1408 479.667969 1401.667969 467 1389 C 454.332031 1376.332031 448 1361.332031 448 1344 C 448 1262 474.167969 1188.167969 526.5 1122.5 C 578.832031 1056.832031 638 1024 704 1024 L 704 512 C 669.332031 512 639.332031 499.332031 614 474 C 588.667969 448.667969 576 418.667969 576 384 C 576 349.332031 588.667969 319.332031 614 294 C 639.332031 268.667969 669.332031 256 704 256 L 1344 256 C 1378.667969 256 1408.667969 268.667969 1434 294 C 1459.332031 319.332031 1472 349.332031 1472 384 C 1472 418.667969 1459.332031 448.667969 1434 474 C 1408.667969 499.332031 1378.667969 512 1344 512 L 1344 1024 C 1410 1024 1469.167969 1056.832031 1521.5 1122.5 C 1573.832031 1188.167969 1600 1262 1600 1344 Z M 1600 1344 " fill="white" />
</g>
</svg>
