<?xml version="1.0" encoding="UTF-8"?>
<svg xmlns="http://www.w3.org/2000/svg" xmlns:xlink="http://www.w3.org/1999/xlink" width="2048" height="2048" viewBox="0 0 2048 2048" version="1.1">
<g>
<path d="M 448 1472 C 448 1454.667969 441.667969 1439.667969 429 1427 C 416.332031 1414.332031 401.332031 1408 384 1408 C 366 1408 350.832031 1414.332031 338.5 1427 C 326.167969 1439.667969 320 1454.667969 320 1472 C 320 1490 326.167969 1505.167969 338.5 1517.5 C 350.832031 1529.832031 366 1536 384 1536 C 401.332031 1536 416.332031 1529.832031 429 1517.5 C 441.667969 1505.167969 448 1490 448 1472 Z M 608 960 L 608 1600 C 608 1617.332031 601.667969 1632.332031 589 1645 C 576.332031 1657.667969 561.332031 1664 544 1664 L 256 1664 C 238.667969 1664 223.667969 1657.667969 211 1645 C 198.332031 1632.332031 192 1617.332031 192 1600 L 192 960 C 192 942.667969 198.332031 927.667969 211 915 C 223.667969 902.332031 238.667969 896 256 896 L 544 896 C 561.332031 896 576.332031 902.332031 589 915 C 601.667969 927.667969 608 942.667969 608 960 Z M 1792 960 C 1792 1017.332031 1773.667969 1067 1737 1109 C 1747 1138.332031 1752 1163.667969 1752 1185 C 1754 1235.667969 1739.667969 1281.332031 1709 1322 C 1720.332031 1359.332031 1720.332031 1398.332031 1709 1439 C 1699 1477 1681 1508.332031 1655 1533 C 1661 1607.667969 1644.667969 1668 1606 1714 C 1563.332031 1764.667969 1497.667969 1790.667969 1409 1792 L 1280 1792 C 1236 1792 1188 1786.832031 1136 1776.5 C 1084 1766.167969 1043.5 1756.5 1014.5 1747.5 C 985.5 1738.5 945.332031 1725.332031 894 1708 C 812 1679.332031 759.332031 1664.667969 736 1664 C 718.667969 1663.332031 703.667969 1656.832031 691 1644.5 C 678.332031 1632.167969 672 1617.332031 672 1600 L 672 959 C 672 942.332031 678 927.832031 690 915.5 C 702 903.167969 716.332031 896.332031 733 895 C 749 893.667969 774.332031 874 809 836 C 843.667969 798 877.332031 757.667969 910 715 C 955.332031 657 989 617 1011 595 C 1023 583 1033.332031 567 1042 547 C 1050.667969 527 1056.5 510.832031 1059.5 498.5 C 1062.5 486.167969 1067 466 1073 438 C 1077.667969 412 1081.832031 391.667969 1085.5 377 C 1089.167969 362.332031 1095.667969 345 1105 325 C 1114.332031 305 1125.667969 288.332031 1139 275 C 1151.667969 262.332031 1166.667969 256 1184 256 C 1214.667969 256 1242.167969 259.5 1266.5 266.5 C 1290.832031 273.5 1310.832031 282.167969 1326.5 292.5 C 1342.167969 302.832031 1355.5 316.332031 1366.5 333 C 1377.5 349.667969 1385.5 364.667969 1390.5 378 C 1395.5 391.332031 1399.5 408 1402.5 428 C 1405.5 448 1407.167969 463 1407.5 473 C 1407.832031 483 1408 496 1408 512 C 1408 537.332031 1404.832031 562.667969 1398.5 588 C 1392.167969 613.332031 1385.832031 633.332031 1379.5 648 C 1373.167969 662.667969 1364 681.332031 1352 704 C 1350 708 1346.667969 714 1342 722 C 1337.332031 730 1333.667969 737.332031 1331 744 C 1328.332031 750.667969 1325.667969 758.667969 1323 768 L 1600 768 C 1652 768 1697 787 1735 825 C 1773 863 1792 908 1792 960 Z M 1792 960 " fill="white" />
</g>
</svg>
