<svg width="2048" height="2048" viewBox="-192 -384 2048 2048" xmlns="http://www.w3.org/2000/svg"><g transform="scale(1 -1) translate(0 -1280)"><path d="M256 192q0 26 -19 45t-45 19q-27 0 -45.5 -19t-18.5 -45q0 -27 18.5 -45.5t45.5 -18.5q26 0 45 18.5t19 45.5zM416 704v-640q0 -26 -19 -45t-45 -19h-288q-26 0 -45 19t-19 45v640q0 26 19 45t45 19h288q26 0 45 -19t19 -45zM1600 704q0 -86 -55 -149q15 -44 15 -76 q3 -76 -43 -137q17 -56 0 -117q-15 -57 -54 -94q9 -112 -49 -181q-64 -76 -197 -78h-36h-76h-17q-66 0 -144 15.5t-121.5 29t-120.5 39.5q-123 43 -158 44q-26 1 -45 19.5t-19 44.5v641q0 25 18 43.5t43 20.5q24 2 76 59t101 121q68 87 101 120q18 18 31 48t17.5 48.5 t13.5 60.5q7 39 12.5 61t19.5 52t34 50q19 19 45 19q46 0 82.5 -10.5t60 -26t40 -40.5t24 -45t12 -50t5 -45t0.5 -39q0 -38 -9.5 -76t-19 -60t-27.5 -56q-3 -6 -10 -18t-11 -22t-8 -24h277q78 0 135 -57t57 -135z" fill="white" /></g></svg>