<svg width="2048" height="2048" viewBox="-256 -384 2048 2048" xmlns="http://www.w3.org/2000/svg"><g transform="scale(1 -1) translate(0 -1280)"><path d="M256 192q0 26 -19 45t-45 19t-45 -19t-19 -45t19 -45t45 -19t45 19t19 45zM1408 768q0 51 -39 89.5t-89 38.5h-352q0 58 48 159.5t48 160.5q0 98 -32 145t-128 47q-26 -26 -38 -85t-30.5 -125.5t-59.5 -109.5q-22 -23 -77 -91q-4 -5 -23 -30t-31.5 -41t-34.5 -42.5 t-40 -44t-38.5 -35.5t-40 -27t-35.5 -9h-32v-640h32q13 0 31.5 -3t33 -6.5t38 -11t35 -11.5t35.5 -12.5t29 -10.5q211 -73 342 -73h121q192 0 192 167q0 26 -5 56q30 16 47.5 52.5t17.5 73.5t-18 69q53 50 53 119q0 25 -10 55.5t-25 47.5q32 1 53.5 47t21.5 81zM1536 769 q0 -89 -49 -163q9 -33 9 -69q0 -77 -38 -144q3 -21 3 -43q0 -101 -60 -178q1 -139 -85 -219.5t-227 -80.5h-36h-93q-96 0 -189.5 22.5t-216.5 65.5q-116 40 -138 40h-288q-53 0 -90.5 37.5t-37.5 90.5v640q0 53 37.5 90.5t90.5 37.5h274q36 24 137 155q58 75 107 128 q24 25 35.5 85.5t30.5 126.5t62 108q39 37 90 37q84 0 151 -32.5t102 -101.5t35 -186q0 -93 -48 -192h176q104 0 180 -76t76 -179z" fill="white" /></g></svg>