<?xml version="1.0" encoding="UTF-8"?>
<svg xmlns="http://www.w3.org/2000/svg" xmlns:xlink="http://www.w3.org/1999/xlink" width="2048" height="2048" viewBox="0 0 2048 2048" version="1.1">
<g>
<path d="M 1353 1207 L 1207 1353 C 1200.332031 1359.667969 1192.667969 1363 1184 1363 C 1175.332031 1363 1167.667969 1359.667969 1161 1353 L 1024 1216 L 887 1353 C 880.332031 1359.667969 872.667969 1363 864 1363 C 855.332031 1363 847.667969 1359.667969 841 1353 L 695 1207 C 688.332031 1200.332031 685 1192.667969 685 1184 C 685 1175.332031 688.332031 1167.667969 695 1161 L 832 1024 L 695 887 C 688.332031 880.332031 685 872.667969 685 864 C 685 855.332031 688.332031 847.667969 695 841 L 841 695 C 847.667969 688.332031 855.332031 685 864 685 C 872.667969 685 880.332031 688.332031 887 695 L 1024 832 L 1161 695 C 1167.667969 688.332031 1175.332031 685 1184 685 C 1192.667969 685 1200.332031 688.332031 1207 695 L 1353 841 C 1359.667969 847.667969 1363 855.332031 1363 864 C 1363 872.667969 1359.667969 880.332031 1353 887 L 1216 1024 L 1353 1161 C 1359.667969 1167.667969 1363 1175.332031 1363 1184 C 1363 1192.667969 1359.667969 1200.332031 1353 1207 Z M 1568 1024 C 1568 925.332031 1543.667969 834.332031 1495 751 C 1446.332031 667.667969 1380.332031 601.667969 1297 553 C 1213.667969 504.332031 1122.667969 480 1024 480 C 925.332031 480 834.332031 504.332031 751 553 C 667.667969 601.667969 601.667969 667.667969 553 751 C 504.332031 834.332031 480 925.332031 480 1024 C 480 1122.667969 504.332031 1213.667969 553 1297 C 601.667969 1380.332031 667.667969 1446.332031 751 1495 C 834.332031 1543.667969 925.332031 1568 1024 1568 C 1122.667969 1568 1213.667969 1543.667969 1297 1495 C 1380.332031 1446.332031 1446.332031 1380.332031 1495 1297 C 1543.667969 1213.667969 1568 1122.667969 1568 1024 Z M 1792 1024 C 1792 1163.332031 1757.667969 1291.832031 1689 1409.5 C 1620.332031 1527.167969 1527.167969 1620.332031 1409.5 1689 C 1291.832031 1757.667969 1163.332031 1792 1024 1792 C 884.667969 1792 756.167969 1757.667969 638.5 1689 C 520.832031 1620.332031 427.667969 1527.167969 359 1409.5 C 290.332031 1291.832031 256 1163.332031 256 1024 C 256 884.667969 290.332031 756.167969 359 638.5 C 427.667969 520.832031 520.832031 427.667969 638.5 359 C 756.167969 290.332031 884.667969 256 1024 256 C 1163.332031 256 1291.832031 290.332031 1409.5 359 C 1527.167969 427.667969 1620.332031 520.832031 1689 638.5 C 1757.667969 756.167969 1792 884.667969 1792 1024 Z M 1792 1024 " fill="white" />
</g>
</svg>
