<?xml version="1.0" encoding="UTF-8"?>
<svg xmlns="http://www.w3.org/2000/svg" xmlns:xlink="http://www.w3.org/1999/xlink" width="2048" height="2048" viewBox="0 0 2048 2048" version="1.1">
<g>
<path d="M 1618 1450 C 1618 1476.667969 1608.667969 1499.332031 1590 1518 L 1454 1654 C 1435.332031 1672.667969 1412.667969 1682 1386 1682 C 1359.332031 1682 1336.667969 1672.667969 1318 1654 L 1024 1360 L 730 1654 C 711.332031 1672.667969 688.667969 1682 662 1682 C 635.332031 1682 612.667969 1672.667969 594 1654 L 458 1518 C 439.332031 1499.332031 430 1476.667969 430 1450 C 430 1423.332031 439.332031 1400.667969 458 1382 L 752 1088 L 458 794 C 439.332031 775.332031 430 752.667969 430 726 C 430 699.332031 439.332031 676.667969 458 658 L 594 522 C 612.667969 503.332031 635.332031 494 662 494 C 688.667969 494 711.332031 503.332031 730 522 L 1024 816 L 1318 522 C 1336.667969 503.332031 1359.332031 494 1386 494 C 1412.667969 494 1435.332031 503.332031 1454 522 L 1590 658 C 1608.667969 676.667969 1618 699.332031 1618 726 C 1618 752.667969 1608.667969 775.332031 1590 794 L 1296 1088 L 1590 1382 C 1608.667969 1400.667969 1618 1423.332031 1618 1450 Z M 1618 1450 " fill="white" />
</g>
</svg>
