<?xml version="1.0" encoding="UTF-8"?>
<svg xmlns="http://www.w3.org/2000/svg" xmlns:xlink="http://www.w3.org/1999/xlink" width="2048" height="2048" viewBox="0 0 2048 2048" version="1.1">
<g>
<path d="M 1024 1280 C 1024 1256 1017.332031 1233 1004 1211 C 1003.332031 1210.332031 998.167969 1202.832031 988.5 1188.5 C 978.832031 1174.167969 970.332031 1161.5 963 1150.5 C 955.667969 1139.5 947.332031 1124.832031 938 1106.5 C 928.667969 1088.167969 921.667969 1071.332031 917 1056 C 914.332031 1045.332031 907.332031 1040 896 1040 C 884.667969 1040 877.667969 1045.332031 875 1056 C 870.332031 1071.332031 863.332031 1088.167969 854 1106.5 C 844.667969 1124.832031 836.332031 1139.5 829 1150.5 C 821.667969 1161.5 813.167969 1174.167969 803.5 1188.5 C 793.832031 1202.832031 788.667969 1210.332031 788 1211 C 774.667969 1233 768 1256 768 1280 C 768 1315.332031 780.5 1345.5 805.5 1370.5 C 830.5 1395.5 860.667969 1408 896 1408 C 931.332031 1408 961.5 1395.5 986.5 1370.5 C 1011.5 1345.5 1024 1315.332031 1024 1280 Z M 1536 1152 C 1536 1293.332031 1486 1414 1386 1514 C 1286 1614 1165.332031 1664 1024 1664 C 882.667969 1664 762 1614 662 1514 C 562 1414 512 1293.332031 512 1152 C 512 1055.332031 539 963.667969 593 877 C 597 871 617.832031 840.832031 655.5 786.5 C 693.167969 732.167969 726.832031 681.832031 756.5 635.5 C 786.167969 589.167969 819.332031 529.832031 856 457.5 C 892.667969 385.167969 920.332031 318 939 256 C 945 236 956.332031 220.332031 973 209 C 989.667969 197.667969 1006.667969 192 1024 192 C 1041.332031 192 1058.5 197.667969 1075.5 209 C 1092.5 220.332031 1103.667969 236 1109 256 C 1127.667969 318 1155.332031 385.167969 1192 457.5 C 1228.667969 529.832031 1261.832031 589.167969 1291.5 635.5 C 1321.167969 681.832031 1354.832031 732.167969 1392.5 786.5 C 1430.167969 840.832031 1451 871 1455 877 C 1509 961.667969 1536 1053.332031 1536 1152 Z M 1536 1152 " fill="white" />
</g>
</svg>
