<?xml version="1.0" encoding="UTF-8"?>
<svg xmlns="http://www.w3.org/2000/svg" xmlns:xlink="http://www.w3.org/1999/xlink" width="2048" height="2048" viewBox="0 0 2048 2048" version="1.1">
<g>
<path d="M 832 864 L 832 1440 C 832 1449.332031 829 1457 823 1463 C 817 1469 809.332031 1472 800 1472 L 736 1472 C 726.667969 1472 719 1469 713 1463 C 707 1457 704 1449.332031 704 1440 L 704 864 C 704 854.667969 707 847 713 841 C 719 835 726.667969 832 736 832 L 800 832 C 809.332031 832 817 835 823 841 C 829 847 832 854.667969 832 864 Z M 1088 864 L 1088 1440 C 1088 1449.332031 1085 1457 1079 1463 C 1073 1469 1065.332031 1472 1056 1472 L 992 1472 C 982.667969 1472 975 1469 969 1463 C 963 1457 960 1449.332031 960 1440 L 960 864 C 960 854.667969 963 847 969 841 C 975 835 982.667969 832 992 832 L 1056 832 C 1065.332031 832 1073 835 1079 841 C 1085 847 1088 854.667969 1088 864 Z M 1344 864 L 1344 1440 C 1344 1449.332031 1341 1457 1335 1463 C 1329 1469 1321.332031 1472 1312 1472 L 1248 1472 C 1238.667969 1472 1231 1469 1225 1463 C 1219 1457 1216 1449.332031 1216 1440 L 1216 864 C 1216 854.667969 1219 847 1225 841 C 1231 835 1238.667969 832 1248 832 L 1312 832 C 1321.332031 832 1329 835 1335 841 C 1341 847 1344 854.667969 1344 864 Z M 1472 1588 L 1472 640 L 576 640 L 576 1588 C 576 1602.667969 578.332031 1616.167969 583 1628.5 C 587.667969 1640.832031 592.5 1649.832031 597.5 1655.5 C 602.5 1661.167969 606 1664 608 1664 L 1440 1664 C 1442 1664 1445.5 1661.167969 1450.5 1655.5 C 1455.5 1649.832031 1460.332031 1640.832031 1465 1628.5 C 1469.667969 1616.167969 1472 1602.667969 1472 1588 Z M 800 512 L 1248 512 L 1200 395 C 1195.332031 389 1189.667969 385.332031 1183 384 L 866 384 C 859.332031 385.332031 853.667969 389 849 395 Z M 1728 544 L 1728 608 C 1728 617.332031 1725 625 1719 631 C 1713 637 1705.332031 640 1696 640 L 1600 640 L 1600 1588 C 1600 1643.332031 1584.332031 1691.167969 1553 1731.5 C 1521.667969 1771.832031 1484 1792 1440 1792 L 608 1792 C 564 1792 526.332031 1772.5 495 1733.5 C 463.667969 1694.5 448 1647.332031 448 1592 L 448 640 L 352 640 C 342.667969 640 335 637 329 631 C 323 625 320 617.332031 320 608 L 320 544 C 320 534.667969 323 527 329 521 C 335 515 342.667969 512 352 512 L 661 512 L 731 345 C 741 320.332031 759 299.332031 785 282 C 811 264.667969 837.332031 256 864 256 L 1184 256 C 1210.667969 256 1237 264.667969 1263 282 C 1289 299.332031 1307 320.332031 1317 345 L 1387 512 L 1696 512 C 1705.332031 512 1713 515 1719 521 C 1725 527 1728 534.667969 1728 544 Z M 1728 544 " fill="white" />
</g>
</svg>
