<?xml version="1.0" encoding="UTF-8"?>
<svg xmlns="http://www.w3.org/2000/svg" xmlns:xlink="http://www.w3.org/1999/xlink" width="2048" height="2048" viewBox="0 0 2048 2048" version="1.1">
<g>
<path d="M 768 1536 C 768 1501.332031 755.332031 1471.332031 730 1446 C 704.667969 1420.667969 674.667969 1408 640 1408 C 605.332031 1408 575.332031 1420.667969 550 1446 C 524.667969 1471.332031 512 1501.332031 512 1536 C 512 1570.667969 524.667969 1600.667969 550 1626 C 575.332031 1651.332031 605.332031 1664 640 1664 C 674.667969 1664 704.667969 1651.332031 730 1626 C 755.332031 1600.667969 768 1570.667969 768 1536 Z M 384 1024 L 768 1024 L 768 768 L 610 768 C 601.332031 768 594 771 588 777 L 393 972 C 387 978 384 985.332031 384 994 Z M 1664 1536 C 1664 1501.332031 1651.332031 1471.332031 1626 1446 C 1600.667969 1420.667969 1570.667969 1408 1536 1408 C 1501.332031 1408 1471.332031 1420.667969 1446 1446 C 1420.667969 1471.332031 1408 1501.332031 1408 1536 C 1408 1570.667969 1420.667969 1600.667969 1446 1626 C 1471.332031 1651.332031 1501.332031 1664 1536 1664 C 1570.667969 1664 1600.667969 1651.332031 1626 1626 C 1651.332031 1600.667969 1664 1570.667969 1664 1536 Z M 1920 448 L 1920 1472 C 1920 1482 1918.667969 1490.832031 1916 1498.5 C 1913.332031 1506.167969 1908.832031 1512.332031 1902.5 1517 C 1896.167969 1521.667969 1890.667969 1525.5 1886 1528.5 C 1881.332031 1531.5 1873.5 1533.5 1862.5 1534.5 C 1851.5 1535.5 1844 1536.167969 1840 1536.5 C 1836 1536.832031 1827.5 1536.832031 1814.5 1536.5 C 1801.5 1536.167969 1794 1536 1792 1536 C 1792 1606.667969 1767 1667 1717 1717 C 1667 1767 1606.667969 1792 1536 1792 C 1465.332031 1792 1405 1767 1355 1717 C 1305 1667 1280 1606.667969 1280 1536 L 896 1536 C 896 1606.667969 871 1667 821 1717 C 771 1767 710.667969 1792 640 1792 C 569.332031 1792 509 1767 459 1717 C 409 1667 384 1606.667969 384 1536 L 320 1536 C 318 1536 310.5 1536.167969 297.5 1536.5 C 284.5 1536.832031 276 1536.832031 272 1536.5 C 268 1536.167969 260.5 1535.5 249.5 1534.5 C 238.5 1533.5 230.667969 1531.5 226 1528.5 C 221.332031 1525.5 215.832031 1521.667969 209.5 1517 C 203.167969 1512.332031 198.667969 1506.167969 196 1498.5 C 193.332031 1490.832031 192 1482 192 1472 C 192 1454.667969 198.332031 1439.667969 211 1427 C 223.667969 1414.332031 238.667969 1408 256 1408 L 256 1088 C 256 1082.667969 255.832031 1071 255.5 1053 C 255.167969 1035 255.167969 1022.332031 255.5 1015 C 255.832031 1007.667969 256.667969 996.167969 258 980.5 C 259.332031 964.832031 261.5 952.5 264.5 943.5 C 267.5 934.5 272.167969 924.332031 278.5 913 C 284.832031 901.667969 292.332031 891.667969 301 883 L 499 685 C 511.667969 672.332031 528.5 661.667969 549.5 653 C 570.5 644.332031 590 640 608 640 L 768 640 L 768 448 C 768 430.667969 774.332031 415.667969 787 403 C 799.667969 390.332031 814.667969 384 832 384 L 1856 384 C 1873.332031 384 1888.332031 390.332031 1901 403 C 1913.667969 415.667969 1920 430.667969 1920 448 Z M 1920 448 " fill="white" />
</g>
</svg>
