<svg width="2048" height="2048" viewBox="-448 -384 2048 2048" xmlns="http://www.w3.org/2000/svg"><g transform="scale(1 -1) translate(0 -1280)"><path d="M1152 704q0 -191 -94.5 -353t-256.5 -256.5t-353 -94.5h-160q-14 0 -23 9t-9 23v611l-215 -66q-3 -1 -9 -1q-10 0 -19 6q-13 10 -13 26v128q0 23 23 31l233 71v93l-215 -66q-3 -1 -9 -1q-10 0 -19 6q-13 10 -13 26v128q0 23 23 31l233 71v250q0 14 9 23t23 9h160 q14 0 23 -9t9 -23v-181l375 116q15 5 28 -5t13 -26v-128q0 -23 -23 -31l-393 -121v-93l375 116q15 5 28 -5t13 -26v-128q0 -23 -23 -31l-393 -121v-487q188 13 318 151t130 328q0 14 9 23t23 9h160q14 0 23 -9t9 -23z" fill="white" /></g></svg>