<?xml version="1.0" encoding="UTF-8"?>
<svg xmlns="http://www.w3.org/2000/svg" xmlns:xlink="http://www.w3.org/1999/xlink" width="2048" height="2048" viewBox="0 0 2048 2048" version="1.1">
<g>
<path d="M 1600 960 C 1600 1087.332031 1568.5 1205 1505.5 1313 C 1442.5 1421 1357 1506.5 1249 1569.5 C 1141 1632.5 1023.332031 1664 896 1664 L 736 1664 C 726.667969 1664 719 1661 713 1655 C 707 1649 704 1641.332031 704 1632 L 704 1021 L 489 1087 C 487 1087.667969 484 1088 480 1088 C 473.332031 1088 467 1086 461 1082 C 452.332031 1075.332031 448 1066.667969 448 1056 L 448 928 C 448 912.667969 455.667969 902.332031 471 897 L 704 826 L 704 733 L 489 799 C 487 799.667969 484 800 480 800 C 473.332031 800 467 798 461 794 C 452.332031 787.332031 448 778.667969 448 768 L 448 640 C 448 624.667969 455.667969 614.332031 471 609 L 704 538 L 704 288 C 704 278.667969 707 271 713 265 C 719 259 726.667969 256 736 256 L 896 256 C 905.332031 256 913 259 919 265 C 925 271 928 278.667969 928 288 L 928 469 L 1303 353 C 1313 349.667969 1322.332031 351.332031 1331 358 C 1339.667969 364.667969 1344 373.332031 1344 384 L 1344 512 C 1344 527.332031 1336.332031 537.667969 1321 543 L 928 664 L 928 757 L 1303 641 C 1313 637.667969 1322.332031 639.332031 1331 646 C 1339.667969 652.667969 1344 661.332031 1344 672 L 1344 800 C 1344 815.332031 1336.332031 825.667969 1321 831 L 928 952 L 928 1439 C 1053.332031 1430.332031 1159.332031 1380 1246 1288 C 1332.667969 1196 1376 1086.667969 1376 960 C 1376 950.667969 1379 943 1385 937 C 1391 931 1398.667969 928 1408 928 L 1568 928 C 1577.332031 928 1585 931 1591 937 C 1597 943 1600 950.667969 1600 960 Z M 1600 960 " fill="white" />
</g>
</svg>
