<?xml version="1.0" encoding="UTF-8"?>
<svg xmlns="http://www.w3.org/2000/svg" xmlns:xlink="http://www.w3.org/1999/xlink" width="2048" height="2048" viewBox="0 0 2048 2048" version="1.1">
<g>
<path d="M 1379 1537 L 1379 1356 C 1320.332031 1393.332031 1262.332031 1412 1205 1412 C 1171 1412 1141.667969 1404.332031 1117 1389 C 1097.667969 1377.667969 1084.667969 1362.667969 1078 1344 C 1070.667969 1324 1067 1281 1067 1215 L 1067 920 L 1341 920 L 1341 739 L 1067 739 L 1067 448 L 903 448 C 895.667969 508 882.332031 557 863 595 C 843.667969 633 817.667969 666 785 694 C 753 720.667969 714.332031 741.667969 669 757 L 669 920 L 796 920 L 796 1324 C 796 1376 801.667969 1416.332031 813 1445 C 824.332031 1473 844 1499 872 1523 C 900.667969 1547.667969 935.332031 1566.667969 976 1580 C 1017.332031 1593.332031 1064 1600 1116 1600 C 1160.667969 1600 1203.667969 1595.332031 1245 1586 C 1283 1577.332031 1327.667969 1561 1379 1537 Z M 1792 544 L 1792 1504 C 1792 1583.332031 1763.832031 1651.167969 1707.5 1707.5 C 1651.167969 1763.832031 1583.332031 1792 1504 1792 L 544 1792 C 464.667969 1792 396.832031 1763.832031 340.5 1707.5 C 284.167969 1651.167969 256 1583.332031 256 1504 L 256 544 C 256 464.667969 284.167969 396.832031 340.5 340.5 C 396.832031 284.167969 464.667969 256 544 256 L 1504 256 C 1583.332031 256 1651.167969 284.167969 1707.5 340.5 C 1763.832031 396.832031 1792 464.667969 1792 544 Z M 1792 544 " fill="white" />
</g>
</svg>
