<?xml version="1.0" encoding="UTF-8"?>
<svg xmlns="http://www.w3.org/2000/svg" xmlns:xlink="http://www.w3.org/1999/xlink" width="2048" height="2048" viewBox="0 0 2048 2048" version="1.1">
<g>
<path d="M 1536 738 C 1498.667969 754.667969 1458.332031 766 1415 772 C 1460.332031 745.332031 1491.332031 706.332031 1508 655 C 1464.667969 680.332031 1420 697.332031 1374 706 C 1333.332031 662 1282.332031 640 1221 640 C 1163 640 1113.5 660.5 1072.5 701.5 C 1031.5 742.5 1011 792 1011 850 C 1011 869.332031 1012.667969 885.332031 1016 898 C 930 893.332031 849.332031 871.667969 774 833 C 698.667969 794.332031 634.667969 742.667969 582 678 C 562.667969 711.332031 553 746.667969 553 784 C 553 860 583.332031 918.332031 644 959 C 612.667969 958.332031 579.332031 949.667969 544 933 L 544 935 C 544 985 560.667969 1029.5 594 1068.5 C 627.332031 1107.5 668.332031 1131.667969 717 1141 C 697.667969 1146.332031 680.667969 1149 666 1149 C 657.332031 1149 644.332031 1147.667969 627 1145 C 641 1187 665.832031 1221.667969 701.5 1249 C 737.167969 1276.332031 777.667969 1290.332031 823 1291 C 745.667969 1351 658.667969 1381 562 1381 C 544.667969 1381 528 1380 512 1378 C 610.667969 1440.667969 718 1472 834 1472 C 908.667969 1472 978.667969 1460.167969 1044 1436.5 C 1109.332031 1412.832031 1165.332031 1381.167969 1212 1341.5 C 1258.667969 1301.832031 1298.832031 1256.167969 1332.5 1204.5 C 1366.167969 1152.832031 1391.167969 1098.832031 1407.5 1042.5 C 1423.832031 986.167969 1432 930 1432 874 C 1432 862 1431.667969 853 1431 847 C 1473 817 1508 780.667969 1536 738 Z M 1792 544 L 1792 1504 C 1792 1583.332031 1763.832031 1651.167969 1707.5 1707.5 C 1651.167969 1763.832031 1583.332031 1792 1504 1792 L 544 1792 C 464.667969 1792 396.832031 1763.832031 340.5 1707.5 C 284.167969 1651.167969 256 1583.332031 256 1504 L 256 544 C 256 464.667969 284.167969 396.832031 340.5 340.5 C 396.832031 284.167969 464.667969 256 544 256 L 1504 256 C 1583.332031 256 1651.167969 284.167969 1707.5 340.5 C 1763.832031 396.832031 1792 464.667969 1792 544 Z M 1792 544 " fill="white" />
</g>
</svg>
