<?xml version="1.0" encoding="UTF-8"?>
<svg xmlns="http://www.w3.org/2000/svg" xmlns:xlink="http://www.w3.org/1999/xlink" width="2048" height="2048" viewBox="0 0 2048 2048" version="1.1">
<g>
<path d="M 1812 536 C 1767.332031 601.332031 1713.332031 657 1650 703 C 1650.667969 712.332031 1651 726.332031 1651 745 C 1651 831.667969 1638.332031 918.167969 1613 1004.5 C 1587.667969 1090.832031 1549.167969 1173.667969 1497.5 1253 C 1445.832031 1332.332031 1384.332031 1402.5 1313 1463.5 C 1241.667969 1524.5 1155.667969 1573.167969 1055 1609.5 C 954.332031 1645.832031 846.667969 1664 732 1664 C 551.332031 1664 386 1615.667969 236 1519 C 259.332031 1521.667969 285.332031 1523 314 1523 C 464 1523 597.667969 1477 715 1385 C 645 1383.667969 582.332031 1362.167969 527 1320.5 C 471.667969 1278.832031 433.667969 1225.667969 413 1161 C 435 1164.332031 455.332031 1166 474 1166 C 502.667969 1166 531 1162.332031 559 1155 C 484.332031 1139.667969 422.5 1102.5 373.5 1043.5 C 324.5 984.5 300 916 300 838 L 300 834 C 345.332031 859.332031 394 873 446 875 C 402 845.667969 367 807.332031 341 760 C 315 712.667969 302 661.332031 302 606 C 302 547.332031 316.667969 493 346 443 C 426.667969 542.332031 524.832031 621.832031 640.5 681.5 C 756.167969 741.167969 880 774.332031 1012 781 C 1006.667969 755.667969 1004 731 1004 707 C 1004 617.667969 1035.5 541.5 1098.5 478.5 C 1161.5 415.5 1237.667969 384 1327 384 C 1420.332031 384 1499 418 1563 486 C 1635.667969 472 1704 446 1768 408 C 1743.332031 484.667969 1696 544 1626 586 C 1688 579.332031 1750 562.667969 1812 536 Z M 1812 536 " fill="white" />
</g>
</svg>
