<svg width="2048" height="2048" viewBox="-192 -384 2048 2048" xmlns="http://www.w3.org/2000/svg"><g transform="scale(1 -1) translate(0 -1280)"><path d="M896 708v-580q0 -104 -76 -180t-180 -76t-180 76t-76 180q0 26 19 45t45 19t45 -19t19 -45q0 -50 39 -89t89 -39t89 39t39 89v580q33 11 64 11t64 -11zM1664 681q0 -13 -9.5 -22.5t-22.5 -9.5q-11 0 -23 10q-49 46 -93 69t-102 23q-68 0 -128 -37t-103 -97 q-7 -10 -17.5 -28t-14.5 -24q-11 -17 -28 -17q-18 0 -29 17q-4 6 -14.5 24t-17.5 28q-43 60 -102.5 97t-127.5 37t-127.5 -37t-102.5 -97q-7 -10 -17.5 -28t-14.5 -24q-11 -17 -29 -17q-17 0 -28 17q-4 6 -14.5 24t-17.5 28q-43 60 -103 97t-128 37q-58 0 -102 -23t-93 -69 q-12 -10 -23 -10q-13 0 -22.5 9.5t-9.5 22.5q0 5 1 7q45 183 172.5 319.5t298 204.5t360.5 68q140 0 274.5 -40t246.5 -113.5t194.5 -187t115.5 -251.5q1 -2 1 -7zM896 1408v-98q-42 2 -64 2t-64 -2v98q0 26 19 45t45 19t45 -19t19 -45z" fill="white" /></g></svg>