<?xml version="1.0" encoding="UTF-8"?>
<svg xmlns="http://www.w3.org/2000/svg" xmlns:xlink="http://www.w3.org/1999/xlink" width="2048" height="2048" viewBox="0 0 2048 2048" version="1.1">
<g>
<path d="M 1088 956 L 1088 1536 C 1088 1605.332031 1062.667969 1665.332031 1012 1716 C 961.332031 1766.667969 901.332031 1792 832 1792 C 762.667969 1792 702.667969 1766.667969 652 1716 C 601.332031 1665.332031 576 1605.332031 576 1536 C 576 1518.667969 582.332031 1503.667969 595 1491 C 607.667969 1478.332031 622.667969 1472 640 1472 C 657.332031 1472 672.332031 1478.332031 685 1491 C 697.667969 1503.667969 704 1518.667969 704 1536 C 704 1569.332031 717 1599 743 1625 C 769 1651 798.667969 1664 832 1664 C 865.332031 1664 895 1651 921 1625 C 947 1599 960 1569.332031 960 1536 L 960 956 C 982 948.667969 1003.332031 945 1024 945 C 1044.667969 945 1066 948.667969 1088 956 Z M 1856 983 C 1856 991.667969 1852.832031 999.167969 1846.5 1005.5 C 1840.167969 1011.832031 1832.667969 1015 1824 1015 C 1816.667969 1015 1809 1011.667969 1801 1005 C 1768.332031 974.332031 1737.332031 951.332031 1708 936 C 1678.667969 920.667969 1644.667969 913 1606 913 C 1560.667969 913 1518 925.332031 1478 950 C 1438 974.667969 1403.667969 1007 1375 1047 C 1370.332031 1053.667969 1364.5 1063 1357.5 1075 C 1350.5 1087 1345.667969 1095 1343 1099 C 1335.667969 1110.332031 1326.332031 1116 1315 1116 C 1303 1116 1293.332031 1110.332031 1286 1099 C 1283.332031 1095 1278.5 1087 1271.5 1075 C 1264.5 1063 1258.667969 1053.667969 1254 1047 C 1225.332031 1007 1191.167969 974.667969 1151.5 950 C 1111.832031 925.332031 1069.332031 913 1024 913 C 978.667969 913 936.167969 925.332031 896.5 950 C 856.832031 974.667969 822.667969 1007 794 1047 C 789.332031 1053.667969 783.5 1063 776.5 1075 C 769.5 1087 764.667969 1095 762 1099 C 754.667969 1110.332031 745 1116 733 1116 C 721.667969 1116 712.332031 1110.332031 705 1099 C 702.332031 1095 697.5 1087 690.5 1075 C 683.5 1063 677.667969 1053.667969 673 1047 C 644.332031 1007 610 974.667969 570 950 C 530 925.332031 487.332031 913 442 913 C 403.332031 913 369.332031 920.667969 340 936 C 310.667969 951.332031 279.667969 974.332031 247 1005 C 239 1011.667969 231.332031 1015 224 1015 C 215.332031 1015 207.832031 1011.832031 201.5 1005.5 C 195.167969 999.167969 192 991.667969 192 983 C 192 979.667969 192.332031 977.332031 193 976 C 223 854 280.5 747.5 365.5 656.5 C 450.5 565.5 549.832031 497.332031 663.5 452 C 777.167969 406.667969 897.332031 384 1024 384 C 1117.332031 384 1208.832031 397.332031 1298.5 424 C 1388.167969 450.667969 1470.332031 488.5 1545 537.5 C 1619.667969 586.5 1684.5 648.832031 1739.5 724.5 C 1794.5 800.167969 1833 884 1855 976 C 1855.667969 977.332031 1856 979.667969 1856 983 Z M 1088 256 L 1088 354 C 1060 352.667969 1038.667969 352 1024 352 C 1009.332031 352 988 352.667969 960 354 L 960 256 C 960 238.667969 966.332031 223.667969 979 211 C 991.667969 198.332031 1006.667969 192 1024 192 C 1041.332031 192 1056.332031 198.332031 1069 211 C 1081.667969 223.667969 1088 238.667969 1088 256 Z M 1088 256 " fill="white" />
</g>
</svg>
