<svg width="2048" height="2048" viewBox="-256 -384 2048 2048" xmlns="http://www.w3.org/2000/svg"><g transform="scale(1 -1) translate(0 -1280)"><path d="M48 1313q-37 2 -45 4l-3 88q13 1 40 1q60 0 112 -4q132 -7 166 -7q86 0 168 3q116 4 146 5q56 0 86 2l-1 -14l2 -64v-9q-60 -9 -124 -9q-60 0 -79 -25q-13 -14 -13 -132q0 -13 0.5 -32.5t0.5 -25.5l1 -229l14 -280q6 -124 51 -202q35 -59 96 -92q88 -47 177 -47 q104 0 191 28q56 18 99 51q48 36 65 64q36 56 53 114q21 73 21 229q0 79 -3.5 128t-11 122.5t-13.5 159.5l-4 59q-5 67 -24 88q-34 35 -77 34l-100 -2l-14 3l2 86h84l205 -10q76 -3 196 10l18 -2q6 -38 6 -51q0 -7 -4 -31q-45 -12 -84 -13q-73 -11 -79 -17q-15 -15 -15 -41 q0 -7 1.5 -27t1.5 -31q8 -19 22 -396q6 -195 -15 -304q-15 -76 -41 -122q-38 -65 -112 -123q-75 -57 -182 -89q-109 -33 -255 -33q-167 0 -284 46q-119 47 -179 122q-61 76 -83 195q-16 80 -16 237v333q0 188 -17 213q-25 36 -147 39zM1536 -96v64q0 14 -9 23t-23 9h-1472 q-14 0 -23 -9t-9 -23v-64q0 -14 9 -23t23 -9h1472q14 0 23 9t9 23z" fill="white" /></g></svg>