<svg width="2048" height="2048" viewBox="-256 -384 2048 2048" xmlns="http://www.w3.org/2000/svg"><g transform="scale(1 -1) translate(0 -1280)"><path d="M1536 640q0 -156 -61 -298t-164 -245t-245 -164t-298 -61q-172 0 -327 72.5t-264 204.5q-7 10 -6.5 22.5t8.5 20.5l137 138q10 9 25 9q16 -2 23 -12q73 -95 179 -147t225 -52q104 0 198.5 40.5t163.5 109.5t109.5 163.5t40.5 198.5t-40.5 198.5t-109.5 163.5 t-163.5 109.5t-198.5 40.5q-98 0 -188 -35.5t-160 -101.5l137 -138q31 -30 14 -69q-17 -40 -59 -40h-448q-26 0 -45 19t-19 45v448q0 42 40 59q39 17 69 -14l130 -129q107 101 244.5 156.5t284.5 55.5q156 0 298 -61t245 -164t164 -245t61 -298z" fill="white" /></g></svg>