<?xml version="1.0" encoding="UTF-8"?>
<svg xmlns="http://www.w3.org/2000/svg" xmlns:xlink="http://www.w3.org/1999/xlink" width="2048" height="2048" viewBox="0 0 2048 2048" version="1.1">
<g>
<path d="M 1856 704 L 1856 960 C 1856 977.332031 1849.667969 992.332031 1837 1005 C 1824.332031 1017.667969 1809.332031 1024 1792 1024 L 1728 1024 C 1710.667969 1024 1695.667969 1017.667969 1683 1005 C 1670.332031 992.332031 1664 977.332031 1664 960 L 1664 704 C 1664 633.332031 1639 573 1589 523 C 1539 473 1478.667969 448 1408 448 C 1337.332031 448 1277 473 1227 523 C 1177 573 1152 633.332031 1152 704 L 1152 896 L 1248 896 C 1274.667969 896 1297.332031 905.332031 1316 924 C 1334.667969 942.667969 1344 965.332031 1344 992 L 1344 1568 C 1344 1594.667969 1334.667969 1617.332031 1316 1636 C 1297.332031 1654.667969 1274.667969 1664 1248 1664 L 288 1664 C 261.332031 1664 238.667969 1654.667969 220 1636 C 201.332031 1617.332031 192 1594.667969 192 1568 L 192 992 C 192 965.332031 201.332031 942.667969 220 924 C 238.667969 905.332031 261.332031 896 288 896 L 960 896 L 960 704 C 960 580.667969 1003.832031 475.167969 1091.5 387.5 C 1179.167969 299.832031 1284.667969 256 1408 256 C 1531.332031 256 1636.832031 299.832031 1724.5 387.5 C 1812.167969 475.167969 1856 580.667969 1856 704 Z M 1856 704 " fill="white" />
</g>
</svg>
