<svg width="2048" height="2048" viewBox="-192 -384 2048 2048" xmlns="http://www.w3.org/2000/svg"><g transform="scale(1 -1) translate(0 -1280)"><path d="M1280 64q0 26 -19 45t-45 19t-45 -19t-19 -45t19 -45t45 -19t45 19t19 45zM1536 64q0 26 -19 45t-45 19t-45 -19t-19 -45t19 -45t45 -19t45 19t19 45zM1664 288v-320q0 -40 -28 -68t-68 -28h-1472q-40 0 -68 28t-28 68v320q0 40 28 68t68 28h427q21 -56 70.5 -92 t110.5 -36h256q61 0 110.5 36t70.5 92h427q40 0 68 -28t28 -68zM1339 936q-17 -40 -59 -40h-256v-448q0 -26 -19 -45t-45 -19h-256q-26 0 -45 19t-19 45v448h-256q-42 0 -59 40q-17 39 14 69l448 448q18 19 45 19t45 -19l448 -448q31 -30 14 -69z" fill="white" /></g></svg>