<?xml version="1.0" encoding="UTF-8"?>
<svg xmlns="http://www.w3.org/2000/svg" xmlns:xlink="http://www.w3.org/1999/xlink" width="2048" height="2048" viewBox="0 0 2048 2048" version="1.1">
<g>
<path d="M 657 1024 C 549 1027.332031 460.667969 1070 392 1152 L 258 1152 C 203.332031 1152 157.332031 1138.5 120 1111.5 C 82.667969 1084.5 64 1045 64 993 C 64 757.667969 105.332031 640 188 640 C 192 640 206.5 647 231.5 661 C 256.5 675 289 689.167969 329 703.5 C 369 717.832031 408.667969 725 448 725 C 492.667969 725 537 717.332031 581 702 C 577.667969 726.667969 576 748.667969 576 768 C 576 860.667969 603 946 657 1024 Z M 1728 1661 C 1728 1741 1703.667969 1804.167969 1655 1850.5 C 1606.332031 1896.832031 1541.667969 1920 1461 1920 L 587 1920 C 506.332031 1920 441.667969 1896.832031 393 1850.5 C 344.332031 1804.167969 320 1741 320 1661 C 320 1625.667969 321.167969 1591.167969 323.5 1557.5 C 325.832031 1523.832031 330.5 1487.5 337.5 1448.5 C 344.5 1409.5 353.332031 1373.332031 364 1340 C 374.667969 1306.667969 389 1274.167969 407 1242.5 C 425 1210.832031 445.667969 1183.832031 469 1161.5 C 492.332031 1139.167969 520.832031 1121.332031 554.5 1108 C 588.167969 1094.667969 625.332031 1088 666 1088 C 672.667969 1088 687 1095.167969 709 1109.5 C 731 1123.832031 755.332031 1139.832031 782 1157.5 C 808.667969 1175.167969 844.332031 1191.167969 889 1205.5 C 933.667969 1219.832031 978.667969 1227 1024 1227 C 1069.332031 1227 1114.332031 1219.832031 1159 1205.5 C 1203.667969 1191.167969 1239.332031 1175.167969 1266 1157.5 C 1292.667969 1139.832031 1317 1123.832031 1339 1109.5 C 1361 1095.167969 1375.332031 1088 1382 1088 C 1422.667969 1088 1459.832031 1094.667969 1493.5 1108 C 1527.167969 1121.332031 1555.667969 1139.167969 1579 1161.5 C 1602.332031 1183.832031 1623 1210.832031 1641 1242.5 C 1659 1274.167969 1673.332031 1306.667969 1684 1340 C 1694.667969 1373.332031 1703.5 1409.5 1710.5 1448.5 C 1717.5 1487.5 1722.167969 1523.832031 1724.5 1557.5 C 1726.832031 1591.167969 1728 1625.667969 1728 1661 Z M 704 384 C 704 454.667969 679 515 629 565 C 579 615 518.667969 640 448 640 C 377.332031 640 317 615 267 565 C 217 515 192 454.667969 192 384 C 192 313.332031 217 253 267 203 C 317 153 377.332031 128 448 128 C 518.667969 128 579 153 629 203 C 679 253 704 313.332031 704 384 Z M 1408 768 C 1408 874 1370.5 964.5 1295.5 1039.5 C 1220.5 1114.5 1130 1152 1024 1152 C 918 1152 827.5 1114.5 752.5 1039.5 C 677.5 964.5 640 874 640 768 C 640 662 677.5 571.5 752.5 496.5 C 827.5 421.5 918 384 1024 384 C 1130 384 1220.5 421.5 1295.5 496.5 C 1370.5 571.5 1408 662 1408 768 Z M 1984 993 C 1984 1045 1965.332031 1084.5 1928 1111.5 C 1890.667969 1138.5 1844.667969 1152 1790 1152 L 1656 1152 C 1587.332031 1070 1499 1027.332031 1391 1024 C 1445 946 1472 860.667969 1472 768 C 1472 748.667969 1470.332031 726.667969 1467 702 C 1511 717.332031 1555.332031 725 1600 725 C 1639.332031 725 1679 717.832031 1719 703.5 C 1759 689.167969 1791.5 675 1816.5 661 C 1841.5 647 1856 640 1860 640 C 1942.667969 640 1984 757.667969 1984 993 Z M 1856 384 C 1856 454.667969 1831 515 1781 565 C 1731 615 1670.667969 640 1600 640 C 1529.332031 640 1469 615 1419 565 C 1369 515 1344 454.667969 1344 384 C 1344 313.332031 1369 253 1419 203 C 1469 153 1529.332031 128 1600 128 C 1670.667969 128 1731 153 1781 203 C 1831 253 1856 313.332031 1856 384 Z M 1856 384 " fill="white" />
</g>
</svg>
