<svg width="2048" height="2048" viewBox="-256 -384 2048 2048" xmlns="http://www.w3.org/2000/svg"><g transform="scale(1 -1) translate(0 -1280)"><path d="M1254 899q16 85 -21 132q-52 65 -187 45q-17 -3 -41 -12.5t-57.5 -30.5t-64.5 -48.5t-59.5 -70t-44.5 -91.5q80 7 113.5 -16t26.5 -99q-5 -52 -52 -143q-43 -78 -71 -99q-44 -32 -87 14q-23 24 -37.5 64.5t-19 73t-10 84t-8.5 71.5q-23 129 -34 164q-12 37 -35.5 69 t-50.5 40q-57 16 -127 -25q-54 -32 -136.5 -106t-122.5 -102v-7q16 -8 25.5 -26t21.5 -20q21 -3 54.5 8.5t58 10.5t41.5 -30q11 -18 18.5 -38.5t15 -48t12.5 -40.5q17 -46 53 -187q36 -146 57 -197q42 -99 103 -125q43 -12 85 -1.5t76 31.5q131 77 250 237 q104 139 172.5 292.5t82.5 226.5zM1536 1120v-960q0 -119 -84.5 -203.5t-203.5 -84.5h-960q-119 0 -203.5 84.5t-84.5 203.5v960q0 119 84.5 203.5t203.5 84.5h960q119 0 203.5 -84.5t84.5 -203.5z" fill="white" /></g></svg>