<?xml version="1.0" encoding="UTF-8"?>
<svg xmlns="http://www.w3.org/2000/svg" xmlns:xlink="http://www.w3.org/1999/xlink" width="2048" height="2048" viewBox="0 0 2048 2048" version="1.1">
<g>
<path d="M 1510 765 C 1520.667969 708.332031 1513.667969 664.332031 1489 633 C 1454.332031 589.667969 1392 574.667969 1302 588 C 1290.667969 590 1277 594.167969 1261 600.5 C 1245 606.832031 1225.832031 617 1203.5 631 C 1181.167969 645 1159.667969 661.167969 1139 679.5 C 1118.332031 697.832031 1098.5 721.167969 1079.5 749.5 C 1060.5 777.832031 1045.667969 808.332031 1035 841 C 1088.332031 836.332031 1126.167969 841.667969 1148.5 857 C 1170.832031 872.332031 1179.667969 905.332031 1175 956 C 1171.667969 990.667969 1154.332031 1038.332031 1123 1099 C 1094.332031 1151 1070.667969 1184 1052 1198 C 1022.667969 1219.332031 993.667969 1214.667969 965 1184 C 949.667969 1168 937.167969 1146.5 927.5 1119.5 C 917.832031 1092.5 911.5 1068.167969 908.5 1046.5 C 905.5 1024.832031 902.167969 996.832031 898.5 962.5 C 894.832031 928.167969 892 904.332031 890 891 C 874.667969 805 863.332031 750.332031 856 727 C 848 702.332031 836.167969 679.332031 820.5 658 C 804.832031 636.667969 788 623.332031 770 618 C 732 607.332031 689.667969 615.667969 643 643 C 607 664.332031 561.5 699.667969 506.5 749 C 451.5 798.332031 410.667969 832.332031 384 851 L 384 858 C 394.667969 863.332031 403.167969 872 409.5 884 C 415.832031 896 423 902.667969 431 904 C 445 906 463.167969 903.167969 485.5 895.5 C 507.832031 887.832031 527.167969 884.332031 543.5 885 C 559.832031 885.667969 573.667969 895.667969 585 915 C 592.332031 927 598.5 939.832031 603.5 953.5 C 608.5 967.167969 613.5 983.167969 618.5 1001.5 C 623.5 1019.832031 627.667969 1033.332031 631 1042 C 642.332031 1072.667969 660 1135 684 1229 C 708 1326.332031 727 1392 741 1426 C 769 1492 803.332031 1533.667969 844 1551 C 872.667969 1559 901 1559.5 929 1552.5 C 957 1545.5 982.332031 1535 1005 1521 C 1092.332031 1469.667969 1175.667969 1390.667969 1255 1284 C 1324.332031 1191.332031 1381.832031 1093.832031 1427.5 991.5 C 1473.167969 889.167969 1500.667969 813.667969 1510 765 Z M 1792 544 L 1792 1504 C 1792 1583.332031 1763.832031 1651.167969 1707.5 1707.5 C 1651.167969 1763.832031 1583.332031 1792 1504 1792 L 544 1792 C 464.667969 1792 396.832031 1763.832031 340.5 1707.5 C 284.167969 1651.167969 256 1583.332031 256 1504 L 256 544 C 256 464.667969 284.167969 396.832031 340.5 340.5 C 396.832031 284.167969 464.667969 256 544 256 L 1504 256 C 1583.332031 256 1651.167969 284.167969 1707.5 340.5 C 1763.832031 396.832031 1792 464.667969 1792 544 Z M 1792 544 " fill="white" />
</g>
</svg>
