<?xml version="1.0" encoding="UTF-8"?>
<svg xmlns="http://www.w3.org/2000/svg" xmlns:xlink="http://www.w3.org/1999/xlink" width="2048" height="2048" viewBox="0 0 2048 2048" version="1.1">
<g>
<path d="M 1408 480 L 1408 1568 C 1408 1585.332031 1401.667969 1600.332031 1389 1613 C 1376.332031 1625.667969 1361.332031 1632 1344 1632 C 1326.667969 1632 1311.667969 1625.667969 1299 1613 L 966 1280 L 704 1280 C 686.667969 1280 671.667969 1273.667969 659 1261 C 646.332031 1248.332031 640 1233.332031 640 1216 L 640 832 C 640 814.667969 646.332031 799.667969 659 787 C 671.667969 774.332031 686.667969 768 704 768 L 966 768 L 1299 435 C 1311.667969 422.332031 1326.667969 416 1344 416 C 1361.332031 416 1376.332031 422.332031 1389 435 C 1401.667969 447.667969 1408 462.667969 1408 480 Z M 1408 480 " fill="white" />
</g>
</svg>
