<?xml version="1.0" encoding="UTF-8"?>
<svg xmlns="http://www.w3.org/2000/svg" xmlns:xlink="http://www.w3.org/1999/xlink" width="2048" height="2048" viewBox="0 0 2048 2048" version="1.1">
<g>
<path d="M 960 480 L 960 1568 C 960 1585.332031 953.667969 1600.332031 941 1613 C 928.332031 1625.667969 913.332031 1632 896 1632 C 878.667969 1632 863.667969 1625.667969 851 1613 L 518 1280 L 256 1280 C 238.667969 1280 223.667969 1273.667969 211 1261 C 198.332031 1248.332031 192 1233.332031 192 1216 L 192 832 C 192 814.667969 198.332031 799.667969 211 787 C 223.667969 774.332031 238.667969 768 256 768 L 518 768 L 851 435 C 863.667969 422.332031 878.667969 416 896 416 C 913.332031 416 928.332031 422.332031 941 435 C 953.667969 447.667969 960 462.667969 960 480 Z M 1344 1024 C 1344 1074.667969 1329.832031 1121.832031 1301.5 1165.5 C 1273.167969 1209.167969 1235.667969 1240.332031 1189 1259 C 1182.332031 1262.332031 1174 1264 1164 1264 C 1146.667969 1264 1131.667969 1257.832031 1119 1245.5 C 1106.332031 1233.167969 1100 1218 1100 1200 C 1100 1186 1104 1174.167969 1112 1164.5 C 1120 1154.832031 1129.667969 1146.5 1141 1139.5 C 1152.332031 1132.5 1163.667969 1124.832031 1175 1116.5 C 1186.332031 1108.167969 1196 1096.332031 1204 1081 C 1212 1065.667969 1216 1046.667969 1216 1024 C 1216 1001.332031 1212 982.332031 1204 967 C 1196 951.667969 1186.332031 939.832031 1175 931.5 C 1163.667969 923.167969 1152.332031 915.5 1141 908.5 C 1129.667969 901.5 1120 893.167969 1112 883.5 C 1104 873.832031 1100 862 1100 848 C 1100 830 1106.332031 814.832031 1119 802.5 C 1131.667969 790.167969 1146.667969 784 1164 784 C 1174 784 1182.332031 785.667969 1189 789 C 1235.667969 807 1273.167969 838 1301.5 882 C 1329.832031 926 1344 973.332031 1344 1024 Z M 1600 1024 C 1600 1126 1571.667969 1220.167969 1515 1306.5 C 1458.332031 1392.832031 1383.332031 1455.667969 1290 1495 C 1281.332031 1498.332031 1273 1500 1265 1500 C 1247 1500 1231.667969 1493.667969 1219 1481 C 1206.332031 1468.332031 1200 1453.332031 1200 1436 C 1200 1410 1213 1390.332031 1239 1377 C 1276.332031 1357.667969 1301.667969 1343 1315 1333 C 1364.332031 1297 1402.832031 1251.832031 1430.5 1197.5 C 1458.167969 1143.167969 1472 1085.332031 1472 1024 C 1472 962.667969 1458.167969 904.832031 1430.5 850.5 C 1402.832031 796.167969 1364.332031 751 1315 715 C 1301.667969 705 1276.332031 690.332031 1239 671 C 1213 657.667969 1200 638 1200 612 C 1200 594.667969 1206.332031 579.667969 1219 567 C 1231.667969 554.332031 1246.667969 548 1264 548 C 1272.667969 548 1281.332031 549.667969 1290 553 C 1383.332031 592.332031 1458.332031 655.167969 1515 741.5 C 1571.667969 827.832031 1600 922 1600 1024 Z M 1856 1024 C 1856 1177.332031 1813.667969 1318.167969 1729 1446.5 C 1644.332031 1574.832031 1531.667969 1669.332031 1391 1730 C 1382.332031 1733.332031 1373.667969 1735 1365 1735 C 1347.667969 1735 1332.667969 1728.667969 1320 1716 C 1307.332031 1703.332031 1301 1688.332031 1301 1671 C 1301 1647 1314 1627.332031 1340 1612 C 1344.667969 1609.332031 1352.167969 1605.832031 1362.5 1601.5 C 1372.832031 1597.167969 1380.332031 1593.667969 1385 1591 C 1415.667969 1574.332031 1443 1557.332031 1467 1540 C 1549 1479.332031 1613 1403.667969 1659 1313 C 1705 1222.332031 1728 1126 1728 1024 C 1728 922 1705 825.667969 1659 735 C 1613 644.332031 1549 568.667969 1467 508 C 1443 490.667969 1415.667969 473.667969 1385 457 C 1380.332031 454.332031 1372.832031 450.832031 1362.5 446.5 C 1352.167969 442.167969 1344.667969 438.667969 1340 436 C 1314 420.667969 1301 401 1301 377 C 1301 359.667969 1307.332031 344.667969 1320 332 C 1332.667969 319.332031 1347.667969 313 1365 313 C 1373.667969 313 1382.332031 314.667969 1391 318 C 1531.667969 378.667969 1644.332031 473.167969 1729 601.5 C 1813.667969 729.832031 1856 870.667969 1856 1024 Z M 1856 1024 " fill="white" />
</g>
</svg>
