<svg width="2048" height="2048" viewBox="-128 -384 2048 2048" xmlns="http://www.w3.org/2000/svg"><g transform="scale(1 -1) translate(0 -1280)"><path d="M675 252q21 34 11 69t-45 50q-34 14 -73 1t-60 -46q-22 -34 -13 -68.5t43 -50.5t74.5 -2.5t62.5 47.5zM769 373q8 13 3.5 26.5t-17.5 18.5q-14 5 -28.5 -0.5t-21.5 -18.5q-17 -31 13 -45q14 -5 29 0.5t22 18.5zM943 266q-45 -102 -158 -150t-224 -12 q-107 34 -147.5 126.5t6.5 187.5q47 93 151.5 139t210.5 19q111 -29 158.5 -119.5t2.5 -190.5zM1255 426q-9 96 -89 170t-208.5 109t-274.5 21q-223 -23 -369.5 -141.5t-132.5 -264.5q9 -96 89 -170t208.5 -109t274.5 -21q223 23 369.5 141.5t132.5 264.5zM1563 422 q0 -68 -37 -139.5t-109 -137t-168.5 -117.5t-226 -83t-270.5 -31t-275 33.5t-240.5 93t-171.5 151t-65 199.5q0 115 69.5 245t197.5 258q169 169 341.5 236t246.5 -7q65 -64 20 -209q-4 -14 -1 -20t10 -7t14.5 0.5t13.5 3.5l6 2q139 59 246 59t153 -61q45 -63 0 -178 q-2 -13 -4.5 -20t4.5 -12.5t12 -7.5t17 -6q57 -18 103 -47t80 -81.5t34 -116.5zM1489 1046q42 -47 54.5 -108.5t-6.5 -117.5q-8 -23 -29.5 -34t-44.5 -4q-23 8 -34 29.5t-4 44.5q20 63 -24 111t-107 35q-24 -5 -45 8t-25 37q-5 24 8 44.5t37 25.5q60 13 119 -5.5t101 -65.5z M1670 1209q87 -96 112.5 -222.5t-13.5 -241.5q-9 -27 -34 -40t-52 -4t-40 34t-5 52q28 82 10 172t-80 158q-62 69 -148 95.5t-173 8.5q-28 -6 -52 9.5t-30 43.5t9.5 51.5t43.5 29.5q123 26 244 -11.5t208 -134.5z" fill="white" /></g></svg>