<?xml version="1.0" encoding="UTF-8"?>
<svg xmlns="http://www.w3.org/2000/svg" xmlns:xlink="http://www.w3.org/1999/xlink" width="2048" height="2048" viewBox="0 0 2048 2048" version="1.1">
<g>
<path d="M 1215 1315 L 1317 1519 C 1278.332031 1638.332031 1208.332031 1735 1107 1809 C 1005.667969 1883 892.667969 1920 768 1920 C 664 1920 567.832031 1894.167969 479.5 1842.5 C 391.167969 1790.832031 321.167969 1720.832031 269.5 1632.5 C 217.832031 1544.167969 192 1448 192 1344 C 192 1223.332031 226.832031 1113.332031 296.5 1014 C 366.167969 914.667969 457.667969 844.332031 571 803 L 588 934 C 506.667969 970 441.667969 1025.167969 393 1099.5 C 344.332031 1173.832031 320 1255.332031 320 1344 C 320 1467.332031 363.832031 1572.832031 451.5 1660.5 C 539.167969 1748.167969 644.667969 1792 768 1792 C 852 1792 929.5 1770.332031 1000.5 1727 C 1071.5 1683.667969 1126.5 1625.167969 1165.5 1551.5 C 1204.5 1477.832031 1221 1399 1215 1315 Z M 1763 1415 L 1821 1529 L 1565 1657 C 1556.332031 1661.667969 1546.667969 1664 1536 1664 C 1509.332031 1664 1490.332031 1652.332031 1479 1629 L 1240 1152 L 768 1152 C 752 1152 737.832031 1146.5 725.5 1135.5 C 713.167969 1124.5 706 1111 704 1095 L 608 316 C 606.667969 305.332031 608.667969 291.332031 614 274 C 623.332031 240 642.332031 212.5 671 191.5 C 699.667969 170.5 732 160 768 160 C 812 160 849.667969 175.667969 881 207 C 912.332031 238.332031 928 276 928 320 C 928 366 910.667969 405.167969 876 437.5 C 841.332031 469.832031 801.332031 483.667969 756 479 L 793 768 L 1216 768 L 1216 896 L 809 896 L 825 1024 L 1280 1024 C 1306.667969 1024 1325.667969 1035.667969 1337 1059 L 1565 1514 Z M 1763 1415 " fill="white" />
</g>
</svg>
