<?xml version="1.0" encoding="UTF-8"?>
<svg xmlns="http://www.w3.org/2000/svg" xmlns:xlink="http://www.w3.org/1999/xlink" width="2048" height="2048" viewBox="0 0 2048 2048" version="1.1">
<g>
<path d="M 917 795 C 910.332031 807 824.667969 959 660 1251 C 642 1281.667969 620.332031 1297 595 1297 L 356 1297 C 342 1297 331.667969 1291.332031 325 1280 C 318.332031 1268.667969 318.332031 1256.667969 325 1244 L 578 796 C 578.667969 796 578.667969 795.667969 578 795 L 417 516 C 409 501.332031 408.667969 489 416 479 C 422 469 432.667969 464 448 464 L 687 464 C 713.667969 464 735.667969 479 753 509 Z M 1723 153 C 1730.332031 163.667969 1730.332031 176 1723 190 L 1195 1124 L 1195 1125 L 1531 1740 C 1538.332031 1753.332031 1538.667969 1765.667969 1532 1777 C 1525.332031 1787 1514.667969 1792 1500 1792 L 1261 1792 C 1233 1792 1211 1777 1195 1747 L 856 1125 C 868 1103.667969 1045 789.667969 1387 183 C 1403.667969 153 1425 138 1451 138 L 1692 138 C 1706.667969 138 1717 143 1723 153 Z M 1723 153 " fill="white" />
</g>
</svg>
