<?xml version="1.0" encoding="UTF-8"?>
<svg xmlns="http://www.w3.org/2000/svg" xmlns:xlink="http://www.w3.org/1999/xlink" width="2048" height="2048" viewBox="0 0 2048 2048" version="1.1">
<g>
<path d="M 1408 1024 C 1408 999.332031 1398 981.332031 1378 970 L 866 650 C 845.332031 636.667969 823.667969 636 801 648 C 779 660 768 678.667969 768 704 L 768 1344 C 768 1369.332031 779 1388 801 1400 C 811.667969 1405.332031 822 1408 832 1408 C 845.332031 1408 856.667969 1404.667969 866 1398 L 1378 1078 C 1398 1066.667969 1408 1048.667969 1408 1024 Z M 1920 1024 C 1920 1088 1919.667969 1138 1919 1174 C 1918.332031 1210 1915.5 1255.5 1910.5 1310.5 C 1905.5 1365.5 1898 1414.667969 1888 1458 C 1877.332031 1506.667969 1854.332031 1547.667969 1819 1581 C 1783.667969 1614.332031 1742.332031 1633.667969 1695 1639 C 1547 1655.667969 1323.332031 1664 1024 1664 C 724.667969 1664 501 1655.667969 353 1639 C 305.667969 1633.667969 264.167969 1614.332031 228.5 1581 C 192.832031 1547.667969 169.667969 1506.667969 159 1458 C 149.667969 1414.667969 142.5 1365.5 137.5 1310.5 C 132.5 1255.5 129.667969 1210 129 1174 C 128.332031 1138 128 1088 128 1024 C 128 960 128.332031 910 129 874 C 129.667969 838 132.5 792.5 137.5 737.5 C 142.5 682.5 150 633.332031 160 590 C 170.667969 541.332031 193.667969 500.332031 229 467 C 264.332031 433.667969 305.667969 414.332031 353 409 C 501 392.332031 724.667969 384 1024 384 C 1323.332031 384 1547 392.332031 1695 409 C 1742.332031 414.332031 1783.832031 433.667969 1819.5 467 C 1855.167969 500.332031 1878.332031 541.332031 1889 590 C 1898.332031 633.332031 1905.5 682.5 1910.5 737.5 C 1915.5 792.5 1918.332031 838 1919 874 C 1919.667969 910 1920 960 1920 1024 Z M 1920 1024 " fill="white" />
</g>
</svg>
