<svg width="2048" height="2048" viewBox="-256 -384 2048 2048" xmlns="http://www.w3.org/2000/svg"><g transform="scale(1 -1) translate(0 -1280)"><path d="M919 233v157q0 50 -29 50q-17 0 -33 -16v-224q16 -16 33 -16q29 0 29 49zM1103 355h66v34q0 51 -33 51t-33 -51v-34zM532 621v-70h-80v-423h-74v423h-78v70h232zM733 495v-367h-67v40q-39 -45 -76 -45q-33 0 -42 28q-6 16 -6 54v290h66v-270q0 -24 1 -26q1 -15 15 -15 q20 0 42 31v280h67zM985 384v-146q0 -52 -7 -73q-12 -42 -53 -42q-35 0 -68 41v-36h-67v493h67v-161q32 40 68 40q41 0 53 -42q7 -21 7 -74zM1236 255v-9q0 -29 -2 -43q-3 -22 -15 -40q-27 -40 -80 -40q-52 0 -81 38q-21 27 -21 86v129q0 59 20 86q29 38 80 38t78 -38 q21 -28 21 -86v-76h-133v-65q0 -51 34 -51q24 0 30 26q0 1 0.5 7t0.5 16.5v21.5h68zM785 1079v-156q0 -51 -32 -51t-32 51v156q0 52 32 52t32 -52zM1318 366q0 177 -19 260q-10 44 -43 73.5t-76 34.5q-136 15 -412 15q-275 0 -411 -15q-44 -5 -76.5 -34.5t-42.5 -73.5 q-20 -87 -20 -260q0 -176 20 -260q10 -43 42.5 -73t75.5 -35q137 -15 412 -15t412 15q43 5 75.5 35t42.5 73q20 84 20 260zM563 1017l90 296h-75l-51 -195l-53 195h-78l24 -69t23 -69q35 -103 46 -158v-201h74v201zM852 936v130q0 58 -21 87q-29 38 -78 38q-51 0 -78 -38 q-21 -29 -21 -87v-130q0 -58 21 -87q27 -38 78 -38q49 0 78 38q21 27 21 87zM1033 816h67v370h-67v-283q-22 -31 -42 -31q-15 0 -16 16q-1 2 -1 26v272h-67v-293q0 -37 6 -55q11 -27 43 -27q36 0 77 45v-40zM1536 1120v-960q0 -119 -84.5 -203.5t-203.5 -84.5h-960 q-119 0 -203.5 84.5t-84.5 203.5v960q0 119 84.5 203.5t203.5 84.5h960q119 0 203.5 -84.5t84.5 -203.5z" fill="white" /></g></svg>